<svg width="80" height="80" viewBox="0 0 80 80" fill="none" xmlns="http://www.w3.org/2000/svg">
<g clip-path="url(#clip0_119_6)">
<path d="M67.3679 67.4939C82.483 52.3787 82.483 27.8722 67.3679 12.7571C52.2527 -2.35804 27.7462 -2.35804 12.6311 12.7571C-2.48406 27.8722 -2.48406 52.3787 12.6311 67.4939C27.7462 82.609 52.2527 82.609 67.3679 67.4939Z" fill="url(#paint0_linear_119_6)"/>
<path style="mix-blend-mode:multiply" opacity="0.1" d="M4.30194 25.1656C-3.96135 44.8808 5.32333 67.5616 25.0321 75.8233C44.7408 84.085 67.4264 74.8019 75.6897 55.0867C77.9382 49.7418 78.9519 43.9584 78.6553 38.1674C74.0574 53.4027 64.881 67.8768 47.7161 69.7563C31.4368 71.5341 12.103 61.4203 7.0736 45.2283C4.66557 37.4709 4.96294 29.3078 7.79278 21.7071C8.77506 19.1166 9.94054 16.5993 11.2804 14.1743C8.3488 17.4166 5.98911 21.1332 4.30194 25.1656Z" fill="url(#paint1_linear_119_6)"/>
<path d="M42.3942 42.4094C53.4032 46.9345 64.5998 51.1947 76.2521 53.6576C76.5349 52.9029 76.8 52.1449 77.0327 51.3837C65.3966 48.9595 54.2356 44.6833 43.2345 40.1694C45.0888 35.8382 46.9032 31.4897 48.6777 27.124C53.6143 28.493 58.7379 29.0642 63.8548 28.8161C67.7755 28.6399 72.3589 28.0533 76.1051 26.2125C75.8206 25.4739 75.5184 24.7434 75.1903 24.0242C71.6752 25.802 67.2018 26.2222 63.5396 26.4484C58.8528 26.7361 54.1111 26.1252 49.5795 24.884C52.1782 18.4303 54.6875 11.941 57.1074 5.4161C56.4044 5.07025 55.6917 4.73732 54.958 4.43026L54.9321 4.41895C52.4724 11.0472 49.9226 17.6384 47.283 24.1923C47.1327 24.1438 46.9824 24.097 46.8337 24.0469C41.5893 22.2788 36.7619 19.4635 32.5325 15.9113C29.0352 12.9731 25.6559 9.23987 24.0107 4.88601C23.2834 5.20923 22.5658 5.56317 21.8596 5.93649C23.5307 10.1481 26.6336 13.7198 29.958 16.8195C34.5042 21.057 40.0766 24.1794 45.9109 26.2513L46.3876 26.4129C44.639 30.7107 42.8537 34.9929 41.0318 39.2595C28.9183 34.2711 16.8189 29.2519 4.73344 24.202C4.5896 24.5252 4.43769 24.8388 4.30193 25.1717C4.12901 25.5838 3.97871 26.0008 3.81709 26.4145C15.9025 31.4364 27.9901 36.4512 40.0799 41.4591C38.1707 45.8765 36.2205 50.2799 34.2295 54.6693C24.5327 51.0007 13.6545 50.7324 3.68457 53.5154C3.96093 54.2653 4.26315 55.0039 4.58476 55.7344C14.0171 53.1549 24.0167 53.5597 33.2097 56.8931C30.3437 63.1422 27.3948 69.3541 24.363 75.5288C24.5876 75.6273 24.8058 75.734 25.0337 75.8294C25.546 76.0443 26.0615 76.2399 26.5771 76.4306C29.6132 70.2494 32.5665 64.0273 35.4367 57.7642C35.5983 57.8353 35.7729 57.9048 35.9393 57.9776C44.2091 61.5686 51.1859 67.7875 56.0456 75.3445C56.7729 75.0213 57.4904 74.6625 58.1967 74.286C53.1596 66.4079 46.0124 60.1018 37.5684 56.0851C37.1956 55.9073 36.8185 55.7354 36.4371 55.5695C38.4282 51.1866 40.3772 46.7853 42.2843 42.3657L42.3942 42.4094Z" fill="#57290E"/>
</g>
<defs>
<linearGradient id="paint0_linear_119_6" x1="65.2018" y1="-14.0012" x2="27.8915" y2="66.1161" gradientUnits="userSpaceOnUse">
<stop offset="0.37" stop-color="#F9A11B"/>
<stop offset="0.63" stop-color="#E3751F"/>
<stop offset="0.96" stop-color="#D45722"/>
</linearGradient>
<linearGradient id="paint1_linear_119_6" x1="48.0306" y1="13.9725" x2="29.2423" y2="75.1174" gradientUnits="userSpaceOnUse">
<stop offset="0.68" stop-color="#F9A11B" stop-opacity="0"/>
<stop offset="0.74" stop-color="#EE8B1D" stop-opacity="0.25"/>
<stop offset="0.81" stop-color="#E17020" stop-opacity="0.57"/>
<stop offset="0.88" stop-color="#D75D21" stop-opacity="0.8"/>
<stop offset="0.93" stop-color="#D15123" stop-opacity="0.95"/>
<stop offset="0.96" stop-color="#CF4C23"/>
</linearGradient>
<clipPath id="clip0_119_6">
<rect width="80" height="80" fill="white"/>
</clipPath>
</defs>
</svg>
