<svg width="56" height="56" viewBox="0 0 56 56" fill="none" xmlns="http://www.w3.org/2000/svg">
<g clip-path="url(#clip0_120_1039)">
<path d="M41.5979 48.9715C53.418 41.7763 57.1672 26.3614 49.972 14.5413C42.7768 2.72126 27.3619 -1.02795 15.5418 6.16725C3.72171 13.3625 -0.027485 28.7774 7.16771 40.5975C14.3629 52.4175 29.7778 56.1667 41.5979 48.9715Z" fill="url(#paint0_linear_120_1039)"/>
<path d="M10.764 9.9502C10.764 9.9502 10.7134 10.102 10.6691 10.2602L10.5869 10.5701C10.5869 10.5701 10.6375 10.412 10.6818 10.2538C10.7261 10.0957 10.764 9.9502 10.764 9.9502Z" fill="white"/>
<path d="M10.3588 11.8285C10.3588 11.8285 10.3208 12.1448 10.3019 12.4611C10.2829 12.7773 10.3019 13.0936 10.3019 13.0936C10.298 13.1048 10.2907 13.1145 10.2811 13.1213C10.2715 13.1282 10.2599 13.1318 10.2481 13.1318C10.2363 13.1318 10.2248 13.1282 10.2151 13.1213C10.2055 13.1145 10.1982 13.1048 10.1943 13.0936C10.1943 13.0936 10.1943 12.771 10.2386 12.4611C10.2829 12.1511 10.3209 11.8285 10.3209 11.8285C10.3181 11.8237 10.3166 11.8182 10.3166 11.8127C10.3166 11.8071 10.3181 11.8017 10.3209 11.7969C10.3299 11.7968 10.3387 11.7999 10.3457 11.8057C10.3526 11.8115 10.3573 11.8196 10.3588 11.8285Z" fill="white"/>
<path d="M10.3149 14.3656C10.3149 14.3656 10.3149 14.6819 10.3782 14.9981C10.4414 15.3144 10.4667 15.6307 10.4667 15.6307C10.4689 15.6564 10.4618 15.682 10.4468 15.7029C10.4317 15.7238 10.4096 15.7386 10.3845 15.7445C10.3585 15.7482 10.3322 15.7417 10.311 15.7264C10.2897 15.7111 10.2753 15.6881 10.2706 15.6623C10.2706 15.6623 10.2263 15.346 10.201 15.0297C10.1757 14.7135 10.1631 14.3972 10.1631 14.3972C10.1631 14.3771 10.1711 14.3578 10.1853 14.3435C10.1995 14.3293 10.2189 14.3213 10.239 14.3213C10.2591 14.3213 10.2784 14.3293 10.2927 14.3435C10.3069 14.3578 10.3149 14.3771 10.3149 14.3972V14.3656Z" fill="white"/>
<path d="M10.713 16.864L11.0609 18.0975C11.0657 18.1146 11.067 18.1324 11.0648 18.1499C11.0626 18.1675 11.0569 18.1844 11.0481 18.1997C11.0392 18.215 11.0274 18.2284 11.0134 18.2391C10.9993 18.2498 10.9832 18.2576 10.9661 18.262C10.9308 18.2718 10.8932 18.2673 10.8612 18.2496C10.8293 18.2318 10.8056 18.2022 10.7953 18.1671L10.4853 16.902C10.4775 16.8718 10.4817 16.8398 10.497 16.8126C10.5123 16.7855 10.5376 16.7653 10.5675 16.7565C10.5842 16.7538 10.6012 16.7545 10.6176 16.7585C10.6339 16.7624 10.6494 16.7697 10.6629 16.7797C10.6765 16.7897 10.6879 16.8023 10.6965 16.8168C10.7051 16.8313 10.7107 16.8474 10.713 16.864Z" fill="white"/>
<path d="M11.4859 19.2807L12.0046 20.4446C12.0217 20.484 12.0228 20.5287 12.0074 20.5689C11.992 20.6091 11.9615 20.6417 11.9224 20.6596C11.8829 20.6768 11.8382 20.6778 11.798 20.6624C11.7578 20.6471 11.7252 20.6165 11.7073 20.5774L11.2139 19.4008C11.1992 19.3639 11.1996 19.3227 11.2149 19.286C11.2303 19.2493 11.2595 19.2202 11.2961 19.2047C11.3314 19.1899 11.3711 19.1896 11.4066 19.2038C11.4421 19.218 11.4706 19.2456 11.4859 19.2807Z" fill="white"/>
<path d="M12.5859 21.557L13.2184 22.6513C13.2411 22.6949 13.2472 22.7452 13.2356 22.7929C13.224 22.8406 13.1954 22.8825 13.1552 22.9107C13.1119 22.9348 13.0612 22.9417 13.0131 22.93C12.965 22.9182 12.9231 22.8887 12.8958 22.8474L12.2633 21.7404C12.252 21.7209 12.2446 21.6994 12.2417 21.677C12.2388 21.6547 12.2403 21.632 12.2462 21.6102C12.252 21.5885 12.2622 21.5681 12.2759 21.5503C12.2897 21.5325 12.3069 21.5175 12.3265 21.5064C12.3467 21.4922 12.3696 21.4823 12.3937 21.4772C12.4178 21.472 12.4427 21.4718 12.4669 21.4765C12.4912 21.4813 12.5142 21.4908 12.5346 21.5046C12.555 21.5185 12.5725 21.5363 12.5859 21.557Z" fill="white"/>
<path d="M13.9258 23.6892L14.7039 24.7077C14.7368 24.7532 14.7506 24.8098 14.7423 24.8653C14.734 24.9209 14.7043 24.971 14.6596 25.005C14.6379 25.0219 14.6129 25.0343 14.5863 25.0412C14.5596 25.0482 14.5318 25.0497 14.5046 25.0455C14.4773 25.0414 14.4512 25.0317 14.4278 25.0171C14.4045 25.0025 14.3843 24.9833 14.3686 24.9607L13.6159 23.9296C13.5856 23.8866 13.5734 23.8334 13.5816 23.7815C13.5899 23.7295 13.618 23.6828 13.6602 23.6513C13.701 23.6227 13.7511 23.6106 13.8005 23.6177C13.8498 23.6247 13.8947 23.6503 13.9258 23.6892Z" fill="white"/>
<path d="M15.5283 25.6693L16.3886 26.6182C16.4296 26.6606 16.4525 26.7173 16.4525 26.7763C16.4525 26.8353 16.4296 26.892 16.3886 26.9344C16.368 26.9555 16.3434 26.9722 16.3162 26.9836C16.2891 26.995 16.2599 27.0009 16.2305 27.0009C16.201 27.0009 16.1719 26.995 16.1447 26.9836C16.1175 26.9722 16.0929 26.9555 16.0723 26.9344L15.1931 25.9666C15.1625 25.9227 15.1488 25.8692 15.1546 25.816C15.1604 25.7628 15.1853 25.7135 15.2247 25.6772C15.264 25.641 15.3152 25.6202 15.3687 25.6187C15.4222 25.6173 15.4744 25.6353 15.5157 25.6693H15.5283Z" fill="white"/>
<path d="M17.2729 27.5096L18.2028 28.3825C18.2409 28.4261 18.2615 28.4821 18.2607 28.54C18.2599 28.5978 18.2377 28.6533 18.1984 28.6957C18.1591 28.7381 18.1055 28.7645 18.0479 28.7698C17.9903 28.775 17.9328 28.7588 17.8865 28.7241L16.9566 27.8449C16.9354 27.8237 16.9186 27.7986 16.9071 27.7709C16.8956 27.7432 16.8896 27.7135 16.8896 27.6836C16.8896 27.6536 16.8956 27.6239 16.9071 27.5962C16.9186 27.5685 16.9354 27.5434 16.9566 27.5222C16.9764 27.5004 17.0003 27.4827 17.027 27.4701C17.0537 27.4576 17.0826 27.4506 17.1121 27.4494C17.1416 27.4482 17.171 27.4529 17.1986 27.4633C17.2262 27.4736 17.2515 27.4894 17.2729 27.5096Z" fill="white"/>
<path d="M19.1587 29.2117L20.1455 30.0214C20.195 30.0616 20.2265 30.1199 20.233 30.1834C20.2395 30.2468 20.2206 30.3103 20.1803 30.3598C20.14 30.4093 20.0818 30.4407 20.0183 30.4473C19.9548 30.4538 19.8914 30.4348 19.8419 30.3946L18.8551 29.5786C18.8259 29.5605 18.8009 29.5364 18.7818 29.5078C18.7627 29.4793 18.7499 29.447 18.7444 29.4131C18.7388 29.3792 18.7406 29.3445 18.7496 29.3114C18.7585 29.2782 18.7745 29.2474 18.7964 29.2209C18.8183 29.1945 18.8456 29.173 18.8765 29.158C18.9074 29.143 18.9411 29.1347 18.9755 29.1339C19.0098 29.133 19.0439 29.1395 19.0755 29.1529C19.1071 29.1663 19.1355 29.1864 19.1587 29.2117Z" fill="white"/>
<path d="M21.146 30.786L22.1833 31.5324C22.237 31.571 22.2732 31.6293 22.2839 31.6945C22.2945 31.7598 22.2789 31.8266 22.2403 31.8803C22.2017 31.934 22.1434 31.9701 22.0781 31.9808C22.0129 31.9915 21.9461 31.9758 21.8924 31.9372L20.8866 31.1845C20.8355 31.1454 20.8011 31.0884 20.7906 31.0249C20.78 30.9615 20.794 30.8964 20.8297 30.8429C20.8669 30.7972 20.9193 30.7663 20.9773 30.7559C21.0353 30.7454 21.0951 30.7561 21.146 30.786Z" fill="white"/>
<path d="M23.226 32.2347L24.3013 32.9305C24.3584 32.9674 24.3984 33.0255 24.4127 33.0919C24.4269 33.1583 24.4142 33.2277 24.3772 33.2847C24.3403 33.3418 24.2823 33.3818 24.2159 33.3961C24.1494 33.4103 24.0801 33.3976 24.023 33.3607L22.9603 32.6585C22.9111 32.6196 22.8781 32.5637 22.8677 32.5018C22.8574 32.4398 22.8704 32.3763 22.9043 32.3234C22.9383 32.2706 22.9906 32.2322 23.0512 32.2158C23.1118 32.1994 23.1764 32.2062 23.2323 32.2347H23.226Z" fill="white"/>
<path d="M25.3761 33.6074L26.4767 34.2399C26.5056 34.2568 26.5307 34.2793 26.5506 34.3062C26.5705 34.3331 26.5848 34.3637 26.5924 34.3962C26.6001 34.4288 26.6011 34.4625 26.5954 34.4955C26.5896 34.5284 26.5772 34.5598 26.5589 34.5878C26.542 34.6166 26.5195 34.6417 26.4928 34.6617C26.4661 34.6817 26.4358 34.6963 26.4034 34.7045C26.3711 34.7127 26.3374 34.7145 26.3044 34.7096C26.2714 34.7048 26.2397 34.6935 26.211 34.6764L25.1104 34.0438C25.0584 34.0055 25.0226 33.9492 25.0099 33.886C24.9973 33.8227 25.0086 33.7569 25.0418 33.7016C25.0751 33.6462 25.1277 33.6053 25.1895 33.5867C25.2513 33.5681 25.3178 33.5732 25.3761 33.601V33.6074Z" fill="white"/>
<path d="M27.5709 34.8923L28.6969 35.5248C28.7526 35.5579 28.7936 35.6111 28.8112 35.6735C28.8289 35.7359 28.8219 35.8027 28.7918 35.8601C28.7765 35.8888 28.7557 35.9142 28.7305 35.9349C28.7054 35.9556 28.6764 35.9711 28.6452 35.9805C28.614 35.9899 28.5813 35.993 28.5489 35.9897C28.5166 35.9864 28.4851 35.9768 28.4565 35.9613L27.3306 35.3287C27.2721 35.2966 27.2286 35.2427 27.2096 35.1788C27.1907 35.1148 27.1978 35.0459 27.2293 34.9871C27.2626 34.9298 27.3165 34.8874 27.38 34.8686C27.4435 34.8498 27.5118 34.856 27.5709 34.8859V34.8923Z" fill="white"/>
<path d="M29.8175 36.0944L30.9688 36.6573C31.0192 36.6887 31.0562 36.7376 31.0727 36.7947C31.0892 36.8518 31.084 36.9129 31.0581 36.9664C31.0321 37.0198 30.9873 37.0618 30.9323 37.0841C30.8772 37.1065 30.8159 37.1077 30.76 37.0875L29.6088 36.5308C29.58 36.5173 29.5541 36.4981 29.5328 36.4745C29.5114 36.4509 29.495 36.4233 29.4844 36.3933C29.4738 36.3633 29.4693 36.3315 29.4711 36.2997C29.4729 36.2679 29.481 36.2368 29.4949 36.2082C29.5077 36.1788 29.5265 36.1524 29.55 36.1305C29.5735 36.1087 29.6012 36.0919 29.6315 36.0812C29.6617 36.0705 29.6938 36.0662 29.7258 36.0685C29.7579 36.0707 29.789 36.0795 29.8175 36.0944Z" fill="white"/>
<path d="M32.1139 37.1814L33.2905 37.6811C33.3186 37.6928 33.3441 37.71 33.3654 37.7318C33.3867 37.7535 33.4035 37.7793 33.4147 37.8076C33.4259 37.8359 33.4313 37.8661 33.4306 37.8966C33.4299 37.927 33.4231 37.957 33.4107 37.9848C33.3996 38.0126 33.383 38.038 33.3619 38.0593C33.3408 38.0806 33.3156 38.0973 33.2878 38.1086C33.26 38.1198 33.2302 38.1253 33.2002 38.1247C33.1702 38.124 33.1407 38.1173 33.1134 38.1049L31.9368 37.6115C31.8864 37.5838 31.8479 37.5385 31.8287 37.4842C31.8096 37.43 31.8111 37.3705 31.8331 37.3173C31.855 37.2641 31.8957 37.2208 31.9475 37.1957C31.9994 37.1707 32.0586 37.1656 32.1139 37.1814Z" fill="white"/>
<path d="M34.466 38.1427L35.6679 38.5665C35.6959 38.5758 35.7218 38.5905 35.744 38.6099C35.7663 38.6293 35.7844 38.653 35.7974 38.6795C35.8104 38.706 35.8179 38.7349 35.8195 38.7644C35.8212 38.7938 35.8169 38.8233 35.807 38.8511C35.7979 38.8791 35.7831 38.905 35.7636 38.927C35.744 38.9491 35.7202 38.9669 35.6935 38.9793C35.6668 38.9918 35.6379 38.9986 35.6084 38.9994C35.579 39.0002 35.5497 38.995 35.5224 38.984L34.3142 38.5665C34.282 38.5603 34.2515 38.5471 34.2248 38.528C34.1981 38.5088 34.1759 38.4841 34.1597 38.4556C34.1435 38.4271 34.1336 38.3954 34.1307 38.3627C34.1279 38.33 34.1322 38.2971 34.1432 38.2662C34.1543 38.2353 34.1719 38.2071 34.1949 38.1837C34.2178 38.1602 34.2456 38.142 34.2762 38.1303C34.3069 38.1185 34.3397 38.1136 34.3725 38.1157C34.4052 38.1179 34.4371 38.1271 34.466 38.1427Z" fill="white"/>
<path d="M36.8755 38.9461L38.1027 39.2814C38.1547 39.2948 38.1992 39.3283 38.2265 39.3746C38.2538 39.4208 38.2616 39.476 38.2482 39.528C38.2348 39.5801 38.2012 39.6246 38.155 39.6519C38.1087 39.6792 38.0535 39.687 38.0015 39.6735L36.7364 39.3573C36.7055 39.3541 36.6756 39.3444 36.6489 39.3286C36.6221 39.3128 36.5991 39.2915 36.5814 39.266C36.5637 39.2405 36.5517 39.2114 36.5463 39.1809C36.5409 39.1503 36.5421 39.1189 36.55 39.0889C36.5578 39.0588 36.5721 39.0308 36.5918 39.0068C36.6115 38.9828 36.6361 38.9634 36.6641 38.9498C36.692 38.9363 36.7225 38.9289 36.7536 38.9283C36.7846 38.9276 36.8154 38.9337 36.8439 38.9461H36.8755Z" fill="white"/>
<path d="M39.3304 39.5599L40.5955 39.775C40.6187 39.778 40.641 39.7857 40.661 39.7977C40.6811 39.8097 40.6985 39.8257 40.7121 39.8447C40.7257 39.8636 40.7353 39.8852 40.7403 39.908C40.7453 39.9309 40.7455 39.9545 40.741 39.9774C40.7332 40.0234 40.7076 40.0645 40.6697 40.0918C40.6318 40.119 40.5847 40.1302 40.5386 40.1229L39.2734 39.9331C39.2241 39.9253 39.1798 39.8984 39.1502 39.8581C39.1206 39.8178 39.108 39.7675 39.1153 39.718C39.1174 39.6928 39.1249 39.6684 39.1372 39.6463C39.1496 39.6242 39.1665 39.6051 39.1869 39.5901C39.2073 39.5751 39.2306 39.5647 39.2554 39.5595C39.2801 39.5543 39.3057 39.5544 39.3304 39.5599Z" fill="white"/>
<path d="M41.8409 39.9141L43.106 39.9773C43.1463 39.9773 43.1849 39.9933 43.2133 40.0218C43.2418 40.0503 43.2578 40.0889 43.2578 40.1291C43.2578 40.1694 43.2418 40.208 43.2133 40.2365C43.1849 40.265 43.1463 40.2809 43.106 40.2809L41.8409 40.243C41.8196 40.243 41.7985 40.2387 41.7789 40.2304C41.7593 40.222 41.7415 40.2098 41.7268 40.1945C41.712 40.1791 41.7005 40.1609 41.6929 40.141C41.6854 40.1211 41.6819 40.0998 41.6827 40.0785C41.6827 40.0569 41.687 40.0355 41.6953 40.0156C41.7035 39.9956 41.7156 39.9775 41.7309 39.9622C41.7462 39.947 41.7643 39.9348 41.7843 39.9266C41.8042 39.9183 41.8256 39.9141 41.8472 39.9141H41.8409Z" fill="white"/>
<path d="M44.3776 39.9463C44.3776 39.9463 44.6939 39.9463 45.0101 39.8956L45.6427 39.8197C45.6744 39.816 45.7063 39.8243 45.7321 39.843C45.7579 39.8618 45.7757 39.8896 45.7819 39.921C45.7842 39.9524 45.7754 39.9836 45.7568 40.0091C45.7383 40.0346 45.7113 40.0527 45.6806 40.0601C45.6806 40.0601 45.3644 40.117 45.0481 40.155C44.7318 40.193 44.4155 40.2246 44.4155 40.2246C44.3786 40.2246 44.3432 40.2099 44.3171 40.1838C44.291 40.1577 44.2764 40.1223 44.2764 40.0854C44.2764 40.0485 44.291 40.0131 44.3171 39.987C44.3432 39.9609 44.3786 39.9463 44.4155 39.9463H44.3776Z" fill="white"/>
<path d="M46.8765 39.5788C46.8765 39.5788 47.1865 39.5029 47.5091 39.4143C47.8317 39.3257 48.11 39.2119 48.11 39.2119C48.1199 39.2079 48.1306 39.2062 48.1412 39.2066C48.1519 39.2071 48.1624 39.2098 48.1719 39.2145C48.1815 39.2193 48.1899 39.2261 48.1967 39.2343C48.2034 39.2426 48.2084 39.2522 48.2112 39.2625C48.2177 39.2818 48.2168 39.3029 48.2086 39.3216C48.2004 39.3403 48.1856 39.3553 48.1669 39.3637C48.1669 39.3637 47.8696 39.4839 47.566 39.5851C47.2624 39.6863 46.9334 39.7749 46.9334 39.7749C46.9075 39.781 46.8801 39.7773 46.8568 39.7645C46.8334 39.7516 46.8156 39.7305 46.8069 39.7053C46.8021 39.6924 46.8 39.6787 46.801 39.665C46.802 39.6513 46.8059 39.638 46.8125 39.626C46.8191 39.6139 46.8283 39.6035 46.8393 39.5953C46.8504 39.5872 46.8631 39.5815 46.8765 39.5788Z" fill="white"/>
<path d="M51.3672 37.2953L51.8353 36.8398L51.3862 37.3079L51.3672 37.2953Z" fill="white"/>
<path d="M7.86023 13.4541C7.79791 14.2982 7.82761 15.1466 7.94879 15.9843C8.00572 16.3765 8.05 16.8193 8.15753 17.2874C8.2511 17.7973 8.37145 18.302 8.51809 18.7992L8.75846 19.6279L9.06842 20.4818C9.28705 21.0957 9.53833 21.6975 9.82116 22.2846C10.1114 22.9354 10.4387 23.569 10.8016 24.1823C11.1771 24.8359 11.5868 25.4693 12.0288 26.0799C12.4819 26.7396 12.9718 27.3732 13.4963 27.9776C14.0272 28.6258 14.5932 29.2445 15.1916 29.831C15.4889 30.1346 15.7672 30.4636 16.0898 30.7482L17.0892 31.6022L18.0824 32.4814C18.4239 32.7661 18.7908 33.0191 19.145 33.2911L20.1951 34.1324C20.5504 34.4118 20.9221 34.6695 21.3084 34.9041L23.6109 36.3653C24.37 36.8397 25.2049 37.2572 25.9893 37.7063L27.1848 38.3389C27.5834 38.5476 27.9945 38.7311 28.3994 38.9272C29.2154 39.3004 29.9997 39.7179 30.8157 40.0405L33.2321 40.9956L35.6295 41.7421C36.4202 41.9634 37.2109 42.1153 37.9699 42.2987C38.729 42.4821 39.4944 42.5138 40.2155 42.6213C40.9366 42.7289 41.6577 42.6909 42.3409 42.6972C43.5803 42.6676 44.8118 42.4913 46.0097 42.1722C46.9335 41.9255 47.822 41.562 48.6538 41.0905C49.1842 40.7713 49.6802 40.3982 50.134 39.9772C50.2578 39.8714 50.3721 39.755 50.4756 39.6293L50.5895 39.5091L50.4819 39.6356C50.3785 39.7633 50.2665 39.8838 50.1467 39.9962C49.7126 40.4317 49.2333 40.8197 48.7171 41.1538C47.8949 41.6693 47.0079 42.0735 46.0793 42.3556C44.8754 42.7312 43.6266 42.9439 42.3662 42.9882C41.6767 42.9882 40.9556 42.9882 40.2092 42.9566C39.4628 42.9249 38.6974 42.8047 37.9193 42.6719C37.1413 42.5391 36.3443 42.362 35.5346 42.1595L33.0993 41.4258L30.6513 40.4769C29.8226 40.1543 29.0256 39.7305 28.1969 39.3636C27.7921 39.1675 27.3683 38.9841 26.9318 38.7754L25.7363 38.1428C24.9393 37.6937 24.1296 37.2952 23.3326 36.8081L21.0111 35.3153C20.6225 35.0742 20.2486 34.8101 19.8915 34.5246L18.8035 33.7023C18.4492 33.4239 18.076 33.1646 17.7344 32.8736L16.735 31.9754L15.7482 31.0961C15.4256 30.8052 15.1157 30.4636 14.8373 30.1599C14.241 29.5597 13.6793 28.9261 13.1547 28.2623C12.635 27.6367 12.1514 26.982 11.7062 26.3013C11.2679 25.6681 10.8646 25.0114 10.498 24.3341C10.143 23.7098 9.82411 23.0656 9.54283 22.4048C9.27741 21.8001 9.05133 21.1789 8.866 20.5451C8.76901 20.2499 8.67412 19.9589 8.58135 19.6721C8.51177 19.3812 8.44219 19.1028 8.3726 18.8308C8.23899 18.325 8.1355 17.8118 8.06265 17.2937C7.96777 16.8193 7.93614 16.3702 7.89186 15.9717C7.79135 15.136 7.78075 14.292 7.86023 13.4541Z" fill="url(#paint1_linear_120_1039)"/>
<path d="M11.5351 9.19092C11.5351 9.19092 11.4845 9.34906 11.4465 9.5072L11.377 9.82347C11.377 9.82347 11.4212 9.66534 11.4592 9.5072C11.4971 9.34906 11.5351 9.19092 11.5351 9.19092Z" fill="white"/>
<path d="M11.213 11.1079C11.213 11.1079 11.213 11.4305 11.213 11.7405C11.213 12.0504 11.213 12.373 11.213 12.373C11.2091 12.3842 11.2019 12.3939 11.1922 12.4007C11.1826 12.4076 11.1711 12.4112 11.1592 12.4112C11.1474 12.4112 11.1359 12.4076 11.1263 12.4007C11.1166 12.3939 11.1094 12.3842 11.1055 12.373C11.1055 12.373 11.1055 12.0504 11.1055 11.7405C11.1055 11.4305 11.1497 11.1079 11.1497 11.1079H11.1877H11.213Z" fill="white"/>
<path d="M11.3072 13.6952C11.3072 13.6952 11.3515 14.0178 11.4084 14.3277C11.4653 14.6377 11.5412 14.9603 11.5412 14.9603C11.5438 14.9849 11.5373 15.0097 11.5229 15.0298C11.5084 15.05 11.4871 15.0641 11.4629 15.0696C11.4387 15.0751 11.4134 15.0715 11.3917 15.0595C11.37 15.0475 11.3534 15.0279 11.3452 15.0046C11.3452 15.0046 11.2819 14.6883 11.2376 14.372C11.1933 14.0557 11.1554 13.7395 11.1554 13.7395C11.1536 13.729 11.154 13.7183 11.1566 13.708C11.1592 13.6977 11.164 13.6881 11.1705 13.6797C11.1771 13.6714 11.1853 13.6645 11.1947 13.6595C11.2041 13.6546 11.2144 13.6516 11.225 13.6509C11.2416 13.6491 11.2583 13.6523 11.273 13.6602C11.2877 13.6681 11.2996 13.6803 11.3072 13.6952Z" fill="white"/>
<path d="M11.8836 16.2127L12.086 16.8452L12.3138 17.4461C12.3209 17.4627 12.3246 17.4805 12.3246 17.4986C12.3246 17.5166 12.321 17.5344 12.3139 17.551C12.3068 17.5676 12.2964 17.5825 12.2833 17.595C12.2702 17.6074 12.2548 17.617 12.2379 17.6233C12.2026 17.6358 12.1638 17.6342 12.1297 17.6189C12.0955 17.6036 12.0685 17.5757 12.0544 17.541L11.8394 16.9085C11.7318 16.5985 11.6496 16.2759 11.6496 16.2759C11.6415 16.2449 11.6455 16.212 11.6608 16.1838C11.676 16.1556 11.7014 16.1343 11.7318 16.1241C11.7636 16.1178 11.7965 16.1234 11.8245 16.1397C11.8524 16.156 11.8735 16.1819 11.8836 16.2127Z" fill="white"/>
<path d="M12.8317 18.6034L13.4643 19.761C13.4813 19.8 13.4836 19.844 13.4708 19.8846C13.458 19.9253 13.431 19.96 13.3947 19.9823C13.3558 20.0008 13.3114 20.0038 13.2704 19.9909C13.2293 19.978 13.1947 19.9501 13.1733 19.9128L12.5914 18.7489C12.5739 18.7128 12.5714 18.6712 12.5844 18.6333C12.5975 18.5954 12.625 18.5641 12.6609 18.5464C12.6918 18.5365 12.725 18.5366 12.7557 18.5469C12.7864 18.5571 12.8131 18.5769 12.8317 18.6034Z" fill="white"/>
<path d="M14.0969 20.8488L14.8307 21.9178C14.8453 21.9381 14.8558 21.9611 14.8615 21.9855C14.8672 22.0099 14.868 22.0351 14.8639 22.0598C14.8597 22.0845 14.8508 22.1082 14.8375 22.1294C14.8242 22.1506 14.8068 22.169 14.7864 22.1834C14.7441 22.2107 14.6929 22.2207 14.6435 22.2113C14.594 22.2019 14.5501 22.1738 14.5207 22.1328L13.8059 21.0512C13.7891 21.0323 13.7764 21.0101 13.7688 20.9859C13.7613 20.9618 13.759 20.9363 13.7621 20.9111C13.7652 20.886 13.7737 20.8619 13.7869 20.8403C13.8002 20.8187 13.8179 20.8003 13.8389 20.7861C13.8599 20.772 13.8836 20.7625 13.9086 20.7583C13.9336 20.7541 13.9591 20.7553 13.9836 20.7619C14.0081 20.7684 14.0308 20.7801 14.0504 20.7962C14.0699 20.8123 14.0858 20.8324 14.0969 20.8551V20.8488Z" fill="white"/>
<path d="M15.6152 22.9432L16.4565 23.9299C16.4796 23.9502 16.4981 23.9752 16.5107 24.0033C16.5233 24.0313 16.5297 24.0617 16.5296 24.0925C16.5294 24.1232 16.5227 24.1535 16.5098 24.1815C16.497 24.2094 16.4783 24.2342 16.455 24.2543C16.4317 24.2744 16.4044 24.2892 16.3749 24.2979C16.3454 24.3065 16.3144 24.3087 16.284 24.3043C16.2536 24.3 16.2244 24.2891 16.1986 24.2726C16.1727 24.256 16.1506 24.2341 16.1339 24.2083L15.3053 23.2025C15.2808 23.1608 15.272 23.1118 15.2805 23.0642C15.289 23.0166 15.3143 22.9736 15.3518 22.9431C15.3892 22.9125 15.4364 22.8963 15.4847 22.8975C15.533 22.8987 15.5793 22.9171 15.6152 22.9495V22.9432Z" fill="white"/>
<path d="M17.3302 24.8717L18.2537 25.789C18.2747 25.8096 18.2914 25.8342 18.3029 25.8613C18.3143 25.8885 18.3201 25.9176 18.3201 25.9471C18.3201 25.9766 18.3143 26.0057 18.3029 26.0329C18.2914 26.06 18.2747 26.0846 18.2537 26.1052C18.2102 26.1466 18.1524 26.1697 18.0924 26.1697C18.0323 26.1697 17.9746 26.1466 17.9311 26.1052L17.0202 25.1817C16.9948 25.1627 16.9738 25.1384 16.9587 25.1106C16.9435 25.0827 16.9344 25.0519 16.9322 25.0203C16.9299 24.9887 16.9345 24.9569 16.9456 24.9272C16.9567 24.8975 16.9741 24.8705 16.9965 24.848C17.0189 24.8256 17.0459 24.8083 17.0756 24.7972C17.1053 24.7861 17.1371 24.7815 17.1687 24.7838C17.2004 24.786 17.2312 24.795 17.259 24.8102C17.2869 24.8254 17.3111 24.8464 17.3302 24.8717Z" fill="white"/>
<path d="M19.1954 26.6624L20.1822 27.51C20.2054 27.5303 20.2244 27.5551 20.2381 27.5828C20.2518 27.6105 20.26 27.6406 20.262 27.6715C20.2641 27.7023 20.26 27.7332 20.2501 27.7625C20.2402 27.7918 20.2247 27.8188 20.2043 27.8421C20.184 27.8653 20.1592 27.8844 20.1315 27.8981C20.1038 27.9118 20.0737 27.9199 20.0428 27.9219C20.012 27.924 19.9811 27.92 19.9518 27.9101C19.9225 27.9002 19.8955 27.8846 19.8722 27.8642L18.8917 27.0103C18.8485 26.9665 18.8242 26.9074 18.8242 26.8458C18.8242 26.7842 18.8485 26.7252 18.8917 26.6813C18.9311 26.6413 18.9839 26.6172 19.0399 26.6137C19.096 26.6102 19.1513 26.6275 19.1954 26.6624Z" fill="white"/>
<path d="M21.1829 28.319L22.2202 29.1034C22.2713 29.1412 22.3052 29.1977 22.3147 29.2606C22.3242 29.3234 22.3084 29.3874 22.2709 29.4386C22.2521 29.4648 22.2282 29.4869 22.2007 29.5037C22.1732 29.5205 22.1426 29.5316 22.1108 29.5363C22.0789 29.541 22.0464 29.5393 22.0152 29.5312C21.9841 29.5231 21.9548 29.5088 21.9293 29.4892L20.8856 28.6922C20.8615 28.6731 20.8414 28.6494 20.8264 28.6226C20.8115 28.5957 20.8019 28.5662 20.7984 28.5356C20.7949 28.5051 20.7974 28.4741 20.8059 28.4446C20.8143 28.415 20.8285 28.3874 20.8476 28.3633C20.8657 28.337 20.889 28.3148 20.9162 28.2982C20.9434 28.2815 20.9738 28.2708 21.0054 28.2666C21.037 28.2624 21.0691 28.2649 21.0997 28.274C21.1302 28.283 21.1586 28.2983 21.1829 28.319Z" fill="white"/>
<path d="M23.2696 29.85L24.3449 30.5774C24.3799 30.5928 24.411 30.6159 24.4358 30.645C24.4606 30.6741 24.4785 30.7085 24.4881 30.7455C24.4977 30.7825 24.4988 30.8212 24.4913 30.8587C24.4839 30.8962 24.468 30.9315 24.4449 30.962C24.4218 30.9924 24.3921 31.0173 24.358 31.0346C24.3239 31.052 24.2863 31.0613 24.2481 31.0621C24.2099 31.0628 24.172 31.0549 24.1372 31.0389C24.1025 31.0229 24.0719 30.9992 24.0476 30.9696L22.9723 30.2295C22.9188 30.1924 22.8822 30.1357 22.8703 30.0718C22.8585 30.0078 22.8724 29.9417 22.909 29.8879C22.9299 29.8614 22.956 29.8393 22.9855 29.823C23.0151 29.8067 23.0477 29.7964 23.0813 29.7929C23.1149 29.7894 23.1489 29.7926 23.1812 29.8024C23.2136 29.8122 23.2436 29.8284 23.2696 29.85Z" fill="white"/>
<path d="M25.4325 31.2735L26.5774 31.9503C26.6348 31.9868 26.6756 32.0443 26.691 32.1106C26.7064 32.1769 26.6951 32.2465 26.6596 32.3045C26.6427 32.3341 26.62 32.36 26.5928 32.3806C26.5656 32.4012 26.5345 32.4161 26.5014 32.4243C26.4683 32.4326 26.4339 32.4341 26.4002 32.4287C26.3665 32.4234 26.3343 32.4112 26.3054 32.3931L25.1984 31.7099C25.141 31.6735 25.1002 31.6159 25.0848 31.5496C25.0695 31.4834 25.0807 31.4137 25.1162 31.3557C25.1507 31.3068 25.2014 31.2717 25.2593 31.2567C25.3172 31.2416 25.3786 31.2476 25.4325 31.2735Z" fill="white"/>
<path d="M27.6587 32.6083L28.7846 33.2409C28.8139 33.2573 28.8396 33.2794 28.8603 33.3059C28.8809 33.3323 28.8961 33.3626 28.9049 33.395C28.9138 33.4274 28.9161 33.4612 28.9117 33.4945C28.9073 33.5277 28.8964 33.5598 28.8795 33.5888C28.8637 33.6179 28.8422 33.6434 28.8163 33.664C28.7905 33.6846 28.7607 33.6998 28.7288 33.7086C28.697 33.7175 28.6636 33.7198 28.6308 33.7156C28.5981 33.7113 28.5665 33.7004 28.5379 33.6837L27.4057 33.0511C27.3704 33.0384 27.3384 33.0182 27.3117 32.9919C27.285 32.9656 27.2643 32.9339 27.2511 32.8988C27.2379 32.8638 27.2324 32.8263 27.235 32.7889C27.2377 32.7515 27.2484 32.7152 27.2664 32.6823C27.2844 32.6495 27.3094 32.621 27.3395 32.5987C27.3696 32.5764 27.4042 32.5609 27.4409 32.5533C27.4776 32.5457 27.5155 32.5461 27.552 32.5545C27.5885 32.5629 27.6227 32.5791 27.6524 32.602L27.6587 32.6083Z" fill="white"/>
<path d="M29.9234 33.8674L31.0809 34.4683C31.1344 34.5009 31.1734 34.5526 31.1902 34.6129C31.207 34.6732 31.2002 34.7376 31.1712 34.7931C31.1423 34.8486 31.0933 34.891 31.0343 34.9117C30.9752 34.9325 30.9105 34.93 30.8532 34.9048L29.6956 34.3102C29.6369 34.28 29.5926 34.2277 29.5724 34.1648C29.5523 34.102 29.5579 34.0337 29.5881 33.9749C29.6183 33.9162 29.6706 33.8719 29.7335 33.8517C29.7963 33.8316 29.8646 33.8372 29.9234 33.8674Z" fill="white"/>
<path d="M32.2702 35.037L33.4468 35.581C33.4754 35.5939 33.5011 35.6125 33.5223 35.6355C33.5436 35.6585 33.5601 35.6856 33.5707 35.7151C33.5813 35.7446 33.5859 35.7759 33.5842 35.8072C33.5824 35.8385 33.5744 35.8692 33.5607 35.8973C33.5345 35.9534 33.4873 35.9969 33.4292 36.0182C33.3711 36.0396 33.3069 36.037 33.2507 36.0112L32.0678 35.4735C32.0361 35.4628 32.0069 35.4455 31.9822 35.4229C31.9575 35.4002 31.9378 35.3726 31.9244 35.3419C31.911 35.3112 31.9041 35.278 31.9043 35.2445C31.9045 35.2109 31.9117 35.1778 31.9254 35.1472C31.9391 35.1167 31.9591 35.0893 31.9841 35.0669C32.009 35.0445 32.0384 35.0276 32.0703 35.0172C32.1021 35.0068 32.1358 35.0032 32.1692 35.0066C32.2025 35.01 32.2348 35.0204 32.2639 35.037H32.2702Z" fill="white"/>
<path d="M34.5986 36.0943L35.8131 36.575C35.8684 36.5988 35.9124 36.643 35.9359 36.6984C35.9595 36.7537 35.9608 36.816 35.9396 36.8723C35.9158 36.9276 35.8717 36.9716 35.8163 36.9951C35.761 37.0187 35.6987 37.02 35.6423 36.9988L34.4342 36.5244C34.3771 36.5026 34.3311 36.459 34.3062 36.4033C34.2813 36.3475 34.2795 36.2842 34.3013 36.2271C34.3231 36.1701 34.3667 36.124 34.4225 36.0991C34.4782 36.0742 34.5416 36.0725 34.5986 36.0943Z" fill="white"/>
<path d="M37.0216 37.011L38.2551 37.4095C38.2822 37.4181 38.3073 37.432 38.329 37.4504C38.3506 37.4688 38.3685 37.4912 38.3814 37.5165C38.3943 37.5418 38.4021 37.5694 38.4044 37.5977C38.4066 37.6261 38.4031 37.6545 38.3943 37.6815C38.3755 37.7338 38.3378 37.7772 38.2886 37.803C38.2394 37.8287 38.1823 37.8351 38.1286 37.8207L36.8635 37.4348C36.8344 37.4276 36.8071 37.4146 36.7832 37.3966C36.7593 37.3785 36.7393 37.3558 36.7245 37.3298C36.7096 37.3037 36.7002 37.275 36.6968 37.2452C36.6933 37.2155 36.696 37.1853 36.7046 37.1566C36.7131 37.1279 36.7274 37.1012 36.7466 37.0782C36.7658 37.0552 36.7894 37.0363 36.8161 37.0227C36.8428 37.0091 36.872 37.001 36.9019 36.999C36.9318 36.997 36.9617 37.0011 36.99 37.011H37.0216Z" fill="white"/>
<path d="M39.4952 37.7631L40.7603 38.0604C40.7845 38.0648 40.8076 38.0742 40.8279 38.088C40.8483 38.1017 40.8656 38.1196 40.8787 38.1405C40.8918 38.1613 40.9004 38.1846 40.904 38.2089C40.9076 38.2333 40.906 38.2581 40.8995 38.2818C40.8875 38.329 40.8578 38.3697 40.8166 38.3956C40.7754 38.4215 40.7258 38.4306 40.6781 38.421L39.413 38.149C39.3876 38.1436 39.3636 38.1332 39.3423 38.1186C39.3209 38.1039 39.3027 38.0851 39.2886 38.0634C39.2745 38.0417 39.2648 38.0174 39.2601 37.9919C39.2554 37.9664 39.2558 37.9403 39.2612 37.9149C39.2666 37.8896 39.2769 37.8656 39.2916 37.8442C39.3063 37.8229 39.325 37.8046 39.3468 37.7905C39.3685 37.7765 39.3928 37.7668 39.4183 37.7621C39.4437 37.7574 39.4699 37.7577 39.4952 37.7631Z" fill="white"/>
<path d="M42.0189 38.2825L43.284 38.4343C43.3254 38.4405 43.3628 38.4624 43.3887 38.4953C43.4145 38.5282 43.4269 38.5697 43.4232 38.6114C43.4169 38.6528 43.3951 38.6902 43.3622 38.716C43.3293 38.7419 43.2877 38.7542 43.2461 38.7505L41.9809 38.6304C41.9553 38.6353 41.9289 38.6345 41.9037 38.628C41.8784 38.6215 41.8549 38.6095 41.8348 38.5929C41.8147 38.5763 41.7985 38.5554 41.7874 38.5319C41.7763 38.5083 41.7705 38.4825 41.7705 38.4564C41.7705 38.4303 41.7763 38.4046 41.7874 38.381C41.7985 38.3574 41.8147 38.3365 41.8348 38.3199C41.8549 38.3033 41.8784 38.2913 41.9037 38.2848C41.9289 38.2784 41.9553 38.2776 41.9809 38.2825H42.0189Z" fill="white"/>
<path d="M44.5992 38.4971H45.2317L45.8643 38.4592C45.8817 38.4574 45.8994 38.4591 45.9162 38.4642C45.9329 38.4694 45.9486 38.4777 45.9621 38.4889C45.9756 38.5001 45.9868 38.5138 45.995 38.5294C46.0032 38.5449 46.0082 38.5619 46.0098 38.5793C46.0116 38.6136 46 38.6471 45.9776 38.6731C45.9553 38.699 45.9237 38.7153 45.8896 38.7185L45.257 38.7691C44.9344 38.7691 44.6245 38.7691 44.6245 38.7691C44.5853 38.7691 44.5476 38.754 44.5193 38.7269C44.491 38.6998 44.4743 38.6628 44.4727 38.6236C44.4727 38.585 44.488 38.548 44.5153 38.5208C44.5426 38.4935 44.5796 38.4781 44.6181 38.4781L44.5992 38.4971Z" fill="white"/>
<path d="M47.1684 38.2951C47.1684 38.2951 47.4846 38.2382 47.8009 38.1686C48.1172 38.0991 48.4335 37.9978 48.4335 37.9978C48.445 37.991 48.4579 37.9868 48.4713 37.9857C48.4847 37.9845 48.4981 37.9864 48.5106 37.9913C48.5231 37.9961 48.5344 38.0037 48.5436 38.0135C48.5527 38.0233 48.5595 38.035 48.5635 38.0479C48.5674 38.0607 48.5684 38.0742 48.5663 38.0875C48.5643 38.1007 48.5592 38.1134 48.5516 38.1244C48.5439 38.1354 48.5339 38.1445 48.5222 38.1511C48.5105 38.1577 48.4975 38.1615 48.4841 38.1623C48.4841 38.1623 48.1741 38.2699 47.8515 38.3521C47.5289 38.4343 47.219 38.5102 47.219 38.5102C47.1913 38.5159 47.1625 38.5104 47.1389 38.495C47.1152 38.4796 47.0985 38.4556 47.0924 38.428C47.0887 38.4139 47.0879 38.3991 47.09 38.3846C47.0922 38.3702 47.0973 38.3563 47.105 38.3439C47.1127 38.3314 47.1228 38.3207 47.1348 38.3123C47.1468 38.3039 47.1604 38.2981 47.1747 38.2951H47.1684Z" fill="white"/>
<path d="M49.6284 37.549C49.6284 37.549 49.9257 37.4162 50.2104 37.2644C50.495 37.1126 50.767 36.9354 50.767 36.9354C50.774 36.9292 50.783 36.9258 50.7923 36.9258C50.8017 36.9258 50.8107 36.9292 50.8176 36.9354C50.8216 36.9384 50.8247 36.9422 50.8269 36.9466C50.8291 36.951 50.8303 36.9558 50.8303 36.9607C50.8303 36.9657 50.8291 36.9705 50.8269 36.9749C50.8247 36.9793 50.8216 36.9831 50.8176 36.986C50.8176 36.986 50.552 37.1758 50.2736 37.3403C49.9953 37.5047 49.698 37.6502 49.698 37.6502C49.6927 37.6558 49.6863 37.6602 49.6792 37.6632C49.6722 37.6662 49.6646 37.6678 49.6569 37.6678C49.6492 37.6678 49.6416 37.6662 49.6345 37.6632C49.6275 37.6602 49.6211 37.6558 49.6158 37.6502C49.6104 37.6455 49.6061 37.6396 49.6031 37.6331C49.6002 37.6266 49.5986 37.6195 49.5986 37.6123C49.5986 37.6051 49.6002 37.598 49.6031 37.5914C49.6061 37.5849 49.6104 37.5791 49.6158 37.5743L49.6284 37.549Z" fill="white"/>
<path d="M51.7979 36.1381L52.2596 35.6826L51.8168 36.157L51.7979 36.1381Z" fill="white"/>
<path d="M5.79193 17.123C5.79193 17.123 5.74132 17.2749 5.70337 17.433C5.66542 17.5912 5.63379 17.7556 5.63379 17.7556L5.7097 17.4393C5.735 17.2749 5.79193 17.123 5.79193 17.123Z" fill="white"/>
<path d="M5.46236 19.059C5.46236 19.059 5.46236 19.3816 5.42441 19.6916C5.38645 20.0015 5.42441 20.3241 5.42441 20.3241C5.42441 20.3392 5.41841 20.3537 5.40773 20.3644C5.39706 20.3751 5.38258 20.3811 5.36748 20.3811C5.35342 20.3811 5.33982 20.376 5.32931 20.3667C5.31879 20.3573 5.31211 20.3444 5.31055 20.3304C5.31055 20.3304 5.31055 20.0015 5.31055 19.6979C5.31055 19.3943 5.36748 19.0653 5.36748 19.0653C5.36496 19.0596 5.36392 19.0533 5.36445 19.047C5.36498 19.0407 5.36707 19.0346 5.37052 19.0294C5.37397 19.0241 5.37868 19.0198 5.38423 19.0168C5.38977 19.0138 5.39597 19.0122 5.40227 19.0122C5.40857 19.0122 5.41477 19.0138 5.42031 19.0168C5.42586 19.0198 5.43057 19.0241 5.43402 19.0294C5.43747 19.0346 5.43956 19.0407 5.44009 19.047C5.44062 19.0533 5.43958 19.0596 5.43706 19.0653L5.46236 19.059Z" fill="white"/>
<path d="M5.52142 21.6773C5.52142 21.6773 5.55937 21.9999 5.60998 22.3098C5.66058 22.6198 5.73017 22.9424 5.73017 22.9424C5.73307 22.9557 5.73333 22.9694 5.73093 22.9828C5.72853 22.9962 5.72352 23.009 5.71617 23.0204C5.70883 23.0319 5.69931 23.0418 5.68814 23.0496C5.67697 23.0573 5.66439 23.0628 5.6511 23.0657C5.6378 23.0687 5.62407 23.0689 5.61068 23.0665C5.59729 23.0641 5.5845 23.0591 5.57304 23.0518C5.56159 23.0444 5.5517 23.0349 5.54392 23.0237C5.53615 23.0126 5.53065 23 5.52775 22.9867C5.52775 22.9867 5.47714 22.6641 5.43286 22.3541C5.38858 22.0442 5.36328 21.6899 5.36328 21.6899C5.36453 21.6696 5.37277 21.6503 5.3866 21.6353C5.40043 21.6203 5.419 21.6106 5.43919 21.6077C5.44916 21.6068 5.45921 21.608 5.46875 21.611C5.4783 21.614 5.48714 21.6189 5.49479 21.6254C5.50243 21.6318 5.50872 21.6398 5.51329 21.6487C5.51786 21.6576 5.52062 21.6673 5.52142 21.6773Z" fill="white"/>
<path d="M6.03988 24.2397L6.43839 25.5048C6.44433 25.5223 6.44674 25.5407 6.44549 25.5591C6.44424 25.5775 6.43935 25.5954 6.43112 25.6119C6.42288 25.6284 6.41145 25.643 6.3975 25.6551C6.38354 25.6671 6.36734 25.6762 6.34983 25.682C6.31461 25.6918 6.27694 25.6873 6.24499 25.6695C6.21303 25.6518 6.18934 25.6221 6.17904 25.5871L5.80584 24.322C5.79777 24.2909 5.80176 24.258 5.81703 24.2299C5.83229 24.2017 5.85768 24.1803 5.88807 24.1701C5.91751 24.1626 5.94865 24.1654 5.97628 24.1781C6.0039 24.1908 6.02635 24.2125 6.03988 24.2397Z" fill="white"/>
<path d="M6.92473 26.6942L7.49404 27.8834C7.50373 27.9029 7.50945 27.9242 7.51088 27.9459C7.5123 27.9676 7.5094 27.9894 7.50234 28.01C7.49528 28.0306 7.4842 28.0496 7.46975 28.0659C7.45529 28.0822 7.43774 28.0954 7.41813 28.1048C7.37942 28.1225 7.3354 28.1244 7.2953 28.1102C7.2552 28.0961 7.22214 28.0669 7.20306 28.0289L6.65273 26.8334C6.64401 26.8151 6.63897 26.7953 6.63791 26.7751C6.63684 26.7549 6.63977 26.7346 6.64653 26.7156C6.65328 26.6965 6.66373 26.6789 6.67728 26.6638C6.69083 26.6488 6.7072 26.6366 6.72548 26.6278C6.74375 26.6191 6.76357 26.6141 6.78379 26.613C6.80401 26.6119 6.82424 26.6149 6.84333 26.6216C6.86242 26.6284 6.88 26.6388 6.89505 26.6524C6.9101 26.6659 6.92234 26.6823 6.93106 26.7006L6.92473 26.6942Z" fill="white"/>
<path d="M8.13204 29.0155L8.8658 30.1224C8.88995 30.1657 8.89686 30.2164 8.88512 30.2645C8.87339 30.3126 8.84389 30.3545 8.80255 30.3818C8.76046 30.4081 8.70974 30.4169 8.66126 30.4062C8.61278 30.3956 8.57039 30.3664 8.5432 30.3249L7.85371 29.1989C7.84114 29.1795 7.83262 29.1578 7.82868 29.1351C7.82474 29.1123 7.82545 29.089 7.83077 29.0665C7.83609 29.0441 7.84591 29.0229 7.85964 29.0043C7.87337 28.9858 7.89072 28.9702 7.91064 28.9585C7.94832 28.9403 7.99123 28.9361 8.03176 28.9465C8.07228 28.9569 8.1078 28.9814 8.13204 29.0155Z" fill="white"/>
<path d="M9.60653 31.1722L10.4289 32.2033C10.45 32.2248 10.4663 32.2506 10.4768 32.2788C10.4873 32.3071 10.4918 32.3372 10.4899 32.3673C10.488 32.3974 10.4798 32.4268 10.4659 32.4535C10.4519 32.4802 10.4325 32.5037 10.4088 32.5224C10.3852 32.5411 10.3579 32.5547 10.3287 32.5622C10.2995 32.5697 10.269 32.5709 10.2393 32.5659C10.2096 32.5608 10.1813 32.5496 10.1562 32.5329C10.1311 32.5162 10.1097 32.4944 10.0936 32.469L9.28393 31.4253C9.25038 31.3825 9.23519 31.3281 9.24172 31.2741C9.24824 31.2202 9.27594 31.171 9.31872 31.1374C9.3615 31.1039 9.41585 31.0887 9.46983 31.0952C9.5238 31.1018 9.57298 31.1295 9.60653 31.1722Z" fill="white"/>
<path d="M11.2831 33.1774L12.1876 34.1326C12.2296 34.1762 12.2525 34.2347 12.2513 34.2952C12.2501 34.3557 12.2249 34.4133 12.1813 34.4552C12.1377 34.4971 12.0792 34.52 12.0187 34.5189C11.9582 34.5177 11.9007 34.4925 11.8587 34.4489L10.9605 33.5C10.9396 33.48 10.923 33.4559 10.9117 33.4293C10.9004 33.4026 10.8945 33.374 10.8945 33.3451C10.8945 33.3161 10.9004 33.2875 10.9117 33.2608C10.923 33.2342 10.9396 33.2102 10.9605 33.1901C10.9803 33.1672 11.0046 33.1487 11.0319 33.1356C11.0591 33.1225 11.0888 33.1151 11.119 33.1139C11.1493 33.1128 11.1794 33.1178 11.2076 33.1287C11.2359 33.1396 11.2615 33.1562 11.2831 33.1774Z" fill="white"/>
<path d="M13.1231 35.0436L14.0972 35.9292C14.1405 35.973 14.1647 36.0321 14.1647 36.0937C14.1647 36.1552 14.1405 36.2143 14.0972 36.2581C14.0516 36.3004 13.9917 36.3238 13.9296 36.3238C13.8674 36.3238 13.8076 36.3004 13.762 36.2581L12.8131 35.3979C12.7713 35.3533 12.748 35.2945 12.748 35.2334C12.748 35.1723 12.7713 35.1135 12.8131 35.0689C12.8527 35.0275 12.9062 35.002 12.9633 34.9974C13.0204 34.9927 13.0773 35.0092 13.1231 35.0436Z" fill="white"/>
<path d="M15.0971 36.7641L16.1282 37.5865C16.1534 37.6062 16.1744 37.6307 16.19 37.6587C16.2056 37.6867 16.2155 37.7175 16.219 37.7493C16.2226 37.7811 16.2197 37.8133 16.2106 37.844C16.2015 37.8747 16.1864 37.9033 16.1662 37.928C16.1253 37.9776 16.0668 38.0092 16.0031 38.0163C15.9393 38.0234 15.8753 38.0053 15.8246 37.966L14.7998 37.1374C14.7748 37.1182 14.7539 37.0942 14.7384 37.0668C14.7229 37.0394 14.713 37.0091 14.7095 36.9778C14.7059 36.9465 14.7088 36.9148 14.7178 36.8846C14.7268 36.8544 14.7418 36.8264 14.7619 36.8021C14.8016 36.753 14.859 36.7215 14.9217 36.7144C14.9845 36.7073 15.0475 36.7252 15.0971 36.7641Z" fill="white"/>
<path d="M17.1712 38.3647L18.2528 39.1174C18.3082 39.156 18.346 39.215 18.3578 39.2815C18.3697 39.3479 18.3547 39.4163 18.3161 39.4717C18.2775 39.527 18.2185 39.5648 18.1521 39.5767C18.0857 39.5885 18.0172 39.5735 17.9619 39.5349L16.8865 38.7759C16.8337 38.7367 16.7981 38.6784 16.7875 38.6135C16.7769 38.5485 16.792 38.482 16.8296 38.428C16.8474 38.4008 16.8705 38.3775 16.8975 38.3596C16.9246 38.3416 16.955 38.3293 16.9869 38.3234C17.0188 38.3174 17.0516 38.3181 17.0833 38.3252C17.1149 38.3323 17.1448 38.3457 17.1712 38.3647Z" fill="white"/>
<path d="M19.3416 39.8258L20.4549 40.5279C20.5136 40.5648 20.5553 40.6235 20.5707 40.6911C20.5861 40.7588 20.5741 40.8297 20.5371 40.8885C20.5002 40.9472 20.4415 40.9888 20.3739 41.0042C20.3063 41.0197 20.2353 41.0076 20.1766 40.9707L19.0633 40.2559C19.0063 40.219 18.9662 40.1609 18.952 40.0945C18.9377 40.0281 18.9505 39.9587 18.9874 39.9017C19.0243 39.8446 19.0824 39.8046 19.1488 39.7904C19.2152 39.7761 19.2846 39.7889 19.3416 39.8258Z" fill="white"/>
<path d="M21.5678 41.2302L22.7064 41.8627C22.7378 41.8778 22.7658 41.8992 22.7886 41.9257C22.8114 41.9521 22.8285 41.9829 22.8387 42.0163C22.849 42.0496 22.8523 42.0847 22.8484 42.1194C22.8444 42.1541 22.8334 42.1876 22.8159 42.2177C22.7984 42.2479 22.7748 42.2742 22.7467 42.2948C22.7186 42.3155 22.6865 42.3301 22.6524 42.3377C22.6184 42.3454 22.5831 42.3459 22.5489 42.3392C22.5146 42.3326 22.4821 42.319 22.4534 42.2992L21.3148 41.6666C21.2855 41.6502 21.2598 41.6281 21.2391 41.6017C21.2185 41.5752 21.2033 41.5449 21.1945 41.5125C21.1856 41.4802 21.1833 41.4463 21.1877 41.4131C21.1921 41.3798 21.203 41.3477 21.2199 41.3187C21.2356 41.2888 21.2574 41.2624 21.2838 41.2413C21.3101 41.2201 21.3406 41.2046 21.3732 41.1957C21.4058 41.1868 21.44 41.1847 21.4734 41.1896C21.5069 41.1944 21.539 41.206 21.5678 41.2238V41.2302Z" fill="white"/>
<path d="M23.8519 42.533L25.0158 43.1655C25.0443 43.1802 25.0696 43.2004 25.0902 43.225C25.1108 43.2496 25.1263 43.278 25.1357 43.3087C25.1452 43.3393 25.1484 43.3716 25.1452 43.4035C25.1419 43.4354 25.1324 43.4663 25.117 43.4945C25.103 43.5228 25.0834 43.548 25.0594 43.5685C25.0354 43.589 25.0075 43.6045 24.9773 43.614C24.9472 43.6234 24.9154 43.6267 24.884 43.6235C24.8526 43.6204 24.8221 43.6109 24.7944 43.5957L23.6242 42.9631C23.5949 42.9484 23.5688 42.928 23.5475 42.9031C23.5262 42.8782 23.5101 42.8493 23.5001 42.8181C23.4901 42.7869 23.4864 42.754 23.4892 42.7213C23.4921 42.6886 23.5014 42.6569 23.5166 42.6279C23.5476 42.5699 23.5999 42.5263 23.6625 42.5062C23.7251 42.4862 23.793 42.4912 23.8519 42.5203V42.533Z" fill="white"/>
<path d="M26.186 43.7283L27.3815 44.2787C27.4097 44.2915 27.4352 44.3098 27.4563 44.3325C27.4775 44.3552 27.494 44.3819 27.5049 44.411C27.5157 44.44 27.5208 44.471 27.5197 44.502C27.5186 44.533 27.5114 44.5635 27.4985 44.5918C27.4857 44.62 27.4673 44.6454 27.4446 44.6666C27.4219 44.6878 27.3953 44.7043 27.3662 44.7151C27.3371 44.726 27.3062 44.731 27.2752 44.7299C27.2442 44.7289 27.2137 44.7217 27.1854 44.7088L25.9899 44.1585C25.9616 44.1456 25.9362 44.1273 25.915 44.1046C25.8939 44.0819 25.8774 44.0552 25.8665 44.0261C25.8557 43.9971 25.8506 43.9661 25.8517 43.9351C25.8528 43.9041 25.86 43.8736 25.8729 43.8454C25.8857 43.8171 25.904 43.7917 25.9268 43.7705C25.9495 43.7493 25.9761 43.7328 26.0052 43.722C26.0343 43.7111 26.0652 43.7061 26.0962 43.7072C26.1272 43.7083 26.1577 43.7155 26.186 43.7283Z" fill="white"/>
<path d="M28.5826 44.7978L29.8098 45.2785C29.8652 45.3003 29.9096 45.3433 29.9333 45.3978C29.957 45.4524 29.9581 45.5141 29.9363 45.5695C29.9145 45.6249 29.8716 45.6693 29.817 45.693C29.7625 45.7168 29.7007 45.7178 29.6453 45.696L28.4119 45.2279C28.384 45.2168 28.3585 45.2003 28.3371 45.1793C28.3156 45.1583 28.2985 45.1332 28.2867 45.1056C28.275 45.078 28.2688 45.0483 28.2686 45.0183C28.2683 44.9882 28.274 44.9584 28.2853 44.9306C28.2951 44.9016 28.3107 44.875 28.3313 44.8523C28.3519 44.8297 28.3769 44.8115 28.4049 44.7991C28.4328 44.7866 28.463 44.78 28.4936 44.7798C28.5242 44.7796 28.5545 44.7857 28.5826 44.7978Z" fill="white"/>
<path d="M31.037 45.7093L32.3022 46.1078C32.3542 46.1265 32.3971 46.1645 32.4218 46.214C32.4465 46.2635 32.4513 46.3206 32.435 46.3735C32.4189 46.4262 32.3826 46.4705 32.334 46.4965C32.2854 46.5226 32.2285 46.5284 32.1756 46.5126L30.9105 46.1331C30.8829 46.1251 30.8571 46.1117 30.8348 46.0936C30.8124 46.0756 30.7939 46.0532 30.7803 46.0278C30.7667 46.0025 30.7584 45.9747 30.7558 45.946C30.7532 45.9174 30.7563 45.8885 30.765 45.8611C30.7812 45.8051 30.8189 45.7577 30.8698 45.7292C30.9208 45.7008 30.9808 45.6936 31.037 45.7093Z" fill="white"/>
<path d="M33.5363 46.4544L34.8014 46.7391C34.8252 46.7443 34.8477 46.7542 34.8676 46.7682C34.8875 46.7822 34.9044 46.8 34.9174 46.8206C34.9303 46.8412 34.9391 46.8642 34.943 46.8882C34.947 46.9122 34.9462 46.9368 34.9406 46.9605C34.93 47.0071 34.9016 47.0478 34.8614 47.0738C34.8212 47.0998 34.7724 47.1091 34.7255 47.0996L33.4604 46.8403C33.4311 46.8395 33.4022 46.8323 33.3759 46.8192C33.3497 46.8061 33.3265 46.7875 33.3082 46.7646C33.2898 46.7417 33.2766 46.715 33.2696 46.6865C33.2625 46.658 33.2618 46.6283 33.2674 46.5995C33.2729 46.5707 33.2847 46.5434 33.3019 46.5196C33.3191 46.4958 33.3412 46.476 33.3668 46.4616C33.3924 46.4472 33.4208 46.4385 33.4501 46.4362C33.4793 46.4339 33.5088 46.4379 33.5363 46.4481V46.4544Z" fill="white"/>
<path d="M36.1169 46.9614L37.4263 47.1132C37.4672 47.118 37.5046 47.1385 37.5306 47.1704C37.5565 47.2023 37.5691 47.2431 37.5655 47.284C37.5593 47.3243 37.5384 47.3607 37.5069 47.3864C37.4753 47.4121 37.4354 47.4252 37.3947 47.4232L36.079 47.303C36.0337 47.303 35.9903 47.285 35.9582 47.253C35.9262 47.2209 35.9082 47.1775 35.9082 47.1322C35.9082 47.0869 35.9262 47.0435 35.9582 47.0114C35.9903 46.9794 36.0337 46.9614 36.079 46.9614H36.1169Z" fill="white"/>
<path d="M38.7226 47.1752L40.0384 47.1436C40.0725 47.1435 40.1054 47.1566 40.1301 47.1802C40.1549 47.2038 40.1696 47.2359 40.1712 47.2701C40.1713 47.3049 40.1584 47.3385 40.135 47.3642C40.1116 47.39 40.0794 47.4061 40.0447 47.4092L38.729 47.4598C38.7099 47.4607 38.6908 47.4577 38.6728 47.4512C38.6548 47.4447 38.6383 47.4347 38.6242 47.4217C38.6101 47.4088 38.5987 47.3932 38.5906 47.3759C38.5825 47.3585 38.578 47.3398 38.5771 47.3207C38.5771 47.2832 38.5916 47.2471 38.6175 47.22C38.6434 47.1929 38.6788 47.1768 38.7163 47.1752H38.7226Z" fill="white"/>
<path d="M41.3353 47.024L41.9679 46.9228C42.2905 46.8658 42.6005 46.7899 42.6005 46.7899C42.6109 46.7859 42.6221 46.7844 42.6333 46.7856C42.6444 46.7868 42.6551 46.7906 42.6644 46.7969C42.6737 46.8031 42.6814 46.8114 42.6867 46.8212C42.6921 46.831 42.6951 46.842 42.6953 46.8532C42.6982 46.8632 42.6989 46.8736 42.6976 46.8839C42.6962 46.8942 42.6927 46.9041 42.6874 46.9129C42.6821 46.9218 42.675 46.9295 42.6665 46.9356C42.6581 46.9416 42.6485 46.9459 42.6384 46.9481C42.6384 46.9481 42.3158 47.0366 42.0058 47.1062C41.6959 47.1758 41.3733 47.2391 41.3733 47.2391C41.3592 47.2415 41.3447 47.2412 41.3307 47.2381C41.3167 47.235 41.3034 47.2292 41.2917 47.221C41.268 47.2044 41.2518 47.179 41.2468 47.1505C41.2417 47.122 41.2482 47.0926 41.2649 47.0689C41.2815 47.0452 41.3068 47.029 41.3353 47.024Z" fill="white"/>
<path d="M46.2246 45.2403L46.484 45.0442C46.6105 44.943 46.7243 44.8291 46.7243 44.8291C46.6509 44.9096 46.5728 44.9857 46.4903 45.0568L46.2373 45.2592L46.2246 45.2403Z" fill="white"/>
<path d="M6.33601 16.0732C6.33601 16.0732 6.29173 16.2314 6.26643 16.3895L6.21582 16.7121L6.27908 16.3958C6.25378 16.2314 6.33601 16.0732 6.33601 16.0732Z" fill="white"/>
<path d="M6.09009 18.0216C6.09009 18.0216 6.09009 18.3569 6.09009 18.6858C6.09009 19.0147 6.12804 19.3184 6.12804 19.3184C6.12892 19.3258 6.12831 19.3334 6.12623 19.3407C6.12416 19.3479 6.12066 19.3547 6.11596 19.3606C6.11125 19.3665 6.10542 19.3713 6.09881 19.375C6.0922 19.3786 6.08493 19.3808 6.07744 19.3816C6.06337 19.3817 6.04977 19.3766 6.03926 19.3672C6.02875 19.3579 6.02207 19.345 6.02051 19.331C6.02051 19.331 6.02051 19.0021 6.02051 18.6985C6.02051 18.3948 6.02051 18.0343 6.02051 18.0343C6.02628 18.0309 6.03282 18.0292 6.03948 18.0292C6.04615 18.0292 6.05269 18.0309 6.05846 18.0343C6.06238 18.0298 6.06729 18.0264 6.07278 18.0242C6.07827 18.022 6.0842 18.0211 6.09009 18.0216Z" fill="white"/>
<path d="M6.33599 20.6408C6.33599 20.6408 6.39292 20.9634 6.4625 21.2734C6.53208 21.5833 6.61432 21.9059 6.61432 21.9059C6.61812 21.9184 6.61931 21.9315 6.61782 21.9444C6.61634 21.9574 6.61221 21.9699 6.60568 21.9812C6.59915 21.9924 6.59037 22.0022 6.57988 22.01C6.5694 22.0177 6.55743 22.0232 6.54473 22.0261C6.51961 22.032 6.49317 22.0281 6.47082 22.0152C6.44848 22.0023 6.43193 21.9813 6.42455 21.9565C6.42455 21.9565 6.34864 21.6339 6.29171 21.324C6.23478 21.014 6.17785 20.6914 6.17785 20.6914C6.17606 20.6809 6.17648 20.6702 6.17908 20.6599C6.18169 20.6497 6.18642 20.64 6.19298 20.6317C6.19954 20.6233 6.20777 20.6165 6.21715 20.6115C6.22653 20.6065 6.23684 20.6036 6.24743 20.6028C6.26428 20.5999 6.28161 20.602 6.29732 20.6087C6.31304 20.6155 6.32647 20.6266 6.33599 20.6408Z" fill="white"/>
<path d="M6.96846 23.1708L7.44288 24.4043C7.44987 24.4212 7.45327 24.4395 7.45287 24.4578C7.45247 24.4761 7.44828 24.4942 7.44055 24.5109C7.43282 24.5275 7.42174 24.5423 7.40798 24.5545C7.39423 24.5666 7.37811 24.5758 7.36065 24.5814C7.34409 24.5885 7.32625 24.5922 7.30822 24.5922C7.29019 24.5922 7.27235 24.5886 7.25578 24.5815C7.23921 24.5744 7.22426 24.564 7.21184 24.5509C7.19942 24.5378 7.18978 24.5224 7.18353 24.5055L6.74074 23.2404C6.7305 23.2093 6.73268 23.1755 6.74683 23.146C6.76099 23.1165 6.78601 23.0937 6.81665 23.0822C6.84849 23.0744 6.88212 23.0793 6.91044 23.0958C6.93876 23.1124 6.95956 23.1392 6.96846 23.1708Z" fill="white"/>
<path d="M7.99301 25.5866L8.62557 26.7442C8.63638 26.7631 8.64317 26.7841 8.6455 26.8057C8.64784 26.8274 8.64567 26.8493 8.63914 26.8701C8.63261 26.8909 8.62185 26.9101 8.60754 26.9265C8.59323 26.943 8.57568 26.9563 8.55599 26.9656C8.51815 26.9861 8.47377 26.991 8.43237 26.9792C8.39098 26.9674 8.35587 26.9398 8.33459 26.9024L7.70204 25.7321C7.68408 25.6968 7.68064 25.6559 7.69246 25.618C7.70428 25.5802 7.73042 25.5485 7.76529 25.5297C7.78287 25.5151 7.80365 25.5048 7.82594 25.4997C7.84823 25.4947 7.8714 25.4949 7.89358 25.5004C7.91576 25.506 7.93632 25.5167 7.9536 25.5316C7.97087 25.5466 7.98438 25.5655 7.99301 25.5866Z" fill="white"/>
<path d="M9.30883 27.8517L10.0679 28.9333C10.0824 28.9531 10.0927 28.9757 10.0983 28.9995C10.1039 29.0234 10.1047 29.0482 10.1006 29.0724C10.0964 29.0965 10.0875 29.1196 10.0743 29.1403C10.0611 29.161 10.0438 29.1788 10.0236 29.1927C9.98305 29.2202 9.93338 29.231 9.88502 29.2228C9.83667 29.2145 9.79339 29.1879 9.76427 29.1484L9.0305 28.0541C9.01763 28.0354 9.00856 28.0143 9.00382 27.9921C8.99907 27.9699 8.99875 27.947 9.00286 27.9247C9.01116 27.8796 9.03704 27.8397 9.07478 27.8137C9.11253 27.7877 9.15906 27.7778 9.20414 27.7861C9.24922 27.7944 9.28915 27.8202 9.31515 27.858L9.30883 27.8517Z" fill="white"/>
<path d="M10.8723 29.958L11.7326 30.9701C11.7608 31.0137 11.7723 31.066 11.7649 31.1174C11.7575 31.1688 11.7318 31.2158 11.6925 31.2497C11.6532 31.2837 11.6029 31.3022 11.551 31.302C11.4991 31.3017 11.449 31.2827 11.41 31.2484L10.5687 30.23C10.5503 30.2118 10.5357 30.1901 10.5258 30.1662C10.5159 30.1423 10.5107 30.1167 10.5107 30.0908C10.5107 30.0649 10.5159 30.0393 10.5258 30.0155C10.5357 29.9916 10.5503 29.9699 10.5687 29.9517C10.5881 29.9305 10.6118 29.9137 10.6383 29.9025C10.6647 29.8912 10.6932 29.8857 10.7219 29.8863C10.7506 29.8869 10.7789 29.8936 10.8048 29.9059C10.8308 29.9183 10.8538 29.936 10.8723 29.958Z" fill="white"/>
<path d="M12.6176 31.9059L13.5538 32.8674C13.5957 32.9093 13.6193 32.9662 13.6193 33.0255C13.6193 33.0848 13.5957 33.1417 13.5538 33.1837C13.5119 33.2256 13.455 33.2492 13.3957 33.2492C13.3364 33.2492 13.2795 33.2256 13.2375 33.1837L12.3077 32.2348C12.2866 32.2142 12.2699 32.1896 12.2585 32.1624C12.2471 32.1353 12.2412 32.1061 12.2412 32.0767C12.2412 32.0472 12.2471 32.0181 12.2585 31.9909C12.2699 31.9638 12.2866 31.9392 12.3077 31.9185C12.3482 31.8777 12.4026 31.8536 12.4602 31.8513C12.5177 31.8489 12.5739 31.8684 12.6176 31.9059Z" fill="white"/>
<path d="M14.5141 33.7213L15.5135 34.5879C15.5568 34.6317 15.581 34.6908 15.581 34.7524C15.581 34.814 15.5568 34.873 15.5135 34.9168C15.4679 34.9591 15.408 34.9826 15.3459 34.9826C15.2837 34.9826 15.2239 34.9591 15.1783 34.9168L14.1851 34.0439C14.1639 34.0228 14.1471 33.9976 14.1356 33.9699C14.1241 33.9423 14.1182 33.9126 14.1182 33.8826C14.1182 33.8527 14.1241 33.823 14.1356 33.7953C14.1471 33.7676 14.1639 33.7425 14.1851 33.7213C14.2297 33.6795 14.2885 33.6562 14.3496 33.6562C14.4107 33.6562 14.4695 33.6795 14.5141 33.7213Z" fill="white"/>
<path d="M16.5259 35.3976L17.5759 36.201C17.6019 36.2192 17.6239 36.2424 17.6406 36.2694C17.6573 36.2963 17.6684 36.3264 17.6731 36.3578C17.6779 36.3891 17.6762 36.4211 17.6682 36.4518C17.6602 36.4824 17.646 36.5112 17.6266 36.5362C17.5876 36.5877 17.53 36.6218 17.4661 36.6313C17.4022 36.6407 17.3372 36.6248 17.285 36.5868L16.2413 35.7835C16.2158 35.7648 16.1943 35.7412 16.1782 35.714C16.1621 35.6868 16.1517 35.6566 16.1475 35.6253C16.1434 35.594 16.1456 35.5621 16.1541 35.5317C16.1626 35.5013 16.1772 35.4729 16.197 35.4482C16.2347 35.399 16.29 35.3662 16.3513 35.3568C16.4126 35.3474 16.4751 35.362 16.5259 35.3976Z" fill="white"/>
<path d="M18.6392 36.9665L19.7335 37.7065C19.7884 37.7438 19.8265 37.8012 19.8395 37.8663C19.8525 37.9313 19.8394 37.9989 19.8031 38.0545C19.7847 38.0818 19.761 38.1052 19.7334 38.1232C19.7058 38.1413 19.6749 38.1536 19.6425 38.1595C19.6101 38.1654 19.5768 38.1648 19.5446 38.1576C19.5124 38.1504 19.482 38.1368 19.4552 38.1177L18.3545 37.3713C18.3224 37.3561 18.2939 37.3342 18.271 37.3071C18.248 37.2799 18.2313 37.2481 18.2218 37.2138C18.2123 37.1795 18.2104 37.1436 18.2161 37.1085C18.2218 37.0734 18.235 37.04 18.2548 37.0105C18.2746 36.981 18.3006 36.9561 18.3309 36.9376C18.3613 36.919 18.3953 36.9073 18.4306 36.9031C18.4659 36.8989 18.5017 36.9024 18.5355 36.9133C18.5693 36.9243 18.6004 36.9424 18.6265 36.9665H18.6392Z" fill="white"/>
<path d="M20.8351 38.4153L21.9611 39.1048C21.9907 39.1217 22.0166 39.1445 22.0372 39.1717C22.0577 39.1988 22.0726 39.2299 22.0809 39.263C22.0892 39.2961 22.0907 39.3305 22.0853 39.3642C22.0799 39.3979 22.0678 39.4301 22.0497 39.459C22.0132 39.5164 21.9556 39.5572 21.8894 39.5726C21.8231 39.588 21.7535 39.5767 21.6954 39.5412L20.5758 38.8454C20.546 38.8288 20.5199 38.8062 20.499 38.7792C20.4781 38.7522 20.463 38.7212 20.4544 38.6881C20.4458 38.6551 20.444 38.6206 20.4491 38.5869C20.4542 38.5531 20.4661 38.5207 20.484 38.4916C20.502 38.4626 20.5256 38.4375 20.5535 38.4178C20.5815 38.3981 20.6131 38.3843 20.6465 38.3772C20.6799 38.37 20.7144 38.3697 20.7479 38.3763C20.7814 38.3828 20.8132 38.3961 20.8415 38.4153H20.8351Z" fill="white"/>
<path d="M23.0925 39.7683L24.2374 40.4009C24.2953 40.4353 24.3375 40.4907 24.3552 40.5557C24.373 40.6206 24.3647 40.6898 24.3323 40.7488C24.2992 40.8062 24.2448 40.8483 24.1809 40.8661C24.1171 40.8838 24.0488 40.8758 23.9907 40.8437L22.8395 40.2111C22.8095 40.1946 22.783 40.1723 22.7617 40.1456C22.7403 40.1188 22.7245 40.088 22.7151 40.0551C22.7056 40.0222 22.7029 39.9877 22.7068 39.9537C22.7108 39.9197 22.7215 39.8868 22.7383 39.8569C22.7738 39.7986 22.8304 39.7562 22.8964 39.7385C22.9624 39.7209 23.0326 39.7293 23.0925 39.762V39.7683Z" fill="white"/>
<path d="M25.388 41.0462L26.5583 41.6787C26.6158 41.7085 26.6593 41.7597 26.6794 41.8212C26.6995 41.8827 26.6946 41.9497 26.6658 42.0077C26.636 42.0652 26.5849 42.1087 26.5233 42.1288C26.4618 42.1489 26.3948 42.144 26.3369 42.1152L25.1603 41.4827C25.131 41.4679 25.105 41.4475 25.0837 41.4226C25.0623 41.3977 25.0462 41.3688 25.0362 41.3376C25.0262 41.3064 25.0225 41.2735 25.0253 41.2408C25.0282 41.2082 25.0375 41.1764 25.0528 41.1474C25.0838 41.0894 25.1361 41.0458 25.1986 41.0258C25.2612 41.0057 25.3291 41.0108 25.388 41.0399V41.0462Z" fill="white"/>
<path d="M27.7357 42.2423L28.9312 42.799C28.9831 42.8275 29.0223 42.8747 29.0409 42.931C29.0594 42.9873 29.0558 43.0486 29.0309 43.1024C29.006 43.1562 28.9616 43.1985 28.9067 43.2209C28.8518 43.2432 28.7905 43.2439 28.7351 43.2228L27.5332 42.6725C27.5047 42.6596 27.479 42.641 27.4577 42.618C27.4364 42.595 27.42 42.5679 27.4093 42.5384C27.3987 42.5089 27.3941 42.4776 27.3959 42.4463C27.3976 42.415 27.4056 42.3843 27.4194 42.3562C27.4456 42.2985 27.4936 42.2535 27.5528 42.231C27.612 42.2085 27.6777 42.2103 27.7357 42.236V42.2423Z" fill="white"/>
<path d="M30.1335 43.3174L31.3606 43.8045C31.4159 43.8282 31.4599 43.8724 31.4834 43.9278C31.507 43.9831 31.5083 44.0454 31.4872 44.1018C31.4634 44.157 31.4192 44.201 31.3638 44.2245C31.3085 44.2481 31.2462 44.2494 31.1899 44.2283L29.9627 43.7475C29.9058 43.7236 29.8603 43.6788 29.8356 43.6223C29.8109 43.5657 29.8088 43.5019 29.8299 43.4439C29.8537 43.3871 29.8989 43.342 29.9557 43.3183C30.0125 43.2946 30.0764 43.2943 30.1335 43.3174Z" fill="white"/>
<path d="M32.5875 44.2535L33.8526 44.6646C33.8796 44.6731 33.9046 44.687 33.9261 44.7055C33.9475 44.724 33.965 44.7466 33.9774 44.7721C33.9898 44.7975 33.997 44.8253 33.9983 44.8535C33.9997 44.8818 33.9953 44.9101 33.9854 44.9366C33.968 44.9898 33.9305 45.0342 33.8809 45.0601C33.8313 45.0861 33.7735 45.0917 33.7198 45.0758L32.4547 44.6773C32.4268 44.6686 32.4009 44.6546 32.3785 44.6359C32.356 44.6172 32.3375 44.5942 32.324 44.5684C32.3105 44.5425 32.3022 44.5142 32.2997 44.4851C32.2971 44.4561 32.3004 44.4268 32.3092 44.3989C32.328 44.3436 32.3674 44.2976 32.4192 44.2705C32.4711 44.2435 32.5313 44.2373 32.5875 44.2535Z" fill="white"/>
<path d="M35.0936 45.0313L36.3587 45.3413C36.4055 45.3532 36.4458 45.3832 36.4706 45.4246C36.4955 45.4661 36.503 45.5157 36.4915 45.5627C36.4871 45.5869 36.4777 45.6099 36.464 45.6303C36.4502 45.6507 36.4323 45.6679 36.4115 45.681C36.3907 45.6941 36.3673 45.7027 36.343 45.7063C36.3186 45.7099 36.2938 45.7084 36.2701 45.7018L35.005 45.4172C34.9796 45.4119 34.9555 45.4016 34.9341 45.387C34.9126 45.3724 34.8943 45.3536 34.8802 45.3319C34.8661 45.3101 34.8564 45.2857 34.8518 45.2602C34.8472 45.2347 34.8476 45.2085 34.8532 45.1831C34.8576 45.1573 34.8673 45.1326 34.8818 45.1108C34.8962 45.0889 34.915 45.0702 34.937 45.0559C34.9589 45.0417 34.9837 45.0321 35.0095 45.0279C35.0354 45.0236 35.0618 45.0248 35.0872 45.0313H35.0936Z" fill="white"/>
<path d="M37.6543 45.5821L38.9637 45.7529C39.0046 45.7592 39.0414 45.7812 39.0663 45.8144C39.0911 45.8475 39.102 45.889 39.0965 45.93C39.0917 45.9709 39.0712 46.0083 39.0393 46.0343C39.0075 46.0602 38.9667 46.0728 38.9257 46.0692L37.61 45.9237C37.5875 45.9214 37.5657 45.9146 37.5459 45.9037C37.5261 45.8929 37.5086 45.8782 37.4945 45.8605C37.4803 45.8429 37.4699 45.8226 37.4636 45.8009C37.4574 45.7792 37.4556 45.7564 37.4582 45.7339C37.4645 45.6892 37.4877 45.6486 37.5229 45.6204C37.5582 45.5921 37.6029 45.5785 37.648 45.5821H37.6543Z" fill="white"/>
<path d="M40.2656 45.8351C40.2656 45.8351 40.5882 45.8351 40.8981 45.8351C41.2081 45.8351 41.5307 45.8351 41.5307 45.8351C41.5481 45.8343 41.5656 45.8369 41.582 45.8428C41.5985 45.8487 41.6136 45.8577 41.6265 45.8695C41.6394 45.8813 41.6499 45.8954 41.6573 45.9113C41.6648 45.9271 41.669 45.9442 41.6698 45.9616C41.6716 45.9959 41.6601 46.0294 41.6377 46.0554C41.6153 46.0813 41.5838 46.0976 41.5497 46.1008C41.5497 46.1008 41.2207 46.1008 40.9171 46.1388C40.6135 46.1767 40.2529 46.1388 40.2529 46.1388C40.2143 46.1388 40.1773 46.1234 40.15 46.0961C40.1228 46.0688 40.1074 46.0318 40.1074 45.9933C40.1074 45.9547 40.1228 45.9177 40.15 45.8904C40.1773 45.8631 40.2143 45.8478 40.2529 45.8478L40.2656 45.8351Z" fill="white"/>
<path d="M42.8725 45.6957C42.8725 45.6957 43.2015 45.6451 43.5051 45.5818C43.8087 45.5186 44.1376 45.4363 44.1376 45.4363C44.1594 45.4303 44.1827 45.4328 44.2027 45.4434C44.2227 45.454 44.2379 45.4718 44.2452 45.4932C44.2482 45.514 44.2443 45.5353 44.234 45.5536C44.2237 45.5719 44.2076 45.5863 44.1882 45.5945C44.1882 45.5945 43.8656 45.6957 43.5557 45.7716C43.2457 45.8475 42.9231 45.9044 42.9231 45.9044C42.9084 45.9097 42.8928 45.9117 42.8772 45.9103C42.8617 45.9089 42.8466 45.9041 42.8331 45.8963C42.8196 45.8885 42.8079 45.8779 42.7989 45.8651C42.7899 45.8524 42.7838 45.8378 42.781 45.8224C42.7782 45.8071 42.7788 45.7913 42.7827 45.7762C42.7867 45.7611 42.7938 45.747 42.8037 45.7349C42.8137 45.7229 42.8261 45.7131 42.8401 45.7063C42.8542 45.6995 42.8696 45.6959 42.8852 45.6957H42.8725Z" fill="white"/>
<path d="M45.4032 45.0258C45.4032 45.0258 45.7068 44.8993 46.0358 44.7538C46.3647 44.6083 46.6114 44.4438 46.6114 44.4438C46.6143 44.4399 46.6182 44.4367 46.6226 44.4345C46.6269 44.4323 46.6318 44.4312 46.6367 44.4312C46.6416 44.4312 46.6465 44.4323 46.6508 44.4345C46.6552 44.4367 46.6591 44.4399 46.662 44.4438V44.4881C46.662 44.4881 46.3837 44.6715 46.0927 44.8297C45.8017 44.9878 45.4981 45.1206 45.4981 45.1206C45.483 45.1271 45.4659 45.1274 45.4506 45.1215C45.4352 45.1156 45.4228 45.1039 45.4159 45.089C45.4065 45.0786 45.4014 45.0651 45.4014 45.0511C45.4014 45.0371 45.4065 45.0236 45.4159 45.0131L45.4032 45.0258Z" fill="white"/>
<path d="M47.6543 43.6718L47.8947 43.4567L48.1224 43.2227L47.901 43.463L47.6733 43.6907L47.6543 43.6718Z" fill="white"/>
</g>
<defs>
<linearGradient id="paint0_linear_120_1039" x1="37.5559" y1="9.8437" x2="17.947" y2="45.82" gradientUnits="userSpaceOnUse">
<stop stop-color="#FF722D"/>
<stop offset="0.34" stop-color="#DB3515"/>
<stop offset="0.5" stop-color="#C91709"/>
<stop offset="1" stop-color="#890000"/>
</linearGradient>
<linearGradient id="paint1_linear_120_1039" x1="23.1238" y1="8.64667" x2="34.6427" y2="46.0687" gradientUnits="userSpaceOnUse">
<stop stop-color="#6A3026"/>
<stop offset="1" stop-color="#811114"/>
</linearGradient>
<clipPath id="clip0_120_1039">
<rect width="56" height="56" fill="white"/>
</clipPath>
</defs>
</svg>
