<svg width="92" height="92" viewBox="0 0 92 92" fill="none" xmlns="http://www.w3.org/2000/svg">
<path d="M86.9996 45.9994C86.9996 68.6428 68.6409 87.0016 45.9974 87.0016C23.3539 87.0016 4.99512 68.6428 4.99512 45.9994C4.99512 23.3559 23.3539 4.99707 45.9974 4.99707C68.6409 4.99707 86.9996 23.3559 86.9996 45.9994Z" fill="url(#paint0_radial_119_11)"/>
<path d="M62.8077 42.2251L57.133 59.6879C56.8583 60.5326 56.071 61.1045 55.1833 61.1045H36.8246C35.9369 61.1045 35.1497 60.5326 34.8749 59.6879L29.2002 42.2251C28.9255 41.3804 29.2269 40.4559 29.9444 39.933L44.7975 29.1413C45.515 28.6184 46.4888 28.6184 47.2084 29.1413L62.0614 39.933C62.7811 40.4559 63.0804 41.3804 62.8077 42.2251ZM60.1201 7.54532C55.7143 5.92577 50.9724 4.99707 46.003 4.99707C41.0335 4.99707 36.2915 5.92577 31.8858 7.54532L45.0661 14.3312C45.6545 14.6347 46.3535 14.6347 46.9419 14.3312L60.1201 7.54532ZM84.9961 33.3296C83.4626 28.6041 81.1132 24.3809 78.2102 20.6907L75.8301 35.3223C75.7234 35.9764 75.9388 36.6406 76.4102 37.108L86.9356 47.5451C87.1139 42.8525 86.5317 38.0552 84.9961 33.3296ZM13.7915 20.6907C10.8886 24.3829 8.54117 28.6041 7.00568 33.3296C5.4681 38.0552 4.88996 42.8503 5.06832 47.5451L15.5936 37.108C16.0631 36.6426 16.2804 35.9764 16.1738 35.3223L13.7915 20.6907ZM11.9772 68.813C14.5911 72.7144 17.8816 76.2509 21.9019 79.1742C25.922 82.0957 30.3032 84.1274 34.8216 85.4087L28.1464 72.1731C27.8492 71.5827 27.2833 71.1707 26.6273 71.0702L11.9772 68.813ZM57.1843 85.4066C61.7007 84.1274 66.0838 82.0895 70.1041 79.1702C74.1243 76.2509 77.4127 72.7103 80.0287 68.811L65.3765 71.0681C64.7226 71.1686 64.1567 71.5807 63.8573 72.1711L57.1843 85.4066Z" fill="url(#paint1_linear_119_11)"/>
<defs>
<radialGradient id="paint0_radial_119_11" cx="0" cy="0" r="1" gradientUnits="userSpaceOnUse" gradientTransform="translate(17.4229 16.1455) scale(83.8824 83.8824)">
<stop stop-color="#F0F0F0"/>
<stop offset="1" stop-color="#B5B2B2"/>
</radialGradient>
<linearGradient id="paint1_linear_119_11" x1="30.9306" y1="8.60938" x2="61.7212" y2="82.7906" gradientUnits="userSpaceOnUse">
<stop stop-color="#6D7479"/>
<stop offset="1" stop-color="#323538"/>
</linearGradient>
</defs>
</svg>
