<svg width="52" height="52" viewBox="0 0 52 52" fill="none" xmlns="http://www.w3.org/2000/svg">
<g clip-path="url(#clip0_119_14)">
<path d="M28.9586 51.151C23.7967 51.8153 18.5547 50.8956 13.9273 48.5136C9.29987 46.1317 5.50538 42.3999 3.0466 37.8129C0.587815 33.2258 -0.419198 27.9999 0.158982 22.8276C0.737162 17.6553 2.87324 12.7808 6.2842 8.84987C9.69517 4.91894 14.22 2.11717 19.2592 0.815791C24.2983 -0.485588 29.614 -0.225152 34.5018 1.5626C39.3896 3.35034 43.6189 6.58101 46.6293 10.8266C49.6396 15.0721 51.289 20.1321 51.3588 25.3361C51.4465 31.6389 49.2118 37.7536 45.0807 42.5145C40.9495 47.2754 35.2108 50.3496 28.9586 51.151Z" fill="url(#paint0_radial_119_14)"/>
<path d="M23.9474 42.4009C20.3476 42.1575 16.9032 40.8417 14.058 38.6231C11.6293 36.76 9.77211 34.2528 8.69772 31.3865C8.51413 30.8811 8.3579 30.3662 8.2297 29.8439C7.44266 26.595 7.64834 23.1069 8.84674 19.4739C9.98169 16.155 11.7129 13.071 13.9551 10.3737C17.8672 5.60735 22.8455 2.32488 27.679 0.0708008C28.1337 0.104381 28.585 0.150555 29.0327 0.20932C23.9495 2.43611 18.6081 5.78365 14.484 10.8081C9.56871 16.7959 7.48044 23.8519 8.89501 29.6823C9.01741 30.1797 9.16664 30.6702 9.34205 31.1515C11.4597 36.9609 17.3782 41.3032 23.9893 41.7041C27.9624 41.9218 31.8896 40.7674 35.1128 38.4342C37.3711 36.8118 39.0522 34.5221 40.6788 32.3079C41.6056 30.9998 42.5975 29.7389 43.6506 28.5301C46.1104 25.8017 48.673 24.1563 51.2733 23.6316L51.2859 23.81C51.2985 23.98 51.309 24.15 51.3195 24.32C48.8954 24.8363 46.4923 26.4061 44.1585 28.9876C43.1091 30.1503 42.1542 31.4516 41.2307 32.7087C39.5727 34.967 37.858 37.3009 35.5116 38.9862C32.1623 41.4164 28.0796 42.6219 23.9474 42.4009Z" fill="#CF2432"/>
<path d="M21.9794 1.58412C21.9652 1.54546 21.9554 1.50534 21.9501 1.46449C21.9359 1.32986 21.9757 1.1951 22.0607 1.0897C22.1456 0.984298 22.2688 0.91682 22.4034 0.902024C23.5997 0.7719 24.2692 1.19375 24.6197 1.56943C24.9702 1.94511 25.369 2.69647 25.136 3.99141C25.127 4.05975 25.1043 4.12556 25.0692 4.18487C25.0341 4.24417 24.9873 4.29574 24.9317 4.33647C24.8761 4.37719 24.8128 4.40622 24.7456 4.42181C24.6785 4.43739 24.6089 4.4392 24.541 4.42714C24.4732 4.41507 24.4085 4.38937 24.3508 4.3516C24.2932 4.31382 24.2438 4.26476 24.2056 4.20736C24.1675 4.14996 24.1413 4.08543 24.1288 4.01765C24.1163 3.94987 24.1176 3.88026 24.1328 3.81302C24.2209 3.3261 24.2461 2.66289 23.8746 2.26413C23.5032 1.86536 22.9428 1.86956 22.5125 1.91573C22.3994 1.9282 22.2853 1.90229 22.1886 1.84216C22.0919 1.78202 22.0183 1.69115 21.9794 1.58412Z" fill="#CF2432"/>
<path d="M19.9564 2.79105C19.9413 2.75197 19.9314 2.71103 19.9271 2.66932C19.9195 2.60244 19.9252 2.53472 19.944 2.47007C19.9627 2.40542 19.994 2.34512 20.0362 2.29263C20.0783 2.24015 20.1304 2.19653 20.1895 2.16428C20.2486 2.13204 20.3135 2.1118 20.3804 2.10475C21.5767 1.97463 22.2462 2.39438 22.5967 2.77006C22.9472 3.14574 23.346 3.8992 23.113 5.19414C23.0849 5.32314 23.0078 5.43621 22.8981 5.50957C22.7883 5.58293 22.6543 5.61085 22.5244 5.58748C22.3944 5.5641 22.2786 5.49123 22.2013 5.38421C22.124 5.2772 22.0912 5.14436 22.1098 5.01365C22.1958 4.52883 22.2231 3.86562 21.8495 3.46685C21.476 3.06809 20.9177 3.07229 20.4895 3.11846C20.3769 3.13084 20.2634 3.10538 20.1669 3.04609C20.0704 2.98681 19.9963 2.89708 19.9564 2.79105Z" fill="#CF2432"/>
<path d="M17.952 4.17201C17.9385 4.13328 17.9293 4.09315 17.9247 4.05238C17.9105 3.91807 17.95 3.78361 18.0345 3.67826C18.119 3.57292 18.2417 3.50522 18.3759 3.48991C19.5743 3.35979 20.2438 3.78164 20.5922 4.15732C20.9406 4.533 21.3436 5.28436 21.1106 6.5793C21.0825 6.7083 21.0055 6.82138 20.8957 6.89473C20.7859 6.96809 20.652 6.99602 20.522 6.97264C20.3921 6.94926 20.2763 6.8764 20.1989 6.76938C20.1216 6.66236 20.0888 6.52952 20.1074 6.39881C20.1935 5.91399 20.2208 5.25078 19.8472 4.85201C19.4736 4.45325 18.9153 4.45745 18.4872 4.50362C18.3738 4.51547 18.2598 4.48932 18.1629 4.4293C18.066 4.36928 17.9918 4.27878 17.952 4.17201Z" fill="#CF2432"/>
<path d="M16.1953 5.64565C16.1811 5.60699 16.1712 5.56686 16.1659 5.52602C16.1518 5.39138 16.1915 5.25663 16.2765 5.15122C16.3614 5.04582 16.4847 4.97834 16.6192 4.96355C17.8155 4.83342 18.485 5.25528 18.8355 5.63096C19.186 6.00664 19.5848 6.75799 19.3518 8.05293C19.3428 8.12127 19.3201 8.18708 19.285 8.24639C19.2499 8.30569 19.2031 8.35727 19.1475 8.39799C19.0919 8.43872 19.0286 8.46775 18.9615 8.48333C18.8943 8.49892 18.8247 8.50073 18.7569 8.48866C18.689 8.47659 18.6243 8.4509 18.5666 8.41312C18.509 8.37535 18.4596 8.32628 18.4214 8.26888C18.3833 8.21148 18.3572 8.14695 18.3446 8.07917C18.3321 8.01139 18.3335 7.94178 18.3486 7.87454C18.4368 7.38763 18.4619 6.72441 18.0905 6.32565C17.719 5.92688 17.1586 5.93108 16.7284 5.97725C16.6152 5.98972 16.5011 5.96381 16.4044 5.90368C16.3078 5.84354 16.2341 5.75267 16.1953 5.64565Z" fill="#CF2432"/>
<path d="M14.5842 7.26332C14.5697 7.22487 14.5606 7.18462 14.557 7.14369C14.5494 7.07709 14.5551 7.00964 14.5737 6.94524C14.5923 6.88085 14.6235 6.82077 14.6654 6.76848C14.7074 6.7162 14.7593 6.67273 14.8181 6.64059C14.8769 6.60845 14.9415 6.58827 15.0082 6.58122C16.2045 6.4511 16.874 6.87295 17.2245 7.24863C17.575 7.62431 17.9738 8.37567 17.7408 9.67061C17.7318 9.73895 17.7091 9.80476 17.674 9.86406C17.6389 9.92337 17.5921 9.97494 17.5365 10.0157C17.4809 10.0564 17.4176 10.0854 17.3504 10.101C17.2833 10.1166 17.2137 10.1184 17.1458 10.1063C17.078 10.0943 17.0133 10.0686 16.9556 10.0308C16.898 9.99302 16.8486 9.94396 16.8104 9.88656C16.7723 9.82916 16.7461 9.76462 16.7336 9.69684C16.7211 9.62907 16.7224 9.55946 16.7376 9.49221C16.8257 9.0053 16.8509 8.34209 16.4794 7.94332C16.108 7.54456 15.5476 7.54876 15.1173 7.59493C15.0042 7.6074 14.8901 7.58149 14.7934 7.52136C14.6967 7.46122 14.6231 7.37035 14.5842 7.26332Z" fill="#CF2432"/>
<path d="M12.9299 9.03099C12.9156 8.99233 12.9058 8.95221 12.9005 8.91136C12.8932 8.84464 12.8992 8.77715 12.918 8.71274C12.9369 8.64833 12.9683 8.58828 13.0104 8.53603C13.0525 8.48377 13.1045 8.44034 13.1634 8.40823C13.2224 8.37612 13.2871 8.35596 13.3538 8.34889C14.5501 8.21877 15.2196 8.63852 15.5701 9.0142C15.9206 9.38988 16.3194 10.1433 16.0864 11.4383C16.0583 11.5673 15.9812 11.6804 15.8715 11.7537C15.7617 11.8271 15.6277 11.855 15.4978 11.8316C15.3678 11.8082 15.252 11.7354 15.1747 11.6284C15.0974 11.5213 15.0646 11.3885 15.0832 11.2578C15.1713 10.773 15.1965 10.1098 14.825 9.711C14.4536 9.31223 13.8932 9.31643 13.4629 9.3626C13.3498 9.3747 13.2359 9.34863 13.1393 9.28854C13.0427 9.22846 12.969 9.1378 12.9299 9.03099Z" fill="#CF2432"/>
<path d="M11.1465 11.549C11.1244 11.5142 11.1068 11.4769 11.094 11.4377C11.0726 11.3744 11.064 11.3074 11.0686 11.2406C11.0732 11.1739 11.0909 11.1087 11.1207 11.0489C11.1505 10.989 11.1919 10.9356 11.2424 10.8918C11.293 10.8479 11.3517 10.8145 11.4151 10.7934C12.559 10.4114 13.304 10.678 13.7238 10.9718C14.1435 11.2656 14.6955 11.9142 14.7438 13.2301C14.7418 13.3607 14.6897 13.4856 14.5984 13.579C14.507 13.6723 14.3833 13.7271 14.2528 13.7319C14.1222 13.7368 13.9948 13.6914 13.8967 13.605C13.7987 13.5187 13.7375 13.398 13.7259 13.2679C13.707 12.7726 13.5916 12.1198 13.1424 11.8092C12.6933 11.4986 12.1539 11.6287 11.7341 11.7588C11.6268 11.7939 11.5108 11.7923 11.4045 11.7543C11.2981 11.7163 11.2074 11.6441 11.1465 11.549Z" fill="#CF2432"/>
<path d="M9.74656 13.6482C9.72248 13.6144 9.70274 13.5777 9.6878 13.5391C9.66388 13.4765 9.65257 13.4099 9.65451 13.3429C9.65645 13.276 9.67161 13.2101 9.69911 13.149C9.72662 13.088 9.76592 13.033 9.81477 12.9872C9.86361 12.9414 9.92103 12.9057 9.98372 12.8821C11.1087 12.4519 11.8726 12.6912 12.2924 12.964C12.7121 13.2368 13.3019 13.8665 13.4047 15.1782C13.409 15.3093 13.3625 15.4371 13.275 15.5349C13.1875 15.6326 13.0657 15.6929 12.9349 15.7032C12.8041 15.7135 12.6744 15.6729 12.5727 15.59C12.471 15.5071 12.4052 15.3881 12.3889 15.2579C12.3511 14.7668 12.2084 14.1183 11.7467 13.8266C11.285 13.5349 10.7456 13.6797 10.3426 13.8266C10.2375 13.8668 10.122 13.8711 10.0142 13.8388C9.90642 13.8065 9.81231 13.7395 9.74656 13.6482Z" fill="#CF2432"/>
<path d="M8.60887 15.7846C8.58479 15.7509 8.56504 15.7142 8.5501 15.6755C8.52619 15.6129 8.51487 15.5463 8.51682 15.4794C8.51876 15.4124 8.53392 15.3465 8.56142 15.2855C8.58892 15.2244 8.62823 15.1694 8.67707 15.1236C8.72592 15.0778 8.78334 15.0421 8.84603 15.0186C9.97097 14.5988 10.7244 14.8276 11.1547 15.1025C11.5849 15.3775 12.1663 16.005 12.267 17.3167C12.2713 17.4479 12.2248 17.5756 12.1373 17.6734C12.0498 17.7712 11.928 17.8315 11.7972 17.8417C11.6664 17.852 11.5367 17.8115 11.435 17.7285C11.3333 17.6456 11.2675 17.5267 11.2512 17.3965C11.2134 16.9033 11.0707 16.2548 10.609 15.963C10.1892 15.6902 9.60788 15.8182 9.20492 15.963C9.0998 16.0032 8.98435 16.0075 8.87654 15.9752C8.76873 15.943 8.67462 15.876 8.60887 15.7846Z" fill="#CF2432"/>
<path d="M7.73393 18.3764C7.70551 18.3474 7.68083 18.315 7.66047 18.2799C7.6266 18.2221 7.60451 18.1581 7.59547 18.0917C7.58642 18.0253 7.59061 17.9578 7.60777 17.893C7.62494 17.8283 7.65476 17.7675 7.6955 17.7143C7.73624 17.6611 7.7871 17.6165 7.84516 17.5831C8.89455 16.9786 9.66899 17.092 10.1412 17.2935C10.6134 17.4949 11.285 18.0217 11.5957 19.2999C11.6137 19.3656 11.6183 19.4343 11.6093 19.5019C11.6003 19.5695 11.5778 19.6346 11.5432 19.6934C11.5086 19.7521 11.4625 19.8033 11.4078 19.844C11.3531 19.8846 11.2907 19.9139 11.2245 19.93C11.1582 19.9461 11.0894 19.9488 11.0221 19.9379C10.9548 19.927 10.8904 19.9027 10.8326 19.8665C10.7749 19.8302 10.725 19.7828 10.6859 19.7269C10.6468 19.671 10.6193 19.6079 10.605 19.5412C10.4896 19.0627 10.2441 18.4457 9.74245 18.2316C9.27442 18.0217 8.73084 18.2484 8.35726 18.4646C8.25848 18.5217 8.14338 18.5441 8.03037 18.5282C7.91736 18.5122 7.81298 18.4587 7.73393 18.3764Z" fill="#CF2432"/>
<path d="M6.95288 20.4775C6.92447 20.4485 6.89979 20.4161 6.87942 20.381C6.81159 20.264 6.79294 20.125 6.82757 19.9943C6.8622 19.8637 6.94728 19.7521 7.06412 19.6842C8.1135 19.0797 8.89004 19.1931 9.36227 19.3945C9.83449 19.596 10.504 20.1228 10.8167 21.401C10.8347 21.4667 10.8393 21.5354 10.8303 21.603C10.8213 21.6706 10.7988 21.7357 10.7642 21.7944C10.7296 21.8532 10.6836 21.9044 10.6288 21.945C10.5741 21.9857 10.5118 22.0149 10.4455 22.0311C10.3793 22.0472 10.3105 22.0499 10.2432 22.039C10.1759 22.0281 10.1114 22.0038 10.0537 21.9675C9.99594 21.9313 9.94604 21.8838 9.90695 21.828C9.86786 21.7721 9.84037 21.709 9.8261 21.6423C9.70856 21.1638 9.46301 20.5468 8.9614 20.3327C8.49338 20.1333 7.9498 20.3495 7.57622 20.5656C7.47744 20.6228 7.36233 20.6452 7.24932 20.6292C7.13632 20.6132 7.03193 20.5598 6.95288 20.4775Z" fill="#CF2432"/>
<path d="M6.40691 23.3505C6.37389 23.3267 6.34363 23.2992 6.31667 23.2687C6.27267 23.2181 6.23908 23.1594 6.2178 23.0958C6.19652 23.0323 6.18797 22.9651 6.19265 22.8983C6.19733 22.8314 6.21514 22.7661 6.24506 22.7062C6.27498 22.6462 6.31643 22.5927 6.36704 22.5488C7.2758 21.7596 8.06494 21.7219 8.56655 21.831C9.06815 21.9401 9.82581 22.3305 10.3736 23.5268C10.4081 23.5884 10.4295 23.6565 10.4364 23.7268C10.4432 23.7971 10.4354 23.8681 10.4134 23.9352C10.3913 24.0023 10.3556 24.0642 10.3085 24.1167C10.2613 24.1693 10.2037 24.2116 10.1394 24.2407C10.0751 24.2699 10.0054 24.2854 9.93475 24.2862C9.86412 24.2871 9.79408 24.2732 9.72908 24.2455C9.66408 24.2179 9.60554 24.177 9.55716 24.1256C9.50878 24.0741 9.47162 24.0131 9.44803 23.9466C9.23815 23.4974 8.88556 22.9392 8.35038 22.8237C7.85507 22.7146 7.36186 23.0336 7.03445 23.3148C6.94869 23.3897 6.84044 23.4338 6.7268 23.4403C6.61316 23.4467 6.5006 23.4152 6.40691 23.3505Z" fill="#CF2432"/>
<path d="M6.33045 26.1506C6.29217 26.1353 6.25616 26.1148 6.22342 26.0897C6.11449 26.01 6.04162 25.8903 6.02077 25.757C5.99992 25.6236 6.03279 25.4874 6.11218 25.3782C6.82576 24.4065 7.58132 24.1966 8.09971 24.1924C8.61811 24.1882 9.43873 24.4023 10.2384 25.4517C10.3161 25.5594 10.3488 25.6932 10.3294 25.8247C10.31 25.9561 10.2401 26.0748 10.1346 26.1555C10.029 26.2361 9.89612 26.2724 9.76421 26.2566C9.63229 26.2408 9.51175 26.1742 9.42823 26.0708C9.12811 25.6784 8.65589 25.2124 8.11021 25.2166C7.60231 25.2166 7.19095 25.6364 6.9349 25.9869C6.86693 26.0778 6.77046 26.1433 6.66091 26.173C6.55135 26.2027 6.43501 26.1948 6.33045 26.1506Z" fill="#CF2432"/>
<path d="M6.37365 28.3396C6.33543 28.3245 6.29886 28.3055 6.26451 28.283C6.20976 28.2443 6.16317 28.1952 6.12742 28.1385C6.09166 28.0817 6.06744 28.0185 6.05613 27.9525C6.04483 27.8864 6.04666 27.8187 6.06153 27.7533C6.0764 27.688 6.10401 27.6262 6.14279 27.5715C6.83538 26.5872 7.59303 26.3626 8.10723 26.3479C8.62143 26.3332 9.44834 26.5326 10.2669 27.5631C10.3154 27.6146 10.3526 27.6756 10.3763 27.7422C10.3999 27.8089 10.4095 27.8797 10.4043 27.9502C10.3991 28.0208 10.3793 28.0895 10.3461 28.1519C10.313 28.2144 10.2672 28.2693 10.2117 28.3131C10.1562 28.3569 10.0921 28.3887 10.0237 28.4065C9.95523 28.4242 9.88383 28.4276 9.81402 28.4162C9.74421 28.4049 9.67751 28.3792 9.61818 28.3407C9.55884 28.3022 9.50815 28.2518 9.46933 28.1927C9.16291 27.8044 8.68229 27.3532 8.13662 27.3532C7.62661 27.3679 7.22365 27.7919 6.976 28.1444C6.91227 28.2401 6.81811 28.3114 6.70878 28.3468C6.59945 28.3823 6.48136 28.3797 6.37365 28.3396Z" fill="#CF2432"/>
<path d="M7.11669 30.9884C7.0763 30.9799 7.0369 30.9672 6.99916 30.9506C6.87615 30.8943 6.78051 30.7916 6.73328 30.6648C6.68605 30.5381 6.69109 30.3978 6.74731 30.2748C7.24681 29.1792 7.9499 28.8203 8.4515 28.7112C8.95311 28.6021 9.80521 28.644 10.8 29.5066C10.9019 29.5951 10.9644 29.7205 10.9739 29.8551C10.9833 29.9897 10.9389 30.1225 10.8504 30.2244C10.7619 30.3263 10.6365 30.3888 10.5019 30.3982C10.3673 30.4077 10.2345 30.3633 10.1326 30.2748C9.75904 29.9516 9.20286 29.5906 8.66348 29.706C8.16607 29.8151 7.84706 30.3063 7.66656 30.6987C7.61992 30.8011 7.54062 30.885 7.4411 30.9375C7.34158 30.9899 7.22748 31.0078 7.11669 30.9884Z" fill="#CF2432"/>
<path d="M7.7148 33.3221C7.67398 33.3205 7.63365 33.3127 7.59517 33.299C7.46804 33.2588 7.3618 33.1703 7.29937 33.0525C7.23694 32.9347 7.22332 32.7971 7.26147 32.6693C7.62665 31.5213 8.27937 31.0785 8.76419 30.9085C9.249 30.7385 10.099 30.6776 11.1925 31.4122C11.2899 31.4932 11.3536 31.6077 11.3712 31.7331C11.3889 31.8586 11.3592 31.9862 11.2879 32.091C11.2167 32.1957 11.109 32.2703 10.9858 32.3C10.8626 32.3297 10.7328 32.3125 10.6216 32.2517C10.2123 31.9747 9.61628 31.685 9.09999 31.8655C8.62147 32.0313 8.36332 32.5581 8.2332 32.9695C8.1987 33.0778 8.12888 33.1714 8.03489 33.2353C7.94091 33.2992 7.8282 33.3298 7.7148 33.3221Z" fill="#CF2432"/>
<path d="M9.46594 35.853C9.42617 35.8637 9.38535 35.87 9.34421 35.8719C9.20909 35.8747 9.07834 35.824 8.98045 35.7308C8.88255 35.6377 8.82546 35.5096 8.82161 35.3745C8.79223 34.1698 9.26655 33.538 9.66112 33.2211C10.0557 32.9042 10.8469 32.5684 12.1188 32.9084C12.2433 32.9485 12.3476 33.0348 12.4103 33.1496C12.4729 33.2644 12.489 33.3989 12.4554 33.5252C12.4217 33.6516 12.3407 33.7602 12.2293 33.8286C12.1178 33.897 11.9843 33.92 11.8564 33.8927C11.3779 33.7647 10.721 33.6829 10.2908 34.0208C9.89198 34.3356 9.82063 34.9169 9.83112 35.3493C9.83435 35.4618 9.80029 35.5722 9.73423 35.6633C9.66818 35.7544 9.57385 35.8211 9.46594 35.853Z" fill="#CF2432"/>
<path d="M11.3439 37.9539C11.3095 37.9758 11.2729 37.9941 11.2347 38.0085C11.1075 38.0544 10.9673 38.0479 10.8449 37.9904C10.7225 37.933 10.628 37.8292 10.582 37.7021C10.1728 36.5687 10.4246 35.8132 10.7059 35.3934C10.9871 34.9737 11.6272 34.3986 12.9389 34.3189C13.0725 34.3129 13.2031 34.3597 13.3026 34.4491C13.402 34.5385 13.4624 34.6634 13.4706 34.7969C13.4789 34.9304 13.4344 35.0617 13.3467 35.1627C13.259 35.2637 13.1352 35.3262 13.0019 35.3368C12.5087 35.3662 11.8581 35.4984 11.5579 35.9538C11.2578 36.4092 11.3942 36.9528 11.5412 37.3579C11.5791 37.465 11.5803 37.5818 11.5446 37.6897C11.5089 37.7976 11.4382 37.8906 11.3439 37.9539Z" fill="#CF2432"/>
<path d="M12.9123 39.5846C12.8772 39.6065 12.8399 39.6248 12.8011 39.6392C12.6739 39.6851 12.5337 39.6786 12.4113 39.6211C12.2889 39.5637 12.1943 39.4599 12.1484 39.3328C11.7412 38.1994 11.991 37.4439 12.2743 37.0241C12.5576 36.6044 13.1936 36.0293 14.5074 35.9496C14.6405 35.9447 14.7702 35.9922 14.8688 36.0817C14.9674 36.1713 15.027 36.2958 15.035 36.4288C15.0429 36.5617 14.9985 36.6925 14.9113 36.7932C14.8241 36.8938 14.701 36.9564 14.5682 36.9675C14.075 36.9968 13.4244 37.1291 13.1243 37.5845C12.8452 38.0042 12.9606 38.5835 13.1075 38.9886C13.1456 39.0955 13.1472 39.2121 13.1118 39.32C13.0765 39.4279 13.0063 39.521 12.9123 39.5846Z" fill="#CF2432"/>
<path d="M14.4422 40.9933C14.4087 41.0167 14.3719 41.0351 14.3331 41.0478C14.2701 41.0708 14.2032 41.0812 14.1363 41.0782C14.0693 41.0752 14.0036 41.059 13.9429 41.0306C13.8822 41.0021 13.8278 40.9619 13.7827 40.9122C13.7377 40.8626 13.7029 40.8046 13.6804 40.7414C13.2606 39.6102 13.523 38.8525 13.8042 38.4328C14.0854 38.013 14.7256 37.438 16.0394 37.3582C16.1071 37.3526 16.1753 37.3605 16.24 37.3816C16.3046 37.4027 16.3643 37.4365 16.4157 37.481C16.4671 37.5255 16.5091 37.5798 16.5391 37.6408C16.5692 37.7018 16.5868 37.7681 16.5909 37.836C16.5949 37.9039 16.5854 37.9719 16.5628 38.036C16.5402 38.1001 16.505 38.159 16.4593 38.2094C16.4136 38.2597 16.3583 38.3003 16.2966 38.329C16.235 38.3576 16.1682 38.3736 16.1003 38.3761C15.607 38.4055 14.9564 38.5377 14.6563 38.9932C14.3562 39.4486 14.4926 39.9922 14.6395 40.3993C14.6777 40.5061 14.679 40.6227 14.6432 40.7303C14.6075 40.8379 14.5367 40.9305 14.4422 40.9933Z" fill="#CF2432"/>
<path d="M16.3029 42.1916C16.2678 42.2135 16.2306 42.2318 16.1917 42.2461C16.0645 42.292 15.9243 42.2855 15.8019 42.228C15.6795 42.1706 15.5849 42.0669 15.539 41.9397C15.1318 40.8064 15.3816 40.0508 15.6649 39.6311C15.9483 39.2113 16.5842 38.6362 17.898 38.5565C18.0311 38.5517 18.1608 38.5991 18.2594 38.6886C18.358 38.7782 18.4176 38.9028 18.4256 39.0357C18.4335 39.1687 18.3892 39.2995 18.3019 39.4001C18.2147 39.5008 18.0916 39.5633 17.9589 39.5744C17.4657 39.6038 16.815 39.736 16.5149 40.1914C16.2148 40.6469 16.3512 41.1904 16.4981 41.5955C16.5363 41.7024 16.5378 41.819 16.5025 41.9269C16.4671 42.0348 16.397 42.1279 16.3029 42.1916Z" fill="#CF2432"/>
<path d="M19.1962 43.2406C19.1698 43.2723 19.1395 43.3005 19.106 43.3246C19.0514 43.3634 18.9897 43.3912 18.9244 43.4062C18.8592 43.4212 18.7915 43.4233 18.7255 43.4122C18.6594 43.401 18.5962 43.377 18.5394 43.3415C18.4826 43.3059 18.4334 43.2595 18.3945 43.2049C17.6956 42.2248 17.7355 41.4357 17.8908 40.9467C18.0461 40.4576 18.5078 39.7399 19.7503 39.3075C19.8141 39.2831 19.8822 39.2718 19.9505 39.2742C20.0188 39.2767 20.0859 39.2928 20.1478 39.3217C20.2097 39.3505 20.2652 39.3916 20.311 39.4423C20.3568 39.493 20.3919 39.5524 20.4142 39.617C20.4366 39.6816 20.4458 39.75 20.4412 39.8181C20.4366 39.8863 20.4184 39.9529 20.3876 40.0138C20.3568 40.0748 20.314 40.129 20.2619 40.1732C20.2097 40.2173 20.1493 40.2505 20.084 40.2709C19.6181 40.4325 19.0346 40.7347 18.8625 41.2552C18.7072 41.74 18.9738 42.2605 19.2256 42.6131C19.2918 42.7058 19.3249 42.8181 19.3196 42.9319C19.3143 43.0457 19.2708 43.1545 19.1962 43.2406Z" fill="#CF2432"/>
<path d="M21.2763 43.7426C21.2499 43.7742 21.2195 43.8024 21.1861 43.8265C21.1315 43.8654 21.0698 43.8931 21.0045 43.9082C20.9392 43.9232 20.8716 43.9252 20.8055 43.9141C20.7395 43.903 20.6762 43.879 20.6195 43.8434C20.5627 43.8079 20.5134 43.7615 20.4746 43.7069C19.7757 42.7268 19.8156 41.9376 19.9709 41.4486C20.1262 40.9596 20.5879 40.2418 21.8304 39.8095C21.8942 39.7851 21.9623 39.7738 22.0306 39.7762C22.0989 39.7786 22.166 39.7948 22.2279 39.8236C22.2898 39.8525 22.3453 39.8935 22.3911 39.9442C22.4369 39.995 22.472 40.0544 22.4943 40.1189C22.5167 40.1835 22.5259 40.2519 22.5213 40.3201C22.5167 40.3882 22.4985 40.4548 22.4677 40.5158C22.4369 40.5768 22.3941 40.631 22.342 40.6751C22.2898 40.7193 22.2293 40.7525 22.1641 40.7728C21.6982 40.9344 21.1147 41.2366 20.9426 41.7571C20.7873 42.2419 21.0539 42.7624 21.3057 43.115C21.3716 43.2079 21.4044 43.3201 21.3991 43.4339C21.3938 43.5476 21.3506 43.6562 21.2763 43.7426Z" fill="#CF2432"/>
<path d="M24.0642 43.7954C24.0433 43.8313 24.0171 43.8638 23.9866 43.892C23.9394 43.9394 23.8833 43.977 23.8215 44.0026C23.7598 44.0283 23.6935 44.0415 23.6267 44.0415C23.5598 44.0415 23.4935 44.0283 23.4318 44.0026C23.37 43.977 23.3139 43.9394 23.2667 43.892C22.4272 43.0273 22.3454 42.2423 22.4272 41.7344C22.5091 41.2265 22.847 40.4479 24.016 39.8455C24.0754 39.8101 24.1414 39.7871 24.21 39.7779C24.2785 39.7688 24.3483 39.7737 24.4149 39.7923C24.4815 39.811 24.5436 39.843 24.5975 39.8864C24.6514 39.9298 24.6958 39.9838 24.7282 40.0449C24.7605 40.1061 24.7801 40.1732 24.7857 40.2421C24.7913 40.3111 24.7828 40.3805 24.7608 40.446C24.7387 40.5116 24.7036 40.572 24.6574 40.6236C24.6113 40.6751 24.5551 40.7167 24.4924 40.7459C24.0579 40.9768 23.5186 41.3755 23.443 41.9044C23.3633 42.406 23.7054 42.8804 24.0076 43.191C24.0809 43.2722 24.1259 43.3749 24.1362 43.4838C24.1464 43.5927 24.1211 43.702 24.0642 43.7954Z" fill="#CF2432"/>
<path d="M26.9375 44.1452C26.9194 44.1823 26.8976 44.2175 26.8725 44.2502C26.788 44.3555 26.6653 44.423 26.5311 44.4379C26.397 44.4529 26.2624 44.414 26.1568 44.3299C25.2145 43.5807 25.034 42.8104 25.0487 42.2983C25.0633 41.7862 25.311 40.9677 26.3877 40.2121C26.499 40.1345 26.6366 40.1042 26.7702 40.1281C26.9039 40.1519 27.0225 40.2278 27.1002 40.3391C27.1778 40.4504 27.2081 40.5881 27.1843 40.7217C27.1605 40.8553 27.0845 40.974 26.9732 41.0516C26.5703 41.335 26.0833 41.7883 26.0687 42.334C26.054 42.8419 26.4527 43.27 26.7906 43.5387C26.8782 43.6097 26.9401 43.7075 26.9666 43.8171C26.9932 43.9267 26.983 44.042 26.9375 44.1452Z" fill="#CF2432"/>
<path d="M29.6306 43.4168C29.6181 43.456 29.6019 43.4939 29.5823 43.5301C29.5497 43.5885 29.506 43.6399 29.4535 43.6813C29.401 43.7227 29.3409 43.7534 29.2765 43.7715C29.2122 43.7897 29.1449 43.7949 29.0785 43.787C29.0121 43.779 28.948 43.7581 28.8897 43.7253C27.8403 43.1356 27.5381 42.4052 27.4709 41.8952C27.4038 41.3852 27.5171 40.5415 28.4574 39.6222C28.5047 39.5732 28.5614 39.5341 28.6241 39.5073C28.6868 39.4805 28.7542 39.4666 28.8224 39.4663C28.8906 39.466 28.9581 39.4795 29.0211 39.5058C29.084 39.532 29.141 39.5707 29.1887 39.6194C29.2364 39.6681 29.2739 39.7259 29.2989 39.7893C29.3239 39.8527 29.3359 39.9205 29.3343 39.9887C29.3326 40.0568 29.3173 40.124 29.2892 40.1861C29.2612 40.2483 29.221 40.3042 29.1709 40.3505C28.8163 40.6968 28.4112 41.2215 28.4825 41.763C28.5476 42.2667 29.0114 42.6256 29.3871 42.8354C29.4867 42.8913 29.5648 42.9789 29.6089 43.0842C29.653 43.1896 29.6606 43.3066 29.6306 43.4168Z" fill="#CF2432"/>
<path d="M32.3338 42.6682C32.3334 42.7093 32.3277 42.7502 32.317 42.7899C32.3002 42.8556 32.2705 42.9172 32.2296 42.9712C32.1887 43.0253 32.1374 43.0706 32.0788 43.1046C32.0202 43.1386 31.9554 43.1606 31.8882 43.1692C31.821 43.1779 31.7527 43.1731 31.6874 43.1551C30.5226 42.8487 30.0461 42.2169 29.8531 41.7405C29.66 41.2641 29.555 40.4204 30.235 39.2934C30.2675 39.2323 30.3122 39.1784 30.3661 39.1351C30.4201 39.0918 30.4824 39.0599 30.5491 39.0415C30.6158 39.023 30.6855 39.0183 30.7541 39.0276C30.8227 39.037 30.8886 39.0602 30.9479 39.0958C31.0073 39.1315 31.0587 39.1788 31.0992 39.235C31.1396 39.2912 31.1682 39.355 31.1832 39.4225C31.1981 39.4901 31.1992 39.56 31.1863 39.628C31.1734 39.696 31.1468 39.7607 31.1081 39.8181C30.8542 40.2378 30.5918 40.8527 30.7975 41.3585C30.9906 41.8287 31.5279 42.0574 31.9455 42.1687C32.0572 42.1957 32.1564 42.2599 32.2269 42.3506C32.2975 42.4413 32.3351 42.5533 32.3338 42.6682Z" fill="#CF2432"/>
<path d="M34.4001 41.614C34.3996 41.6551 34.394 41.696 34.3833 41.7357C34.3665 41.8014 34.3367 41.863 34.2958 41.917C34.2549 41.9711 34.2037 42.0164 34.1451 42.0504C34.0865 42.0844 34.0216 42.1064 33.9544 42.115C33.8872 42.1237 33.819 42.1189 33.7536 42.1009C32.5888 41.7945 32.1145 41.1627 31.9214 40.6863C31.7283 40.2099 31.6234 39.3662 32.3034 38.2392C32.3359 38.1781 32.3805 38.1242 32.4345 38.0809C32.4885 38.0376 32.5507 38.0057 32.6174 37.9873C32.6841 37.9688 32.7539 37.9641 32.8225 37.9734C32.891 37.9828 32.957 38.006 33.0163 38.0416C33.0756 38.0773 33.1271 38.1246 33.1675 38.1808C33.2079 38.237 33.2365 38.3008 33.2515 38.3683C33.2665 38.4359 33.2676 38.5058 33.2547 38.5738C33.2418 38.6418 33.2152 38.7065 33.1765 38.7639C32.9204 39.1836 32.6602 39.7985 32.8659 40.3043C33.0568 40.7745 33.5962 41.0053 34.0139 41.1145C34.1252 41.1419 34.2239 41.2062 34.294 41.2969C34.3641 41.3876 34.4015 41.4994 34.4001 41.614Z" fill="#CF2432"/>
<path d="M36.5542 40.3845C36.5631 40.4244 36.5666 40.4653 36.5647 40.5062C36.5603 40.6411 36.5027 40.7688 36.4043 40.8612C36.3059 40.9537 36.175 41.0034 36.04 40.9994C34.8353 40.9616 34.233 40.4516 33.9413 40.0298C33.6495 39.6079 33.3578 38.8083 33.7692 37.5574C33.7875 37.4908 33.8193 37.4286 33.8624 37.3747C33.9055 37.3207 33.9592 37.2761 34.0201 37.2435C34.081 37.2109 34.1479 37.191 34.2167 37.185C34.2855 37.179 34.3549 37.1871 34.4205 37.2087C34.4861 37.2304 34.5466 37.2651 34.5984 37.3109C34.6502 37.3566 34.6921 37.4124 34.7217 37.4748C34.7513 37.5372 34.7678 37.605 34.7704 37.6741C34.773 37.7431 34.7615 37.812 34.7367 37.8764C34.5835 38.3445 34.4639 38.9993 34.7787 39.4463C35.0683 39.8661 35.6455 39.9668 36.0757 39.9815C36.189 39.9856 36.2977 40.0275 36.3844 40.1006C36.4711 40.1736 36.5309 40.2735 36.5542 40.3845Z" fill="#CF2432"/>
<path d="M38.4416 38.7035C38.4551 38.7422 38.4642 38.7823 38.4688 38.8231C38.483 38.9572 38.4434 39.0914 38.3589 39.1964C38.2743 39.3014 38.1516 39.3687 38.0176 39.3835C36.8192 39.5136 36.1497 39.0938 35.8013 38.7182C35.4529 38.3425 35.05 37.589 35.2829 36.2941C35.2926 36.2262 35.3158 36.161 35.3513 36.1023C35.3867 36.0436 35.4336 35.9927 35.4891 35.9526C35.5447 35.9124 35.6078 35.8839 35.6746 35.8687C35.7415 35.8535 35.8107 35.8519 35.8781 35.864C35.9456 35.8762 36.0099 35.9018 36.0673 35.9393C36.1246 35.9769 36.1738 36.0256 36.2119 36.0826C36.2499 36.1396 36.2761 36.2037 36.2889 36.271C36.3017 36.3384 36.3007 36.4076 36.2861 36.4746C36.2001 36.9594 36.1728 37.6226 36.5464 38.0235C36.92 38.4243 37.4782 38.418 37.9064 38.3698C38.02 38.3577 38.1344 38.384 38.2314 38.4444C38.3284 38.5049 38.4024 38.5961 38.4416 38.7035Z" fill="#CF2432"/>
<path d="M39.7778 37.0895C39.792 37.1289 39.8019 37.1697 39.8072 37.2113C39.8213 37.3457 39.7815 37.4802 39.6965 37.5853C39.6115 37.6903 39.4882 37.7574 39.3539 37.7716C38.1576 37.9018 37.488 37.482 37.1376 37.1063C36.7871 36.7306 36.3883 35.9772 36.6213 34.6823C36.6309 34.6144 36.6542 34.5492 36.6896 34.4905C36.725 34.4318 36.7719 34.3809 36.8275 34.3407C36.883 34.3006 36.9461 34.2721 37.013 34.2569C37.0798 34.2416 37.149 34.2401 37.2165 34.2522C37.2839 34.2643 37.3483 34.2899 37.4056 34.3275C37.4629 34.3651 37.5121 34.4138 37.5502 34.4708C37.5883 34.5278 37.6145 34.5919 37.6272 34.6592C37.64 34.7265 37.6391 34.7958 37.6245 34.8627C37.5363 35.3476 37.5111 36.0108 37.8847 36.4095C38.2583 36.8083 38.8145 36.8041 39.2447 36.7579C39.3578 36.7458 39.4717 36.7719 39.5683 36.832C39.6649 36.8921 39.7387 36.9827 39.7778 37.0895Z" fill="#CF2432"/>
<path d="M41.021 35.5759C41.0352 35.6146 41.045 35.6547 41.0503 35.6955C41.0645 35.8302 41.0247 35.9649 40.9398 36.0703C40.8548 36.1757 40.7316 36.2432 40.597 36.258C39.4007 36.386 38.7312 35.9663 38.3807 35.5906C38.0302 35.2149 37.6315 34.4615 37.8644 33.1665C37.8925 33.0375 37.9696 32.9245 38.0794 32.8511C38.1891 32.7777 38.3231 32.7498 38.453 32.7732C38.583 32.7966 38.6988 32.8694 38.7761 32.9765C38.8534 33.0835 38.8862 33.2163 38.8676 33.347C38.7795 33.8339 38.7543 34.4972 39.1258 34.8959C39.4973 35.2947 40.0576 35.2905 40.4879 35.2443C40.6011 35.2315 40.7153 35.2572 40.8121 35.3174C40.9089 35.3776 40.9825 35.4687 41.021 35.5759Z" fill="#CF2432"/>
<path d="M42.3238 33.9811C42.3371 34.0206 42.3462 34.0614 42.3511 34.1028C42.3583 34.1692 42.3524 34.2364 42.3337 34.3006C42.3149 34.3648 42.2837 34.4246 42.2418 34.4766C42.1998 34.5287 42.1481 34.572 42.0894 34.604C42.0307 34.636 41.9663 34.6561 41.8998 34.6632C40.7014 34.7933 40.034 34.3735 39.6835 33.9978C39.333 33.6222 38.9343 32.8687 39.1651 31.5738C39.1891 31.4405 39.265 31.3221 39.3762 31.2448C39.4873 31.1674 39.6247 31.1374 39.758 31.1614C39.8913 31.1853 40.0097 31.2612 40.087 31.3724C40.1644 31.4836 40.1944 31.6209 40.1704 31.7543C40.0823 32.2391 40.0571 32.9023 40.4286 33.3032C40.8001 33.704 41.3604 33.6977 41.7907 33.6494C41.9038 33.6373 42.0177 33.6634 42.1143 33.7235C42.2109 33.7836 42.2846 33.8742 42.3238 33.9811Z" fill="#CF2432"/>
<path d="M43.6021 32.4485C43.6156 32.4872 43.6248 32.5273 43.6294 32.5681C43.6441 32.7025 43.6048 32.8373 43.5202 32.9428C43.4356 33.0483 43.3126 33.1158 43.1781 33.1306C41.9797 33.2607 41.3123 32.8389 40.9618 32.4632C40.6113 32.0875 40.2126 31.3361 40.4434 30.0391C40.4674 29.9058 40.5433 29.7874 40.6545 29.7101C40.7657 29.6328 40.903 29.6028 41.0363 29.6267C41.1697 29.6506 41.288 29.7265 41.3653 29.8377C41.4427 29.9489 41.4727 30.0863 41.4487 30.2196C41.3606 30.7065 41.3354 31.3697 41.7069 31.7685C42.0784 32.1673 42.6388 32.1631 43.069 32.1169C43.1822 32.104 43.2965 32.1298 43.3932 32.19C43.49 32.2502 43.5636 32.3412 43.6021 32.4485Z" fill="#CF2432"/>
<path d="M44.8658 30.8688C44.8793 30.9076 44.8885 30.9477 44.8931 30.9885C44.9078 31.1229 44.8686 31.2577 44.784 31.3631C44.6993 31.4686 44.5763 31.5362 44.4419 31.5509C43.2435 31.6811 42.574 31.2613 42.2235 30.8856C41.873 30.5099 41.4742 29.7565 41.7072 28.4615C41.7169 28.3937 41.7401 28.3285 41.7755 28.2698C41.811 28.2111 41.8579 28.1602 41.9134 28.12C41.969 28.0799 42.0321 28.0514 42.0989 28.0362C42.1657 28.0209 42.2349 28.0194 42.3024 28.0315C42.3699 28.0436 42.4342 28.0692 42.4915 28.1068C42.5489 28.1444 42.5981 28.1931 42.6361 28.2501C42.6742 28.3071 42.7004 28.3712 42.7132 28.4385C42.7259 28.5058 42.725 28.5751 42.7104 28.642C42.6244 29.1269 42.5971 29.7901 42.9706 30.1888C43.3442 30.5876 43.9025 30.5834 44.3307 30.5372C44.444 30.5254 44.5581 30.5515 44.6549 30.6115C44.7518 30.6716 44.826 30.7621 44.8658 30.8688Z" fill="#CF2432"/>
<path d="M46.1832 29.3216C46.1967 29.3603 46.2059 29.4005 46.2105 29.4412C46.2247 29.5755 46.1852 29.71 46.1007 29.8153C46.0162 29.9207 45.8935 29.9884 45.7593 30.0037C44.5609 30.1338 43.8914 29.712 43.5409 29.3363C43.1904 28.9606 42.7916 28.2092 43.0246 26.9143C43.0335 26.846 43.0563 26.7802 43.0914 26.7209C43.1265 26.6615 43.1733 26.61 43.2289 26.5692C43.2845 26.5285 43.3478 26.4995 43.4149 26.4839C43.4821 26.4683 43.5517 26.4665 43.6195 26.4786C43.6874 26.4906 43.7521 26.5163 43.8097 26.5541C43.8674 26.5919 43.9168 26.641 43.9549 26.6984C43.9931 26.7558 44.0192 26.8203 44.0317 26.8881C44.0443 26.9558 44.0429 27.0255 44.0278 27.0927C43.9417 27.5796 43.9144 28.2428 44.288 28.6416C44.6616 29.0404 45.2199 29.0362 45.648 28.99C45.7614 28.9778 45.8757 29.0038 45.9726 29.0638C46.0696 29.1239 46.1437 29.2146 46.1832 29.3216Z" fill="#CF2432"/>
<path d="M47.4145 27.7562C47.429 27.7946 47.4382 27.8349 47.4418 27.8758C47.4565 28.0102 47.4173 28.145 47.3326 28.2505C47.248 28.3559 47.125 28.4235 46.9906 28.4383C45.7943 28.5684 45.1248 28.1465 44.7743 27.7709C44.4238 27.3952 44.025 26.6438 44.258 25.3489C44.2669 25.2805 44.2897 25.2147 44.3248 25.1554C44.3599 25.0961 44.4067 25.0445 44.4623 25.0038C44.5179 24.9631 44.5812 24.9341 44.6483 24.9185C44.7155 24.9029 44.7851 24.9011 44.8529 24.9131C44.9208 24.9252 44.9855 24.9509 45.0431 24.9887C45.1008 25.0265 45.1502 25.0755 45.1883 25.1329C45.2265 25.1903 45.2526 25.2549 45.2652 25.3226C45.2777 25.3904 45.2763 25.46 45.2612 25.5273C45.173 26.0142 45.1479 26.6774 45.5193 27.0762C45.8908 27.4749 46.4512 27.4707 46.8814 27.4246C46.9946 27.4121 47.1087 27.438 47.2053 27.4981C47.302 27.5583 47.3757 27.6491 47.4145 27.7562Z" fill="#CF2432"/>
<path d="M48.9412 26.7444C48.9465 26.7848 48.9465 26.8257 48.9412 26.8661C48.9362 26.9329 48.918 26.9981 48.8878 27.058C48.8575 27.1178 48.8157 27.1711 48.7648 27.2147C48.714 27.2584 48.655 27.2916 48.5913 27.3124C48.5275 27.3333 48.4603 27.3414 48.3935 27.3362C47.193 27.2439 46.6137 26.7066 46.3388 26.2742C46.0638 25.8419 45.8078 25.0255 46.2758 23.7956C46.2984 23.7314 46.3337 23.6724 46.3794 23.622C46.4252 23.5717 46.4806 23.531 46.5424 23.5024C46.6041 23.4737 46.671 23.4578 46.739 23.4554C46.807 23.453 46.8748 23.4643 46.9384 23.4885C47.002 23.5127 47.0601 23.5495 47.1093 23.5965C47.1585 23.6435 47.1978 23.6999 47.2248 23.7624C47.2519 23.8249 47.2661 23.8921 47.2668 23.9602C47.2675 24.0282 47.2545 24.0957 47.2287 24.1587C47.0524 24.6183 46.9054 25.2668 47.1993 25.7265C47.4931 26.1861 48.0388 26.2868 48.4732 26.3204C48.5875 26.3282 48.6958 26.3743 48.7807 26.4512C48.8657 26.5281 48.9222 26.6314 48.9412 26.7444Z" fill="#CF2432"/>
<path d="M50.7284 25.6678C50.7337 25.7082 50.7337 25.7491 50.7284 25.7895C50.7233 25.8564 50.7051 25.9216 50.6749 25.9814C50.6446 26.0412 50.6028 26.0945 50.5519 26.1382C50.5011 26.1818 50.4421 26.2151 50.3784 26.2359C50.3146 26.2567 50.2474 26.2648 50.1806 26.2597C48.9801 26.1673 48.4008 25.63 48.1259 25.1956C47.8509 24.7611 47.5949 23.9489 48.0629 22.719C48.0844 22.6535 48.1189 22.593 48.1644 22.5412C48.2098 22.4894 48.2654 22.4474 48.3275 22.4176C48.3897 22.3879 48.4573 22.371 48.5262 22.3681C48.5951 22.3652 48.6638 22.3763 48.7283 22.4008C48.7928 22.4252 48.8516 22.4624 48.9013 22.5102C48.951 22.558 48.9904 22.6154 49.0173 22.6789C49.0442 22.7424 49.0579 22.8107 49.0576 22.8796C49.0574 22.9486 49.0431 23.0167 49.0158 23.08C48.8416 23.5418 48.6926 24.1903 48.9864 24.6499C49.2802 25.1095 49.8259 25.2103 50.2603 25.2418C50.3747 25.2504 50.4829 25.297 50.5677 25.3742C50.6525 25.4514 50.709 25.5548 50.7284 25.6678Z" fill="#CF2432"/>
</g>
<defs>
<radialGradient id="paint0_radial_119_14" cx="0" cy="0" r="1" gradientUnits="userSpaceOnUse" gradientTransform="translate(25.4254 24.7816) rotate(70.1148) scale(30.8605 30.8605)">
<stop stop-color="#FFDF75"/>
<stop offset="1" stop-color="#E2A45F"/>
</radialGradient>
<clipPath id="clip0_119_14">
<rect width="52" height="52" fill="white"/>
</clipPath>
</defs>
</svg>
