<svg width="49" height="38" viewBox="0 0 49 38" fill="none" xmlns="http://www.w3.org/2000/svg">
<g filter="url(#filter0_d_735_3052)">
<g clip-path="url(#clip0_735_3052)">
<path fill-rule="evenodd" clip-rule="evenodd" d="M4 2V32.75H45V2H4Z" fill="#FFB400"/>
<mask id="mask0_735_3052" style="mask-type:alpha" maskUnits="userSpaceOnUse" x="4" y="2" width="41" height="31">
<path fill-rule="evenodd" clip-rule="evenodd" d="M4 2V32.75H45V2H4Z" fill="white"/>
</mask>
<g mask="url(#mask0_735_3052)">
<path fill-rule="evenodd" clip-rule="evenodd" d="M4 2V9.6875H45V2H4Z" fill="#C51918"/>
<path fill-rule="evenodd" clip-rule="evenodd" d="M4 25.0605V32.748H45V25.0605H4Z" fill="#C51918"/>
<rect x="10.4141" y="15.1641" width="1.435" height="7.462" fill="#F1F9FF"/>
<path fill-rule="evenodd" clip-rule="evenodd" d="M12.4228 13.8691H9.83984V14.5866H10.2703V15.1606H11.9923V14.5866H12.4228V13.8691Z" fill="#C88A02"/>
<path fill-rule="evenodd" clip-rule="evenodd" d="M11.9923 23.0545H12.4228V23.772H9.83984V23.0545H10.2703V22.4805H11.9923V23.0545Z" fill="#C88A02"/>
<path fill-rule="evenodd" clip-rule="evenodd" d="M11.1295 14.014C11.4418 14.014 11.4735 13.8965 11.6578 13.7208C11.8008 13.5845 12.134 13.4153 12.134 13.2248C12.134 12.7889 11.6843 12.4355 11.1295 12.4355C10.5747 12.4355 10.125 12.7889 10.125 13.2248C10.125 13.4371 10.3544 13.579 10.5279 13.7208C10.7107 13.8703 10.8449 14.014 11.1295 14.014Z" fill="#AD1619"/>
<path fill-rule="evenodd" clip-rule="evenodd" d="M9.83984 23.7715H12.4228V24.9195C12.4228 24.9195 12.1 24.776 11.7771 24.776C11.4542 24.776 11.1313 24.9195 11.1313 24.9195C11.1313 24.9195 10.8085 24.776 10.4856 24.776C10.1627 24.776 9.83984 24.9195 9.83984 24.9195V23.7715Z" fill="#005BBF"/>
<mask id="mask1_735_3052" style="mask-type:alpha" maskUnits="userSpaceOnUse" x="9" y="23" width="4" height="2">
<path fill-rule="evenodd" clip-rule="evenodd" d="M9.83984 23.7715H12.4228V24.9195C12.4228 24.9195 12.1 24.776 11.7771 24.776C11.4542 24.776 11.1313 24.9195 11.1313 24.9195C11.1313 24.9195 10.8085 24.776 10.4856 24.776C10.1627 24.776 9.83984 24.9195 9.83984 24.9195V23.7715Z" fill="white"/>
</mask>
<g mask="url(#mask1_735_3052)">
<path d="M9.8181 24.6933L9.76172 24.5559C9.99437 24.4523 10.2278 24.4004 10.4617 24.4004C10.6127 24.4004 10.6916 24.4215 10.8257 24.4811C10.9435 24.5336 11.0046 24.5499 11.1334 24.5499C11.2623 24.5499 11.3233 24.5336 11.4411 24.4811C11.5752 24.4215 11.6541 24.4004 11.8052 24.4004C12.039 24.4004 12.2725 24.4523 12.5051 24.5559L12.4488 24.6933C12.2336 24.5976 12.0192 24.5499 11.8052 24.5499C11.6764 24.5499 11.6153 24.5662 11.4975 24.6186C11.3634 24.6783 11.2845 24.6993 11.1334 24.6993C10.9824 24.6993 10.9035 24.6783 10.7694 24.6186C10.6516 24.5662 10.5905 24.5499 10.4617 24.5499C10.2477 24.5499 10.0333 24.5976 9.8181 24.6933Z" fill="white"/>
<path d="M9.8181 24.2637L9.76172 24.1262C9.99437 24.0227 10.2278 23.9707 10.4617 23.9707C10.6127 23.9707 10.6916 23.9918 10.8257 24.0515C10.9435 24.1039 11.0046 24.1202 11.1334 24.1202C11.2623 24.1202 11.3233 24.1039 11.4411 24.0515C11.5752 23.9918 11.6541 23.9707 11.8052 23.9707C12.039 23.9707 12.2725 24.0227 12.5051 24.1262L12.4488 24.2637C12.2336 24.1679 12.0192 24.1202 11.8052 24.1202C11.6764 24.1202 11.6153 24.1365 11.4975 24.1889C11.3634 24.2486 11.2845 24.2697 11.1334 24.2697C10.9824 24.2697 10.9035 24.2486 10.7694 24.1889C10.6516 24.1365 10.5905 24.1202 10.4617 24.1202C10.2477 24.1202 10.0333 24.1679 9.8181 24.2637Z" fill="white"/>
</g>
<rect x="24.4805" y="15.1641" width="1.435" height="7.462" fill="#F1F9FF"/>
<path fill-rule="evenodd" clip-rule="evenodd" d="M26.4853 13.8691H23.9023V14.5866H24.3328V15.1606H26.0548V14.5866H26.4853V13.8691Z" fill="#C88A02"/>
<path fill-rule="evenodd" clip-rule="evenodd" d="M26.0548 23.0545H26.4853V23.772H23.9023V23.0545H24.3328V22.4805H26.0548V23.0545Z" fill="#C88A02"/>
<path fill-rule="evenodd" clip-rule="evenodd" d="M25.192 14.014C25.5043 14.014 25.536 13.8965 25.7203 13.7208C25.8633 13.5845 26.1965 13.4153 26.1965 13.2248C26.1965 12.7889 25.7468 12.4355 25.192 12.4355C24.6372 12.4355 24.1875 12.7889 24.1875 13.2248C24.1875 13.4371 24.4169 13.579 24.5904 13.7208C24.7732 13.8703 24.9074 14.014 25.192 14.014Z" fill="#AD1619"/>
<path fill-rule="evenodd" clip-rule="evenodd" d="M23.9023 23.7715H26.4853V24.9195C26.4853 24.9195 26.1625 24.776 25.8396 24.776C25.5167 24.776 25.1938 24.9195 25.1938 24.9195C25.1938 24.9195 24.871 24.776 24.5481 24.776C24.2252 24.776 23.9023 24.9195 23.9023 24.9195V23.7715Z" fill="#005BBF"/>
<mask id="mask2_735_3052" style="mask-type:alpha" maskUnits="userSpaceOnUse" x="23" y="23" width="4" height="2">
<path fill-rule="evenodd" clip-rule="evenodd" d="M23.9023 23.7715H26.4853V24.9195C26.4853 24.9195 26.1625 24.776 25.8396 24.776C25.5167 24.776 25.1938 24.9195 25.1938 24.9195C25.1938 24.9195 24.871 24.776 24.5481 24.776C24.2252 24.776 23.9023 24.9195 23.9023 24.9195V23.7715Z" fill="white"/>
</mask>
<g mask="url(#mask2_735_3052)">
<path d="M23.8806 24.6933L23.8242 24.5559C24.0569 24.4523 24.2903 24.4004 24.5242 24.4004C24.6752 24.4004 24.7541 24.4215 24.8882 24.4811C25.006 24.5336 25.0671 24.5499 25.1959 24.5499C25.3248 24.5499 25.3858 24.5336 25.5036 24.4811C25.6377 24.4215 25.7166 24.4004 25.8677 24.4004C26.1015 24.4004 26.335 24.4523 26.5676 24.5559L26.5113 24.6933C26.2961 24.5976 26.0817 24.5499 25.8677 24.5499C25.7389 24.5499 25.6778 24.5662 25.56 24.6186C25.4259 24.6783 25.347 24.6993 25.1959 24.6993C25.0449 24.6993 24.966 24.6783 24.8319 24.6186C24.7141 24.5662 24.653 24.5499 24.5242 24.5499C24.3102 24.5499 24.0958 24.5976 23.8806 24.6933Z" fill="white"/>
<path d="M23.8806 24.2637L23.8242 24.1262C24.0569 24.0227 24.2903 23.9707 24.5242 23.9707C24.6752 23.9707 24.7541 23.9918 24.8882 24.0515C25.006 24.1039 25.0671 24.1202 25.1959 24.1202C25.3248 24.1202 25.3858 24.1039 25.5036 24.0515C25.6377 23.9918 25.7166 23.9707 25.8677 23.9707C26.1015 23.9707 26.335 24.0227 26.5676 24.1262L26.5113 24.2637C26.2961 24.1679 26.0817 24.1202 25.8677 24.1202C25.7389 24.1202 25.6778 24.1365 25.56 24.1889C25.4259 24.2486 25.347 24.2697 25.1959 24.2697C25.0449 24.2697 24.966 24.2486 24.8319 24.1889C24.7141 24.1365 24.653 24.1202 24.5242 24.1202C24.3102 24.1202 24.0958 24.1679 23.8806 24.2637Z" fill="white"/>
</g>
<path fill-rule="evenodd" clip-rule="evenodd" d="M10.386 22.0899C10.6447 21.7762 10.7894 21.4909 10.7894 21.1878C10.7894 20.9967 10.7325 20.8317 10.6329 20.6969L10.6497 20.6893C10.6482 20.69 10.9336 20.5656 11.0329 20.518C11.2176 20.4294 11.3803 20.3356 11.539 20.2202C11.6403 20.1466 11.776 20.0663 11.9828 19.9553C12.0185 19.9361 12.1151 19.8848 12.1769 19.852L12.1773 19.8518L12.1774 19.8518L12.2297 19.824C12.3303 19.7703 12.4052 19.7292 12.4747 19.6889C12.6915 19.5631 12.8347 19.4592 12.9442 19.3203C13.2037 18.9913 13.1499 18.5452 12.7862 18.2977C12.6081 18.1764 12.3677 18.1068 12.0153 18.052L11.9423 18.0407L11.9421 18.0407L11.9414 18.0406C11.8207 18.0219 11.5905 17.9863 11.5113 17.9739C11.3427 17.9474 11.1922 17.9227 11.0581 17.8993C11.9403 17.7525 13.2001 17.8064 13.7542 18.0925L14.2809 17.0725C13.1517 16.4894 10.5787 16.549 9.61764 17.2109C8.9127 17.6963 9.0073 18.4302 9.74075 18.7462C10.0472 18.8782 10.4468 18.9659 11.1861 19.0846C11.0622 19.1565 10.9595 19.2222 10.8638 19.2918C10.7667 19.3624 10.6627 19.4223 10.5366 19.4828C10.4763 19.5117 10.2976 19.5902 10.2157 19.6261L10.1746 19.6442C9.57713 19.9159 9.28719 20.2917 9.37383 20.9701L9.42073 21.3373L9.50486 21.3631L10.386 22.0899ZM9.64871 21.1419L9.64689 21.1472L9.64828 21.1434L9.64871 21.1419ZM25.4031 21.1881C25.4031 21.4912 25.5478 21.7766 25.8065 22.0902L26.6876 21.3635L26.7718 21.3376L26.8187 20.9704C26.9053 20.292 26.6154 19.9162 26.018 19.6446L25.9768 19.6264L25.9767 19.6264C25.8948 19.5904 25.7162 19.512 25.6559 19.4831C25.5298 19.4226 25.4258 19.3627 25.3287 19.2921C25.233 19.2225 25.1303 19.1568 25.0064 19.085C25.7458 18.9662 26.1453 18.8786 26.4518 18.7465C27.1852 18.4305 27.2798 17.6967 26.5749 17.2112C25.6138 16.5493 23.0408 16.4898 21.9116 17.0728L22.4383 18.0928C22.9924 17.8067 24.2522 17.7528 25.1344 17.8996C25.0003 17.923 24.8498 17.9477 24.6812 17.9742C24.6018 17.9867 24.371 18.0224 24.2505 18.041L24.2503 18.041L24.1772 18.0523C23.8248 18.1071 23.5844 18.1767 23.4063 18.298C23.0427 18.5456 22.9888 18.9916 23.2483 19.3206C23.3578 19.4596 23.5011 19.5635 23.7178 19.6892C23.7874 19.7295 23.8622 19.7707 23.9628 19.8243L24.015 19.8521C24.0768 19.8848 24.1739 19.9364 24.2097 19.9556C24.4165 20.0667 24.5522 20.1469 24.6535 20.2205C24.8122 20.3359 24.9749 20.4297 25.1596 20.5183C25.2589 20.5659 25.5443 20.6903 25.5428 20.6896L25.5596 20.6972C25.46 20.832 25.4031 20.9971 25.4031 21.1881Z" fill="#AD1619"/>
<path d="M11.5869 17.8887L12.0104 17.9763V18.6076C11.5593 18.9676 10.4141 19.5742 10.4141 19.5742V17.8887H11.5869Z" fill="#F1F9FF"/>
<path d="M24.9014 17.8887L24.4779 17.9763V18.6076C24.929 18.9676 26.0742 19.5742 26.0742 19.5742V17.8887H24.9014Z" fill="#F1F9FF"/>
<path fill-rule="evenodd" clip-rule="evenodd" d="M22.9301 11.2314V11.0213C22.192 10.4916 21.4191 10.2267 20.6113 10.2267C19.8358 9.88356 19.0508 9.75064 18.2564 9.82798C18.2566 9.82539 18.2567 9.82407 18.2567 9.82407C17.0639 9.70735 15.8618 10.2268 15.8618 10.2268C14.6501 10.2268 13.543 11.0214 13.543 11.0214V11.2315L14.9903 12.6851C14.9903 12.6851 15.398 14.0853 18.2541 13.7551V13.7589C18.2541 13.7589 20.1431 13.7073 20.2759 13.6632C20.3285 13.6457 20.3831 13.6297 20.439 13.6134C20.809 13.5054 21.2313 13.3821 21.4828 12.685L22.9301 11.2314ZM18.2541 9.8539C18.2248 10.1922 17.9638 13.3027 18.2541 13.7508V9.8539Z" fill="#AD1619"/>
<path fill-rule="evenodd" clip-rule="evenodd" d="M14.6453 12.4437L14.646 12.4403L13.6289 11.4834L13.7272 11.3788L14.6816 12.2767L14.7062 12.1633C14.8626 12.1973 14.9768 12.2098 15.0434 12.2027V12.0077L15.2552 12.1223C15.3594 12.1787 15.5086 12.1939 15.7051 12.1619C15.8494 12.1384 15.9468 11.9708 15.9786 11.6136L16.0429 10.8926L16.2585 11.5836C16.3561 11.8963 16.505 12.0342 16.7169 12.0342C16.9239 12.0342 17.0071 11.9583 17.0163 11.767L17.0423 11.2246L17.2876 11.7091C17.376 11.8836 17.4979 11.9628 17.6712 11.9628C17.919 11.9628 18.0846 11.7562 18.0846 11.432H18.0893H18.3716H18.3763C18.3763 11.7562 18.5419 11.9628 18.7897 11.9628C18.963 11.9628 19.0849 11.8836 19.1733 11.7091L19.4186 11.2246L19.4446 11.767C19.4538 11.9583 19.537 12.0342 19.744 12.0342C19.9559 12.0342 20.1048 11.8963 20.2024 11.5836L20.418 10.8926L20.4823 11.6136C20.5141 11.9708 20.6115 12.1384 20.7558 12.1619C20.9523 12.1939 21.1015 12.1787 21.2057 12.1223L21.4175 12.0077V12.2027C21.4841 12.2098 21.5983 12.1973 21.7546 12.1633L21.801 12.3763L22.8612 11.3788L22.9595 11.4834L21.6433 12.7217C21.4513 13.0754 21.3546 13.3088 21.3546 13.4058C21.3546 13.5537 20.9697 13.6415 20.2185 13.7317C19.6292 13.8024 18.9335 13.8499 18.3649 13.8569V13.8578L18.2942 13.8575L18.2235 13.8578V13.8569C17.6549 13.8499 16.9593 13.8024 16.3699 13.7317C15.6187 13.6415 15.2339 13.5537 15.2339 13.4058C15.2339 13.3871 15.2303 13.3634 15.2231 13.3347C15.1476 13.2386 15.0944 13.0814 15.059 12.9394C15.0258 12.8729 14.9878 12.8003 14.9451 12.7217L14.651 12.445L14.6453 12.4437ZM21.7061 12.4656C21.4675 12.5085 21.2953 12.505 21.2044 12.4309C21.0636 12.4719 20.8983 12.4759 20.7097 12.4452C20.5083 12.4124 20.368 12.2784 20.2836 12.0561C20.1734 12.1964 20.0342 12.283 19.8675 12.3111C20.7879 12.4414 21.433 12.625 21.433 12.625C21.433 12.625 21.4172 12.7606 21.3787 12.9203C21.4193 12.8371 21.4673 12.7448 21.5227 12.643L21.5366 12.6251L21.7061 12.4656ZM19.4338 12.2566C19.3539 12.217 19.2901 12.1594 19.244 12.0853C19.1754 12.1458 19.0974 12.1901 19.0108 12.2173C19.1553 12.2283 19.2966 12.2416 19.4338 12.2566ZM18.5054 12.1897C18.3932 12.138 18.3 12.0552 18.2304 11.9489C18.1613 12.0545 18.0688 12.137 17.9575 12.1887C18.0249 12.1867 18.0928 12.1853 18.1609 12.1846V12.184L18.2165 12.1841L18.2721 12.184V12.1846C18.3503 12.1854 18.4281 12.1871 18.5054 12.1897ZM15.04 12.614L14.9053 12.4872C15.0666 12.5034 15.186 12.4883 15.2565 12.4309C15.3973 12.4719 15.5625 12.4759 15.7512 12.4452C15.9526 12.4124 16.0929 12.2784 16.1773 12.0561C16.2847 12.1929 16.4198 12.2787 16.581 12.3089C15.7871 12.4204 15.1951 12.5722 15.04 12.614ZM17.4448 12.2156C17.3048 12.226 17.1679 12.2386 17.0347 12.2528C17.111 12.2133 17.1722 12.1571 17.2169 12.0853C17.2841 12.1446 17.3603 12.1882 17.4448 12.2156ZM20.9781 13.407C21.0783 13.4539 21.1586 13.4075 21.2222 13.3182C21.2166 13.3432 21.2132 13.3659 21.2118 13.3861C21.2034 13.3916 21.1904 13.3983 21.1735 13.4054C21.1262 13.4253 21.0541 13.4464 20.9601 13.4678C20.7756 13.51 20.5128 13.5518 20.2014 13.5892C19.5929 13.6623 18.8692 13.7103 18.2942 13.714C17.7192 13.7103 16.9955 13.6623 16.387 13.5892C16.0756 13.5518 15.8129 13.51 15.6283 13.4678C15.5483 13.4496 15.484 13.4315 15.4375 13.4143C15.4432 13.4122 15.449 13.4098 15.4548 13.407C15.7689 13.2601 17.8485 13.1222 18.2165 13.0988C18.5845 13.1222 20.6641 13.2601 20.9781 13.407ZM21.3732 13.3797C21.3727 13.3801 21.3721 13.3808 21.3713 13.3818L21.3723 13.3804L21.3732 13.3797Z" fill="#C88A02"/>
<path fill-rule="evenodd" clip-rule="evenodd" d="M18.2352 8.85123C18.4729 8.85123 18.6657 8.65849 18.6657 8.42073C18.6657 8.18298 18.4729 7.99023 18.2352 7.99023C17.9974 7.99023 17.8047 8.18298 17.8047 8.42073C17.8047 8.65849 17.9974 8.85123 18.2352 8.85123Z" fill="#005BBF"/>
<path fill-rule="evenodd" clip-rule="evenodd" d="M17.9537 10.966C17.9628 11.0129 17.9771 11.0567 17.995 11.0957C17.9392 11.0742 17.8729 11.0618 17.8017 11.0618C17.6036 11.0618 17.4429 11.1581 17.4429 11.277C17.4429 11.3959 17.6036 11.4923 17.8017 11.4923C17.9998 11.4923 18.1604 11.3959 18.1604 11.277L18.1603 11.2711L18.1644 11.2725L18.1644 11.277C18.1644 11.3959 18.325 11.4923 18.5231 11.4923C18.7212 11.4923 18.8819 11.3959 18.8819 11.277C18.8819 11.1581 18.7212 11.0618 18.5231 11.0618C18.4722 11.0618 18.4238 11.0681 18.38 11.0796C18.3903 11.0208 18.3898 10.9535 18.3763 10.8838C18.3385 10.6893 18.2132 10.55 18.0965 10.5727C17.9798 10.5954 17.9159 10.7715 17.9537 10.966ZM15.8427 11.2372C15.8248 11.1981 15.8105 11.1544 15.8014 11.1075C15.7636 10.913 15.8275 10.7369 15.9442 10.7142C16.0609 10.6915 16.1862 10.8308 16.224 11.0253C16.2375 11.0946 16.238 11.1615 16.2279 11.22C16.2706 11.2092 16.3176 11.2033 16.3668 11.2033C16.5649 11.2033 16.7256 11.2996 16.7256 11.4185C16.7256 11.5374 16.5649 11.6338 16.3668 11.6338C16.1703 11.6338 16.0107 11.539 16.0081 11.4214C16.0055 11.539 15.8459 11.6338 15.6494 11.6338C15.4513 11.6338 15.2906 11.5374 15.2906 11.4185C15.2906 11.2996 15.4513 11.2033 15.6494 11.2033C15.7206 11.2033 15.7869 11.2157 15.8427 11.2372ZM16.008 11.4126L16.0081 11.4156L16.0082 11.4127L16.008 11.4126ZM19.9504 11.532C20.1404 11.5587 20.3082 11.491 20.3336 11.3798C20.3256 11.4944 20.4687 11.6068 20.6598 11.6337C20.856 11.6612 21.0285 11.5882 21.045 11.4704C21.0616 11.3527 20.9159 11.2349 20.7197 11.2074C20.672 11.2006 20.6257 11.1999 20.5827 11.2043C20.6012 11.1475 20.6102 11.0806 20.6065 11.0095C20.5961 10.8116 20.4914 10.6563 20.3727 10.6625C20.254 10.6687 20.1662 10.8342 20.1765 11.032C20.1791 11.0804 20.1873 11.1262 20.1999 11.1678C20.1471 11.138 20.0821 11.1158 20.0103 11.1057C19.8141 11.0781 19.6416 11.1512 19.6251 11.2689C19.6085 11.3867 19.7542 11.5045 19.9504 11.532ZM21.7028 11.9371C21.8777 12.0301 22.0648 12.0205 22.1206 11.9155L22.1244 11.9076C22.1424 11.9278 22.164 11.9424 22.1888 11.95C22.3025 11.9848 22.4417 11.8594 22.4996 11.6699C22.5575 11.4804 22.5123 11.2986 22.3986 11.2639C22.2849 11.2291 22.1458 11.3546 22.0879 11.544C22.0735 11.5912 22.0654 11.6379 22.0633 11.6819C22.0237 11.6352 21.9697 11.5915 21.9049 11.557C21.7299 11.464 21.5429 11.4737 21.4871 11.5787C21.4312 11.6836 21.5278 11.8441 21.7028 11.9371ZM14.6618 11.983C14.4869 12.076 14.2998 12.0663 14.244 11.9613C14.2427 11.9588 14.2414 11.9562 14.2402 11.9537C14.2231 11.9717 14.2028 11.9848 14.1797 11.9919C14.066 12.0266 13.9269 11.9012 13.869 11.7117C13.8111 11.5223 13.8563 11.3405 13.9699 11.3057C14.0836 11.271 14.2227 11.3964 14.2807 11.5859C14.295 11.6328 14.303 11.6793 14.3053 11.7232C14.3444 11.6782 14.397 11.6362 14.4597 11.6029C14.6347 11.5098 14.8217 11.5195 14.8775 11.6245C14.9333 11.7295 14.8368 11.8899 14.6618 11.983Z" fill="#C88A02"/>
<path fill-rule="evenodd" clip-rule="evenodd" d="M18.0704 7.22266H18.3693V7.40999H18.5638V7.70894H18.3693V8.30877H18.5638V8.60773H17.8711V8.30877H18.0704V7.70894H17.8711V7.40999H18.0704V7.22266Z" fill="#C88A02"/>
<rect x="18.0195" y="8.8457" width="0.574" height="1.8655" fill="#C88A02"/>
<path d="M15.7082 9.15808L15.7057 9.30156C14.4333 9.27934 13.7035 9.46503 13.5182 9.83512C13.3266 10.2177 13.3623 10.6829 13.6306 11.2354L13.5016 11.2981C13.2152 10.7086 13.1761 10.1979 13.3899 9.77088C13.6099 9.33136 14.382 9.13492 15.7082 9.15808Z" fill="white"/>
<path d="M15.9542 10.431L15.8806 10.5542C15.6035 10.3888 15.4648 10.1064 15.4648 9.7173C15.4648 9.15806 15.7529 8.83012 16.3902 8.60569C16.7969 8.46246 17.3524 8.52119 18.0584 8.77716L18.0095 8.91206C17.3318 8.66634 16.8073 8.61091 16.4378 8.74105C15.8533 8.94689 15.6083 9.22579 15.6083 9.7173C15.6083 10.0588 15.7235 10.2933 15.9542 10.431Z" fill="white"/>
<path d="M13.8114 11.0185L13.5406 11.1136C13.2597 10.3136 13.3399 9.77036 13.82 9.53601C14.243 9.32952 14.8595 9.24548 15.6726 9.27843L15.661 9.56519C14.8911 9.534 14.3184 9.61207 13.9459 9.79393C13.6304 9.94794 13.5726 10.3387 13.8114 11.0185Z" fill="#C88A02"/>
<path d="M16.9742 8.96669C16.318 8.96669 16.0486 9.1265 15.8946 9.59837C15.7965 9.89908 15.8917 10.1557 16.2002 10.3953L16.0241 10.622C15.6247 10.3118 15.4839 9.93195 15.6218 9.50936C15.818 8.908 16.2029 8.67969 16.9742 8.67969C17.4797 8.67969 17.8735 8.8125 18.1477 9.08279L18.1905 9.12494V10.5086H17.9035V9.24761C17.6893 9.06161 17.3817 8.96669 16.9742 8.96669Z" fill="#C88A02"/>
<path d="M20.7175 9.30261L20.7201 9.44609C21.9925 9.42387 22.7223 9.60956 22.9076 9.97965C23.0991 10.3623 23.0635 10.8274 22.7951 11.3799L22.9242 11.4426C23.2106 10.8531 23.2497 10.3424 23.0359 9.91541C22.8159 9.47589 22.0438 9.27945 20.7175 9.30261Z" fill="white"/>
<path d="M20.2646 10.4603L20.3381 10.5835C20.6152 10.4181 20.7539 10.1357 20.7539 9.7466C20.7539 9.18736 20.4658 8.85941 19.8286 8.63499C19.4219 8.49176 18.8663 8.55049 18.1603 8.80645L18.2093 8.94136C18.887 8.69564 19.4114 8.6402 19.7809 8.77034C20.3654 8.97619 20.6104 9.25508 20.6104 9.7466C20.6104 10.0881 20.4952 10.3226 20.2646 10.4603Z" fill="white"/>
<path d="M22.7003 11.1591L22.9711 11.2542C23.2521 10.4543 23.1718 9.91099 22.6918 9.67664C22.2687 9.47014 21.6522 9.3861 20.8391 9.41905L20.8508 9.70582C21.6206 9.67462 22.1933 9.75269 22.5659 9.93455C22.8814 10.0886 22.9391 10.4793 22.7003 11.1591Z" fill="#C88A02"/>
<path d="M19.5219 8.99013C20.1781 8.99013 20.4475 9.14994 20.6015 9.62181C20.6996 9.92252 20.6044 10.1792 20.2959 10.4187L20.4719 10.6454C20.8714 10.3353 21.0122 9.95539 20.8743 9.53279C20.6781 8.93144 20.2932 8.70312 19.5219 8.70312C19.0164 8.70312 18.6226 8.83594 18.3484 9.10623L18.3056 9.14838V10.5321H18.5926V9.27105C18.8068 9.08504 19.1144 8.99013 19.5219 8.99013Z" fill="#C88A02"/>
<path opacity="0.3" fill-rule="evenodd" clip-rule="evenodd" d="M13.5742 13.8691H22.9017V22.2496C22.9017 22.2496 22.2089 25.0621 18.238 25.0621C14.2671 25.0621 13.5742 22.1754 13.5742 22.1754V13.8691Z" fill="#E1E5E8"/>
<mask id="mask3_735_3052" style="mask-type:alpha" maskUnits="userSpaceOnUse" x="13" y="13" width="10" height="13">
<path fill-rule="evenodd" clip-rule="evenodd" d="M13.5742 13.8691H22.9017V22.2496C22.9017 22.2496 22.2089 25.0621 18.238 25.0621C14.2671 25.0621 13.5742 22.1754 13.5742 22.1754V13.8691Z" fill="white"/>
</mask>
<g mask="url(#mask3_735_3052)">
<rect x="13.5742" y="19.0352" width="4.7355" height="5.5965" fill="#FFC034"/>
<rect x="14.1484" y="19.3223" width="0.574" height="5.3095" fill="#AD1619"/>
<rect x="16.1562" y="19.3223" width="0.574" height="5.3095" fill="#AD1619"/>
<rect x="15.1523" y="19.3223" width="0.574" height="5.3095" fill="#AD1619"/>
<rect x="17.1602" y="19.3223" width="0.574" height="5.3095" fill="#AD1619"/>
<rect x="13.5742" y="13.7266" width="4.7355" height="5.453" fill="#AD1619"/>
<rect x="18.168" y="18.8906" width="4.7355" height="5.453" fill="#AD1619"/>
<rect x="18.168" y="13.8691" width="5.0225" height="5.3095" fill="#F1F9FF"/>
<path fill-rule="evenodd" clip-rule="evenodd" d="M15.5825 14.2988H16.013V15.4906H16.3V14.8947H16.7305V15.4906H17.1611V16.2346H16.7306V17.5711H17.1611V18.3152H14.5781V17.5711H15.0086V16.2346H14.5781V15.4906H14.8651V14.8947H15.2956V15.4906H15.5825V14.2988Z" fill="#C88A02"/>
<path fill-rule="evenodd" clip-rule="evenodd" d="M20.4375 15.2296C20.432 15.2313 20.4298 15.2321 20.4355 15.2341C20.4888 15.2533 20.5665 15.3185 20.6629 15.4547C20.6255 15.4815 20.5628 15.5141 20.4822 15.5445C20.4044 15.5737 20.3183 15.5984 20.2317 15.618C20.1799 15.6297 20.1409 15.6369 20.1219 15.6398L20.1282 15.6818C20.0332 15.631 19.9313 15.5409 19.8204 15.4062C19.7087 15.2704 19.6036 15.1729 19.4985 15.1005C19.4776 15.0862 19.4508 15.0696 19.4251 15.0544L19.4388 15.0194L19.0387 14.8605C18.9312 15.131 18.921 15.2441 19.0987 15.3634C19.1043 15.3672 19.1226 15.3776 19.1452 15.3904C19.1828 15.4118 19.2322 15.4399 19.2544 15.4552C19.3258 15.5043 19.4013 15.5744 19.488 15.6797C19.6026 15.819 19.7205 15.9298 19.8411 16.0101C19.7535 16.1038 19.666 16.1871 19.5852 16.2508C19.5097 16.3103 19.4459 16.3475 19.4034 16.3594C19.3977 16.361 19.4008 16.3629 19.4065 16.3663C19.4109 16.369 19.417 16.3726 19.4217 16.3779L19.1004 16.6645C19.3006 16.8888 19.5659 16.8141 19.8517 16.5889C19.9702 16.4955 20.0934 16.3748 20.2129 16.2416L20.2292 16.3492C20.2567 16.345 20.2867 16.3399 20.3185 16.3337C20.3751 16.4322 20.4287 16.5238 20.4793 16.6087C20.4674 16.6092 20.4556 16.6101 20.4441 16.6113C20.2056 16.6359 20.0809 16.8296 20.1556 17.0759C20.1822 17.1639 20.2161 17.2507 20.2637 17.3591L20.3126 17.4703C20.1124 17.4137 20.0069 17.3924 19.9243 17.3947C19.7061 17.4009 19.6274 17.5588 19.6561 17.7418L20.0815 17.6752C20.0877 17.7152 20.0344 17.8223 19.9365 17.825C19.9679 17.8241 20.08 17.8501 20.3009 17.915C20.5975 18.0021 20.8354 17.9314 20.8184 17.6371C20.8144 17.5681 20.7935 17.4994 20.7552 17.4065C20.7359 17.3598 20.655 17.1794 20.6579 17.186C20.6358 17.1357 20.6174 17.0916 20.602 17.051C20.649 17.0603 20.7069 17.0749 20.7744 17.0947C20.7799 17.0963 20.7855 17.098 20.7911 17.0997C20.8083 17.1243 20.8248 17.1474 20.8407 17.1691C20.9058 17.258 20.9093 17.2824 20.8943 17.3236C20.8879 17.3403 20.8826 17.3548 20.8786 17.3691C20.87 17.4001 20.867 17.4305 20.8729 17.4638C20.8894 17.5575 20.9547 17.6105 21.0825 17.6696L21.1911 17.4348C21.1922 17.5359 21.1974 17.5978 21.2073 17.6448C21.2099 17.657 21.2128 17.6683 21.2157 17.6793C21.2208 17.6997 21.2183 17.7544 21.1918 17.9898C21.1693 18.1891 21.1693 18.3205 21.1993 18.404C21.267 18.5922 21.4399 18.5692 21.5607 18.4359L21.37 18.2631C21.3751 18.2619 21.3806 18.2608 21.3867 18.2598L21.3757 18.2499C21.4251 18.2495 21.4599 18.2803 21.4694 18.3069C21.4595 18.2792 21.4595 18.1775 21.477 18.0219C21.5081 17.7459 21.5112 17.6782 21.4943 17.6101C21.4903 17.5948 21.4892 17.5906 21.4881 17.5855L21.4873 17.5812C21.632 17.481 21.6559 17.3005 21.5782 17.1126C21.5617 17.0725 21.5402 17.03 21.5136 16.9849C21.5272 16.9793 21.5446 16.9743 21.5667 16.9679L21.5996 16.9583C21.6089 16.9555 21.6188 16.9526 21.6292 16.9497C21.6783 16.9361 21.7147 16.9253 21.7468 16.9145C22.0219 16.8222 22.0562 16.728 22.0556 16.271L22.0555 16.2165C22.0555 16.1246 22.0531 16.0493 22.0459 15.8761L22.0452 15.8592C22.0241 15.3528 22.0449 15.1394 22.1373 15.0566L21.9458 14.8428C21.7558 15.0131 21.7326 15.2504 21.7584 15.8711L21.7591 15.8881C21.7662 16.0572 21.7685 16.13 21.7685 16.2165L21.7686 16.2714L21.7686 16.3124C21.769 16.5107 21.7691 16.5745 21.7373 16.6055C21.7223 16.6202 21.7 16.6276 21.6673 16.6385L21.6554 16.6425C21.6291 16.6513 21.5971 16.6608 21.5525 16.6732C21.5401 16.6766 21.5283 16.68 21.517 16.6834C21.4487 16.704 21.3936 16.725 21.3495 16.7496C21.3028 16.6902 21.2499 16.6273 21.1909 16.5605C21.0675 16.4208 20.9936 16.327 20.8738 16.1578C21.0341 16.0827 21.1648 15.9901 21.2601 15.8683C21.448 15.628 21.448 15.3247 21.2553 15.0496C20.9174 14.5676 20.5198 14.4244 20.1783 14.5608C20.128 14.5809 20.0877 14.6041 20.057 14.6268L20.4834 15.2038C20.4671 15.2158 20.4547 15.223 20.4444 15.2271C20.4419 15.2281 20.4395 15.2289 20.4375 15.2296L20.4375 15.2296L20.4375 15.2296L20.4375 15.2296ZM21.3601 18.251L21.3677 18.2427L21.3757 18.2499C21.3708 18.2499 21.3657 18.2503 21.3605 18.251L21.3601 18.251ZM21.3585 18.2527L21.3571 18.2515L21.3601 18.251L21.3585 18.2527ZM21.3585 18.2527C21.3464 18.2654 21.3371 18.2741 21.3312 18.2786L21.3342 18.2768C21.3422 18.2721 21.3537 18.267 21.37 18.2631L21.3585 18.2527ZM21.1909 17.4035C21.1909 17.4003 21.1909 17.397 21.1909 17.3937C21.1909 17.3615 21.1904 17.3318 21.1895 17.2987C21.1892 17.2982 21.1888 17.2975 21.1884 17.2967C21.1879 17.3296 21.1826 17.362 21.173 17.3946C21.1784 17.3974 21.1844 17.4003 21.1909 17.4035Z" fill="#C37C9C"/>
<path d="M20.6328 14.549L20.9267 14.2344L21.5437 14.8107L21.2498 15.1253L20.6328 14.549Z" fill="#C88A02"/>
<path fill-rule="evenodd" clip-rule="evenodd" d="M22.4 22.6788V19.5371H18.8125V22.6525L18.8182 22.6768C18.9998 23.4506 19.6183 23.8421 20.6062 23.8421C21.5933 23.8421 22.2117 23.4607 22.394 22.7037L22.4 22.6788ZM20.6062 23.4116C19.8135 23.4116 19.3806 23.1446 19.243 22.6017V19.9676H21.9695V22.6267C21.8322 23.1518 21.3992 23.4116 20.6062 23.4116Z" fill="#FFC034"/>
<path fill-rule="evenodd" clip-rule="evenodd" d="M20.7525 19.7988H20.4535V21.2254L19.2738 19.9423L19.0625 20.1366L20.128 21.2955H19.1621V21.726H19.904H20.1527L19.0632 22.911L19.2745 23.1052L20.4535 21.8229V23.4874H20.7525V21.9746L21.792 23.1052L22.0033 22.911L20.9137 21.726H22.1294V21.2955H20.9384L22.004 20.1366L21.7927 19.9423L20.7525 21.0737V19.7988Z" fill="#FFC034"/>
<path fill-rule="evenodd" clip-rule="evenodd" d="M21.2772 24.3483C21.2772 24.3483 18.2378 24.5872 18.2378 22.627C18.2378 22.627 18.2088 24.3483 15.0352 24.3483V25.8958H21.2772V24.3483Z" fill="#F1F9FF"/>
<path fill-rule="evenodd" clip-rule="evenodd" d="M18.2364 20.1847C18.8308 20.1847 19.3127 19.6707 19.3127 19.0367C19.3127 18.4026 18.8308 17.8887 18.2364 17.8887C17.642 17.8887 17.1602 18.4026 17.1602 19.0367C17.1602 19.6707 17.642 20.1847 18.2364 20.1847Z" fill="#005BBF" stroke="#AD1619" stroke-width="1.46498"/>
</g>
</g>
<rect x="4" y="2" width="41" height="30.75" fill="url(#paint0_linear_735_3052)" style="mix-blend-mode:overlay"/>
</g>
<rect x="4.50816" y="2.50816" width="39.9837" height="29.7337" rx="1.52448" stroke="black" stroke-opacity="0.1" stroke-width="1.01632" style="mix-blend-mode:multiply"/>
</g>
<defs>
<filter id="filter0_d_735_3052" x="0.951043" y="0.983681" width="47.0979" height="36.8479" filterUnits="userSpaceOnUse" color-interpolation-filters="sRGB">
<feFlood flood-opacity="0" result="BackgroundImageFix"/>
<feColorMatrix in="SourceAlpha" type="matrix" values="0 0 0 0 0 0 0 0 0 0 0 0 0 0 0 0 0 0 127 0" result="hardAlpha"/>
<feOffset dy="2.03264"/>
<feGaussianBlur stdDeviation="1.52448"/>
<feColorMatrix type="matrix" values="0 0 0 0 0 0 0 0 0 0 0 0 0 0 0 0 0 0 0.1 0"/>
<feBlend mode="normal" in2="BackgroundImageFix" result="effect1_dropShadow_735_3052"/>
<feBlend mode="normal" in="SourceGraphic" in2="effect1_dropShadow_735_3052" result="shape"/>
</filter>
<linearGradient id="paint0_linear_735_3052" x1="24.5" y1="2" x2="24.5" y2="32.75" gradientUnits="userSpaceOnUse">
<stop stop-color="white" stop-opacity="0.7"/>
<stop offset="1" stop-opacity="0.3"/>
</linearGradient>
<clipPath id="clip0_735_3052">
<rect x="4" y="2" width="41" height="30.75" rx="2.03264" fill="white"/>
</clipPath>
</defs>
</svg>
