<svg width="49" height="38" viewBox="0 0 49 38" fill="none" xmlns="http://www.w3.org/2000/svg">
<g filter="url(#filter0_d_1020_4357)">
<g clip-path="url(#clip0_1020_4357)">
<mask id="mask0_1020_4357" style="mask-type:luminance" maskUnits="userSpaceOnUse" x="4" y="2" width="41" height="31">
<rect x="4" y="2" width="41" height="30.75" fill="white"/>
</mask>
<g mask="url(#mask0_1020_4357)">
<path fill-rule="evenodd" clip-rule="evenodd" d="M4 2V32.75H45V2H4Z" fill="#4857A1"/>
<mask id="mask1_1020_4357" style="mask-type:luminance" maskUnits="userSpaceOnUse" x="4" y="2" width="41" height="31">
<path fill-rule="evenodd" clip-rule="evenodd" d="M4 2V32.75H45V2H4Z" fill="white"/>
</mask>
<g mask="url(#mask1_1020_4357)">
<path fill-rule="evenodd" clip-rule="evenodd" d="M4 2V12.25H45V2H4Z" fill="#C51918"/>
<path fill-rule="evenodd" clip-rule="evenodd" d="M4 22.5V32.75H45V22.5H4Z" fill="#F7FCFF"/>
<path fill-rule="evenodd" clip-rule="evenodd" d="M18.6763 6.87397L18.5313 6.29297C18.6545 6.33081 18.7883 6.36964 18.9295 6.40957L18.928 6.40171C20.6194 6.55512 23.2338 7.43059 23.7205 8.36044C23.9086 8.71985 23.7215 9.02623 23.4764 9.42773L23.4764 9.42776L23.4763 9.42795C23.4397 9.48788 23.4018 9.54993 23.3637 9.61459C23.2404 9.82366 23.1287 10.0235 23.0234 10.2119L23.0234 10.2119C22.644 10.8904 22.3481 11.4196 21.8984 11.6921L21.9074 13.2326L14.3537 13.1676L14.3439 11.6138C13.9579 11.3246 13.6817 10.8306 13.3364 10.2129L13.3364 10.2129C13.2311 10.0246 13.1193 9.82473 12.9961 9.61566C12.9579 9.55092 12.92 9.4888 12.8833 9.4288C12.6382 9.02729 12.4511 8.72091 12.6393 8.36151C13.0052 7.66233 14.6633 6.98235 16.1824 6.62278C16.4805 6.51684 16.792 6.41783 17.1007 6.323L17.2384 6.4226C17.3594 6.40604 17.4767 6.39254 17.5893 6.38234L17.7635 6.77094H18.3772C18.3772 6.77094 18.7486 7.87351 18.7486 8.48583C18.7486 9.09815 18.3772 9.60451 18.3772 9.60451V10.026C18.4425 10.0314 18.511 10.0381 18.5823 10.0458C18.5828 10.0094 18.5864 9.97109 18.5933 9.9319C18.6289 9.72991 18.7396 9.5806 18.8406 9.59841C18.9416 9.61621 18.9946 9.7944 18.959 9.99639C18.9533 10.0289 18.9456 10.0601 18.9363 10.0894C19.3342 10.1436 19.7798 10.2191 20.202 10.2967C20.363 9.98467 20.5593 9.67635 20.7467 9.38195L20.7467 9.38193L20.7468 9.38189L20.7468 9.38188C21.2315 8.62056 21.6569 7.95239 21.2599 7.55353C21.184 7.47735 21.0464 7.40652 20.8688 7.34096C20.2886 7.19673 19.6571 7.08549 19.0434 7.02982L19.025 6.92942C18.9028 6.90958 18.7856 6.8911 18.6763 6.87397ZM21.5488 10.5633C21.7626 10.6084 21.8922 10.637 21.8922 10.637L21.8935 10.8552C22.6408 10.2776 23.1694 9.00151 23.217 8.58322C23.2458 8.33098 22.8461 8.04019 22.2192 7.77667C22.5165 8.34007 22.1186 8.89915 21.6193 9.60082L21.6193 9.60083L21.6193 9.60084C21.4318 9.86438 21.2299 10.148 21.0452 10.4596C21.1095 10.4725 21.1714 10.4851 21.2303 10.4972C21.2288 10.4394 21.2364 10.3745 21.2543 10.3078C21.3074 10.1096 21.4307 9.97055 21.5298 9.9971C21.6288 10.0236 21.6661 10.2058 21.613 10.4039C21.5971 10.4633 21.5748 10.5174 21.5488 10.5633ZM17.6865 10.0291V9.55931C17.6865 9.55931 17.365 9.19994 17.3152 8.4515C17.2795 7.91591 17.39 7.28624 17.4557 6.97142C16.9778 7.03206 16.4742 7.12607 15.9863 7.2415C15.6581 7.33348 15.3963 7.43775 15.2799 7.55463C14.8829 7.95349 15.3083 8.62165 15.793 9.38298L15.793 9.38299C15.974 9.66721 16.1632 9.96442 16.321 10.2654C16.5947 10.2061 16.8698 10.1512 17.1267 10.1076C17.1156 10.0678 17.1076 10.0244 17.1036 9.97867C17.0857 9.77434 17.154 9.60146 17.2562 9.59252C17.3584 9.58358 17.4557 9.74197 17.4735 9.9463C17.4768 9.98356 17.4772 10.0198 17.475 10.0542C17.5484 10.0443 17.6191 10.0359 17.6865 10.0291ZM15.4925 10.4573C15.3084 10.1471 15.1073 9.86451 14.9204 9.60192C14.4099 8.88451 14.0055 8.31617 14.3416 7.73986C13.608 8.02415 13.114 8.3328 13.1427 8.58429C13.1878 8.97976 13.6627 10.142 14.3459 10.7557C14.3926 10.7427 14.6572 10.6692 15.0312 10.5731C15.0028 10.5286 14.9778 10.4758 14.9588 10.4173C14.8954 10.2223 14.9231 10.0385 15.0206 10.0068C15.1182 9.97508 15.2486 10.1075 15.312 10.3026C15.3337 10.3694 15.3447 10.435 15.3459 10.4935L15.4925 10.4573Z" fill="#F6C540"/>
<path fill-rule="evenodd" clip-rule="evenodd" d="M18.9293 6.49313C18.9293 6.94346 18.5551 7.30853 18.0937 7.30853C17.6322 7.30853 17.2581 6.94346 17.2581 6.49313C17.2581 6.0428 17.6322 5.67773 18.0937 5.67773C18.5551 5.67773 18.9293 6.0428 18.9293 6.49313ZM18.0931 12.549C18.4521 12.549 18.7431 12.3827 18.7431 12.1776C18.7431 11.9725 18.4521 11.8062 18.0931 11.8062C17.7342 11.8062 17.4432 11.9725 17.4432 12.1776C17.4432 12.3827 17.7342 12.549 18.0931 12.549ZM14.8422 12.4551C14.8422 12.6089 14.7175 12.7336 14.5637 12.7336C14.4099 12.7336 14.2852 12.6089 14.2852 12.4551C14.2852 12.3013 14.4099 12.1766 14.5637 12.1766C14.7175 12.1766 14.8422 12.3013 14.8422 12.4551ZM22.2695 12.4551C22.2695 12.6089 22.1448 12.7336 21.9909 12.7336C21.8371 12.7336 21.7124 12.6089 21.7124 12.4551C21.7124 12.3013 21.8371 12.1766 21.9909 12.1766C22.1448 12.1766 22.2695 12.3013 22.2695 12.4551Z" fill="#2E42A5"/>
<path fill-rule="evenodd" clip-rule="evenodd" d="M16.6941 12.2688C16.6941 12.4226 16.4862 12.5473 16.2298 12.5473C15.9735 12.5473 15.7656 12.4226 15.7656 12.2688C15.7656 12.1149 15.9735 11.9902 16.2298 11.9902C16.4862 11.9902 16.6941 12.1149 16.6941 12.2688ZM20.5929 12.2688C20.5929 12.4226 20.385 12.5473 20.1286 12.5473C19.8723 12.5473 19.6644 12.4226 19.6644 12.2688C19.6644 12.1149 19.8723 11.9902 20.1286 11.9902C20.385 11.9902 20.5929 12.1149 20.5929 12.2688Z" fill="#C5363C"/>
<path fill-rule="evenodd" clip-rule="evenodd" d="M19.6688 9.94755C19.6688 10.1527 19.5857 10.3189 19.4831 10.3189C19.3806 10.3189 19.2974 10.1527 19.2974 9.94755C19.2974 9.74244 19.3806 9.57617 19.4831 9.57617C19.5857 9.57617 19.6688 9.74244 19.6688 9.94755ZM16.8726 9.88968C16.936 10.0848 16.9083 10.2686 16.8108 10.3003C16.7132 10.332 16.5828 10.1995 16.5194 10.0044C16.456 9.80938 16.4837 9.62555 16.5812 9.59386C16.6788 9.56217 16.8092 9.69462 16.8726 9.88968ZM14.6887 10.8958C14.7862 10.8642 14.8139 10.6803 14.7505 10.4853C14.6871 10.2902 14.5567 10.1578 14.4592 10.1894C14.3616 10.2211 14.3339 10.405 14.3973 10.6C14.4607 10.7951 14.5911 10.9275 14.6887 10.8958ZM22.0331 10.646C21.9245 10.8199 21.7658 10.9169 21.6789 10.8625C21.5919 10.8082 21.6095 10.6231 21.7182 10.4492C21.8269 10.2752 21.9855 10.1783 22.0725 10.2326C22.1594 10.287 22.1418 10.472 22.0331 10.646Z" fill="#F7FCFF"/>
<path fill-rule="evenodd" clip-rule="evenodd" d="M16.5097 6.86031C16.5616 6.89822 16.6255 6.9206 16.6947 6.9206C16.868 6.9206 17.0085 6.7801 17.0085 6.60678C17.0085 6.43347 16.868 6.29297 16.6947 6.29297C16.572 6.29297 16.4658 6.36332 16.4142 6.46587C16.3623 6.42796 16.2984 6.40558 16.2292 6.40558C16.1191 6.40558 16.0223 6.46228 15.9663 6.54807C15.9123 6.50435 15.8436 6.47815 15.7688 6.47815C15.5955 6.47815 15.455 6.61865 15.455 6.79196C15.455 6.8033 15.4556 6.8145 15.4567 6.82552C15.3993 6.75122 15.3094 6.70337 15.2082 6.70337C15.0512 6.70337 14.9212 6.81865 14.8981 6.96918C14.8406 6.89716 14.752 6.85101 14.6527 6.85101C14.5023 6.85101 14.3766 6.95684 14.346 7.09811C14.2943 7.06073 14.2308 7.0387 14.1622 7.0387C14.0236 7.0387 13.906 7.12851 13.8645 7.25311C13.8229 7.23278 13.7762 7.22137 13.7268 7.22137C13.5719 7.22137 13.4432 7.33357 13.4176 7.48112C13.3963 7.47653 13.3741 7.47412 13.3514 7.47412C13.1792 7.47412 13.0395 7.61277 13.0376 7.7845C13.0193 7.78116 13.0004 7.77942 12.981 7.77942C12.8077 7.77942 12.6672 7.91992 12.6672 8.09323C12.6672 8.11475 12.6694 8.13577 12.6735 8.15607C12.6532 8.15195 12.6322 8.14978 12.6107 8.14978C12.4374 8.14978 12.2969 8.29028 12.2969 8.46359C12.2969 8.59501 12.3776 8.70755 12.4923 8.75429C12.4856 8.77973 12.4821 8.80643 12.4821 8.83396C12.4821 8.9656 12.5631 9.07831 12.678 9.1249C12.671 9.15101 12.6672 9.17848 12.6672 9.20682C12.6672 9.37526 12.7999 9.5127 12.9665 9.5203C12.8968 9.57786 12.8524 9.66492 12.8524 9.76236C12.8524 9.93568 12.9929 10.0762 13.1662 10.0762C13.3395 10.0762 13.48 9.93568 13.48 9.76236C13.48 9.59392 13.3473 9.45648 13.1808 9.44888C13.2505 9.39132 13.2949 9.30426 13.2949 9.20682C13.2949 9.07518 13.2138 8.96247 13.0989 8.91588C13.1059 8.88976 13.1097 8.8623 13.1097 8.83396C13.1097 8.70254 13.0289 8.59 12.9143 8.54326C12.921 8.51782 12.9245 8.49112 12.9245 8.46359C12.9245 8.44207 12.9223 8.42106 12.9182 8.40075C12.9385 8.40488 12.9595 8.40705 12.981 8.40705C13.1532 8.40705 13.293 8.2684 13.2948 8.09666C13.3132 8.1 13.3321 8.10175 13.3514 8.10175C13.5063 8.10175 13.635 7.98955 13.6606 7.84201C13.6819 7.84659 13.7041 7.849 13.7268 7.849C13.8654 7.849 13.9829 7.75918 14.0245 7.63459C14.0661 7.65491 14.1128 7.66632 14.1622 7.66632C14.2313 7.66632 14.2951 7.64402 14.3469 7.60621C14.3566 7.6481 14.3747 7.68677 14.3993 7.72037C14.3613 7.77227 14.3389 7.83629 14.3389 7.90555C14.3389 8.07497 14.4731 8.21303 14.6411 8.21915C14.5697 8.27667 14.524 8.3648 14.524 8.46359C14.524 8.59501 14.6048 8.70755 14.7194 8.75429C14.7128 8.77973 14.7092 8.80643 14.7092 8.83396C14.7092 8.9656 14.7903 9.07831 14.9052 9.1249C14.8982 9.15101 14.8944 9.17848 14.8944 9.20682C14.8944 9.38013 15.0349 9.52063 15.2082 9.52063C15.3815 9.52063 15.522 9.38013 15.522 9.20682C15.522 9.07518 15.441 8.96247 15.3261 8.91588C15.3331 8.88976 15.3369 8.8623 15.3369 8.83396C15.3369 8.70254 15.2561 8.59 15.1415 8.54326C15.1481 8.51782 15.1517 8.49112 15.1517 8.46359C15.1517 8.29417 15.0174 8.15611 14.8495 8.14999C14.9208 8.09247 14.9665 8.00434 14.9665 7.90555C14.9665 7.83629 14.9441 7.77227 14.9061 7.72037C14.9441 7.66846 14.9665 7.60445 14.9665 7.53519C14.9665 7.46593 14.9441 7.40191 14.9061 7.35001C14.9351 7.31033 14.9551 7.26358 14.9628 7.21283C15.0203 7.28485 15.1089 7.331 15.2082 7.331C15.3815 7.331 15.522 7.1905 15.522 7.01718C15.522 7.00584 15.5214 6.99465 15.5203 6.98362C15.5777 7.05792 15.6676 7.10578 15.7688 7.10578C15.8789 7.10578 15.9757 7.04908 16.0317 6.96329C16.0857 7.00701 16.1544 7.03321 16.2292 7.03321C16.3519 7.03321 16.4581 6.96285 16.5097 6.86031ZM14.6658 7.47837C14.7645 7.47431 14.8514 7.4247 14.9061 7.35001C14.849 7.27202 14.7567 7.22137 14.6527 7.22137L14.6521 7.22138C14.6837 7.22117 14.7092 7.19549 14.7092 7.16383C14.7092 7.13203 14.6835 7.10626 14.6517 7.10626C14.6199 7.10626 14.5941 7.13203 14.5941 7.16383C14.5941 7.19529 14.6194 7.22085 14.6507 7.22138C14.5824 7.2218 14.5193 7.24405 14.4679 7.28149C14.4506 7.2065 14.4064 7.14181 14.346 7.09811C14.3413 7.11961 14.3389 7.14193 14.3389 7.16483C14.3389 7.23408 14.3613 7.2981 14.3993 7.35001C14.3613 7.40191 14.3389 7.46593 14.3389 7.53519C14.3389 7.55962 14.3417 7.58339 14.3469 7.60621C14.408 7.56168 14.4524 7.49564 14.4689 7.41923C14.5168 7.4539 14.5749 7.47537 14.6378 7.4783C14.6127 7.48449 14.5941 7.50716 14.5941 7.53419C14.5941 7.56565 14.6194 7.59121 14.6507 7.59174C14.5474 7.59238 14.456 7.64288 14.3993 7.72037C14.4564 7.79836 14.5486 7.849 14.6527 7.849C14.7567 7.849 14.849 7.79836 14.9061 7.72037C14.849 7.64246 14.7569 7.59183 14.653 7.59174C14.6842 7.59104 14.7092 7.56554 14.7092 7.53419C14.7092 7.50727 14.6908 7.48467 14.6658 7.47837ZM14.6507 7.59174L14.6527 7.59174L14.6517 7.59175L14.6507 7.59174ZM14.6658 7.47837C14.6613 7.47723 14.6566 7.47662 14.6517 7.47662C14.6469 7.47662 14.6423 7.4772 14.6378 7.4783C14.6428 7.47852 14.6477 7.47864 14.6527 7.47864L14.6658 7.47837ZM14.4689 7.41923C14.4422 7.39994 14.4187 7.37656 14.3993 7.35001C14.4185 7.32378 14.4417 7.30064 14.4679 7.28149C14.4732 7.30431 14.476 7.32808 14.476 7.35251C14.476 7.37541 14.4736 7.39773 14.4689 7.41923ZM15.3261 8.91588C15.2897 8.90113 15.2499 8.89301 15.2082 8.89301C15.0633 8.89301 14.9412 8.99131 14.9052 9.1249C14.9416 9.13965 14.9814 9.14777 15.023 9.14777C15.168 9.14777 15.29 9.04946 15.3261 8.91588ZM15.1415 8.54326C15.1049 8.52835 15.0649 8.52014 15.023 8.52014C14.8773 8.52014 14.7547 8.61956 14.7194 8.75429C14.756 8.76919 14.796 8.77741 14.8379 8.77741C14.9836 8.77741 15.1062 8.67799 15.1415 8.54326ZM14.8495 8.14999L14.8379 8.14978C14.7633 8.14978 14.6949 8.17576 14.6411 8.21915L14.6527 8.21936C14.7272 8.21936 14.7957 8.19339 14.8495 8.14999ZM13.1808 9.44888C13.176 9.44866 13.1711 9.44855 13.1662 9.44855C13.0904 9.44855 13.0208 9.47548 12.9665 9.5203C12.9713 9.52052 12.9762 9.52063 12.981 9.52063C13.0569 9.52063 13.1265 9.4937 13.1808 9.44888ZM13.0989 8.91588C13.0629 9.04946 12.9408 9.14777 12.7959 9.14777C12.7542 9.14777 12.7144 9.13965 12.678 9.1249C12.7141 8.99131 12.8361 8.89301 12.981 8.89301C13.0227 8.89301 13.0625 8.90113 13.0989 8.91588ZM12.9143 8.54326C12.879 8.67799 12.7565 8.77741 12.6107 8.77741C12.5688 8.77741 12.5288 8.76919 12.4923 8.75429C12.5275 8.61956 12.6501 8.52014 12.7959 8.52014C12.8378 8.52014 12.8778 8.52835 12.9143 8.54326ZM12.6735 8.15607C12.6985 8.27897 12.7953 8.37577 12.9182 8.40075C12.8932 8.27786 12.7964 8.18105 12.6735 8.15607ZM13.2948 8.09666C13.1485 8.07003 13.0376 7.94194 13.0376 7.78793L13.0376 7.7845C13.1839 7.81114 13.2949 7.93923 13.2949 8.09323L13.2948 8.09666ZM13.6606 7.84201C13.5191 7.81162 13.413 7.68579 13.413 7.53519C13.413 7.51675 13.4146 7.49868 13.4176 7.48112C13.5591 7.5115 13.6652 7.63733 13.6652 7.78793C13.6652 7.80637 13.6636 7.82444 13.6606 7.84201ZM14.0245 7.63459C13.9202 7.58358 13.8484 7.47644 13.8484 7.35251C13.8484 7.31777 13.854 7.28435 13.8645 7.25311C13.9688 7.30411 14.0406 7.41126 14.0406 7.53519C14.0406 7.56993 14.0349 7.60335 14.0245 7.63459ZM14.9628 7.21283C14.92 7.15918 14.8944 7.09117 14.8944 7.01718C14.8944 7.00086 14.8957 6.98483 14.8981 6.96918C14.9409 7.02283 14.9665 7.09084 14.9665 7.16483C14.9665 7.18115 14.9652 7.19718 14.9628 7.21283ZM15.4567 6.82552C15.463 6.88469 15.4857 6.93894 15.5203 6.98362C15.514 6.92446 15.4912 6.87021 15.4567 6.82552ZM16.0317 6.96329C15.9608 6.90575 15.9154 6.81787 15.9154 6.71939C15.9154 6.65618 15.9341 6.59733 15.9663 6.54807C16.0372 6.6056 16.0826 6.69349 16.0826 6.79196C16.0826 6.85518 16.0639 6.91403 16.0317 6.96329ZM16.5097 6.86031C16.4316 6.80322 16.3809 6.71093 16.3809 6.60678C16.3809 6.55611 16.3929 6.50824 16.4142 6.46587C16.4923 6.52295 16.543 6.61525 16.543 6.71939C16.543 6.77007 16.531 6.81793 16.5097 6.86031ZM13.3554 7.847C13.3872 7.847 13.413 7.82123 13.413 7.78944C13.413 7.75764 13.3872 7.73187 13.3554 7.73187C13.3236 7.73187 13.2979 7.75764 13.2979 7.78944C13.2979 7.82123 13.3236 7.847 13.3554 7.847ZM12.98 8.14979C13.0118 8.14979 13.0376 8.12402 13.0376 8.09223C13.0376 8.06044 13.0118 8.03467 12.98 8.03467C12.9483 8.03467 12.9225 8.06044 12.9225 8.09223C12.9225 8.12402 12.9483 8.14979 12.98 8.14979ZM12.6097 8.52016C12.6415 8.52016 12.6673 8.49438 12.6673 8.46259C12.6673 8.4308 12.6415 8.40503 12.6097 8.40503C12.5779 8.40503 12.5521 8.4308 12.5521 8.46259C12.5521 8.49438 12.5779 8.52016 12.6097 8.52016ZM12.7949 8.89302C12.8267 8.89302 12.8524 8.86725 12.8524 8.83546C12.8524 8.80367 12.8267 8.77789 12.7949 8.77789C12.7631 8.77789 12.7373 8.80367 12.7373 8.83546C12.7373 8.86725 12.7631 8.89302 12.7949 8.89302ZM12.98 9.26338C13.0118 9.26338 13.0376 9.23761 13.0376 9.20582C13.0376 9.17403 13.0118 9.14825 12.98 9.14825C12.9483 9.14825 12.9225 9.17403 12.9225 9.20582C12.9225 9.23761 12.9483 9.26338 12.98 9.26338ZM13.2278 9.76386C13.2278 9.79565 13.202 9.82143 13.1702 9.82143C13.1384 9.82143 13.1127 9.79565 13.1127 9.76386C13.1127 9.73207 13.1384 9.7063 13.1702 9.7063C13.202 9.7063 13.2278 9.73207 13.2278 9.76386ZM13.7258 7.59175C13.7576 7.59175 13.7833 7.56598 13.7833 7.53419C13.7833 7.5024 13.7576 7.47662 13.7258 7.47662C13.694 7.47662 13.6682 7.5024 13.6682 7.53419C13.6682 7.56598 13.694 7.59175 13.7258 7.59175ZM14.1612 7.40907C14.193 7.40907 14.2188 7.3833 14.2188 7.35151C14.2188 7.31972 14.193 7.29395 14.1612 7.29395C14.1294 7.29395 14.1036 7.31972 14.1036 7.35151C14.1036 7.3833 14.1294 7.40907 14.1612 7.40907ZM15.2122 7.07625C15.244 7.07625 15.2698 7.05048 15.2698 7.01868C15.2698 6.98689 15.244 6.96112 15.2122 6.96112C15.1804 6.96112 15.1547 6.98689 15.1547 7.01868C15.1547 7.05048 15.1804 7.07625 15.2122 7.07625ZM15.7678 6.85103C15.7996 6.85103 15.8253 6.82526 15.8253 6.79346C15.8253 6.76167 15.7996 6.7359 15.7678 6.7359C15.736 6.7359 15.7102 6.76167 15.7102 6.79346C15.7102 6.82526 15.736 6.85103 15.7678 6.85103ZM16.2282 6.77846C16.26 6.77846 16.2858 6.75268 16.2858 6.72089C16.2858 6.6891 16.26 6.66333 16.2282 6.66333C16.1964 6.66333 16.1707 6.6891 16.1707 6.72089C16.1707 6.75268 16.1964 6.77846 16.2282 6.77846ZM16.6937 6.66334C16.7255 6.66334 16.7512 6.63757 16.7512 6.60578C16.7512 6.57399 16.7255 6.54822 16.6937 6.54822C16.6619 6.54822 16.6361 6.57399 16.6361 6.60578C16.6361 6.63757 16.6619 6.66334 16.6937 6.66334ZM14.6517 7.96461C14.6835 7.96461 14.7092 7.93884 14.7092 7.90705C14.7092 7.87526 14.6835 7.84949 14.6517 7.84949C14.6199 7.84949 14.5941 7.87526 14.5941 7.90705C14.5941 7.93884 14.6199 7.96461 14.6517 7.96461ZM14.8369 8.52016C14.8687 8.52016 14.8944 8.49438 14.8944 8.46259C14.8944 8.4308 14.8687 8.40503 14.8369 8.40503C14.8051 8.40503 14.7793 8.4308 14.7793 8.46259C14.7793 8.49438 14.8051 8.52016 14.8369 8.52016ZM15.027 8.89302C15.0588 8.89302 15.0846 8.86725 15.0846 8.83546C15.0846 8.80367 15.0588 8.77789 15.027 8.77789C14.9953 8.77789 14.9695 8.80367 14.9695 8.83546C14.9695 8.86725 14.9953 8.89302 15.027 8.89302ZM15.2122 9.26338C15.244 9.26338 15.2698 9.23761 15.2698 9.20582C15.2698 9.17403 15.244 9.14825 15.2122 9.14825C15.1804 9.14825 15.1547 9.17403 15.1547 9.20582C15.1547 9.23761 15.1804 9.26338 15.2122 9.26338ZM23.3802 9.82143C23.412 9.82143 23.4378 9.79565 23.4378 9.76386C23.4378 9.73207 23.412 9.7063 23.3802 9.7063C23.3484 9.7063 23.3226 9.73207 23.3226 9.76386C23.3226 9.79565 23.3484 9.82143 23.3802 9.82143ZM23.0674 9.76236C23.0674 9.93568 23.2079 10.0762 23.3812 10.0762C23.5545 10.0762 23.695 9.93568 23.695 9.76236C23.695 9.66492 23.6506 9.57786 23.5809 9.5203C23.7475 9.5127 23.8802 9.37526 23.8802 9.20682C23.8802 9.17848 23.8764 9.15101 23.8694 9.12489C23.9843 9.0783 24.0654 8.9656 24.0654 8.83396C24.0654 8.80643 24.0618 8.77973 24.0552 8.75429C24.1698 8.70755 24.2506 8.59501 24.2506 8.46359C24.2506 8.29028 24.1101 8.14978 23.9367 8.14978C23.9152 8.14978 23.8942 8.15195 23.8739 8.15607C23.878 8.13577 23.8802 8.11476 23.8802 8.09323C23.8802 7.91992 23.7397 7.77942 23.5664 7.77942C23.5471 7.77942 23.5282 7.78116 23.5098 7.7845C23.508 7.61277 23.3682 7.47412 23.196 7.47412C23.175 7.47412 23.1545 7.47618 23.1346 7.48012C23.1086 7.33306 22.9802 7.22137 22.8257 7.22137C22.7746 7.22137 22.7263 7.23359 22.6837 7.25525C22.6427 7.12954 22.5246 7.0387 22.3852 7.0387C22.3166 7.0387 22.2531 7.06073 22.2015 7.09811C22.1709 6.95684 22.0452 6.85101 21.8947 6.85101C21.7954 6.85101 21.7069 6.89716 21.6494 6.96918C21.6263 6.81865 21.4962 6.70337 21.3392 6.70337C21.2381 6.70337 21.1481 6.75123 21.0907 6.82553C21.0919 6.8145 21.0925 6.8033 21.0925 6.79196C21.0925 6.61865 20.952 6.47815 20.7787 6.47815C20.7038 6.47815 20.6351 6.50435 20.5812 6.54807C20.5252 6.46228 20.4283 6.40558 20.3182 6.40558C20.249 6.40558 20.1851 6.42796 20.1332 6.46587C20.0816 6.36332 19.9754 6.29297 19.8528 6.29297C19.6794 6.29297 19.5389 6.43347 19.5389 6.60678C19.5389 6.7801 19.6794 6.9206 19.8528 6.9206C19.9219 6.9206 19.9859 6.89822 20.0377 6.86031C20.0894 6.96285 20.1956 7.03321 20.3182 7.03321C20.393 7.03321 20.4618 7.00701 20.5157 6.96328C20.5717 7.04908 20.6686 7.10578 20.7787 7.10578C20.8798 7.10578 20.9698 7.05792 21.0272 6.98361C21.026 6.99464 21.0254 7.00584 21.0254 7.01718C21.0254 7.1905 21.1659 7.331 21.3392 7.331C21.4385 7.331 21.5271 7.28484 21.5846 7.21282C21.5924 7.26358 21.6123 7.31033 21.6414 7.35001C21.6034 7.40192 21.5809 7.46593 21.5809 7.53519C21.5809 7.60445 21.6034 7.66846 21.6414 7.72037C21.6034 7.77228 21.5809 7.83629 21.5809 7.90555C21.5809 8.00434 21.6266 8.09247 21.6979 8.14999C21.53 8.15611 21.3958 8.29417 21.3958 8.46359C21.3958 8.49112 21.3993 8.51782 21.406 8.54326C21.2913 8.59 21.2106 8.70254 21.2106 8.83396C21.2106 8.8623 21.2143 8.88976 21.2214 8.91588C21.1064 8.96247 21.0254 9.07518 21.0254 9.20682C21.0254 9.38013 21.1659 9.52063 21.3392 9.52063C21.5125 9.52063 21.653 9.38013 21.653 9.20682C21.653 9.17848 21.6493 9.15101 21.6422 9.1249C21.7571 9.07831 21.8382 8.9656 21.8382 8.83396C21.8382 8.80643 21.8346 8.77973 21.828 8.75429C21.9426 8.70755 22.0234 8.59501 22.0234 8.46359C22.0234 8.3648 21.9777 8.27667 21.9064 8.21915C22.0743 8.21304 22.2086 8.07497 22.2086 7.90555C22.2086 7.83629 22.1861 7.77228 22.1481 7.72037C22.1727 7.68677 22.1908 7.6481 22.2005 7.60621C22.2523 7.64401 22.3162 7.66632 22.3852 7.66632C22.4363 7.66632 22.4846 7.65411 22.5272 7.63244C22.5681 7.75815 22.6863 7.849 22.8257 7.849C22.8467 7.849 22.8672 7.84693 22.887 7.843C22.913 7.99006 23.0415 8.10175 23.196 8.10175C23.2153 8.10175 23.2342 8.1 23.2526 8.09666C23.2544 8.26839 23.3942 8.40705 23.5664 8.40705C23.5879 8.40705 23.6089 8.40488 23.6292 8.40075C23.6251 8.42105 23.6229 8.44207 23.6229 8.46359C23.6229 8.49112 23.6265 8.51782 23.6331 8.54326C23.5185 8.58999 23.4377 8.70254 23.4377 8.83396C23.4377 8.8623 23.4415 8.88976 23.4485 8.91588C23.3336 8.96247 23.2526 9.07518 23.2526 9.20682C23.2526 9.30426 23.297 9.39132 23.3666 9.44888C23.2001 9.45648 23.0674 9.59392 23.0674 9.76236ZM22.0785 7.41922C22.0951 7.49563 22.1394 7.56168 22.2005 7.60621C22.2058 7.58339 22.2086 7.55961 22.2086 7.53519C22.2086 7.46593 22.1861 7.40191 22.1481 7.35C22.1861 7.2981 22.2086 7.23408 22.2086 7.16483C22.2086 7.14193 22.2061 7.11961 22.2015 7.09811C22.1411 7.14182 22.0968 7.20651 22.0795 7.28149C22.0277 7.24368 21.9638 7.22137 21.8947 7.22137L21.8941 7.22138C21.9257 7.22117 21.9513 7.19549 21.9513 7.16383C21.9513 7.13203 21.9255 7.10626 21.8937 7.10626C21.862 7.10626 21.8362 7.13203 21.8362 7.16383C21.8362 7.19529 21.8614 7.22085 21.8928 7.22138C21.7895 7.22202 21.6981 7.27252 21.6414 7.35001C21.6957 7.42427 21.782 7.47374 21.8799 7.4783C21.8548 7.48449 21.8362 7.50716 21.8362 7.53419C21.8362 7.56565 21.8614 7.59121 21.8928 7.59174C21.7895 7.59238 21.6981 7.64288 21.6414 7.72037C21.6985 7.79836 21.7907 7.849 21.8947 7.849C21.9988 7.849 22.091 7.79836 22.1481 7.72037C22.0911 7.64246 21.999 7.59183 21.895 7.59174C21.9262 7.59104 21.9513 7.56554 21.9513 7.53419C21.9513 7.50727 21.9328 7.48467 21.9079 7.47837C21.9715 7.47575 22.0302 7.45421 22.0785 7.41922ZM22.0785 7.41922C22.0739 7.39772 22.0714 7.3754 22.0714 7.35251C22.0714 7.32808 22.0742 7.30431 22.0795 7.28149C22.1057 7.30064 22.1289 7.32378 22.1481 7.35C22.1287 7.37655 22.1052 7.39993 22.0785 7.41922ZM21.8928 7.59174L21.8937 7.59175L21.8947 7.59174L21.8928 7.59174ZM21.9079 7.47837L21.8947 7.47864C21.8898 7.47864 21.8848 7.47852 21.8799 7.4783C21.8843 7.4772 21.889 7.47662 21.8937 7.47662C21.8986 7.47662 21.9034 7.47723 21.9079 7.47837ZM21.6422 9.1249C21.6062 8.99131 21.4842 8.89301 21.3392 8.89301C21.2975 8.89301 21.2578 8.90113 21.2214 8.91588C21.2574 9.04947 21.3794 9.14777 21.5244 9.14777C21.5661 9.14777 21.6058 9.13965 21.6422 9.1249ZM21.828 8.75429C21.7927 8.61956 21.6702 8.52014 21.5244 8.52014C21.4825 8.52014 21.4425 8.52836 21.406 8.54326C21.4412 8.67799 21.5638 8.77741 21.7096 8.77741C21.7515 8.77741 21.7914 8.7692 21.828 8.75429ZM21.9064 8.21915C21.8525 8.17576 21.7841 8.14978 21.7096 8.14978L21.6979 8.14999C21.7518 8.19339 21.8202 8.21936 21.8947 8.21936L21.9064 8.21915ZM20.0377 6.86031C20.1158 6.80322 20.1666 6.71093 20.1666 6.60678C20.1666 6.55611 20.1546 6.50824 20.1332 6.46587C20.0551 6.52295 20.0044 6.61525 20.0044 6.71939C20.0044 6.77007 20.0164 6.81793 20.0377 6.86031ZM20.5157 6.96328C20.4835 6.91402 20.4648 6.85518 20.4648 6.79196C20.4648 6.69349 20.5102 6.60561 20.5812 6.54807C20.6133 6.59733 20.632 6.65618 20.632 6.71939C20.632 6.81787 20.5867 6.90575 20.5157 6.96328ZM21.0907 6.82553C21.0562 6.87021 21.0335 6.92446 21.0272 6.98361C21.0617 6.93893 21.0844 6.88469 21.0907 6.82553ZM21.5846 7.21282C21.5822 7.19717 21.5809 7.18115 21.5809 7.16483C21.5809 7.09084 21.6065 7.02283 21.6494 6.96918C21.6518 6.98483 21.653 7.00086 21.653 7.01718C21.653 7.09117 21.6274 7.15917 21.5846 7.21282ZM22.5272 7.63244C22.5172 7.60182 22.5118 7.56913 22.5118 7.53519C22.5118 7.41297 22.5817 7.30708 22.6837 7.25525C22.6936 7.28587 22.699 7.31856 22.699 7.35251C22.699 7.47472 22.6292 7.58062 22.5272 7.63244ZM22.887 7.843C22.8839 7.82512 22.8822 7.80672 22.8822 7.78793C22.8822 7.63562 22.9907 7.50865 23.1346 7.48012C23.1378 7.498 23.1395 7.5164 23.1395 7.53519C23.1395 7.6875 23.031 7.81446 22.887 7.843ZM23.2526 8.09666L23.2526 8.09323C23.2526 7.93923 23.3635 7.81114 23.5098 7.7845L23.5098 7.78793C23.5098 7.94194 23.3989 8.07002 23.2526 8.09666ZM23.8739 8.15607C23.751 8.18105 23.6542 8.27786 23.6292 8.40075C23.7521 8.37577 23.8489 8.27897 23.8739 8.15607ZM23.6331 8.54326C23.6697 8.52835 23.7097 8.52014 23.7516 8.52014C23.8973 8.52014 24.0199 8.61956 24.0552 8.75429C24.0186 8.76919 23.9786 8.77741 23.9367 8.77741C23.791 8.77741 23.6684 8.67799 23.6331 8.54326ZM23.4485 8.91588C23.4849 8.90113 23.5247 8.89301 23.5664 8.89301C23.7113 8.89301 23.8334 8.99131 23.8694 9.12489C23.833 9.13964 23.7932 9.14777 23.7516 9.14777C23.6066 9.14777 23.4846 9.04946 23.4485 8.91588ZM23.3666 9.44888L23.3754 9.4486L23.3812 9.44855C23.4571 9.44855 23.5267 9.47548 23.5809 9.5203L23.5692 9.52062L23.5664 9.52063C23.4905 9.52063 23.4209 9.4937 23.3666 9.44888ZM23.5654 9.26338C23.5972 9.26338 23.6229 9.23761 23.6229 9.20582C23.6229 9.17403 23.5972 9.14825 23.5654 9.14825C23.5336 9.14825 23.5078 9.17403 23.5078 9.20582C23.5078 9.23761 23.5336 9.26338 23.5654 9.26338ZM23.7506 8.89302C23.7823 8.89302 23.8081 8.86725 23.8081 8.83546C23.8081 8.80367 23.7823 8.77789 23.7506 8.77789C23.7188 8.77789 23.693 8.80367 23.693 8.83546C23.693 8.86725 23.7188 8.89302 23.7506 8.89302ZM23.9357 8.52016C23.9675 8.52016 23.9933 8.49438 23.9933 8.46259C23.9933 8.4308 23.9675 8.40503 23.9357 8.40503C23.9039 8.40503 23.8782 8.4308 23.8782 8.46259C23.8782 8.49438 23.9039 8.52016 23.9357 8.52016ZM23.5654 8.14979C23.5972 8.14979 23.6229 8.12402 23.6229 8.09223C23.6229 8.06044 23.5972 8.03467 23.5654 8.03467C23.5336 8.03467 23.5078 8.06044 23.5078 8.09223C23.5078 8.12402 23.5336 8.14979 23.5654 8.14979ZM23.195 7.847C23.2268 7.847 23.2526 7.82123 23.2526 7.78944C23.2526 7.75764 23.2268 7.73187 23.195 7.73187C23.1632 7.73187 23.1375 7.75764 23.1375 7.78944C23.1375 7.82123 23.1632 7.847 23.195 7.847ZM22.8247 7.59175C22.8564 7.59175 22.8822 7.56598 22.8822 7.53419C22.8822 7.5024 22.8564 7.47662 22.8247 7.47662C22.7929 7.47662 22.7671 7.5024 22.7671 7.53419C22.7671 7.56598 22.7929 7.59175 22.8247 7.59175ZM22.3842 7.40907C22.416 7.40907 22.4418 7.3833 22.4418 7.35151C22.4418 7.31972 22.416 7.29395 22.3842 7.29395C22.3524 7.29395 22.3267 7.31972 22.3267 7.35151C22.3267 7.3833 22.3524 7.40907 22.3842 7.40907ZM21.3382 7.07625C21.37 7.07625 21.3958 7.05048 21.3958 7.01868C21.3958 6.98689 21.37 6.96112 21.3382 6.96112C21.3064 6.96112 21.2806 6.98689 21.2806 7.01868C21.2806 7.05048 21.3064 7.07625 21.3382 7.07625ZM20.7827 6.85103C20.8145 6.85103 20.8402 6.82526 20.8402 6.79346C20.8402 6.76167 20.8145 6.7359 20.7827 6.7359C20.7509 6.7359 20.7251 6.76167 20.7251 6.79346C20.7251 6.82526 20.7509 6.85103 20.7827 6.85103ZM20.3172 6.77846C20.349 6.77846 20.3748 6.75268 20.3748 6.72089C20.3748 6.6891 20.349 6.66333 20.3172 6.66333C20.2854 6.66333 20.2596 6.6891 20.2596 6.72089C20.2596 6.75268 20.2854 6.77846 20.3172 6.77846ZM19.8518 6.66334C19.8835 6.66334 19.9093 6.63757 19.9093 6.60578C19.9093 6.57399 19.8835 6.54822 19.8518 6.54822C19.82 6.54822 19.7942 6.57399 19.7942 6.60578C19.7942 6.63757 19.82 6.66334 19.8518 6.66334ZM21.8937 7.96461C21.9255 7.96461 21.9513 7.93884 21.9513 7.90705C21.9513 7.87526 21.9255 7.84949 21.8937 7.84949C21.862 7.84949 21.8362 7.87526 21.8362 7.90705C21.8362 7.93884 21.862 7.96461 21.8937 7.96461ZM21.7086 8.52016C21.7404 8.52016 21.7661 8.49438 21.7661 8.46259C21.7661 8.4308 21.7404 8.40503 21.7086 8.40503C21.6768 8.40503 21.651 8.4308 21.651 8.46259C21.651 8.49438 21.6768 8.52016 21.7086 8.52016ZM21.5234 8.89302C21.5552 8.89302 21.5809 8.86725 21.5809 8.83546C21.5809 8.80367 21.5552 8.77789 21.5234 8.77789C21.4916 8.77789 21.4658 8.80367 21.4658 8.83546C21.4658 8.86725 21.4916 8.89302 21.5234 8.89302ZM21.3382 9.26338C21.37 9.26338 21.3958 9.23761 21.3958 9.20582C21.3958 9.17403 21.37 9.14825 21.3382 9.14825C21.3064 9.14825 21.2806 9.17403 21.2806 9.20582C21.2806 9.23761 21.3064 9.26338 21.3382 9.26338Z" fill="white"/>
<path fill-rule="evenodd" clip-rule="evenodd" d="M18.2218 4.76123L17.9466 4.76574L17.947 5.21669L17.4396 5.2164L17.4456 5.49107L17.9473 5.49136L17.9479 6.00852L18.2231 6.00401L18.2226 5.49151L18.723 5.49179L18.7169 5.21712L18.2223 5.21684L18.2218 4.76123Z" fill="#F6C540"/>
<path fill-rule="evenodd" clip-rule="evenodd" d="M11.4102 13.1914H24.7352V24.5093C24.7352 24.5093 24.3322 30.1469 18.0727 30.1469C11.8131 30.1469 11.4102 24.5093 11.4102 24.5093V13.1914Z" fill="#C51918"/>
<path fill-rule="evenodd" clip-rule="evenodd" d="M15.4277 13.584C15.3055 13.584 15.1174 13.6717 14.8681 13.7711C14.6188 13.8705 14.357 14.085 14.6125 14.2999C14.8681 14.5148 15.234 14.9864 15.234 14.8101C15.234 14.6338 15.6711 14.4628 15.6711 14.5483C15.6711 14.6338 15.5357 14.8101 15.8907 14.8101C16.2456 14.8101 16.4285 14.915 16.0498 14.915C15.6711 14.915 15.6299 15.0882 15.3838 15.0882C15.1376 15.0882 14.6125 14.9137 14.6125 14.8101C14.6125 14.7065 14.9166 15.3193 15.234 15.3193C15.5513 15.3193 15.7316 15.6174 15.8907 15.4683C16.0498 15.3193 16.0309 15.3193 16.288 15.3193C16.545 15.3193 16.4512 14.7173 16.4512 14.7173C16.4512 14.7173 15.5499 13.584 15.4277 13.584Z" fill="#E8AA00"/>
<path fill-rule="evenodd" clip-rule="evenodd" d="M20.5684 13.584C20.6906 13.584 20.8787 13.6717 21.128 13.7711C21.3773 13.8705 21.6391 14.085 21.3835 14.2999C21.128 14.5148 20.7621 14.9864 20.7621 14.8101C20.7621 14.6338 20.325 14.4628 20.325 14.5483C20.325 14.6338 20.4604 14.8101 20.1054 14.8101C19.7505 14.8101 19.5676 14.915 19.9463 14.915C20.325 14.915 20.3662 15.0882 20.6123 15.0882C20.8585 15.0882 21.3835 14.9137 21.3835 14.8101C21.3835 14.7065 21.0795 15.3193 20.7621 15.3193C20.4448 15.3193 20.2645 15.6174 20.1054 15.4683C19.9463 15.3193 19.9651 15.3193 19.7081 15.3193C19.4511 15.3193 19.5449 14.7173 19.5449 14.7173C19.5449 14.7173 20.4462 13.584 20.5684 13.584Z" fill="#E8AA00"/>
<path fill-rule="evenodd" clip-rule="evenodd" d="M13.6069 14.8156C13.3514 15.4112 15.3091 17.6241 15.3091 17.6241H15.5283C15.6204 17.6241 15.7917 17.3974 15.9986 17.1238C16.1404 16.9362 16.2988 16.7265 16.4599 16.5526C16.763 16.2255 16.6024 15.9507 16.4526 15.6945C16.4066 15.6158 16.3617 15.5388 16.3315 15.4627C16.2661 15.2977 16.2568 15.2318 16.2462 15.1566C16.2359 15.0841 16.2244 15.0029 16.1602 14.8156C16.0659 14.5403 15.737 14.1851 15.5089 13.9388C15.4208 13.8437 15.3478 13.7649 15.3091 13.7131C15.187 13.5498 15.2796 13.5507 15.5345 13.5533C15.5695 13.5537 15.6075 13.5541 15.6485 13.5541C15.9879 13.5541 16.6362 13.7131 16.83 13.8989C17.0238 14.0847 17.227 14.1243 17.5256 14.1243C17.8242 14.1243 17.64 14.3254 17.3681 14.4612C17.6619 14.5174 17.7946 15.0088 17.8544 15.4433C17.9645 15.0088 18.1525 14.5174 18.4464 14.4612C18.1744 14.3254 17.9903 14.1243 18.2889 14.1243C18.5875 14.1243 18.7907 14.0847 18.9845 13.8989C19.1783 13.7131 19.8266 13.5541 20.166 13.5541C20.2069 13.5541 20.245 13.5537 20.2799 13.5533C20.5348 13.5507 20.6275 13.5498 20.5054 13.7131C20.4667 13.7649 20.3937 13.8437 20.3056 13.9388C20.0775 14.1851 19.7486 14.5403 19.6542 14.8156C19.59 15.0029 19.5785 15.0841 19.5683 15.1566C19.5577 15.2318 19.5483 15.2977 19.483 15.4627C19.4528 15.5388 19.4078 15.6158 19.3618 15.6945C19.2121 15.9507 19.0515 16.2255 19.3545 16.5526C19.5156 16.7265 19.6741 16.9362 19.8159 17.1237C20.0227 17.3974 20.1941 17.6241 20.2862 17.6241H20.5054C20.5054 17.6241 22.463 15.4112 22.2076 14.8156C22.1089 14.5853 21.9496 14.3684 21.8178 14.1888C21.6087 13.9038 21.4687 13.7131 21.7496 13.7131C22.2076 13.7131 24.0332 14.8707 24.0332 17.4809C24.0332 20.0911 23.8646 21.5756 23.4731 22.6157C23.206 23.3254 23.4507 24.0147 23.633 24.5283C23.7179 24.7674 23.7893 24.9684 23.7893 25.1158C23.7893 25.5799 23.0705 25.1732 23.0705 24.8826C23.0705 24.7444 22.9721 24.9503 22.8688 25.1661C22.755 25.4041 22.6353 25.6544 22.6353 25.4691C22.6353 25.2714 22.5208 25.0627 22.4198 24.8787C22.3403 24.7339 22.2693 24.6045 22.2693 24.5081C22.2693 24.4116 22.1685 24.4152 22.0556 24.4192C21.9123 24.4243 21.7496 24.43 21.7496 24.2324C21.7496 24.099 21.6979 24.0724 21.6334 24.0392C21.5272 23.9845 21.3864 23.9121 21.3864 23.314C21.3864 22.8708 21.2977 23.0278 21.1959 23.208C21.1022 23.3737 20.9974 23.5591 20.9406 23.314C20.9351 23.2902 20.8763 23.1874 20.8036 23.0603C20.6978 22.8754 20.5626 22.6391 20.5193 22.5197C20.5144 22.5005 20.5098 22.4813 20.5054 22.4622C20.5054 22.4754 20.5104 22.495 20.5193 22.5197C20.6527 23.0418 20.9726 23.5858 21.1758 23.845C21.3864 24.1137 21.7496 24.697 21.7496 24.697C21.7496 24.697 21.4109 24.8859 21.1758 24.697C21.0444 24.5915 21.0356 24.6907 21.0259 24.7989C21.0183 24.8845 21.0101 24.9756 20.9406 24.9756C20.897 24.9756 20.8559 24.9827 20.8193 24.989C20.7923 24.9937 20.7677 24.998 20.7463 24.9986C20.7039 24.8906 20.6591 24.8175 20.6591 24.8826C20.6591 24.9788 20.6923 25.0003 20.7463 24.9986C20.8248 25.1986 20.8952 25.5183 20.6591 25.3047C20.4904 25.1521 20.3722 25.0902 20.2938 25.0492C20.2032 25.0017 20.166 24.9823 20.166 24.8826C20.166 24.7832 20.1291 24.8169 20.0714 24.8697C20.0214 24.9154 19.9556 24.9756 19.8845 24.9756C19.7929 24.9756 19.7738 24.848 19.7461 24.6625C19.7275 24.5382 19.705 24.3878 19.6542 24.2324C19.6424 24.1961 19.6313 24.1613 19.6207 24.1283C19.5185 23.8083 19.4708 23.659 19.3545 24.0627C19.3002 24.2514 19.2042 24.385 19.1207 24.5013C19.007 24.6596 18.9163 24.7859 18.9845 24.9756C19.0112 25.0498 19.0447 25.1337 19.0805 25.2236C19.2036 25.5319 19.3545 25.91 19.3545 26.2077C19.3545 26.3847 19.5157 26.626 19.6671 26.8527C19.8446 27.1185 20.0088 27.3643 19.8845 27.4633C19.6542 27.6468 19.9329 28.2648 20.166 28.5818C20.3991 28.8988 20.3605 29.2858 20.0074 29.2858C19.8141 29.2858 19.7092 29.3559 19.6143 29.4194C19.5357 29.472 19.4639 29.5199 19.3545 29.5199C19.1128 29.5199 18.9845 29.4008 18.9845 29.4008C18.9845 29.4008 18.8353 29.6263 18.5875 29.6263C18.3397 29.6263 18.2889 29.4008 18.2889 29.4008L17.7251 29.6263V28.5101L17.7091 29.6263L17.5256 29.4008C17.5256 29.4008 17.4748 29.6263 17.227 29.6263C16.9792 29.6263 16.83 29.4008 16.83 29.4008C16.83 29.4008 16.7016 29.5199 16.4599 29.5199C16.3505 29.5199 16.2787 29.472 16.2002 29.4194C16.1052 29.3559 16.0003 29.2858 15.8071 29.2858C15.4539 29.2858 15.4154 28.8988 15.6485 28.5818C15.8816 28.2648 16.1602 27.6468 15.93 27.4633C15.8057 27.3643 15.9699 27.1185 16.1474 26.8527C16.2988 26.626 16.4599 26.3847 16.4599 26.2077C16.4599 25.91 16.6109 25.5319 16.7339 25.2236C16.7698 25.1337 16.8033 25.0498 16.83 24.9756C16.8982 24.7859 16.8074 24.6596 16.6938 24.5013C16.6102 24.385 16.5143 24.2514 16.4599 24.0627C16.3437 23.659 16.296 23.8083 16.1937 24.1283C16.1832 24.1613 16.1721 24.1961 16.1602 24.2324C16.1094 24.3878 16.0869 24.5382 16.0683 24.6625C16.0406 24.848 16.0215 24.9756 15.93 24.9756C15.8589 24.9756 15.7931 24.9154 15.743 24.8697C15.6853 24.8169 15.6485 24.7832 15.6485 24.8826C15.6485 24.9823 15.6113 25.0017 15.5206 25.0492C15.4423 25.0902 15.324 25.1521 15.1554 25.3047C14.9193 25.5183 14.9897 25.1986 15.0682 24.9986C15.1221 25.0003 15.1554 24.9788 15.1554 24.8826C15.1554 24.8175 15.1106 24.8906 15.0682 24.9986C15.0468 24.998 15.0222 24.9937 14.9951 24.989C14.9585 24.9827 14.9174 24.9756 14.8738 24.9756C14.8043 24.9756 14.7962 24.8845 14.7885 24.7989C14.7789 24.6907 14.77 24.5915 14.6387 24.697C14.4036 24.8859 14.0648 24.697 14.0648 24.697C14.0648 24.697 14.428 24.1137 14.6387 23.845C14.8418 23.5858 15.1618 23.0418 15.2951 22.5197C15.3041 22.495 15.3091 22.4754 15.3091 22.4622C15.3047 22.4813 15.3 22.5005 15.2951 22.5197C15.2519 22.6391 15.1166 22.8754 15.0108 23.0603C14.9381 23.1874 14.8793 23.2902 14.8738 23.314C14.817 23.5591 14.7123 23.3737 14.6186 23.208C14.5168 23.0278 14.428 22.8708 14.428 23.314C14.428 23.9121 14.2873 23.9845 14.181 24.0392C14.1166 24.0724 14.0648 24.099 14.0648 24.2324C14.0648 24.43 13.9021 24.4243 13.7588 24.4192C13.646 24.4152 13.5452 24.4116 13.5452 24.5081C13.5452 24.6045 13.4741 24.7339 13.3947 24.8787C13.2937 25.0627 13.1791 25.2714 13.1791 25.4691C13.1791 25.6544 13.0594 25.4041 12.9456 25.1661C12.8424 24.9503 12.744 24.7444 12.744 24.8826C12.744 25.1732 12.0252 25.5799 12.0252 25.1158C12.0252 24.9684 12.0966 24.7674 12.1814 24.5283C12.3638 24.0147 12.6085 23.3254 12.3413 22.6157C11.9499 21.5756 11.7812 20.0911 11.7812 17.4809C11.7812 14.8707 13.6069 13.7131 14.0648 13.7131C14.3458 13.7131 14.2058 13.9038 13.9966 14.1888C13.8648 14.3684 13.7056 14.5853 13.6069 14.8156Z" fill="#F7FCFF"/>
<path fill-rule="evenodd" clip-rule="evenodd" d="M14.4901 26.6055C14.4901 26.4254 14.9507 26.0078 14.9507 26.0078V26.0411C15.0107 26.0895 15.4284 26.4327 15.4284 26.5998C15.4284 26.7028 15.3751 26.852 15.3294 26.9798C15.2953 27.0755 15.2654 27.159 15.2654 27.2022C15.2654 27.2312 15.2775 27.2104 15.3004 27.1708C15.3573 27.0726 15.481 26.8591 15.6538 27.0019C15.8826 27.1909 15.8813 27.4697 15.8804 27.6464C15.8803 27.657 15.8803 27.6671 15.8803 27.6769C15.8803 27.732 15.8802 27.7316 15.8728 27.7054C15.857 27.6489 15.8077 27.4725 15.6538 27.4725C15.4284 27.4725 15.2654 27.6769 15.2654 27.6769V28.0255C15.2654 28.0255 15.294 28.3133 15.4284 28.1694C15.5627 28.0255 15.5913 28.3469 15.4284 28.3469C15.3452 28.3469 15.2596 28.4352 15.1759 28.5217C15.0956 28.6045 15.0169 28.6857 14.9436 28.6857V28.6579C14.8735 28.6533 14.8159 28.5814 14.7571 28.508C14.6938 28.4289 14.6291 28.348 14.5459 28.348C14.3829 28.348 14.4115 28.0266 14.5459 28.1705C14.6802 28.3144 14.7088 28.0266 14.7088 28.0266V27.678C14.7088 27.678 14.5459 27.4736 14.3205 27.4736C14.1665 27.4736 14.1172 27.65 14.1014 27.7064C14.0941 27.7327 14.094 27.7331 14.094 27.678C14.094 27.6682 14.0939 27.6581 14.0939 27.6475C14.093 27.4708 14.0916 27.192 14.3205 27.003C14.4933 26.8602 14.617 27.0737 14.6738 27.1719C14.6968 27.2115 14.7088 27.2323 14.7088 27.2033C14.7088 27.1601 14.6687 27.0774 14.6229 26.9827C14.5616 26.8563 14.4901 26.7085 14.4901 26.6055Z" fill="#E8AA00"/>
<path fill-rule="evenodd" clip-rule="evenodd" d="M20.6112 26.6055C20.6112 26.4254 21.0718 26.0078 21.0718 26.0078V26.0411C21.1318 26.0895 21.5495 26.4327 21.5495 26.5998C21.5495 26.7028 21.4962 26.852 21.4505 26.9798C21.4164 27.0755 21.3865 27.159 21.3865 27.2022C21.3865 27.2312 21.3986 27.2104 21.4215 27.1708C21.4784 27.0726 21.6021 26.8591 21.7749 27.0019C22.0037 27.1909 22.0024 27.4697 22.0015 27.6464C22.0014 27.657 22.0014 27.6671 22.0014 27.6769C22.0014 27.732 22.0013 27.7316 21.9939 27.7054C21.9781 27.6489 21.9288 27.4725 21.7749 27.4725C21.5495 27.4725 21.3865 27.6769 21.3865 27.6769V28.0255C21.3865 28.0255 21.4151 28.3133 21.5495 28.1694C21.6838 28.0255 21.7124 28.3469 21.5495 28.3469C21.4663 28.3469 21.3807 28.4352 21.297 28.5217C21.2167 28.6045 21.138 28.6857 21.0647 28.6857V28.6579C20.9946 28.6533 20.937 28.5814 20.8782 28.508C20.8149 28.4289 20.7502 28.348 20.667 28.348C20.504 28.348 20.5326 28.0266 20.667 28.1705C20.8013 28.3144 20.8299 28.0266 20.8299 28.0266V27.678C20.8299 27.678 20.667 27.4736 20.4416 27.4736C20.2876 27.4736 20.2383 27.65 20.2225 27.7064C20.2152 27.7327 20.2151 27.7331 20.2151 27.678C20.2151 27.6682 20.215 27.6581 20.215 27.6475C20.2141 27.4708 20.2127 27.192 20.4416 27.003C20.6143 26.8602 20.738 27.0737 20.7949 27.1719C20.8179 27.2115 20.8299 27.2323 20.8299 27.2033C20.8299 27.1601 20.7898 27.0774 20.744 26.9827C20.6827 26.8563 20.6112 26.7085 20.6112 26.6055Z" fill="#E8AA00"/>
<path fill-rule="evenodd" clip-rule="evenodd" d="M14.0291 25.5243C14.4397 25.5243 14.5227 24.7433 14.5227 24.7433C14.5227 24.7433 14.8672 24.3863 14.8672 24.6496C14.8672 24.79 14.7693 24.9669 14.6948 25.1015C14.6295 25.2192 14.5823 25.3046 14.6345 25.3046H15.2031C15.6719 25.3046 15.1207 25.5243 14.8672 25.6222C14.7522 25.6666 14.6706 25.6899 14.5924 25.7121C14.4982 25.739 14.4088 25.7644 14.2715 25.8239C14.0204 25.9328 13.9126 26.6493 14.0291 26.8794C14.1456 27.1095 13.9126 27.0124 13.8163 26.8794C13.7628 26.8055 13.7238 26.9072 13.6693 27.0491C13.6258 27.1626 13.5724 27.3017 13.4938 27.3973C13.342 27.5818 13.3436 27.4187 13.3471 27.0677C13.3477 27.0098 13.3483 26.9468 13.3483 26.8794C13.3483 26.5683 13.4104 26.5655 13.5028 26.5614C13.5518 26.5592 13.6093 26.5566 13.6706 26.5074C13.8029 26.4012 13.8188 26.3465 13.8588 26.2089C13.8722 26.1626 13.8884 26.107 13.9126 26.0369C14.0089 25.7583 13.4938 26.1988 13.3483 26.4074C13.2598 26.5344 13.1981 26.5483 13.1058 26.569C13.0466 26.5824 12.9747 26.5985 12.875 26.6493C12.7129 26.7319 12.7569 26.5696 12.8105 26.372C12.8412 26.2588 12.875 26.134 12.875 26.0369C12.875 25.8696 12.9756 25.9126 13.1046 25.9676C13.1809 26.0001 13.2672 26.0369 13.3483 26.0369C13.5558 26.0369 13.6629 25.9493 13.7951 25.8412C13.8021 25.8355 13.8092 25.8297 13.8163 25.8239C13.9224 25.7375 13.6913 25.7636 13.4161 25.7946C13.322 25.8052 13.2227 25.8164 13.1299 25.8239C12.9183 25.841 12.9042 25.8283 12.8513 25.7807C12.8133 25.7465 12.7553 25.6943 12.5895 25.6222C12.1929 25.4499 12.8443 25.5243 13.1299 25.6222C13.2888 25.6767 13.422 25.6403 13.5796 25.5972C13.7055 25.5629 13.8468 25.5243 14.0291 25.5243ZM21.9914 25.5243C21.5808 25.5243 21.4978 24.7433 21.4978 24.7433C21.4978 24.7433 21.1533 24.3863 21.1533 24.6496C21.1533 24.79 21.2512 24.9669 21.3257 25.1015C21.391 25.2192 21.4382 25.3046 21.3861 25.3046H20.8175C20.3486 25.3046 20.8998 25.5243 21.1533 25.6222C21.2683 25.6666 21.3499 25.6899 21.4281 25.7121C21.5223 25.739 21.6117 25.7644 21.749 25.8239C22.0001 25.9328 22.1079 26.6493 21.9914 26.8794C21.8749 27.1095 22.1079 27.0124 22.2042 26.8794C22.2577 26.8055 22.2967 26.9072 22.3512 27.0491C22.3947 27.1626 22.4482 27.3017 22.5267 27.3973C22.6785 27.5818 22.6769 27.4187 22.6734 27.0677C22.6728 27.0098 22.6722 26.9468 22.6722 26.8794C22.6722 26.5683 22.6101 26.5655 22.5177 26.5614C22.4687 26.5592 22.4112 26.5566 22.3499 26.5074C22.2176 26.4012 22.2017 26.3465 22.1617 26.2089C22.1483 26.1626 22.1321 26.107 22.1079 26.0369C22.0116 25.7583 22.5267 26.1988 22.6722 26.4074C22.7607 26.5344 22.8224 26.5483 22.9147 26.569C22.9739 26.5824 23.0458 26.5985 23.1455 26.6493C23.3076 26.7319 23.2636 26.5696 23.21 26.372C23.1794 26.2588 23.1455 26.134 23.1455 26.0369C23.1455 25.8696 23.0449 25.9126 22.9159 25.9676C22.8396 26.0001 22.7533 26.0369 22.6722 26.0369C22.4647 26.0369 22.3576 25.9493 22.2254 25.8412C22.2184 25.8355 22.2113 25.8297 22.2042 25.8239C22.0981 25.7375 22.3292 25.7636 22.6044 25.7946C22.6985 25.8052 22.7978 25.8164 22.8906 25.8239C23.1022 25.841 23.1163 25.8283 23.1692 25.7807C23.2072 25.7465 23.2652 25.6943 23.4311 25.6222C23.8276 25.4499 23.1762 25.5243 22.8906 25.6222C22.7317 25.6767 22.5985 25.6403 22.4409 25.5972C22.3151 25.5629 22.1737 25.5243 21.9914 25.5243Z" fill="#E8AA00"/>
<path fill-rule="evenodd" clip-rule="evenodd" d="M15.5898 17.8125H20.5553V22.3409C20.5553 22.3409 20.0223 24.5965 18.0726 24.5965C16.1229 24.5965 15.5898 22.3409 15.5898 22.3409V17.8125Z" fill="#C51918"/>
<path fill-rule="evenodd" clip-rule="evenodd" d="M18.7426 17.748H17.4427V20.3481H15.5859V21.2765H17.4427V24.6185H18.7426V21.2765H20.5995V20.3481H18.7426V17.748Z" fill="#F7FCFF"/>
</g>
</g>
<rect x="4" y="2" width="41" height="30.75" fill="url(#paint0_linear_1020_4357)" style="mix-blend-mode:overlay"/>
</g>
<rect x="4.50816" y="2.50816" width="39.9837" height="29.7337" rx="1.52448" stroke="black" stroke-opacity="0.1" stroke-width="1.01632" style="mix-blend-mode:multiply"/>
</g>
<defs>
<filter id="filter0_d_1020_4357" x="0.951043" y="0.983681" width="47.0979" height="36.8479" filterUnits="userSpaceOnUse" color-interpolation-filters="sRGB">
<feFlood flood-opacity="0" result="BackgroundImageFix"/>
<feColorMatrix in="SourceAlpha" type="matrix" values="0 0 0 0 0 0 0 0 0 0 0 0 0 0 0 0 0 0 127 0" result="hardAlpha"/>
<feOffset dy="2.03264"/>
<feGaussianBlur stdDeviation="1.52448"/>
<feColorMatrix type="matrix" values="0 0 0 0 0 0 0 0 0 0 0 0 0 0 0 0 0 0 0.1 0"/>
<feBlend mode="normal" in2="BackgroundImageFix" result="effect1_dropShadow_1020_4357"/>
<feBlend mode="normal" in="SourceGraphic" in2="effect1_dropShadow_1020_4357" result="shape"/>
</filter>
<linearGradient id="paint0_linear_1020_4357" x1="24.5" y1="2" x2="24.5" y2="32.75" gradientUnits="userSpaceOnUse">
<stop stop-color="white" stop-opacity="0.7"/>
<stop offset="1" stop-opacity="0.3"/>
</linearGradient>
<clipPath id="clip0_1020_4357">
<rect x="4" y="2" width="41" height="30.75" rx="2.03264" fill="white"/>
</clipPath>
</defs>
</svg>
