<svg width="49" height="38" viewBox="0 0 49 38" fill="none" xmlns="http://www.w3.org/2000/svg">
<g filter="url(#filter0_d_1020_4787)">
<g clip-path="url(#clip0_1020_4787)">
<mask id="mask0_1020_4787" style="mask-type:luminance" maskUnits="userSpaceOnUse" x="4" y="2" width="41" height="31">
<rect x="4" y="2" width="41" height="30.75" fill="white"/>
</mask>
<g mask="url(#mask0_1020_4787)">
<path fill-rule="evenodd" clip-rule="evenodd" d="M4 2V32.75H45V2H4Z" fill="#BF2714"/>
<mask id="mask1_1020_4787" style="mask-type:luminance" maskUnits="userSpaceOnUse" x="4" y="2" width="41" height="31">
<path fill-rule="evenodd" clip-rule="evenodd" d="M4 2V32.75H45V2H4Z" fill="white"/>
</mask>
<g mask="url(#mask1_1020_4787)">
<path fill-rule="evenodd" clip-rule="evenodd" d="M4 -0.5625V17.375H45V-0.5625H4Z" fill="#3D58DB"/>
</g>
<path fill-rule="evenodd" clip-rule="evenodd" d="M4 2V32.75L27.0625 17.375L4 2Z" fill="#F7FCFF"/>
<mask id="mask2_1020_4787" style="mask-type:luminance" maskUnits="userSpaceOnUse" x="4" y="2" width="24" height="31">
<path fill-rule="evenodd" clip-rule="evenodd" d="M4 2V32.75L27.0625 17.375L4 2Z" fill="white"/>
</mask>
<g mask="url(#mask2_1020_4787)">
<path fill-rule="evenodd" clip-rule="evenodd" d="M21.4321 15.9912L23.0668 16.6216L24.0394 15.4771L24.0652 17.0078L25.5697 17.4972L23.9861 18.0347L24.0905 19.4414L23.0474 18.3639L21.4079 18.6757L22.3759 17.4346L21.4321 15.9912Z" fill="#FECA00"/>
<path fill-rule="evenodd" clip-rule="evenodd" d="M6.05709 23.6787L7.5597 24.3431L8.66442 23.1646L8.55811 24.7293L10.1947 25.1847L8.479 25.7562L8.71548 27.1289L7.5209 26.148L6.03293 26.3632L6.86879 25.1561L6.05709 23.6787Z" fill="#FECA00"/>
<path fill-rule="evenodd" clip-rule="evenodd" d="M6.05709 8.30372L7.71984 8.91644L8.66442 7.78955L8.71825 9.30265L10.1947 9.8097L8.63914 10.3296L8.71548 11.7539L7.68103 10.7214L6.03293 10.9882L7.02893 9.72946L6.05709 8.30372Z" fill="#FECA00"/>
<path fill-rule="evenodd" clip-rule="evenodd" d="M14.4062 20.6211C16.1753 20.6211 17.6094 19.187 17.6094 17.418C17.6094 15.6489 16.1753 14.2148 14.4062 14.2148C12.6372 14.2148 11.2031 15.6489 11.2031 17.418C11.2031 19.187 12.6372 20.6211 14.4062 20.6211Z" fill="#FECA00"/>
<path fill-rule="evenodd" clip-rule="evenodd" d="M14.0342 12.5583L14.2064 14.616C14.2228 14.741 14.3189 14.8405 14.4432 14.8613C14.5994 14.8875 14.7472 14.7821 14.7733 14.6259L15.0005 12.5752C15.0045 12.5514 15.0067 12.5272 15.0071 12.5031C15.0118 12.2333 14.7969 12.0108 14.5271 12.006C14.503 12.0056 14.4788 12.007 14.4548 12.0102C14.1873 12.0454 13.999 12.2908 14.0342 12.5583ZM13.4974 13.5522L13.7634 14.4474C13.7881 14.5304 13.871 14.5819 13.9649 14.5653C14.0418 14.5472 14.0894 14.4701 14.0713 14.3931L13.859 13.4948C13.8346 13.3915 13.7345 13.3246 13.6297 13.3415C13.6227 13.3427 13.6157 13.3443 13.6089 13.3463C13.5213 13.3723 13.4713 13.4645 13.4974 13.5522ZM14.936 14.4854C14.9151 14.5617 14.96 14.6404 15.0446 14.6632C15.1295 14.681 15.2142 14.6325 15.2418 14.5503L15.5389 13.665C15.568 13.5783 15.5213 13.4844 15.4345 13.4553C15.4278 13.4531 15.4209 13.4512 15.414 13.4499C15.3098 13.4293 15.2075 13.4926 15.1795 13.595L14.936 14.4854ZM17.5959 13.5838L16.1638 15.1651C16.0871 15.2651 16.0847 15.4034 16.1579 15.506C16.2498 15.6349 16.4289 15.6649 16.5578 15.573L18.2672 14.2789C18.2869 14.2649 18.3055 14.2494 18.3229 14.2326C18.517 14.0452 18.5224 13.7359 18.335 13.5418C18.3182 13.5244 18.3001 13.5083 18.2809 13.4935C18.0669 13.3293 17.7602 13.3697 17.5959 13.5838ZM17.1602 16.9405L19.2985 16.775C19.5661 16.7398 19.8115 16.9281 19.8467 17.1956C19.8499 17.2196 19.8513 17.2438 19.8508 17.2679C19.8461 17.5377 19.6236 17.7526 19.3538 17.7479C19.3296 17.7475 19.3055 17.7453 19.2817 17.7413L17.1503 17.5075C16.9941 17.4813 16.8888 17.3336 16.9149 17.1774C16.9357 17.0531 17.0352 16.957 17.1602 16.9405ZM18.2679 20.3473L16.6072 18.9015C16.5072 18.8248 16.3689 18.8224 16.2663 18.8956C16.1374 18.9875 16.1074 19.1666 16.1993 19.2954L17.5727 21.0186C17.5868 21.0383 17.6022 21.0569 17.619 21.0743C17.8065 21.2684 18.1158 21.2738 18.3099 21.0864C18.3273 21.0696 18.3434 21.0515 18.3581 21.0324C18.5224 20.8183 18.482 20.5116 18.2679 20.3473ZM14.8322 19.8985L14.959 22.0575C14.9942 22.325 14.8059 22.5704 14.5384 22.6056C14.5144 22.6088 14.4903 22.6102 14.4661 22.6098C14.1963 22.605 13.9814 22.3825 13.9861 22.1127C13.9865 22.0886 13.9888 22.0644 13.9927 22.0406L14.2653 19.8886C14.2914 19.7325 14.4392 19.6271 14.5953 19.6532C14.7196 19.674 14.8158 19.7736 14.8322 19.8985ZM11.4618 21.0643L12.8728 19.3471C12.9495 19.2471 12.9519 19.1088 12.8788 19.0061C12.7868 18.8772 12.6078 18.8473 12.4789 18.9392L10.7905 20.3692C10.7708 20.3832 10.7522 20.3987 10.7348 20.4155C10.5407 20.6029 10.5353 20.9122 10.7227 21.1063C10.7395 21.1237 10.7576 21.1398 10.7767 21.1546C10.9908 21.3188 11.2975 21.2784 11.4618 21.0643ZM11.8756 17.5707L9.72411 17.7479C9.45659 17.7832 9.21116 17.5949 9.17592 17.3274C9.17277 17.3034 9.17139 17.2792 9.17181 17.255C9.17652 16.9852 9.39905 16.7704 9.66884 16.7751C9.69301 16.7755 9.71713 16.7777 9.74097 16.7817L11.8855 17.0037C12.0416 17.0298 12.147 17.1776 12.1209 17.3338C12.1001 17.4581 12.0005 17.5542 11.8756 17.5707ZM10.6046 14.2007L12.4294 15.6117C12.5294 15.6884 12.6678 15.6908 12.7704 15.6177C12.8993 15.5257 12.9292 15.3467 12.8373 15.2178L11.2998 13.5294C11.2858 13.5097 11.2703 13.491 11.2535 13.4737C11.066 13.2796 10.7567 13.2742 10.5626 13.4616C10.5452 13.4784 10.5291 13.4965 10.5144 13.5156C10.3502 13.7297 10.3905 14.0364 10.6046 14.2007ZM15.9677 14.7335L16.4125 13.9124C16.4561 13.832 16.5566 13.8021 16.6371 13.8457C16.6433 13.8491 16.6493 13.8528 16.6551 13.857C16.7412 13.9191 16.7646 14.0372 16.7088 14.1275L16.2237 14.9128C16.1822 14.9801 16.094 15.0009 16.0267 14.9594C15.9487 14.9047 15.9264 14.8097 15.9677 14.7335ZM18.2221 16.2331L17.327 16.4991C17.2439 16.5238 17.1924 16.6068 17.209 16.7007C17.2271 16.7776 17.3042 16.8252 17.3812 16.807L18.2795 16.5948C18.3828 16.5703 18.4497 16.4702 18.4328 16.3654C18.4316 16.3584 18.4301 16.3515 18.428 16.3447C18.402 16.257 18.3098 16.2071 18.2221 16.2331ZM17.0406 18.7066L17.8617 19.1514C17.9421 19.195 17.972 19.2955 17.9284 19.376C17.925 19.3822 17.9212 19.3882 17.9171 19.394C17.855 19.48 17.7369 19.5035 17.6466 19.4477L16.8612 18.9626C16.794 18.9211 16.7731 18.8329 16.8147 18.7656C16.8693 18.6876 16.9644 18.6653 17.0406 18.7066ZM15.5409 20.961L15.2749 20.0658C15.2502 19.9828 15.1672 19.9313 15.0734 19.9479C14.9965 19.966 14.9488 20.0431 14.967 20.1201L15.1793 21.0184C15.2037 21.1217 15.3038 21.1886 15.4086 21.1717C15.4156 21.1705 15.4225 21.1689 15.4293 21.1669C15.517 21.1409 15.567 21.0487 15.5409 20.961ZM13.065 19.777L12.6201 20.598C12.5766 20.6785 12.476 20.7084 12.3956 20.6648C12.3894 20.6614 12.3834 20.6576 12.3776 20.6535C12.2915 20.5914 12.268 20.4733 12.3238 20.383L12.8089 19.5976C12.8505 19.5304 12.9387 19.5095 13.0059 19.5511C13.084 19.6057 13.1063 19.7008 13.065 19.777ZM10.8156 18.2798L11.7107 18.0138C11.7938 17.9891 11.8453 17.9061 11.8287 17.8123C11.8105 17.7354 11.7334 17.6877 11.6565 17.7059L10.7581 17.9182C10.6548 17.9426 10.5879 18.0427 10.6049 18.1475C10.606 18.1545 10.6076 18.1614 10.6096 18.1682C10.6357 18.2559 10.7279 18.3059 10.8156 18.2798ZM11.9971 15.8039L11.176 15.359C11.0956 15.3155 11.0657 15.2149 11.1093 15.1345C11.1127 15.1283 11.1164 15.1223 11.1206 15.1165C11.1827 15.0304 11.3008 15.0069 11.3911 15.0627L12.1764 15.5478C12.2437 15.5894 12.2645 15.6776 12.223 15.7448C12.1683 15.8229 12.0733 15.8452 11.9971 15.8039ZM16.7735 15.5907C16.7049 15.6299 16.681 15.7173 16.7246 15.7933C16.772 15.8659 16.8663 15.8915 16.9439 15.8529L17.7799 15.4369C17.8619 15.3962 17.8952 15.2968 17.8545 15.2148C17.8513 15.2085 17.8478 15.2024 17.8438 15.1965C17.7847 15.1083 17.6676 15.0807 17.5753 15.1333L16.7735 15.5907ZM17.1136 17.7804C17.1364 17.6958 17.2152 17.6509 17.2914 17.6717L18.1818 17.9153C18.2842 17.9433 18.3476 18.0456 18.3269 18.1498C18.3256 18.1567 18.3237 18.1636 18.3215 18.1703C18.2924 18.257 18.1985 18.3037 18.1118 18.2746L17.2265 17.9776C17.1443 17.95 17.0958 17.8653 17.1136 17.7804ZM16.1859 19.5099C16.1467 19.4413 16.0593 19.4174 15.9833 19.461C15.9107 19.5084 15.8851 19.6027 15.9237 19.6803L16.3396 20.5163C16.3804 20.5982 16.4798 20.6316 16.5617 20.5909C16.5681 20.5877 16.5742 20.5841 16.5801 20.5802C16.6683 20.5211 16.6959 20.4039 16.6433 20.3117L16.1859 19.5099ZM13.9936 19.85C14.0783 19.8728 14.1232 19.9515 14.1023 20.0278L13.8588 20.9182C13.8308 21.0206 13.7284 21.0839 13.6243 21.0633C13.6173 21.062 13.6105 21.0601 13.6038 21.0579C13.517 21.0288 13.4703 20.9349 13.4994 20.8482L13.7965 19.9629C13.8241 19.8807 13.9088 19.8322 13.9936 19.85ZM12.2641 18.9223C12.3328 18.8831 12.3567 18.7957 12.313 18.7197C12.2656 18.6471 12.1714 18.6215 12.0938 18.6601L11.2577 19.076C11.1758 19.1168 11.1424 19.2162 11.1832 19.2981C11.1864 19.3045 11.1899 19.3106 11.1939 19.3165C11.2529 19.4047 11.3701 19.4323 11.4623 19.3797L12.2641 18.9223ZM11.9241 16.7325C11.9012 16.8172 11.8225 16.8621 11.7463 16.8412L10.8559 16.5977C10.7535 16.5697 10.6901 16.4673 10.7107 16.3632C10.7121 16.3562 10.7139 16.3494 10.7162 16.3426C10.7453 16.2559 10.8392 16.2092 10.9259 16.2383L11.8112 16.5354C11.8934 16.563 11.9419 16.6477 11.9241 16.7325ZM12.8518 15.003C12.891 15.0717 12.9784 15.0956 13.0544 15.0519C13.127 15.0045 13.1526 14.9103 13.114 14.8327L12.698 13.9966C12.6573 13.9147 12.5579 13.8813 12.476 13.9221C12.4696 13.9253 12.4635 13.9288 12.4576 13.9328C12.3694 13.9918 12.3418 14.109 12.3944 14.2012L12.8518 15.003Z" fill="#FECA00"/>
</g>
</g>
<rect x="4" y="2" width="41" height="30.75" fill="url(#paint0_linear_1020_4787)" style="mix-blend-mode:overlay"/>
</g>
<rect x="4.50816" y="2.50816" width="39.9837" height="29.7337" rx="1.52448" stroke="black" stroke-opacity="0.1" stroke-width="1.01632" style="mix-blend-mode:multiply"/>
</g>
<defs>
<filter id="filter0_d_1020_4787" x="0.951043" y="0.983681" width="47.0979" height="36.8479" filterUnits="userSpaceOnUse" color-interpolation-filters="sRGB">
<feFlood flood-opacity="0" result="BackgroundImageFix"/>
<feColorMatrix in="SourceAlpha" type="matrix" values="0 0 0 0 0 0 0 0 0 0 0 0 0 0 0 0 0 0 127 0" result="hardAlpha"/>
<feOffset dy="2.03264"/>
<feGaussianBlur stdDeviation="1.52448"/>
<feColorMatrix type="matrix" values="0 0 0 0 0 0 0 0 0 0 0 0 0 0 0 0 0 0 0.1 0"/>
<feBlend mode="normal" in2="BackgroundImageFix" result="effect1_dropShadow_1020_4787"/>
<feBlend mode="normal" in="SourceGraphic" in2="effect1_dropShadow_1020_4787" result="shape"/>
</filter>
<linearGradient id="paint0_linear_1020_4787" x1="24.5" y1="2" x2="24.5" y2="32.75" gradientUnits="userSpaceOnUse">
<stop stop-color="white" stop-opacity="0.7"/>
<stop offset="1" stop-opacity="0.3"/>
</linearGradient>
<clipPath id="clip0_1020_4787">
<rect x="4" y="2" width="41" height="30.75" rx="2.03264" fill="white"/>
</clipPath>
</defs>
</svg>
