<svg width="49" height="38" viewBox="0 0 49 38" fill="none" xmlns="http://www.w3.org/2000/svg">
<g filter="url(#filter0_d_1020_3999)">
<g clip-path="url(#clip0_1020_3999)">
<mask id="mask0_1020_3999" style="mask-type:luminance" maskUnits="userSpaceOnUse" x="4" y="2" width="41" height="31">
<rect x="4" y="2" width="41" height="30.75" fill="white"/>
</mask>
<g mask="url(#mask0_1020_3999)">
<path fill-rule="evenodd" clip-rule="evenodd" d="M4 2V32.75H45V2H4Z" fill="#F7FCFF"/>
<mask id="mask1_1020_3999" style="mask-type:luminance" maskUnits="userSpaceOnUse" x="4" y="2" width="41" height="31">
<path fill-rule="evenodd" clip-rule="evenodd" d="M4 2V32.75H45V2H4Z" fill="white"/>
</mask>
<g mask="url(#mask1_1020_3999)">
<path fill-rule="evenodd" clip-rule="evenodd" d="M4 2V12.25H45V2H4Z" fill="#E31D1C"/>
<path fill-rule="evenodd" clip-rule="evenodd" d="M4 22.5V32.75H45V22.5H4Z" fill="#3D58DB"/>
<rect x="16.9102" y="10.1973" width="14.6062" height="5.125" fill="#E31D1C"/>
<path d="M17.4909 13.3223H30.7818C30.8068 14.2807 30.8141 16.099 30.814 17.8389C30.8139 18.9076 30.8111 19.9365 30.8083 20.6982C30.8069 21.0791 30.8055 21.3931 30.8044 21.6119L30.8032 21.865L30.8029 21.914C30.8021 21.9191 30.8012 21.9247 30.8002 21.9309C30.7941 21.967 30.7841 22.0228 30.7689 22.0954C30.7385 22.2409 30.6875 22.4531 30.6068 22.7096C30.4448 23.2242 30.1659 23.9075 29.7002 24.5875C28.7841 25.9249 27.1219 27.291 24.0533 27.291C20.9878 27.291 19.4021 25.9257 18.5572 24.5972C18.1261 23.9195 17.8806 23.2376 17.7434 22.723C17.675 22.4667 17.6342 22.2546 17.6108 22.1091C17.5991 22.0365 17.5917 21.9807 17.5874 21.9446C17.5859 21.932 17.5848 21.9218 17.584 21.9142L17.5832 21.8494L17.5802 21.5978L17.5693 20.69C17.5603 19.9329 17.5483 18.9096 17.5363 17.8448C17.5169 16.1302 17.4977 14.3123 17.4909 13.3223Z" fill="#F7FCFF" stroke="#E31D1C" stroke-width="1.125"/>
<mask id="mask2_1020_3999" style="mask-type:luminance" maskUnits="userSpaceOnUse" x="16" y="12" width="16" height="16">
<path d="M17.4909 13.3223H30.7818C30.8068 14.2807 30.8141 16.099 30.814 17.8389C30.8139 18.9076 30.8111 19.9365 30.8083 20.6982C30.8069 21.0791 30.8055 21.3931 30.8044 21.6119L30.8032 21.865L30.8029 21.914C30.8021 21.9191 30.8012 21.9247 30.8002 21.9309C30.7941 21.967 30.7841 22.0228 30.7689 22.0954C30.7385 22.2409 30.6875 22.4531 30.6068 22.7096C30.4448 23.2242 30.1659 23.9075 29.7002 24.5875C28.7841 25.9249 27.1219 27.291 24.0533 27.291C20.9878 27.291 19.4021 25.9257 18.5572 24.5972C18.1261 23.9195 17.8806 23.2376 17.7434 22.723C17.675 22.4667 17.6342 22.2546 17.6108 22.1091C17.5991 22.0365 17.5917 21.9807 17.5874 21.9446C17.5859 21.932 17.5848 21.9218 17.584 21.9142L17.5832 21.8494L17.5802 21.5978L17.5693 20.69C17.5603 19.9329 17.5483 18.9096 17.5363 17.8448C17.5169 16.1302 17.4977 14.3123 17.4909 13.3223Z" fill="white" stroke="white" stroke-width="1.125"/>
</mask>
<g mask="url(#mask2_1020_3999)">
<path fill-rule="evenodd" clip-rule="evenodd" d="M17.4531 13.582H20.1558V16.3263H17.4531V13.582ZM20.1558 16.3272H22.8584V19.0699H25.561V16.3272H28.2637V19.0699H30.9663V21.8142H28.2637V19.0715H25.561V21.8142H22.8584V19.0715H20.1558V21.8142H17.4531V19.0699H20.1558V16.3272ZM22.8584 21.8151H20.1558V24.5594H22.8584V21.8151ZM25.561 13.582H22.8584V16.3263H25.561V13.582ZM28.2637 13.582H30.9663V16.3263H28.2637V13.582ZM30.9663 24.5602H28.2637V27.3046H30.9663V24.5602ZM22.8584 24.5602H25.561V27.3046H22.8584V24.5602ZM25.561 21.8151H28.2637V24.5594H25.561V21.8151ZM20.1558 24.5602H17.4531V27.3046H20.1558V24.5602Z" fill="#F50100"/>
</g>
<path fill-rule="evenodd" clip-rule="evenodd" d="M17.3916 12.4594C17.3916 12.4594 18.2275 12.0129 18.9405 11.7828C19.6535 11.5527 20.217 11.427 20.217 11.427L19.1562 7.51649L17.0315 6.72266L15.8281 8.70616L17.3916 12.4594Z" fill="#56C6F5" stroke="white" stroke-width="0.5"/>
<path d="M17.043 10.3177L17.2871 10.2C17.5392 10.7393 17.8716 10.9059 18.3271 10.7359C18.7924 10.5622 18.9821 10.2339 18.9152 9.71327L19.1832 9.67773C19.2663 10.324 19.0057 10.775 18.4203 10.9935C17.8252 11.2156 17.3518 10.9783 17.043 10.3177Z" fill="white"/>
<path fill-rule="evenodd" clip-rule="evenodd" d="M17.6249 9.10155L17.3619 9.26086C17.3216 9.28528 17.2715 9.25019 17.2807 9.20395L17.3404 8.90233L17.071 8.75423C17.0296 8.73153 17.035 8.67057 17.0796 8.65539L17.3707 8.55633L17.3642 8.24891C17.3632 8.20179 17.4187 8.17593 17.4541 8.20698L17.6855 8.40954L17.9485 8.25023C17.9888 8.22581 18.0389 8.2609 18.0297 8.30713L17.97 8.60876L18.2395 8.75686C18.2808 8.77956 18.2754 8.84052 18.2308 8.8557L17.9397 8.95476L17.9462 9.26218C17.9472 9.3093 17.8917 9.33516 17.8563 9.30411L17.6249 9.10155Z" fill="#FECA00"/>
<path fill-rule="evenodd" clip-rule="evenodd" d="M22.6294 11.0663C22.6294 11.0663 23.3423 11.0027 24.0914 11.0172C24.8405 11.0318 25.4741 11.0371 25.4741 11.0371L25.84 7.18121L24.2355 5.73162L22.4519 7.21528L22.6294 11.0663Z" fill="#56C6F5" stroke="white" stroke-width="0.5"/>
<path fill-rule="evenodd" clip-rule="evenodd" d="M24.1794 10.4377C24.7974 10.4377 24.8566 9.77017 24.8566 9.31548C24.6986 9.06328 24.7304 8.88281 24.2239 8.88281C23.7173 8.88281 23.6595 9.03587 23.5117 9.31548C23.5117 9.77017 23.5614 10.4377 24.1794 10.4377Z" fill="#FECA00"/>
<path fill-rule="evenodd" clip-rule="evenodd" d="M24.8747 8.55093C25.4927 8.55093 25.5519 7.88345 25.5519 7.42876C25.3939 7.17657 25.4257 6.99609 24.9192 6.99609C24.4126 6.99609 24.3548 7.14916 24.207 7.42876C24.207 7.88345 24.2567 8.55093 24.8747 8.55093Z" fill="#FECA00"/>
<path fill-rule="evenodd" clip-rule="evenodd" d="M23.5231 8.55093C24.1411 8.55093 24.2003 7.88345 24.2003 7.42876C24.0423 7.17657 24.0741 6.99609 23.5676 6.99609C23.0611 6.99609 23.0033 7.14916 22.8555 7.42876C22.8555 7.88345 22.9051 8.55093 23.5231 8.55093Z" fill="#FECA00"/>
<path d="M19.9173 11.4092L19.9894 11.6538L20.2325 11.5769L20.2326 11.5769L20.2326 11.5769L20.2326 11.5769L20.233 11.5768L20.2346 11.5763L20.2412 11.5742L20.2675 11.566C20.2905 11.5589 20.3241 11.5486 20.3661 11.536C20.45 11.5108 20.5671 11.4765 20.6993 11.4401C20.9674 11.3663 21.2852 11.2875 21.5168 11.2553C21.7567 11.222 22.0546 11.1977 22.2959 11.1817C22.4159 11.1738 22.5205 11.168 22.595 11.1642L22.6823 11.1599L22.7055 11.1589L22.7113 11.1587L22.7128 11.1586L22.7131 11.1586L22.7132 11.1586L22.7132 11.1586L22.9744 11.1478L22.952 10.8873L22.6287 7.14039L22.6188 7.02507L22.5244 6.95805L20.7784 5.71805L20.6031 5.59351L20.4537 5.74831L18.8669 7.39333L18.766 7.49799L18.8071 7.63749L19.9173 11.4092Z" fill="#2E42A5" stroke="white" stroke-width="0.5"/>
<mask id="mask3_1020_3999" style="mask-type:luminance" maskUnits="userSpaceOnUse" x="18" y="5" width="6" height="7">
<path d="M19.9173 11.4092L19.9894 11.6538L20.2325 11.5769L20.2326 11.5769L20.2326 11.5769L20.2326 11.5769L20.233 11.5768L20.2346 11.5763L20.2412 11.5742L20.2675 11.566C20.2905 11.5589 20.3241 11.5486 20.3661 11.536C20.45 11.5108 20.5671 11.4765 20.6993 11.4401C20.9674 11.3663 21.2852 11.2875 21.5168 11.2553C21.7567 11.222 22.0546 11.1977 22.2959 11.1817C22.4159 11.1738 22.5205 11.168 22.595 11.1642L22.6823 11.1599L22.7055 11.1589L22.7113 11.1587L22.7128 11.1586L22.7131 11.1586L22.7132 11.1586L22.7132 11.1586L22.9744 11.1478L22.952 10.8873L22.6287 7.14039L22.6188 7.02507L22.5244 6.95805L20.7784 5.71805L20.6031 5.59351L20.4537 5.74831L18.8669 7.39333L18.766 7.49799L18.8071 7.63749L19.9173 11.4092Z" fill="white" stroke="white" stroke-width="0.5"/>
</mask>
<g mask="url(#mask3_1020_3999)">
<path d="M19.9342 10.5028L19.6133 9.74676C20.3026 9.44503 21.467 9.25989 22.6924 9.1875L22.7395 10.0094C21.6004 10.0767 20.5228 10.2452 19.9342 10.5028Z" fill="#C51918"/>
<path d="M19.3874 8.67521L19.0664 7.91917C19.7557 7.61744 21.2374 7.37317 22.4627 7.30078L22.5098 8.12268C21.3707 8.18998 19.976 8.41757 19.3874 8.67521Z" fill="#C51918"/>
</g>
<path d="M28.3194 11.4037L28.2514 11.6556L28.0027 11.5769L28.0027 11.5769L28.0027 11.5769L28.0026 11.5769L28.0022 11.5768L28.0006 11.5763L27.994 11.5742L27.9677 11.566C27.9447 11.5589 27.9111 11.5486 27.8692 11.536C27.7852 11.5108 27.6681 11.4765 27.5359 11.4401C27.2678 11.3663 26.95 11.2875 26.7184 11.2553C26.4785 11.222 26.1806 11.1977 25.9393 11.1817C25.8194 11.1738 25.7148 11.168 25.6402 11.1642L25.5529 11.1599L25.5298 11.1589L25.5239 11.1587L25.5225 11.1586L25.5221 11.1586L25.5221 11.1586L25.5221 11.1586L25.2608 11.1478L25.2833 10.8873L25.6065 7.14039L25.6164 7.02507L25.7108 6.95805L27.4568 5.71805L27.6371 5.59L27.7862 5.75332L29.2823 7.39212L29.3748 7.49341L29.339 7.62582L28.3194 11.4037Z" fill="#2E42A5" stroke="white" stroke-width="0.5"/>
<mask id="mask4_1020_3999" style="mask-type:luminance" maskUnits="userSpaceOnUse" x="24" y="5" width="6" height="7">
<path d="M28.3194 11.4037L28.2514 11.6556L28.0027 11.5769L28.0027 11.5769L28.0027 11.5769L28.0026 11.5769L28.0022 11.5768L28.0006 11.5763L27.994 11.5742L27.9677 11.566C27.9447 11.5589 27.9111 11.5486 27.8692 11.536C27.7852 11.5108 27.6681 11.4765 27.5359 11.4401C27.2678 11.3663 26.95 11.2875 26.7184 11.2553C26.4785 11.222 26.1806 11.1977 25.9393 11.1817C25.8194 11.1738 25.7148 11.168 25.6402 11.1642L25.5529 11.1599L25.5298 11.1589L25.5239 11.1587L25.5225 11.1586L25.5221 11.1586L25.5221 11.1586L25.5221 11.1586L25.2608 11.1478L25.2833 10.8873L25.6065 7.14039L25.6164 7.02507L25.7108 6.95805L27.4568 5.71805L27.6371 5.59L27.7862 5.75332L29.2823 7.39212L29.3748 7.49341L29.339 7.62582L28.3194 11.4037Z" fill="white" stroke="white" stroke-width="0.5"/>
</mask>
<g mask="url(#mask4_1020_3999)">
<path fill-rule="evenodd" clip-rule="evenodd" d="M27.5667 10.2829C27.5667 10.2829 27.9433 10.0733 27.9976 9.71982C28.0519 9.36634 28.6346 8.93098 28.3432 8.98279C28.0519 9.03461 28.2185 9.07508 27.7967 8.98279C27.3749 8.89051 26.8289 8.82946 26.8289 8.57015C26.8289 8.31084 27.1003 8.10503 26.8785 8.10503C26.6566 8.10503 26.1834 7.85961 26.2784 8.04719C26.3735 8.23478 26.0597 8.02268 26.2166 8.41213C26.3735 8.80158 26.1834 9.19393 26.2784 9.29716C26.3735 9.4004 26.2166 9.90674 26.2166 9.90674C26.2166 9.90674 26.2742 10.0948 26.375 9.81312C26.4758 9.53145 26.6963 9.334 26.586 9.57356C26.4758 9.81312 26.3351 10.3829 26.4606 10.2829C26.586 10.1829 26.7108 9.90643 26.7108 9.81312C26.7108 9.71982 27.0274 9.35355 27.0274 9.63015C27.0274 9.90674 26.7295 10.1246 26.8785 10.1246C27.0274 10.1246 27.1109 10.1833 27.2045 9.90674C27.2981 9.63015 27.5255 9.44717 27.6188 9.63015C27.7121 9.81312 27.6914 9.80335 27.5667 10.0431C27.442 10.2829 27.5667 10.2829 27.5667 10.2829Z" fill="#FECA00"/>
<path fill-rule="evenodd" clip-rule="evenodd" d="M26.6833 8.23466L26.5431 8.00005C26.7947 7.845 27.0257 7.80369 27.2286 7.89013C27.3209 7.92944 27.3904 7.97421 27.5716 8.10164L27.5952 8.11826C27.7839 8.25056 27.8837 8.30444 27.9452 8.30444V8.57887C27.8045 8.57887 27.6828 8.51319 27.4416 8.34407L27.4177 8.32722C27.2546 8.21253 27.1917 8.17198 27.1241 8.14319C27.0118 8.09537 26.8674 8.12119 26.6833 8.23466ZM26.2418 10.0248C26.3214 10.0248 26.3859 9.96104 26.3859 9.88241C26.3859 9.80379 26.3214 9.74005 26.2418 9.74005C26.1622 9.74005 26.0977 9.80379 26.0977 9.88241C26.0977 9.96104 26.1622 10.0248 26.2418 10.0248ZM26.6562 10.1577C26.6562 10.2363 26.5917 10.3 26.5121 10.3C26.4325 10.3 26.3679 10.2363 26.3679 10.1577C26.3679 10.0791 26.4325 10.0153 26.5121 10.0153C26.5917 10.0153 26.6562 10.0791 26.6562 10.1577ZM26.9975 10.2875C27.0771 10.2875 27.1417 10.2238 27.1417 10.1452C27.1417 10.0665 27.0771 10.0028 26.9975 10.0028C26.9179 10.0028 26.8534 10.0665 26.8534 10.1452C26.8534 10.2238 26.9179 10.2875 26.9975 10.2875ZM27.5921 10.3729C27.5921 10.4515 27.5276 10.5153 27.448 10.5153C27.3684 10.5153 27.3038 10.4515 27.3038 10.3729C27.3038 10.2943 27.3684 10.2305 27.448 10.2305C27.5276 10.2305 27.5921 10.2943 27.5921 10.3729Z" fill="#C51918"/>
</g>
<path d="M31.1833 12.7101L31.2912 12.4613L32.8778 8.80569L32.9293 8.68706L32.8622 8.57649L31.6588 6.59298L31.5515 6.41603L31.3576 6.48847L29.2328 7.2823L29.1144 7.32654L29.0799 7.44813L27.9959 11.261L27.9235 11.5157L28.1819 11.5733L28.182 11.5733L28.182 11.5733L28.182 11.5733L28.1822 11.5734L28.1832 11.5736L28.1875 11.5746L28.2057 11.5788C28.2218 11.5825 28.2459 11.5881 28.2772 11.5957C28.3397 11.6107 28.4308 11.6332 28.544 11.6628C28.7706 11.7221 29.0851 11.8098 29.4362 11.9231C29.7777 12.0333 30.1538 12.1973 30.4483 12.336C30.5947 12.4049 30.7192 12.4668 30.8069 12.5113C30.8508 12.5336 30.8854 12.5515 30.9089 12.5638L30.9355 12.5778L30.9422 12.5813L30.9437 12.5821L30.9441 12.5823L30.9441 12.5823L31.1833 12.7101ZM31.1833 12.7101L30.9441 12.5823L31.1833 12.7101Z" fill="#56C6F5" stroke="white" stroke-width="0.5"/>
<mask id="mask5_1020_3999" style="mask-type:luminance" maskUnits="userSpaceOnUse" x="27" y="6" width="7" height="8">
<path d="M31.1833 12.7101L31.2912 12.4613L32.8778 8.80569L32.9293 8.68706L32.8622 8.57649L31.6588 6.59298L31.5515 6.41603L31.3576 6.48847L29.2328 7.2823L29.1144 7.32654L29.0799 7.44813L27.9959 11.261L27.9235 11.5157L28.1819 11.5733L28.182 11.5733L28.182 11.5733L28.182 11.5733L28.1822 11.5734L28.1832 11.5736L28.1875 11.5746L28.2057 11.5788C28.2218 11.5825 28.2459 11.5881 28.2772 11.5957C28.3397 11.6107 28.4308 11.6332 28.544 11.6628C28.7706 11.7221 29.0851 11.8098 29.4362 11.9231C29.7777 12.0333 30.1538 12.1973 30.4483 12.336C30.5947 12.4049 30.7192 12.4668 30.8069 12.5113C30.8508 12.5336 30.8854 12.5515 30.9089 12.5638L30.9355 12.5778L30.9422 12.5813L30.9437 12.5821L30.9441 12.5823L30.9441 12.5823L31.1833 12.7101ZM31.1833 12.7101L30.9441 12.5823L31.1833 12.7101Z" fill="white" stroke="white" stroke-width="0.5"/>
</mask>
<g mask="url(#mask5_1020_3999)">
<path fill-rule="evenodd" clip-rule="evenodd" d="M31.0683 8.52017L30.8634 8.74942C30.832 8.78455 30.7738 8.76565 30.7691 8.71876L30.738 8.41284L30.437 8.34999C30.3909 8.34036 30.3782 8.28051 30.4164 8.25294L30.6658 8.0731L30.5697 7.78101C30.555 7.73624 30.6005 7.6953 30.6435 7.71462L30.9239 7.8407L31.1288 7.61145C31.1603 7.57632 31.2184 7.59522 31.2232 7.64211L31.2542 7.94803L31.5552 8.01088C31.6014 8.02051 31.6141 8.08036 31.5759 8.10792L31.3265 8.28776L31.4225 8.57986C31.4373 8.62463 31.3918 8.66557 31.3488 8.64625L31.0683 8.52017Z" fill="#FECA00"/>
<path d="M28.3359 10.3124L28.6081 9.25C29.8134 9.56839 31.0699 9.97645 31.9917 10.371L31.5718 11.3826C30.701 11.0098 29.4934 10.6181 28.3359 10.3124Z" fill="#E31D1C"/>
<path d="M28.707 9.33104L28.7712 9.06445C29.9268 9.35122 31.155 9.80878 32.0475 10.235L31.9325 10.4833C31.0571 10.0653 29.8458 9.61365 28.707 9.33104Z" fill="white"/>
<path d="M28.3594 10.4267L28.4235 10.1602C29.5791 10.4469 30.6472 10.836 31.5397 11.2622L31.4247 11.5105C30.5493 11.0926 29.4982 10.7094 28.3594 10.4267Z" fill="white"/>
<path d="M28.8828 9.91252L29.1303 9.80078C29.2344 10.0446 29.3631 10.0983 29.5782 9.99383C30.0863 9.74698 31.3465 10.0919 31.3465 10.5571C31.3465 10.7385 31.2413 10.8486 31.0807 10.8422C30.9901 10.8386 30.8934 10.8028 30.7514 10.7326C30.7342 10.7241 30.7229 10.7184 30.695 10.7042C30.5381 10.6242 30.5262 10.6183 30.4844 10.6033L30.5738 10.3411C30.6317 10.3619 30.6408 10.3664 30.8151 10.4553C30.842 10.469 30.8525 10.4742 30.8686 10.4822C30.9773 10.536 31.0501 10.5629 31.0912 10.5645C31.095 10.5647 31.0762 10.5843 31.0762 10.5571C31.0762 10.3524 30.0505 10.0717 29.6937 10.245C29.3378 10.418 29.0468 10.2965 28.8828 9.91252Z" fill="#272727"/>
</g>
</g>
</g>
<rect x="4" y="2" width="41" height="30.75" fill="url(#paint0_linear_1020_3999)" style="mix-blend-mode:overlay"/>
</g>
<rect x="4.50816" y="2.50816" width="39.9837" height="29.7337" rx="1.52448" stroke="black" stroke-opacity="0.1" stroke-width="1.01632" style="mix-blend-mode:multiply"/>
</g>
<defs>
<filter id="filter0_d_1020_3999" x="0.951043" y="0.983681" width="47.0979" height="36.8479" filterUnits="userSpaceOnUse" color-interpolation-filters="sRGB">
<feFlood flood-opacity="0" result="BackgroundImageFix"/>
<feColorMatrix in="SourceAlpha" type="matrix" values="0 0 0 0 0 0 0 0 0 0 0 0 0 0 0 0 0 0 127 0" result="hardAlpha"/>
<feOffset dy="2.03264"/>
<feGaussianBlur stdDeviation="1.52448"/>
<feColorMatrix type="matrix" values="0 0 0 0 0 0 0 0 0 0 0 0 0 0 0 0 0 0 0.1 0"/>
<feBlend mode="normal" in2="BackgroundImageFix" result="effect1_dropShadow_1020_3999"/>
<feBlend mode="normal" in="SourceGraphic" in2="effect1_dropShadow_1020_3999" result="shape"/>
</filter>
<linearGradient id="paint0_linear_1020_3999" x1="24.5" y1="2" x2="24.5" y2="32.75" gradientUnits="userSpaceOnUse">
<stop stop-color="white" stop-opacity="0.7"/>
<stop offset="1" stop-opacity="0.3"/>
</linearGradient>
<clipPath id="clip0_1020_3999">
<rect x="4" y="2" width="41" height="30.75" rx="2.03264" fill="white"/>
</clipPath>
</defs>
</svg>
