<svg width="49" height="38" viewBox="0 0 49 38" fill="none" xmlns="http://www.w3.org/2000/svg">
<g filter="url(#filter0_d_921_2945)">
<g clip-path="url(#clip0_921_2945)">
<path fill-rule="evenodd" clip-rule="evenodd" d="M4 2V32.75H45V2H4Z" fill="#009933"/>
<mask id="mask0_921_2945" style="mask-type:alpha" maskUnits="userSpaceOnUse" x="4" y="2" width="41" height="31">
<path fill-rule="evenodd" clip-rule="evenodd" d="M4 2V32.75H45V2H4Z" fill="white"/>
</mask>
<g mask="url(#mask0_921_2945)">
<g filter="url(#filter1_d_921_2945)">
<path fill-rule="evenodd" clip-rule="evenodd" d="M24.4062 6.7458L40.0398 17.6409L24.1935 27.8445L8.88019 17.4297L24.4062 6.7458Z" fill="#FFD221"/>
<path fill-rule="evenodd" clip-rule="evenodd" d="M24.4062 6.7458L40.0398 17.6409L24.1935 27.8445L8.88019 17.4297L24.4062 6.7458Z" fill="url(#paint0_linear_921_2945)"/>
</g>
<path fill-rule="evenodd" clip-rule="evenodd" d="M24.5 24.0371C28.0381 24.0371 30.9062 21.1689 30.9062 17.6309C30.9062 14.0928 28.0381 11.2246 24.5 11.2246C20.9619 11.2246 18.0938 14.0928 18.0938 17.6309C18.0938 21.1689 20.9619 24.0371 24.5 24.0371Z" fill="#2E42A5"/>
<mask id="mask1_921_2945" style="mask-type:alpha" maskUnits="userSpaceOnUse" x="18" y="11" width="13" height="14">
<path fill-rule="evenodd" clip-rule="evenodd" d="M24.5 24.0371C28.0381 24.0371 30.9062 21.1689 30.9062 17.6309C30.9062 14.0928 28.0381 11.2246 24.5 11.2246C20.9619 11.2246 18.0938 14.0928 18.0938 17.6309C18.0938 21.1689 20.9619 24.0371 24.5 24.0371Z" fill="white"/>
</mask>
<g mask="url(#mask1_921_2945)">
<path fill-rule="evenodd" clip-rule="evenodd" d="M22.4244 20.6678L22.1382 20.8183L22.1929 20.4996L21.9613 20.2739L22.2813 20.2274L22.4244 19.9375L22.5675 20.2274L22.8874 20.2739L22.6559 20.4996L22.7106 20.8183L22.4244 20.6678Z" fill="#F7FCFF"/>
<path fill-rule="evenodd" clip-rule="evenodd" d="M24.9869 20.6678L24.7007 20.8183L24.7554 20.4996L24.5238 20.2739L24.8438 20.2274L24.9869 19.9375L25.13 20.2274L25.4499 20.2739L25.2184 20.4996L25.2731 20.8183L24.9869 20.6678Z" fill="#F7FCFF"/>
<path fill-rule="evenodd" clip-rule="evenodd" d="M24.9869 22.2049L24.7007 22.3554L24.7554 22.0367L24.5238 21.811L24.8438 21.7645L24.9869 21.4746L25.13 21.7645L25.4499 21.811L25.2184 22.0367L25.2731 22.3554L24.9869 22.2049Z" fill="#F7FCFF"/>
<path fill-rule="evenodd" clip-rule="evenodd" d="M23.7056 16.8241L23.4194 16.9745L23.4741 16.6559L23.2426 16.4302L23.5625 16.3837L23.7056 16.0938L23.8487 16.3837L24.1687 16.4302L23.9371 16.6559L23.9918 16.9745L23.7056 16.8241Z" fill="#F7FCFF"/>
<path fill-rule="evenodd" clip-rule="evenodd" d="M23.7056 19.3866L23.4194 19.537L23.4741 19.2184L23.2426 18.9927L23.5625 18.9462L23.7056 18.6562L23.8487 18.9462L24.1687 18.9927L23.9371 19.2184L23.9918 19.537L23.7056 19.3866Z" fill="#F7FCFF"/>
<path fill-rule="evenodd" clip-rule="evenodd" d="M21.9127 18.1053L21.6265 18.2558L21.6811 17.9371L21.4496 17.7114L21.7696 17.6649L21.9127 17.375L22.0557 17.6649L22.3757 17.7114L22.1442 17.9371L22.1988 18.2558L21.9127 18.1053Z" fill="#F7FCFF"/>
<path fill-rule="evenodd" clip-rule="evenodd" d="M20.1158 19.1307L19.8296 19.2812L19.8843 18.9625L19.6527 18.7368L19.9727 18.6903L20.1158 18.4004L20.2589 18.6903L20.5788 18.7368L20.3473 18.9625L20.402 19.2812L20.1158 19.1307Z" fill="#F7FCFF"/>
<path fill-rule="evenodd" clip-rule="evenodd" d="M26.0142 14.7752L25.728 14.9257L25.7827 14.607L25.5512 14.3813L25.8711 14.3349L26.0142 14.0449L26.1573 14.3349L26.4773 14.3813L26.2457 14.607L26.3004 14.9257L26.0142 14.7752Z" fill="#F7FCFF"/>
<path d="M16.7188 16.0884L16.9114 13.5332C23.0588 13.9967 27.9108 16.018 31.4062 19.6135L29.5689 21.3997C26.5393 18.2834 22.2763 16.5075 16.7188 16.0884Z" fill="#F7FCFF"/>
<path d="M19.7461 15.5845L19.8121 14.9473C23.775 15.3578 27.174 16.8756 29.999 19.4976L29.5632 19.9672C26.841 17.4406 23.572 15.9808 19.7461 15.5845Z" fill="#009933"/>
</g>
<mask id="mask2_921_2945" style="mask-type:alpha" maskUnits="userSpaceOnUse" x="4" y="2" width="41" height="31">
<rect x="4" y="2" width="41" height="30.75" fill="white"/>
</mask>
<g mask="url(#mask2_921_2945)">
<path fill-rule="evenodd" clip-rule="evenodd" d="M4 19.9375H45V32.75H4V19.9375Z" fill="#AB0403"/>
<path fill-rule="evenodd" clip-rule="evenodd" d="M4 12.25H45V19.9375H4V12.25Z" fill="#F7FCFF"/>
<path fill-rule="evenodd" clip-rule="evenodd" d="M4 2H45V14.8125H4V2Z" fill="#AB0403"/>
</g>
</g>
<mask id="mask3_921_2945" style="mask-type:alpha" maskUnits="userSpaceOnUse" x="4" y="2" width="41" height="31">
<rect x="4" y="2" width="41" height="30.75" fill="white"/>
</mask>
<g mask="url(#mask3_921_2945)">
<path fill-rule="evenodd" clip-rule="evenodd" d="M4 2H45V32.75H4V2Z" fill="#F7FCFF"/>
<path fill-rule="evenodd" clip-rule="evenodd" d="M4 20.791V23.3535H45V20.791H4Z" fill="#E31D1C"/>
<path fill-rule="evenodd" clip-rule="evenodd" d="M4 25.4902V28.0527H45V25.4902H4Z" fill="#E31D1C"/>
<path fill-rule="evenodd" clip-rule="evenodd" d="M4 11.3965V13.959H45V11.3965H4Z" fill="#E31D1C"/>
<path fill-rule="evenodd" clip-rule="evenodd" d="M4 30.1875V32.75H45V30.1875H4Z" fill="#E31D1C"/>
<path fill-rule="evenodd" clip-rule="evenodd" d="M4 16.0938V18.6562H45V16.0938H4Z" fill="#E31D1C"/>
<path fill-rule="evenodd" clip-rule="evenodd" d="M4 2V4.5625H45V2H4Z" fill="#E31D1C"/>
<path fill-rule="evenodd" clip-rule="evenodd" d="M4 6.69727V9.25977H45V6.69727H4Z" fill="#E31D1C"/>
<rect x="4" y="2" width="25.625" height="16.6562" fill="#2E42A5"/>
<path fill-rule="evenodd" clip-rule="evenodd" d="M11.3328 5.76477L10.4028 6.41679L10.7168 5.25647L9.89075 4.52115H10.9697L11.3315 3.57422L11.7558 4.52115H12.6756L11.9529 5.25647L12.2327 6.41679L11.3328 5.76477ZM6.20771 5.76496L5.27768 6.41697L5.59167 5.25666L4.76562 4.52133H5.84455L6.20641 3.5744L6.63072 4.52133H7.55048L6.82781 5.25666L7.10758 6.41697L6.20771 5.76496ZM15.5278 6.41679L16.4578 5.76477L17.3577 6.41679L17.0779 5.25647L17.8006 4.52115H16.8808L16.4565 3.57422L16.0947 4.52115H15.0157L15.8418 5.25647L15.5278 6.41679ZM21.5828 5.76477L20.6528 6.41679L20.9668 5.25647L20.1407 4.52115H21.2197L21.5815 3.57422L22.0058 4.52115H22.9256L22.2029 5.25647L22.4827 6.41679L21.5828 5.76477ZM5.2778 11.5418L6.20783 10.8898L7.1077 11.5418L6.82793 10.3815L7.5506 9.64615H6.63085L6.20653 8.69922L5.84467 9.64615H4.76575L5.59179 10.3815L5.2778 11.5418ZM11.3328 10.8898L10.4028 11.5418L10.7168 10.3815L9.89075 9.64615H10.9697L11.3315 8.69922L11.7558 9.64615H12.6756L11.9529 10.3815L12.2327 11.5418L11.3328 10.8898ZM15.5278 11.5418L16.4578 10.8898L17.3577 11.5418L17.0779 10.3815L17.8006 9.64615H16.8808L16.4565 8.69922L16.0947 9.64615H15.0157L15.8418 10.3815L15.5278 11.5418ZM21.5828 10.8898L20.6528 11.5418L20.9668 10.3815L20.1407 9.64615H21.2197L21.5815 8.69922L22.0058 9.64615H22.9256L22.2029 10.3815L22.4827 11.5418L21.5828 10.8898ZM5.2778 16.6668L6.20783 16.0148L7.1077 16.6668L6.82793 15.5065L7.5506 14.7711H6.63085L6.20653 13.8242L5.84467 14.7711H4.76575L5.59179 15.5065L5.2778 16.6668ZM11.3328 16.0148L10.4028 16.6668L10.7168 15.5065L9.89075 14.7711H10.9697L11.3315 13.8242L11.7558 14.7711H12.6756L11.9529 15.5065L12.2327 16.6668L11.3328 16.0148ZM15.5278 16.6668L16.4578 16.0148L17.3577 16.6668L17.0779 15.5065L17.8006 14.7711H16.8808L16.4565 13.8242L16.0947 14.7711H15.0157L15.8418 15.5065L15.5278 16.6668ZM21.5828 16.0148L20.6528 16.6668L20.9668 15.5065L20.1407 14.7711H21.2197L21.5815 13.8242L22.0058 14.7711H22.9256L22.2029 15.5065L22.4827 16.6668L21.5828 16.0148ZM25.7778 6.41679L26.7078 5.76477L27.6077 6.41679L27.3279 5.25647L28.0506 4.52115H27.1308L26.7065 3.57422L26.3447 4.52115H25.2657L26.0918 5.25647L25.7778 6.41679ZM26.7078 10.8898L25.7778 11.5418L26.0918 10.3815L25.2657 9.64615H26.3447L26.7065 8.69922L27.1308 9.64615H28.0506L27.3279 10.3815L27.6077 11.5418L26.7078 10.8898ZM25.7778 16.6668L26.7078 16.0148L27.6077 16.6668L27.3279 15.5065L28.0506 14.7711H27.1308L26.7065 13.8242L26.3447 14.7711H25.2657L26.0918 15.5065L25.7778 16.6668ZM8.77033 8.32727L7.8403 8.97929L8.15429 7.81897L7.32825 7.08365H8.40717L8.76903 6.13672L9.19335 7.08365H10.1131L9.39043 7.81897L9.6702 8.97929L8.77033 8.32727ZM12.9653 8.97929L13.8953 8.32727L14.7952 8.97929L14.5154 7.81897L15.2381 7.08365H14.3183L13.894 6.13672L13.5322 7.08365H12.4532L13.2793 7.81897L12.9653 8.97929ZM19.0203 8.32727L18.0903 8.97929L18.4043 7.81897L17.5782 7.08365H18.6572L19.019 6.13672L19.4433 7.08365H20.3631L19.6404 7.81897L19.9202 8.97929L19.0203 8.32727ZM7.8403 14.1043L8.77033 13.4523L9.6702 14.1043L9.39043 12.944L10.1131 12.2086H9.19335L8.76903 11.2617L8.40717 12.2086H7.32825L8.15429 12.944L7.8403 14.1043ZM13.8953 13.4523L12.9653 14.1043L13.2793 12.944L12.4532 12.2086H13.5322L13.894 11.2617L14.3183 12.2086H15.2381L14.5154 12.944L14.7952 14.1043L13.8953 13.4523ZM18.0903 14.1043L19.0203 13.4523L19.9202 14.1043L19.6404 12.944L20.3631 12.2086H19.4433L19.019 11.2617L18.6572 12.2086H17.5782L18.4043 12.944L18.0903 14.1043ZM24.1453 8.32727L23.2153 8.97929L23.5293 7.81897L22.7032 7.08365H23.7822L24.144 6.13672L24.5683 7.08365H25.4881L24.7654 7.81897L25.0452 8.97929L24.1453 8.32727ZM23.2153 14.1043L24.1453 13.4523L25.0452 14.1043L24.7654 12.944L25.4881 12.2086H24.5683L24.144 11.2617L23.7822 12.2086H22.7032L23.5293 12.944L23.2153 14.1043Z" fill="#F7FCFF"/>
</g>
<mask id="mask4_921_2945" style="mask-type:alpha" maskUnits="userSpaceOnUse" x="4" y="2" width="41" height="31">
<rect x="4" y="2" width="41" height="30.75" fill="white"/>
</mask>
<g mask="url(#mask4_921_2945)">
<path fill-rule="evenodd" clip-rule="evenodd" d="M16.8125 2H32.1875V32.75H16.8125V2Z" fill="#FBCD17"/>
<path fill-rule="evenodd" clip-rule="evenodd" d="M32.1875 2H45V32.75H32.1875V2Z" fill="#E11C1B"/>
<path fill-rule="evenodd" clip-rule="evenodd" d="M4 2H16.8125V32.75H4V2Z" fill="#2E42A5"/>
</g>
<rect x="4" y="2" width="41" height="30.75" fill="url(#paint1_linear_921_2945)" style="mix-blend-mode:overlay"/>
</g>
<rect x="4.50816" y="2.50816" width="39.9837" height="29.7337" rx="1.52448" stroke="black" stroke-opacity="0.1" stroke-width="1.01632" style="mix-blend-mode:multiply"/>
</g>
<defs>
<filter id="filter0_d_921_2945" x="0.951043" y="0.983681" width="47.0979" height="36.8479" filterUnits="userSpaceOnUse" color-interpolation-filters="sRGB">
<feFlood flood-opacity="0" result="BackgroundImageFix"/>
<feColorMatrix in="SourceAlpha" type="matrix" values="0 0 0 0 0 0 0 0 0 0 0 0 0 0 0 0 0 0 127 0" result="hardAlpha"/>
<feOffset dy="2.03264"/>
<feGaussianBlur stdDeviation="1.52448"/>
<feColorMatrix type="matrix" values="0 0 0 0 0 0 0 0 0 0 0 0 0 0 0 0 0 0 0.1 0"/>
<feBlend mode="normal" in2="BackgroundImageFix" result="effect1_dropShadow_921_2945"/>
<feBlend mode="normal" in="SourceGraphic" in2="effect1_dropShadow_921_2945" result="shape"/>
</filter>
<filter id="filter1_d_921_2945" x="8.87891" y="6.74609" width="31.1602" height="21.0977" filterUnits="userSpaceOnUse" color-interpolation-filters="sRGB">
<feFlood flood-opacity="0" result="BackgroundImageFix"/>
<feColorMatrix in="SourceAlpha" type="matrix" values="0 0 0 0 0 0 0 0 0 0 0 0 0 0 0 0 0 0 127 0" result="hardAlpha"/>
<feOffset/>
<feColorMatrix type="matrix" values="0 0 0 0 0.0313726 0 0 0 0 0.368627 0 0 0 0 0 0 0 0 0.28 0"/>
<feBlend mode="normal" in2="BackgroundImageFix" result="effect1_dropShadow_921_2945"/>
<feBlend mode="normal" in="SourceGraphic" in2="effect1_dropShadow_921_2945" result="shape"/>
</filter>
<linearGradient id="paint0_linear_921_2945" x1="45" y1="32.75" x2="45" y2="2" gradientUnits="userSpaceOnUse">
<stop stop-color="#FFC600"/>
<stop offset="1" stop-color="#FFDE42"/>
</linearGradient>
<linearGradient id="paint1_linear_921_2945" x1="24.5" y1="2" x2="24.5" y2="32.75" gradientUnits="userSpaceOnUse">
<stop stop-color="white" stop-opacity="0.7"/>
<stop offset="1" stop-opacity="0.3"/>
</linearGradient>
<clipPath id="clip0_921_2945">
<rect x="4" y="2" width="41" height="30.75" rx="2.03264" fill="white"/>
</clipPath>
</defs>
</svg>
