<svg width="49" height="38" viewBox="0 0 49 38" fill="none" xmlns="http://www.w3.org/2000/svg">
<g filter="url(#filter0_d_1020_3344)">
<g clip-path="url(#clip0_1020_3344)">
<path fill-rule="evenodd" clip-rule="evenodd" d="M4 2V32.75H45V2H4Z" fill="#FFB400"/>
<mask id="mask0_1020_3344" style="mask-type:luminance" maskUnits="userSpaceOnUse" x="4" y="2" width="41" height="31">
<path fill-rule="evenodd" clip-rule="evenodd" d="M4 2V32.75H45V2H4Z" fill="white"/>
</mask>
<g mask="url(#mask0_1020_3344)">
<mask id="mask1_1020_3344" style="mask-type:luminance" maskUnits="userSpaceOnUse" x="4" y="2" width="41" height="31">
<rect x="4" y="2" width="41" height="30.75" fill="white"/>
</mask>
<g mask="url(#mask1_1020_3344)">
<path fill-rule="evenodd" clip-rule="evenodd" d="M14.25 2H45V32.75H14.25V2Z" fill="#EF0000"/>
<path fill-rule="evenodd" clip-rule="evenodd" d="M4 2H19.375V32.75H4V2Z" fill="#2F8D00"/>
<mask id="mask2_1020_3344" style="mask-type:luminance" maskUnits="userSpaceOnUse" x="9" y="7" width="21" height="21">
<path fill-rule="evenodd" clip-rule="evenodd" d="M19.2511 27.3791C13.7924 27.3791 9.36719 22.9006 9.36719 17.3761C9.36719 11.8515 13.7924 7.37305 19.2511 7.37305C24.7099 7.37305 29.135 11.8515 29.135 17.3761C29.135 22.9006 24.7099 27.3791 19.2511 27.3791Z" fill="white"/>
</mask>
<g mask="url(#mask2_1020_3344)">
<path fill-rule="evenodd" clip-rule="evenodd" d="M18.6406 7.125H19.9219V10.5828H18.6406V7.125Z" fill="#FFE017"/>
<path fill-rule="evenodd" clip-rule="evenodd" d="M18.6406 24.4141H19.9219V27.6249H18.6406V24.4141Z" fill="#FFE017"/>
<path d="M9.52618 17.8933L9.16797 16.9742C13.1209 15.3961 16.1043 14.3784 18.1287 13.9198C21.0988 13.2469 24.3622 12.749 27.9192 12.4258L28.0065 13.4098C24.4903 13.7293 21.2687 14.2208 18.342 14.8839C16.3779 15.3289 13.4358 16.3324 9.52618 17.8933Z" fill="#FFE017"/>
<path d="M28.5221 11.8213L28.2314 12.7644C25.2439 11.8213 22.8103 11.4159 20.9396 11.5414L20.875 10.5557C22.8835 10.4208 25.4295 10.845 28.5221 11.8213Z" fill="#FFE017"/>
<path d="M29.5533 17.0958L29.0011 17.9104C27.4781 16.8531 25.6018 16.3219 23.3594 16.3219V15.334C25.7904 15.334 27.8593 15.9196 29.5533 17.0958Z" fill="#FFE017"/>
<path d="M28.7276 17.3906L28.98 18.345C25.6966 19.2343 22.614 19.7389 19.7319 19.8578C16.8299 19.9774 13.4476 19.471 9.58203 18.3424L9.85261 17.3932C13.6242 18.4943 16.905 18.9855 19.6922 18.8706C22.4992 18.7549 25.511 18.2619 28.7276 17.3906Z" fill="#FFE017"/>
<path d="M28.3585 22.0356L26.8155 23.6175C23.8831 20.6878 21.3015 18.593 19.0865 17.3344C16.8336 16.0542 13.8957 14.7543 10.2773 13.4399L11.0194 11.3477C14.7445 12.7009 17.7905 14.0486 20.1618 15.3961C22.571 16.7652 25.298 18.9779 28.3585 22.0356Z" fill="#FFE017"/>
<path d="M10.9903 22.9317L10.4062 22.1401C10.4878 22.0785 10.6333 21.9757 10.8339 21.8454C11.1649 21.6303 11.5326 21.4156 11.9281 21.2149C13.0176 20.6623 14.1104 20.3172 15.1527 20.2855C15.2037 20.284 15.2545 20.2832 15.305 20.2832V21.2712C15.2643 21.2712 15.2233 21.2718 15.182 21.273C14.3037 21.2997 13.339 21.6043 12.3656 22.0982C12.0027 22.2822 11.6646 22.4797 11.3612 22.6768C11.2556 22.7454 11.1621 22.8089 11.0821 22.8654C11.0354 22.8984 11.0044 22.9211 10.9903 22.9317Z" fill="#FFE017"/>
<path d="M11.4453 23.2747L11.6911 22.3186C14.9457 23.1757 17.4547 23.6028 19.2058 23.6028C20.9503 23.6028 23.5469 23.099 26.9786 22.0879L27.2515 23.0365C23.7386 24.0715 21.0623 24.5907 19.2058 24.5907C17.3558 24.5907 14.7732 24.1511 11.4453 23.2747Z" fill="#FFE017"/>
<path d="M10.1797 14.4222L11.7263 12.8438L13.9906 15.1162L12.4441 16.6946L10.1797 14.4222Z" fill="#FFE017"/>
<path d="M23.0039 22.3077L24.1543 20.4141L27.7464 22.6491L26.5961 24.5428L23.0039 22.3077Z" fill="#FFE017"/>
</g>
<path fill-rule="evenodd" clip-rule="evenodd" d="M9.36719 17.3761C9.36719 22.9006 13.7924 27.3791 19.2511 27.3791C24.7099 27.3791 29.135 22.9006 29.135 17.3761C29.135 11.8515 24.7099 7.37305 19.2511 7.37305C13.7924 7.37305 9.36719 11.8515 9.36719 17.3761ZM27.917 17.4991C27.917 22.2733 24.0927 26.1436 19.3753 26.1436C14.6579 26.1436 10.8336 22.2733 10.8336 17.4991C10.8336 12.7248 14.6579 8.85449 19.3753 8.85449C24.0927 8.85449 27.917 12.7248 27.917 17.4991Z" fill="#F9E813"/>
<path d="M13.8086 11.207V19.2286C14.3366 22.4036 16.1156 23.9911 19.1455 23.9911C22.1754 23.9911 23.9544 22.4036 24.4824 19.2286V11.207H13.8086Z" fill="white"/>
<path d="M13.0781 10.4668H25.2162V19.2912L25.2061 19.3523C24.6197 22.8779 22.5411 24.7328 19.1472 24.7328C15.7533 24.7328 13.6746 22.8779 13.0883 19.3523L13.0781 19.2912V10.4668Z" fill="#C51918"/>
<path d="M15.8555 13.1621H22.4407V18.852C22.4407 18.852 21.9521 21.7903 19.1481 21.7903C16.3441 21.7903 15.8555 18.852 15.8555 18.852V13.1621Z" fill="#F7FCFF"/>
<path fill-rule="evenodd" clip-rule="evenodd" d="M14.2539 11.0781H15.1801V11.6956H14.2539V11.0781Z" fill="#F9E813"/>
<path fill-rule="evenodd" clip-rule="evenodd" d="M13.7617 11.3262H15.4701V11.6349H13.7617V11.3262Z" fill="#060101"/>
<path fill-rule="evenodd" clip-rule="evenodd" d="M13.7617 11.5703H14.6879V11.879H13.7617V11.5703Z" fill="#F9E813"/>
<path fill-rule="evenodd" clip-rule="evenodd" d="M14.7383 11.5703H15.6645V11.879H14.7383V11.5703Z" fill="#F9E813"/>
<path fill-rule="evenodd" clip-rule="evenodd" d="M13.7617 12.3125H14.3792V13.2387H13.7617V12.3125Z" fill="#F9E813"/>
<path fill-rule="evenodd" clip-rule="evenodd" d="M14.9844 12.3125H15.6018V13.2387H14.9844V12.3125Z" fill="#F9E813"/>
<path fill-rule="evenodd" clip-rule="evenodd" d="M14.4922 12.3125H14.8009V13.2387H14.4922V12.3125Z" fill="#F9E813"/>
<path fill-rule="evenodd" clip-rule="evenodd" d="M13.7617 12.0664H15.4701V12.3751H13.7617V12.0664Z" fill="#060101"/>
<path fill-rule="evenodd" clip-rule="evenodd" d="M13.7617 12.8066H15.4701V13.1154H13.7617V12.8066Z" fill="#060101"/>
<path fill-rule="evenodd" clip-rule="evenodd" d="M14.0078 11.8184H14.3165V12.1271H14.0078V11.8184Z" fill="#F9E813"/>
<path fill-rule="evenodd" clip-rule="evenodd" d="M14.9844 11.8184H15.2931V12.1271H14.9844V11.8184Z" fill="#F9E813"/>
<path fill-rule="evenodd" clip-rule="evenodd" d="M14.4922 11.5703H14.8009V12.1878H14.4922V11.5703Z" fill="#F9E813"/>
<path fill-rule="evenodd" clip-rule="evenodd" d="M18.8906 11.0781H19.8168V11.6956H18.8906V11.0781Z" fill="#F9E813"/>
<path fill-rule="evenodd" clip-rule="evenodd" d="M18.3984 11.3262H20.1068V11.6349H18.3984V11.3262Z" fill="#060101"/>
<path fill-rule="evenodd" clip-rule="evenodd" d="M18.3984 11.5703H19.3246V11.879H18.3984V11.5703Z" fill="#F9E813"/>
<path fill-rule="evenodd" clip-rule="evenodd" d="M19.375 11.5703H20.3012V11.879H19.375V11.5703Z" fill="#F9E813"/>
<path fill-rule="evenodd" clip-rule="evenodd" d="M18.3984 12.3125H19.0159V13.2387H18.3984V12.3125Z" fill="#F9E813"/>
<path fill-rule="evenodd" clip-rule="evenodd" d="M19.6211 12.3125H20.2386V13.2387H19.6211V12.3125Z" fill="#F9E813"/>
<path fill-rule="evenodd" clip-rule="evenodd" d="M19.1289 12.3125H19.4376V13.2387H19.1289V12.3125Z" fill="#F9E813"/>
<path fill-rule="evenodd" clip-rule="evenodd" d="M18.3984 12.0664H20.1068V12.3751H18.3984V12.0664Z" fill="#060101"/>
<path fill-rule="evenodd" clip-rule="evenodd" d="M18.3984 12.8066H20.1068V13.1154H18.3984V12.8066Z" fill="#060101"/>
<path fill-rule="evenodd" clip-rule="evenodd" d="M18.6445 11.8184H18.9533V12.1271H18.6445V11.8184Z" fill="#F9E813"/>
<path fill-rule="evenodd" clip-rule="evenodd" d="M19.6211 11.8184H19.9298V12.1271H19.6211V11.8184Z" fill="#F9E813"/>
<path fill-rule="evenodd" clip-rule="evenodd" d="M19.1289 11.5703H19.4376V12.1878H19.1289V11.5703Z" fill="#F9E813"/>
<path fill-rule="evenodd" clip-rule="evenodd" d="M23.2852 11.0781H24.2114V11.6956H23.2852V11.0781Z" fill="#F9E813"/>
<path fill-rule="evenodd" clip-rule="evenodd" d="M22.793 11.3262H24.5013V11.6349H22.793V11.3262Z" fill="#060101"/>
<path fill-rule="evenodd" clip-rule="evenodd" d="M22.793 11.5703H23.7192V11.879H22.793V11.5703Z" fill="#F9E813"/>
<path fill-rule="evenodd" clip-rule="evenodd" d="M23.7695 11.5703H24.6957V11.879H23.7695V11.5703Z" fill="#F9E813"/>
<path fill-rule="evenodd" clip-rule="evenodd" d="M22.793 12.3125H23.4104V13.2387H22.793V12.3125Z" fill="#F9E813"/>
<path fill-rule="evenodd" clip-rule="evenodd" d="M24.0156 12.3125H24.6331V13.2387H24.0156V12.3125Z" fill="#F9E813"/>
<path fill-rule="evenodd" clip-rule="evenodd" d="M23.5234 12.3125H23.8322V13.2387H23.5234V12.3125Z" fill="#F9E813"/>
<path fill-rule="evenodd" clip-rule="evenodd" d="M22.793 12.0664H24.5013V12.3751H22.793V12.0664Z" fill="#060101"/>
<path fill-rule="evenodd" clip-rule="evenodd" d="M22.793 12.8066H24.5013V13.1154H22.793V12.8066Z" fill="#060101"/>
<path fill-rule="evenodd" clip-rule="evenodd" d="M23.0391 11.8184H23.3478V12.1271H23.0391V11.8184Z" fill="#F9E813"/>
<path fill-rule="evenodd" clip-rule="evenodd" d="M24.0156 11.8184H24.3244V12.1271H24.0156V11.8184Z" fill="#F9E813"/>
<path fill-rule="evenodd" clip-rule="evenodd" d="M23.5234 11.5703H23.8322V12.1878H23.5234V11.5703Z" fill="#F9E813"/>
<path fill-rule="evenodd" clip-rule="evenodd" d="M23.2852 15.5254H24.2114V16.1429H23.2852V15.5254Z" fill="#F9E813"/>
<path fill-rule="evenodd" clip-rule="evenodd" d="M22.793 15.7734H24.5013V16.0822H22.793V15.7734Z" fill="#060101"/>
<path fill-rule="evenodd" clip-rule="evenodd" d="M22.793 16.0176H23.7192V16.3263H22.793V16.0176Z" fill="#F9E813"/>
<path fill-rule="evenodd" clip-rule="evenodd" d="M23.7695 16.0176H24.6957V16.3263H23.7695V16.0176Z" fill="#F9E813"/>
<path fill-rule="evenodd" clip-rule="evenodd" d="M22.793 16.7598H23.4104V17.686H22.793V16.7598Z" fill="#F9E813"/>
<path fill-rule="evenodd" clip-rule="evenodd" d="M24.0156 16.7598H24.6331V17.686H24.0156V16.7598Z" fill="#F9E813"/>
<path fill-rule="evenodd" clip-rule="evenodd" d="M23.5234 16.7598H23.8322V17.686H23.5234V16.7598Z" fill="#F9E813"/>
<path fill-rule="evenodd" clip-rule="evenodd" d="M22.793 16.5137H24.5013V16.8224H22.793V16.5137Z" fill="#060101"/>
<path fill-rule="evenodd" clip-rule="evenodd" d="M22.793 17.2539H24.5013V17.5626H22.793V17.2539Z" fill="#060101"/>
<path fill-rule="evenodd" clip-rule="evenodd" d="M23.0391 16.2656H23.3478V16.5744H23.0391V16.2656Z" fill="#F9E813"/>
<path fill-rule="evenodd" clip-rule="evenodd" d="M24.0156 16.2656H24.3244V16.5744H24.0156V16.2656Z" fill="#F9E813"/>
<path fill-rule="evenodd" clip-rule="evenodd" d="M23.5234 16.0176H23.8322V16.635H23.5234V16.0176Z" fill="#F9E813"/>
<path fill-rule="evenodd" clip-rule="evenodd" d="M14.2539 15.5254H15.1801V16.1429H14.2539V15.5254Z" fill="#F9E813"/>
<path fill-rule="evenodd" clip-rule="evenodd" d="M13.7617 15.7734H15.4701V16.0822H13.7617V15.7734Z" fill="#060101"/>
<path fill-rule="evenodd" clip-rule="evenodd" d="M13.7617 16.0176H14.6879V16.3263H13.7617V16.0176Z" fill="#F9E813"/>
<path fill-rule="evenodd" clip-rule="evenodd" d="M14.7383 16.0176H15.6645V16.3263H14.7383V16.0176Z" fill="#F9E813"/>
<path fill-rule="evenodd" clip-rule="evenodd" d="M13.7617 16.7598H14.3792V17.686H13.7617V16.7598Z" fill="#F9E813"/>
<path fill-rule="evenodd" clip-rule="evenodd" d="M14.9844 16.7598H15.6018V17.686H14.9844V16.7598Z" fill="#F9E813"/>
<path fill-rule="evenodd" clip-rule="evenodd" d="M14.4922 16.7598H14.8009V17.686H14.4922V16.7598Z" fill="#F9E813"/>
<path fill-rule="evenodd" clip-rule="evenodd" d="M13.7617 16.5137H15.4701V16.8224H13.7617V16.5137Z" fill="#060101"/>
<path fill-rule="evenodd" clip-rule="evenodd" d="M13.7617 17.2539H15.4701V17.5626H13.7617V17.2539Z" fill="#060101"/>
<path fill-rule="evenodd" clip-rule="evenodd" d="M14.0078 16.2656H14.3165V16.5744H14.0078V16.2656Z" fill="#F9E813"/>
<path fill-rule="evenodd" clip-rule="evenodd" d="M14.9844 16.2656H15.2931V16.5744H14.9844V16.2656Z" fill="#F9E813"/>
<path fill-rule="evenodd" clip-rule="evenodd" d="M14.4922 16.0176H14.8009V16.635H14.4922V16.0176Z" fill="#F9E813"/>
<path fill-rule="evenodd" clip-rule="evenodd" d="M14.8516 21.0977L15.4469 20.3881L15.9199 20.785L15.3246 21.4946L14.8516 21.0977Z" fill="#F9E813"/>
<path fill-rule="evenodd" clip-rule="evenodd" d="M14.7266 21.6289L15.8247 20.3202L16.0612 20.5187L14.9631 21.8274L14.7266 21.6289Z" fill="#060101"/>
<path fill-rule="evenodd" clip-rule="evenodd" d="M14.9141 21.7891L15.5094 21.0795L15.7459 21.278L15.1506 21.9875L14.9141 21.7891Z" fill="#F9E813"/>
<path fill-rule="evenodd" clip-rule="evenodd" d="M15.5391 21.041L16.1344 20.3315L16.3709 20.53L15.7756 21.2395L15.5391 21.041Z" fill="#F9E813"/>
<path fill-rule="evenodd" clip-rule="evenodd" d="M15.4805 22.2637L15.8774 21.7907L16.5869 22.386L16.19 22.859L15.4805 22.2637Z" fill="#F9E813"/>
<path fill-rule="evenodd" clip-rule="evenodd" d="M16.2656 21.3301L16.6625 20.8571L17.372 21.4524L16.9751 21.9254L16.2656 21.3301Z" fill="#F9E813"/>
<path fill-rule="evenodd" clip-rule="evenodd" d="M15.9492 21.7031L16.1477 21.4666L16.8572 22.062L16.6587 22.2985L15.9492 21.7031Z" fill="#F9E813"/>
<path fill-rule="evenodd" clip-rule="evenodd" d="M15.2891 22.1055L16.3872 20.7968L16.6237 20.9953L15.5256 22.3039L15.2891 22.1055Z" fill="#060101"/>
<path fill-rule="evenodd" clip-rule="evenodd" d="M15.8594 22.582L16.9575 21.2734L17.194 21.4718L16.0959 22.7805L15.8594 22.582Z" fill="#060101"/>
<path fill-rule="evenodd" clip-rule="evenodd" d="M15.2617 21.7617L15.4602 21.5252L15.6967 21.7237L15.4982 21.9602L15.2617 21.7617Z" fill="#F9E813"/>
<path fill-rule="evenodd" clip-rule="evenodd" d="M15.8867 21.0117L16.0852 20.7752L16.3217 20.9737L16.1232 21.2102L15.8867 21.0117Z" fill="#F9E813"/>
<path fill-rule="evenodd" clip-rule="evenodd" d="M15.3867 21.2285L15.5852 20.992L16.0582 21.3889L15.8597 21.6254L15.3867 21.2285Z" fill="#F9E813"/>
<path fill-rule="evenodd" clip-rule="evenodd" d="M23.1914 20.5352L23.7868 21.2447L23.3137 21.6416L22.7184 20.9321L23.1914 20.5352Z" fill="#F9E813"/>
<path fill-rule="evenodd" clip-rule="evenodd" d="M22.6836 20.3203L23.7817 21.629L23.5452 21.8274L22.4471 20.5188L22.6836 20.3203Z" fill="#060101"/>
<path fill-rule="evenodd" clip-rule="evenodd" d="M22.4961 20.4805L23.0914 21.19L22.8549 21.3884L22.2596 20.6789L22.4961 20.4805Z" fill="#F9E813"/>
<path fill-rule="evenodd" clip-rule="evenodd" d="M23.125 21.2285L23.7204 21.938L23.4838 22.1365L22.8885 21.427L23.125 21.2285Z" fill="#F9E813"/>
<path fill-rule="evenodd" clip-rule="evenodd" d="M21.9297 20.9551L22.3266 21.4281L21.6171 22.0234L21.2202 21.5504L21.9297 20.9551Z" fill="#F9E813"/>
<path fill-rule="evenodd" clip-rule="evenodd" d="M22.7148 21.8926L23.1117 22.3656L22.4022 22.9609L22.0053 22.4879L22.7148 21.8926Z" fill="#F9E813"/>
<path fill-rule="evenodd" clip-rule="evenodd" d="M22.3984 21.5156L22.5969 21.7521L21.8874 22.3475L21.6889 22.111L22.3984 21.5156Z" fill="#F9E813"/>
<path fill-rule="evenodd" clip-rule="evenodd" d="M22.1172 20.7988L23.2153 22.1075L22.9788 22.3059L21.8807 20.9973L22.1172 20.7988Z" fill="#060101"/>
<path fill-rule="evenodd" clip-rule="evenodd" d="M21.5469 21.2734L22.645 22.5821L22.4085 22.7805L21.3104 21.4719L21.5469 21.2734Z" fill="#060101"/>
<path fill-rule="evenodd" clip-rule="evenodd" d="M22.4648 20.8262L22.6633 21.0627L22.4268 21.2611L22.2283 21.0246L22.4648 20.8262Z" fill="#F9E813"/>
<path fill-rule="evenodd" clip-rule="evenodd" d="M23.0898 21.5742L23.2883 21.8107L23.0518 22.0092L22.8533 21.7727L23.0898 21.5742Z" fill="#F9E813"/>
<path fill-rule="evenodd" clip-rule="evenodd" d="M22.9648 21.041L23.1633 21.2775L22.6903 21.6744L22.4918 21.4379L22.9648 21.041Z" fill="#F9E813"/>
<path fill-rule="evenodd" clip-rule="evenodd" d="M20.0901 13.7949H18.3984V15.0268C18.3984 15.0268 18.524 15.663 19.2443 15.663C19.9646 15.663 20.0901 15.0268 20.0901 15.0268V13.7949ZM19.1318 14.2897C19.1318 14.4261 19.0225 14.5366 18.8877 14.5366C18.7529 14.5366 18.6437 14.4261 18.6437 14.2897C18.6437 14.1532 18.7529 14.0427 18.8877 14.0427C19.0225 14.0427 19.1318 14.1532 19.1318 14.2897ZM18.8877 15.5226C19.0225 15.5226 19.1318 15.412 19.1318 15.2756C19.1318 15.1392 19.0225 15.0286 18.8877 15.0286C18.7529 15.0286 18.6437 15.1392 18.6437 15.2756C18.6437 15.412 18.7529 15.5226 18.8877 15.5226ZM19.8625 15.2756C19.8625 15.412 19.7532 15.5226 19.6184 15.5226C19.4837 15.5226 19.3744 15.412 19.3744 15.2756C19.3744 15.1392 19.4837 15.0286 19.6184 15.0286C19.7532 15.0286 19.8625 15.1392 19.8625 15.2756ZM19.2531 15.0296C19.3879 15.0296 19.4971 14.919 19.4971 14.7826C19.4971 14.6462 19.3879 14.5356 19.2531 14.5356C19.1183 14.5356 19.009 14.6462 19.009 14.7826C19.009 14.919 19.1183 15.0296 19.2531 15.0296ZM19.8625 14.2897C19.8625 14.4261 19.7532 14.5366 19.6184 14.5366C19.4837 14.5366 19.3744 14.4261 19.3744 14.2897C19.3744 14.1532 19.4837 14.0427 19.6184 14.0427C19.7532 14.0427 19.8625 14.1532 19.8625 14.2897Z" fill="#013399"/>
<path fill-rule="evenodd" clip-rule="evenodd" d="M20.0901 16.5117H18.3984V17.7436C18.3984 17.7436 18.524 18.3798 19.2443 18.3798C19.9646 18.3798 20.0901 17.7436 20.0901 17.7436V16.5117ZM19.1318 17.0064C19.1318 17.1429 19.0225 17.2534 18.8877 17.2534C18.7529 17.2534 18.6437 17.1429 18.6437 17.0064C18.6437 16.87 18.7529 16.7595 18.8877 16.7595C19.0225 16.7595 19.1318 16.87 19.1318 17.0064ZM18.8877 18.2394C19.0225 18.2394 19.1318 18.1288 19.1318 17.9924C19.1318 17.856 19.0225 17.7454 18.8877 17.7454C18.7529 17.7454 18.6437 17.856 18.6437 17.9924C18.6437 18.1288 18.7529 18.2394 18.8877 18.2394ZM19.8625 17.9924C19.8625 18.1288 19.7532 18.2394 19.6184 18.2394C19.4837 18.2394 19.3744 18.1288 19.3744 17.9924C19.3744 17.856 19.4837 17.7454 19.6184 17.7454C19.7532 17.7454 19.8625 17.856 19.8625 17.9924ZM19.2531 17.7464C19.3879 17.7464 19.4971 17.6358 19.4971 17.4994C19.4971 17.363 19.3879 17.2524 19.2531 17.2524C19.1183 17.2524 19.009 17.363 19.009 17.4994C19.009 17.6358 19.1183 17.7464 19.2531 17.7464ZM19.8625 17.0064C19.8625 17.1429 19.7532 17.2534 19.6184 17.2534C19.4837 17.2534 19.3744 17.1429 19.3744 17.0064C19.3744 16.87 19.4837 16.7595 19.6184 16.7595C19.7532 16.7595 19.8625 16.87 19.8625 17.0064Z" fill="#013399"/>
<path fill-rule="evenodd" clip-rule="evenodd" d="M22.2854 16.5117H20.5938V17.7436C20.5938 17.7436 20.7193 18.3798 21.4396 18.3798C22.1599 18.3798 22.2854 17.7436 22.2854 17.7436V16.5117ZM21.3271 17.0064C21.3271 17.1429 21.2178 17.2534 21.083 17.2534C20.9483 17.2534 20.839 17.1429 20.839 17.0064C20.839 16.87 20.9483 16.7595 21.083 16.7595C21.2178 16.7595 21.3271 16.87 21.3271 17.0064ZM21.083 18.2394C21.2178 18.2394 21.3271 18.1288 21.3271 17.9924C21.3271 17.856 21.2178 17.7454 21.083 17.7454C20.9483 17.7454 20.839 17.856 20.839 17.9924C20.839 18.1288 20.9483 18.2394 21.083 18.2394ZM22.0578 17.9924C22.0578 18.1288 21.9485 18.2394 21.8137 18.2394C21.679 18.2394 21.5697 18.1288 21.5697 17.9924C21.5697 17.856 21.679 17.7454 21.8137 17.7454C21.9485 17.7454 22.0578 17.856 22.0578 17.9924ZM21.4484 17.7464C21.5832 17.7464 21.6924 17.6358 21.6924 17.4994C21.6924 17.363 21.5832 17.2524 21.4484 17.2524C21.3136 17.2524 21.2043 17.363 21.2043 17.4994C21.2043 17.6358 21.3136 17.7464 21.4484 17.7464ZM22.0578 17.0064C22.0578 17.1429 21.9485 17.2534 21.8137 17.2534C21.679 17.2534 21.5697 17.1429 21.5697 17.0064C21.5697 16.87 21.679 16.7595 21.8137 16.7595C21.9485 16.7595 22.0578 16.87 22.0578 17.0064Z" fill="#013399"/>
<path fill-rule="evenodd" clip-rule="evenodd" d="M17.8909 16.5117H16.1992V17.7436C16.1992 17.7436 16.3248 18.3798 17.0451 18.3798C17.7654 18.3798 17.8909 17.7436 17.8909 17.7436V16.5117ZM16.9326 17.0064C16.9326 17.1429 16.8233 17.2534 16.6885 17.2534C16.5537 17.2534 16.4445 17.1429 16.4445 17.0064C16.4445 16.87 16.5537 16.7595 16.6885 16.7595C16.8233 16.7595 16.9326 16.87 16.9326 17.0064ZM16.6885 18.2394C16.8233 18.2394 16.9326 18.1288 16.9326 17.9924C16.9326 17.856 16.8233 17.7454 16.6885 17.7454C16.5537 17.7454 16.4445 17.856 16.4445 17.9924C16.4445 18.1288 16.5537 18.2394 16.6885 18.2394ZM17.6633 17.9924C17.6633 18.1288 17.554 18.2394 17.4192 18.2394C17.2844 18.2394 17.1752 18.1288 17.1752 17.9924C17.1752 17.856 17.2844 17.7454 17.4192 17.7454C17.554 17.7454 17.6633 17.856 17.6633 17.9924ZM17.0539 17.7464C17.1886 17.7464 17.2979 17.6358 17.2979 17.4994C17.2979 17.363 17.1886 17.2524 17.0539 17.2524C16.9191 17.2524 16.8098 17.363 16.8098 17.4994C16.8098 17.6358 16.9191 17.7464 17.0539 17.7464ZM17.6633 17.0064C17.6633 17.1429 17.554 17.2534 17.4192 17.2534C17.2844 17.2534 17.1752 17.1429 17.1752 17.0064C17.1752 16.87 17.2844 16.7595 17.4192 16.7595C17.554 16.7595 17.6633 16.87 17.6633 17.0064Z" fill="#013399"/>
<path fill-rule="evenodd" clip-rule="evenodd" d="M20.0901 19.2285H18.3984V20.4604C18.3984 20.4604 18.524 21.0966 19.2443 21.0966C19.9646 21.0966 20.0901 20.4604 20.0901 20.4604V19.2285ZM19.1318 19.7232C19.1318 19.8597 19.0225 19.9702 18.8877 19.9702C18.7529 19.9702 18.6437 19.8597 18.6437 19.7232C18.6437 19.5868 18.7529 19.4763 18.8877 19.4763C19.0225 19.4763 19.1318 19.5868 19.1318 19.7232ZM18.8877 20.9562C19.0225 20.9562 19.1318 20.8456 19.1318 20.7092C19.1318 20.5728 19.0225 20.4622 18.8877 20.4622C18.7529 20.4622 18.6437 20.5728 18.6437 20.7092C18.6437 20.8456 18.7529 20.9562 18.8877 20.9562ZM19.8625 20.7092C19.8625 20.8456 19.7532 20.9562 19.6184 20.9562C19.4837 20.9562 19.3744 20.8456 19.3744 20.7092C19.3744 20.5728 19.4837 20.4622 19.6184 20.4622C19.7532 20.4622 19.8625 20.5728 19.8625 20.7092ZM19.2531 20.4632C19.3879 20.4632 19.4971 20.3526 19.4971 20.2162C19.4971 20.0798 19.3879 19.9692 19.2531 19.9692C19.1183 19.9692 19.009 20.0798 19.009 20.2162C19.009 20.3526 19.1183 20.4632 19.2531 20.4632ZM19.8625 19.7232C19.8625 19.8597 19.7532 19.9702 19.6184 19.9702C19.4837 19.9702 19.3744 19.8597 19.3744 19.7232C19.3744 19.5868 19.4837 19.4763 19.6184 19.4763C19.7532 19.4763 19.8625 19.5868 19.8625 19.7232Z" fill="#013399"/>
</g>
</g>
<rect x="4" y="2" width="41" height="30.75" fill="url(#paint0_linear_1020_3344)" style="mix-blend-mode:overlay"/>
</g>
<rect x="4.50816" y="2.50816" width="39.9837" height="29.7337" rx="1.52448" stroke="black" stroke-opacity="0.1" stroke-width="1.01632" style="mix-blend-mode:multiply"/>
</g>
<defs>
<filter id="filter0_d_1020_3344" x="0.951043" y="0.983681" width="47.0979" height="36.8479" filterUnits="userSpaceOnUse" color-interpolation-filters="sRGB">
<feFlood flood-opacity="0" result="BackgroundImageFix"/>
<feColorMatrix in="SourceAlpha" type="matrix" values="0 0 0 0 0 0 0 0 0 0 0 0 0 0 0 0 0 0 127 0" result="hardAlpha"/>
<feOffset dy="2.03264"/>
<feGaussianBlur stdDeviation="1.52448"/>
<feColorMatrix type="matrix" values="0 0 0 0 0 0 0 0 0 0 0 0 0 0 0 0 0 0 0.1 0"/>
<feBlend mode="normal" in2="BackgroundImageFix" result="effect1_dropShadow_1020_3344"/>
<feBlend mode="normal" in="SourceGraphic" in2="effect1_dropShadow_1020_3344" result="shape"/>
</filter>
<linearGradient id="paint0_linear_1020_3344" x1="24.5" y1="2" x2="24.5" y2="32.75" gradientUnits="userSpaceOnUse">
<stop stop-color="white" stop-opacity="0.7"/>
<stop offset="1" stop-opacity="0.3"/>
</linearGradient>
<clipPath id="clip0_1020_3344">
<rect x="4" y="2" width="41" height="30.75" rx="2.03264" fill="white"/>
</clipPath>
</defs>
</svg>
