<svg xmlns="http://www.w3.org/2000/svg" viewBox="0 0 1389.95 159.99"><defs><style>.cls-1{fill:#fff;}.cls-2{fill:#409cff;}</style></defs><title>seobrothers group 4</title><g id="Слой_2" data-name="Слой 2"><g id="Слой_1-2" data-name="Слой 1"><path class="cls-1" d="M354.36,120.93q0,11.16-2,17.64a26.69,26.69,0,0,1-6.66,11.52q-8.1,8.46-26.64,8.46H282V30.39h37.08q18.18,0,26.82,8.28a23.94,23.94,0,0,1,6.48,10.44q2,5.76,2,16.2,0,14.58-7,21.6a22.79,22.79,0,0,1-5.94,4.32,19.81,19.81,0,0,1,5.94,4.5Q354.36,102.93,354.36,120.93Zm-28.44,10.8Q328.8,128,328.8,119t-2.88-12.78q-2.88-3.78-10.26-3.78h-8.1v33.12h8.1Q323.22,135.51,325.92,131.73Zm2.88-64.62q0-7.38-2.7-10.44-2.7-3.24-10.08-3.24h-8.46V80.79H316q7.2,0,9.9-3.24Q328.8,74.31,328.8,67.11Z"/><path class="cls-1" d="M448.85,158.55H422.21l-15.66-49.86h-8.46v49.86H372.53V30.39h36.54q20,0,27.72,9.72,7.92,9.72,7.92,29.34,0,11.88-3.06,20.16-2.88,8.1-11.52,13.5Zm-29.7-89.1a42.58,42.58,0,0,0-.54-7.56,10.15,10.15,0,0,0-2.88-5.76q-2.34-2.7-6.84-2.7h-10.8V85.65h10.8a11,11,0,0,0,5.58-1.26,7.47,7.47,0,0,0,3.24-4.14,21.16,21.16,0,0,0,1.08-5A38.76,38.76,0,0,0,419.15,69.45Z"/><path class="cls-1" d="M532,61.17q1.8,11.52,1.8,33.3T532,128q-1.62,11.52-7.74,19.08-10.44,13-28.08,13t-28.08-13Q462,139.47,460.19,128q-1.62-11.7-1.62-33.48t1.62-33.3q1.8-11.7,7.92-19.26,10.44-13,28.08-13t28.08,13Q530.39,49.47,532,61.17Zm-27.18,70.74q3.42-6.66,3.42-37.44T504.83,57q-2.52-5-8.64-5t-8.64,5q-3.42,6.66-3.42,37.44t3.42,37.44q2.52,5,8.64,5T504.83,131.91Z"/><path class="cls-1" d="M609.71,53.43h-21.6V158.55H562.55V53.43H541v-23h68.76Z"/><path class="cls-1" d="M695.55,158.55H670V104.91H648.75v53.64H623.19V30.39h25.56V81.87H670V30.39h25.56Z"/><path class="cls-1" d="M774.34,158.55h-59V30.39h59v23H740.86v29h28.8v23h-28.8v30.06h33.48Z"/><path class="cls-1" d="M866.33,158.55H839.69L824,108.69h-8.46v49.86H790V30.39h36.54q20,0,27.72,9.72,7.92,9.72,7.92,29.34,0,11.88-3.06,20.16-2.88,8.1-11.52,13.5Zm-29.7-89.1a42.58,42.58,0,0,0-.54-7.56,10.15,10.15,0,0,0-2.88-5.76q-2.34-2.7-6.84-2.7h-10.8V85.65h10.8a11,11,0,0,0,5.58-1.26,7.47,7.47,0,0,0,3.24-4.14,21.16,21.16,0,0,0,1.08-5A38.76,38.76,0,0,0,836.63,69.45Z"/><path class="cls-1" d="M948.93,122q0,20.34-8.28,28.44-9.9,9.54-27.9,9.54-18.36,0-27.72-9.36-8.46-8.46-8.46-28.44h25.56q0,8.64,2.7,11.7t7.92,3.06q5.58,0,8.1-3.24,2.52-3.06,2.52-10.8,0-9-2.16-12.06-2-3.24-9-6.12L896,98.07q-10.08-4.14-14.22-11t-4.14-21.24q0-18.54,11.52-28.44,9.54-8.1,23.58-8.1,16.56,0,25.2,8.1,9.9,9.18,9.9,29.7H922.29q0-8.64-2.16-11.52-2.34-3.24-7.38-3.24a8.59,8.59,0,0,0-7.38,3.42q-2.16,2.88-2.16,9.18,0,6.12,1.62,8.64t7.2,4.86l16,6.48q12.24,5,16.56,12.6Q948.93,104.91,948.93,122Z"/><path class="cls-1" d="M72.36,122q0,20.34-8.28,28.44Q54.18,160,36.18,160q-18.36,0-27.72-9.36Q0,142.17,0,122.19H25.56q0,8.64,2.7,11.7T36.18,137q5.58,0,8.1-3.24,2.52-3.06,2.52-10.8,0-9-2.16-12.06-2-3.24-9-6.12l-16.2-6.66q-10.08-4.14-14.22-11T1.08,65.85q0-18.54,11.52-28.44,9.54-8.1,23.58-8.1,16.56,0,25.2,8.1,9.9,9.18,9.9,29.7H45.72q0-8.64-2.16-11.52-2.34-3.24-7.38-3.24a8.59,8.59,0,0,0-7.38,3.42Q26.64,58.65,26.64,65q0,6.12,1.62,8.64t7.2,4.86l16,6.48Q63.72,90,68,97.53,72.36,104.91,72.36,122Z"/><path class="cls-1" d="M147.38,158.55h-59V30.39h59v23H113.9v29h28.8v23H113.9v30.06h33.48Z"/><path class="cls-2" d="M228.82,16.57c-6.75,8.75-10.94,20.92-11.33,22.07L204.09,34l13.52-15.58A7.25,7.25,0,0,1,224,16Zm9.83,37.75s13-6.52,20.22-14.79c18-20.78,13.72-35.71,12.43-39-3.49-.84-18.88-3-36.91,17.82-7.18,8.27-11.79,22.1-11.79,22.1Zm22.73-9.52c-7.71,7.91-19.17,13.78-20.26,14.33l6.49,12.61,13.52-15.58a7.25,7.25,0,0,0,1.52-6.64ZM231.11,58.47a10.77,10.77,0,0,1-2.62,7.84C224.54,70.85,207,74.63,207,74.63s1.26-17.92,5.2-22.46a10.79,10.79,0,0,1,18.94,6.31Zm12.08-33.35a7.2,7.2,0,1,1,7.7,6.68A7.22,7.22,0,0,1,243.19,25.12Z"/><path class="cls-1" d="M196,29q-17,.32-27.19,13-6.12,7.56-7.92,19.26-1.62,11.52-1.62,33.3T160.89,128q1.8,11.52,7.92,19.08,10.44,13,28.08,13T225,147q6.12-7.56,7.74-19.08,1.8-11.7,1.8-33.48,0-4.7-.08-8.92H208.87q.08,4.17.08,8.92,0,30.78-3.42,37.44-2.52,5-8.64,5t-8.64-5q-3.42-6.66-3.42-37.44T188.25,57A8.7,8.7,0,0,1,196,52Z"/><path class="cls-2" d="M1041.56,121.44q0,18.49-9.51,28.52t-25.88,10q-17.26,0-27.46-12.67-6-7.39-7.66-18.75t-1.67-32.66q0-21.3,1.67-32.66t7.66-18.75q10.21-12.68,27.46-12.68,15,0,24.65,9.33,9.86,9.86,10.74,28h-25q-.53-14.79-10.39-14.79-6,0-8.45,4.93-3.34,6.51-3.34,36.62t3.34,36.62q2.46,4.93,8.45,4.93,10.38,0,10.39-14.61v-13h-10.39V89.58h35.38Z"/><path class="cls-2" d="M1132.22,158.58h-26.05l-15.32-48.76h-8.27v48.76h-25V33.24h35.74q19.54,0,27.2,9.51t7.66,28.69q0,11.62-2.9,19.63t-11.36,13.29Zm-29-87.14a52.07,52.07,0,0,0-.44-7.48,10.69,10.69,0,0,0-2.82-5.55,8.65,8.65,0,0,0-6.78-2.64h-10.56V87.29h10.56a10.64,10.64,0,0,0,5.55-1.32,7,7,0,0,0,3.08-4,24.58,24.58,0,0,0,1.14-4.93A50.49,50.49,0,0,0,1103.18,71.44Z"/><path class="cls-2" d="M1213.64,63.26q1.67,11.35,1.67,32.66t-1.67,32.66q-1.68,11.35-7.66,18.75Q1195.77,160,1178.52,160t-27.46-12.67q-6-7.39-7.66-18.75t-1.67-32.66q0-21.3,1.67-32.66t7.66-18.75q10.21-12.68,27.46-12.68T1206,44.51Q1212,51.9,1213.64,63.26Zm-23.33,32.66q0-30.1-3.35-36.62-2.47-4.93-8.45-4.93t-8.45,4.93q-3.34,6.51-3.34,36.62t3.34,36.62q2.46,4.93,8.45,4.93t8.45-4.93Q1190.31,126,1190.32,95.91Z"/><path class="cls-2" d="M1300.87,125q0,15-9.33,24.65-10,10.39-26.05,10.39t-26.05-10.39q-9.33-9.68-9.33-24.65V33.24h25v93q0,5.81,2.91,8.54a11.62,11.62,0,0,0,15,0q2.91-2.73,2.91-8.54v-93h25Z"/><path class="cls-2" d="M1382,43.36q7.92,10.13,7.92,29.84T1382,103q-7.92,10.12-27.29,10.12h-10.39v45.42h-25V33.24h35.39Q1374.1,33.24,1382,43.36Zm-17.34,36.09a59.15,59.15,0,0,0,.26-6.25,59.23,59.23,0,0,0-.26-6.25,26,26,0,0,0-1.23-5.28,8,8,0,0,0-3.35-4.4,11.24,11.24,0,0,0-6.07-1.5h-9.68V90.63H1354a11.21,11.21,0,0,0,6.07-1.5,8,8,0,0,0,3.35-4.4A26,26,0,0,0,1364.69,79.45Z"/></g></g></svg>