<svg width="495" height="495" viewBox="0 0 495 495" fill="none" xmlns="http://www.w3.org/2000/svg">
<mask id="mask0_152_91" style="mask-type:luminance" maskUnits="userSpaceOnUse" x="47" y="90" width="401" height="316">
<path d="M447.703 90H47.2891V405.22H447.703V90Z" fill="white"/>
</mask>
<g mask="url(#mask0_152_91)">
<path opacity="0.8" d="M114.154 222.167C117.671 222.123 121.161 222.789 124.412 224.125C127.663 225.461 130.608 227.44 133.069 229.941C135.541 232.398 137.501 235.315 138.839 238.527C140.177 241.738 140.866 245.181 140.866 248.658C140.866 252.134 140.177 255.577 138.839 258.789C137.501 262 135.541 264.918 133.069 267.374C130.531 269.87 127.523 271.841 124.218 273.175C120.912 274.509 117.374 275.18 113.807 275.148C108.559 275.115 103.438 273.536 99.0904 270.61C94.7426 267.684 91.3625 263.542 89.3768 258.707C87.3907 253.872 86.8877 248.56 87.9309 243.441C88.9742 238.321 91.517 233.624 95.2388 229.941C97.6951 227.434 100.639 225.451 103.892 224.115C107.144 222.778 110.636 222.115 114.154 222.167ZM66.7798 201.881C53.827 214.853 47.2871 230.355 47.2871 248.698C47.2871 267.041 53.827 282.52 66.7451 295.504C79.6631 308.487 95.3659 314.87 113.807 314.87C132.248 314.87 147.789 308.395 160.835 295.504C173.071 283.325 179.495 268.95 180.258 252.194C180.339 250.975 180.339 249.894 180.339 248.744V247.019C179.911 229.504 173.406 214.496 160.835 201.892C147.812 188.897 132.387 182.549 113.98 182.549C95.5738 182.549 79.7902 188.897 66.7451 201.869" fill="#7FF800"/>
<path opacity="0.8" d="M247.702 222.167C251.238 222.112 254.748 222.772 258.019 224.109C261.291 225.445 264.255 227.429 266.732 229.941C269.204 232.398 271.165 235.315 272.503 238.527C273.841 241.738 274.53 245.181 274.53 248.658C274.53 252.134 273.841 255.577 272.503 258.789C271.165 262 269.204 264.918 266.732 267.374C264.244 269.871 261.277 271.845 258.009 273.18C254.74 274.515 251.235 275.185 247.702 275.148C242.435 275.158 237.284 273.61 232.903 270.701C228.521 267.791 225.107 263.652 223.094 258.808C221.081 253.964 220.559 248.634 221.596 243.494C222.632 238.355 225.179 233.637 228.914 229.941C231.339 227.428 234.26 225.439 237.492 224.102C240.725 222.764 244.201 222.105 247.702 222.167ZM200.467 201.869C194.167 207.929 189.185 215.212 185.832 223.268C182.479 231.324 180.825 239.979 180.974 248.698C180.829 257.414 182.485 266.066 185.84 274.118C189.195 282.169 194.178 289.449 200.478 295.504C206.615 301.759 213.969 306.703 222.09 310.032C230.212 313.362 238.931 315.008 247.713 314.87C266.028 314.87 281.569 308.395 294.522 295.504C306.758 283.325 313.136 268.95 313.933 252.194C313.933 250.975 314.014 249.894 314.014 248.744V247.019C313.936 238.586 312.175 230.252 308.835 222.501C305.495 214.751 300.641 207.738 294.556 201.869C281.592 188.885 266.062 182.549 247.748 182.549C229.434 182.549 213.431 188.897 200.467 201.869Z" fill="#7FF800"/>
<path opacity="0.8" d="M381.307 222.422C384.844 222.317 388.365 222.932 391.652 224.232C394.943 225.531 397.929 227.487 400.429 229.978C402.905 232.428 404.867 235.342 406.208 238.549C407.547 241.757 408.236 245.197 408.236 248.672C408.236 252.146 407.547 255.586 406.208 258.794C404.867 262.002 402.905 264.915 400.429 267.365C397.926 269.868 394.943 271.846 391.658 273.183C388.376 274.52 384.855 275.189 381.307 275.151C376.057 275.133 370.931 273.569 366.574 270.655C362.214 267.741 358.824 263.608 356.823 258.777C354.822 253.946 354.307 248.634 355.335 243.511C356.367 238.387 358.897 233.683 362.611 229.99C365.027 227.503 367.937 225.546 371.157 224.244C374.376 222.943 377.832 222.327 381.307 222.434V222.422ZM334.153 201.872C327.849 207.93 322.868 215.214 319.513 223.269C316.157 231.325 314.501 239.981 314.648 248.7C314.503 257.416 316.159 266.068 319.515 274.12C322.871 282.172 327.852 289.451 334.153 295.506C340.28 301.754 347.62 306.697 355.726 310.034C363.832 313.371 372.536 315.033 381.307 314.918C390.043 315.043 398.71 313.385 406.776 310.046C414.844 306.707 422.135 301.759 428.205 295.506C440.443 283.327 446.82 268.952 447.618 252.196C447.618 250.977 447.699 249.897 447.699 248.746V247.021C447.613 238.589 445.843 230.258 442.495 222.511C439.146 214.765 434.286 207.757 428.195 201.895C415.232 188.911 399.62 182.574 381.296 182.574C362.969 182.574 347.197 188.899 334.153 201.872Z" fill="#7FF800"/>
<path opacity="0.8" d="M113.801 129.692C117.366 129.628 120.906 130.284 124.209 131.621C127.512 132.957 130.508 134.945 133.017 137.466C135.545 139.87 137.548 142.768 138.9 145.977C140.252 149.187 140.924 152.64 140.874 156.119C140.935 159.613 140.268 163.081 138.916 166.305C137.564 169.529 135.555 172.44 133.017 174.853C130.494 177.346 127.494 179.311 124.196 180.632C120.898 181.953 117.368 182.604 113.813 182.547C110.347 182.595 106.908 181.938 103.707 180.615C100.506 179.292 97.6102 177.331 95.1985 174.853C92.6752 172.431 90.6797 169.517 89.3359 166.295C87.9921 163.072 87.3289 159.608 87.3876 156.119C87.3409 152.644 88.0098 149.196 89.353 145.988C90.6965 142.78 92.6858 139.88 95.1985 137.466C97.5928 134.96 100.483 132.975 103.687 131.637C106.891 130.299 110.339 129.637 113.813 129.692H113.801ZM180.241 159.685C180.321 158.465 180.321 157.384 180.321 156.235V154.509C180.227 146.085 178.455 137.763 175.107 130.024C171.759 122.286 166.902 115.286 160.817 109.429C154.737 103.155 147.426 98.1929 139.338 94.8495C131.25 91.5061 122.558 89.8533 113.801 89.9935C105.039 89.846 96.3398 91.4931 88.2438 94.8326C80.1478 98.172 72.8283 103.132 66.7394 109.406C53.7867 122.389 47.2815 137.892 47.2815 156.2C47.1431 164.91 48.7981 173.557 52.1445 181.607C55.491 189.657 60.4579 196.939 66.7394 203.006C79.7846 215.897 95.3603 222.165 113.801 222.165C132.243 222.165 147.807 215.897 160.829 203.006C172.715 191.632 179.683 176.097 180.252 159.696" fill="#7FF800"/>
<path opacity="0.8" d="M247.702 129.698C251.239 129.633 254.752 130.289 258.025 131.626C261.298 132.963 264.261 134.953 266.733 137.472C269.245 139.886 271.235 142.786 272.578 145.994C273.921 149.202 274.59 152.65 274.543 156.125C274.603 159.614 273.94 163.078 272.596 166.301C271.252 169.524 269.256 172.437 266.733 174.859C264.243 177.349 261.275 179.314 258.005 180.635C254.735 181.957 251.231 182.61 247.702 182.553C244.207 182.56 240.745 181.882 237.514 180.556C234.283 179.23 231.347 177.283 228.873 174.826C226.399 172.369 224.436 169.451 223.097 166.238C221.758 163.025 221.069 159.581 221.069 156.102C221.017 152.624 221.688 149.171 223.038 145.962C224.387 142.752 226.388 139.854 228.914 137.449C231.335 134.93 234.254 132.938 237.488 131.6C240.722 130.262 244.2 129.606 247.702 129.675V129.698ZM313.933 159.691C313.933 158.471 314.014 157.39 314.014 156.241V154.515C313.939 146.088 312.181 137.761 308.84 130.017C305.499 122.274 300.644 115.269 294.556 109.412C288.51 103.14 281.227 98.1791 273.165 94.8388C265.102 91.4984 256.434 89.8509 247.702 89.9995C229.342 89.9995 213.431 96.4281 200.467 109.412C194.166 115.467 189.184 122.746 185.828 130.798C182.473 138.85 180.817 147.502 180.962 156.217C180.813 164.934 182.467 173.587 185.823 181.64C189.178 189.692 194.163 196.971 200.467 203.023C213.431 215.915 229.353 222.182 247.702 222.182C266.051 222.182 281.557 215.926 294.51 203.023C306.379 191.639 313.339 176.11 313.922 159.713" fill="#7FF800"/>
<path opacity="0.8" d="M400.418 137.471C402.937 139.88 404.933 142.779 406.277 145.988C407.62 149.198 408.285 152.648 408.228 156.125C408.296 159.615 407.637 163.081 406.293 166.305C404.949 169.529 402.948 172.441 400.418 174.859C397.913 177.354 394.929 179.321 391.644 180.643C388.357 181.965 384.839 182.614 381.296 182.552C377.816 182.612 374.36 181.959 371.146 180.636C367.929 179.313 365.022 177.346 362.6 174.859C360.07 172.441 358.069 169.529 356.726 166.305C355.382 163.081 354.722 159.615 354.787 156.125C354.733 152.648 355.398 149.198 356.742 145.988C358.086 142.779 360.081 139.88 362.6 137.471C365.003 134.955 367.907 132.964 371.124 131.625C374.344 130.287 377.808 129.63 381.296 129.697C384.847 129.631 388.373 130.287 391.661 131.623C394.948 132.96 397.929 134.95 400.418 137.471ZM447.689 156.205V154.48C447.605 146.054 445.835 137.729 442.488 129.989C439.138 122.25 434.276 115.251 428.184 109.4C422.128 103.136 414.839 98.1813 406.773 94.8435C398.708 91.5058 390.04 89.8566 381.307 89.9987C372.533 89.8611 363.822 91.5124 355.713 94.8509C347.602 98.1894 340.267 103.144 334.153 109.411C327.852 115.466 322.868 122.745 319.513 130.797C316.159 138.849 314.502 147.501 314.648 156.217C314.499 164.933 316.154 173.586 319.51 181.639C322.866 189.691 327.85 196.97 334.153 203.022C340.28 209.27 347.618 214.213 355.727 217.55C363.833 220.888 372.536 222.549 381.307 222.435C390.043 222.559 398.711 220.901 406.776 217.562C414.844 214.224 422.136 209.275 428.206 203.022C440.077 191.638 447.037 176.109 447.618 159.713C447.618 158.494 447.7 157.413 447.7 156.263" fill="#7FF800"/>
<path d="M98.5293 374.678V374.469C98.5293 357.369 111.147 344.386 128.329 344.386C133.967 344.262 139.51 345.852 144.217 348.945C148.924 352.037 152.571 356.484 154.673 361.694L144.921 366.005C141.963 360.037 136.394 354.954 128.329 354.954C117.814 354.954 109.968 363.005 109.968 374.366V374.586C109.968 386.085 118.16 393.998 128.536 393.998C132.177 394.039 135.741 392.956 138.736 390.896C141.731 388.835 144.009 385.901 145.256 382.496L155.262 386.028C151.253 397.24 141.501 404.762 128.329 404.762C111.274 404.762 98.5293 391.952 98.5293 374.768" fill="#7FF800"/>
<path d="M210.937 374.343C210.937 363.003 202.41 354.929 191.907 354.929C181.611 354.929 173.211 362.979 173.211 374.343V374.549C173.211 386.048 181.819 393.962 192.126 393.962C202.768 393.962 210.949 386.027 210.949 374.549L210.937 374.343ZM222.931 345.591V403.482H211.746V393.237C207.529 400.298 200.561 404.736 190.948 404.736C173.893 404.736 161.818 391.926 161.818 374.744V374.524C161.818 357.424 173.8 344.406 190.948 344.406C200.619 344.406 207.575 348.73 211.746 355.792V345.625L222.931 345.591Z" fill="#7FF800"/>
<path d="M232.76 395.64L237.324 387.452C242.637 392.567 249.652 395.558 257.036 395.86C264.339 395.86 268.776 392.882 268.776 388.258C268.776 385.153 266.534 382.506 259.451 379.851C242.732 373.675 237.497 369.18 237.497 360.438C237.624 350.652 246.914 344.143 258.515 344.338C265.164 344.435 271.593 346.724 276.794 350.847L273.802 359.794C270.936 357.575 263.842 353.952 258.434 353.952C253.997 353.826 248.763 355.378 248.763 360.208C248.763 363.864 252.564 366.384 260.075 369.408C272.277 374.365 279.452 378.437 279.579 387.601C279.533 398.205 271.087 405.106 257.036 405.22C245.597 405.22 236.527 399.584 232.771 395.64" fill="#7FF800"/>
<path d="M290.26 345.556H301.491V403.449H290.306L290.26 345.556ZM289.578 330.606C289.575 328.867 290.259 327.197 291.483 325.955C292.706 324.714 294.371 324.001 296.118 323.971C297.859 324.021 299.512 324.74 300.731 325.977C301.95 327.214 302.641 328.873 302.658 330.606C302.649 332.327 301.956 333.973 300.731 335.187C299.505 336.4 297.847 337.081 296.118 337.081C295.26 337.092 294.407 336.932 293.611 336.611C292.815 336.289 292.091 335.813 291.482 335.211C290.873 334.608 290.391 333.89 290.064 333.099C289.737 332.309 289.572 331.461 289.578 330.606Z" fill="#7FF800"/>
<path d="M317.943 345.559H329.128V355.185C330.773 352.019 333.243 349.353 336.281 347.467C339.319 345.581 342.81 344.544 346.391 344.467C361.794 344.467 369.316 353.288 369.316 369.295V403.452H358.107V370.18C358.107 360.223 353.126 355.058 344.599 355.058C336.406 355.058 330.203 360.809 329.104 369.388V403.462H317.92L317.943 345.559Z" fill="#7FF800"/>
<path d="M428.033 374.548V374.342C428.033 363.002 419.504 354.929 408.954 354.929C398.66 354.929 390.261 362.978 390.261 374.342V374.548C390.261 386.047 398.869 393.961 409.21 393.961C419.851 393.961 428.033 386.026 428.033 374.548ZM378.936 374.676V374.467C378.936 357.367 391.89 344.383 409.071 344.383C426.252 344.383 439.299 357.033 439.299 374.214V374.456C439.299 391.637 426.345 404.667 409.071 404.667C392.015 404.667 378.936 391.857 378.936 374.676Z" fill="#7FF800"/>
</g>
</svg>
