<svg width="995" height="311" viewBox="0 0 995 311" fill="none" xmlns="http://www.w3.org/2000/svg">
<path d="M43.0602 130.84C37.0602 124.173 30.7269 117.84 24.0602 111.84C20.1702 107.84 16.3902 103.7 12.3502 99.8397C9.26019 96.8997 7.71019 93.5397 8.13019 89.2897C8.31929 87.9606 8.8083 86.6919 9.56019 85.5797C12.4002 81.4297 16.4302 78.3997 19.7902 74.7397C23.5502 70.3597 27.5202 66.173 31.7002 62.1797C33.0002 60.9997 34.0002 59.3297 36.0002 59.1397C46.4469 48.8397 56.8802 38.543 67.3002 28.2497C72.9935 22.6497 78.7269 17.093 84.5002 11.5797C89.5902 6.70968 94.0902 6.82968 99.3202 11.7297C102.2 14.4297 104.54 17.7297 108 19.7997C116.667 28.653 125.334 37.5064 134 46.3597C135.26 47.6497 136.66 48.7997 138 50.0197C143.033 55.6454 148.374 60.9869 154 66.0197C159.58 71.7197 165.14 77.4297 170.75 83.0997C172.6 84.7801 174.135 86.7783 175.28 88.9997C176.06 93.5297 174.28 96.9097 171.08 100.09C157.16 113.92 143.4 127.91 129.58 141.84C128.76 144.93 125.98 146.41 123.98 148.49C118.85 153.84 113.54 159 108.29 164.23C104.76 167.08 102.57 171.44 98.1002 173.23C91.7202 176.59 88.9202 176.08 83.6102 171.02C76.3702 164.11 69.9202 156.38 62.0502 150.13C56.1411 143.298 49.798 136.855 43.0602 130.84Z" fill="#FEFEFE"/>
<path d="M333.07 180C331.253 170.427 327.874 161.217 323.07 152.74C319.952 145.271 315.922 138.218 311.07 131.74C306.206 123.512 300.509 115.805 294.07 108.74C289.096 101.985 283.552 95.6686 277.5 89.86C268.409 79.7299 258.593 70.2749 248.13 61.57C238.917 52.9107 229.189 44.8159 219 37.33C218.954 37.1838 218.857 37.059 218.727 36.9782C218.596 36.8975 218.441 36.8662 218.29 36.89C217.477 35.7104 216.332 34.7985 215 34.27C207.399 27.9525 199.399 22.1305 191.05 16.84C186.32 13.56 181.56 10.32 176.86 6.98C176.379 6.54572 175.753 6.30535 175.105 6.30535C174.457 6.30535 173.831 6.54572 173.35 6.98C166.53 11.56 159.43 15.76 153 21C147.38 25 141.67 28.92 136.19 33.11C134.19 34.64 133.1 34.53 131.37 32.75C126.44 27.67 121.29 22.81 116.22 17.86C113.13 14.65 110.08 11.42 106.95 8.24C103.82 5.06 100.91 1.66 96.15 0.88C96.0363 0.601157 95.9851 0.300771 96 0L88 0C87.8669 0.250098 87.7917 0.526923 87.78 0.81C85.5513 1.0569 83.4719 2.05082 81.88 3.63C75 9.19 69.06 15.7 63 22.15C62.89 22.15 62.78 22.25 62.67 22.44C56.8238 27.7135 51.2594 33.2912 46 39.15L9 76C5.26 79.24 1.77 82.65 0.81 87.82C0.673437 87.7597 0.521178 87.7447 0.375455 87.777C0.229732 87.8094 0.0981774 87.8876 0 88L0 96H0.47L0.92 96.11C1.61 98.79 2.6 101.29 4.92 103.11C11.53 110.49 18.6 117.41 25.92 124.11C28.64 126.96 31.21 129.98 34.14 132.6C36.14 134.43 36.05 135.79 34.74 137.98C31.46 143.46 27.87 148.8 25.93 154.98C21.6528 162.797 18.6388 171.241 17 180C15.463 184.394 14.7116 189.025 14.78 193.68C13.0492 205.948 14.5025 218.455 19 230C21.8781 239.696 26.8637 248.636 33.6 256.18C38.7885 263.143 45.3419 268.975 52.86 273.32C76.52 290.51 117.16 290.42 141.33 273.12C149.965 268.473 157.475 261.987 163.33 254.12C164.41 252.78 165.41 251.35 166.6 250.12C168.13 248.53 167.69 250.47 168.02 251.01C166.354 257.349 164.276 263.572 161.8 269.64C156.956 277.876 150.574 285.104 143 290.93L138.07 294L136.86 294.67C124.86 300.55 112.27 304.49 98.86 305.06C94.86 305.23 96.07 307.77 96.12 309.92L96 311H254C254.071 310.843 254.107 310.672 254.107 310.5C254.107 310.328 254.071 310.157 254 310C253.83 308.14 255.64 305.32 251.87 305.16C237.72 304.57 224.63 300.16 211.98 294.16C203.291 288.582 195.837 281.281 190.08 272.71C187.279 266.993 184.912 261.073 183 255L182.32 248.91L187.75 255.09C195.209 264.618 204.915 272.147 216 277C220.08 279.68 224.68 281.15 229.29 282.47C251.15 288.72 272.29 287.73 292.42 276.18C302.32 271.292 310.896 264.088 317.42 255.18C324.516 246.796 329.642 236.927 332.42 226.3C332.552 225.896 332.662 225.486 332.75 225.07C334.954 218.294 335.996 211.194 335.83 204.07C336.409 195.945 335.473 187.783 333.07 180ZM63.84 28L61.06 30.76L63.65 28H63.84ZM24.39 63.78L19.88 68.63C19.8155 68.5631 19.7584 68.4893 19.71 68.41C21.2833 66.87 22.8433 65.3267 24.39 63.78ZM22.07 111.78C22.6012 111.811 23.1293 111.881 23.65 111.99C23.4 112.121 23.1169 112.176 22.836 112.147C22.555 112.119 22.2887 112.009 22.07 111.83V111.78ZM24.48 111.73C22.48 106.73 17.91 103.95 14.37 100.31C11.37 97.19 9.16 93.91 8.96 89.49C8.76428 89.0401 8.68187 88.5491 8.72 88.06L9.72 86.06V86L20 75.15L36 59.15L36.16 59.29C38.83 59.19 40.09 57 41.72 55.44C55.3 42.39 68 28.52 82 16C92.11 7 92.43 6.78 102.08 16.18C103.67 17.73 104.77 20.46 107.8 19.81C107.8 21.31 109.09 22.2 109.93 23.24C117.32 32.44 126.28 40.14 134.47 48.57C134.781 48.9885 135.171 49.3411 135.619 49.6072C136.067 49.8733 136.564 50.0476 137.08 50.12C140.92 56.21 146.6 60.58 151.65 65.53C151.92 65.802 152.26 65.9937 152.633 66.0838C153.005 66.1738 153.396 66.1587 153.76 66.04C153.679 66.5306 153.729 67.0339 153.905 67.4991C154.08 67.9643 154.375 68.3751 154.76 68.69C161.37 75.51 167.76 82.56 174.98 88.77C173.98 96.59 168.5 101.39 163.34 106.48C153.213 116.48 143.147 126.547 133.14 136.68C131.7 138.14 129.72 139.35 129.83 141.83H129.54L107.54 163.83L99.66 171.63C98.9236 172.021 98.1407 172.316 97.33 172.51C91.9 174.84 87.47 173.6 83.41 169.27C77.95 163.43 72.21 157.84 66.41 152.27C65.19 151.1 64.02 148.97 61.92 149.97C57.61 141.71 50.58 135.97 43.39 130.48L43.07 130.59C43.1232 130.134 43.0646 129.671 42.899 129.243C42.7335 128.814 42.4661 128.432 42.12 128.13C37.1267 122.85 31.99 117.713 26.71 112.72C26.4283 112.414 26.0847 112.17 25.702 112.007C25.3193 111.843 24.9062 111.762 24.49 111.77L24.48 111.73Z" fill="#0666FE"/>
<path d="M986.1 146.749C983.294 138.501 979.953 130.444 976.1 122.629C974.75 121.749 975.33 120.159 974.75 118.999L973.35 115.819C973.289 115.525 973.17 115.247 973 114.999C971 109.269 969 103.559 965.9 98.319C965.66 97.739 965.36 97.169 965.18 96.569C962.296 87.7705 958.811 79.1804 954.75 70.859C948.19 69.649 941.58 70.639 934.99 70.319C934.824 70.3295 934.657 70.3295 934.49 70.319C932.3 69.929 931.15 70.989 930.39 72.959C927.96 79.289 925.39 85.5891 922.94 91.899C921.979 93.0734 921.365 94.4938 921.17 95.999C920.734 96.3563 920.397 96.8201 920.192 97.3456C919.987 97.8711 919.921 98.4406 920 98.999C916.133 107.022 912.734 115.263 909.82 123.679C906.401 130.571 903.454 137.687 901 144.979L891.91 165.819C899.68 165.819 906.6 165.769 913.53 165.819C914.269 165.884 915.008 165.686 915.615 165.259C916.222 164.833 916.66 164.206 916.85 163.489C919.17 157.659 921.52 151.839 923.85 146.019C924.85 143.789 926.68 143.719 928.77 143.739C937.02 143.819 945.29 144.119 953.51 143.649C958.88 143.339 962.8 144.199 964.19 149.999C965.97 154.459 967.8 158.899 969.51 163.389C969.73 164.181 970.231 164.866 970.92 165.315C971.608 165.764 972.437 165.947 973.25 165.829C980.02 165.719 986.8 165.829 994.47 165.829L986.11 146.829L986.1 146.749ZM950.54 125.559C944.01 125.329 937.45 126.079 930.94 125.089C931.154 124.822 931.345 124.538 931.51 124.239C935.58 116.929 937.99 108.909 941.33 101.289C941.691 100.575 941.783 99.7553 941.59 98.9791C942.59 97.7691 943.47 96.359 944.71 99.319C944.947 99.8424 945.352 100.272 945.86 100.539C945.556 101.444 945.621 102.432 946.04 103.289C948.04 108.679 950.21 114.019 952.42 119.289C952.591 119.936 952.928 120.527 953.398 121.002C953.868 121.478 954.455 121.822 955.1 121.999L955.2 122.069H954.76C953.94 123.929 953.08 125.639 950.54 125.549V125.559Z" fill="white"/>
<path d="M441.061 148.001C443.351 138.561 442.731 129.821 435.061 122.721L428.161 118.041C436.801 113.821 441.001 107.001 441.891 98.0006C442.441 95.5106 441.641 93.2206 441.191 90.7806C439.001 78.6706 432.711 71.9406 421.131 71.0006C400.361 69.3606 379.531 70.5806 358.731 70.3306C358.481 70.3306 358.221 70.7006 357.971 70.9006C357.643 71.4361 357.413 72.0251 357.291 72.6406C357.291 102.641 357.291 132.561 357.221 162.521C357.221 165.831 358.941 165.791 361.311 165.781C376.124 165.727 390.937 165.727 405.751 165.781C411.243 165.859 416.735 165.578 422.191 164.941C432.591 163.631 439.281 157.621 441.061 148.001ZM384.801 88.4606C391.101 88.4606 397.391 88.4606 403.691 88.4606C410.551 88.4606 416.691 89.6906 419.101 97.3706C419.225 97.7196 419.447 98.0252 419.741 98.2506C419.048 98.7579 418.514 99.4515 418.201 100.251C416.201 105.311 412.301 107.431 407.031 108.041C400.211 108.831 393.411 108.401 386.601 108.491C379.511 108.581 379.661 108.491 379.391 101.201C379.251 97.4206 380.141 93.5206 379.211 89.8006C379.307 89.6564 379.414 89.5193 379.531 89.3906C381.131 88.2706 383.001 88.4606 384.801 88.4606ZM384.571 147.461C380.991 147.571 379.371 146.091 379.511 142.461C379.621 139.461 379.601 136.461 379.511 133.461C379.431 131.091 379.921 128.591 378.511 126.461C381.651 126.461 384.791 126.361 387.931 126.311C390.671 126.351 393.407 126.351 396.141 126.311C399.141 126.381 402.141 126.551 405.141 126.921C407.988 127.824 410.945 128.332 413.931 128.431H414.171C414.367 128.702 414.577 128.962 414.801 129.211C419.601 134.671 419.801 137.661 415.991 143.751C415.461 144.591 414.711 145.361 414.841 146.411L414.371 146.301C404.511 148.271 394.521 147.181 384.571 147.491V147.461Z" fill="white"/>
<path d="M458.451 205C467.437 205 476.437 205 485.451 205C499.16 205 499.101 205 498.391 191.23C498.271 188.95 497.79 188.02 495.3 188.04C480.82 188.18 466.3 187.78 451.87 188.32C437.44 188.86 424.42 193.17 417.76 207.89C414.84 212.739 413.17 218.237 412.9 223.89C411.159 232.838 411.244 242.046 413.15 250.96C414.15 258.47 416.6 265.36 421.85 271.04C427.85 279.04 436.34 282.29 445.951 283.04C459.87 284.04 473.82 283.47 487.76 283.57C498.99 283.65 499 283.57 498.09 272C498.492 267.008 498.492 261.992 498.09 257C498.495 251.675 498.495 246.326 498.09 241C498.17 237.51 498.09 234 498.38 230.55C498.59 227.74 497.62 226.83 494.77 226.87C484.77 227.02 474.77 226.93 464.83 226.93C450.94 226.93 450.94 226.93 452.02 241C451.24 243.78 452.93 243.87 455.02 243.87C462.72 243.87 470.42 243.95 478.12 244C477.94 251.64 478.7 259.3 477.71 266.92H456.43C454.76 266.223 452.941 265.955 451.141 266.14C445.621 265.85 441.76 262.83 439.22 258.25C437.56 255.25 436.57 251.89 435.27 248.69C434.432 242.16 434.007 235.584 434 229C435.11 222.22 436.17 215.43 441.08 210.07C446.26 206.4 452.151 205 458.451 205Z" fill="white"/>
<path d="M528.851 153.12C528.851 149.45 527.581 148.83 524.271 148.79C512.171 148.66 499.981 149.93 488.001 147.15L483.151 144.94L479.001 141.18C477.341 137.94 476.561 134.43 475.621 130.95C474.981 128.59 475.231 127.44 476.621 126.95C477.441 126.84 478.261 126.75 479.081 126.68C493.871 126.84 508.661 126.78 523.451 126.68C525.011 126.68 526.771 127.45 528.151 126C529.431 122.3 528.321 118.47 528.781 114.75C529.241 111.03 528.061 109.62 523.971 109.75C511.371 110.04 498.761 109.86 486.151 109.85C474.151 109.85 474.151 109.85 476.831 98.0001C480.351 91.1201 486.061 87.7501 493.711 87.5901C501.191 87.4301 508.711 87.2101 516.171 87.1801C530.251 87.1101 530.171 87.1801 528.811 73.0201C528.591 70.7901 527.811 70.2201 525.731 70.2601C512.731 70.5601 499.731 69.6601 486.801 70.7801C472.121 72.0801 460.531 81.6301 456.001 96.0001C451.851 105.7 451.271 115.77 452.851 126.07C453.019 133.89 455.363 141.508 459.621 148.07C464.431 157.07 472.081 162.07 481.901 164.07C493.251 166.28 504.761 165.77 516.231 165.79C528.951 165.79 528.791 165.78 528.851 153.12Z" fill="white"/>
<path d="M605.239 148.799C593.799 148.969 582.319 149.369 570.989 147.079C570.469 146.699 569.909 146.359 569.429 145.929C563.659 140.769 564.949 133.549 563.919 126.999C563.952 109.259 563.979 91.5191 563.999 73.7791C563.999 72.4191 564.589 70.2991 562.309 70.3791C556.309 70.5891 550.189 69.3791 544.209 70.9991C543.399 80.6591 543.769 90.3291 544.029 99.9991C543.669 109.669 543.609 119.329 544.079 128.999C543.859 135.529 544.079 141.999 547.079 147.999C551.279 158.899 560.029 163.489 570.899 164.919C579.339 166.019 587.849 165.789 596.339 165.779C609.339 165.779 609.219 165.779 609.109 152.779C609.069 149.779 608.399 148.749 605.239 148.799Z" fill="white"/>
<path d="M914.141 238.571C910.301 233.331 905.831 229.021 899.001 228.141L897.261 227.921C895.641 226.921 893.831 227.041 892.031 227.131C883.031 226.961 874.031 226.641 865.101 226.661C855.281 226.661 851.941 223.831 851.041 214.011C851.601 209.361 854.161 206.521 858.811 205.821C861.434 205.402 864.085 205.171 866.741 205.131C880.541 205.051 894.351 204.871 908.151 205.131C912.461 205.221 913.661 203.891 913.151 199.851C912.893 197.033 912.893 194.198 913.151 191.381C913.331 188.701 912.261 188.011 909.701 188.051C900.061 188.181 890.411 188.051 880.761 188.131C870.761 188.241 860.761 187.511 850.871 188.931C839.321 190.591 831.581 198.241 829.871 209.681C828.068 215.404 828.523 221.601 831.141 227.001C833.791 235.101 839.481 239.891 847.591 241.941C856.231 244.121 865.061 243.261 873.821 243.401C879.281 243.481 884.751 243.401 890.061 244.961C891.644 245.957 893.003 247.272 894.052 248.821C895.1 250.37 895.815 252.12 896.151 253.961L895.871 258.841C893.531 263.591 889.681 265.781 884.401 266.191C871.601 267.191 858.801 266.501 846.001 266.631C832.511 266.771 832.561 266.631 833.301 280.241C833.421 282.451 833.831 283.591 836.361 283.551C856.151 283.251 875.961 284.301 895.711 282.761C907.931 281.761 916.201 273.301 917.911 260.931C919.634 253.25 918.284 245.2 914.151 238.501L914.141 238.571Z" fill="white"/>
<path d="M837.26 129.371C852.03 129.811 856.47 133.141 861.03 147.001C861.65 152.241 862.28 157.491 862.89 162.731C863.1 164.541 863.56 165.851 865.89 165.811C871.89 165.711 877.8 165.811 883.75 165.811C884.91 165.811 886.17 165.931 885.88 164.051C884.95 158.051 884.07 152.051 883.17 146.051C881.85 135.921 877.48 128.051 867.17 124.601C873.08 122.281 878.48 119.351 881.17 113.111C884.866 106.732 885.942 99.1672 884.17 92.0108C883.34 84.2808 879.17 78.7208 872.56 75.0608C866.32 71.6008 859.4 70.7008 852.32 70.9708C851.705 70.7348 851.064 70.5737 850.41 70.4908C834.27 70.4308 818.13 70.4908 801.99 70.3008C798.85 70.3008 798.99 72.0108 798.99 74.1208C798.99 85.2708 798.99 96.4208 798.99 107.571C798.99 125.571 799.09 143.521 798.92 161.491C798.92 164.961 799.78 166.191 803.34 165.931C807.671 165.712 812.009 165.712 816.34 165.931C818.5 165.991 819.34 165.201 819.25 163.061C819.1 156.411 819.07 149.761 818.99 143.111C819.07 139.801 819.3 136.481 819.19 133.171C819.1 130.511 819.76 129.231 822.78 129.381C827.62 129.511 832.45 129.221 837.26 129.371ZM860 93.0008C860.2 93.2608 860.41 93.5108 860.62 93.7508C860.18 97.1808 861.62 100.631 860.99 104.061C861.43 105.841 861.33 107.401 859.36 108.211C857.64 109.381 855.52 110.031 854.26 111.831C853.91 111.686 853.576 111.509 853.26 111.301C851.64 110.741 850 111.151 848.36 111.211C838.6 111.541 828.84 112.091 819.1 110.801L819 95.3408C819.413 95.0403 819.696 94.5931 819.79 94.0908C820.24 89.0908 823.43 88.2208 827.79 88.3808C834.42 88.6208 841.07 88.3808 847.71 88.4608C852.37 88.4808 856.59 89.6208 860 93.0008Z" fill="white"/>
<path d="M768.88 210.949C773.33 206.559 778.96 205.339 784.88 205.189C791.54 205.019 798.21 205.049 804.88 205.039C818.29 205.039 818.29 205.039 817.74 191.659C817.727 191.493 817.727 191.326 817.74 191.159C818.03 188.739 816.92 188.039 814.56 188.069C802.56 188.209 790.56 187.989 778.56 188.279C763.39 188.639 752.93 196.279 746.56 209.889C743.599 215.038 741.986 220.851 741.87 226.789C740.177 236.565 740.968 246.609 744.17 255.999C748.52 270.469 757.49 279.859 772.91 282.219C783.66 283.859 794.49 283.539 805.31 283.579C818.07 283.579 817.93 283.579 817.85 270.749C817.85 267.299 816.63 266.659 813.5 266.659C804.02 266.659 794.5 267.049 785.04 266.289C775.37 265.519 768.15 261.729 765.04 251.999C764.21 244.429 764.21 244.429 772.2 244.429C786.03 244.429 799.86 244.429 813.7 244.429C815.13 244.429 817.7 245.509 817.64 242.889C817.64 237.999 818.64 233.029 817.01 228.209C815.21 228.069 813.42 227.809 811.62 227.799C797.05 227.799 782.48 227.699 767.91 227.799C764.81 227.799 763.82 227.069 764.31 223.869C765 219.219 766 214.779 768.88 210.949Z" fill="white"/>
<path d="M753.73 165.83C756.35 165.94 757.21 165.05 757.15 162.44C756.96 154.3 756.97 146.15 756.91 138C756.85 129.85 756.91 122 756.91 114C756.91 107.333 756.91 100.667 756.91 93.9999C757.33 87.1699 757.33 87.1699 764.47 87.1799H777C788.92 87.1799 788.7 87.1799 789 75.2799C789.1 70.8699 787.52 70.1799 783.59 70.2099C762.1 70.3899 740.59 70.2999 719.11 70.2999C706.02 70.2999 706.11 70.2999 706.46 83.4999C706.53 86.2599 707.2 87.3199 710.12 87.2399C716.61 87.0499 723.12 87.1799 729.61 87.1799C736.74 87.1799 736.74 87.1799 737.17 94.0099C737.17 100.677 737.17 107.343 737.17 114.01C737.17 121.677 737.17 129.343 737.17 137.01C737.1 145.49 737.11 154.01 736.92 162.44C736.86 165.04 737.71 165.95 740.34 165.84C744.74 165.64 749.24 165.64 753.73 165.83Z" fill="white"/>
<path d="M600.46 263.911C600.39 263.55 600.243 263.209 600.03 262.911C597.816 256.35 595.143 249.955 592.03 243.771L591 241.001C590.857 239.387 590.218 237.856 589.17 236.621C588.589 233.908 587.514 231.325 586 229.001C582.91 222.911 581.91 215.931 578 210.181C576.11 203.291 574.24 195.821 569.94 190.601C564.94 184.511 556.35 189.361 549.46 188.121C549.14 188.061 548.79 188.121 548.46 188.121C547.806 187.973 547.12 188.079 546.541 188.417C545.963 188.754 545.533 189.299 545.34 189.941C542.153 197.941 538.95 205.941 535.73 213.941C532.365 220.763 529.449 227.798 527 235.001C523.166 242.996 519.781 251.199 516.86 259.571L514.8 263.951C513.753 265.422 513.124 267.15 512.98 268.951C511.24 272.891 509.57 276.851 507.73 280.741C506.73 282.931 507.13 283.741 509.59 283.631C512.91 283.511 516.24 283.631 519.59 283.631C530.83 283.631 530.83 283.631 534.82 273.021C534.9 272.693 534.94 272.358 534.94 272.021C535.308 270.768 535.741 269.537 536.24 268.331C538.24 264.161 540.07 260.541 546.15 261.411C552.091 262.116 558.093 262.143 564.04 261.491C571.93 260.801 578.42 261.651 580.11 271.021C581.44 274.411 582.77 277.811 584.11 281.201C584.69 282.711 585.52 283.671 587.38 283.651C593.71 283.561 600.03 283.591 606.38 283.651C608.31 283.651 608.73 282.941 607.98 281.231C605.42 275.441 602.95 269.671 600.46 263.911ZM552 243.551C549.48 243.491 547.2 243.151 545.57 241.051C546.72 240.811 547.26 239.871 547.71 238.901C550.8 232.121 553.53 225.201 556.16 218.241C556.381 217.824 556.506 217.363 556.523 216.892C556.54 216.421 556.45 215.952 556.26 215.521C557.11 214.521 557.64 212.521 559.26 213.941L559.11 214.001C559.11 220.781 561.9 226.491 565.92 231.691C565.41 236.491 567.87 240.251 570.33 244.021C564.3 243.001 558.16 243.701 552 243.551Z" fill="white"/>
<path d="M629.631 165.79C638.781 165.79 638.781 165.79 641.801 157C643.301 154.049 644.636 151.018 645.801 147.92C646.801 144.74 648.411 143.5 651.881 143.69C657.881 144.02 663.931 144.51 669.771 143.62C680.431 142 687.161 145.26 689.161 156.33C689.211 156.62 689.541 156.85 689.741 157.11C692.441 165.79 692.441 165.79 701.041 165.79H706.041C717.741 165.79 717.741 165.79 712.091 154.97C708.711 146.97 706.171 138.58 702.091 130.83C699.523 123.369 696.487 116.078 693.001 109C690.834 102.415 688.159 96.0095 685.001 89.8395C682.851 84.3295 680.671 78.8395 678.591 73.3095C677.801 71.1995 676.691 70.1595 674.201 70.2495C668.541 70.4595 662.871 70.3795 657.201 70.2495C655.201 70.2495 653.751 70.5795 652.941 72.7195C650.641 78.7195 648.181 84.7195 645.781 90.7195C644.227 92.8575 643.267 95.3697 643.001 97.9995C640.867 101.789 639.189 105.816 638.001 110C636.222 113.077 634.876 116.385 634.001 119.83C631.827 123.673 630.109 127.758 628.881 132C625.078 139.786 621.761 147.802 618.951 156C617.951 158.23 616.951 160.51 615.831 162.68C614.241 165.68 615.741 165.92 618.231 165.85C622.001 165.7 625.831 165.79 629.631 165.79ZM654.071 121.79C655.584 120.745 656.785 119.31 657.548 117.638C658.31 115.965 658.605 114.117 658.401 112.29C661.241 107.98 664.061 103.67 664.011 98.2895C664.711 97.4595 665.391 96.3795 666.321 98.2295C667.251 100.08 667.671 101.98 668.631 103.7C669.991 106.16 669.781 109.62 673.041 110.9C671.811 114.9 674.651 117.9 675.741 121.3C676.741 124.3 676.321 125.66 672.911 125.61C666.331 125.51 659.741 125.67 652.911 125.54C654.641 124.47 655.001 123.28 654.071 121.82V121.79Z" fill="white"/>
<path d="M725.86 188.119H703.94C696.58 188.119 696.58 188.119 694.94 195.779C690.37 207.559 686.42 219.549 682.87 231.679C680.438 237.281 678.475 243.074 677 248.999C676.022 250.504 675.409 252.216 675.21 253.999L674.81 255.609L672.12 261.869L670 256.999C668.142 249.523 665.804 242.174 663 234.999C660.24 229.139 660.19 222.409 657.11 216.649C655.601 210.207 653.595 203.891 651.11 197.759C649.11 188.159 649.11 188.159 639.56 188.159H632.56C618.02 188.159 618.02 188.159 619.03 203.039C619.03 209.372 619.03 215.706 619.03 222.039C619.03 230.039 619.03 238.039 619.03 246.039V279.039C618.21 282.359 619.08 284.039 622.92 283.699C626.917 283.478 630.923 283.478 634.92 283.699C637.29 283.779 638.14 282.969 638.1 280.559C637.94 270.739 637.93 260.919 637.87 251.099V235.999C637.93 232.519 637.87 228.999 638.11 225.549C638.43 221.699 636.91 217.699 639 213.999L641.7 222.089C642.81 226.843 644.315 231.496 646.2 235.999C648.017 242.798 650.254 249.478 652.9 255.999C654.09 259.999 655.05 263.999 656.52 267.869C658.52 273.069 658.09 280.569 662.74 282.969C667.22 285.279 673.74 283.449 679.43 283.609C681.6 283.669 682.74 282.979 683.43 280.849C685.65 273.849 688.04 266.999 690.36 260.079C693.9 251.179 697.056 242.146 699.83 232.979L706.13 215.109C707.6 216.679 706.86 218.609 706.87 220.349C706.94 236.509 706.87 252.679 706.95 268.839C706.95 273.629 704.88 279.839 707.8 282.839C710.97 286.139 717.29 283.429 722.18 284.029C726.28 284.539 727.18 282.819 727.18 278.959C727.04 250.129 727.12 221.299 727.07 192.469C727.07 190.999 728 189.099 725.86 188.119ZM708.27 230.999H708C708 230.819 708 230.649 708 230.469C708.086 230.642 708.176 230.819 708.27 230.999Z" fill="white"/>
</svg>
