<svg width="714" height="161" viewBox="0 0 714 161" fill="none" xmlns="http://www.w3.org/2000/svg">
<path d="M713.236 81.6282C712.472 79.172 711.457 78.1562 708.926 80.4344C703.487 85.0628 697.024 88.3193 690.072 89.9313C686.692 90.8645 685.584 90.3568 685.419 86.4593C684.994 75.0134 681.028 65.6809 668.935 62.113C667.495 61.6876 667.07 60.6718 666.565 59.4779C664.034 53.7137 659.3 50.8316 653.291 49.981C643.117 48.4448 632.731 50.6425 624.039 56.1703C603.24 69.3182 593.172 89.1081 589.707 113.002C589.546 114.278 589.707 115.746 589.041 116.652C584.811 123.02 579.911 128.702 572.467 131.501C569.733 132.517 566.642 133.368 564.179 131.159C561.716 128.949 562.739 125.669 563.669 122.924C566.081 116.805 568.879 110.846 572.047 105.083C576.506 96.0661 580.557 86.967 581.826 76.8525C583.69 61.7561 575.576 51.6553 560.854 51.3256C552.128 51.0505 543.605 54.0118 536.922 59.6423C533.622 62.3873 531.177 65.9143 528.204 69.4826C527.618 67.2729 527.194 65.5851 526.603 63.8831C523.869 55.4842 518.395 51.4219 509.529 51.0786C502.65 50.9593 495.92 53.1046 490.374 57.1861C483.614 61.7698 478.535 68.0417 473.72 74.6565C472.353 72.8724 472.871 71.1845 472.71 69.5652C471.695 60.9188 467.236 56.0741 458.833 54.6332C454.442 53.8649 450.298 55.0587 446.149 56.2389C444.455 56.7466 444.208 57.9408 444.208 59.4643C444.124 75.933 439.308 91.4412 434.056 106.702C431.287 114.533 426.412 121.444 419.975 126.671C416.513 129.635 412.71 131.927 408.057 132.27C402.311 132.696 399.684 129.978 400.614 124.214C401.544 118.45 403.912 113.235 406.087 108.02C410.055 98.5228 414.037 88.9296 415.555 78.5817C417.923 62.2089 409.891 52.7941 394.662 54.1528C388.491 54.7431 388.149 55.2508 387.479 61.4405C385.583 81.017 379.013 99.8474 368.323 116.336C365.189 121.167 361.563 125.669 356.227 128.208C353.942 129.306 351.493 130.582 349.126 128.798C346.759 127.014 347.005 124.132 347.525 121.51C348.789 116.344 350.625 111.336 352.998 106.579C358.239 94.9545 363.151 83.248 365.942 70.7863C367.037 65.7771 368.569 60.7817 367.803 55.5255C365.271 38.9055 351.904 30.328 334.964 34.5688C323.032 37.393 312.614 44.658 305.82 54.8939C305.15 55.9097 305.054 58.3663 302.358 56.5958C284.092 44.6422 265.073 45.3969 246.629 55.4978C231.153 63.8972 227.774 85.3477 238.597 99.2639C243.249 105.289 249.762 108.761 256.179 112.411C259.736 114.442 263.28 116.391 265.907 119.534C266.833 120.54 267.548 121.722 268.012 123.01C268.475 124.297 268.676 125.665 268.605 127.031C268.534 128.399 268.191 129.737 267.596 130.969C267.001 132.201 266.166 133.301 265.141 134.205C257.616 141.163 243.837 138.322 239.609 129.031C238.147 125.523 237.18 121.828 236.736 118.052C236.23 114.662 235.217 111.519 232.344 109.31C228.964 106.853 227.527 107.182 225.584 110.833C221.657 118.615 216.184 125.147 208.399 129.292C204.171 131.501 199.519 132.517 195.291 129.457C191.405 126.574 191.733 122.169 192.554 117.915C194.251 108.308 197.713 99.0854 200.668 89.7529C201.941 85.8554 200.586 84.9222 197.288 84.2633C184.974 81.6282 174.206 87.8316 170.142 100.046C167.406 108.527 164.819 117.091 159.565 124.557C156.61 128.674 153.134 132.366 147.976 133.711C141.135 135.495 136.14 132.339 136.058 125.476C135.634 104.616 143.584 87.6531 162.055 77.2094C177.613 68.3846 193.936 71.4452 209.836 76.8661C213.051 77.9641 213.94 77.2916 214.734 74.4095C215.811 70.1747 215.367 65.6949 213.48 61.7553C211.594 57.8156 208.386 54.6677 204.417 52.8627C195.291 48.6219 185.645 48.3613 175.834 49.13C158.498 50.3852 142.133 57.6333 129.53 69.6389C116.927 81.6444 108.866 97.6633 106.722 114.964C106.714 115.793 106.542 116.611 106.216 117.372C105.889 118.133 105.415 118.822 104.821 119.397C93.5734 128.729 81.0536 134.836 66.0846 135.001C47.8868 135.152 36.489 126.492 34.7923 108.349C31.659 79.0072 41.3055 53.7273 62.6914 33.4571C65.7301 30.5416 69.4524 28.4412 73.5144 27.3499C83.4617 24.7011 90.8643 32.0161 88.415 42.0208C87.75 44.2947 86.832 46.486 85.6783 48.5534C83.0193 53.3282 79.6566 57.6729 75.7038 61.4405C73.7607 63.3891 74.1029 64.4871 76.128 66.0242C81.0265 69.5924 86.5267 70.4298 92.3691 70.265C110.376 69.8395 123.908 57.6252 125.687 40.0721C127.643 19.6233 118.257 5.13073 99.4842 1.48012C80.1233 -2.33516 61.6927 1.13702 45.8753 12.9259C11.3812 38.7134 -3.58774 73.8332 0.722338 116.323C2.92522 137.609 15.3492 152.197 36.4069 158.222C45.114 160.693 54.2018 161.526 63.2112 160.679C79.3568 159.306 94.5037 155.189 107.105 144.484C108.884 142.961 109.637 143.112 110.745 145.157C114.125 151.264 119.119 155.765 125.878 157.509C139.753 161.077 152.683 159.21 163.93 149.7C165.531 148.327 166.379 147.408 167.816 150.043C170.949 155.725 176.354 158.277 182.525 159.114C195.715 160.899 207.646 157.412 218.374 149.782C220.316 148.41 221.411 148.258 223.108 150.207C227.213 154.956 232.494 157.495 238.419 159.032C246.281 160.993 254.473 161.222 262.432 159.704C277.237 157.069 289.798 150.88 297.022 136.895C305.902 119.589 300.402 103.738 283.065 95.5035C279.686 93.8978 276.224 92.4566 272.749 90.9194C269.9 89.7478 267.313 88.0169 265.141 85.8281C263.766 84.4005 262.833 82.6031 262.457 80.6542C262.08 78.7048 262.276 76.6881 263.02 74.8486C264.293 71.0333 267.508 69.7573 271.23 69.359C282.053 68.3437 288.566 75.2055 286.787 85.9789C286.608 87.2255 286.296 88.4492 285.857 89.6294C285.433 90.9058 285.515 91.5783 287.047 92.0038C291.496 92.9757 296.143 92.382 300.207 90.3227C304.271 88.2635 307.504 84.8639 309.364 80.6951C310.806 77.2081 312.56 73.8596 314.604 70.6904C316.366 67.8156 318.924 65.5173 321.966 64.0752C323.22 63.4257 324.631 63.1442 326.037 63.263C327.443 63.3823 328.788 63.8968 329.915 64.7477C332.364 66.6145 332.447 69.3318 331.776 72.0355C330.846 75.8508 329.655 79.5834 328.397 83.2343C324.675 94.2134 319.681 104.698 316.807 115.98C314.358 125.738 313.428 135.482 316.807 145.239C319.941 154.393 326.96 159.567 336.592 159.663C342.462 159.848 348.304 158.761 353.718 156.478C359.132 154.196 363.992 150.77 367.967 146.433C368.815 145.582 369.158 144.142 370.704 144.142C374.589 156.699 384.236 162.298 397.262 160.679C407.921 159.306 417.553 156.095 426.09 149.563C427.283 148.629 428.034 148.465 429.13 149.988C434.451 157.701 442.319 157.879 450.527 157.028C453.482 156.685 454.922 155.505 455.346 152.115C457.542 131.302 464.93 111.379 476.828 94.1857C479.962 89.6843 483.504 85.5398 488.663 83.2066C490.688 82.3557 492.973 81.0797 494.913 82.7812C496.858 84.4831 495.848 86.8984 495.079 89.0531C492.875 95.4209 489.605 101.267 486.705 107.292C482.599 116.034 478.412 124.681 476.977 134.342C474.612 150.125 486.446 160.637 501.92 156.644C504.45 155.972 505.724 154.777 505.724 152.06C505.822 147.875 506.476 143.721 507.669 139.709C512.404 121.387 519.423 104.177 532.187 89.9177C534.918 86.5134 538.548 83.9537 542.667 82.5341C547.155 81.1619 548.676 82.6163 547.746 87.2826C547.406 88.9143 546.896 90.5059 546.225 92.0311C544.022 97.1228 541.656 102.215 539.465 107.389C535.363 116.803 530.93 126.218 529.656 136.648C528.221 148.094 533.966 157.001 544.625 159.375C549.117 160.351 553.733 160.611 558.306 160.143C570.34 159.067 581.686 154.063 590.612 145.898C593.652 143.153 594.922 143.688 596.62 146.831C597.92 148.99 599.648 150.858 601.695 152.321C613.109 161.735 633.317 162.751 648.365 154.613C664.514 145.788 674.366 131.708 680.493 114.813C681.686 111.588 683.121 109.9 686.667 109.214C694.977 107.797 702.616 103.753 708.476 97.6718C712.867 93.4174 715.346 88.1613 713.236 81.6282ZM654.399 109.365C651.529 117.681 647.724 125.312 641.049 131.241C638.174 133.78 634.96 135.646 631.741 135.646C626.501 135.646 623.287 133.107 621.588 128.098C619.304 121.483 620.153 114.868 621.329 108.253C623.109 97.6169 627.495 87.5905 634.098 79.0758C636.54 75.8235 639.771 73.2531 643.482 71.61C644.332 71.2667 645.261 70.512 646.111 71.4452C646.697 72.1177 646.191 73.0508 645.945 73.8196C643.852 80.6993 644.149 88.0889 646.794 94.7761C648.077 98.1914 650.2 101.227 652.964 103.6C655.223 105.289 655.223 106.908 654.387 109.365H654.399Z" fill="#0CD0CD"/>
</svg>
