<svg width="848" height="142" viewBox="0 0 848 142" fill="none" xmlns="http://www.w3.org/2000/svg">
<path d="M404.315 100.68C404.315 112.238 404.221 123.795 404.378 135.369C404.418 138.176 403.59 138.901 400.862 138.83C393.641 138.641 386.411 138.625 379.197 138.83C376.32 138.917 375.776 137.915 375.791 135.274C375.886 113.081 375.933 90.8881 375.791 68.695C375.744 54.7957 361.774 46.3599 350.122 53.1085C344.019 56.6405 341.449 62.2932 341.449 69.2389C341.449 90.5202 341.449 111.807 341.449 133.098C341.449 138.783 341.449 138.783 335.931 138.783C329.623 138.783 323.316 138.601 317.009 138.862C313.856 138.996 312.823 138.254 312.854 134.857C313.02 112.671 312.973 90.4781 312.917 68.285C312.917 61.087 309.606 55.6708 303.086 52.5724C296.708 49.5371 290.527 50.3807 285.024 54.7562C280.665 58.1857 278.78 62.9161 278.796 68.5057C278.867 90.4387 278.733 112.364 278.906 134.297C278.906 137.892 278.031 139.027 274.381 138.83C267.286 138.53 260.19 138.657 253.095 138.83C250.729 138.877 249.941 138.223 249.941 135.763C250.028 113.31 249.704 90.825 250.075 68.3954C250.517 41.1723 271.669 21.092 298.253 22.2983C308.171 22.7136 317.656 26.47 325.169 32.9573C326.817 34.3449 327.637 34.4079 329.34 33.044C344.185 21.0605 360.678 18.6086 377.881 26.6502C395.083 34.6917 403.803 48.9852 404.268 68.0012C404.528 78.8809 404.315 89.7843 404.315 100.68Z" fill="#F8F9FA"/>
<path d="M691.766 101.027V73.0624C691.766 49.0323 706.635 29.7011 729.995 23.3939C754.435 16.7951 779.916 27.0048 791.702 48.173C795.57 54.9267 797.641 62.5598 797.717 70.3425C797.82 92.0074 797.717 113.704 797.828 135.329C797.828 138.191 796.882 138.846 794.217 138.79C786.601 138.633 778.985 138.578 771.354 138.79C768.2 138.893 767.719 137.726 767.735 134.935C767.837 114.327 767.924 93.7103 767.735 73.1019C767.706 69.4752 766.82 65.9067 765.151 62.6868C763.482 59.4669 761.076 56.6866 758.13 54.5721C755.183 52.4576 751.779 51.0687 748.194 50.5184C744.61 49.9682 740.945 50.2721 737.5 51.4054C727.535 54.6693 721.606 63.5466 721.567 75.5616C721.504 95.1215 721.449 114.689 721.63 134.249C721.63 137.915 720.605 138.98 717.01 138.798C710.19 138.514 703.347 138.507 696.512 138.798C692.806 138.964 691.537 138.01 691.632 134.068C691.939 123.086 691.766 112.056 691.766 101.027Z" fill="#8EB63F"/>
<path d="M87.2962 99.5719C92.1448 107.29 96.8673 114.985 101.795 122.553C103.19 124.69 101.621 125.297 100.525 126.298C68.4222 155.532 16.9562 142.066 3.1594 100.818C-10.3772 60.3338 21.3869 18.8882 64.0782 21.5687C78.5688 22.4754 91.1672 28.1518 101.755 38.2037C103.096 39.4809 103.135 40.3166 102.173 41.7988C97.3403 49.2648 92.6179 56.7782 87.856 64.3231C70.2197 46.2926 51.1013 44.5581 36.658 59.5927C24.1463 72.6484 25.1554 93.5802 38.9049 105.982C50.51 116.53 72.8372 118.84 87.2962 99.5719Z" fill="#F8F9FA"/>
<path d="M846.729 47.5345C846.729 61.8516 846.674 76.1609 846.784 90.4701C846.784 93.0088 846.122 93.9154 843.481 93.8523C836.922 93.6789 830.346 93.7262 823.771 93.8523C821.564 93.8918 820.507 93.5055 820.492 90.888C820.318 61.9804 820.055 33.0939 819.703 4.22832C819.703 1.51626 820.381 0.58596 823.196 0.664799C830.149 0.854012 837.108 0.854012 844.072 0.664799C846.887 0.58596 847.596 1.50049 847.573 4.22832C847.447 18.6716 847.51 33.1149 847.51 47.5897L846.729 47.5345Z" fill="#8EB63F"/>
<path d="M833.375 138.728C829.709 138.728 826.035 138.642 822.338 138.728C820.288 138.792 819.586 138.043 819.61 136.008C819.694 129.06 819.694 122.114 819.61 115.171C819.61 113.114 820.351 112.436 822.361 112.451C829.825 112.53 837.294 112.53 844.767 112.451C846.809 112.451 847.519 113.169 847.495 115.195C847.411 122.143 847.411 129.089 847.495 136.032C847.495 138.098 846.77 138.792 844.744 138.728C840.983 138.642 837.175 138.728 833.375 138.728Z" fill="#8EB63F"/>
<path d="M537.506 76.0818C535.315 36.2603 500.712 15.9041 468.727 22.7079C423.222 32.3341 410.875 86.0628 432.596 116.912C446.227 136.236 465.881 143.213 488.8 141.755C504.646 140.769 518.569 134.998 529.835 123.44C531.412 121.864 531.515 121.036 529.757 119.498C524.482 114.981 519.334 110.306 514.202 105.615C512.775 104.306 511.955 104.361 510.425 105.733C498.442 116.471 484.511 118.395 469.713 113.396C459.708 110.014 452.51 103.226 449.42 92.2911H454C480.53 92.2911 507.059 92.228 533.628 92.3699C536.647 92.3699 537.569 91.3687 537.514 88.6251C537.443 84.4782 537.735 80.2603 537.506 76.0818ZM508.163 71.1386C498.844 71.0598 489.517 71.0992 480.191 71.0992C471.124 71.0992 462.058 70.9809 452.999 71.1702C449.956 71.2332 449.191 70.7129 450.279 67.6066C454.702 54.9924 466.977 46.5172 481.026 46.6749C487.562 46.7309 493.911 48.8562 499.163 52.7458C504.416 56.6354 508.3 62.0891 510.26 68.3241C511.056 70.8863 510.441 71.1544 508.163 71.1386Z" fill="#F8F9FA"/>
<path d="M171.985 21.4356C156.072 21.4166 140.8 27.7037 129.512 38.9204C118.225 50.1371 111.841 65.3694 111.76 81.2822C111.642 114.899 138.471 141.988 171.851 141.988C187.76 141.955 203.007 135.618 214.252 124.365C225.497 113.112 231.825 97.8609 231.848 81.9523C231.848 48.4379 205.161 21.4514 171.985 21.4356ZM172.569 113.953C168.334 114.021 164.127 113.255 160.188 111.697C156.249 110.14 152.656 107.822 149.613 104.875C146.57 101.929 144.137 98.4124 142.453 94.5259C140.769 90.6394 139.868 86.4593 139.799 82.2243C139.731 77.9893 140.497 73.7823 142.055 69.8435C143.612 65.9047 145.931 62.3113 148.877 59.2684C151.823 56.2255 155.34 53.7927 159.226 52.1089C163.113 50.4251 167.293 49.5233 171.528 49.4549C189.014 49.1317 203.852 63.4804 204.12 80.9905C204.221 85.2288 203.485 89.4454 201.953 93.3984C200.42 97.3514 198.123 100.963 195.191 104.025C192.26 107.088 188.752 109.542 184.87 111.245C180.988 112.949 176.807 113.869 172.569 113.953Z" fill="#F8F9FA"/>
<path d="M614.777 21.4497C606.82 21.3537 598.922 22.8384 591.543 25.8178C584.163 28.7973 577.449 33.212 571.789 38.8062C566.129 44.4004 561.635 51.0626 558.57 58.4065C555.504 65.7504 553.927 73.6299 553.929 81.588C553.693 114.621 580.64 141.829 613.752 141.994C646.573 142.16 673.804 115.244 674.009 82.4316C674.214 49.0433 647.645 21.6783 614.777 21.4497ZM613.823 114.077C607.419 114.054 601.165 112.132 595.853 108.554C590.541 104.976 586.409 99.9027 583.981 93.9764C581.552 88.0501 580.936 81.5366 582.209 75.2599C583.483 68.9832 586.589 63.2251 591.136 58.714C595.682 54.2029 601.464 51.1415 607.751 49.9169C614.037 48.6922 620.545 49.3595 626.453 51.8341C632.36 54.3088 637.401 58.4798 640.937 63.8195C644.474 69.1592 646.347 75.4278 646.321 81.8324C646.31 86.0852 645.461 90.2942 643.821 94.2182C642.181 98.1421 639.783 101.704 636.764 104.699C633.745 107.695 630.165 110.065 626.228 111.674C622.291 113.284 618.076 114.1 613.823 114.077Z" fill="#8EB63F"/>
</svg>
