<svg width="1250" height="229" viewBox="0 0 1250 229" fill="none" xmlns="http://www.w3.org/2000/svg">
<path d="M213.4 23.6797H344.9V53.4797H247.6V96.9797H312.4V126.78H247.6V175.38H347.9V205.18H213.4V23.6797Z" fill="white"/>
<path d="M344.9 76.1797H379.9L410.5 166.08L438.9 76.1797H472.8L425.8 205.18H394.4L344.9 76.1797Z" fill="white"/>
<path d="M473.9 140.979C473.9 101.579 501.2 73.7793 540.3 73.7793C579.1 73.7793 606.5 101.679 606.5 140.979C606.5 179.779 578.6 207.679 539.5 207.679C500.7 207.679 473.9 180.279 473.9 140.979ZM572.1 141.779V140.679C572.1 116.079 560.1 101.279 540.4 101.279C520.4 101.279 508.4 116.079 508.4 140.679V141.779C508.4 165.879 520.1 180.079 539.8 180.079C559.8 180.079 572.1 165.779 572.1 141.779Z" fill="white"/>
<path d="M628.4 21.1797H662.6V205.18H628.4V21.1797Z" fill="white"/>
<path d="M688.5 153.48V76.1797H722.4V151.58C722.4 168.78 730.6 178.88 745.9 178.88C763.7 178.88 771.1 163.88 771.1 141.68V76.1797H805V205.18H771.1V186.88C764.3 200.28 752.5 207.68 735.8 207.68C706.6 207.68 688.5 186.88 688.5 153.48Z" fill="white"/>
<path d="M842.4 170.98V103.48H824.1V76.1797H842.4V51.7797L875.5 33.1797V76.0797H900.9V103.38H875.2V167.58C875.2 173.88 878.2 176.58 884.5 176.88H899.5V205.08H873.3C848.4 203.78 843 192.38 842.4 170.98Z" fill="white"/>
<path d="M922.801 24.1797H958.101V57.2797H922.801V24.1797ZM923.301 76.1797H957.501V205.18H923.301V76.1797Z" fill="white"/>
<path d="M979.4 140.979C979.4 101.579 1006.7 73.7793 1045.8 73.7793C1084.6 73.7793 1112 101.679 1112 140.979C1112 179.779 1084.1 207.679 1045 207.679C1006.2 207.679 979.4 180.279 979.4 140.979ZM1077.5 141.779V140.679C1077.5 116.079 1065.5 101.279 1045.8 101.279C1025.8 101.279 1013.8 116.079 1013.8 140.679V141.779C1013.8 165.879 1025.5 180.079 1045.2 180.079C1065.2 180.079 1077.5 165.779 1077.5 141.779Z" fill="white"/>
<path d="M1133.6 76.1789H1167.5V97.1789C1174.3 82.1789 1186.9 73.3789 1205.2 73.3789C1233.4 73.3789 1250 92.2789 1250 127.779V205.179H1216.1V129.779C1216.1 111.779 1209.3 102.479 1193.4 102.479C1177.3 102.479 1167.4 115.579 1167.4 139.679V205.279H1133.5L1133.6 76.1789Z" fill="white"/>
<path d="M133.6 40.3787C102.7 -0.321281 46.6 -11.8213 0 13.0787C18.2 53.9787 31.8 102.079 121.5 104.879C132 105.179 143.6 104.879 156.3 103.879C154.5 78.1787 146.1 56.8787 133.6 40.3787Z" fill="white"/>
<path d="M117.1 124.078C63.1 126.778 37.8 146.379 22 170.679C12.7 184.979 6.7 200.779 0 215.679C65.4 250.579 149.9 213.778 156.3 124.778C141.8 123.678 128.7 123.478 117.1 124.078Z" fill="white"/>
</svg>
