<svg width="510" height="142" viewBox="0 0 510 142" fill="none" xmlns="http://www.w3.org/2000/svg">
<path d="M197.998 93.707C198.886 93.707 199.596 93.8846 200.307 94.0621C201.017 94.2397 201.549 94.5948 202.082 95.1275V98.1459C201.727 97.9684 201.372 97.6133 201.017 97.4357C200.662 97.2582 200.307 97.0806 199.774 96.903C199.241 96.7255 198.709 96.7255 198.176 96.7255C197.288 96.7255 196.578 96.903 195.868 97.2581C195.157 97.6133 194.625 98.1459 194.27 98.8561C193.915 99.5664 193.737 100.277 193.737 101.164C193.737 102.052 193.915 102.762 194.27 103.473C194.625 104.183 195.157 104.715 195.868 105.071C196.578 105.426 197.288 105.603 198.176 105.603C199.064 105.603 199.951 105.426 200.484 105.248C201.194 104.893 201.727 104.538 202.26 104.183V107.024C201.727 107.379 201.194 107.734 200.484 108.089C199.774 108.267 198.886 108.444 197.998 108.444C196.933 108.444 196.045 108.267 195.157 107.911C194.27 107.556 193.382 107.024 192.672 106.314C191.961 105.603 191.429 104.893 191.074 104.005C190.719 103.117 190.541 102.052 190.541 100.987C190.541 99.9215 190.719 98.8561 191.074 97.9684C191.429 97.0806 191.961 96.1928 192.672 95.6602C193.382 94.9499 194.092 94.4173 195.157 94.0621C196.045 94.0621 197.111 93.707 197.998 93.707Z" fill="#B5B5B5"/>
<path d="M220.189 94.0645L226.759 108.446H223.385L222.32 105.783H216.638L215.573 108.446H212.199L218.769 94.0645H220.189ZM219.479 98.8585L217.703 103.297H221.255L219.479 98.8585Z" fill="#B5B5B5"/>
<path d="M241.854 93.8828C242.742 93.8828 243.452 94.0604 244.163 94.2379C244.873 94.4155 245.405 94.7706 245.938 94.9482V97.789C245.405 97.4339 244.873 97.2564 244.34 96.9013C243.807 96.5462 243.097 96.5462 242.387 96.5462C242.032 96.5462 241.677 96.5462 241.322 96.7237C240.967 96.9013 240.611 97.0788 240.434 97.2564C240.256 97.4339 240.079 97.789 240.079 98.1442C240.079 98.6768 240.256 99.0319 240.611 99.2095C240.967 99.3871 241.499 99.7422 242.032 99.9197L243.807 100.63C244.873 100.985 245.583 101.518 245.938 102.228C246.471 102.761 246.648 103.471 246.648 104.359C246.648 105.246 246.471 105.957 245.938 106.667C245.405 107.377 244.873 107.732 243.985 108.265C243.097 108.62 242.209 108.798 241.322 108.798C240.434 108.798 239.724 108.62 238.836 108.442C238.126 108.087 237.415 107.732 236.883 107.377V104.536C237.593 105.069 238.126 105.424 239.013 105.602C239.724 105.957 240.611 106.134 241.499 106.134C242.032 106.134 242.565 105.957 243.097 105.779C243.452 105.602 243.807 105.246 243.807 104.714C243.807 104.359 243.63 104.004 243.275 103.826C242.92 103.648 242.565 103.471 242.209 103.293L240.079 102.405C239.013 102.05 238.303 101.34 237.771 100.807C237.415 100.097 237.238 99.3871 237.238 98.4993C237.238 97.6115 237.415 96.9013 237.948 96.191C238.481 95.4808 239.013 95.1257 239.724 94.7706C240.079 94.0604 240.789 93.8828 241.854 93.8828Z" fill="#B5B5B5"/>
<path d="M264.225 94.0645V108.269H261.207V94.0645" fill="#B5B5B5"/>
<path d="M292.46 94.0604V108.442H291.395L283.05 99.7422V108.265H280.031V93.8828H281.097L289.442 102.761V94.0604H292.46Z" fill="#B5B5B5"/>
<path d="M311.813 93.707C312.878 93.707 313.766 93.8846 314.654 94.2397C315.542 94.5948 316.252 95.1275 316.962 95.8377C317.672 96.5479 318.205 97.2581 318.56 98.1459C318.915 99.0337 319.093 100.099 319.093 101.164C319.093 102.23 318.915 103.295 318.56 104.183C318.205 105.071 317.672 105.958 316.962 106.491C316.252 107.201 315.542 107.734 314.654 108.089C313.766 108.444 312.878 108.622 311.813 108.622C310.748 108.622 309.86 108.444 308.972 108.089C308.084 107.734 307.197 107.201 306.664 106.491C305.954 105.781 305.421 105.071 305.066 104.183C304.711 103.295 304.533 102.23 304.533 101.164C304.533 100.099 304.711 99.0337 305.066 98.1459C305.421 97.2581 305.954 96.3704 306.664 95.8377C307.374 95.1275 308.084 94.5948 308.972 94.2397C309.86 94.0621 310.748 93.707 311.813 93.707ZM311.813 96.5479C310.925 96.5479 310.215 96.7255 309.505 97.0806C308.795 97.4357 308.262 97.9684 307.907 98.6786C307.552 99.3888 307.374 100.099 307.374 100.987C307.374 101.875 307.552 102.585 307.907 103.295C308.262 104.005 308.795 104.538 309.505 104.893C310.215 105.248 310.925 105.426 311.813 105.426C312.701 105.426 313.411 105.248 314.121 104.893C314.831 104.538 315.364 104.005 315.719 103.295C316.074 102.585 316.252 101.875 316.252 100.987C316.252 100.099 316.074 99.3888 315.719 98.6786C315.364 97.9684 314.831 97.4357 314.121 97.0806C313.411 96.7255 312.523 96.5479 311.813 96.5479Z" fill="#B5B5B5"/>
<path d="M239.192 0.132812L0.556641 71.1552L238.837 142H239.014L477.472 70.9776L239.192 0.132812ZM239.014 4.74927L461.847 71.1552L239.014 137.561L16.1816 71.1552L239.014 4.74927Z" fill="url(#paint0_linear_152_60)"/>
<path d="M271.155 0.132812L32.6973 71.1552L270.977 142H271.155L509.613 70.9776L271.155 0.132812ZM270.977 4.74927L493.81 71.1552L270.977 137.561L48.3222 71.1552L270.977 4.74927Z" fill="url(#paint1_linear_152_60)"/>
<path d="M24.1693 32.9824V84.8288C24.1693 89.4452 23.2815 93.1739 21.6835 96.3699C19.9079 99.5659 17.5997 102.052 14.7588 104.005C11.7404 105.958 8.36679 107.556 4.63812 108.621L0.199219 98.5006C8.7219 96.0148 12.9832 91.5759 12.9832 85.1839V32.9824H24.1693Z" fill="#F9F9F9"/>
<path d="M59.1488 32.9824L84.1842 87.137H71.0451L66.9613 77.0163H45.6546L41.5708 87.137H28.4316L53.467 32.9824H59.1488ZM56.3079 51.0931L49.5608 67.6058H63.0551L56.3079 51.0931Z" fill="#F9F9F9"/>
<path d="M112.056 32.9824C115.252 32.9824 118.093 33.5151 120.579 34.4029C122.887 35.2906 125.018 36.5335 126.793 38.1315V48.9625C125.55 48.0747 124.308 47.1869 122.887 46.2991C121.467 45.4113 120.046 44.7011 118.271 44.1684C116.673 43.6358 114.542 43.2807 112.234 43.2807C109.038 43.2807 106.374 43.9909 103.711 45.5889C101.225 47.0093 99.0946 49.14 97.6741 51.6258C96.2537 54.1116 95.3659 57.13 95.3659 60.326C95.3659 63.522 96.0761 66.3629 97.6741 69.0263C99.0946 71.5121 101.225 73.6427 103.711 75.0632C106.197 76.4836 109.038 77.1939 112.234 77.1939C115.785 77.1939 118.626 76.6612 120.934 75.5958C123.242 74.5305 125.373 73.2876 127.326 71.6896V82.1654C125.55 83.7634 123.42 85.0063 120.756 86.0717C118.093 86.9594 115.075 87.4921 111.879 87.4921C108.15 87.4921 104.599 86.7819 101.225 85.539C97.8517 84.2961 95.0108 82.343 92.525 79.8572C90.0392 77.3714 87.9085 74.5305 86.4881 71.3345C85.0676 67.9609 84.3574 64.4098 84.3574 60.326C84.3574 56.2423 85.0676 52.5136 86.4881 49.3176C87.9085 45.944 89.8617 43.1031 92.525 40.7949C95.0108 38.3091 98.0292 36.5335 101.225 35.1131C104.776 33.6926 108.327 32.9824 112.056 32.9824Z" fill="#F9F9F9"/>
<path d="M147.749 33.1582V57.3058L168.345 33.1582H182.55L161.243 56.7731L184.858 87.1352H170.298L153.786 65.2958L147.926 71.8654V87.1352H136.74V33.1582H147.749Z" fill="#F9F9F9"/>
<path d="M212.736 33.1582C215.221 33.1582 217.707 33.5133 220.193 34.4011C222.679 35.2889 224.809 36.5318 226.762 38.1298C228.716 39.7278 230.314 41.8584 231.379 44.1667C232.444 46.4749 233.154 49.1382 233.154 52.1567C233.154 55.8854 232.267 59.0814 230.314 61.9223C228.538 64.7632 226.052 66.8938 223.034 68.4918C220.015 70.0898 216.642 70.9776 213.091 70.9776C210.605 70.9776 208.474 70.8001 206.521 70.2674C204.568 69.7347 202.97 69.2021 201.727 68.4918V87.1352H190.541V33.1582H212.736ZM201.727 43.634V59.614C202.97 60.1467 204.39 60.5018 205.988 60.8569C207.764 61.212 209.362 61.3896 211.138 61.3896C214.334 61.3896 216.997 60.5018 218.772 58.7263C220.726 56.9507 221.613 54.82 221.613 52.3342C221.613 49.4934 220.548 47.3627 218.417 45.9422C216.287 44.5218 213.801 43.8116 210.782 43.8116H201.727V43.634Z" fill="#F9F9F9"/>
<path d="M264.4 33.1582C268.129 33.1582 271.68 33.8684 274.876 35.1113C278.072 36.3542 281.091 38.3073 283.576 40.7931C286.062 43.2789 288.015 46.1198 289.436 49.3158C290.856 52.6894 291.566 56.2405 291.566 60.3243C291.566 64.4081 290.856 68.1367 289.436 71.3327C288.015 74.7063 286.062 77.5472 283.576 79.8554C281.091 82.3412 278.25 84.1168 274.876 85.5372C271.503 86.9577 268.129 87.4903 264.4 87.4903C260.672 87.4903 257.121 86.7801 253.925 85.5372C250.551 84.2943 247.71 82.3412 245.224 79.8554C242.739 77.3696 240.785 74.5287 239.365 71.3327C237.945 67.9592 237.234 64.4081 237.234 60.3243C237.234 56.2405 237.945 52.6894 239.365 49.3158C240.785 45.9422 242.739 43.1013 245.224 40.7931C247.71 38.3073 250.729 36.5318 253.925 35.1113C257.121 33.8684 260.672 33.1582 264.4 33.1582ZM264.4 43.2789C261.204 43.2789 258.541 43.9891 256.055 45.5871C253.57 47.0076 251.616 49.1382 250.196 51.624C248.776 54.1098 248.065 57.1283 248.065 60.3243C248.065 63.5203 248.776 66.3612 250.196 69.0245C251.616 71.5103 253.57 73.641 256.055 75.0614C258.541 76.4819 261.382 77.1921 264.4 77.1921C267.596 77.1921 270.26 76.4819 272.746 75.0614C275.231 73.641 277.184 71.5103 278.427 69.0245C279.848 66.5387 280.558 63.5203 280.558 60.3243C280.558 57.1283 279.848 54.1098 278.427 51.624C277.007 49.1382 275.054 47.0076 272.746 45.5871C270.26 44.1667 267.596 43.2789 264.4 43.2789Z" fill="#F9F9F9"/>
<path d="M336.315 33.1582V43.2789H319.093V86.9577H307.907V43.2789H290.684V33.1582H336.315Z" fill="#F9F9F9"/>
<path d="M363.835 32.9824C367.031 32.9824 369.872 33.5151 372.358 34.4029C374.666 35.2906 376.797 36.5335 378.572 38.1315V48.9625C377.33 48.0747 376.087 47.1869 374.666 46.2991C373.246 45.4113 371.825 44.7011 370.05 44.1684C368.274 43.6358 366.321 43.2807 364.013 43.2807C360.817 43.2807 357.976 43.9909 355.49 45.5889C353.004 47.0093 350.874 49.14 349.453 51.6258C348.033 54.1116 347.145 57.13 347.145 60.326C347.145 63.522 347.855 66.3629 349.453 69.0263C350.874 71.5121 353.004 73.6427 355.49 75.0632C357.976 76.4836 360.817 77.3714 364.013 77.3714C367.564 77.3714 370.405 76.8387 372.713 75.7734C375.021 74.7081 377.152 73.4652 379.105 71.8672V82.343C377.329 83.941 375.199 85.1839 372.535 86.2492C369.872 87.137 366.854 87.6696 363.658 87.6696C359.929 87.6696 356.378 86.9594 353.004 85.7165C349.631 84.4736 346.79 82.5205 344.127 80.0347C341.641 77.549 339.51 74.7081 338.09 71.5121C336.669 68.1385 335.959 64.5874 335.959 60.5036C335.959 56.4198 336.669 52.6911 338.09 49.4951C339.51 46.1216 341.463 43.2807 344.127 40.9724C346.612 38.4867 349.631 36.7111 353.004 35.2906C356.555 33.6926 360.107 32.9824 363.835 32.9824Z" fill="#F9F9F9"/>
<path d="M399.344 33.3398V86.9617H388.158V33.3398" fill="#F9F9F9"/>
<path d="M453.499 33.1582V43.2789H436.276V86.9577H425.09V43.2789H407.867V33.1582H453.499Z" fill="#F9F9F9"/>
<path d="M509.784 33.1582L489.01 66.7163V87.1352H477.647V67.2489L456.518 33.1582H469.657L483.151 55.8854L496.645 33.1582H509.784Z" fill="#F9F9F9"/>
<defs>
<linearGradient id="paint0_linear_152_60" x1="0.618253" y1="71.1493" x2="477.394" y2="71.1493" gradientUnits="userSpaceOnUse">
<stop stop-color="#640587"/>
<stop offset="0.1118" stop-color="#110017"/>
<stop offset="0.4" stop-color="#BD0AFF"/>
<stop offset="0.6" stop-color="#BD0AFF"/>
<stop offset="0.85" stop-color="#110017"/>
<stop offset="1" stop-color="#640587"/>
</linearGradient>
<linearGradient id="paint1_linear_152_60" x1="32.6364" y1="71.1493" x2="509.43" y2="71.1493" gradientUnits="userSpaceOnUse">
<stop stop-color="#640587"/>
<stop offset="0.1118" stop-color="#110017"/>
<stop offset="0.4" stop-color="#BD0AFF"/>
<stop offset="0.6" stop-color="#BD0AFF"/>
<stop offset="0.85" stop-color="#110017"/>
<stop offset="1" stop-color="#640587"/>
</linearGradient>
</defs>
</svg>
