<svg width="720" height="254" viewBox="0 0 720 254" fill="none" xmlns="http://www.w3.org/2000/svg">
<path d="M119.088 204.933C110.25 204.933 101.772 205.041 93.294 204.807C92.5494 204.636 91.8469 204.317 91.2283 203.868C90.6098 203.42 90.088 202.852 89.694 202.197C74.166 177.789 58.71 153.339 43.326 128.847C39.42 122.655 35.568 116.427 30.924 110.379V204.663H0V48.6032C8.99999 48.6032 17.694 48.4952 26.424 48.7112C27.54 48.7112 28.926 50.2592 29.664 51.4112C45.264 76.0712 60.864 100.755 76.464 125.463C80.064 131.349 83.772 137.271 88.0919 144.255V48.8552H119.088V204.933Z" fill="white"/>
<path d="M573.802 143.065V48.9794H604.6V205.057C595.6 205.057 586.924 205.165 578.194 204.913C576.988 204.913 575.53 203.113 574.738 201.925C556.09 172.429 537.49 142.891 518.938 113.311C518.29 112.285 517.624 111.277 516.4 109.387V204.787H485.566V48.7094C491.398 48.7094 497.392 49.2854 503.224 48.5654C510.712 47.6294 514.78 50.5094 518.668 56.8814C535.912 85.1233 553.75 113.005 571.372 141.013C571.876 141.823 572.38 142.597 572.902 143.389L573.802 143.065Z" fill="#78BD1F"/>
<path d="M398.538 175.338H469.206V204.822H376.776V253.8H369.576V0H376.488V48.384H469.044V78.2639H398.502V111.204H459V141.12H398.538V175.338Z" fill="#78BD1F"/>
<path d="M137.158 48.7441H239.128V78.1021H168.46V111.384H228.85V141.264H168.388V175.194H239.056V204.66H137.158V48.7441Z" fill="white"/>
<path d="M684.649 205.31C674.533 205.31 664.975 205.31 655.417 205.202C654.787 205.202 653.887 203.906 653.617 203.06C653.424 201.96 653.394 200.838 653.527 199.73V79.13H617.959V48.998H720.001V78.806H684.649V205.31Z" fill="#78BD1F"/>
<path d="M288.144 78.5887H252.432V48.8887H354.69V78.4267H319.338V204.733H288.144V78.5887Z" fill="white"/>
</svg>
