<svg xmlns="http://www.w3.org/2000/svg" xmlns:xlink="http://www.w3.org/1999/xlink" viewBox="0 0 879.59 197.76"><defs><style>.cls-1{fill:none;}.cls-2{fill:url(#Безымянный_градиент_8);}.cls-3{fill:url(#Безымянный_градиент_8-2);}.cls-4{fill:url(#Безымянный_градиент_8-3);}.cls-5{fill:url(#Безымянный_градиент_8-4);}.cls-6{fill:url(#Безымянный_градиент_8-5);}.cls-7{fill:url(#Безымянный_градиент_8-6);}.cls-8{fill:url(#Безымянный_градиент_8-7);}.cls-9{fill:url(#Безымянный_градиент_8-8);}</style><linearGradient id="Безымянный_градиент_8" x1="80.38" y1="160.89" x2="80.38" y2="2.49" gradientUnits="userSpaceOnUse"><stop offset="0" stop-color="#d614e3"/><stop offset="1" stop-color="#fcb808"/></linearGradient><linearGradient id="Безымянный_градиент_8-2" x1="624.1" y1="158.87" x2="624.1" y2="0.07" xlink:href="#Безымянный_градиент_8"/><linearGradient id="Безымянный_градиент_8-3" x1="404.2" y1="197.47" x2="404.2" y2="40.08" xlink:href="#Безымянный_градиент_8"/><linearGradient id="Безымянный_градиент_8-4" x1="819.57" y1="197.56" x2="819.57" y2="40.32" xlink:href="#Безымянный_градиент_8"/><linearGradient id="Безымянный_градиент_8-5" x1="318.92" y1="158.85" x2="318.92" y2="0" xlink:href="#Безымянный_градиент_8"/><linearGradient id="Безымянный_градиент_8-6" x1="227.07" y1="158.85" x2="227.07" y2="39.77" xlink:href="#Безымянный_градиент_8"/><linearGradient id="Безымянный_градиент_8-7" x1="706.99" y1="160.89" x2="706.99" y2="39.69" xlink:href="#Безымянный_градиент_8"/><linearGradient id="Безымянный_градиент_8-8" x1="527.84" y1="197.76" x2="527.84" y2="39.67" xlink:href="#Безымянный_градиент_8"/></defs><title>OnlyPlay</title><g id="Слой_2" data-name="Слой 2"><g id="Слой_1-2" data-name="Слой 1"><path class="cls-1" d="M244.8,92.76l-.49.1a2.64,2.64,0,0,0,.49-.1Z"/><path class="cls-1" d="M544.06,123.86l0-.12-.11.11Z"/><path class="cls-1" d="M107.93,47h-.3l.25.24C107.9,47.17,107.91,47.09,107.93,47Z"/><path class="cls-1" d="M509.87,123.83h.19l-.15-.15Z"/><path class="cls-1" d="M554.68,95.68l.14,0-.07-.39h0A.39.39,0,0,0,554.68,95.68Z"/><path class="cls-1" d="M113.68,109.77v0l0,0Z"/><path class="cls-1" d="M52.9,47c0,.09,0,.17.07.25l.26-.25Z"/><path class="cls-1" d="M106.76,116.81H107c0-.07,0-.13-.06-.2l-.21.2Z"/><path class="cls-1" d="M53.86,116.82h.23l-.18-.17C53.89,116.71,53.88,116.76,53.86,116.82Z"/><path class="cls-1" d="M542,75h-.35l.29.24C541.94,75.17,542,75.09,542,75Z"/><path class="cls-1" d="M512.34,75.06h-.46c0,.11.06.21.09.31l.37-.31Z"/><path class="cls-1" d="M697.56,106.06q.08.27.13.54l.64-.53Z"/><path class="cls-1" d="M718.94,130.82l0-.12-.11.12Z"/><path class="cls-1" d="M695,130.78h.17l-.12-.14Z"/><path class="cls-2" d="M160.56,75.82h0a5.88,5.88,0,0,0-.59-3.95c.08-2.11.14-4.21-1-6.12a.75.75,0,0,0-.13-.88,6,6,0,0,0-1-4,3.55,3.55,0,0,0-.92-3,9.29,9.29,0,0,0-1.88-5.23,3.28,3.28,0,0,0-1.13-2.74,7,7,0,0,0-2-4.08,5.24,5.24,0,0,0-1.83-3.35,6.3,6.3,0,0,0-2.2-3.59,5,5,0,0,0-2-3l-1.59-2.17A14.33,14.33,0,0,0,140,28.68a7.24,7.24,0,0,0-3-3.06h0a11.13,11.13,0,0,0-4.12-3.77h0A8.67,8.67,0,0,0,129,18.72h0a13.79,13.79,0,0,0-5.11-3.62l-5-3c-3.16-1.75-6.16-3.9-10-4.14-2.1,0-3.33-1.82-5.28-2.41C91.6,2,79.37,1.9,67.1,3.44c-5.23.66-10.5,1.64-15.15,4.47-3.73.43-6.83,2.36-10,4.21l-5,3a13.65,13.65,0,0,0-5.12,3.61,8.65,8.65,0,0,0-3.94,3.13h0a11,11,0,0,0-4.11,3.77,7.13,7.13,0,0,0-3,3.07h0a14.79,14.79,0,0,0-4.34,5.06l-1.56,2.16a4.93,4.93,0,0,0-2,3A5.09,5.09,0,0,0,11,42a6.56,6.56,0,0,0-2.08,3.81,6.85,6.85,0,0,0-2,4.07A3.31,3.31,0,0,0,5.78,52.6h0A9.3,9.3,0,0,0,3.9,57.86h0a3.47,3.47,0,0,0-.92,3,5.66,5.66,0,0,0-1,4,.66.66,0,0,0-.14.83h0C.7,67.62.8,69.75.86,71.87a.41.41,0,0,0-.1.66h0c-1,2-.79,4.19-.64,6.34h0l0,3,.06,4a9.08,9.08,0,0,0,.68,5.25h0L1,92.87a5.91,5.91,0,0,0,.78,4.25l.28,1.77a13.18,13.18,0,0,0,1.77,6.18.67.67,0,0,0,.19.8c-.23,2,1,3.45,1.89,5a2,2,0,0,0,.86,2,7,7,0,0,0,1.89,4,7.31,7.31,0,0,0,2.21,4,4.54,4.54,0,0,0,1.84,3,9.53,9.53,0,0,0,3,4.33,8.4,8.4,0,0,0,3.08,3.86A4.86,4.86,0,0,0,21,134.68a11.09,11.09,0,0,0,4,4A9.88,9.88,0,0,0,28.85,142h0a12.73,12.73,0,0,0,5.07,3.87h0A9.35,9.35,0,0,0,38,148.65a23.79,23.79,0,0,0,7.95,4.2,17.35,17.35,0,0,0,7,2.94,76.47,76.47,0,0,0,55,0,17.52,17.52,0,0,0,7-2.94,24.58,24.58,0,0,0,8-4.21,9.48,9.48,0,0,0,4-2.75h0A12.83,12.83,0,0,0,132,142a10,10,0,0,0,3.86-3.35,14.9,14.9,0,0,0,4.56-4.63l1.62-1.94a8,8,0,0,0,3.06-3.85,9.21,9.21,0,0,0,3-4.31,4.63,4.63,0,0,0,1.85-3,7.17,7.17,0,0,0,2.19-4,6.84,6.84,0,0,0,1.89-4h0c1-.7,1-1.87,1.32-2.89h0l.63-2a3.47,3.47,0,0,0,1-3,13.39,13.39,0,0,0,1.78-6.13l.27-1.83a5.82,5.82,0,0,0,.8-4.2l.52-4h0l.34-4,.06-3,0-3ZM123.78,82.6l-.73,6.28-.93,4-.95,3-1.44,3.93-1.61,3.07-1.83,3-2.63,3.85v0h0l-2.71,3.1-4,3.74c0,.07,0,.13.06.2h-.28l-4,3-4.92,2.72L86.93,126h-13L63,122.54l-4.93-2.75-4-3h-.23c0-.06,0-.11,0-.17l-4-3.77-2.72-3.1-2.82-4.07-1.66-2.83-1.63-3.05-1.42-4L38,90.68l-.23-1.81a11.26,11.26,0,0,0-.73-5.26l0-1.74.08-2.95a6.9,6.9,0,0,0,.62-4.05l.42-2.93,1.59-5.07,1.11-3L42.26,61,44,57.88l2.84-4L49.18,51,53,47.24c0-.09,0-.17-.07-.25h.33l3.91-3L62,41,69,38.23a46.55,46.55,0,0,1,22.77,0l7.06,2.81L103.72,44l3.92,3h.3c0,.08,0,.16-.06.24L111.66,51,114,53.85l2.84,4L118.57,61,120,63.87l1.11,3L122.65,72l.56,3.91.25,4,.35,2A.45.45,0,0,0,123.78,82.6Z"/><path class="cls-3" d="M638,.12C628.64,1,619.29,2,609.92,3c-1.84.18-3.37.49-2.74,2.92h0q0,7,0,14h0q0,8.5,0,17,0,5,0,10h0v8a3.2,3.2,0,0,1,.1.36l-.1-.36q0,3.5,0,7t0,7q0,2.5,0,5h0q0,1.49,0,3h0v4h0q0,1.49,0,3v12q0,2.48,0,5,0,3,0,6h0q0,3.5,0,7h0q0,3.5,0,7h0q0,5,0,10h0V143.8h0v2q0,4.49,0,9c-.89,3.4.45,4.38,3.82,4,8.91-1.09,17.84-2.09,26.79-2.81,3.06-.25,3.73-1.47,3.06-4.1v-4q0-1.5,0-3,0-2,0-4,0-1.5,0-3v-7q0-2,0-4v-3q0-2,0-4h0v-3q0-2,0-4,0-1.5,0-3,0-2,0-4,0-3,0-6v-14q0-2,0-4v-7q0-1.5,0-3,0-2,0-4v-7q0-1.5,0-3,0-2,0-4,0-1.5,0-3,0-2,0-4,0-1.5,0-3,0-2,0-4,0-3,0-6,0-2,0-4,0-1.5,0-3v-4h0q0-1.5,0-3h0q0-2,0-4,0-1.5,0-3,0-2,0-4,0-1.5,0-3C640.19,3.81,643.62-.4,638,.12Z"/><path class="cls-4" d="M462,47.47c-2.64-1.07-5.67.24-8.05-1.67-5.27-1.45-10.53-2.93-15.81-4.33-7-1.85-7-1.82-9.16,5.39a3.73,3.73,0,0,0-1.12,2.87,3.53,3.53,0,0,0-1.14,2.78l-2.21,5.22-.67,2h0a10.4,10.4,0,0,0-2.08,5.11,2.1,2.1,0,0,0-.83,2.06h0a10.09,10.09,0,0,0-2,5h0a4,4,0,0,0-1.19,2.93,2.09,2.09,0,0,0-.82,2,10,10,0,0,0-2,5,3.33,3.33,0,0,0-1.1,2.73A8.13,8.13,0,0,0,412,88.87a4,4,0,0,0-1.12,2.92,8.32,8.32,0,0,0-1.77,4.08l-1.51,3.88-2.52,6.11c-.48.69-1,.47-1.46,0l-2.67-6a4.37,4.37,0,0,0-1.15-3,7.57,7.57,0,0,0-1.71-4l-1.44-3.94-1.33-3.12h0l-1.57-3.88A8.09,8.09,0,0,0,392,77.79a4,4,0,0,0-1.13-2.92,8,8,0,0,0-1.78-4.25,3.38,3.38,0,0,0-1.12-2.75,10,10,0,0,0-2-5h0a2.11,2.11,0,0,0-.85-2.06,4,4,0,0,0-1.18-2.95,8.06,8.06,0,0,0-1.62-4.12c-.25-1-.3-2.18-1.27-2.9h0a4.13,4.13,0,0,0-1.16-3c-.71-2-1.42-4.06-2.15-6.08-.53-1.45-1.37-2-3.05-1.55-8.33,2.25-16.68,4.37-25,6.53h0c-5.77.71-5.77.71-4.67,4.1l1.21,3,1.86,4,1.22,3,1.85,4,.93,2h0l2.13,5h0L355.59,75l1.63,3.89,1.51,3.07h0l1.28,3a7.27,7.27,0,0,0,1.83,4,7.92,7.92,0,0,0,1.74,4.1l1.34,2.88a7.26,7.26,0,0,0,1.8,4.07h0a20.41,20.41,0,0,0,3.15,7,7.67,7.67,0,0,0,1.86,4.24,3.43,3.43,0,0,0,1.19,2.66,7.65,7.65,0,0,0,1.88,4.23h0l.74,1.88a12.33,12.33,0,0,0,2.33,5,2,2,0,0,0,.83,2,10.84,10.84,0,0,0,2.22,5,2.05,2.05,0,0,0,.91,2h0a8.29,8.29,0,0,0,1.71,4.1h0l1.38,2.87h0l1.35,4.95h0l-1.34,3h0l-1.65,3h0l-1.32,3a7.43,7.43,0,0,0-2,4,7.73,7.73,0,0,0-2,4,7.54,7.54,0,0,0-2,4h0l-1,2a7.8,7.8,0,0,0-2,4l-1.47,2.85L370,178.87a7.88,7.88,0,0,0-2,4l-1.45,2.87-2,4c-2.36,3.06-2.94,5,2.23,5.21,7.9.39,15.77,1.36,23.65,2.16s8,.86,10.74-7.15a7.43,7.43,0,0,0,1.76-4.08,2.14,2.14,0,0,0,.93-2.06,10.11,10.11,0,0,0,2.17-4.91,2,2,0,0,0,.88-2,11.33,11.33,0,0,0,2.27-5l.79-1.9A2.23,2.23,0,0,0,411,168h0a9.46,9.46,0,0,0,2.12-4.75,7.8,7.8,0,0,0,1.91-4.31,2.14,2.14,0,0,0,.93-2h0a10.23,10.23,0,0,0,2.18-4.91,2,2,0,0,0,.87-2,11.65,11.65,0,0,0,2.28-5,7.67,7.67,0,0,0,1.75-4.09,2.12,2.12,0,0,0,.92-2,10.46,10.46,0,0,0,2.2-4.93,2,2,0,0,0,.86-2,11.72,11.72,0,0,0,2.29-5l.78-1.9a7.64,7.64,0,0,0,1.88-4.21,3.44,3.44,0,0,0,1.19-2.67A7.49,7.49,0,0,0,435,114a2.26,2.26,0,0,0,.95-2.11h0a9.5,9.5,0,0,0,2.11-4.77,24.21,24.21,0,0,0,3.26-7.12A8,8,0,0,0,443,95.9h0a7.2,7.2,0,0,0,1.83-4l1.3-2.94,1.5-3.08L449.33,82l1.41-3.12,1.84-4,1.23-3,1.86-4,1.21-3,1.87-4,1.22-3a7.58,7.58,0,0,0,1.85-4,4.36,4.36,0,0,0,1.25-2.95C464.63,49.17,464.21,48.37,462,47.47Z"/><path class="cls-5" d="M878.9,48c-1.86-.57-3.81-.83-5.73-1.22-7.2-2-14.47-3.66-21.55-6-4-1.3-5.81-.07-6.64,3.68-.18.8-.5,1.57-.76,2.36l-1.42,4a2.12,2.12,0,0,0-.85,2.07,10.17,10.17,0,0,0-2,5,3.93,3.93,0,0,0-1.18,2.94,2.1,2.1,0,0,0-.83,2.05,10,10,0,0,0-2,5,3.37,3.37,0,0,0-1.11,2.75A8.12,8.12,0,0,0,833,74.87a4.06,4.06,0,0,0-1.13,2.94,3.5,3.5,0,0,0-1.13,2.78h0a12.13,12.13,0,0,0-2.14,5.19A7.87,7.87,0,0,0,827,89.86a4.09,4.09,0,0,0-1.16,3c-1,.73-1,1.86-1.25,2.91A8,8,0,0,0,823,99.87a17.17,17.17,0,0,0-2.45,5.86c-.56.07-1,1-1.69.14l-2-5-2-5A7.94,7.94,0,0,0,813,91.72a3.67,3.67,0,0,0-1.13-2.85,8.16,8.16,0,0,0-1.78-4.34A3.27,3.27,0,0,0,809,81.85a9.9,9.9,0,0,0-2-5h0a2.08,2.08,0,0,0-.8-2,4,4,0,0,0-1.21-2.92,10,10,0,0,0-2-5,2.09,2.09,0,0,0-.85-2.06c-.77-1.67-.69-3.68-2.08-5.09l-.72-2a12.65,12.65,0,0,0-2.18-5.19h0A3.45,3.45,0,0,0,796,49.81a4.09,4.09,0,0,0-1.13-2.94c-1.47-2.29-.25-7.32-4.75-6.45-8.53,1.66-16.88,4.21-25.3,6.39h0c-1.65,1.21-7.08-1.86-4.6,4L761.67,54,763,56.88a7.2,7.2,0,0,0,1.82,4l1.7,4.1,1.4,2.87A7.52,7.52,0,0,0,769.66,72,4.37,4.37,0,0,0,771,74.86a7.29,7.29,0,0,0,1.82,4.06A4.33,4.33,0,0,0,774,81.87a7.47,7.47,0,0,0,1.85,4,7.82,7.82,0,0,0,1.89,4.29h0A3.46,3.46,0,0,0,779,92.86a7.65,7.65,0,0,0,1.88,4.19A3.91,3.91,0,0,0,782,99.87a16.39,16.39,0,0,0,2.74,6.05,10.32,10.32,0,0,0,2.18,4.92,2.14,2.14,0,0,0,.92,2,7.72,7.72,0,0,0,1.75,4.09,4.4,4.4,0,0,0,1.32,2.89,7.27,7.27,0,0,0,1.81,4.07,10.34,10.34,0,0,0,2.18,4.92,2.12,2.12,0,0,0,.92,2,7.82,7.82,0,0,0,1.9,4.31,3.36,3.36,0,0,0,1.18,2.66,7.65,7.65,0,0,0,1.88,4.22l1.1,2.78-1.09,3h0a7.23,7.23,0,0,0-2,4l-1.63,3-2,4h0l-1.32,3h0a7.21,7.21,0,0,0-2,4,7.08,7.08,0,0,0-2,4,2.17,2.17,0,0,0-1,2,7.11,7.11,0,0,0-2,4,7.44,7.44,0,0,0-2,4,7.18,7.18,0,0,0-2,4,2.24,2.24,0,0,0-1,2,7.43,7.43,0,0,0-2,4c-2.75,3.25-2.62,4.81,2.26,5.08,8.12.45,16.22,1.38,24.31,2.25,7.23.78,7.22.86,9.52-6.11a7.65,7.65,0,0,0,1.89-4.23,3.35,3.35,0,0,0,1.18-2.67h0A7.41,7.41,0,0,0,821,180a2.23,2.23,0,0,0,1-2.1h0A9.5,9.5,0,0,0,824,173.1,2.21,2.21,0,0,0,825,171h0a11.8,11.8,0,0,0,2.3-5,7.79,7.79,0,0,0,1.75-4.1,2.06,2.06,0,0,0,.91-2,10.68,10.68,0,0,0,2.21-4.94,2,2,0,0,0,.84-2,12.17,12.17,0,0,0,2.31-5l.75-1.89h0a7.61,7.61,0,0,0,1.88-4.21,3.44,3.44,0,0,0,1.19-2.67h0A7.48,7.48,0,0,0,841,135a2.24,2.24,0,0,0,.95-2.1h0a9.58,9.58,0,0,0,2.11-4.76,7.69,7.69,0,0,0,1.9-4.26,3.3,3.3,0,0,0,1.16-2.6,8.11,8.11,0,0,0,1.93-4.37,2,2,0,0,0,.9-2,11,11,0,0,0,2.24-4.95,7.44,7.44,0,0,0,1.78-4.08,9.32,9.32,0,0,0,2.11-4.72A7.65,7.65,0,0,0,858,96.92h0a7.75,7.75,0,0,0,1.86-4.05A4,4,0,0,0,861,90a7.6,7.6,0,0,0,1.88-4.18h0l1.86-4h0l1.22-3h0a7.48,7.48,0,0,0,1.85-4,4.35,4.35,0,0,0,1.26-2.94,7.33,7.33,0,0,0,1.82-4.06L872.23,65A7.63,7.63,0,0,0,874,60.89a7.36,7.36,0,0,0,1.84-4h0a4.47,4.47,0,0,0,1.28-3,7.26,7.26,0,0,0,1.81-4.06C879.4,49.23,880.16,48.4,878.9,48Z"/><path class="cls-6" d="M335.77,147.87q0-1.5,0-3,0-2,0-4,0-1.5,0-3,0-2,0-4h0q0-1.5,0-3,0-2,0-4,0-1.5,0-3,0-2,0-4,0-1.5,0-3v-4q0-1.5,0-3,0-2,0-4,0-1.5,0-3t0-3q0-2,0-4,0-1.5,0-3,0-2,0-4,0-1.5,0-3,0-2,0-4,0-1.5,0-3,0-2,0-4,0-1.5,0-3,0-2,0-4,0-1.5,0-3,0-2,0-4,0-1.5,0-3,0-2,0-4,0-1.5,0-3,0-2,0-4,0-1.5,0-3,0-2,0-4v-3q0-1.5,0-3v-4q0-1.5,0-3v-4q0-1.5,0-3v-4q0-1.5,0-3,0-2,0-4,0-1.5,0-3c.31-6.56,1.14-6.28-5.8-5.43-8.05,1-16.15,1.63-24.22,2.48-1.78.19-4.44-.5-3.69,2.95v3q0,2,0,4,0,1.5,0,3,0,2,0,4,0,1.5,0,3,0,2,0,4h0q0,1.5,0,3,0,2,0,4,0,1.5,0,3v3q0,2,0,4v3q0,2,0,4v7q0,1.5,0,3v4q0,1.5,0,3h0v4q0,1.5,0,3,0,2,0,4,0,1.5,0,3h0v4q0,1.5,0,3v7q0,2,0,4v3q0,1.5,0,3,0,2,0,4,0,1.5,0,3v4q0,1.5,0,3v4q0,1.5,0,3v7q0,2,0,4,0,1.5,0,3v7h0q0,2,0,4c-.37,8.11-1.12,7.33,6.81,6.43s15.85-1.78,23.8-2.35c3.05-.22,3.71-1.46,3.09-4.08Q335.77,149.87,335.77,147.87Z"/><path class="cls-7" d="M278,105.87a14.78,14.78,0,0,0,0-6q0-2,0-4,0-1.5,0-3v-4l0-3-.06-4-.08-3-.06-2a8.86,8.86,0,0,0-.88-5,5.37,5.37,0,0,0-.92-4,3.43,3.43,0,0,0-.89-3,8.57,8.57,0,0,0-2-5.15,1.88,1.88,0,0,0-.93-1.87,9.63,9.63,0,0,0-3.18-4.89A6.27,6.27,0,0,0,266,49.74a10.25,10.25,0,0,0-5.05-3.9c-12.65-8.44-32.58-8-43.37.87a7,7,0,0,0-3.65,3.12A6.43,6.43,0,0,0,211,53l-3.16,3.64h0a1.78,1.78,0,0,0-.73-.1L207,53.87h0v-7c.62-7.19.62-7.12-6.19-6.31-7.19.85-14.39,1.71-21.61,2.27-2.93.23-3.8,1.36-3.11,4q0,2,0,4v3q0,2,0,4v7q0,1.5,0,3,0,2,0,4,0,1.5,0,3,0,2,0,4,0,1.5,0,3,0,2,0,4,0,1.5,0,3h0v7q0,2,0,4v3q0,1.5,0,3,0,2,0,4,0,1.5,0,3,0,2,0,4,0,1.5,0,3,0,2,0,4,0,1.5,0,3,0,2,0,4,0,1.5,0,3v4q0,1.5,0,3,0,2,0,4v3h0q0,2,0,4c-.37,8.11-1.12,7.33,6.81,6.43s15.85-1.78,23.8-2.35c3.06-.22,3.71-1.46,3.09-4.08v-4q0-1.5,0-3,0-2,0-4,0-1.5,0-3v-7q0-2,0-4,0-1.5,0-3,0-2,0-4,0-1.5,0-3,0-2,0-4,0-1.5,0-3,0-2,0-4,0-1.5,0-3v-3q0-2,0-4,0-1.5,0-3l0-4,.15-3a7.08,7.08,0,0,0,.93-4l1.18-3,3-4L219.27,72h0c6-1.74,11.87-1.66,17.58,1.08L240,75.81,242,78.87h0l1.13,3h0l.92,4,.23,7,.49-.1h0a2.64,2.64,0,0,1-.49.1q0,2.46,0,4.92,0,2,0,4,0,6,0,12h0q0,11,0,21.92c0,6.91-.89,13.84.15,20.72.09.73.23,1.46.39,2.19h0c10.44-.13,20.72-2.06,31.1-2.78,2.93-.2,2.32-2.14,2-4q0-2,0-4,0-1.5,0-3,0-2,0-4,0-1.5,0-3v-4h0q0-1.5,0-3v-4q0-1.5,0-3,0-2,0-4v-3q0-2,0-4,0-1.5,0-3Q278,107.87,278,105.87Z"/><path class="cls-8" d="M755.77,147.87v-3q0-2,0-4,0-1.5,0-3v-4q0-1.5,0-3v-11q0-1.5,0-3,0-2,0-4,0-1.5,0-3v-4q0-1.5,0-3t0-3q0-2,0-4,0-1.5,0-3,0-2,0-4h0q0-1.5,0-3v-4q0-1.5,0-3l0-2a7.85,7.85,0,0,0-.66-5c0-1.77.1-3.56-1.06-5.08a3.48,3.48,0,0,0-1-3.06A7.61,7.61,0,0,0,750.9,59h0l-.7-1.21a7.68,7.68,0,0,0-3-4,9.91,9.91,0,0,0-4.23-4,12.22,12.22,0,0,0-5.13-3.53c-1.78-1.1-3.53-2.27-5.72-2.41-16.78-6.15-33.55-4.76-50.32,0a4.91,4.91,0,0,0-3.9,1.28c-1.58,1.63-1,3.7-1.16,5.62h0c-1.07,1.87-.92,3.93-.93,6a6.11,6.11,0,0,0-.78,4.17l-.32,2.62c-1.08,2-.9,4.18-1,6.32-.81,1.62-1.28,3.26-.27,5.16L684,70.9h0A89.84,89.84,0,0,1,711.88,69l6.93,2.92L721.65,75l1.61,3.9.79,3,.13,2,.13,5c-1.46,3.63-2.8-.91-4.22-.07-12.89-8.45-31.88-8.47-44.43,0A9.68,9.68,0,0,0,671,92a9.34,9.34,0,0,0-4,3.87,4.55,4.55,0,0,0-2.16,2.77,8.5,8.5,0,0,0-2.68,4.21,4.38,4.38,0,0,0-1.24,3c-1.2,1.44-1.44,3.21-1.74,5h0l-.21,2a25.05,25.05,0,0,0-.17,13.23.53.53,0,0,0,.09.77h0c-.12,1.84-.21,3.69.85,5.34.06,1.39,0,2.8,1.11,3.89a3.19,3.19,0,0,0,1.06,2.83h0a2,2,0,0,0,.88,2,9.65,9.65,0,0,0,3.06,5.16A4.38,4.38,0,0,0,668,148.8a9.13,9.13,0,0,0,4,3.84,10.42,10.42,0,0,0,5,3.22c11.88,7,31.43,6.64,41.42-.8a3.93,3.93,0,0,0,2.6-2.12h0a10.86,10.86,0,0,0,4.22-5c1.31,1.06.46,2.64,1,3.9-.49,8.92-.42,7.24,6.77,6.34,6.59-.82,13.17-1.72,19.78-2.22,3.06-.23,3.69-1.51,3.08-4.11Q755.77,149.87,755.77,147.87Zm-32.18-24.12-1.41,3.12-3.27,3.82,0,.12h-.15l-6,3-11.67,0-6-3H695l0-.14-3.25-3.76L690,122.7a2.86,2.86,0,0,1-1.52-2.84,3.81,3.81,0,0,1,1.38-3l1.23-3.94,1-1.72,5.6-4.62q-.05-.26-.13-.54h.78l7.6-1.64,4,.17,7.84,2.7,4.05,3.81,1,1.77,1.18,4,.08,3Z"/><path class="cls-9" d="M588.81,102.87q0-1.5,0-3l0-4,0-1h0c.28-2.08-.4-4-1-6a3.49,3.49,0,0,0-.79-3,5.51,5.51,0,0,0-1.08-4,3.63,3.63,0,0,0-1-3,7.32,7.32,0,0,0-1.59-4.13A10.42,10.42,0,0,0,580.91,70,5.14,5.14,0,0,0,579,66.72a4.8,4.8,0,0,0-2-3,8.2,8.2,0,0,0-3-4h0l-1.71-2a10.6,10.6,0,0,0-4-4,11.17,11.17,0,0,0-4.39-3.67,18.47,18.47,0,0,0-6-3.9c-14.92-7.68-29.89-9.51-44.92-.29a14.87,14.87,0,0,0-6.34,4.86,6.41,6.41,0,0,0-2.86,3,4,4,0,0,0-2,2.65,4.89,4.89,0,0,0-1.91,3.24c-2.3-3.72-.33-7.91-1.28-11.78.07-1.48.07-3,.23-4.44.31-2.75-.53-3.85-3.56-3.45q-12.77,1.67-25.59,2.85c-2.94.27-3.12,1.77-2.63,4q0,2,0,4,0,1.5,0,3,0,2,0,4v3q0,2,0,4,0,1.5,0,3h0q0,2,0,4,0,1.5,0,3,0,2,0,4,0,1.5,0,3,0,2,0,4,0,1.5,0,3,0,2,0,4,0,1.5,0,3,0,2,0,4h0v6q0,2,0,4v3h0q0,2,0,4v7q0,1.5,0,3,0,2,0,4v3q0,2,0,4,0,1.5,0,3,0,2,0,4,0,1.5,0,3v7q0,2,0,4v3q0,2,0,4v6q0,2,0,4,0,1.5,0,3,0,2,0,4,0,1.5,0,3v4h0c-.07,1.65-.06,3.31-.23,5-.24,2.38.57,3.17,3.07,2.88,9.37-1.09,18.77-2,28.16-2.94,1.87-.18,3.36-.51,2.72-2.92h0q0-6,0-12h0q0-4.49,0-9v-17h0c.64-1.9-.57-4.09.93-5.85a9.89,9.89,0,0,0,4.27,4.91,7.49,7.49,0,0,0,4,2.85c14.32,7.17,28.63,6.83,42.95,0,2.39-.15,4.22-1.49,6-2.89a15.44,15.44,0,0,0,6-4,11.9,11.9,0,0,0,4.48-3.79,10.72,10.72,0,0,0,3.95-4h0l1.67-2a8,8,0,0,0,3-4,4.7,4.7,0,0,0,2-3,5.08,5.08,0,0,0,1.89-3.24h0a10.43,10.43,0,0,0,2.41-4.81h0l.69-1.93a9.45,9.45,0,0,0,1.82-5.2,6.22,6.22,0,0,0,1-4l.26-1.75h0c1-1.64.88-3.44.7-5.25Zm-33.78,0-.8,4-1.13,4-.9,2-2.12,4-2.17,3L544,123.75l0,.12h-.15l-4.18,2.92-7.85,2.89-9.87,0-7.78-2.89-4.17-2.91h-.19l0-.15-3.85-3.85-2.16-3-2.14-4-1.12-3-1.07-4-.71-6,.33-3.92a4.12,4.12,0,0,0,.66-3.08l1.3-3.93,1.57-3.07,2.42-3.93,2.71-3.09L512,75.37c0-.1-.05-.2-.09-.31h.46L518.23,72a31.53,31.53,0,0,1,19.69.9l3.71,2.1H542c0,.09,0,.16-.07.25l4.22,3.58,2.71,3.07,2.41,4,1.61,3,1.87,6.35v0h0l.07.39-.14,0a.52.52,0,0,0,.18.2l.21,4Z"/></g></g></svg>