<svg width="179" height="189" viewBox="0 0 179 189" fill="none" xmlns="http://www.w3.org/2000/svg">
<g filter="url(#filter0_dd_148_61)">
<g filter="url(#filter1_bd_148_61)">
<path d="M10.0312 56.3925C10.0312 28.7783 32.417 6.39258 60.0313 6.39258H118.685C146.299 6.39258 168.685 28.7783 168.685 56.3926V123.243C168.685 150.857 146.299 173.243 118.685 173.243H60.0312C32.417 173.243 10.0312 150.857 10.0312 123.243V56.3925Z" fill="url(#paint0_linear_148_61)" shape-rendering="crispEdges"/>
</g>
<path fill-rule="evenodd" clip-rule="evenodd" d="M131.764 89.7261C133.298 90.0238 134.957 91.5572 135.377 93.0659L141.27 114.228C141.42 114.488 141.461 114.79 141.387 115.108C141.352 115.585 141.128 115.943 140.764 116.143L126.89 131.112C125.83 132.256 123.719 132.883 122.241 132.493L101.226 126.955C100.769 127.047 100.338 126.884 100.013 126.486C99.6164 126.191 99.4396 125.784 99.4963 125.336L93.4989 105.931C93.0508 104.481 93.5238 102.403 94.5556 101.29L108.543 86.1987C108.709 85.8556 109.019 85.6233 109.443 85.5412C109.789 85.4149 110.127 85.4313 110.424 85.5835L131.764 89.7261Z" fill="#012169"/>
<rect width="21.6209" height="22.1642" rx="2.74818" transform="matrix(0.295279 0.955411 -0.97505 -0.221986 132.566 92.0742)" fill="white"/>
<rect width="21.2874" height="22.1642" rx="2.74818" transform="matrix(-0.679771 0.733425 0.97505 0.221987 116.596 110.029)" fill="white"/>
<rect width="22.1642" height="22.1642" rx="2.74818" transform="matrix(-0.679771 0.733425 -0.295279 -0.955411 116.469 108.717)" fill="white"/>
<ellipse cx="1.33969" cy="1.33969" rx="1.33969" ry="1.33969" transform="matrix(0.295279 0.955411 -0.97505 -0.221986 121.08 93.0391)" fill="#012169"/>
<ellipse cx="1.33969" cy="1.33969" rx="1.33969" ry="1.33969" transform="matrix(0.295279 0.955411 -0.97505 -0.221986 122.662 98.1582)" fill="#012169"/>
<ellipse cx="1.33969" cy="1.33969" rx="1.33969" ry="1.33969" transform="matrix(0.295279 0.955411 -0.97505 -0.221986 124.244 103.277)" fill="#012169"/>
<ellipse cx="1.33969" cy="1.33969" rx="1.33969" ry="1.33969" transform="matrix(-0.679771 0.733425 0.97505 0.221986 120.068 118.693)" fill="#012169"/>
<ellipse cx="1.33969" cy="1.33969" rx="1.33969" ry="1.33969" transform="matrix(0.295279 0.955411 -0.97505 -0.221986 128.189 94.1484)" fill="#012169"/>
<ellipse cx="1.33969" cy="1.33969" rx="1.33969" ry="1.33969" transform="matrix(0.295279 0.955411 -0.97505 -0.221986 129.771 99.2676)" fill="#012169"/>
<ellipse cx="1.33969" cy="1.33969" rx="1.33969" ry="1.33969" transform="matrix(0.295279 0.955411 -0.97505 -0.221986 131.354 104.387)" fill="#012169"/>
<ellipse cx="1.33969" cy="1.33969" rx="1.33969" ry="1.33969" transform="matrix(-0.295279 -0.955411 -0.679771 0.733425 108.553 111.672)" fill="#012169"/>
<ellipse cx="1.33969" cy="1.33969" rx="1.33969" ry="1.33969" transform="matrix(-0.295279 -0.955411 -0.679771 0.733425 106.969 106.553)" fill="#012169"/>
<ellipse cx="1.33969" cy="1.33969" rx="1.33969" ry="1.33969" transform="matrix(-0.295279 -0.955411 -0.679771 0.733425 105.389 101.434)" fill="#012169"/>
<path fill-rule="evenodd" clip-rule="evenodd" d="M53.3431 131.239C54.4907 132.3 56.7082 132.73 58.1731 132.176L78.4131 124.523C78.4279 124.517 78.4426 124.511 78.4572 124.505C78.7035 124.456 78.9256 124.327 79.1094 124.124C79.4427 123.837 79.5999 123.48 79.5772 123.103C79.5785 123.096 79.5797 123.09 79.5809 123.084L83.385 103.328C83.6798 101.797 82.9363 99.7244 81.7474 98.763L65.1096 85.3088C64.9092 84.9177 64.5394 84.685 64.0531 84.6548C63.6141 84.5287 63.2105 84.6141 62.8961 84.8856L43.9862 91.434C42.552 91.9307 41.1567 93.5416 40.8697 95.032L37.0395 114.924L37.0316 114.966C36.8913 115.284 36.9001 115.641 37.0692 116.001C37.1656 116.302 37.3444 116.534 37.5892 116.682L53.3431 131.239Z" fill="#012169"/>
<rect width="22.1642" height="21.6645" rx="2.74818" transform="matrix(0.944944 -0.327233 -0.755864 -0.654729 56.2344 130.807)" fill="white"/>
<rect width="22.1642" height="22.1642" rx="2.74818" transform="matrix(0.18908 -0.981962 0.755864 0.654729 61.0957 108.168)" fill="white"/>
<rect width="21.603" height="22.1642" rx="2.74818" transform="matrix(0.18908 -0.981962 -0.944944 0.327233 60.2344 107.432)" fill="white"/>
<ellipse cx="1.33969" cy="1.33969" rx="1.33969" ry="1.33969" transform="matrix(0.944944 -0.327233 -0.755864 -0.654729 50.2168 120.977)" fill="#012169"/>
<ellipse cx="1.33969" cy="1.33969" rx="1.33969" ry="1.33969" transform="matrix(0.944944 -0.327233 -0.755864 -0.654729 55.2793 119.221)" fill="#012169"/>
<ellipse cx="1.33969" cy="1.33969" rx="1.33969" ry="1.33969" transform="matrix(0.944944 -0.327233 -0.755864 -0.654729 60.3438 117.469)" fill="#012169"/>
<ellipse cx="1.33969" cy="1.33969" rx="1.33969" ry="1.33969" transform="matrix(0.18908 -0.981962 0.755864 0.654729 70.3008 104.98)" fill="#012169"/>
<ellipse cx="1.33969" cy="1.33969" rx="1.33969" ry="1.33969" transform="matrix(0.944944 -0.327233 -0.755864 -0.654729 55.3203 126.055)" fill="#012169"/>
<ellipse cx="1.33969" cy="1.33969" rx="1.33969" ry="1.33969" transform="matrix(0.944944 -0.327233 -0.755864 -0.654729 60.3828 124.299)" fill="#012169"/>
<ellipse cx="1.33969" cy="1.33969" rx="1.33969" ry="1.33969" transform="matrix(0.944944 -0.327233 -0.755864 -0.654729 65.4453 122.547)" fill="#012169"/>
<ellipse cx="1.33969" cy="1.33969" rx="1.33969" ry="1.33969" transform="matrix(-0.944944 0.327233 0.18908 -0.981962 57.8301 99.8516)" fill="#012169"/>
<ellipse cx="1.33969" cy="1.33969" rx="1.33969" ry="1.33969" transform="matrix(-0.944944 0.327233 0.18908 -0.981962 52.7676 101.605)" fill="#012169"/>
<ellipse cx="1.33969" cy="1.33969" rx="1.33969" ry="1.33969" transform="matrix(-0.944944 0.327233 0.18908 -0.981962 47.7012 103.359)" fill="#012169"/>
<path d="M47.2769 94.3575L47.2769 94.3575L47.27 94.3629C47.1217 94.479 46.8718 94.4464 46.7565 94.3066C46.7559 94.3059 46.7554 94.3051 46.7548 94.3044L25.1161 67.0513L25.1161 67.0513L25.1108 67.0447C24.9971 66.9041 25.0205 66.6623 25.164 66.5477L43.3467 52.5844L43.3467 52.5844L43.3536 52.579C43.5019 52.4629 43.7519 52.4956 43.8671 52.6354C43.8677 52.6361 43.8683 52.6368 43.8688 52.6375L65.5036 79.8857C65.504 79.8862 65.5045 79.8868 65.5049 79.8873C65.6387 80.0598 65.602 80.2808 65.4597 80.3942C65.4589 80.3948 65.4581 80.3954 65.4574 80.396L47.2769 94.3575Z" fill="white" stroke="#012169" stroke-width="1.90811"/>
<path d="M48.3424 69.8772L41.8446 69.0546L41.0872 75.4112L41.0948 75.4385C40.8691 77.1903 42.1662 78.7801 43.9474 79.018C45.4502 79.2115 46.8124 78.3613 47.3467 77.0839C47.5726 77.5799 47.7156 78.0975 47.7758 78.6365L48.4306 78.1161L49.2083 77.5053L49.8631 76.9849C49.3387 76.8 48.8746 76.5119 48.4305 76.1893C49.8555 75.9943 50.9969 74.8803 51.1875 73.4295C51.3932 71.7121 50.1236 70.1151 48.3424 69.8772Z" fill="#012169"/>
<path d="M32.3856 67.5967L30.4681 67.3394L30.2377 69.2309C30.1953 69.7586 30.5626 70.2277 31.1093 70.3216C31.5556 70.3945 31.9605 70.1491 32.1278 69.7302C32.2208 69.8941 32.2574 70.0256 32.2621 70.2123L32.4585 70.0677L32.6868 69.8679L32.8832 69.7234C32.7263 69.6698 32.6014 69.5611 32.4445 69.5076C32.8541 69.449 33.1905 69.1274 33.2573 68.6874C33.2996 68.1597 32.8882 67.702 32.3856 67.5967Z" fill="#012169"/>
<path d="M58.6984 77.8061L59.7097 77.9417L59.8314 76.9442C59.8538 76.6659 59.6601 76.4186 59.3717 76.3691C59.1364 76.3307 58.9228 76.4601 58.8345 76.6811C58.7855 76.5946 58.7662 76.5253 58.7638 76.4268L58.6602 76.5031L58.5397 76.6085L58.4362 76.6847C58.5189 76.7129 58.5848 76.7702 58.6675 76.7985C58.4515 76.8294 58.2741 76.999 58.2388 77.231C58.2164 77.5093 58.4165 77.7797 58.6984 77.8061Z" fill="#012169"/>
<path d="M59.7286 78.2907L59.7711 78.3541L59.6044 78.4713L60.1455 78.8025L60.616 78.4337L60.4252 77.8389L60.305 77.9441L60.2818 77.9501C60.2585 77.9561 60.2288 77.939 60.1991 77.9219L60.6296 77.5881L60.6721 77.6515L60.5286 77.7627L61.0945 79.524L60.951 79.6353L59.3174 78.6938L59.2373 78.764C59.214 78.77 59.214 78.77 59.214 78.77C59.1907 78.776 59.161 78.7588 59.1313 78.7417L59.7286 78.2907ZM60.8944 79.2536L60.6715 78.5432L60.241 78.877L60.8944 79.2536Z" fill="#012169"/>
<path d="M152.26 65.7302C152.374 65.5896 152.351 65.3479 152.207 65.2332L134.024 51.27L134.024 51.27L134.017 51.2646C133.869 51.1485 133.619 51.1811 133.504 51.3209C133.503 51.3216 133.503 51.3223 133.502 51.323L111.868 78.5712C111.867 78.5718 111.867 78.5723 111.866 78.5729C111.732 78.7453 111.769 78.9663 111.911 79.0798C111.912 79.0804 111.913 79.081 111.914 79.0816L130.094 93.0431L130.094 93.043L130.101 93.0484C130.249 93.1645 130.499 93.1319 130.615 92.9921C130.615 92.9914 130.616 92.9907 130.616 92.99L152.255 65.7368L152.255 65.7368L152.26 65.7302Z" fill="white" stroke="#012169" stroke-width="1.90811"/>
<path d="M136.884 73.409C136.838 71.6815 135.377 70.3664 133.613 70.4354L133.584 70.4356L133.584 70.4068C133.537 68.6793 132.077 67.3642 130.313 67.4332C128.549 67.5022 127.187 68.9508 127.233 70.6783L127.233 70.7071L127.425 76.9257L133.776 76.6542L133.805 76.654C135.569 76.585 136.931 75.1076 136.884 73.409Z" fill="#012169"/>
<path d="M148.384 66.748C148.368 66.1364 147.851 65.6708 147.226 65.6952L147.216 65.6953L147.216 65.6851C147.199 65.0735 146.682 64.6079 146.058 64.6323C145.433 64.6567 144.951 65.1696 144.967 65.7812L144.967 65.7914L145.035 67.9931L147.284 67.897L147.294 67.8969C147.919 67.8725 148.401 67.3494 148.384 66.748Z" fill="#012169"/>
<path d="M118.677 76.4955L117.665 76.6311L117.544 75.6336C117.521 75.3554 117.715 75.108 118.003 75.0586C118.239 75.0202 118.452 75.1496 118.54 75.3705C118.589 75.2841 118.609 75.2147 118.611 75.1163L118.715 75.1925L118.835 75.2979L118.939 75.3742C118.856 75.4024 118.79 75.4597 118.707 75.4879C118.924 75.5188 119.101 75.6884 119.136 75.9205C119.159 76.1987 118.959 76.4691 118.677 76.4955Z" fill="#012169"/>
<path d="M117.648 76.9841L117.606 77.0474L117.773 77.1646L117.232 77.4959L116.761 77.127L116.952 76.5322L117.072 76.6375L117.095 76.6435C117.118 76.6495 117.148 76.6323 117.178 76.6152L116.747 76.2815L116.705 76.3448L116.848 76.456L116.282 78.2173L116.426 78.3286L118.06 77.3872L118.14 77.4573C118.163 77.4633 118.163 77.4633 118.163 77.4633C118.186 77.4693 118.216 77.4522 118.246 77.4351L117.648 76.9841ZM116.483 77.9469L116.705 77.2366L117.136 77.5703L116.483 77.9469Z" fill="#012169"/>
<path fill-rule="evenodd" clip-rule="evenodd" d="M87.7499 38.9199H45.3555V80.9908C45.3555 112.22 73.6185 134.065 87.7499 139.566C101.881 134.065 130.144 112.22 130.144 80.9908V38.9199H87.7499Z" fill="white"/>
<path d="M45.3555 38.9199V37.9659H44.4014V38.9199H45.3555ZM87.7499 139.566L87.4038 140.455L87.7499 140.59L88.0961 140.455L87.7499 139.566ZM130.144 38.9199H131.098V37.9659H130.144V38.9199ZM45.3555 39.874H87.7499V37.9659H45.3555V39.874ZM46.3095 80.9908V38.9199H44.4014V80.9908H46.3095ZM88.0961 138.677C81.184 135.986 70.7095 129.244 61.9701 119.297C53.239 109.359 46.3095 96.3057 46.3095 80.9908H44.4014C44.4014 96.9054 51.6034 110.389 60.5367 120.556C69.4616 130.714 80.1844 137.645 87.4038 140.455L88.0961 138.677ZM88.0961 140.455C95.3155 137.645 106.038 130.714 114.963 120.556C123.896 110.389 131.098 96.9054 131.098 80.9908H129.19C129.19 96.3057 122.261 109.359 113.53 119.297C104.79 129.244 94.3159 135.986 87.4038 138.677L88.0961 140.455ZM131.098 80.9908V38.9199H129.19V80.9908H131.098ZM130.144 37.9659H87.7499V39.874H130.144V37.9659Z" fill="#012169"/>
<path fill-rule="evenodd" clip-rule="evenodd" d="M48.627 42.8027H87.7498H126.873V81.627C126.873 110.446 100.791 130.605 87.7498 135.682C74.7089 130.605 48.627 110.446 48.627 81.627V42.8027ZM80.749 83.5261L86.5942 82.6665V99.7414L76.928 94.1607L80.5701 89.5598L78.0024 89.0911L76.689 80.8316L74.9631 82.0653L71.7764 78.8063L70.6696 82.8301L68.2775 82.0573L69.7149 86.9418L63.879 81.9506L63.8429 85.1735L58.3585 84.8443L58.3564 84.8431L58.3571 84.8442L58.3565 84.8441L58.3575 84.8447L61.3848 89.4298L58.6118 91.0725L65.8522 93.6309L60.9035 94.8284L62.7688 96.5136L59.8374 99.484L64.2532 100.614L64.0478 102.726L71.8574 99.7335L73.5471 101.723L75.7567 96.1517L86.5942 102.409V115.218L87.7491 116.545L88.9041 115.218V102.316L99.6648 96.1032L99.7245 96.2627L101.949 101.871L103.639 99.8821L111.448 102.874L111.243 100.763L115.659 99.6326L112.727 96.6622L114.593 94.977L109.644 93.7795L116.884 91.2211L114.111 89.5784L117.139 84.9933L117.14 84.9927L117.139 84.9928L117.14 84.9917L117.138 84.9928L111.653 85.322L111.617 82.0992L105.781 87.0904L107.219 82.2058L104.827 82.9787L103.72 78.9548L100.533 82.2138L98.8071 80.9802L97.4937 89.2397L94.9261 89.7084L98.4377 94.1444L88.9041 99.6486V82.6599L94.7948 83.5261L93.917 81.0681L100.413 75.801L98.4818 74.9231L99.7108 70.5338L95.6727 71.5872L95.146 69.1292L91.6345 72.8162L93.0391 65.2666L90.2299 66.8468L87.7719 61.9307V81.702H87.7718V61.9307L85.3138 66.8468L82.5047 65.2666L83.9093 72.8162L80.3978 69.1292L79.8711 71.5872L75.8329 70.5338L77.0619 74.9231L75.1306 75.801L81.6268 81.0681L80.749 83.5261Z" fill="#146AFF"/>
<path d="M48.6309 42.8047V41.8506H47.6768V42.8047H48.6309ZM87.7538 135.684L87.4076 136.573L87.7538 136.708L88.0999 136.573L87.7538 135.684ZM126.877 42.8047H127.831V41.8506H126.877V42.8047ZM48.6309 43.7587H87.7538V41.8506H48.6309V43.7587ZM49.5849 81.6289V42.8047H47.6768V81.6289H49.5849ZM88.0999 134.795C81.7331 132.316 72.0765 126.101 64.0187 116.93C55.9692 107.769 49.5849 95.7388 49.5849 81.6289H47.6768C47.6768 96.3385 54.3335 108.798 62.5852 118.19C70.8286 127.572 80.7335 133.975 87.4076 136.573L88.0999 134.795ZM88.0999 136.573C94.774 133.975 104.679 127.572 112.922 118.19C121.174 108.798 127.831 96.3385 127.831 81.6289H125.923C125.923 95.7388 119.538 107.769 111.489 116.93C103.431 126.101 93.7745 132.316 87.4076 134.795L88.0999 136.573ZM127.831 81.6289V42.8047H125.923V81.6289H127.831ZM126.877 41.8506H87.7538V43.7587H126.877V41.8506Z" fill="#012169"/>
</g>
<defs>
<filter id="filter0_dd_148_61" x="0.157109" y="2.32676" width="178.403" height="186.598" filterUnits="userSpaceOnUse" color-interpolation-filters="sRGB">
<feFlood flood-opacity="0" result="BackgroundImageFix"/>
<feColorMatrix in="SourceAlpha" type="matrix" values="0 0 0 0 0 0 0 0 0 0 0 0 0 0 0 0 0 0 127 0" result="hardAlpha"/>
<feOffset dy="5.80832"/>
<feGaussianBlur stdDeviation="4.93707"/>
<feColorMatrix type="matrix" values="0 0 0 0 0.129412 0 0 0 0 0.14902 0 0 0 0 0.309804 0 0 0 0.15 0"/>
<feBlend mode="normal" in2="BackgroundImageFix" result="effect1_dropShadow_148_61"/>
<feColorMatrix in="SourceAlpha" type="matrix" values="0 0 0 0 0 0 0 0 0 0 0 0 0 0 0 0 0 0 127 0" result="hardAlpha"/>
<feOffset dy="6.96998"/>
<feGaussianBlur stdDeviation="2.90416"/>
<feColorMatrix type="matrix" values="0 0 0 0 0.129412 0 0 0 0 0.14902 0 0 0 0 0.309804 0 0 0 0.15 0"/>
<feBlend mode="normal" in2="effect1_dropShadow_148_61" result="effect2_dropShadow_148_61"/>
<feBlend mode="normal" in="SourceGraphic" in2="effect2_dropShadow_148_61" result="shape"/>
</filter>
<filter id="filter1_bd_148_61" x="3.67834" y="0.315877" width="171.36" height="179.555" filterUnits="userSpaceOnUse" color-interpolation-filters="sRGB">
<feFlood flood-opacity="0" result="BackgroundImageFix"/>
<feGaussianBlur in="BackgroundImageFix" stdDeviation="2.76214"/>
<feComposite in2="SourceAlpha" operator="in" result="effect1_backgroundBlur_148_61"/>
<feColorMatrix in="SourceAlpha" type="matrix" values="0 0 0 0 0 0 0 0 0 0 0 0 0 0 0 0 0 0 127 0" result="hardAlpha"/>
<feMorphology radius="0.276214" operator="erode" in="SourceAlpha" result="effect2_dropShadow_148_61"/>
<feOffset dy="0.276214"/>
<feGaussianBlur stdDeviation="3.31456"/>
<feComposite in2="hardAlpha" operator="out"/>
<feColorMatrix type="matrix" values="0 0 0 0 0 0 0 0 0 0 0 0 0 0 0 0 0 0 0.1 0"/>
<feBlend mode="normal" in2="effect1_backgroundBlur_148_61" result="effect2_dropShadow_148_61"/>
<feBlend mode="normal" in="SourceGraphic" in2="effect2_dropShadow_148_61" result="shape"/>
</filter>
<linearGradient id="paint0_linear_148_61" x1="10.0313" y1="6.39258" x2="198.541" y2="77.7711" gradientUnits="userSpaceOnUse">
<stop stop-color="white" stop-opacity="0.4"/>
<stop offset="0.510417" stop-color="white" stop-opacity="0.1"/>
</linearGradient>
</defs>
</svg>
