<svg width="689" height="234" viewBox="0 0 689 234" fill="none" xmlns="http://www.w3.org/2000/svg">
<path d="M36.2441 156.903C49.8447 156.903 58.4753 164.06 58.4753 176.483C58.4753 186.603 51.8703 193.492 44.5926 195.115L70.3252 231.298L60.4864 234L30.1745 201.866C30.1745 201.866 27.8884 193.492 27.4833 192.145C29.234 192.413 32.3303 192.55 35.4339 191.869C40.1507 190.928 45.1279 184.85 45.1279 177.157C45.1279 168.377 39.6081 164.328 31.3899 164.328C29.234 164.328 25.7326 164.466 23.3091 164.596V224.547L33.0031 224.416L33.4155 230.762H0L0.535342 224.416L10.5115 224.547V165.27L0.137453 163.922L0.672795 157.577H17.9195C17.9195 157.577 32.8729 156.903 36.2441 156.903ZM101.447 176.208C117.616 176.208 130.819 186.473 130.689 203.083C130.689 221.845 116.806 231.841 99.5664 231.841C84.0704 231.841 70.3252 221.982 70.3252 205.111C70.3252 186.603 83.933 176.208 101.447 176.208ZM501.189 177.15C511.831 187.69 525.301 203.213 533.794 214.152L533.252 184.85L522.205 183.503L522.878 177.425H549.283L548.748 183.633L541.202 184.988V230.487L533.252 231.704C523.818 219.686 507.519 199.975 497.818 189.979L498.36 224.416H508.995L509.27 230.624H480.839L481.244 224.416H490.272V184.72L480.846 183.365L481.519 177.157L501.189 177.15ZM294.38 177.425L293.975 183.633L284.281 184.988V224.547H300.443L303.409 210.914L310.007 212.123L309.334 231.436C305.932 231.095 302.516 230.913 299.097 230.892H262.448L262.853 224.684H272.012V184.988L262.448 183.633L263.121 177.425H294.38ZM591.047 176.614C609.509 176.614 621.634 186.067 621.771 203.076C621.771 221.714 609.241 231.436 591.047 231.436C586.467 231.436 574.48 230.762 574.48 230.762H558.984L559.389 224.547H568.548V184.85L558.984 183.503L559.657 177.287H574.075C574.075 177.287 586.467 176.614 591.047 176.614ZM163.019 177.425L162.484 183.633L154.938 184.988C158.034 189.305 163.287 197.541 166.122 203.213C168.814 198.085 174.066 188.899 176.627 184.988L169.624 183.633L169.892 177.425H191.58L192.123 183.633L186.06 184.988C181.611 191.065 173.661 204.025 170.434 211.044V224.684H179.593L179.998 230.892H148.471L148.876 224.684H158.034V211.044C154.128 203.887 146.452 192.137 140.788 184.988L134.725 183.633L135.268 177.425H163.019ZM392.059 157.033C407.822 157.033 416.308 165.139 416.308 177.823C416.308 194.571 402.838 200.787 390.438 200.787C388.955 200.787 387.884 200.787 386.264 200.649L384.238 193.354C385.454 193.499 386.807 193.63 388.42 193.63C395.698 193.63 403.373 189.848 403.373 178.635C403.373 169.725 398.259 164.328 389.498 164.328C386.669 164.328 383.168 164.466 381.142 164.596V224.684H394.482L394.887 230.892H357.565L358.108 224.684H368.077V165.407L357.703 164.06L358.238 157.714L375.311 157.707C376.447 157.642 387.335 157.033 392.059 157.033ZM227.152 177.295C231.058 188.233 242.242 214.565 247.769 224.554H253.825L254.23 230.769H224.591L224.996 224.554H233.749C232.034 220.953 230.417 217.306 228.902 213.616H209.905C208.827 216.455 206.136 222.395 205.188 224.554H213.413L214.086 230.769H189.034L189.432 224.554H195.494C201.426 213.21 211.395 189.45 215.844 177.295H227.152ZM445.542 177.295C449.449 188.233 460.771 214.565 466.29 224.554H472.085L472.49 230.769H442.851L443.256 224.554H452.147C450.382 220.955 448.717 217.308 447.156 213.616H428.165C427.08 216.455 424.259 222.395 423.318 224.554H431.804L432.477 230.769H407.417L407.822 224.554H413.754C419.679 213.21 429.779 189.45 434.228 177.295H445.542ZM662.052 177.295C665.959 188.233 677.273 214.565 682.8 224.554H688.588L689 230.769H659.354L659.759 224.554H668.657C667.442 221.852 665.018 216.861 663.665 213.616H644.675C643.59 216.455 640.769 222.395 639.828 224.554H648.177L648.849 230.769H623.79L624.195 224.554H630.127C636.052 213.21 646.151 189.45 650.6 177.295H662.052ZM100.912 183.51C91.6159 183.51 83.8028 189.718 83.8028 204.17C83.8028 217.535 90.4005 224.554 100.239 224.554C110.613 224.554 117.211 216.861 117.211 203.764C117.211 189.718 110.071 183.51 100.912 183.51ZM589.028 183.51C586.467 183.51 582.561 183.778 580.405 183.916V224.554H589.969C601.291 224.554 608.431 216.991 608.431 203.894C608.431 189.45 599.808 183.51 589.028 183.51ZM219.606 188.363H219.071C217.45 193.231 214.224 202.141 212.328 206.864H226.609C224.122 200.759 221.787 194.585 219.606 188.363ZM438.134 188.363H437.599C435.978 193.231 432.752 202.141 430.857 206.864H445.137C442.651 200.759 440.316 194.585 438.134 188.363ZM654.369 188.363H653.834C652.213 193.231 648.987 202.141 647.099 206.864H661.379C658.89 200.759 656.553 194.585 654.369 188.363ZM373.329 117.75L373.184 117.895L372.743 118.336C370.392 120.582 361.067 128.406 345.708 128.406C327.796 128.406 317.147 117.742 317.147 117.742L373.329 117.75ZM345.173 0L368.612 29.9753C363.497 32.2716 359.186 35.7777 356.487 40.6383C348.001 55.7636 357.16 78.4515 377.105 89.7883C397.043 101.263 418.196 96.8148 426.82 81.6896C433.417 70.0776 431.399 54.6843 420.077 43.2099C430.08 38.7713 440.095 34.3597 450.122 29.9753L426.682 111.795H355.142C350.562 111.795 346.786 108.825 345.173 105.044C344.319 107.026 342.91 108.718 341.116 109.916C339.323 111.114 337.222 111.766 335.066 111.795H263.526L240.217 29.9825L240.542 30.1274C243.356 31.3589 263.989 40.45 270.261 43.2172C258.947 54.6915 256.928 70.0848 263.533 81.6968C272.149 96.8148 293.44 101.139 313.378 89.7955C333.453 78.3211 342.612 55.7709 333.996 40.6456C331.16 35.7922 326.978 32.2789 321.864 29.9825L345.173 0ZM345.173 85.0652C342.344 85.0652 339.516 85.6013 337.092 86.6806C333.471 88.2372 330.348 90.7608 328.064 93.9752C339.11 98.8287 342.077 100.589 345.173 100.589C348.001 100.589 351.235 98.7055 362.282 93.8376C359.983 90.6702 356.86 88.1948 353.254 86.6806C350.696 85.6028 347.948 85.0533 345.173 85.0652Z" fill="white"/>
</svg>
