<svg width="561" height="278" viewBox="0 0 561 278" fill="none" xmlns="http://www.w3.org/2000/svg">
<path d="M60 3.38065C60 1.36418 61.3438 0.019864 63.3595 0.019864H103.674C124.839 -0.652292 142.308 15.8156 142.98 36.9885C143.652 58.1615 127.19 75.6376 106.025 76.3097C105.354 76.3097 104.682 76.3097 103.674 76.3097H82.5088V116.639C82.5088 118.656 81.165 120 79.1493 120H63.3595C61.3438 120 60 118.656 60 116.639V3.38065ZM102.33 55.4729C112.073 55.4729 120.135 47.407 120.135 37.6607C120.135 37.6607 120.135 37.6607 120.135 37.3246C119.799 27.9144 112.073 20.5207 102.666 20.5207H82.5088V55.1368H102.33V55.4729Z" fill="white"/>
<path d="M132.336 115.653L179.645 13.6718C179.98 12.6687 180.987 12 182.329 12H184.007C185.013 12 186.355 12.6687 186.691 13.6718L233.664 115.988C234.336 117.325 234 118.997 232.658 119.666C232.322 120 231.651 120 230.98 120H217.559C215.546 120 213.868 118.997 213.197 116.991L205.816 100.607H160.184L152.803 116.656C152.132 118.663 150.454 119.666 148.441 119.666H135.02C133.678 119.666 132.336 118.663 132 117.325C132 116.991 132 116.322 132.336 115.653ZM198.099 83.5542L183 50.1177H182.664L167.566 83.5542H198.099Z" fill="white"/>
<path d="M244.335 16.0283C244.335 14.3459 245.674 13 247.347 13H290.862C308.938 13 324 27.4685 324 45.9749C324 60.107 314.628 71.5472 301.573 76.9309L322.326 115.626C323.331 116.972 322.661 118.654 321.323 119.664C320.653 120 320.318 120 319.649 120H303.582C302.577 120 301.574 119.664 301.239 118.654L281.155 78.2768H264.419V116.972C264.419 118.654 263.079 119.664 261.406 120H247.013C245.339 120 244 118.654 244 116.972L244.335 16.0283ZM288.854 61.7894C297.222 61.4529 303.916 54.7233 303.916 46.3114C303.582 38.2359 296.887 31.5063 288.854 31.5063H264.084V61.7894H288.854Z" fill="white"/>
<path d="M356.658 31.4483H333.037C331.35 31.4483 330 30.1066 330 28.4295V16.0188C330 14.3417 331.35 13 333.037 13H400.189C401.877 13 403.564 16.0188 403.564 16.0188L412 28.4295C412 30.1066 410.65 31.4483 408.963 31.4483H376.568V116.981C376.568 118.658 375.218 119.665 373.531 120H359.358C357.671 120 356.658 118.658 356.321 116.981V31.4483H356.658Z" fill="white"/>
<path d="M448.206 68.1919L413.586 17.0472C412.578 15.7013 412.914 14.0189 414.259 13.0094C414.931 12.673 415.267 12.3365 415.939 12.3365H431.4C432.408 12.3365 433.417 13.0094 433.753 13.6824L458.289 48.6762L482.825 13.3459C483.497 12.673 484.169 12 485.178 12H500.975C502.656 12 504 13.0094 504 14.6918C504 15.3648 504 16.0377 503.328 16.3742L468.036 67.1825V115.972C468.036 117.654 466.692 118.664 465.011 119H450.895C449.214 119 447.87 117.654 447.87 115.972V68.1919H448.206Z" fill="white"/>
<path d="M499.332 155C533.183 155 561 182.482 561 216.332C561 250.183 533.518 278 499.668 278C465.817 278 438 250.518 438 216.668C438 182.817 465.147 155 499.332 155ZM499.332 255.88C521.117 255.88 538.88 238.452 538.88 216.668C538.88 194.883 521.452 177.12 499.668 177.12C477.883 177.12 460.12 194.548 460.12 216.332V216.668C460.455 238.117 477.883 255.545 499.332 255.88Z" fill="#F01593"/>
<path d="M101 270.988L148.156 168.672C148.49 167.669 149.493 167 150.831 167H152.169C153.172 167 154.51 167.669 154.844 168.672L201.666 270.988C202.334 272.325 202 273.997 200.662 274.666C200.328 275 199.659 275 198.99 275H185.947C183.94 275 182.268 273.997 181.599 271.991L174.242 255.607H128.758L121.401 271.991C120.732 273.997 119.06 275 117.053 275H103.675C102.338 275 101 273.997 101 272.325C101 271.656 101 271.322 101 270.988ZM166.884 238.554L151.5 205.118H151.166L136.45 238.554H166.884Z" fill="#F01593"/>
<path d="M204.712 259.985L210.068 250.653C210.737 248.987 212.746 248.32 214.419 248.987C214.754 248.987 214.754 249.32 215.089 249.32C215.758 249.653 228.143 258.652 238.185 258.652C246.218 258.652 251.908 253.652 251.908 246.987C251.908 239.321 245.214 233.989 232.494 228.657C218.101 222.991 204.043 213.992 204.043 195.995C204.043 182.664 214.084 167 238.185 167C249.23 167 259.607 170.666 268.644 176.998C270.318 178.331 270.653 180.331 269.649 181.998L263.958 190.663C262.954 192.662 260.611 193.329 258.603 192.329C257.264 191.663 245.883 183.997 237.515 183.997C229.147 183.997 224.126 189.663 224.126 194.662C224.126 201.661 229.817 206.66 242.201 211.659C256.929 217.658 274 226.324 274 245.987C274 261.651 260.611 275.982 239.189 275.982C226.804 276.315 215.089 271.983 205.716 264.317C204.043 262.984 203.373 262.318 204.712 259.985Z" fill="#F01593"/>
<path d="M292 171.019C292 169.342 293.333 168.335 295 168H309C310.667 168 311.667 169.342 312 171.019V271.981C312 273.658 310.667 274.665 309 275H295C293.333 275 292.333 273.658 292 271.981V171.019Z" fill="#F01593"/>
<path d="M338 169.675C338 168.003 339.333 167 341 167H344.667L408 233.871V171.012C408 169.34 409.333 168.003 411 168.003H425C426.667 168.003 427.667 169.34 428 171.012V273.325C428 274.997 426.667 276 425 276H421.333L358 206.454V271.653C358 273.325 356.667 274.663 355 274.663H341.333C339.667 274.663 338.667 273.325 338.333 271.653L338 169.675Z" fill="#F01593"/>
<path d="M96.6431 241.586C94.6367 243.256 82.2637 253.947 68.2187 255.952C66.2122 256.286 63.8714 256.62 61.865 256.62C40.1286 256.62 23.7428 236.24 23.7428 214.858C23.7428 193.476 39.7942 175.101 61.865 175.101C71.5627 175.101 80.926 178.776 88.283 185.124C89.2862 186.46 90.9582 186.46 92.2958 185.458L92.6302 185.124L102.997 174.433C104.334 173.096 104.334 171.092 102.997 169.755C91.9614 159.064 76.9132 153.385 61.5305 154.053C27.7556 154.053 0 181.449 0 215.526C0 249.27 27.4212 277 61.5305 277C83.9357 277 90.6238 268.982 90.6238 268.982C90.6238 268.982 101.659 247.266 102.662 244.593C103.666 241.92 102.662 237.577 96.6431 241.586Z" fill="#F01593"/>
</svg>
