<svg width="188" height="198" viewBox="0 0 188 198" fill="none" xmlns="http://www.w3.org/2000/svg">
<g filter="url(#filter0_dd_1023_2384)">
<g filter="url(#filter1_bd_1023_2384)">
<path d="M11.2656 64.2174C11.2656 32.2924 37.1459 6.41211 69.0709 6.41211H119.473C151.398 6.41211 177.279 32.2924 177.279 64.2174V123.197C177.279 155.122 151.398 181.002 119.473 181.002H69.0709C37.146 181.002 11.2656 155.122 11.2656 123.197V64.2174Z" fill="url(#paint0_linear_1023_2384)" shape-rendering="crispEdges"/>
</g>
<path d="M38.4168 131.357C40.5169 131.234 42.6169 131.852 44.2228 132.963C44.964 133.457 45.4581 134.199 45.8287 134.94C46.1993 135.681 46.3229 136.546 46.3229 137.41C46.3229 138.275 46.1993 139.14 45.8287 140.005C45.4581 140.869 44.964 141.487 44.2228 142.105C42.4934 143.34 40.5169 143.834 38.4168 143.711H36.0697V150.875H31.7461V131.604C33.8461 131.481 36.0697 131.357 38.4168 131.357ZM38.4168 140.499C39.2815 140.499 40.2698 140.252 41.011 139.758C41.258 139.51 41.5051 139.14 41.7522 138.769C41.8757 138.399 41.9992 138.028 41.9992 137.534C41.9992 137.163 41.9992 136.793 41.7522 136.422C41.6286 136.052 41.3816 135.681 41.011 135.434C40.2698 134.94 39.4051 134.569 38.5403 134.693H36.1932V140.375L38.4168 140.499Z" fill="url(#paint1_linear_1023_2384)"/>
<path d="M53.2377 147.417H60.7731V150.876H48.9141V131.852C49.5317 131.481 50.2729 131.358 50.8906 131.234C51.1376 131.234 51.5082 131.234 51.7553 131.358C52.0024 131.481 52.2494 131.605 52.4965 131.852C52.7435 132.099 52.8671 132.346 52.9906 132.593C53.1141 132.84 53.1141 133.211 53.1141 133.458L53.2377 147.417Z" fill="url(#paint2_linear_1023_2384)"/>
<path d="M75.2286 150.876L73.8698 146.799H66.8285L65.4696 150.876H61.2695L68.1873 131.852C68.9285 131.481 69.6697 131.234 70.5344 131.234C71.2756 131.234 71.8933 131.481 72.5109 131.852C73.0051 132.223 73.4992 132.84 73.6227 133.581L79.9228 150.752L75.2286 150.876ZM67.9403 143.464H72.758L70.2874 135.682L67.9403 143.464Z" fill="url(#paint3_linear_1023_2384)"/>
<path d="M94.8721 131.976L88.6955 143.34V150.876H84.3719V143.34L78.1953 131.976C78.813 131.481 79.6777 131.234 80.5424 131.234C81.1601 131.234 81.7777 131.358 82.3954 131.605C82.8895 131.852 83.2601 132.223 83.5072 132.84L85.8543 137.535L86.8425 140.005L87.8308 137.535L90.7956 131.358L94.8721 131.976Z" fill="url(#paint4_linear_1023_2384)"/>
<path d="M108.954 134.941H101.542V140.253H107.595V143.588H101.542V150.876H97.2188V131.605H108.954V134.941Z" fill="url(#paint5_linear_1023_2384)"/>
<path d="M115.995 150.876H111.672V131.852C112.29 131.481 113.031 131.358 113.648 131.234C113.895 131.234 114.266 131.234 114.513 131.358C114.76 131.481 115.007 131.605 115.254 131.852C115.501 132.099 115.625 132.346 115.748 132.593C115.872 132.84 115.872 133.211 115.872 133.458V150.876H115.995Z" fill="url(#paint6_linear_1023_2384)"/>
<path d="M132.298 131.605H136.375V150.876H133.04L123.898 138.77L124.022 150.752H119.945V131.852C120.439 131.481 121.057 131.234 121.675 131.234C122.169 131.234 122.663 131.481 123.157 131.729C123.651 131.976 124.022 132.346 124.269 132.84L132.422 143.588L132.298 131.605Z" fill="url(#paint7_linear_1023_2384)"/>
<path d="M152.315 150.876L150.956 146.799H143.914L142.556 150.876H138.355L145.397 131.852C146.138 131.481 146.879 131.234 147.62 131.234C148.362 131.234 148.979 131.481 149.597 131.852C150.091 132.223 150.585 132.84 150.709 133.581L157.009 150.752L152.315 150.876ZM145.026 143.464H149.844L147.373 135.682L145.026 143.464Z" fill="url(#paint8_linear_1023_2384)"/>
<path d="M38.4168 131.357C40.5169 131.234 42.6169 131.852 44.2228 132.963C44.964 133.457 45.4581 134.199 45.8287 134.94C46.1993 135.681 46.3229 136.546 46.3229 137.41C46.3229 138.275 46.1993 139.14 45.8287 140.005C45.4581 140.869 44.964 141.487 44.2228 142.105C42.4934 143.34 40.5169 143.834 38.4168 143.711H36.0697V150.875H31.7461V131.604C33.8461 131.481 36.0697 131.357 38.4168 131.357ZM38.4168 140.499C39.2815 140.499 40.2698 140.252 41.011 139.758C41.258 139.51 41.5051 139.14 41.7522 138.769C41.8757 138.399 41.9992 138.028 41.9992 137.534C41.9992 137.163 41.9992 136.793 41.7522 136.422C41.6286 136.052 41.3816 135.681 41.011 135.434C40.2698 134.94 39.4051 134.569 38.5403 134.693H36.1932V140.375L38.4168 140.499Z" fill="url(#paint9_linear_1023_2384)"/>
<path d="M53.2377 147.417H60.7731V150.876H48.9141V131.852C49.5317 131.481 50.2729 131.358 50.8906 131.234C51.1376 131.234 51.5082 131.234 51.7553 131.358C52.0024 131.481 52.2494 131.605 52.4965 131.852C52.7435 132.099 52.8671 132.346 52.9906 132.593C53.1141 132.84 53.1141 133.211 53.1141 133.458L53.2377 147.417Z" fill="url(#paint10_linear_1023_2384)"/>
<path d="M75.2286 150.876L73.8698 146.799H66.8285L65.4696 150.876H61.2695L68.1873 131.852C68.9285 131.481 69.6697 131.234 70.5344 131.234C71.2756 131.234 71.8933 131.481 72.5109 131.852C73.0051 132.223 73.4992 132.84 73.6227 133.581L79.9228 150.752L75.2286 150.876ZM67.9403 143.464H72.758L70.2874 135.682L67.9403 143.464Z" fill="url(#paint11_linear_1023_2384)"/>
<path d="M94.8721 131.976L88.6955 143.34V150.876H84.3719V143.34L78.1953 131.976C78.813 131.481 79.6777 131.234 80.5424 131.234C81.1601 131.234 81.7777 131.358 82.3954 131.605C82.8895 131.852 83.2601 132.223 83.5072 132.84L85.8543 137.535L86.8425 140.005L87.8308 137.535L90.7956 131.358L94.8721 131.976Z" fill="url(#paint12_linear_1023_2384)"/>
<path d="M108.954 134.941H101.542V140.253H107.595V143.588H101.542V150.876H97.2188V131.605H108.954V134.941Z" fill="url(#paint13_linear_1023_2384)"/>
<path d="M115.995 150.876H111.672V131.852C112.29 131.481 113.031 131.358 113.648 131.234C113.895 131.234 114.266 131.234 114.513 131.358C114.76 131.481 115.007 131.605 115.254 131.852C115.501 132.099 115.625 132.346 115.748 132.593C115.872 132.84 115.872 133.211 115.872 133.458V150.876H115.995Z" fill="url(#paint14_linear_1023_2384)"/>
<path d="M132.298 131.605H136.375V150.876H133.04L123.898 138.77L124.022 150.752H119.945V131.852C120.439 131.481 121.057 131.234 121.675 131.234C122.169 131.234 122.663 131.481 123.157 131.729C123.651 131.976 124.022 132.346 124.269 132.84L132.422 143.588L132.298 131.605Z" fill="url(#paint15_linear_1023_2384)"/>
<path d="M152.315 150.876L150.956 146.799H143.914L142.556 150.876H138.355L145.397 131.852C146.138 131.481 146.879 131.234 147.62 131.234C148.362 131.234 148.979 131.481 149.597 131.852C150.091 132.223 150.585 132.84 150.709 133.581L157.009 150.752L152.315 150.876ZM145.026 143.464H149.844L147.373 135.682L145.026 143.464Z" fill="url(#paint16_linear_1023_2384)"/>
<path d="M94.8044 122.146C118.453 122.146 137.542 103.056 137.542 79.4079C137.542 55.7596 118.453 36.6699 94.8044 36.6699C71.156 36.6699 52.0664 55.7596 52.0664 79.4079C52.0664 103.056 71.156 122.146 94.8044 122.146Z" fill="url(#paint17_linear_1023_2384)"/>
<path d="M94.8052 116.448C115.319 116.448 131.845 99.923 131.845 79.4087C131.845 58.8945 115.319 42.3691 94.8052 42.3691C74.291 42.3691 57.7656 58.8945 57.7656 79.4087C57.7656 99.923 74.291 116.448 94.8052 116.448Z" fill="#333333"/>
<path d="M94.8011 42.3697C102.209 42.3697 109.332 44.649 115.315 48.6379C121.299 52.6268 126.142 58.6101 128.991 65.1633C131.841 72.0014 132.411 79.4093 130.986 86.5323C129.561 93.6553 126.142 100.208 120.729 105.337C115.6 110.466 109.047 114.17 101.924 115.594C94.8011 117.019 87.3931 116.449 80.5551 113.6C73.717 110.75 68.0186 106.192 64.0297 99.9235C60.0408 93.6553 57.7614 86.8172 57.7614 79.4093C57.7614 74.5656 58.6162 69.722 60.6106 65.1633C62.6051 60.6046 65.1694 56.6157 68.5884 53.1966C72.0074 49.7776 75.9963 46.9284 80.5551 45.2189C85.1138 43.2244 89.9574 42.3697 94.8011 42.3697ZM94.8011 40.6602C85.1138 40.6602 75.9963 44.3641 68.8733 50.6324C61.7503 57.1855 57.4765 66.018 56.6218 75.4204C55.767 84.8228 58.3313 94.51 64.0297 102.203C69.7281 109.896 77.9908 115.024 87.3931 117.019C96.7955 119.013 106.483 117.304 114.745 112.175C123.008 107.331 128.991 99.3537 131.841 90.2362C134.69 81.1188 133.835 71.1466 129.846 62.599C125.857 54.0514 118.734 47.2133 109.902 43.5094C105.058 41.7998 99.9296 40.6602 94.8011 40.6602Z" fill="#212121"/>
<path d="M130.137 68.2951C128.427 63.1666 125.863 58.3229 122.159 54.3341L100.505 70.0047L103.069 43.5071C97.6558 42.3674 92.2424 42.3674 87.1138 43.5071L89.6781 70.0047L67.4543 54.3341C63.7504 58.3229 60.9012 63.1666 59.4766 68.2951L83.9797 79.407L59.4766 90.5189C61.1861 95.6475 63.7504 100.491 67.4543 104.48L89.1082 89.0943L86.544 115.592C91.9574 116.732 97.3709 116.732 102.499 115.592L99.9352 89.0943L121.589 104.765C125.293 100.776 128.142 95.9324 129.567 90.8038L105.634 79.407L130.137 68.2951Z" fill="url(#paint18_linear_1023_2384)"/>
<path d="M130.128 68.8648V68.2949L105.91 79.4068L130.413 90.5187V89.9488L106.765 79.4068L130.128 68.8648Z" fill="url(#paint19_linear_1023_2384)"/>
<path d="M130.413 69.1497V68.8648V68.2949L105.91 79.4068L130.413 90.5187V89.9488V89.6639L107.905 79.4068L130.413 69.1497Z" fill="url(#paint20_linear_1023_2384)"/>
<path d="M122.162 54.3365L121.877 54.0516L101.078 68.8674L103.642 43.2246H103.357L100.793 69.7222L122.162 54.3365Z" fill="url(#paint21_linear_1023_2384)"/>
<path d="M121.873 54.0518L121.303 53.7669L101.359 68.0129L103.638 43.5098H103.353H103.068L100.504 70.0073L122.158 54.3367L121.873 54.0518Z" fill="url(#paint22_linear_1023_2384)"/>
<path d="M86.8238 43.2246H86.2539L88.8182 68.8674L67.7341 54.0516L67.4492 54.3365L89.1031 70.0071L86.8238 43.2246Z" fill="url(#paint23_linear_1023_2384)"/>
<path d="M86.8238 43.2246H86.2539H85.6841L87.9635 67.7277L68.0191 53.4817L67.7341 54.0516L67.4492 54.3365L89.1031 70.0071L86.8238 43.2246Z" fill="url(#paint24_linear_1023_2384)"/>
<path d="M59.4766 68.2949V68.8648L82.84 79.4068L59.4766 89.9488V90.5187L83.9797 79.4068L59.4766 68.2949Z" fill="url(#paint25_linear_1023_2384)"/>
<path d="M59.4724 68.2949V68.8648L59.1875 69.1497L81.4113 79.4068L59.1875 89.6639V90.2338V90.8036L83.9755 79.6917L59.4724 68.2949Z" fill="url(#paint26_linear_1023_2384)"/>
<path d="M67.4492 104.483L67.7341 104.768L88.5333 89.6673L85.969 115.31H86.2539L88.8182 88.8125L67.4492 104.483Z" fill="url(#paint27_linear_1023_2384)"/>
<path d="M67.4492 104.479L67.7341 104.764L68.304 105.049L88.2484 90.8028L85.969 115.021H86.2539H86.5389L89.1031 88.5234L67.4492 104.479Z" fill="url(#paint28_linear_1023_2384)"/>
<path d="M102.779 115.591H103.349L100.785 89.6631L121.584 104.479L121.869 104.194L100.215 88.5234L102.779 115.591Z" fill="url(#paint29_linear_1023_2384)"/>
<path d="M100.215 88.8125L102.779 115.31H103.349H103.919L101.639 90.8069L121.584 105.053L121.869 104.768L122.154 104.483L100.215 88.8125Z" fill="url(#paint30_linear_1023_2384)"/>
<path d="M94.8023 105.903C109.333 105.903 121.3 93.9367 121.3 79.4058C121.3 64.8748 109.333 52.9082 94.8023 52.9082C80.2713 52.9082 68.3047 64.8748 68.3047 79.4058C68.3047 93.9367 80.2713 105.903 94.8023 105.903Z" fill="#333333"/>
<path d="M94.805 106.476C89.3915 106.476 84.2629 104.766 79.7042 101.917C75.1455 99.068 71.7265 94.7942 69.732 89.6656C67.7376 84.822 67.1677 79.1236 68.3074 73.995C69.1622 68.8665 71.7265 64.0228 75.7153 60.3189C79.7042 56.6149 84.2629 54.0506 89.6764 52.9109C94.805 51.7713 100.503 52.3411 105.347 54.3355C110.191 56.33 114.464 59.749 117.599 64.3077C120.448 68.8665 122.157 73.995 122.157 79.4085C122.157 86.5315 119.308 93.3696 114.18 98.4981C108.766 103.627 101.928 106.476 94.805 106.476ZM94.805 53.4808C89.6764 53.4808 84.8328 54.9054 80.559 57.7546C76.2852 60.6038 73.1511 64.5927 71.1566 69.4363C69.1622 74.2799 68.5923 79.4085 69.4471 84.2521C70.3019 89.3807 72.8661 93.9394 76.5701 97.3585C80.2741 101.062 84.8328 103.342 89.6764 104.481C94.805 105.336 99.9335 105.051 104.492 103.057C109.336 101.062 113.325 97.9283 116.174 93.6545C119.023 89.3807 120.448 84.5371 120.448 79.4085C120.448 72.5704 117.599 66.0173 112.755 61.1736C108.196 56.33 101.643 53.4808 94.805 53.4808Z" fill="url(#paint31_linear_1023_2384)"/>
<path opacity="0.5" d="M94.8011 44.3636C104.488 44.3636 113.606 48.0675 120.729 54.9056C127.567 61.7437 131.556 70.8611 131.841 80.5484V79.4087C131.841 69.4365 127.852 60.0342 121.014 53.1961C114.176 46.358 104.488 42.3691 94.8011 42.3691C85.1138 42.3691 75.4265 46.0731 68.3035 53.1961C61.1805 60.3191 57.4766 69.4365 57.4766 79.4087V80.2635C57.7615 70.5762 61.7504 61.4588 68.5884 54.6207C75.7114 47.7826 85.1138 44.0787 94.8011 44.3636Z" fill="white"/>
<path opacity="0.2" d="M94.8052 114.168C85.1179 114.168 76.0005 110.464 69.1624 103.625C62.0394 97.0723 58.0505 87.9549 57.7656 78.2676V79.4073C57.7656 89.3795 61.7545 98.7818 68.5926 105.62C75.4307 112.458 85.1179 116.447 94.8052 116.447C104.493 116.447 114.18 112.458 121.018 105.62C127.856 98.7818 131.845 89.0945 131.845 79.4073V78.2676C131.56 87.9549 127.571 97.0723 120.448 103.91C113.895 110.464 104.493 114.168 94.8052 114.168Z" fill="black"/>
<path d="M99.078 70.0053C100.503 69.4354 100.788 68.5807 99.6479 68.2958C98.5082 68.0108 97.3685 68.2958 96.2288 68.5807L94.2344 69.4354L97.3685 70.86L99.078 70.0053Z" fill="url(#paint32_radial_1023_2384)"/>
<path d="M94.8009 66.8728C94.2311 66.5879 93.6612 66.5879 93.0914 66.5879C92.5215 66.5879 91.9517 66.8728 91.3819 67.1577L90.2422 67.7276L93.0914 68.8673L94.8009 68.0125C95.6557 67.7276 95.6557 67.1577 94.8009 66.8728Z" fill="url(#paint33_radial_1023_2384)"/>
<path d="M109.625 71.9969C108.2 72.8517 99.9374 76.2707 97.0882 77.4104C96.5183 77.6953 96.2334 77.9803 95.9485 78.2652C95.6636 78.5501 95.3787 79.1199 95.3787 79.6898C95.3787 79.6898 95.3787 79.6898 95.3787 79.9747C95.3787 86.8128 95.3787 93.3659 95.0938 96.2151C95.0938 96.5001 95.0937 96.785 95.3787 97.0699C95.3787 97.3548 95.6636 97.3548 95.9485 97.6397C96.2334 97.6397 96.5183 97.9247 96.8033 97.6397C97.0882 97.6397 97.3731 97.6397 97.3731 97.3548L97.658 97.0699C99.0826 95.6453 109.055 89.0921 109.055 89.0921C109.055 89.0921 110.195 88.8072 110.479 86.5279L112.189 71.712C112.189 71.9969 111.619 71.1422 109.625 71.9969ZM107.345 86.5279C106.775 87.3826 106.206 88.2374 105.351 88.8072V90.5167L103.072 91.6564V90.2318C102.217 90.8017 101.077 90.8017 100.222 90.8017V87.9525C100.792 88.2374 101.362 88.2374 101.932 87.9525C102.502 87.9525 103.356 87.6675 103.926 87.3826C104.781 86.8128 105.351 86.2429 105.351 85.6731V85.3882H105.066H104.496L103.356 84.8183H101.362C101.077 84.8183 100.792 84.5334 100.507 84.2485C100.222 83.9636 100.222 83.3937 100.222 82.8239C100.222 81.9691 100.507 81.1144 101.077 80.2596C101.647 79.4049 102.217 78.5501 103.072 77.9803V76.5557L105.066 75.416V76.8406C105.636 76.5557 106.491 76.5557 107.345 76.5557V79.4049C106.775 79.4049 106.206 79.4049 105.921 79.4049C105.351 79.4049 104.781 79.6898 104.211 79.9747C103.356 80.5445 103.072 80.8295 103.072 81.3993C103.072 81.9691 103.072 81.9691 103.356 81.6842H105.351C106.206 81.3993 106.775 81.3993 107.63 81.6842C108.2 81.9691 108.485 82.539 108.485 83.3937C108.2 84.5334 107.915 85.3882 107.345 86.5279Z" fill="url(#paint34_radial_1023_2384)"/>
<path d="M93.1008 77.4125L80.8492 71.1443C80.2794 70.8594 79.9944 70.8594 79.4246 70.8594C78.8548 70.8594 78.5698 70.8594 78 71.1443L79.1397 85.9601C79.1397 88.2395 80.2794 88.5244 80.2794 88.5244C80.2794 88.5244 89.1119 94.7927 91.3912 97.072L91.9611 97.3569C92.246 97.3569 92.246 97.6419 92.5309 97.6419C92.8158 97.6419 92.8158 97.6419 93.1008 97.6419C93.3857 97.6419 93.3857 97.3569 93.6706 97.3569C93.6706 97.072 93.9555 97.072 93.9555 96.7871L94.5254 79.9768C94.5254 79.9768 94.5254 79.9768 94.5254 79.6919C94.5254 79.1221 94.2404 78.8371 93.9555 78.2673C93.6706 77.9824 93.3857 77.6975 93.1008 77.4125ZM89.9666 91.6585C89.1119 91.6585 88.2571 91.3736 87.6873 90.8038C86.5476 89.949 85.4079 89.0943 84.5532 87.9546C83.6984 86.8149 83.1286 85.3903 82.8436 83.6808L81.704 83.1109V81.4014L82.5587 81.9713V81.1165L81.704 80.5467V78.8371L82.8436 79.407C82.8436 78.8371 83.1286 78.5522 83.4135 78.2673C83.6984 77.9824 83.9833 77.6975 84.5532 77.4125C85.123 77.4125 85.6928 77.1276 85.9778 77.4125C86.5476 77.4125 86.8325 77.6975 87.4024 77.9824C88.2571 78.5522 88.827 79.1221 89.6817 79.6919V82.5411C89.1119 81.9713 88.542 81.4014 87.9722 80.8316C87.1174 80.2617 86.2627 80.2617 85.6928 80.8316L87.9722 81.9713V83.6808L85.4079 81.9713V82.2562V82.5411L87.9722 83.9657V85.6752L85.6928 84.2506C85.9778 85.3903 86.8325 86.53 87.9722 87.0998C88.2571 87.3847 88.542 87.3847 88.827 87.3847C89.1119 87.3847 89.6817 87.3847 89.9666 87.3847V91.6585Z" fill="url(#paint35_radial_1023_2384)"/>
<path d="M109.903 70.0053C110.188 69.7204 110.473 69.4355 110.473 69.1506C110.473 68.8657 110.473 68.5807 110.188 68.2958L109.903 68.0109L97.6516 62.5974C96.7968 62.3125 95.9421 62.3125 94.8024 62.3125C93.9476 62.3125 93.0929 62.5974 92.2381 62.8823L79.9866 67.726C79.9866 67.726 78.562 68.5807 80.8413 70.2903L93.6627 76.5585C94.2326 76.8434 94.8024 76.8434 95.3722 76.8434C95.9421 76.8434 96.5119 76.5585 97.0818 76.2736C98.7913 74.849 109.903 70.0053 109.903 70.0053ZM95.0873 73.7093L93.6627 73.1395L94.8024 72.5696C95.0873 72.5696 95.0873 72.2847 94.8024 71.9998L88.5342 69.4355C88.2492 69.4355 88.2492 69.4355 87.9643 69.4355C87.6794 69.4355 87.6794 69.4355 87.3945 69.4355L86.2548 69.7204L84.8302 69.1506L87.6794 67.726L86.2548 67.1561L87.6794 66.5863L89.104 67.1561L89.9588 66.5863L88.5342 66.0165L89.9588 65.4466L91.3834 66.0165C93.0929 65.1617 95.0873 64.8768 97.0818 65.4466C98.2214 65.7315 98.7913 66.3014 98.2215 67.1561C99.6461 66.5863 101.071 66.5863 102.495 67.1561C104.49 68.0109 104.775 69.1506 101.925 70.2903H101.64L103.065 70.8601L101.64 71.7149L100.216 71.145L99.3611 71.7149L100.786 72.2847L99.3611 72.8545L97.6516 72.2847L95.0873 73.7093Z" fill="url(#paint36_radial_1023_2384)"/>
<path d="M99.078 70.0053C100.503 69.4354 100.788 68.5807 99.6479 68.2958C98.5082 68.0108 97.3685 68.2958 96.2288 68.5807L94.2344 69.4354L97.3685 70.86L99.078 70.0053Z" fill="url(#paint37_linear_1023_2384)"/>
<path d="M94.8009 66.8728C94.2311 66.5879 93.6612 66.5879 93.0914 66.5879C92.5215 66.5879 91.9517 66.8728 91.3819 67.1577L90.2422 67.7276L93.0914 68.8673L94.8009 68.0125C95.6557 67.7276 95.6557 67.1577 94.8009 66.8728Z" fill="url(#paint38_linear_1023_2384)"/>
<path d="M109.625 71.9969C108.2 72.8517 99.9374 76.2707 97.0882 77.4104C96.5183 77.6953 96.2334 77.9803 95.9485 78.2652C95.6636 78.5501 95.3787 79.1199 95.3787 79.6898C95.3787 79.6898 95.3787 79.6898 95.3787 79.9747C95.3787 86.8128 95.3787 93.3659 95.0938 96.2151C95.0938 96.5001 95.0937 96.785 95.3787 97.0699C95.3787 97.3548 95.6636 97.3548 95.9485 97.6397C96.2334 97.6397 96.5183 97.9247 96.8033 97.6397C97.0882 97.6397 97.3731 97.6397 97.3731 97.3548L97.658 97.0699C99.0826 95.6453 109.055 89.0921 109.055 89.0921C109.055 89.0921 110.195 88.8072 110.479 86.5279L112.189 71.712C112.189 71.9969 111.619 71.1422 109.625 71.9969ZM107.345 86.5279C106.775 87.3826 106.206 88.2374 105.351 88.8072V90.5167L103.072 91.6564V90.2318C102.217 90.8017 101.077 90.8017 100.222 90.8017V87.9525C100.792 88.2374 101.362 88.2374 101.932 87.9525C102.502 87.9525 103.356 87.6675 103.926 87.3826C104.781 86.8128 105.351 86.2429 105.351 85.6731V85.3882H105.066H104.496L103.356 84.8183H101.362C101.077 84.8183 100.792 84.5334 100.507 84.2485C100.222 83.9636 100.222 83.3937 100.222 82.8239C100.222 81.9691 100.507 81.1144 101.077 80.2596C101.647 79.4049 102.217 78.5501 103.072 77.9803V76.5557L105.066 75.416V76.8406C105.636 76.5557 106.491 76.5557 107.345 76.5557V79.4049C106.775 79.4049 106.206 79.4049 105.921 79.4049C105.351 79.4049 104.781 79.6898 104.211 79.9747C103.356 80.5445 103.072 80.8295 103.072 81.3993C103.072 81.9691 103.072 81.9691 103.356 81.6842H105.351C106.206 81.3993 106.775 81.3993 107.63 81.6842C108.2 81.9691 108.485 82.539 108.485 83.3937C108.2 84.5334 107.915 85.3882 107.345 86.5279Z" fill="url(#paint39_linear_1023_2384)"/>
<path d="M93.1008 77.4125L80.8492 71.1443C80.2794 70.8594 79.9944 70.8594 79.4246 70.8594C78.8548 70.8594 78.5698 70.8594 78 71.1443L79.1397 85.9601C79.1397 88.2395 80.2794 88.5244 80.2794 88.5244C80.2794 88.5244 89.1119 94.7927 91.3912 97.072L91.9611 97.3569C92.246 97.3569 92.246 97.6419 92.5309 97.6419C92.8158 97.6419 92.8158 97.6419 93.1008 97.6419C93.3857 97.6419 93.3857 97.3569 93.6706 97.3569C93.6706 97.072 93.9555 97.072 93.9555 96.7871L94.5254 79.9768C94.5254 79.9768 94.5254 79.9768 94.5254 79.6919C94.5254 79.1221 94.2404 78.8371 93.9555 78.2673C93.6706 77.9824 93.3857 77.6975 93.1008 77.4125ZM89.9666 91.6585C89.1119 91.6585 88.2571 91.3736 87.6873 90.8038C86.5476 89.949 85.4079 89.0943 84.5532 87.9546C83.6984 86.8149 83.1286 85.3903 82.8436 83.6808L81.704 83.1109V81.4014L82.5587 81.9713V81.1165L81.704 80.5467V78.8371L82.8436 79.407C82.8436 78.8371 83.1286 78.5522 83.4135 78.2673C83.6984 77.9824 83.9833 77.6975 84.5532 77.4125C85.123 77.4125 85.6928 77.1276 85.9778 77.4125C86.5476 77.4125 86.8325 77.6975 87.4024 77.9824C88.2571 78.5522 88.827 79.1221 89.6817 79.6919V82.5411C89.1119 81.9713 88.542 81.4014 87.9722 80.8316C87.1174 80.2617 86.2627 80.2617 85.6928 80.8316L87.9722 81.9713V83.6808L85.4079 81.9713V82.2562V82.5411L87.9722 83.9657V85.6752L85.6928 84.2506C85.9778 85.3903 86.8325 86.53 87.9722 87.0998C88.2571 87.3847 88.542 87.3847 88.827 87.3847C89.1119 87.3847 89.6817 87.3847 89.9666 87.3847V91.6585Z" fill="url(#paint40_linear_1023_2384)"/>
<path d="M109.903 70.0053C110.188 69.7204 110.473 69.4355 110.473 69.1506C110.473 68.8657 110.473 68.5807 110.188 68.2958L109.903 68.0109L97.6516 62.5974C96.7968 62.3125 95.9421 62.3125 94.8024 62.3125C93.9476 62.3125 93.0929 62.5974 92.2381 62.8823L79.9866 67.726C79.9866 67.726 78.562 68.5807 80.8413 70.2903L93.6627 76.5585C94.2326 76.8434 94.8024 76.8434 95.3722 76.8434C95.9421 76.8434 96.5119 76.5585 97.0818 76.2736C98.7913 74.849 109.903 70.0053 109.903 70.0053ZM95.0873 73.7093L93.6627 73.1395L94.8024 72.5696C95.0873 72.5696 95.0873 72.2847 94.8024 71.9998L88.5342 69.4355C88.2492 69.4355 88.2492 69.4355 87.9643 69.4355C87.6794 69.4355 87.6794 69.4355 87.3945 69.4355L86.2548 69.7204L84.8302 69.1506L87.6794 67.726L86.2548 67.1561L87.6794 66.5863L89.104 67.1561L89.9588 66.5863L88.5342 66.0165L89.9588 65.4466L91.3834 66.0165C93.0929 65.1617 95.0873 64.8768 97.0818 65.4466C98.2214 65.7315 98.7913 66.3014 98.2215 67.1561C99.6461 66.5863 101.071 66.5863 102.495 67.1561C104.49 68.0109 104.775 69.1506 101.925 70.2903H101.64L103.065 70.8601L101.64 71.7149L100.216 71.145L99.3611 71.7149L100.786 72.2847L99.3611 72.8545L97.6516 72.2847L95.0873 73.7093Z" fill="url(#paint41_linear_1023_2384)"/>
</g>
<defs>
<filter id="filter0_dd_1023_2384" x="0.933458" y="2.15769" width="186.676" height="195.254" filterUnits="userSpaceOnUse" color-interpolation-filters="sRGB">
<feFlood flood-opacity="0" result="BackgroundImageFix"/>
<feColorMatrix in="SourceAlpha" type="matrix" values="0 0 0 0 0 0 0 0 0 0 0 0 0 0 0 0 0 0 127 0" result="hardAlpha"/>
<feOffset dy="6.07774"/>
<feGaussianBlur stdDeviation="5.16608"/>
<feColorMatrix type="matrix" values="0 0 0 0 0.129412 0 0 0 0 0.14902 0 0 0 0 0.309804 0 0 0 0.15 0"/>
<feBlend mode="normal" in2="BackgroundImageFix" result="effect1_dropShadow_1023_2384"/>
<feColorMatrix in="SourceAlpha" type="matrix" values="0 0 0 0 0 0 0 0 0 0 0 0 0 0 0 0 0 0 127 0" result="hardAlpha"/>
<feOffset dy="7.29329"/>
<feGaussianBlur stdDeviation="3.03887"/>
<feColorMatrix type="matrix" values="0 0 0 0 0.129412 0 0 0 0 0.14902 0 0 0 0 0.309804 0 0 0 0.15 0"/>
<feBlend mode="normal" in2="effect1_dropShadow_1023_2384" result="effect2_dropShadow_1023_2384"/>
<feBlend mode="normal" in="SourceGraphic" in2="effect2_dropShadow_1023_2384" result="shape"/>
</filter>
<filter id="filter1_bd_1023_2384" x="4.61802" y="0.0535325" width="179.307" height="187.885" filterUnits="userSpaceOnUse" color-interpolation-filters="sRGB">
<feFlood flood-opacity="0" result="BackgroundImageFix"/>
<feGaussianBlur in="BackgroundImageFix" stdDeviation="2.89026"/>
<feComposite in2="SourceAlpha" operator="in" result="effect1_backgroundBlur_1023_2384"/>
<feColorMatrix in="SourceAlpha" type="matrix" values="0 0 0 0 0 0 0 0 0 0 0 0 0 0 0 0 0 0 127 0" result="hardAlpha"/>
<feMorphology radius="0.289026" operator="erode" in="SourceAlpha" result="effect2_dropShadow_1023_2384"/>
<feOffset dy="0.289026"/>
<feGaussianBlur stdDeviation="3.46831"/>
<feComposite in2="hardAlpha" operator="out"/>
<feColorMatrix type="matrix" values="0 0 0 0 0 0 0 0 0 0 0 0 0 0 0 0 0 0 0.1 0"/>
<feBlend mode="normal" in2="effect1_backgroundBlur_1023_2384" result="effect2_dropShadow_1023_2384"/>
<feBlend mode="normal" in="SourceGraphic" in2="effect2_dropShadow_1023_2384" result="shape"/>
</filter>
<linearGradient id="paint0_linear_1023_2384" x1="11.2656" y1="6.41211" x2="208.52" y2="81.1017" gradientUnits="userSpaceOnUse">
<stop stop-color="#18152C"/>
<stop offset="0.510417" stop-color="#18152C" stop-opacity="0.8"/>
</linearGradient>
<linearGradient id="paint1_linear_1023_2384" x1="39.0345" y1="131.342" x2="39.0345" y2="150.875" gradientUnits="userSpaceOnUse">
<stop stop-color="#FEF37E"/>
<stop offset="1" stop-color="#C37709"/>
</linearGradient>
<linearGradient id="paint2_linear_1023_2384" x1="54.8436" y1="131.234" x2="54.8436" y2="150.876" gradientUnits="userSpaceOnUse">
<stop stop-color="#FEF37E"/>
<stop offset="1" stop-color="#C37709"/>
</linearGradient>
<linearGradient id="paint3_linear_1023_2384" x1="70.5962" y1="131.234" x2="70.5962" y2="150.876" gradientUnits="userSpaceOnUse">
<stop stop-color="#FEF37E"/>
<stop offset="1" stop-color="#C37709"/>
</linearGradient>
<linearGradient id="paint4_linear_1023_2384" x1="86.5337" y1="131.234" x2="86.5337" y2="150.876" gradientUnits="userSpaceOnUse">
<stop stop-color="#FEF37E"/>
<stop offset="1" stop-color="#C37709"/>
</linearGradient>
<linearGradient id="paint5_linear_1023_2384" x1="103.087" y1="131.605" x2="103.087" y2="150.876" gradientUnits="userSpaceOnUse">
<stop stop-color="#FEF37E"/>
<stop offset="1" stop-color="#C37709"/>
</linearGradient>
<linearGradient id="paint6_linear_1023_2384" x1="113.834" y1="131.234" x2="113.834" y2="150.876" gradientUnits="userSpaceOnUse">
<stop stop-color="#FEF37E"/>
<stop offset="1" stop-color="#C37709"/>
</linearGradient>
<linearGradient id="paint7_linear_1023_2384" x1="128.16" y1="131.234" x2="128.16" y2="150.876" gradientUnits="userSpaceOnUse">
<stop stop-color="#FEF37E"/>
<stop offset="1" stop-color="#C37709"/>
</linearGradient>
<linearGradient id="paint8_linear_1023_2384" x1="147.682" y1="131.234" x2="147.682" y2="150.876" gradientUnits="userSpaceOnUse">
<stop stop-color="#FEF37E"/>
<stop offset="1" stop-color="#C37709"/>
</linearGradient>
<linearGradient id="paint9_linear_1023_2384" x1="39.0345" y1="131.342" x2="39.0345" y2="150.875" gradientUnits="userSpaceOnUse">
<stop stop-color="#FEF37E"/>
<stop offset="1" stop-color="#C37709"/>
</linearGradient>
<linearGradient id="paint10_linear_1023_2384" x1="54.8436" y1="131.234" x2="54.8436" y2="150.876" gradientUnits="userSpaceOnUse">
<stop stop-color="#FEF37E"/>
<stop offset="1" stop-color="#C37709"/>
</linearGradient>
<linearGradient id="paint11_linear_1023_2384" x1="70.5962" y1="131.234" x2="70.5962" y2="150.876" gradientUnits="userSpaceOnUse">
<stop stop-color="#FEF37E"/>
<stop offset="1" stop-color="#C37709"/>
</linearGradient>
<linearGradient id="paint12_linear_1023_2384" x1="86.5337" y1="131.234" x2="86.5337" y2="150.876" gradientUnits="userSpaceOnUse">
<stop stop-color="#FEF37E"/>
<stop offset="1" stop-color="#C37709"/>
</linearGradient>
<linearGradient id="paint13_linear_1023_2384" x1="103.087" y1="131.605" x2="103.087" y2="150.876" gradientUnits="userSpaceOnUse">
<stop stop-color="#FEF37E"/>
<stop offset="1" stop-color="#C37709"/>
</linearGradient>
<linearGradient id="paint14_linear_1023_2384" x1="113.834" y1="131.234" x2="113.834" y2="150.876" gradientUnits="userSpaceOnUse">
<stop stop-color="#FEF37E"/>
<stop offset="1" stop-color="#C37709"/>
</linearGradient>
<linearGradient id="paint15_linear_1023_2384" x1="128.16" y1="131.234" x2="128.16" y2="150.876" gradientUnits="userSpaceOnUse">
<stop stop-color="#FEF37E"/>
<stop offset="1" stop-color="#C37709"/>
</linearGradient>
<linearGradient id="paint16_linear_1023_2384" x1="147.682" y1="131.234" x2="147.682" y2="150.876" gradientUnits="userSpaceOnUse">
<stop stop-color="#FEF37E"/>
<stop offset="1" stop-color="#C37709"/>
</linearGradient>
<linearGradient id="paint17_linear_1023_2384" x1="137.54" y1="79.4079" x2="52.0664" y2="79.4079" gradientUnits="userSpaceOnUse">
<stop stop-color="#BE6D00"/>
<stop offset="0.19" stop-color="#D09222"/>
<stop offset="0.44" stop-color="#E4BD4A"/>
<stop offset="0.67" stop-color="#F3DB67"/>
<stop offset="0.86" stop-color="#FCEE79"/>
<stop offset="1" stop-color="#FFF57F"/>
</linearGradient>
<linearGradient id="paint18_linear_1023_2384" x1="94.7847" y1="118.745" x2="94.7847" y2="40.0342" gradientUnits="userSpaceOnUse">
<stop offset="0.15" stop-color="#5C19B1"/>
<stop offset="1" stop-color="#731EDF"/>
</linearGradient>
<linearGradient id="paint19_linear_1023_2384" x1="118.019" y1="118.745" x2="118.019" y2="40.0343" gradientUnits="userSpaceOnUse">
<stop offset="0.15" stop-color="#5C19B1"/>
<stop offset="1" stop-color="#731EDF"/>
</linearGradient>
<linearGradient id="paint20_linear_1023_2384" x1="118.157" y1="39.61" x2="118.157" y2="119.204" gradientUnits="userSpaceOnUse">
<stop stop-color="#BE6D00"/>
<stop offset="0.19" stop-color="#D09222"/>
<stop offset="0.44" stop-color="#E4BD4A"/>
<stop offset="0.67" stop-color="#F3DB67"/>
<stop offset="0.86" stop-color="#FCEE79"/>
<stop offset="1" stop-color="#FFF57F"/>
</linearGradient>
<linearGradient id="paint21_linear_1023_2384" x1="111.153" y1="118.747" x2="111.153" y2="40.0372" gradientUnits="userSpaceOnUse">
<stop offset="0.15" stop-color="#5C19B1"/>
<stop offset="1" stop-color="#731EDF"/>
</linearGradient>
<linearGradient id="paint22_linear_1023_2384" x1="111.156" y1="-6.01561" x2="111.156" y2="73.5782" gradientUnits="userSpaceOnUse">
<stop stop-color="#BE6D00"/>
<stop offset="0.19" stop-color="#D09222"/>
<stop offset="0.44" stop-color="#E4BD4A"/>
<stop offset="0.67" stop-color="#F3DB67"/>
<stop offset="0.86" stop-color="#FCEE79"/>
<stop offset="1" stop-color="#FFF57F"/>
</linearGradient>
<linearGradient id="paint23_linear_1023_2384" x1="78.4346" y1="118.747" x2="78.4346" y2="40.0366" gradientUnits="userSpaceOnUse">
<stop offset="0.15" stop-color="#5C19B1"/>
<stop offset="1" stop-color="#731EDF"/>
</linearGradient>
<linearGradient id="paint24_linear_1023_2384" x1="78.4346" y1="-5.9808" x2="78.4346" y2="73.613" gradientUnits="userSpaceOnUse">
<stop stop-color="#BE6D00"/>
<stop offset="0.19" stop-color="#D09222"/>
<stop offset="0.44" stop-color="#E4BD4A"/>
<stop offset="0.67" stop-color="#F3DB67"/>
<stop offset="0.86" stop-color="#FCEE79"/>
<stop offset="1" stop-color="#FFF57F"/>
</linearGradient>
<linearGradient id="paint25_linear_1023_2384" x1="71.6937" y1="118.744" x2="71.6937" y2="40.0343" gradientUnits="userSpaceOnUse">
<stop offset="0.15" stop-color="#5C19B1"/>
<stop offset="1" stop-color="#731EDF"/>
</linearGradient>
<linearGradient id="paint26_linear_1023_2384" x1="71.5035" y1="39.6454" x2="71.5035" y2="119.239" gradientUnits="userSpaceOnUse">
<stop stop-color="#BE6D00"/>
<stop offset="0.19" stop-color="#D09222"/>
<stop offset="0.44" stop-color="#E4BD4A"/>
<stop offset="0.67" stop-color="#F3DB67"/>
<stop offset="0.86" stop-color="#FCEE79"/>
<stop offset="1" stop-color="#FFF57F"/>
</linearGradient>
<linearGradient id="paint27_linear_1023_2384" x1="78.4691" y1="118.748" x2="78.4691" y2="40.0376" gradientUnits="userSpaceOnUse">
<stop offset="0.15" stop-color="#5C19B1"/>
<stop offset="1" stop-color="#731EDF"/>
</linearGradient>
<linearGradient id="paint28_linear_1023_2384" x1="78.4691" y1="85.2024" x2="78.4691" y2="164.796" gradientUnits="userSpaceOnUse">
<stop stop-color="#BE6D00"/>
<stop offset="0.19" stop-color="#D09222"/>
<stop offset="0.44" stop-color="#E4BD4A"/>
<stop offset="0.67" stop-color="#F3DB67"/>
<stop offset="0.86" stop-color="#FCEE79"/>
<stop offset="1" stop-color="#FFF57F"/>
</linearGradient>
<linearGradient id="paint29_linear_1023_2384" x1="111.131" y1="118.744" x2="111.131" y2="40.0335" gradientUnits="userSpaceOnUse">
<stop offset="0.15" stop-color="#5C19B1"/>
<stop offset="1" stop-color="#731EDF"/>
</linearGradient>
<linearGradient id="paint30_linear_1023_2384" x1="111.2" y1="85.2422" x2="111.2" y2="164.836" gradientUnits="userSpaceOnUse">
<stop stop-color="#BE6D00"/>
<stop offset="0.19" stop-color="#D09222"/>
<stop offset="0.44" stop-color="#E4BD4A"/>
<stop offset="0.67" stop-color="#F3DB67"/>
<stop offset="0.86" stop-color="#FCEE79"/>
<stop offset="1" stop-color="#FFF57F"/>
</linearGradient>
<linearGradient id="paint31_linear_1023_2384" x1="94.7979" y1="106.517" x2="94.7979" y2="52.3021" gradientUnits="userSpaceOnUse">
<stop stop-color="#BE6D00"/>
<stop offset="0.19" stop-color="#D09222"/>
<stop offset="0.44" stop-color="#E4BD4A"/>
<stop offset="0.67" stop-color="#F3DB67"/>
<stop offset="0.86" stop-color="#FCEE79"/>
<stop offset="1" stop-color="#FFF57F"/>
</linearGradient>
<radialGradient id="paint32_radial_1023_2384" cx="0" cy="0" r="1" gradientUnits="userSpaceOnUse" gradientTransform="translate(97.5241 69.5113) scale(2.29735)">
<stop stop-color="#BE6D00"/>
<stop offset="0.19" stop-color="#D09222"/>
<stop offset="0.44" stop-color="#E4BD4A"/>
<stop offset="0.67" stop-color="#F3DB67"/>
<stop offset="0.86" stop-color="#FCEE79"/>
<stop offset="1" stop-color="#FFF57F"/>
</radialGradient>
<radialGradient id="paint33_radial_1023_2384" cx="0" cy="0" r="1" gradientUnits="userSpaceOnUse" gradientTransform="translate(92.9244 67.8176) scale(1.97891)">
<stop stop-color="#BE6D00"/>
<stop offset="0.19" stop-color="#D09222"/>
<stop offset="0.44" stop-color="#E4BD4A"/>
<stop offset="0.67" stop-color="#F3DB67"/>
<stop offset="0.86" stop-color="#FCEE79"/>
<stop offset="1" stop-color="#FFF57F"/>
</radialGradient>
<radialGradient id="paint34_radial_1023_2384" cx="0" cy="0" r="1" gradientUnits="userSpaceOnUse" gradientTransform="translate(103.726 84.6417) scale(11.0674)">
<stop stop-color="#BE6D00"/>
<stop offset="0.19" stop-color="#D09222"/>
<stop offset="0.44" stop-color="#E4BD4A"/>
<stop offset="0.67" stop-color="#F3DB67"/>
<stop offset="0.86" stop-color="#FCEE79"/>
<stop offset="1" stop-color="#FFF57F"/>
</radialGradient>
<radialGradient id="paint35_radial_1023_2384" cx="0" cy="0" r="1" gradientUnits="userSpaceOnUse" gradientTransform="translate(86.3648 84.2176) scale(11.0979)">
<stop stop-color="#BE6D00"/>
<stop offset="0.19" stop-color="#D09222"/>
<stop offset="0.44" stop-color="#E4BD4A"/>
<stop offset="0.67" stop-color="#F3DB67"/>
<stop offset="0.86" stop-color="#FCEE79"/>
<stop offset="1" stop-color="#FFF57F"/>
</radialGradient>
<radialGradient id="paint36_radial_1023_2384" cx="0" cy="0" r="1" gradientUnits="userSpaceOnUse" gradientTransform="translate(95.1947 69.5084) scale(11.992)">
<stop stop-color="#BE6D00"/>
<stop offset="0.19" stop-color="#D09222"/>
<stop offset="0.44" stop-color="#E4BD4A"/>
<stop offset="0.67" stop-color="#F3DB67"/>
<stop offset="0.86" stop-color="#FCEE79"/>
<stop offset="1" stop-color="#FFF57F"/>
</radialGradient>
<linearGradient id="paint37_linear_1023_2384" x1="97.4457" y1="97.7154" x2="97.4457" y2="62.301" gradientUnits="userSpaceOnUse">
<stop stop-color="#BE6D00"/>
<stop offset="0.19" stop-color="#D09222"/>
<stop offset="0.44" stop-color="#E4BD4A"/>
<stop offset="0.67" stop-color="#F3DB67"/>
<stop offset="0.86" stop-color="#FCEE79"/>
<stop offset="1" stop-color="#FFF57F"/>
</linearGradient>
<linearGradient id="paint38_linear_1023_2384" x1="92.8162" y1="97.7177" x2="92.8162" y2="62.3033" gradientUnits="userSpaceOnUse">
<stop stop-color="#BE6D00"/>
<stop offset="0.19" stop-color="#D09222"/>
<stop offset="0.44" stop-color="#E4BD4A"/>
<stop offset="0.67" stop-color="#F3DB67"/>
<stop offset="0.86" stop-color="#FCEE79"/>
<stop offset="1" stop-color="#FFF57F"/>
</linearGradient>
<linearGradient id="paint39_linear_1023_2384" x1="103.675" y1="97.713" x2="103.675" y2="62.2988" gradientUnits="userSpaceOnUse">
<stop stop-color="#BE6D00"/>
<stop offset="0.19" stop-color="#D09222"/>
<stop offset="0.44" stop-color="#E4BD4A"/>
<stop offset="0.67" stop-color="#F3DB67"/>
<stop offset="0.86" stop-color="#FCEE79"/>
<stop offset="1" stop-color="#FFF57F"/>
</linearGradient>
<linearGradient id="paint40_linear_1023_2384" x1="86.3333" y1="97.6798" x2="86.3333" y2="62.265" gradientUnits="userSpaceOnUse">
<stop stop-color="#BE6D00"/>
<stop offset="0.19" stop-color="#D09222"/>
<stop offset="0.44" stop-color="#E4BD4A"/>
<stop offset="0.67" stop-color="#F3DB67"/>
<stop offset="0.86" stop-color="#FCEE79"/>
<stop offset="1" stop-color="#FFF57F"/>
</linearGradient>
<linearGradient id="paint41_linear_1023_2384" x1="95.1888" y1="97.7161" x2="95.1888" y2="62.302" gradientUnits="userSpaceOnUse">
<stop stop-color="#BE6D00"/>
<stop offset="0.19" stop-color="#D09222"/>
<stop offset="0.44" stop-color="#E4BD4A"/>
<stop offset="0.67" stop-color="#F3DB67"/>
<stop offset="0.86" stop-color="#FCEE79"/>
<stop offset="1" stop-color="#FFF57F"/>
</linearGradient>
</defs>
</svg>
