<svg width="401" height="176" viewBox="0 0 401 176" fill="none" xmlns="http://www.w3.org/2000/svg">
<path d="M277.529 27.3908C288.259 27.8408 296.529 32.7108 302.859 41.2208C300.389 27.6708 298.219 14.1608 299.449 0.300781C308.579 10.9508 314.719 23.3008 320.759 35.8808C320.815 30.961 321.92 26.1097 323.999 21.6508C326.085 17.2906 329.214 13.5123 333.109 10.6508C333.569 10.8708 333.529 11.1408 333.399 11.4308C328.399 22.2008 328.209 33.3308 331.009 44.6508C331.419 46.2808 331.259 46.6508 329.539 46.7808C319.897 47.3266 310.506 50.0625 302.079 54.7808C300.549 55.6408 300.079 55.4108 299.449 53.8308C296.053 44.7779 290.21 36.8464 282.569 30.9208C280.929 29.6708 279.209 28.5608 277.529 27.3908Z" fill="#FFA339"/>
<path d="M154.319 110.309L148.769 124.079C147.769 126.629 146.599 129.149 145.769 131.759C145.129 133.669 143.679 133.039 142.459 133.099C141.239 133.159 140.239 133.319 139.619 131.719C137.099 125.189 134.409 118.719 131.759 112.239C131.559 111.759 131.619 110.829 130.819 110.999C130.019 111.169 130.419 111.999 130.419 112.529C130.419 118.719 130.339 124.919 130.419 131.109C130.419 132.619 130.129 133.189 128.489 133.109C124.809 133.039 124.809 133.109 124.819 129.529C124.819 120.529 124.819 111.469 124.819 102.439C124.819 100.869 125.209 100.439 126.819 100.439C131.599 100.439 131.599 100.389 133.509 104.799C136.303 111.219 139.089 117.643 141.869 124.069C142.039 124.8 142.46 125.448 143.059 125.899C144.059 123.599 145.059 121.389 145.999 119.169C148.369 113.619 150.779 108.079 152.999 102.489C153.187 101.829 153.61 101.261 154.189 100.892C154.768 100.523 155.462 100.38 156.139 100.489C160.659 100.589 160.669 100.489 160.669 105.119C160.669 113.699 160.609 122.289 160.669 130.869C160.669 132.749 160.139 133.439 158.309 133.159C157.789 133.085 157.26 133.085 156.739 133.159C155.219 133.389 154.879 132.729 154.889 131.279C154.969 124.859 154.889 118.439 154.889 112.019V110.489L154.319 110.309Z" fill="white"/>
<path d="M112.619 115.121C114.939 115.121 117.249 115.191 119.559 115.121C120.949 115.061 121.219 115.551 121.339 116.901C122.119 126.251 114.709 133.181 105.619 133.521C96.1494 133.881 88.6994 127.521 88.0294 118.261C87.4994 110.841 90.8494 104.331 96.5894 101.631C103.519 98.3806 111.989 99.4106 116.879 104.131C117.491 104.675 118.029 105.297 118.479 105.981C119.319 107.331 120.999 108.981 120.119 110.251C119.339 111.311 117.049 110.451 115.429 110.561C114.539 110.621 114.429 109.831 114.029 109.311C112.773 107.538 111.016 106.18 108.983 105.412C106.95 104.644 104.734 104.501 102.619 105.001C97.9994 106.001 94.6894 109.161 94.0494 113.601C93.2994 118.801 93.8894 123.601 98.7694 126.851C104.999 131.001 113.999 128.001 116.109 121.181C116.579 119.711 116.499 119.031 114.659 119.121C111.659 119.251 108.539 119.041 105.489 119.181C103.639 119.261 103.919 118.181 103.869 117.041C103.819 115.901 103.869 115.041 105.459 115.091C107.849 115.201 110.239 115.121 112.619 115.121Z" fill="white"/>
<path d="M249.999 99.7307C257.379 99.7307 262.999 103.261 265.409 109.161C266.099 110.831 265.759 111.231 264.019 111.211C261.839 111.211 260.169 111.131 258.639 108.851C255.879 104.761 251.439 103.991 246.839 105.121C242.679 106.121 240.329 109.121 239.459 113.261C238.459 118.081 239.149 122.571 242.959 125.991C247.679 130.231 255.959 128.831 259.419 123.401C260.129 122.271 264.689 121.301 265.609 122.101C266.209 122.641 265.699 123.211 265.489 123.711C264.714 125.821 263.448 127.716 261.796 129.241C260.144 130.765 258.154 131.876 255.989 132.481C250.989 133.951 246.059 133.911 241.429 131.381C234.809 127.771 231.779 119.571 233.899 111.601C235.899 104.161 241.999 99.6907 249.999 99.7307Z" fill="white"/>
<path d="M210.609 118.689C210.609 122.859 210.519 127.039 210.609 131.209C210.609 132.839 210.099 133.209 208.609 133.149C204.989 133.089 204.989 133.149 204.999 129.449C204.999 121.779 204.999 114.099 204.999 106.449C204.999 104.949 204.649 104.299 202.999 104.449C201.069 104.589 199.119 104.359 197.189 104.519C195.259 104.679 195.339 103.649 195.389 102.329C195.439 101.009 195.139 100.019 197.089 100.049C204.319 100.139 211.549 100.109 218.779 100.049C220.699 100.049 220.269 101.289 220.289 102.309C220.309 103.329 220.609 104.639 218.729 104.539C216.579 104.419 214.409 104.539 212.249 104.489C210.899 104.429 210.459 104.829 210.489 106.249C210.599 110.419 210.489 114.589 210.489 118.769L210.609 118.689Z" fill="white"/>
<path d="M228.87 116.56C228.87 121.42 228.81 126.27 228.87 131.12C228.87 132.66 228.52 133.19 226.87 133.12C223.24 133.05 223.24 133.12 223.24 129.44C223.24 120.44 223.24 111.38 223.24 102.35C223.24 100.58 223.56 99.8504 225.52 99.9504C229.47 100.14 228.8 99.5904 228.83 103.31C228.9 107.76 228.87 112.16 228.87 116.56Z" fill="white"/>
<path d="M393 86.8299C380.94 64.3299 361.12 53.9299 339 52.9199C322.44 53.0099 310 56.6699 298.7 64.2899C267.23 85.4999 262.51 128.48 288.7 156C308.9 177.25 342.45 181.87 368.61 167.11C395.42 151.92 409.37 117.46 393 86.8299ZM384.53 142.83C373.2 160.4 356.37 168.55 340.64 169.08C308.97 169.41 285.4 150.91 279.72 125.21C275.18 104.7 284.14 82.5099 301.93 70.2099C312.01 63.1887 324.026 59.4815 336.309 59.6033C348.592 59.7252 360.532 63.6701 370.47 70.8899C393.62 87.6299 399.93 118.82 384.48 142.79L384.53 142.83Z" fill="#FFA339"/>
<path d="M44.9995 121.319C44.3395 120.319 43.8095 119.789 45.5895 119.319C50.7995 117.819 53.0995 114.319 52.6895 108.939C52.3495 104.389 48.9195 101.039 43.8495 100.359C39.3895 99.7494 34.8495 100.279 30.4395 100.029C28.7195 99.9394 28.4395 100.619 28.4395 102.089C28.4995 111.189 28.4895 120.299 28.4895 129.399C28.4895 133.199 28.4895 133.119 32.2295 133.189C33.7395 133.189 34.1495 132.759 34.1095 131.309C34.0195 128.099 34.1095 124.889 34.1095 121.679C34.1095 121.089 33.7595 120.149 34.7995 120.109C36.4295 120.029 38.0895 119.599 39.1795 121.659C40.4995 124.149 42.5695 126.269 43.7295 128.809C45.5695 132.809 48.3595 134.079 52.5295 132.879C52.5295 132.779 52.5895 132.689 52.5295 132.639C50.0795 128.839 47.5595 125.069 44.9995 121.319ZM41.8695 115.999C39.7295 116.199 37.5595 115.999 35.3995 116.089C34.4595 116.089 34.0495 115.729 34.0895 114.759C34.0895 113.269 34.0895 111.759 34.0895 110.049C34.3595 108.469 33.2595 105.509 34.4895 105.049C37.0795 104.049 40.1795 104.319 43.0195 105.049C44.1673 105.258 45.2015 105.873 45.9325 106.782C46.6635 107.691 47.0423 108.834 46.9995 109.999C47.1095 113.579 45.4295 115.679 41.8695 115.999Z" fill="white"/>
<path d="M86.23 131.001C82.58 121.811 78.92 112.621 75.43 103.371C74.62 101.221 73.83 99.6905 71.12 100.611C68.35 99.5205 67.33 101.221 66.64 103.611C66.2 105.101 65.54 106.531 64.97 107.991C61.91 115.811 58.8434 123.631 55.77 131.451C55.32 132.591 55.2 133.141 56.77 133.161C61.05 133.211 61.06 133.281 62.55 129.301C62.7965 128.758 62.9874 128.192 63.12 127.611C63.35 126.191 64.21 125.941 65.49 125.971C68.55 126.041 71.6 125.971 74.66 125.971C78.32 125.971 78.32 125.971 79.66 129.451C81.03 133.121 81.03 133.001 84.86 133.141C86.89 133.241 86.84 132.571 86.23 131.001ZM75.35 121.751C72.45 121.751 69.55 121.751 66.65 121.751C65.71 121.751 65.48 121.351 65.8 120.491C67.48 116.011 69.15 111.491 70.92 106.771C71.8091 108.151 72.4834 109.658 72.92 111.241C74.07 114.241 75.13 117.241 76.26 120.241C76.55 121.121 76.73 121.81 75.35 121.79V121.751Z" fill="white"/>
<path d="M195.78 131.361C192.23 122.441 188.78 113.471 185.32 104.531C183.73 100.451 183.72 100.531 179.38 100.461C178.768 100.36 178.141 100.493 177.624 100.834C177.107 101.175 176.738 101.699 176.59 102.301C174.26 108.501 171.82 114.661 169.41 120.831C168.01 124.431 166.58 128.031 165.19 131.641C164.99 132.171 164.35 132.851 165.6 133.121C169.09 133.891 170.66 133.071 171.85 129.721C171.907 129.581 171.954 129.437 171.99 129.291C172.45 126.671 173.88 125.501 176.63 125.961C177.894 126.061 179.165 126.061 180.43 125.961C181.62 125.961 182.82 125.961 184.01 125.961C188.56 126.021 187.46 125.361 189.1 129.551C190.8 133.911 189.62 132.931 194.44 133.101C195.93 133.181 196.45 133.001 195.78 131.361ZM185 121.771H176.08C175.34 121.771 174.94 121.461 175.24 120.661C176.93 116.111 178.63 111.571 180.57 106.401C182.5 111.601 184.2 116.151 185.89 120.711C186.15 121.561 185.68 121.771 185 121.771Z" fill="white"/>
<path d="M15 100.331C10.47 99.6708 5.91 100.181 1.37 100.001C0 99.9408 0 100.721 0 101.711C0 106.631 0 111.561 0 116.481V129.481C0 133.151 0 133.061 3.64 133.161C5.26 133.161 5.64 132.661 5.64 131.161C5.52 128.161 5.64 125.161 5.56 122.161C5.56 120.761 5.86 120.211 7.41 120.281C9.79509 120.379 12.1841 120.312 14.56 120.081C20.11 119.551 23.64 115.761 23.73 110.401C23.79 104.871 20.62 101.151 15 100.331ZM12.67 115.821C10.81 115.971 8.94 115.891 7.08 115.971C5.93 116.021 5.5 115.601 5.53 114.411C5.61 111.801 5.66 109.181 5.53 106.581C5.43 104.821 6.08 104.301 7.7 104.501C8.44599 104.546 9.19401 104.546 9.94 104.501H12.17C15.71 104.591 17.82 106.501 17.99 109.681C18.15 113.341 16.32 115.511 12.67 115.821Z" fill="white"/>
<path d="M353.419 93.0507C345.999 92.9607 339.679 90.5307 335.279 84.3007C332.019 79.6907 332.279 74.5307 335.669 71.2407C336.546 70.4412 337.563 69.8106 338.669 69.3807C347.329 65.6507 360.819 70.3807 365.209 78.7307C368.619 85.1807 366.209 90.5707 359.209 92.4407C357.311 92.8745 355.367 93.0793 353.419 93.0507Z" fill="#FFA339"/>
<path d="M374.229 115.249L377.159 109.589C378.399 107.209 379.799 104.909 380.849 102.449C381.639 100.609 382.649 99.6492 384.709 100.009C385.3 100.089 385.899 100.089 386.489 100.009C388.169 99.8392 388.489 100.289 387.589 101.819C384.389 107.529 381.319 113.319 378.109 119.029C377.325 120.374 376.937 121.913 376.989 123.469C377.069 126.079 376.989 128.689 377.039 131.299C377.039 132.619 376.769 133.129 375.339 133.149C371.419 133.209 371.139 133.249 371.479 129.319C371.983 123.886 370.567 118.448 367.479 113.949C364.919 110.029 362.959 105.739 360.659 101.649C359.979 100.449 360.009 100.169 361.539 99.9492C365.079 99.4392 367.089 100.659 368.449 104.069C369.999 107.779 372.129 111.219 374.229 115.249Z" fill="white"/>
<path d="M314.46 116.521C314.46 111.671 314.55 106.821 314.46 101.971C314.46 100.321 314.98 99.9707 316.46 99.9707C320.72 100.131 320.09 99.5007 320.1 103.471C320.1 111.241 320.17 119.001 320.1 126.761C320.1 128.501 320.6 128.921 322.24 128.831C324.85 128.701 327.46 128.831 330.08 128.831C331.47 128.831 332.38 128.911 332.08 130.741C331.9 132.041 332.37 133.301 330.17 133.211C325.55 133.031 320.92 133.111 316.29 133.211C314.86 133.211 314.39 132.901 314.43 131.361C314.54 126.381 314.46 121.451 314.46 116.521Z" fill="white"/>
<path d="M365.32 131C361.647 121.886 358.08 112.733 354.62 103.54C353.79 101.31 352.96 99.7298 350.3 100.59C347.71 99.8598 346.55 101.06 345.8 103.42C344.8 106.68 343.36 109.82 342.11 113.01C339.73 119.11 337.34 125.206 334.94 131.3C334.47 132.49 334.28 133.14 336.04 133.14C340.2 133.14 340.21 133.23 341.67 129.33C341.93 128.63 342.2 127.94 342.42 127.22C342.5 126.819 342.73 126.464 343.062 126.226C343.395 125.989 343.805 125.886 344.21 125.94C348.21 125.94 352.12 126 356.07 125.94C356.513 125.882 356.961 125.997 357.321 126.262C357.681 126.526 357.924 126.92 358 127.36C358.23 128.14 358.54 128.91 358.83 129.67C360.1 133.12 360.1 133.04 363.77 133.13C365.56 133.19 366.11 133 365.32 131ZM355.21 121.4C354.43 122.5 351.87 121.64 350.1 121.74C349.95 121.74 349.8 121.74 349.66 121.74C344.47 121.74 344.46 121.74 346.21 116.97C347.43 113.66 348.7 110.36 350.21 106.38C351.58 110.11 352.76 113.2 353.84 116.33C354.42 118.06 356.15 120.09 355.21 121.42V121.4Z" fill="white"/>
<path d="M302.081 100.369C297.631 99.6593 293.131 100.219 288.661 99.9893C287.201 99.9093 286.741 100.359 286.771 101.869C286.871 106.719 286.771 111.569 286.771 116.419V129.419C286.771 133.239 286.771 133.159 290.561 133.159C292.091 133.159 292.431 132.639 292.381 131.159C292.271 128.029 292.381 124.889 292.331 121.759C292.331 120.619 292.681 120.239 293.851 120.259C296.313 120.33 298.777 120.259 301.231 120.049C304.731 119.699 307.681 118.229 309.391 114.959C310.17 113.553 310.594 111.979 310.627 110.372C310.66 108.765 310.301 107.175 309.581 105.738C308.861 104.301 307.802 103.061 306.495 102.126C305.188 101.19 303.673 100.587 302.081 100.369ZM299.221 115.839C297.441 115.959 295.651 115.839 293.871 115.979C292.731 116.029 292.291 115.629 292.331 114.439C292.411 111.909 292.451 109.379 292.331 106.859C292.231 105.069 292.701 104.199 294.621 104.499C295.287 104.549 295.955 104.549 296.621 104.499H298.851C302.471 104.569 304.661 106.499 304.851 109.759C305.001 113.379 303.001 115.579 299.221 115.839Z" fill="white"/>
</svg>
