<svg id="Слой_1" data-name="Слой 1" xmlns="http://www.w3.org/2000/svg" viewBox="0 0 400 400"><defs><style>.cls-1{fill:#f16722;}.cls-2{fill:#f16822;}.cls-3{fill:#f06722;}.cls-4{fill:#ef6722;}.cls-5{fill:#ee6621;}</style></defs><path class="cls-1" d="M297,153.07h4.42c12.79,0,18.74,4.94,21,17.72a33.15,33.15,0,0,1-2.91,21.47c-3.22,6.21-8.26,9.62-15.5,9.45-5.22-.12-10.44,0-15.66,0s-7.33-2.06-7.25-6.43c.07-4.17,2.27-6,7.18-6.07,5.22,0,10.45-.18,15.66,0,3.72.17,5.75-1.56,6.93-4.79a21,21,0,0,0,1.29-8.67c-.56-8.2-2.73-10.21-10.86-10.21-4.55,0-9.1.07-13.65,0s-6.58-2.14-6.55-6.3,2.2-6.09,6.68-6.15C290.81,153,293.89,153.07,297,153.07Z"/><path class="cls-2" d="M359.45,153.81c2.82.11,4.58,2.28,6,5.08q12.43,25.13,24.95,50.24c2.73,5.5,5.47,11,8.13,16.54,2.08,4.34,1.19,8.21-2.1,9.69s-6.59,0-8.7-4.27Q371,197.58,354.37,164C351.72,158.64,354,153.82,359.45,153.81Z"/><path class="cls-3" d="M331.29,195.18q0-16.23,0-32.47a20,20,0,0,1,.31-4.38,5.43,5.43,0,0,1,5.42-4.49,5.5,5.5,0,0,1,6,4.25,14.57,14.57,0,0,1,.4,4q0,32.88,0,65.75a19.19,19.19,0,0,1-.08,2.4c-.45,3.57-2.76,5.69-6.08,5.66s-5.69-2.15-5.88-5.81c-.23-4.26-.11-8.55-.11-12.82Q331.29,206.21,331.29,195.18Z"/><path class="cls-1" d="M119,194.91c0,11.22,0,22.45,0,33.67,0,4.82-2.16,7.32-6,7.28s-6-2.66-6-7.39q0-33.67,0-67.35c0-3.41,1.11-6.12,4.59-7.11,2.72-.78,5,.25,6.61,2.6,1.08,1.55.9,3.31.9,5Q119,178.27,119,194.91Z"/><path class="cls-2" d="M42.51,219.45a15.69,15.69,0,0,1-3.69,8.49c-1.43,1.73-1.54,3.13-.41,5A67.83,67.83,0,0,1,41.48,239c1.65,3.45.7,6.05-2.81,7.86s-6.14,1-8-2.38a4.08,4.08,0,0,1-.35-.73c-1.84-6-5.3-8.4-12.12-8.26-9.7.2-17.13-7.65-18.13-17.08-.45-4.22,1.56-7.25,5.14-7.75,3.74-.52,6.15,1.52,7,5.92,1,5.18,3.65,7.25,9.36,7.2s8.05-2.07,9-7.5c.65-3.81,3.05-5.9,6.51-5.67S42.62,213.42,42.51,219.45Z"/><path class="cls-2" d="M187.11,210.56a7,7,0,0,1-5.87-3.5c-1.28-2.23-.9-4.31.52-6.36,10.59-15.28,21.13-30.59,31.75-45.85,2.11-3,5.36-3.47,8.36-1.35s3.71,5.21,1.57,8.33c-10.59,15.44-21.27,30.82-31.88,46.24A5.55,5.55,0,0,1,187.11,210.56Z"/><path class="cls-2" d="M399.77,222.88c-4-8.13-7.5-15.2-11-22.23a9,9,0,0,1-.82-4.26c0-11.77,0-23.53,0-35.3,0-4.65,2.32-7.34,6.11-7.29,3.62,0,5.94,2.7,5.94,7.06q0,29.67,0,59.35C400,220.71,399.91,221.21,399.77,222.88Z"/><path class="cls-2" d="M21.34,153.78c11.87,0,20.82,7.6,21.19,18,.16,4.33-1.93,7.12-5.56,7.42-3.39.28-5.91-2.09-6.54-6.14-.77-4.87-3.57-7.13-8.94-7.2-5.55-.07-8.53,2.22-9.41,7.2-.76,4.36-3.32,6.61-6.87,6.07s-5.58-3.61-5.15-7.79C1.13,160.8,9.64,153.79,21.34,153.78Z"/><path class="cls-2" d="M172.64,172c-.06,4.36-2.29,7-5.64,7.22s-5.83-2.08-6.43-5.79c-.86-5.27-3.52-7.5-9-7.55-5.72-.05-8.47,2.18-9.39,7.63-.63,3.73-3.19,6-6.47,5.7-3.47-.3-5.69-3.1-5.57-7.05.26-8.77,6.63-15.83,16.13-17.9,12.2-2.64,23.47,3.77,26,14.8C172.48,170.21,172.56,171.41,172.64,172Z"/><path class="cls-1" d="M251.46,153.79c12,.06,20.88,8,20.93,18.6,0,3.85-2,6.4-5.35,6.78s-6-1.91-6.67-5.55c-1.12-5.74-3.53-7.77-9.18-7.76s-8.08,2.12-9.23,7.82c-.75,3.73-3.37,5.89-6.64,5.48-3.44-.43-5.6-3.36-5.35-7.25C230.65,161.12,239.42,153.72,251.46,153.79Z"/><path class="cls-1" d="M353.89,168.26c3.79,7.7,7.35,14.84,10.82,22a7.29,7.29,0,0,1,.58,3.08q.06,17.63,0,35.25a10,10,0,0,1-.22,2.38c-.85,3.26-2.93,5.07-6.38,4.82-3.24-.24-5.07-2.15-5.44-5.36a30.86,30.86,0,0,1-.11-3.6q0-27,0-54.07C353.17,171.51,352.83,170.17,353.89,168.26Z"/><path class="cls-1" d="M251.24,235.9c-11.76,0-20.2-7.09-21.09-17.68-.35-4.2,1.44-7,4.86-7.53,3.74-.6,6.29,1.47,7.14,5.79,1,5.31,3.57,7.33,9.21,7.31s8-2,9.06-7.43c.77-4.07,3.25-6.12,6.88-5.71,3.4.39,5.24,2.85,5.16,6.88C272.24,228.23,263.36,235.91,251.24,235.9Z"/><path class="cls-2" d="M151.26,235.89c-11.35-.07-19.46-6.62-20.95-16.94-.64-4.45,1.28-7.69,4.91-8.26q5.78-.91,7.07,6.19c.9,4.89,3.87,7,9.6,6.91,5.21-.12,8-2.33,8.7-6.95.68-4.41,3-6.57,6.77-6.2s5.51,3,5.28,7.54C172.11,228.56,163.17,236,151.26,235.89Z"/><path class="cls-2" d="M74.45,235.89c-11.44,0-19.53-6.32-21.2-16.64-.73-4.58,1-7.78,4.53-8.51,3.95-.81,6.45,1.3,7.4,6.23.92,4.78,4,6.95,9.72,6.82,5.2-.13,7.85-2.28,8.61-7,.71-4.37,3.12-6.53,6.86-6.13,3.57.37,5.32,2.82,5.16,7.21C95.15,228.31,86.33,235.86,74.45,235.89Z"/><path class="cls-1" d="M65.15,210c-4.32-3-8-2.62-11.44-.37-.3-.3-.61-.46-.61-.62-.05-16.19-.12-32.38-.06-48.57,0-4.07,2.48-6.59,6-6.68a5.65,5.65,0,0,1,6.06,5.63C65.21,176,65.15,192.57,65.15,210Z"/><path class="cls-1" d="M95.59,210.07c-4.23-3.07-7.88-2.62-11.32-.44-1-.47-.72-1.24-.72-1.82q0-23.26,0-46.53a10.29,10.29,0,0,1,.24-2.78c1-3.23,3.13-5,6.54-4.62,3.18.36,5.22,2.32,5.23,5.58C95.64,176,95.59,192.59,95.59,210.07Z"/><path class="cls-1" d="M206.06,191.42c6.53,12.76,12.95,25.16,19.21,37.65,1.61,3.22-.41,5.41-3.13,6.77s-5.85,1.91-7.64-1.49c-5.27-10-10.35-20.14-15.57-30.19a2.44,2.44,0,0,1,.27-2.9C201.43,198.11,203.62,194.93,206.06,191.42Z"/><path class="cls-4" d="M180.88,197.66c-1.08-1.92-.6-3.68-.61-5.35q-.08-15.62,0-31.23c0-4.93,2.36-7.73,6.18-7.71s6,2.9,6.08,7.82c0,2.67-.42,5.42.08,8C195,181.27,187.09,188.94,180.88,197.66Z"/><path class="cls-1" d="M268.2,208.31c-5.75-.94-7.54.13-10.86,5.79l-23-31.25c5.05-.1,8.52-1.86,10-6.84Z"/><path class="cls-2" d="M281,202.21c3.27,2.15,6.37,2,9.41,1.85,2.11-.08,2.74.73,2.71,2.78-.1,7.47,0,14.95-.06,22.41,0,4.06-2.42,6.57-5.95,6.62s-6-2.41-6.08-6.43C281,220.64,281,211.85,281,202.21Z"/><path class="cls-1" d="M30.58,179.48c3.91,2.49,7.68,2.79,11.71.11v30.26a10.43,10.43,0,0,0-11.71.25Z"/><path class="cls-1" d="M.13,179.38c4,2.94,7.8,2.53,11.75.33v30.23C8,207.76,4.16,207.39.13,210.2Z"/><path class="cls-1" d="M130.14,210.1V179.52c3.86,2.34,7.73,3,11.77-.16V210C138,207.64,134.14,207.49,130.14,210.1Z"/><path class="cls-5" d="M180.37,210.52c3.75,2.07,7.12,3.43,10.85,1.29,1.07-.62,1.25.51,1.24,1.32,0,5.73.13,11.46-.24,17.16-.22,3.33-2.66,5.3-6,5.22s-5.66-2-5.78-5.45C180.22,223.73,180.37,217.38,180.37,210.52Z"/><path class="cls-2" d="M281.15,188.77V166.5A18.34,18.34,0,0,0,290.5,168c2.12-.17,2.76.68,2.7,2.75-.13,4.53-.12,9.08,0,13.62.05,2-.72,2.5-2.57,2.45C287.47,186.75,284.23,186.37,281.15,188.77Z"/></svg>