<svg width="945" height="172" viewBox="0 0 945 172" fill="none" xmlns="http://www.w3.org/2000/svg">
<path d="M106.656 0.720703C109.073 1.49769 111.089 3.1918 112.27 5.43906C113.088 7.78138 113.243 10.3041 112.719 12.7289C111.327 29.1252 109.864 45.5215 108.449 61.9178C108.095 65.9285 107.67 69.9627 107.411 73.9733C107.411 75.3416 106.797 75.2472 105.853 74.9641C101.468 73.4006 97.389 71.0854 93.798 68.1225C78.369 56.6804 70.2062 40.9447 66.7146 22.4723C65.5054 15.9635 64.7173 9.38347 64.3555 2.77318C64.3555 1.47563 64.6386 1.12175 65.9125 1.14534C69.121 1.14534 72.3059 1.14534 75.5144 1.14534C77.8736 0.862237 80.3507 1.14534 82.7571 1.14534H89.9762C92.5413 1.22394 95.1089 1.16097 97.6671 0.956636L106.656 0.720703Z" fill="#D1272F"/>
<path d="M1.01383 138.379C1.71262 135.674 2.06148 132.891 2.05187 130.098C3.30223 116.674 4.41105 103.203 5.63782 89.7558C5.92092 86.2878 6.22761 82.6783 6.51072 79.3282C6.69945 76.8275 6.69945 76.8039 8.8699 77.8655C25.3842 85.9103 37.1801 98.2017 42.8185 116.013C46.1835 126.709 48.3902 137.734 49.4006 148.9C49.5658 150.646 49.0467 150.788 47.5605 150.788C37.3452 150.788 27.13 150.788 16.8911 150.788C14.5319 150.788 12.1727 150.788 9.81357 150.788C8.05673 150.922 6.30307 150.49 4.80895 149.557C3.31482 148.623 2.15858 147.236 1.50925 145.598C1.50925 145.338 1.3677 144.984 0.990234 144.937L1.01383 138.379Z" fill="#D1272F"/>
<path d="M767.561 53.92C768.505 52.7162 769.297 51.4009 769.92 50.0038C778.555 34.2759 787.166 18.548 795.753 2.82015C795.929 2.44814 796.217 2.14082 796.577 1.94179C796.937 1.74276 797.35 1.66212 797.759 1.71133H841.12C842.371 1.71133 842.63 2.04161 842.536 3.2212C841.451 14.3565 840.389 25.5076 839.351 36.6744C838.313 47.8412 837.306 59.0709 836.331 70.3635C835.93 74.8695 835.458 79.352 835.057 83.858C835.057 84.7781 834.774 85.1791 833.712 85.1791C826.021 85.1791 818.338 85.1791 810.663 85.1791C809.72 85.1791 809.295 85.1792 809.413 83.9288C810.427 73.0058 811.371 62.0828 812.338 51.1362C813.07 42.7375 813.824 34.3388 814.532 25.9401C814.532 25.4447 815.028 24.501 814.084 24.501C813.14 24.501 811.371 23.8169 810.404 25.5391C807.691 30.4226 804.812 35.2353 802.005 40.0716C793.512 54.6671 785.019 69.2861 776.526 83.9288C776.358 84.3328 776.067 84.6734 775.694 84.9022C775.322 85.131 774.886 85.2362 774.45 85.2027C768.387 85.2027 762.347 85.2027 756.284 85.2027C755.854 85.2521 755.42 85.1461 755.061 84.9039C754.702 84.6616 754.441 84.2991 754.326 83.8816C745.849 64.5363 737.363 45.2146 728.87 25.9165C728.364 25.2566 727.667 24.7673 726.874 24.5143C726.082 24.2613 725.231 24.2567 724.435 24.501C724.105 24.7369 724.199 25.1616 724.176 25.4919C723.326 36.2497 722.501 47.0076 721.628 57.7654C720.944 66.5416 720.212 75.2942 719.552 84.0703C719.552 84.9196 719.292 85.2027 718.396 85.2027C710.893 85.2027 703.391 85.2027 695.889 85.2027C694.733 85.2027 694.78 84.6601 694.851 83.9052C696.031 68.83 697.21 53.7549 698.366 38.6561C699.294 26.7658 700.159 14.8677 700.961 2.96169C700.961 2.04161 701.268 1.73491 702.212 1.73491H746.517C747.532 1.73491 747.838 2.18316 748.145 2.96169C754.137 18.6896 760.137 34.4174 766.146 50.1453L767.561 53.92Z" fill="white"/>
<path d="M305.748 85.1787C291.097 85.1787 276.471 85.1787 261.82 85.1787C260.428 85.1787 260.074 84.872 260.169 83.4565C261.041 72.6987 261.82 61.9408 262.528 51.1829C263.188 42.5248 263.825 33.8902 264.486 25.232C265.052 17.8477 265.642 10.4399 266.161 3.05569C266.161 1.97046 266.562 1.71094 267.647 1.71094H357.249C358.499 1.71094 358.735 2.0884 358.641 3.22081C358.216 9.16595 357.839 15.1347 357.508 21.0798C357.508 22.4717 356.683 22.4953 355.621 22.4953C334.388 22.4953 313.156 22.4953 291.923 22.4953C290.342 22.4953 289.564 22.8256 289.753 24.5006C289.753 26.8598 289.753 29.3369 289.753 31.7433C289.753 32.4746 289.989 32.7106 290.696 32.6398H291.782C311.15 32.6398 330.496 32.6398 349.865 32.6398C351.681 32.6398 352.011 33.1116 351.87 34.8102C351.469 39.8589 351.162 44.9075 350.903 49.9562C350.903 51.2537 350.478 51.6076 349.133 51.6076C338.305 51.6076 327.476 51.6076 316.647 51.6076C307.871 51.6076 299.119 51.6076 290.342 51.6076C288.88 51.6076 288.408 52.0087 288.243 53.4714C287.889 56.5855 287.37 59.676 286.709 62.7429C286.332 64.4179 286.568 64.8662 288.384 64.8662C309.216 64.8662 330.024 64.8662 350.832 64.8662C352.601 64.8662 353.073 65.2673 352.932 67.0131C352.46 72.5335 352.098 78.0383 351.846 83.5273C351.846 85.0608 351.233 85.3675 349.817 85.3675C335.025 85.1552 320.398 85.1787 305.748 85.1787Z" fill="white"/>
<path d="M898.562 1.75781C913.378 1.75781 928.193 1.75781 943.033 1.75781C944.425 1.75781 944.802 1.97012 944.661 3.50358C944.142 9.25998 943.756 15.0321 943.505 20.82C943.505 22.3063 942.962 22.5422 941.617 22.5422C920.385 22.5422 899.152 22.5422 877.919 22.5422C876.339 22.5422 875.725 22.8489 875.843 24.5711C875.957 26.7981 875.894 29.0306 875.655 31.2476C875.513 32.5687 875.938 32.7102 877.07 32.7102C886.979 32.7102 896.911 32.7102 906.819 32.7102C916.728 32.7102 926.542 32.7102 936.403 32.7102C937.677 32.7102 937.96 32.9698 937.866 34.2673C937.441 39.4339 937.135 44.6005 936.899 49.7671C936.899 51.2534 936.38 51.6545 934.917 51.6545C915.383 51.6545 895.826 51.6545 876.292 51.6545C874.829 51.6545 874.333 52.0555 874.145 53.4475C873.696 56.7267 873.225 60.0295 872.54 63.2616C872.21 64.8423 872.776 64.8895 874.027 64.8895C881.718 64.8895 889.409 64.8895 897.076 64.8895C910.382 64.8895 923.687 64.8895 937.017 64.8895C938.385 64.8895 938.881 65.1254 938.786 66.6353C938.338 72.5804 937.984 78.4312 937.654 84.4942C937.654 85.202 937.394 85.4851 936.686 85.4379C935.979 85.3908 935.979 85.4379 935.601 85.4379C906.442 85.4379 877.282 85.4379 848.123 85.4379C846.448 85.4379 846.047 85.0369 846.188 83.3854C847.321 69.0888 848.382 54.7922 849.468 40.4955C850.411 28.0627 851.402 15.6298 852.275 3.1733C852.393 1.61624 853.29 1.99371 854.092 1.99371L898.562 1.75781Z" fill="white"/>
<path d="M605.508 1.75781C621.48 1.75781 637.451 1.75781 653.423 1.75781C654.98 1.75781 655.263 2.15888 655.145 3.64516C654.72 9.46448 654.374 15.2995 654.107 21.1503C654.107 22.7073 653.706 23.3443 651.866 23.3207C641.061 23.2028 630.232 23.3207 619.404 23.3207C618.177 23.3207 617.752 23.6038 617.658 24.8542C617.162 31.7666 616.549 38.6554 616.006 45.5678C615.299 53.9665 614.614 62.3887 613.954 70.7874C613.6 75.1047 613.223 79.4456 612.939 83.7629C612.939 84.9425 612.515 85.3672 611.241 85.3436C603.125 85.3436 595.033 85.3436 586.918 85.3436C585.762 85.3436 585.361 85.1077 585.479 83.8573C586.045 77.1336 586.54 70.41 587.083 63.6863C587.743 55.3348 588.451 46.9833 589.135 38.6318C589.489 34.1257 589.819 29.6197 590.244 25.1373C590.386 23.7218 590.032 23.3207 588.545 23.3207C577.717 23.3207 566.888 23.3207 556.06 23.3207C554.691 23.3207 554.29 23.1084 554.408 21.5749C554.904 15.5826 555.21 9.54311 555.517 3.5272C555.517 2.15887 556.012 1.78139 557.428 1.78139C573.447 1.78139 589.489 1.75781 605.508 1.75781Z" fill="white"/>
<path d="M541.594 99.6611C410.895 99.6611 280.212 99.6611 149.545 99.6611C148.814 99.6611 147.445 100.463 147.327 98.9062C147.115 96.0044 147.823 95.0371 149.687 95.0371C411.351 95.0371 673.008 95.0371 934.657 95.0371C936.402 95.0371 936.78 95.5561 936.332 97.066C936.186 97.5895 936.099 98.1276 936.072 98.6703C936.072 99.5196 935.6 99.8262 934.775 99.7555H541.594V99.6611Z" fill="#CB222A"/>
<path d="M523.169 85.1762C509.321 85.1762 495.449 85.1762 481.6 85.1762C479.996 85.1762 479.831 84.728 479.996 83.2653C480.869 74.6307 481.6 65.9961 482.355 57.3143L484.714 31.2217C485.351 24.1442 486.012 17.0666 486.649 9.98909C486.861 7.62991 487.168 5.27073 487.31 2.91155C487.31 2.06225 487.593 1.80273 488.466 1.80273H513.874C514.794 1.80273 514.983 2.10943 514.912 2.98232C513.842 15.3916 512.804 27.8166 511.798 40.2574C511.184 47.7596 510.595 55.2854 509.981 62.7876C509.981 63.4717 509.981 63.802 510.807 63.7784H512.081C530.105 63.7784 548.129 63.7784 566.153 63.7784C567.64 63.7784 568.041 64.0615 567.923 65.6422C567.451 71.6345 567.121 77.674 566.814 83.6899C566.814 85.011 566.295 85.3177 564.997 85.3177C551.102 85.1526 537.135 85.1762 523.169 85.1762Z" fill="white"/>
<path d="M6.93359 74.798C7.42902 69.0652 7.90086 63.3088 8.41988 57.5524C9.43433 45.7565 10.496 34.1493 11.5104 22.4242C11.9115 17.9181 12.2417 13.4121 12.6664 8.90608C12.914 6.98219 13.8424 5.2106 15.2836 3.91226C16.7247 2.61392 18.5833 1.8747 20.5225 1.82854L48.6203 1.38029C52.7253 1.38029 56.8539 1.38029 60.9588 1.16797C62.6103 1.16797 61.9969 2.13523 61.9025 2.81939C61.2032 8.08219 59.8888 13.2448 57.9863 18.2013C52.914 31.9081 46.497 44.9544 36.7536 55.9481C29.0695 64.4889 19.3218 70.9143 8.44347 74.6092C8.10786 74.7438 7.76031 74.8465 7.40543 74.9159C7.40543 74.9159 7.16951 74.8451 6.93359 74.798Z" fill="#D1272F"/>
<path d="M73.182 150.741C66.4583 150.741 59.7582 150.741 53.0346 150.741C51.5955 150.741 51.4067 150.434 51.6898 149.018C55.1152 131.786 62.5867 115.613 73.4886 101.835C81.6822 90.9601 92.6734 82.5129 105.29 77.3937C106.564 76.8747 107.178 76.7567 107.013 78.5497C105.102 100.018 103.261 121.534 101.351 143.026C101.306 144.101 101.046 145.155 100.588 146.128C100.13 147.101 99.4813 147.973 98.6812 148.691C97.8811 149.41 96.9454 149.962 95.9291 150.314C94.9128 150.666 93.8364 150.811 92.7631 150.741H73.182Z" fill="#D1272F"/>
<path d="M487.287 161.285L503.471 138.991C510.407 129.412 517.343 119.842 524.279 110.279C524.538 109.852 524.912 109.505 525.358 109.28C525.804 109.055 526.305 108.96 526.803 109.005C531.521 109.005 536.24 109.005 540.958 109.005C541.902 109.005 542.279 109.005 542.185 110.256C541.052 122.052 540.038 133.847 538.976 145.643C538.245 153.735 537.49 161.827 536.782 169.943C536.782 171.288 536.358 171.972 534.777 171.83C532.845 171.689 530.905 171.689 528.973 171.83C527.888 171.83 527.676 171.5 527.77 170.509C528.336 164.635 528.855 158.713 529.374 152.863C530.177 144.165 530.963 135.467 531.734 126.77C531.993 124.01 532.253 121.249 532.441 118.466C532.441 117.923 533.055 117.003 532.064 116.838C531.073 116.673 530.271 116.484 529.516 117.546C525.977 122.523 522.32 127.407 518.735 132.314C509.298 145.101 499.932 157.895 490.637 170.698C490.43 171.092 490.104 171.411 489.707 171.61C489.309 171.809 488.858 171.878 488.419 171.807C488.122 171.76 487.82 171.76 487.523 171.807C483.701 172.609 481.766 170.863 479.926 167.513C470.867 150.999 461.501 134.697 452.229 118.3C451.875 117.687 451.757 116.791 450.672 116.767C449.587 116.743 448.95 116.767 448.832 118.159C448.242 125.543 447.487 132.927 446.803 140.288C445.97 148.938 445.183 157.589 444.444 166.239C444.302 167.678 444.066 169.117 444.043 170.556C444.043 171.547 443.76 171.901 442.722 171.854C440.363 171.854 438.239 171.854 435.998 171.854C434.936 171.854 434.818 171.476 434.913 170.604L437.272 145.384C438.058 136.686 438.845 127.989 439.631 119.291C439.891 116.295 440.174 113.275 440.386 110.279C440.386 109.477 440.693 109.123 441.589 109.147C446.85 109.147 452.111 109.147 457.372 109.147C458.457 109.147 458.646 109.831 459 110.468L477.874 144.204L487.287 161.285Z" fill="white"/>
<path d="M670.242 85.1786C666.255 85.1786 662.268 85.1786 658.281 85.1786C657.031 85.1786 656.394 85.1786 656.559 83.5036C657.739 71.8728 658.777 60.2421 659.815 48.6113C660.853 37.3816 661.82 26.1519 662.834 14.9222C663.188 10.9116 663.613 6.90101 663.92 2.86681C663.92 2.0175 664.273 1.73438 665.123 1.73438H690.531C691.357 1.73438 691.546 1.99389 691.475 2.77242C690.814 9.66123 690.169 16.5579 689.54 23.4624C688.738 32.097 687.952 40.7474 687.181 49.4134L684.822 75.3644C684.562 78.2426 684.208 81.1208 684.043 83.999C684.043 85.0606 683.642 85.273 682.651 85.273C678.476 85.1314 674.371 85.1786 670.242 85.1786Z" fill="white"/>
<path d="M891.039 171.711H869.807C866.482 171.884 863.219 170.765 860.7 168.589C858.181 166.413 856.601 163.347 856.289 160.033C855.805 155.322 855.884 150.57 856.524 145.878C857.02 139.697 857.775 133.516 858.058 127.335C858.577 116.058 865.56 108.768 876.931 108.603C890.473 108.438 904.038 108.603 917.58 108.603C920.241 108.646 922.88 109.084 925.412 109.9C927.322 110.406 929.042 111.456 930.366 112.922C931.69 114.388 932.559 116.207 932.868 118.157C933.378 121.315 933.537 124.52 933.339 127.712C933.339 128.514 932.938 128.561 932.325 128.561C930.39 128.561 928.456 128.561 926.521 128.561C925.648 128.561 925.389 128.137 925.436 127.311C925.436 125.966 925.436 124.645 925.436 123.324C925.48 122.026 925.07 120.754 924.278 119.725C923.486 118.696 922.361 117.975 921.095 117.686C918.424 116.907 915.641 116.58 912.862 116.718C901.844 116.718 890.827 116.718 879.833 116.718C871.34 116.718 866.952 120.446 866.221 128.868C865.489 137.29 865.183 145.713 864.758 154.135C864.72 155.529 864.846 156.923 865.135 158.287C865.772 161.731 867.495 163.218 871.364 163.713C872.625 163.854 873.893 163.925 875.162 163.925C886.061 163.925 896.961 163.925 907.837 163.925C910.743 164.008 913.65 163.747 916.495 163.147C918.527 162.877 920.391 161.875 921.738 160.329C923.084 158.783 923.82 156.798 923.808 154.748C923.973 152.885 923.95 150.997 924.28 149.157C924.61 147.317 923.879 147.364 922.487 147.388C913.947 147.388 905.43 147.388 896.89 147.388C895.168 147.388 892.832 148.166 891.865 147.034C890.898 145.901 891.865 143.849 891.865 142.174C891.865 140.499 892.431 140.192 893.988 140.216C906.492 140.404 919.019 140.475 931.523 140.593C932.113 140.593 932.915 140.216 932.891 141.419C932.952 147.388 932.406 153.348 931.263 159.207C929.612 166.285 924.846 169.635 918.146 171.003C915.718 171.514 913.243 171.767 910.762 171.758C904.227 171.664 897.621 171.711 891.039 171.711Z" fill="white"/>
<path d="M177.765 171.712H156.886C153.59 171.938 150.334 170.877 147.804 168.752C145.274 166.626 143.667 163.603 143.321 160.317C142.711 155.619 142.711 150.861 143.321 146.162C143.863 139.486 144.547 132.833 144.996 126.18C145.058 121.491 146.969 117.016 150.314 113.729C153.658 110.442 158.165 108.609 162.855 108.628C176.821 108.415 190.787 108.628 204.777 108.628C206.948 108.678 209.105 109.003 211.194 109.595C213.382 110 215.385 111.089 216.915 112.704C218.445 114.319 219.424 116.377 219.711 118.583C220.128 121.449 220.262 124.349 220.112 127.242C220.112 128.185 219.734 128.61 218.696 128.539C216.998 128.539 215.299 128.397 213.624 128.539C212.468 128.539 212.114 128.138 212.209 127.053C212.209 126.345 212.209 125.614 212.209 124.882C212.209 119.621 210.062 117.404 204.73 116.955C201.545 116.696 198.337 116.649 195.128 116.649H166.37C164.86 116.644 163.356 116.818 161.887 117.168C159.633 117.688 157.603 118.912 156.093 120.665C154.583 122.417 153.67 124.605 153.489 126.911C152.734 131.134 152.852 135.428 152.498 139.698C152.144 143.968 151.955 148.71 151.696 153.24C151.608 154.924 151.735 156.612 152.073 158.265C152.687 161.662 154.668 163.313 158.537 163.691C159.929 163.809 161.321 163.88 162.689 163.88C173.353 163.88 183.922 163.88 194.656 163.88C197.19 163.903 199.721 163.737 202.229 163.384C207.608 162.535 210.109 160.058 210.77 154.679C211.006 152.768 211.006 150.833 211.265 148.922C211.43 147.625 211.053 147.342 209.755 147.342C200.083 147.342 190.41 147.342 180.714 147.342C178.354 147.342 178.354 147.342 178.708 144.983C178.708 144.432 178.756 143.889 178.85 143.355C179.015 140.052 178.991 140.075 182.318 140.099C194.303 140.099 206.264 140.335 218.248 140.382C219.522 140.382 219.994 140.571 219.923 142.01C219.805 147.247 219.356 152.471 218.578 157.651C218.132 160.973 216.607 164.057 214.237 166.427C211.867 168.797 208.783 170.322 205.461 170.768C203.044 171.303 200.577 171.58 198.101 171.594C191.306 171.665 184.536 171.712 177.765 171.712Z" fill="white"/>
<path d="M719.787 116.672C719.41 121.391 719.079 125.566 718.749 129.813L716.272 162.44C716.083 165.012 715.918 167.607 715.8 170.179C715.8 171.217 715.541 171.83 714.243 171.759C711.884 171.618 709.407 171.759 706.977 171.759C706.01 171.759 705.609 171.594 705.703 170.509C706.772 158.068 707.826 145.635 708.864 133.21C709.493 125.582 710.099 117.954 710.681 110.326C710.681 109.382 710.94 109.005 712.002 109.029C715.871 109.029 719.74 109.029 723.609 109.029C724.024 109.015 724.436 109.103 724.81 109.284C725.184 109.465 725.508 109.733 725.756 110.067L775.299 163.101L776.172 164.021C776.384 162.323 776.573 160.954 776.714 159.586L780.819 116.743C781.031 114.526 781.315 112.308 781.456 110.09C781.456 109.17 781.904 109.029 782.706 109.052C784.806 109.052 786.929 109.052 789.053 109.052C790.303 109.052 790.704 109.265 790.563 110.609C789.973 116.177 789.501 121.768 788.958 127.336C788.18 135.805 787.378 144.251 786.599 152.721C786.033 158.713 785.42 164.705 784.877 170.721C784.877 171.594 784.547 171.783 783.697 171.783C779.404 171.783 775.11 171.783 770.816 171.783C770.462 171.772 770.115 171.682 769.8 171.518C769.486 171.355 769.212 171.123 769 170.839L726.534 124.245L719.787 116.672Z" fill="white"/>
<path d="M116.611 15.7012C118.64 16.0547 120.453 17.1818 121.668 18.8453C122.882 20.5087 123.404 22.5785 123.123 24.6189C122.061 36.4148 121.094 48.2107 120.056 60.0066C118.9 73.2652 117.697 86.5473 116.541 99.8295L112.79 143.262C112.459 147.107 112.129 150.953 111.751 154.775C111.574 156.563 110.789 158.237 109.526 159.516C108.264 160.796 106.601 161.603 104.816 161.805C104.344 161.805 103.848 161.805 103.376 161.805H22.2442C20.5112 161.898 18.7949 161.426 17.3529 160.46C15.9108 159.495 14.8209 158.088 14.2466 156.45C13.8927 155.365 13.9399 154.94 15.379 154.94C42.4624 154.94 69.5615 154.94 96.6763 154.94C97.781 155.008 98.8879 154.848 99.9288 154.472C100.97 154.096 101.923 153.511 102.729 152.754C103.536 151.996 104.179 151.081 104.619 150.065C105.059 149.05 105.286 147.955 105.287 146.848C106.231 135.194 107.293 123.539 108.307 111.885C109.235 101.505 110.147 91.1163 111.044 80.7202C112.208 67.4301 113.371 54.1558 114.535 40.8972C115.196 32.4985 115.927 24.147 116.611 15.7012Z" fill="#D1272F"/>
<path d="M73.3905 171.712H31.8453C30.2713 171.75 28.7278 171.273 27.4501 170.353C26.1723 169.433 25.2304 168.121 24.7678 166.616C24.4139 165.554 24.5554 165.153 25.8058 165.153C31.7981 165.153 37.7904 165.153 43.7828 165.153H107.174C108.28 165.227 109.39 165.074 110.435 164.703C111.48 164.331 112.438 163.749 113.249 162.993C114.061 162.237 114.709 161.323 115.153 160.307C115.597 159.29 115.828 158.194 115.832 157.085C117.059 142.6 118.356 128.138 119.63 113.652C120.763 100.598 121.887 87.5599 123.004 74.5372C124.168 61.2629 125.332 47.9886 126.496 34.7143C126.732 32.1899 127.015 29.6656 127.085 27.1413C127.085 25.9853 127.534 26.0325 128.383 26.3156C130.046 26.886 131.475 27.9869 132.451 29.4489C133.427 30.9109 133.896 32.6531 133.786 34.4075C132.299 51.5352 130.766 68.6393 129.279 85.7669C128.006 100.299 126.747 114.84 125.505 129.388C124.467 141.184 123.452 152.98 122.391 164.894C122.343 165.843 122.107 166.774 121.697 167.632C121.287 168.49 120.711 169.258 120.002 169.892C119.294 170.526 118.467 171.013 117.569 171.325C116.671 171.638 115.72 171.769 114.771 171.712H73.3905Z" fill="#D1272F"/>
<path d="M619.944 171.713C618.835 171.572 616.995 172.303 616.263 171.407C615.532 170.51 616.263 168.906 616.405 167.585C617.561 156.096 618.764 144.606 619.92 133.094C620.722 125.23 621.509 117.366 622.279 109.502C622.397 108.063 622.775 107.379 624.426 107.544C626.177 107.685 627.936 107.685 629.687 107.544C630.89 107.544 631.079 107.898 630.961 108.983C630.033 117.901 629.129 126.826 628.248 135.76C627.367 144.693 626.463 153.744 625.535 162.914C625.275 165.485 624.992 168.057 624.804 170.628C624.804 171.407 624.52 171.69 623.742 171.666C622.492 171.666 621.477 171.713 619.944 171.713Z" fill="white"/>
<path d="M256.206 13.1771C256.018 11.3044 255.309 9.52207 254.157 8.03305C253.006 6.54404 251.46 5.40816 249.695 4.75484C245.334 2.96527 240.678 2.00517 235.965 1.92383C209.424 1.92383 182.859 1.92383 156.295 1.92383C155.304 1.92383 154.997 2.18336 154.927 3.19781C154.219 13.3737 153.48 23.526 152.709 33.6548C151.435 50.4364 150.138 67.1945 148.816 83.929C148.816 84.967 148.816 85.4152 150.09 85.3916C157.451 85.3916 164.827 85.3916 172.219 85.3916C173.423 85.3916 173.706 84.9906 173.847 83.8818C174.602 77.9602 175.499 72.0859 176.206 66.1407C176.372 64.9139 176.749 64.6308 177.976 64.6308C192.131 64.6308 206.027 64.6308 220.064 64.6308C221.068 64.5277 222.077 64.7839 222.911 65.354C223.744 65.9242 224.349 66.7713 224.617 67.745C225.331 69.6624 225.698 71.6913 225.702 73.7373C225.759 77.1738 225.506 80.6085 224.947 83.9997C224.806 84.9434 224.947 85.3445 226.009 85.3445C233.747 85.3445 241.493 85.3445 249.247 85.3445C250.214 85.3445 250.473 84.967 250.568 84.1413C250.804 82.0416 251.11 79.9419 251.299 77.8659C251.932 72.7157 252.247 67.5314 252.243 62.3424C252.255 60.9471 251.875 59.5765 251.145 58.3875C250.414 57.1984 249.364 56.2389 248.114 55.6188C245.908 54.4455 243.583 53.5122 241.178 52.8349C241.355 52.7681 241.537 52.7129 241.721 52.6698L243.49 52.2688C246.257 51.8514 248.817 50.5587 250.796 48.5803C252.774 46.6018 254.067 44.0416 254.484 41.275C255.254 37.0692 255.789 32.8241 256.088 28.559C256.709 23.4527 256.749 18.2924 256.206 13.1771ZM230.397 27.8277C230.224 31.6195 229.743 35.3909 228.958 39.1045C228.901 39.6296 228.737 40.1375 228.476 40.5964C228.215 41.0554 227.862 41.4555 227.439 41.772C227.016 42.0886 226.533 42.3146 226.019 42.4361C225.505 42.5576 224.971 42.5719 224.452 42.4781H201.945C194.278 42.4781 186.587 42.4781 178.896 42.4781C177.764 42.4781 177.362 42.2658 177.457 41.0155C177.905 35.7781 178.235 30.5407 178.566 25.3269C178.566 24.3124 178.943 23.9822 179.981 24.0058H226.787C227.285 23.9502 227.789 24.0094 228.261 24.1789C228.732 24.3484 229.158 24.6236 229.507 24.9835C229.856 25.3434 230.117 25.7785 230.271 26.2551C230.425 26.7318 230.468 27.2374 230.397 27.7333V27.8277Z" fill="white"/>
<path d="M476.933 79.0665C465.924 53.9963 454.914 28.9025 443.905 3.78514C443.727 3.1194 443.313 2.54125 442.74 2.15906C442.166 1.77687 441.473 1.61688 440.791 1.70905C428.877 1.70905 416.963 1.70905 405.049 1.70905C404.53 1.65242 404.006 1.75529 403.546 2.00394C403.087 2.25259 402.714 2.63523 402.477 3.10095C388.086 26.4883 373.672 49.8442 359.234 73.1686L351.873 85.1532C361.876 85.1532 371.596 85.1532 381.316 85.1532C382.259 85.1532 382.542 84.5399 382.943 83.9736C385.539 80.199 388.181 76.4479 390.729 72.6496C390.953 72.2685 391.28 71.958 391.672 71.7536C392.064 71.5492 392.506 71.4591 392.946 71.4936C409.398 71.4936 425.849 71.4936 442.3 71.4936C442.734 71.436 443.175 71.535 443.542 71.7728C443.91 72.0106 444.18 72.3717 444.306 72.7912C445.91 76.4715 447.679 80.081 449.307 83.7613C449.433 84.2121 449.717 84.6028 450.107 84.8624C450.496 85.1221 450.966 85.2337 451.43 85.1769C456.526 85.1769 461.599 85.1769 466.671 85.1769H479.528C478.655 83.0064 477.782 81.0483 476.933 79.0665ZM434.326 53.1156C423.073 53.1156 411.82 53.1156 400.189 53.1156L407.88 40.1873C411.088 34.7847 414.297 29.4294 417.317 24.0033C417.561 23.4665 417.969 23.0203 418.481 22.7281C418.993 22.4359 419.585 22.3125 420.171 22.3755C424.371 22.3755 424.347 22.3755 425.857 26.4332C429.018 34.7376 432.156 42.9475 435.294 51.3698C435.978 52.7617 436.049 53.2807 434.326 53.2807V53.1156Z" fill="white"/>
<path d="M361.568 162.514C353.122 144.914 344.692 127.315 336.277 109.715C336.147 109.356 335.899 109.05 335.574 108.849C335.248 108.648 334.864 108.562 334.484 108.607C330.686 108.607 326.864 108.607 323.066 108.607C322.587 108.556 322.105 108.654 321.683 108.886C321.261 109.118 320.921 109.473 320.707 109.904C310.185 125.994 299.655 142.06 289.117 158.102L280.152 171.715C283.526 171.715 286.593 171.715 289.589 171.715C289.997 171.757 290.408 171.677 290.77 171.483C291.132 171.29 291.427 170.992 291.618 170.629C293.977 166.784 296.478 163.009 298.884 159.187C299.077 158.824 299.372 158.526 299.732 158.329C300.093 158.132 300.504 158.045 300.913 158.079C316.641 158.079 332.424 158.079 348.262 158.079C348.699 158.024 349.141 158.131 349.506 158.378C349.87 158.626 350.133 158.997 350.244 159.423C351.73 163.174 353.334 166.855 354.962 170.559C355.221 171.172 355.363 171.738 356.283 171.715C359.421 171.715 362.559 171.715 365.979 171.715L361.568 162.514ZM345.053 151.261C331.7 151.261 318.324 151.261 304.947 151.261C304.607 151.24 304.269 151.2 303.933 151.143C307.708 145.363 311.341 139.842 314.974 134.322L325.732 117.807C325.998 117.378 326.377 117.029 326.826 116.798C327.276 116.567 327.78 116.463 328.285 116.497C328.789 116.531 329.275 116.702 329.689 116.991C330.104 117.28 330.432 117.676 330.639 118.138L345.785 149.845C346.186 150.742 346.469 151.261 344.983 151.261H345.053Z" fill="white"/>
</svg>
