<svg width="859" height="213" viewBox="0 0 859 213" fill="none" xmlns="http://www.w3.org/2000/svg">
<path d="M203.701 51.5164C204.546 53.8503 202.519 55.0436 201.526 56.5115C181.524 85.8907 161.46 115.235 141.331 144.543C129.926 161.187 118.464 177.788 106.947 194.346C106.279 195.125 105.532 195.833 104.718 196.458C104.384 196.185 104.116 195.84 103.933 195.449C103.75 195.057 103.658 194.63 103.662 194.199C105.077 186.743 108.351 179.9 110.717 172.75C123.6 133.983 137.329 95.4584 150.139 56.6594C150.436 55.6459 150.828 54.6629 151.311 53.7236C151.634 53.1845 152.053 52.7086 152.547 52.319C154.038 51.3684 155.8 50.9309 157.563 51.0729C172.087 51.0095 186.607 51.0095 201.125 51.0729C202.002 51.0826 202.871 51.2324 203.701 51.5164Z" fill="#761139"/>
<path d="M90.6826 184.888C76.2148 163.767 61.821 142.646 47.2581 121.525C39.1688 109.908 30.7944 98.387 23.2754 86.3164C23.3605 85.6332 23.1927 84.9424 22.8037 84.3743C22.4146 83.8063 21.8311 83.4002 21.1633 83.2328C13.771 73.2531 6.69548 63.0623 0.179688 52.4913C0.556234 52.1877 0.992545 51.9668 1.46018 51.843C1.92781 51.7193 2.41627 51.6955 2.89372 51.7732C15.5662 52.5019 28.2916 51.8999 40.9958 52.1006C44.1639 52.1006 47.2687 51.9527 50.3418 52.7553C52.9924 53.4734 53.5099 55.8495 54.2175 57.9722C65.7072 91.7656 77.3237 125.401 88.8029 159.152C92.8159 170.948 96.9027 182.723 100.757 194.582C101.032 195.987 101.602 197.433 100.166 198.574C97.6884 195.984 95.6195 193.032 94.0303 189.819C93.9558 188.775 93.6069 187.77 93.0191 186.904C92.4313 186.038 91.6253 185.342 90.6826 184.888Z" fill="#ED4A88"/>
<path d="M203.705 51.5171C201.814 52.7738 199.681 52.4781 197.59 52.4781H158.231C156.119 52.4781 154.007 52.2458 152.201 53.6715C152.007 53.449 151.866 53.1845 151.791 52.8987C151.716 52.6128 151.708 52.3134 151.768 52.024C152.014 51.4657 152.458 51.018 153.015 50.7673C153.919 50.4931 154.89 50.5303 155.771 50.873C170.555 51.0736 185.34 50.873 200.125 50.9574C185.34 50.8096 170.661 51.0842 155.929 50.8096C153.521 49.1094 154.609 47.0501 155.581 45.2337C161.452 34.2508 167.672 23.4581 173.534 12.4963C174.347 10.9756 175.287 9.41267 177.166 8.89521C180.271 8.77905 180.007 12.5386 182.309 13.3623C184.083 14.2388 184.516 15.9918 185.087 17.6498C184.941 18.659 185.092 19.6887 185.519 20.6144C185.946 21.5402 186.632 22.3224 187.494 22.8667C193.936 31.7797 198.583 41.7487 203.705 51.5171Z" fill="#B21E4F"/>
<path d="M177.465 9.13853C169.365 22.1384 162.121 35.603 155.288 49.2682C154.729 49.8701 155.098 50.9579 154.232 51.3803L152.374 51.3169L151.719 51.0212C150.483 49.8279 149.955 48.2122 148.899 46.7654C141.876 34.6631 135.498 22.149 128.454 9.99392C127.757 8.80059 127.06 7.51222 127.704 6.0232H129.901C139.817 7.21653 149.765 6.39281 159.692 6.48786C165.236 6.54066 170.833 7.17429 176.367 6.01264C177.528 5.69582 178.658 5.47406 179.26 6.9314C178.87 7.83959 178.521 8.74779 177.465 9.13853Z" fill="#EC1B61"/>
<path d="M24.7109 6.99327C25.334 5.57817 26.39 5.67321 27.4989 6.05339C33.5183 7.20448 39.6012 6.45469 45.6523 6.54973C54.956 6.65534 64.1331 6.65534 73.3523 6.54973C77.5131 7.26784 75.4644 9.81291 74.5668 11.5343C70.2898 19.5179 66.1923 27.6072 61.588 35.4009C58.9268 39.8996 56.9731 44.7891 54.0056 49.1294C53.5068 50.0691 52.8454 50.913 52.0519 51.6217C51.6822 51.7551 51.2865 51.8007 50.8961 51.7549C50.5057 51.7091 50.1313 51.5731 49.8025 51.3577C49.3629 51.06 48.9651 50.7049 48.6198 50.3016C40.4037 36.0345 32.3778 21.6089 24.7109 6.99327Z" fill="#EC1B61"/>
<path d="M52.8496 49.3288C59.552 36.8393 66.2614 24.3499 72.9778 11.8604C73.8121 10.3186 74.8998 8.92458 75.0899 7.10818C75.1638 6.48512 75.808 6.4112 76.1459 6.05214C76.2766 5.94396 76.441 5.88477 76.6106 5.88477C76.7802 5.88477 76.9446 5.94396 77.0753 6.05214C77.8657 6.7079 78.5748 7.45598 79.1873 8.28039C86.1044 20.0025 92.2928 32.1364 98.9459 44.0064C100.002 45.9178 100.562 47.8926 99.1043 49.9202C97.4252 51.9267 95.0808 51.8633 92.7681 51.8739C81.5529 51.8739 70.3377 51.9372 59.1225 51.8739C56.852 51.8316 54.1908 52.1801 52.8496 49.3288Z" fill="#B21E4F"/>
<path d="M127.774 6.05233L150.141 47.238C150.584 49.9204 149.824 51.7473 146.772 51.7896C133.973 51.9691 121.184 52.0747 108.385 51.7157C107.68 51.6998 106.989 51.5232 106.363 51.1993C105.737 50.8753 105.193 50.4126 104.773 49.8465C103.041 47.312 104.594 45.2316 105.724 43.0878C111.933 31.3974 118.269 19.7598 124.796 8.23834C125.389 7.38393 126.155 6.66422 127.045 6.12625C127.136 6.02644 127.261 5.96371 127.395 5.95007C127.53 5.93643 127.665 5.97284 127.774 6.05233Z" fill="#761139"/>
<path d="M24.7188 6.99609C29.7772 11.1358 31.4669 17.4509 34.6561 22.7523C40.0631 31.7286 44.7202 41.1697 49.6837 50.4206C49.1882 50.9204 48.589 51.3052 47.9284 51.5479C47.2678 51.7906 46.562 51.8853 45.8608 51.8252C32.9278 51.9519 19.9912 51.9519 7.05116 51.8252C4.78067 51.8252 2.30952 51.6245 2.19336 48.3613C6.71323 39.2582 11.4654 30.2819 16.7984 21.6223C17.9601 21.4533 17.9179 20.5663 17.8545 19.7425L24.7188 6.99609Z" fill="#B21E4F"/>
<path d="M100.183 198.563C100.553 197.254 99.8032 196.187 99.4125 195.036C97.839 151.115 99.1062 107.173 98.7155 63.2418C98.7155 60.2638 98.4409 57.2541 99.1696 54.3077C99.3786 53.6265 99.7397 53.0018 100.226 52.4807C100.537 52.3286 100.893 52.295 101.227 52.3864C101.562 52.4777 101.851 52.6877 102.042 52.9771C103.267 55.0892 102.95 57.423 102.95 59.683V193.156C102.95 195.268 102.623 197.381 102.602 199.493C101.176 200.939 100.648 199.82 100.183 198.563Z" fill="#F51C65"/>
<path d="M104.593 193.974L104.793 196.466C105.068 197.438 104.793 198.124 103.737 198.367C100.569 197.776 102.111 195.273 102.1 193.742C101.984 170.382 102.005 147.012 102.026 123.652C102.048 100.292 101.952 76.9221 102.026 53.5624C102.092 53.214 102.281 52.9008 102.558 52.6798C102.835 52.4588 103.182 52.3448 103.537 52.3585C104.067 52.8218 104.467 53.415 104.698 54.0799C105.501 56.6461 105.268 59.2967 105.268 61.9157C105.268 102.095 105.286 142.27 105.321 182.442C105.332 186.328 104.455 190.109 104.593 193.974Z" fill="#A81E4C"/>
<path d="M102.549 52.4956V192.949C102.549 194.787 101.852 196.867 103.721 198.335L102.665 199.391C100.69 197.512 101.535 195.072 101.535 192.886C101.465 146.132 101.429 99.3488 101.429 52.5379L101.979 52.2422L102.549 52.4956Z" fill="#CC1C57"/>
<path d="M127.047 6.08283L125.833 8.26884C114.1 9.32488 102.484 8.55397 90.7299 8.70181C86.5903 8.74406 82.3661 9.32488 78.1947 8.18435L77.1387 6.07227L127.047 6.08283Z" fill="#EB145C"/>
<path d="M2.15847 48.332C3.5102 50.9827 6.00247 50.3808 8.19904 50.3808C22.0262 50.3808 35.8568 50.3808 49.691 50.3808C49.77 50.5216 49.8198 50.6769 49.8376 50.8374C49.8553 50.9979 49.8406 51.1603 49.7943 51.315C49.748 51.4697 49.6711 51.6135 49.568 51.7378C49.465 51.8621 49.338 51.9645 49.1947 52.0387H49.0785C34.2094 52.9575 19.3297 52.3133 4.46064 52.3556C3.09835 52.3556 1.12355 52.5668 1.03906 50.2435L2.15847 48.332Z" fill="#AE1B4B"/>
<path d="M1.05056 50.2402C2.51846 52.12 4.59886 51.4336 6.39414 51.4336H49.6919C49.7845 51.5731 49.8402 51.7339 49.854 51.9008C49.8677 52.0677 49.839 52.2354 49.7705 52.3883C49.702 52.5411 49.5959 52.6741 49.4621 52.7749C49.3284 52.8757 49.1713 52.9411 49.0055 52.9648C33.4183 52.8381 17.8311 53.5351 2.24389 52.6058L0.1318 52.4896C-0.0408917 52.0691 -0.0413443 51.5976 0.13054 51.1768C0.302424 50.756 0.632864 50.4196 1.05056 50.2402Z" fill="#BF285C"/>
<path d="M76.1515 6.04102L75.0955 7.09706H32.991C31.1429 7.09706 29.0836 7.79405 27.5312 6.04102H76.1515Z" fill="#EB145C"/>
<path d="M176.41 6.05273C175.544 7.1827 174.298 7.10878 173.073 7.10878H133.323C132.098 7.10878 130.852 7.19326 129.986 6.05273H176.41Z" fill="#EB145C"/>
<path d="M177.458 9.13943C177.431 8.60953 177.615 8.09071 177.969 7.69538C178.323 7.30005 178.818 7.06004 179.348 7.02734C180.723 8.93222 181.719 11.0832 182.284 13.3636C179.728 12.9729 179.263 10.28 177.458 9.13943Z" fill="#B01A4C"/>
<path d="M90.6836 184.889C93.6933 185.237 94.9078 186.842 94.0207 189.81C92.7429 188.268 91.1271 186.99 90.6836 184.889Z" fill="#EE4887"/>
<path d="M187.466 22.8106C185.164 21.7546 183.327 20.4979 185.059 17.5938C186.289 19.1015 187.117 20.8962 187.466 22.8106Z" fill="#B21C4E"/>
<path d="M21.168 83.2422C23.2061 83.3584 25.1387 83.5379 23.2801 86.3258L21.168 83.2422Z" fill="#ED4787"/>
<path d="M17.8744 19.7012C18.6664 20.1341 19.1311 20.7572 18.5925 21.6021C18.0539 22.4469 17.3992 22.5631 16.8184 21.6021L17.8744 19.7012Z" fill="#B11A4C"/>
<path d="M104.597 193.976C102.865 192.202 103.657 189.963 103.646 187.956C103.576 143.124 103.541 98.3298 103.541 53.5747C104.92 52.465 106.679 51.9417 108.441 52.1173C121.198 52.1173 133.965 52.054 146.722 52.1173C148.887 52.1173 150.947 52.4341 152.108 54.6201L120.892 146.76C115.516 162.527 110.004 178.241 104.597 193.976Z" fill="#B21E4F"/>
<path d="M152.114 54.6229C150.224 53.4507 148.122 53.5668 146.021 53.5668H103.547C103.547 53.2289 103.547 52.8769 103.547 52.5108C104.74 51.0957 106.398 51.4548 107.929 51.4548H147.679C149.242 51.4548 150.847 51.2963 152.114 52.5108V53.6302C152.135 53.9608 152.135 54.2923 152.114 54.6229Z" fill="#B71F51"/>
<path d="M100.368 53.5708V189.03C100.368 191.047 101.15 193.254 99.4073 195.049L51.7374 54.7853C51.5 54.3223 51.1978 53.8956 50.8398 53.518C50.7371 53.4044 50.6649 53.2666 50.6297 53.1176C50.5946 52.9685 50.5977 52.813 50.6388 52.6654C50.6799 52.5179 50.7576 52.3832 50.8648 52.2737C50.9719 52.1643 51.105 52.0838 51.2517 52.0396C52.1812 51.7882 53.1548 51.7449 54.103 51.9129C67.2085 52.293 80.314 51.9128 93.4089 52.0924C95.8273 52.1241 98.3618 51.7228 100.368 53.5708Z" fill="#EC1B61"/>
<path d="M50.7385 52.5177V53.5738H5.5821C4.36765 53.5738 3.08984 53.7216 2.18164 52.6128L49.7036 52.391C49.7764 52.314 49.867 52.2562 49.9675 52.2227C50.068 52.1891 50.1752 52.1808 50.2796 52.1986C50.384 52.2163 50.4825 52.2596 50.5662 52.3244C50.6499 52.3893 50.7164 52.4738 50.7597 52.5705L50.7385 52.5177Z" fill="#F24E8D"/>
<path d="M701.876 127.624L701.242 126.801V127.857C701.414 127.765 701.594 127.691 701.781 127.635L701.876 127.624Z" fill="white"/>
<path d="M337.48 118.787C320.372 126.898 310.488 145.336 312.072 166.478C313.719 188.444 323.298 205.763 345.865 210.325C353.715 211.87 361.774 212.031 369.679 210.8C387.632 207.632 399.132 196.016 403.472 178.369C408.172 159.234 405.912 141.07 391.222 126.496C377.99 113.433 355.021 110.466 337.48 118.787ZM369.257 204.612C337.649 211.708 315.177 188.866 319.971 154.481C324.058 125.018 355.665 110.244 380.662 126.296C394.021 134.871 397.717 148.325 398.087 160.005C398.023 184.896 387.093 200.609 369.257 204.612Z" fill="white"/>
<path d="M770.965 119.631C770.965 117.297 771.356 115.153 767.67 115.206C763.742 115.206 764.671 117.793 764.671 119.884V198.834C762.876 196.616 761.894 195.455 760.964 194.24C741.723 169.142 722.489 144.022 703.262 118.881C701.572 116.674 699.724 114.488 696.789 115.449C693.853 116.41 695.342 119.42 695.331 121.426C695.215 151.133 695.236 180.85 695.226 210.556L701.308 210.831V126.791L701.942 127.615L766.741 211.982H768.853C770.754 210.672 770.965 208.814 770.902 206.638C770.909 177.632 770.93 148.63 770.965 119.631Z" fill="white"/>
<path d="M663.512 115.155C659.003 115.092 659.911 117.838 659.911 120.33C659.911 138.8 660.101 157.292 659.816 175.741C659.573 191.951 649.424 203.684 634.724 205.563C618.725 207.612 605.926 199.776 601.469 185.192C600.286 180.953 599.748 176.56 599.875 172.161C599.875 154.384 599.896 136.614 599.938 118.852C599.938 116.106 599.167 115.113 596.369 115.219C593.908 115.314 592.535 115.599 592.567 118.651C592.725 137.998 592.292 157.365 592.873 176.733C593.327 191.835 600.508 203.134 614.776 209.354C617.152 210.411 619.918 210.305 622.041 212.005H636.826C640.385 210.717 644.134 209.777 647.481 208.066C661.822 200.674 666.976 188.117 666.986 172.773V120.52C667.007 118.07 668.064 115.219 663.512 115.155Z" fill="white"/>
<path d="M468.931 97.7694C474.916 97.1706 480.637 95.0071 485.521 91.4965C494.202 85.2447 497.613 76.5746 496.314 66.1514C495.121 56.5414 488.478 51.7153 479.85 49.0013C479.185 48.7901 478.562 48.4838 477.031 47.8607C478.868 46.9631 480.135 46.3823 481.36 45.7486C491.055 40.6585 494.931 33.0339 493.41 22.2834C491.815 10.9837 483.409 3.68642 469.3 1.77499C454.6 -0.220937 439.805 1.2364 425.052 0.718942C422.412 0.634458 422.412 2.04956 422.412 3.99268V95.2454C422.412 97.3575 422.739 98.5403 425.242 98.4769C439.763 98.1918 454.379 99.3006 468.931 97.7694ZM477.379 74.4097C475.267 81.0627 469.828 83.5022 463.587 83.9669C457.124 84.4527 450.598 84.0408 444.103 84.2414C441.336 84.3259 440.935 82.9953 441.009 80.7248C441.125 77.0392 441.009 73.3325 441.009 69.6575C441.009 65.9824 441.094 62.6242 441.009 59.097C440.935 56.816 441.347 55.5171 444.103 55.6121C450.767 55.8339 457.483 55.3586 464.168 55.9289C475.267 56.911 480.547 64.5568 477.379 74.4097ZM441.875 15.8943C444.8 12.9796 450.535 15.1128 455.033 14.9439C457.661 14.8942 460.289 15.0603 462.89 15.4402C470.99 16.4962 474.739 20.3614 475.214 27.9332C475.69 35.505 472.205 40.0988 464.654 42.0525C457.578 43.89 450.344 42.7389 443.185 43.0135C441.136 43.098 441.072 41.6723 441.072 40.1833V27.7537C441.474 24.2582 439.161 18.5872 441.875 15.8943Z" fill="white"/>
<path d="M283.189 56.5236C292.693 52.9541 300.191 47.1459 303.011 36.9551C307.974 19.0023 297.868 4.79855 278.173 1.83106C265.405 -0.0803751 252.522 1.35584 239.765 0.743339C235.741 0.563812 234.801 1.79938 234.833 5.69618C235.012 32.0973 234.928 58.4984 234.928 84.8467C234.928 98.5752 234.928 98.364 248.456 98.6386C253.039 98.7336 253.937 97.1918 253.799 92.9993C253.493 83.3365 253.683 73.6526 253.725 63.9792C253.725 62.543 253.134 60.8111 255.5 60.2514C258.12 59.5353 260.9 59.6596 263.446 60.6069C265.992 61.5542 268.177 63.2767 269.693 65.5316C275.909 74.684 282.101 83.861 288.269 93.0627C290.096 95.7873 292.102 98.269 295.661 98.3429C301.216 98.4696 306.781 98.3429 313.466 98.3429C302.779 84.2553 294.278 69.7664 283.189 56.5236ZM275.67 45.4668C269.218 48.0963 262.48 46.9875 255.838 47.2093C253.366 47.2937 253.725 45.4879 253.725 43.925C253.725 39.5248 253.725 35.1246 253.725 30.7244C253.725 26.6798 253.852 22.6246 253.725 18.5799C253.609 15.9504 254.285 14.7465 257.189 14.8415C262.469 15.0211 267.75 14.6726 273.03 15.5808C280.792 16.9325 285.248 21.5263 285.988 28.7496C286.362 32.2853 285.552 35.8452 283.685 38.8708C281.817 41.8964 278.998 44.2164 275.67 45.4668Z" fill="white"/>
<path d="M320.379 60.5844C320.865 84.1659 337.539 99.5208 361.924 99.468C386.308 99.4152 402.771 84.1025 403.405 60.4894C403.627 51.7031 403.405 42.8957 403.405 34.0883V15.0795C403.405 10.5385 404.926 4.51907 402.634 1.83672C399.952 -1.26805 393.71 1.3087 389.064 0.780675C385.135 0.284334 384.512 2.02681 384.544 5.53287C384.706 23.8376 384.706 42.1424 384.544 60.4472C384.449 72.6656 377.849 81.1773 367.341 83.2049C351.205 86.3308 339.314 76.9637 339.06 60.4894C338.775 42.0192 338.912 23.5279 339.06 5.06821C339.06 2.03737 338.596 0.506104 335.089 0.844038C331.402 1.12388 327.699 1.12388 324.012 0.844038C320.96 0.643389 320.157 1.74167 320.178 4.71972C320.358 23.285 320.03 41.9453 320.379 60.5844Z" fill="white"/>
<path d="M538.627 88.4659C537.571 98.4244 538.448 98.5089 548.649 98.5089C557.097 98.5089 557.805 98.4244 556.897 90.3668C554.542 69.6367 559.843 51.61 572.442 34.9351C580.299 24.533 586.276 12.7581 593.563 0.824853C589.782 0.824853 586.804 1.18391 583.942 0.75093C576.001 -0.442399 571.365 2.73629 567.827 9.98075C561.681 22.5477 553.95 34.2698 547.762 47.2063C540.855 32.7174 532.587 19.4429 525.089 5.75658C523.843 3.3488 522.269 1.05718 519.333 0.951578C513.831 0.75093 508.308 0.888216 501.982 0.888216C509.787 13.6663 516.239 26.2333 524.582 37.3957C536.145 52.8456 540.612 69.4255 538.627 88.4659Z" fill="white"/>
<path d="M437.244 210.858C437.371 208.936 437.593 207.024 437.593 205.102C437.593 194.042 437.593 182.982 437.593 171.921C437.593 170.506 436.78 168.753 438.828 167.792C443.359 165.68 455.461 168.489 458.629 172.386C467.782 183.693 476.934 195.006 486.086 206.327C487.522 208.091 488.832 209.992 491.007 210.974C493.12 210.161 495.58 211.924 497.428 209.854L462.357 167.148C465.525 166.261 468.271 165.659 470.89 164.751C483.626 160.326 490.057 150.779 489.128 137.853C488.304 126.321 481.44 119.235 468.007 116.585C457.225 114.472 446.263 115.729 435.386 115.243C431.383 115.064 430.401 116.299 430.422 120.238C430.591 148.202 430.507 176.209 430.538 204.131C430.538 206.401 430.813 208.661 430.961 210.931L437.244 210.858ZM437.614 141.465V124.568C437.614 122.847 437.202 120.861 440.011 120.957C448.787 121.263 457.615 120.122 466.317 122.013C476.265 124.125 481.387 129.69 482.253 139.047C483.087 148.086 478.324 155.943 469.77 159.661C460.002 163.938 449.706 162.089 439.546 162.406C437.096 162.48 437.624 160.379 437.614 158.89C437.614 153.081 437.614 147.273 437.614 141.465Z" fill="white"/>
<path d="M803.41 210.826L858.524 210.699C859.485 206.169 857.901 204.754 853.096 204.88C839.03 205.239 824.942 204.933 810.855 205.07C807.94 205.07 806.894 204.395 806.958 201.29C807.148 190.729 807.19 180.169 806.958 169.608C806.873 165.965 808.141 165.258 811.467 165.31C822.904 165.5 834.341 165.405 845.778 165.31C847.679 165.31 850.002 166.24 850.15 162.586C850.256 158.615 847.668 159.534 845.567 159.523C834.13 159.523 822.693 159.428 811.256 159.523C808.31 159.523 806.852 159.185 806.947 155.605C807.211 145.404 807.19 135.192 806.947 124.98C806.873 121.59 808.003 120.914 811.171 120.946C825.417 121.104 839.685 121.062 853.931 120.946C855.81 120.946 858.672 122.382 858.725 118.211C858.725 114.251 856.201 115.191 854.121 115.18C838.287 115.138 822.446 115.138 806.599 115.18C798.89 115.18 799.903 114.272 799.872 121.907C799.766 151.11 799.685 180.327 799.629 209.559C800.527 211.058 802.026 210.826 803.41 210.826Z" fill="white"/>
<path d="M293.572 115.28C276.676 115.28 259.779 115.365 242.882 115.217C239.651 115.217 238.721 116.125 238.743 119.367C238.89 149.802 238.869 180.248 238.901 210.683L246.019 210.63C246.019 197.43 246.167 184.229 246.019 171.039C246.019 167.755 246.937 166.878 250.169 166.921C262.303 167.1 274.458 166.995 286.592 166.995C288.641 166.995 290.816 167.565 290.816 164.059C290.816 160.553 288.482 161.26 286.592 161.25C274.447 161.25 262.303 161.102 250.169 161.313C246.821 161.376 246.061 160.342 246.114 157.173C246.304 146.613 246.378 136.053 246.114 125.492C246.008 121.553 247.423 120.983 250.908 121.025C265.154 121.215 279.421 121.12 293.667 121.088C295.642 121.088 297.955 121.838 297.892 118.237C297.701 114.837 295.621 115.28 293.572 115.28Z" fill="white"/>
<path d="M572.94 115.248C550.094 115.297 527.245 115.297 504.392 115.248C501.963 115.248 500.484 115.47 500.516 118.575C500.548 121.679 502.512 121.257 504.371 121.257C512.629 121.257 520.898 121.51 529.145 121.162C533.739 120.972 535.482 121.922 535.323 127.055C534.89 139.727 535.144 152.4 535.197 165.009C535.26 180.29 535.408 195.571 535.513 210.852H541.85C542.821 209.025 542.335 207.05 542.335 205.149C542.335 178.748 542.441 152.421 542.262 126.062C542.262 122.102 543.318 120.961 547.246 121.109C555.842 121.426 564.47 121.204 573.077 121.215C575.009 121.215 576.826 121.595 576.858 118.458C576.889 115.322 575.326 115.248 572.94 115.248Z" fill="white"/>
<path d="M152.12 52.5455H103.542L102.486 52.4715C102.289 52.2272 102.164 51.9328 102.125 51.6213C102.085 51.3097 102.134 50.9935 102.264 50.7079C103.004 49.7786 103.912 49.9265 104.862 50.2961C108.97 51.5211 113.163 50.7079 117.313 50.8558C128.929 51.2676 140.546 50.1905 152.162 51.3838L152.31 51.2888L152.12 52.5455Z" fill="#82133E"/>
<path d="M154.234 51.4187L155.29 49.3066C157.001 51.1653 159.251 50.3627 161.257 50.3627C174.373 50.4366 187.479 50.3627 200.595 51.4187H154.234Z" fill="#B71F51"/>
<path d="M152.168 51.4449H108.765C106.938 51.4449 104.868 52.1313 103.484 50.2304C103.009 49.0899 103.02 48.2239 104.614 48.2979C106.05 50.0403 107.877 50.4839 110.127 50.4733C121.965 50.3677 133.814 50.2621 145.652 50.5367C148.535 50.6 149.222 49.1005 150.13 47.2207C151.318 48.3207 152.047 49.8299 152.168 51.4449Z" fill="#711037"/>
<path d="M102.432 51.3542L102.495 52.5264H100.383C92.0508 53.5824 83.6764 52.9382 75.3337 52.9382C67.8569 52.9382 60.359 53.6036 52.8927 52.537H50.7807C50.4259 52.5214 50.0729 52.479 49.7246 52.4102V50.4037L51.7733 51.4598C55.7229 50.4037 59.7465 51.0374 63.7383 50.9951C73.7496 50.879 83.8031 50.9951 93.7722 50.9951C95.652 50.9951 97.6796 51.4915 99.3059 49.9391C101.376 48.2283 101.904 49.7279 102.432 51.3542Z" fill="#BF1D53"/>
<path d="M100.373 49.4085C99.6756 52.5767 97.0672 51.3939 95.2402 51.4045C80.7513 51.4995 66.2518 51.4045 51.7629 51.4045C51.7417 50.9912 51.8278 50.5795 52.0128 50.2094C52.1979 49.8392 52.4756 49.5233 52.819 49.2924C54.2191 50.0223 55.7814 50.3857 57.36 50.3484C69.6629 50.3484 81.9552 50.2745 94.2581 50.3484C95.2038 50.4238 96.1538 50.2713 97.0284 49.9038C97.903 49.5363 98.6768 48.9645 99.2849 48.2363C99.5765 48.269 99.8468 48.4053 100.046 48.6205C100.246 48.8356 100.362 49.1152 100.373 49.4085Z" fill="#AD1D4D"/>
<path d="M100.374 49.407L99.3181 48.2876C95.094 38.5192 89.3491 29.5745 84.449 20.1757L78.1973 8.17909C79.2533 6.84847 80.679 7.12304 82.0624 7.12304H122.002C123.385 7.12304 124.853 6.91183 125.825 8.27413C119.151 20.665 112.462 33.056 105.76 45.4469C105.274 46.3551 104.947 47.3372 104.535 48.2876L103.405 50.2308L102.349 51.3713L100.374 49.407Z" fill="#EC1B61"/>
<path d="M52.9121 52.5566H100.371V53.6127H58.3507C56.5449 53.5282 54.4856 54.2358 52.9121 52.5566Z" fill="#F11A62"/>
</svg>
