<svg width="877" height="311" viewBox="0 0 877 311" fill="none" xmlns="http://www.w3.org/2000/svg">
<path opacity="0.95" d="M577.503 220C552.926 220 533 240.371 533 265.5C533 290.632 552.926 311 577.503 311C602.074 311 622 290.632 622 265.5C622 240.371 602.074 220 577.503 220Z" fill="#3AAA35"/>
<path d="M669.999 220C645.147 220 625 240.37 625 265.499C625 290.631 645.147 311 669.999 311C694.85 311 715 290.631 715 265.499C715 240.37 694.85 220 669.999 220Z" fill="#3AAA35"/>
<path opacity="0.55" d="M205.997 220C181.148 220 161 240.371 161 265.5C161 290.632 181.148 311 205.997 311C230.852 311 251 290.632 251 265.5C251 240.371 230.852 220 205.997 220Z" fill="#3AAA35"/>
<path opacity="0.65" d="M298.998 220C274.145 220 254 240.368 254 265.496C254 290.629 274.145 311 298.998 311C323.85 311 344 290.629 344 265.496C344 240.368 323.85 220 298.998 220Z" fill="#3AAA35"/>
<path opacity="0.85" d="M485.002 220C460.15 220 440 240.371 440 265.497C440 290.629 460.15 311 485.002 311C509.853 311 530 290.629 530 265.497C530 240.371 509.853 220 485.002 220Z" fill="#3AAA35"/>
<path opacity="0.75" d="M392.003 220C367.147 220 347 240.369 347 265.499C347 290.634 367.147 311 392.003 311C416.851 311 437 290.634 437 265.499C437 240.369 416.851 220 392.003 220Z" fill="#3AAA35"/>
<path d="M713.547 134.549L635.679 134.475L635.689 104.312L677.338 104.359H677.343C678.258 104.359 679.138 103.996 679.786 103.347C680.434 102.701 680.8 101.821 680.8 100.902L680.819 68.3933C680.82 66.4851 679.274 64.9365 677.367 64.9332L635.741 64.8825L635.755 39.4763L708.95 39.5303H708.954C710.861 39.5303 712.407 37.9852 712.411 36.077L712.454 3.57493C712.456 2.65629 712.093 1.77647 711.445 1.12803C710.797 0.47789 709.918 0.113131 709.001 0.111449L592.599 0H592.595C591.679 0 590.801 0.363078 590.153 1.01152C589.505 1.65827 589.138 2.53809 589.138 3.45504L589 170.428C588.998 172.338 590.544 173.889 592.453 173.89L713.518 174H713.521C714.438 174 715.315 173.637 715.964 172.988C716.612 172.34 716.978 171.462 716.978 170.543L717 138.009C717.002 136.101 715.456 134.551 713.547 134.549Z" fill="white"/>
<path d="M308.524 0.018592L269.103 0C268.181 0 267.294 0.364721 266.642 1.01141C265.99 1.6598 265.623 2.5395 265.623 3.45636L265.601 90.5661L227.303 2.10896C226.754 0.840901 225.498 0.018592 224.109 0.018592H173.486C171.566 0.018592 170.009 1.56696 170.009 3.47663L170 170.523C170 172.433 171.556 173.981 173.476 173.981L213.446 173.995C214.368 173.995 215.254 173.63 215.906 172.982C216.558 172.333 216.925 171.454 216.925 170.537L216.935 71.7866L261.047 171.901C261.6 173.157 262.85 173.97 264.231 173.971L308.519 174C309.441 174 310.327 173.635 310.979 172.989C311.632 172.34 311.998 171.459 311.998 170.542L312 3.47665C312 1.56693 310.444 0.0202738 308.524 0.018592Z" fill="white"/>
<path d="M136.335 0.0140983L92.056 0C91.6164 0 91.1862 0.177901 90.8758 0.487047C90.561 0.801478 90.3877 1.21806 90.3877 1.6602V109.079C90.3877 120.858 80.7935 130.442 69.0007 130.442C57.2072 130.442 47.6123 120.858 47.6123 109.079V20.9528L47.61 14.667L47.6122 1.6734C47.6122 0.758306 46.8652 0.0140752 45.9471 0.0140752L1.66849 0C1.22254 0 0.803058 0.172617 0.488271 0.487047C0.173483 0.801478 0 1.21808 0 1.6602V109.079C0 147.082 30.9535 178 69.0007 178C107.047 178 138 147.082 138 109.079V14.6643L137.998 14.667L138 1.6734C138 0.758329 137.253 0.0140983 136.335 0.0140983Z" fill="white"/>
<path d="M391 3.53658C391.002 1.62551 389.446 0.0760583 387.526 0.0743522L347.505 0C347.503 0 347.503 0 347.501 0C345.583 0 344.025 1.54777 344.024 3.45716L344 170.475C344 171.394 344.365 172.275 345.017 172.924C345.669 173.574 346.552 173.939 347.476 173.939L387.504 174C388.426 174 389.31 173.637 389.962 172.988C390.616 172.339 390.983 171.459 390.983 170.541L391 3.53658Z" fill="white"/>
<path d="M544.64 79.8529C553.666 71.4285 559.34 59.4701 559.34 46.1615C559.34 20.6671 538.639 0 513.102 0C512.76 0 512.432 0.0435508 512.094 0.0508592L490.42 0V0.0427669L426.55 0.0184901H426.546C424.633 0.0184901 423.082 1.56642 423.08 3.47733L423 170.522C423 171.44 423.363 172.32 424.013 172.971C424.663 173.62 425.546 173.985 426.466 173.985L490.42 173.998L501.846 174C501.863 174 501.879 174 501.896 174H512.263C541.388 174 565 150.429 565 121.352C565 104.473 557.013 89.4876 544.64 79.8529ZM468.803 34.8312H503.718C510.587 34.8312 516.157 40.391 516.157 47.2493C516.157 54.108 510.587 59.6678 503.718 59.6678H468.803V34.8312ZM503.213 132.512C503.188 132.512 503.165 132.509 503.14 132.509H468.803V96.1987H503.213C513.258 96.1987 521.4 104.328 521.4 114.355C521.4 124.383 513.258 132.512 503.213 132.512Z" fill="white"/>
<path d="M875.989 1.26013C875.338 0.611475 874.457 0.244926 873.535 0.243244L742.531 0H742.526C740.613 0 739.059 1.54559 739.056 3.45266L739 35.6669C738.997 37.579 740.547 39.1297 742.463 39.1331L783.584 39.2175L783.367 170.481C783.366 171.399 783.73 172.279 784.38 172.929C785.029 173.579 785.912 173.944 786.832 173.946L828.268 174H828.274C830.188 174 831.74 172.454 831.743 170.546L831.95 39.2851L873.468 39.3662H873.473C875.385 39.3662 876.939 37.8206 876.942 35.9135L877 3.70946C877.002 2.79051 876.637 1.91044 875.989 1.26013Z" fill="white"/>
</svg>
