<svg width="756" height="363" viewBox="0 0 756 363" fill="none" xmlns="http://www.w3.org/2000/svg">
<path d="M307.801 108.323C297.597 99.8534 285.987 93.2391 273.498 88.7808C270.058 87.5335 270.039 87.5524 270.89 83.9614C272.469 77.4406 274.587 71.0622 277.221 64.8916C277.958 63.1151 278.733 63.0017 280.396 63.5498C299.166 69.9849 316.336 80.3744 330.745 94.0161C331 94.3817 331.332 94.6865 331.719 94.9086C332.105 95.1307 332.536 95.2646 332.98 95.3007C333.425 95.3368 333.872 95.2743 334.289 95.1175C334.706 94.9608 335.084 94.7137 335.394 94.3941C342.884 89.3019 349.848 83.4773 356.184 77.0063C356.732 76.4582 357.507 76.0424 357.601 74.9841C345.282 72.7383 333.41 68.5063 322.448 62.4536C312.227 56.7185 302.92 49.4882 294.835 41.0024C293.494 39.6227 293.361 38.81 294.703 37.2225C299.28 32.0597 304.26 27.2693 309.596 22.8965C311.24 21.5357 312.166 21.2522 313.886 23.0666C323.358 33.1406 335.09 40.8172 348.114 45.4627C348.179 44.5763 347.968 43.6913 347.509 42.9302C343.161 31.7741 340.074 20.1669 338.305 8.32482C338.234 8.07905 338.214 7.82146 338.245 7.56763C338.277 7.31381 338.36 7.06904 338.489 6.84817C338.618 6.62729 338.79 6.43489 338.996 6.28263C339.201 6.13037 339.436 6.02141 339.684 5.96236C346.928 3.36889 354.402 1.47037 362.005 0.292449C364.273 -0.0666458 363.706 1.74773 363.895 2.73051C365 11.5191 367.008 20.1704 369.886 28.5475C371.754 34.0548 374.008 39.4231 376.633 44.6123C377.011 45.3682 377.181 46.3132 378.24 46.8802C385.492 33.2948 390.176 18.4879 392.056 3.203C392.301 0.802742 392.849 -0.0477345 395.609 0.481457C402.379 1.76352 409.053 3.50634 415.586 5.69776C417.476 6.34035 417.91 7.20975 417.608 9.19422C415.792 21.1385 412.621 32.8372 408.158 44.0642C408.007 44.4611 407.912 44.8769 407.704 45.5005C410.266 44.8259 412.744 43.8687 415.094 42.6467C425.408 37.9735 434.691 31.2989 442.404 23.0099C443.746 21.5924 444.54 21.4412 446.09 22.7075C451.579 27.1763 456.704 32.0741 461.417 37.3548C462.74 38.8478 462.646 39.6227 461.323 41.0024C445.39 57.8387 424.723 69.4441 402.053 74.2848L398.387 75.0408C398.387 76.0425 399.162 76.4394 399.691 76.9308C406.139 83.545 413.244 89.485 420.896 94.6587C421.17 94.9293 421.499 95.137 421.861 95.2673C422.223 95.3977 422.609 95.4475 422.993 95.4133C423.376 95.3791 423.747 95.2618 424.08 95.0694C424.414 94.877 424.701 94.6143 424.922 94.2996C439.315 80.6144 456.478 70.1797 475.252 63.701C477.142 62.9828 478.125 63.2096 479.032 65.2885C481.674 71.7438 483.822 78.3904 485.458 85.171C485.874 86.872 485.741 87.7603 483.738 88.4217C471.923 92.4222 460.868 98.3903 451.041 106.074L448.263 108.342C454.947 110.844 461.841 112.742 468.864 114.012C474.484 115.051 480.166 115.726 485.874 116.034C487.423 116.034 487.858 116.62 487.764 118.094C487.092 125.676 485.694 133.176 483.587 140.49C483.171 141.965 482.358 141.946 481.224 141.851C455.296 139.959 430.261 131.575 408.423 117.471C397.835 110.718 388.145 102.653 379.582 93.468C378.259 92.0505 377.692 92.3718 376.52 93.5625C353.971 117.508 324.38 133.648 292.038 139.64C286.368 140.736 280.698 141.284 275.029 141.908C273.29 142.097 272.742 141.435 272.288 139.886C270.352 132.809 269.011 125.583 268.281 118.283C268.111 116.658 268.527 116.167 270.171 116.053C282.086 115.484 293.862 113.245 305.155 109.4L307.801 108.323Z" fill="#F86431"/>
<path d="M460.775 360.634C453.215 360.634 446.014 360.634 438.776 360.634C437.377 360.634 436.999 359.651 436.413 358.744C430.743 350.334 425.073 341.961 419.63 333.513C418.477 331.736 417.287 330.716 415.151 331.113C413.015 331.51 412.6 330.64 412.656 328.656C412.826 324.271 412.807 319.867 412.656 315.426C412.656 313.536 413.242 313.271 414.924 313.253C418.931 313.253 422.975 313.744 426.963 312.893C434.278 311.344 438.303 306.449 438.057 299.664C437.755 292.463 433.219 287.643 425.565 287.152C419.214 286.736 412.845 287.001 406.476 286.869C404.586 286.869 405.059 288.04 405.059 289.023C405.059 298.876 405.059 308.729 405.059 318.582C405.059 331.812 405.059 344.91 405.059 358.064C405.059 360.086 404.586 360.653 402.545 360.596C397.442 360.445 392.339 360.596 387.236 360.596C385.592 360.596 384.893 360.351 384.893 358.442C384.893 329.235 384.893 300.035 384.893 270.842C384.893 269.178 385.346 268.744 386.99 268.744C400.088 268.744 413.167 268.555 426.245 268.895C436.583 269.16 446.09 272.07 452.705 280.84C464.045 295.959 458.11 319.093 440.892 326.747C438.813 327.673 438.832 328.259 440.023 329.96C446.751 339.674 453.253 349.446 460 359.198C460.265 359.614 460.435 360.01 460.775 360.634Z" fill="white"/>
<path d="M174.652 348.007C166.144 355.515 155.562 360.272 144.299 361.652C131.788 363.296 119.73 361.652 108.976 354.622C93.3079 344.359 87.2978 329.239 88.4129 311.058C89.0712 300.001 93.6694 289.547 101.374 281.589C109.078 273.632 119.379 268.698 130.408 267.683C145.225 266.114 158.909 269.006 170.645 278.739C171.061 279.079 171.458 279.439 171.931 279.854C168.037 284.598 164.106 289.304 160.326 294.01C159.154 295.465 158.587 294.407 157.813 293.783C151.826 288.869 144.386 286.066 136.645 285.808C130.827 285.706 125.135 287.511 120.439 290.947C115.743 294.384 112.301 299.263 110.639 304.84C106.311 317.975 110.847 332.396 121.45 339.464C130.597 345.644 145.528 345.455 154.619 339.294C155.318 338.821 155.904 338.443 155.885 337.404C155.885 334.89 155.885 332.377 155.885 329.844C155.885 328.502 155.204 328.427 154.203 328.445C152.143 328.445 150.064 328.445 148.004 328.445C146.851 328.445 146.454 328.124 146.473 326.933C146.473 322.738 146.473 318.523 146.473 314.308C146.473 312.853 147.134 312.759 148.363 312.778C157.132 312.778 165.921 312.778 174.709 312.891C174.959 313.366 175.046 313.911 174.955 314.441V346.57C174.996 347.068 174.891 347.567 174.652 348.007Z" fill="white"/>
<path d="M275.218 347.99C266.518 355.701 255.631 360.51 244.071 361.749C231.352 363.242 219.18 361.314 208.427 353.906C194.516 344.305 188.468 330.489 188.828 314.008C189.357 290.214 204.741 272.108 228.082 268.12C244.412 265.323 259.607 268.498 272.534 279.857C268.754 284.468 264.974 288.966 261.194 293.597C260.098 294.976 259.494 294.806 258.284 293.805C252.261 288.783 244.71 285.958 236.871 285.791C224.794 285.338 212.566 294.447 210.146 309.019C208.389 319.584 210.676 329.166 218.651 336.82C229.16 346.932 246.15 345.061 255.411 339.164C255.738 339.013 256.006 338.759 256.177 338.443C256.347 338.126 256.41 337.762 256.356 337.406V337.142C256.356 334.458 257.263 331.15 256.035 329.26C254.806 327.37 251.253 328.693 248.74 328.618C247.322 328.618 246.85 328.145 246.963 326.728C246.963 322.702 247.058 318.658 246.963 314.632C246.963 313.177 247.417 312.837 248.853 312.855C257.622 312.95 266.411 312.95 275.199 312.988C275.484 313.574 275.57 314.238 275.445 314.878V346.195C275.534 346.803 275.455 347.423 275.218 347.99Z" fill="white"/>
<path d="M364.992 199.758C364.992 194.467 364.992 189.194 364.992 183.902C365.042 182.483 364.579 181.094 363.688 179.989C352.184 165.021 340.687 150.04 329.196 135.046C328.062 133.572 327.608 132.835 329.8 131.909C336.463 129.039 342.852 125.573 348.889 121.551C350.496 120.512 351.157 120.814 352.234 122.232C360.229 132.797 368.356 143.267 376.331 153.832C377.636 155.533 378.221 155.722 379.526 153.832C387.501 143.248 395.628 132.778 403.623 122.232C404.662 120.852 405.305 120.342 406.949 121.495C412.991 125.509 419.379 128.975 426.038 131.852C428.136 132.759 427.928 133.439 426.699 135.008C415.151 149.958 403.698 164.983 392.188 179.952C391.291 181.062 390.816 182.455 390.846 183.883C390.846 194.523 390.846 205.183 390.941 215.842C390.941 218.242 390.223 218.753 387.955 218.942C380.992 219.509 373.995 219.509 367.033 218.942C365.426 218.809 364.897 218.356 364.935 216.711C365.067 211.042 364.992 205.391 364.992 199.758Z" fill="#F86431"/>
<path d="M606.68 267.004C617.387 267.21 627.764 270.744 636.371 277.116C637.845 278.174 638.148 278.873 636.976 280.442C634.216 284.222 631.608 288.002 629.076 291.933C628.169 293.351 627.564 293.558 626.071 292.557C620.355 288.402 613.687 285.751 606.68 284.846C603.572 284.39 600.401 284.695 597.438 285.734C595.96 286.164 594.649 287.036 593.68 288.231C592.71 289.427 592.129 290.89 592.013 292.425C591.845 293.987 592.18 295.563 592.968 296.922C593.757 298.282 594.958 299.354 596.398 299.984C601.026 302.122 605.874 303.745 610.856 304.823C616.664 306.291 622.316 308.317 627.734 310.871C646.501 320.018 643.269 346.194 630.153 354.888C622.715 359.665 613.926 361.894 605.111 361.238C592.386 360.83 580.151 356.24 570.298 348.179C568.899 347.045 568.616 346.289 569.92 344.871C573.057 341.337 576.081 337.67 579.029 333.947C580.069 332.662 580.655 332.643 581.959 333.683C589.897 339.976 598.704 343.964 609.099 343.51C611.429 343.468 613.728 342.967 615.865 342.036C617.305 341.512 618.557 340.574 619.465 339.34C620.373 338.106 620.896 336.631 620.968 335.1C621.097 333.572 620.749 332.042 619.97 330.721C619.191 329.401 618.021 328.355 616.621 327.729C611.367 324.856 605.565 323.685 599.895 322.059C595.585 320.85 591.371 319.413 587.194 317.788C566.801 309.945 568.994 282.805 582.299 273.449C589.496 268.678 598.065 266.413 606.68 267.004Z" fill="white"/>
<path d="M527.451 322.568C527.324 321.055 526.845 319.593 526.053 318.297C522.972 310.605 519.835 302.932 516.698 295.239C516.414 294.54 516.112 293.841 515.582 292.612C512.615 299.927 509.818 306.749 507.059 313.553C500.916 328.673 494.812 343.793 488.631 358.913C488.386 359.517 488.424 360.349 487.63 360.67C481.96 360.311 476.29 360.67 470.752 360.5C469.777 360.655 468.778 360.571 467.842 360.254L500.274 283.578C502.296 278.835 504.413 274.129 506.473 269.366C512.351 268.837 518.228 269.252 524.106 269.139C524.692 269.139 525.051 269.63 525.524 269.876C531.59 284.126 537.714 298.377 543.762 312.646C550.339 328.144 556.885 343.661 563.399 359.196C563.248 360.803 562 360.5 560.98 360.5H546.2C545.315 360.396 544.418 360.454 543.554 360.67C540.691 354.862 538.167 348.892 535.994 342.791C535.774 341.907 535.225 341.14 534.46 340.645C533.695 340.15 532.771 339.965 531.874 340.126C523.464 340.221 515.034 340.126 506.624 340.126C504.583 340.126 504.413 339.654 505.15 337.877C507.153 333.209 508.93 328.427 510.82 323.74C510.99 323.324 510.933 322.625 511.689 322.587C516.934 323.026 522.207 323.02 527.451 322.568Z" fill="white"/>
<path d="M45.227 309.737L61.613 279.686C63.2762 276.625 64.9772 273.582 66.5647 270.482C66.7723 269.948 67.1487 269.497 67.6366 269.196C68.1245 268.896 68.6972 268.764 69.2674 268.819C76.0713 268.819 82.8752 268.819 89.7169 268.819C89.9626 269.896 89.2066 270.539 88.7908 271.257C77.9424 290.472 67.0813 309.68 56.2077 328.882C55.445 330.183 55.0467 331.665 55.0548 333.172C55.0548 341.432 55.0548 349.672 55.1493 357.912C55.1493 360.237 54.45 360.728 52.2766 360.653C47.3626 360.501 42.4298 360.52 37.497 360.653C35.607 360.653 35.0778 360.161 35.1156 358.271C35.2101 350.22 35.1156 342.15 35.1156 334.099C35.1514 332.408 34.7198 330.74 33.8683 329.279C23.0198 309.951 12.184 290.648 1.36078 271.37L0 268.857H3.64764C9.31755 268.857 15.1198 268.857 20.8464 268.857C21.6225 268.756 22.4101 268.916 23.0846 269.313C23.759 269.71 24.2816 270.321 24.5696 271.049C30.9955 283.221 37.497 295.335 43.9796 307.469C44.3009 308.168 44.6978 308.849 45.227 309.737Z" fill="white"/>
<path d="M693.201 359.706C693.201 354.433 693.201 349.141 693.201 343.868C693.201 319.677 693.201 295.504 693.201 271.331C693.201 269.347 693.636 268.742 695.677 268.799C700.78 268.969 705.902 268.95 711.005 268.799C712.895 268.799 713.31 269.422 713.31 271.218C713.31 293.897 713.31 316.709 713.216 339.446C713.216 341.808 713.745 342.432 716.145 342.413C729.13 342.413 742.133 342.413 755.117 342.413C755.619 343.267 755.807 344.27 755.646 345.248C755.646 349.028 755.646 352.877 755.646 356.796C755.646 360.008 755.513 360.141 752.338 360.141H696.036C695.07 360.356 694.058 360.201 693.201 359.706Z" fill="white"/>
<path d="M656.328 314.821C656.328 300.325 656.328 285.81 656.328 271.352C656.328 269.311 656.857 268.801 658.842 268.876C663.945 269.027 669.067 268.971 674.169 268.876C675.7 268.876 676.381 269.084 676.362 270.88C676.362 300.162 676.362 329.45 676.362 358.744C676.362 360.275 675.908 360.634 674.472 360.634C669.18 360.634 663.888 360.502 658.615 360.634C656.725 360.634 656.442 359.954 656.442 358.291C656.347 343.851 656.328 329.336 656.328 314.821Z" fill="white"/>
<path d="M693.201 359.706C712.819 359.706 732.437 359.706 752.055 359.706C754.474 359.706 755.117 359.025 755.022 356.682C754.852 351.938 755.022 347.232 755.022 342.45C756.269 342.261 755.967 343.206 755.967 343.83C755.967 348.857 755.967 353.866 755.967 358.95C755.967 360.84 754.965 360.67 753.756 360.651H723.138C713.915 360.651 704.673 360.651 695.45 360.651C694.713 360.594 693.371 361.407 693.201 359.706Z" fill="white"/>
<path d="M174.652 348.009C174.652 336.354 174.652 324.693 174.652 313.025C175.635 313.195 175.219 313.989 175.219 314.5C175.219 325.121 175.219 335.743 175.219 346.364C175.2 346.95 175.408 347.65 174.652 348.009Z" fill="white"/>
<path d="M275.215 347.99C275.215 336.335 275.215 324.68 275.215 313.025C276.198 313.214 275.763 314.008 275.763 314.518C275.763 325.14 275.763 335.743 275.763 346.364C275.763 346.931 275.933 347.65 275.215 347.99Z" fill="white"/>
<path d="M543.613 360.767C545.503 359.822 547.639 360.408 549.642 360.351C553.29 360.238 556.956 360.351 560.604 360.351C561.719 360.351 562.74 360.351 563.401 359.293C563.666 359.973 564.875 360.956 562.91 360.937L543.613 360.767Z" fill="white"/>
<path d="M525.525 269.874C522.294 268.929 518.986 269.515 515.717 269.402C512.447 269.288 509.555 269.402 506.475 269.402C506.777 268.249 507.741 268.665 508.365 268.665C513.335 268.665 518.287 268.665 523.257 268.665C524.316 268.608 525.412 268.457 525.525 269.874Z" fill="#202026"/>
<path d="M467.843 360.256H485.042C485.911 360.256 486.931 359.991 487.631 360.672L468.485 360.842C468.088 360.766 467.824 360.766 467.843 360.256Z" fill="white"/>
<path d="M527.452 322.566C526.866 323.36 526.016 323.171 525.26 323.133C520.8 322.869 516.301 323.757 511.879 322.68L527.452 322.566Z" fill="white"/>
<path d="M371.966 311.929C371.438 301.036 366.963 290.708 359.378 282.873C351.793 275.037 341.616 270.23 330.746 269.348C318.764 268.214 306.743 269.159 294.837 268.819C292.663 268.819 291.964 269.253 291.983 271.54C292.096 285.885 291.983 300.211 291.983 314.537C291.983 328.863 291.983 343.567 291.983 358.006C291.983 359.896 292.266 360.671 294.421 360.633C304.003 360.501 313.604 360.633 323.186 360.633C327.573 360.638 331.947 360.157 336.227 359.197C346.888 356.963 356.381 350.946 362.951 342.257C369.52 333.569 372.723 322.795 371.966 311.929ZM344.581 333.588C342.176 336.313 339.23 338.506 335.93 340.029C332.631 341.552 329.05 342.371 325.416 342.433C321.636 342.641 317.705 342.433 313.869 342.546C312.205 342.546 312.073 341.942 312.073 340.543C312.073 331.962 312.073 323.363 312.073 314.783C312.073 306.202 312.073 297.603 312.073 289.022C312.073 287.34 312.451 286.887 314.114 286.962C319.274 287.208 324.49 286.603 329.631 287.605C335.376 288.607 340.612 291.528 344.481 295.892C348.35 300.255 350.624 305.803 350.931 311.626C351.536 319.659 350.118 327.256 344.581 333.588Z" fill="white"/>
</svg>
