<svg width="500" height="400" viewBox="0 0 500 400" fill="none" xmlns="http://www.w3.org/2000/svg">
<mask id="mask0_863_2945" style="mask-type:alpha" maskUnits="userSpaceOnUse" x="0" y="0" width="500" height="400">
<rect width="500" height="400" fill="#D9D9D9"/>
</mask>
<g mask="url(#mask0_863_2945)">
<rect width="500" height="400" fill="#D9D9D9"/>
<rect width="500" height="400" fill="url(#paint0_linear_863_2945)"/>
<path d="M281.415 182.278C284.99 167.916 276.273 156.031 254.918 156.031H208.634L191.293 226.273L201.359 243.551H234.285C255.859 243.551 272.572 233.485 276.868 215.987C279.032 207.019 276.523 200.747 270.879 197.612V197.392C276.232 193.925 280.014 188.499 281.415 182.278ZM253.193 215.423C252.315 219.092 249.838 222.855 239.584 222.855H218.574L222.243 207.803H243.159C253.287 207.772 254.04 211.629 253.068 215.423H253.193ZM257.395 182.748C256.643 185.57 254.479 189.02 245.636 189.02H226.821L229.957 176.79H248.772C257.709 176.727 258.148 179.612 257.395 182.748Z" fill="#14A0FF"/>
<path d="M310.558 209.653H352.703L357.501 188.957H315.638L318.899 176.727H360.354L365.152 156.031H297.105L275.531 243.519H352.609L357.657 222.823H307.453L310.558 209.653Z" fill="#14A0FF"/>
<path d="M371.04 156.031L366.211 176.727H391.391L374.866 243.519H401.3L417.857 176.727H444.825L449.999 156.031H371.04Z" fill="#14A0FF"/>
<path d="M77.6576 243.519H51.0034L62.5431 196.796L65.2085 189.741L58.153 196.796L50.3136 204.73L50 181.4L77.6576 156.031H99.2004L77.6576 243.519Z" fill="white"/>
<path d="M173.899 207.27L165.401 192.877L206.636 156.031H168.223L152.544 171.083L99.3612 219.844L73.8359 243.519H110.18L137.492 219.154L146.68 234.833C149.816 238.784 154.237 243.582 172.989 243.582H194.94L173.93 207.239L173.899 207.27Z" fill="white"/>
<path d="M149.595 166.254V166.066C147.242 162.783 144.103 160.144 140.465 158.391C136.827 156.638 132.807 155.826 128.773 156.031H100.395L121.561 192.03L149.595 166.254Z" fill="white"/>
</g>
<defs>
<linearGradient id="paint0_linear_863_2945" x1="250" y1="0" x2="250" y2="400" gradientUnits="userSpaceOnUse">
<stop stop-color="#005B9E"/>
<stop offset="1" stop-color="#002F5D"/>
</linearGradient>
</defs>
</svg>
