<svg width="500" height="400" viewBox="0 0 500 400" fill="none" xmlns="http://www.w3.org/2000/svg">
<mask id="mask0_864_3142" style="mask-type:alpha" maskUnits="userSpaceOnUse" x="0" y="0" width="500" height="400">
<rect width="500" height="400" fill="#D9D9D9"/>
</mask>
<g mask="url(#mask0_864_3142)">
<rect width="500" height="400" fill="#D9D9D9"/>
<rect width="500" height="400" fill="url(#paint0_linear_864_3142)"/>
<path d="M95 252.623H162.967C174.089 252.888 185.387 261.274 186.446 272.837C186.623 279.634 186.446 286.43 186.535 293.227C186.623 296.581 185.829 299.936 184.328 302.937C185.74 305.85 186.535 309.116 186.535 312.381V331.536C186.358 339.657 180.886 346.983 173.647 350.249C166.939 353.78 159.083 352.985 151.757 353.073C132.867 352.985 113.89 352.985 95 352.985V252.623ZM124.658 278.928V290.049C135.339 290.049 145.931 290.138 156.612 290.049C156.876 286.342 156.876 282.635 156.612 279.016C145.931 278.928 135.339 279.016 124.658 278.928ZM124.658 316.354V326.681C135.515 326.593 146.372 326.858 157.23 326.593C157.406 323.239 157.406 319.796 157.23 316.442C146.372 316.354 135.515 316.442 124.658 316.354ZM211.427 255.007C215.663 252.977 220.342 252.447 225.02 252.623H289.544C288.132 260.126 285.837 267.982 280.1 273.367C276.039 277.25 270.39 279.016 264.829 279.016C252.207 278.928 239.496 278.839 226.874 279.016C226.785 282.37 226.785 285.724 226.874 289.078C240.908 289.432 254.855 289.167 268.89 289.255C267.389 296.758 265.447 304.79 259.621 310.263C253.796 315.647 245.41 316.707 237.819 316.354C234.2 316.265 230.581 315.383 226.874 315.736C226.874 319.09 226.697 322.532 226.874 325.887C227.05 326.063 227.403 326.416 227.491 326.681C248.146 326.946 268.89 326.681 289.544 326.769C287.956 335.331 284.954 344.688 277.275 349.719C271.096 353.956 263.24 353.25 256.091 353.162C236.671 353.073 217.164 353.162 197.745 353.162C197.745 326.858 197.657 300.553 197.745 274.338C197.833 265.776 203.835 258.184 211.427 255.007ZM300.578 259.685C304.727 254.918 311.17 252.535 317.349 252.623H405V256.949C402.97 265.776 397.762 274.955 388.582 277.78C380.991 279.987 372.87 278.575 365.102 279.016C363.69 278.751 363.69 280.34 363.69 281.311C363.69 298.347 363.778 315.294 363.69 332.33C363.778 337.979 360.777 343.276 356.364 346.718C350.185 351.573 342.241 352.897 334.65 353.956V282.105C334.65 281.046 334.473 279.987 334.208 278.928C320.262 279.016 306.315 278.928 292.369 279.016C293.958 272.131 295.9 264.981 300.578 259.685Z" fill="white"/>
<path d="M222.829 46.782C236.599 44.3987 250.811 47.6646 263.168 53.8435C257.696 56.315 252.488 59.4044 247.898 63.3765C244.19 60.8167 240.483 58.1686 236.511 56.1384C227.331 51.3719 217.004 49.6066 206.853 48.9887C212.149 48.4591 217.533 48.0177 222.829 46.782ZM201.733 79.0883C207.735 74.8514 216.915 77.2347 220.534 83.5018C219.21 85.3554 218.416 87.5621 217.886 89.7688C209.501 90.6515 201.204 91.8873 192.906 92.8583C194.495 87.6504 197.231 82.4425 201.733 79.0883ZM261.315 110.247C266.346 110.071 271.289 109.982 276.32 109.806C271.907 118.544 266.875 126.93 261.491 135.139C250.193 142.554 237.747 148.115 225.566 153.852C223.359 154.823 221.064 155.882 219.034 157.294C226.537 159.325 233.951 161.531 241.278 163.915C238.806 167.269 236.246 170.623 233.775 173.889C220.623 169.476 207.206 166.033 193.965 161.796C199.262 158.883 204.823 156.324 210.383 153.852C219.917 149.262 229.45 144.584 238.276 138.581C248.604 131.785 256.901 121.899 261.315 110.247Z" fill="#C72929"/>
<path d="M176.134 60.5515C184.343 52.7838 195.641 49.2531 206.763 48.9883C217.002 49.6062 227.33 51.3715 236.421 56.1381C240.482 58.1682 244.101 60.8163 247.808 63.3761C237.834 71.4968 230.507 82.6187 226.006 94.6232C224.858 97.5361 224.24 100.626 223.005 103.45C232.449 105.392 241.629 108.305 250.986 110.6C254.428 110.776 257.782 110.247 261.225 110.335C256.812 121.898 248.514 131.784 238.187 138.669C229.448 144.672 219.827 149.35 210.294 153.94C204.733 156.411 199.172 158.971 193.876 161.884C207.028 166.121 220.533 169.563 233.685 173.977C229.272 179.891 224.77 185.805 220.357 191.719C220.357 194.985 220.357 198.339 220.445 201.605C198.907 194.455 177.37 187.305 155.832 179.979V156.323C161.393 152.351 167.484 149.173 173.221 145.466C187.256 136.463 201.379 127.106 212.589 114.572C217.091 109.452 221.327 103.715 222.475 96.9182C223.093 92.4165 222.651 87.65 220.445 83.5896C216.826 77.3226 207.646 74.9393 201.644 79.1762C197.142 82.5304 194.405 87.7383 192.817 93.0344C192.64 93.2109 192.375 93.6523 192.199 93.8288C182.931 89.0623 173.398 84.5606 163.864 80.0589C166.424 72.7326 170.396 65.7593 176.134 60.5515Z" fill="#FF4949"/>
<path d="M263.166 53.8413C269.08 51.3698 275.347 49.781 281.702 49.4279C293.619 48.9865 305.358 51.8994 317.098 53.2234C305.182 53.2234 293.265 56.8425 283.379 63.5509C271.287 71.2303 262.107 82.97 256.104 95.9455C253.898 100.624 252.574 105.655 250.896 110.598C241.54 108.215 232.36 105.39 222.915 103.448C224.151 100.624 224.769 97.5344 225.916 94.6215C230.418 82.6169 237.744 71.5833 247.719 63.3744C252.485 59.4905 257.693 56.3129 263.166 53.8413ZM295.384 87.56C298.738 84.3823 303.858 82.0873 308.359 83.7644C313.391 86.6773 314.097 93.2975 313.567 98.5053C312.243 108.745 307.124 117.924 302.181 126.751C299.268 132.224 295.914 137.432 292.559 142.64C279.407 162.677 264.755 181.743 250.367 200.809C249.396 202.133 248.072 203.457 248.337 205.222V231.703C248.072 231.879 247.454 232.144 247.101 232.233C238.362 227.819 229.535 223.317 220.709 219.08C220.267 213.255 220.62 207.341 220.444 201.427C220.355 198.161 220.444 194.807 220.355 191.541C224.769 185.627 229.182 179.713 233.684 173.799C236.244 170.444 238.715 167.178 241.187 163.824C248.072 154.379 254.957 144.846 261.4 135.137C266.785 126.928 271.816 118.542 276.23 109.804C279.054 109.627 281.967 109.627 284.88 109.627C287.087 101.771 289.47 93.3857 295.384 87.56ZM315.333 147.583C324.248 150.319 333.163 153.144 342.078 155.792C336.252 158.881 330.074 161.176 324.16 163.913C313.303 168.591 302.622 173.71 291.588 178.036C299.356 167.796 307.565 157.822 315.333 147.583Z" fill="#015C65"/>
<path d="M317.189 53.2266C324.691 53.6679 332.547 55.9629 337.579 61.8769C343.581 68.4971 344.905 77.9418 344.552 86.5922C344.375 95.5073 341.639 104.246 337.844 112.19C332.283 125.077 323.721 136.376 315.335 147.586C307.567 157.825 299.358 167.799 291.591 178.039C302.624 173.713 313.305 168.594 324.162 163.916C330.076 161.091 336.255 158.796 342.08 155.795C342.345 155.795 342.963 155.707 343.228 155.707V183.953C311.539 199.753 280.028 215.994 248.339 231.794V205.314C248.074 203.548 249.398 202.224 250.369 200.9C264.757 181.746 279.41 162.768 292.562 142.731C295.916 137.523 299.27 132.315 302.183 126.843C307.214 118.016 312.334 108.836 313.57 98.5967C314.099 93.3889 313.393 86.6804 308.362 83.8558C303.772 82.267 298.74 84.4737 295.386 87.6514C289.384 93.5654 287.089 101.951 284.882 109.807C281.969 109.807 279.145 109.807 276.232 109.983C271.201 110.248 266.258 110.248 261.226 110.425C257.784 110.425 254.43 110.954 250.987 110.69C252.664 105.835 253.988 100.803 256.195 96.0369C262.109 83.0614 271.377 71.3217 283.47 63.6423C293.356 56.9339 305.272 53.3148 317.189 53.2266Z" fill="#0C8F9B"/>
</g>
<defs>
<linearGradient id="paint0_linear_864_3142" x1="250" y1="0" x2="250" y2="400" gradientUnits="userSpaceOnUse">
<stop stop-color="#00646A"/>
<stop offset="1" stop-color="#002C30"/>
</linearGradient>
</defs>
</svg>
