<svg width="500" height="400" viewBox="0 0 500 400" fill="none" xmlns="http://www.w3.org/2000/svg">
<mask id="mask0_894_2484" style="mask-type:alpha" maskUnits="userSpaceOnUse" x="0" y="0" width="500" height="400">
<rect width="500" height="400" fill="#D9D9D9"/>
</mask>
<g mask="url(#mask0_894_2484)">
<rect width="500" height="400" fill="#D9D9D9"/>
<rect width="500" height="400" fill="url(#paint0_linear_894_2484)"/>
<path opacity="0.15" fill-rule="evenodd" clip-rule="evenodd" d="M99.3311 176.219C94.862 172.007 88.5459 169.898 80.388 169.898H60.1758V183.106H82.746C86.7336 183.106 89.4225 184.266 90.8126 186.595C92.2028 188.859 92.8966 191.217 92.8966 193.669C92.8966 195.116 92.5657 196.624 91.9016 198.197C91.2348 199.77 90.1484 201.153 88.6373 202.345C88.162 202.701 87.6467 202.999 87.1015 203.234L74.9189 183.442H60.1782L72.8597 204.044H60.1758V239.322H73.3188V217.343H81.0472L94.5756 239.318H109.316L94.3114 214.94C94.9558 214.612 95.573 214.249 96.1608 213.854C99.667 211.525 102.173 208.57 103.684 204.985C105.255 201.338 106.04 197.439 106.04 193.288C106.04 186.059 103.805 180.368 99.3336 176.217L99.3311 176.219ZM135.165 227.293H156.82L161.876 240.491H176.782L147.321 170.382H146.61L117.153 240.488H129.839L135.165 227.291V227.293ZM146.259 199.711L152.558 216.112H139.694L146.259 199.711ZM227.92 211.439C226.026 208.753 223.362 206.585 219.932 204.933C222.36 203.466 224.35 201.377 225.701 198.883C227.061 196.32 227.74 193.358 227.74 189.995C227.74 184.498 225.759 180.313 221.797 177.442C217.831 174.508 212.389 173.042 205.468 173.042H186.303V240.491H208.042C214.55 240.491 219.962 238.903 224.28 235.725C228.658 232.488 230.849 227.446 230.849 220.605C230.849 217.123 229.871 214.066 227.92 211.439ZM206.978 200.627H199.17V185.871H206.091C208.693 185.871 210.733 186.484 212.215 187.706C213.693 188.866 214.432 190.577 214.432 192.837C214.432 195.034 213.78 196.901 212.481 198.427C211.176 199.893 209.345 200.627 206.978 200.627ZM214.698 226.286C212.864 227.507 210.439 228.118 207.422 228.118H199.17V213.456H206.535C213.869 213.456 217.538 215.839 217.538 220.605C217.538 223.108 216.59 225.004 214.698 226.286ZM366.673 173.042V243.239H366.316L320.618 200.627L320.884 240.491H307.841V170.382H308.371L353.981 213.636L353.714 173.039H366.67L366.673 173.042ZM394.139 227.293H415.79L420.847 240.491H435.755L406.297 170.385H405.585L376.126 240.491H388.816L394.139 227.293ZM405.23 199.711L411.531 216.112H398.664L405.23 199.711ZM291.512 175.466H245.618V189.022H291.512V175.466ZM268.567 241.548C281.239 241.548 291.512 230.93 291.512 217.829C291.512 204.728 281.241 194.108 268.567 194.108C255.893 194.108 245.618 204.728 245.618 217.829C245.618 230.927 255.893 241.548 268.567 241.548ZM268.575 227.992C274.007 227.992 278.409 223.442 278.409 217.827C278.409 212.214 274.004 207.661 268.575 207.661C263.143 207.661 258.74 212.214 258.74 217.827C258.74 223.442 263.143 227.994 268.575 227.994V227.992Z" fill="black"/>
<path d="M50 169.955H65.7011L102.335 227.525H86.6342L50 169.955Z" fill="white"/>
<path fill-rule="evenodd" clip-rule="evenodd" d="M91.7034 162.511C86.9404 158.17 80.2146 156 71.5283 156H50V169.605H74.0369C78.2837 169.605 81.1479 170.805 82.6294 173.202C84.1109 175.533 84.8491 177.963 84.8491 180.491C84.8491 181.98 84.496 183.536 83.7874 185.155C83.0788 186.775 81.9208 188.2 80.3133 189.432C78.7035 190.597 76.58 191.18 73.9431 191.18H50V227.525H63.9999V204.884H74.0369C79.8936 204.884 84.6541 203.684 88.3257 201.286C92.0564 198.891 94.7281 195.844 96.3379 192.15C98.0095 188.395 98.8465 184.378 98.8465 180.101C98.8465 172.652 96.4662 166.788 91.7034 162.511Z" fill="white"/>
<path d="M152.924 215.132H129.862L124.193 228.729H110.68L142.055 156.498H142.81L174.185 228.729H158.309L152.924 215.132ZM148.388 203.614L141.677 186.713L134.684 203.614H148.388ZM220.143 192.095C223.796 193.794 226.632 196.029 228.647 198.799C230.728 201.505 231.765 204.651 231.765 208.241C231.765 215.29 229.435 220.483 224.773 223.822C220.175 227.092 214.409 228.729 207.479 228.729H184.326V159.236H204.738C212.111 159.236 217.906 160.747 222.128 163.77C226.35 166.728 228.459 171.039 228.459 176.705C228.459 180.167 227.736 183.219 226.287 185.863C224.838 188.443 222.787 190.52 220.143 192.095ZM198.03 187.658H206.345C208.864 187.658 210.817 186.903 212.205 185.392C213.59 183.816 214.285 181.898 214.285 179.631C214.285 177.303 213.494 175.54 211.922 174.345C210.346 173.086 208.172 172.456 205.4 172.456H198.03V187.658ZM206.819 215.982C210.03 215.982 212.615 215.354 214.568 214.095C216.583 212.772 217.59 210.821 217.59 208.241C217.59 203.33 213.683 200.876 205.871 200.876H198.03V215.982H206.819ZM376.426 159.236V231.562H376.046L327.377 187.656L327.662 228.729H313.77V156.498H314.335L362.91 201.066L362.629 159.239H376.426V159.236ZM428.737 215.132H405.677L400.006 228.729H386.493L417.867 156.498H418.624L450.001 228.729H434.122L428.737 215.132ZM424.201 203.614L417.489 186.713L410.498 203.614H424.201ZM247.5 161.738H296.379V175.703H247.5V161.738Z" fill="white"/>
<path fill-rule="evenodd" clip-rule="evenodd" d="M271.94 229.82C285.439 229.82 296.379 218.879 296.379 205.381C296.379 191.885 285.439 180.941 271.94 180.941C258.444 180.941 247.5 191.885 247.5 205.381C247.5 218.879 258.444 229.82 271.94 229.82ZM271.947 215.855C274.725 215.855 277.389 214.751 279.354 212.787C281.317 210.823 282.421 208.159 282.421 205.381C282.421 202.603 281.317 199.939 279.354 197.974C277.389 196.01 274.725 194.907 271.947 194.907C269.169 194.907 266.505 196.01 264.542 197.974C262.577 199.939 261.473 202.603 261.473 205.381C261.473 208.159 262.577 210.823 264.542 212.787C266.505 214.751 269.169 215.855 271.947 215.855Z" fill="#ECFD00"/>
</g>
<defs>
<linearGradient id="paint0_linear_894_2484" x1="250" y1="0" x2="250" y2="400" gradientUnits="userSpaceOnUse">
<stop stop-color="#CC0034"/>
<stop offset="1" stop-color="#9B0027"/>
</linearGradient>
</defs>
</svg>
