<svg width="498" height="109" viewBox="0 0 498 109" fill="none" xmlns="http://www.w3.org/2000/svg">
<path d="M287.886 32.6897C292.333 14.8235 281.488 0.0390625 254.923 0.0390625H197.345L175.773 87.4196L188.295 108.914H229.255C256.093 108.914 276.885 96.3917 282.229 74.6246C284.921 63.4679 281.8 55.6661 274.779 51.7652V51.4921C281.437 47.1788 286.142 40.4295 287.886 32.6897ZM252.778 73.9224C251.685 78.4865 248.604 83.1676 235.848 83.1676H209.711L214.275 64.4432H240.295C252.895 64.4042 253.831 69.2023 252.621 73.9224H252.778ZM258.005 33.2749C257.069 36.7857 254.377 41.0767 243.376 41.0767H219.971L223.872 25.8631H247.277C258.395 25.7851 258.941 29.3739 258.005 33.2749Z" fill="#14A0FF"/>
<path d="M324.125 66.7447H376.553L382.522 40.9987H330.444L334.501 25.7851H386.072L392.04 0.0390625H307.39L280.552 108.875H376.436L382.717 83.1286H320.263L324.125 66.7447Z" fill="#14A0FF"/>
<path d="M399.375 0.0390625L393.367 25.7851H424.692L404.134 108.875H437.018L457.615 25.7851H491.163L497.6 0.0390625H399.375Z" fill="#14A0FF"/>
<path d="M34.4061 108.875H1.24829L15.6037 50.751L18.9194 41.9739L10.1424 50.751L0.390092 60.6203L0 31.5975L34.4061 0.0390625H61.2054L34.4061 108.875Z" fill="#003452"/>
<path d="M154.126 63.78L143.554 45.8748L194.851 0.0390625H147.065L127.56 18.7635L61.4009 79.4227L29.6475 108.875H74.8591L108.836 78.5645L120.266 98.0691C124.167 102.984 129.667 108.953 152.994 108.953H180.301L154.165 63.741L154.126 63.78Z" fill="#003452"/>
<path d="M123.891 12.7556V12.5215C120.964 8.43829 117.059 5.15554 112.533 2.97448C108.007 0.793415 103.006 -0.216098 97.9888 0.038573H62.6855L89.0167 44.8211L123.891 12.7556Z" fill="#003452"/>
</svg>
