<svg width="531" height="201" viewBox="0 0 531 201" fill="none" xmlns="http://www.w3.org/2000/svg">
<path d="M179.034 108.288C182.162 104.24 185.106 100.376 188.05 96.3281C194.49 87.4961 200.194 78.1121 204.426 68.1761C208.474 58.6081 210.682 48.6721 210.13 38.3681C209.946 35.0561 209.394 31.9281 208.474 28.8001C205.898 20.5201 200.93 14.6321 192.834 11.3201C188.97 9.66414 184.738 9.11214 180.506 8.74414C180.322 8.92814 179.954 8.92814 179.586 8.92814C178.85 8.92814 177.93 8.92814 177.194 8.92814C173.33 8.92814 169.65 9.48014 165.97 10.2161C161.37 11.1361 156.954 12.6081 152.538 14.4481C149.41 15.7361 146.282 17.3921 143.338 19.2321C140.578 20.8881 137.818 22.9121 135.426 24.9361C132.482 26.9601 129.538 29.5361 126.962 32.4801C123.466 36.3441 120.338 40.3921 117.578 44.8081C115.186 48.6721 113.162 52.7201 111.322 56.9521C109.666 61.0001 108.194 65.2321 107.09 69.4641C107.09 69.6481 107.09 69.8321 106.906 70.2001C109.114 70.2001 111.506 70.2001 113.714 70.0161C114.818 70.0161 116.106 69.8321 117.21 70.0161C118.314 70.0161 119.418 69.8321 120.522 69.8321C125.306 69.6481 130.09 69.4641 134.874 69.2801H135.058C137.818 69.2801 140.394 68.9121 143.154 69.0961C144.074 69.0961 144.074 69.0961 144.442 68.1761C145.362 64.1281 146.466 60.2641 148.306 56.5841C149.778 53.2721 151.434 50.1441 153.642 47.5681C155.298 45.7281 157.138 44.0721 159.346 42.7841C161.186 41.6801 163.394 41.1281 165.602 40.9441C167.81 40.7601 169.834 41.1281 171.49 42.4161C172.962 43.3361 173.698 44.8081 174.434 46.4641C175.17 48.1201 175.538 49.9601 175.722 51.8001C175.722 52.5361 175.906 53.4561 175.906 54.1921C175.906 57.1361 175.354 60.0801 174.618 63.0241C173.514 66.7041 172.042 70.3841 170.57 73.8801C168.362 78.8481 165.602 83.6321 162.842 88.4161C159.53 94.1201 156.034 99.6401 152.354 104.976C148.122 111.416 143.522 117.672 139.106 123.744C135.242 129.08 131.378 134.232 127.514 139.384C124.202 143.8 120.706 148.216 117.394 152.632C114.266 156.68 111.138 160.912 107.826 164.96C106.538 166.616 105.25 168.272 103.962 169.928C103.594 170.48 103.41 171.032 103.41 171.584C103.41 176.736 103.41 181.888 103.41 187.04C103.41 191.088 103.41 195.32 103.41 199.368C103.41 199.736 103.594 200.288 103.226 200.656C103.226 200.656 103.226 200.656 103.226 200.84C103.41 200.84 103.594 200.84 103.778 200.84C103.962 200.472 104.514 200.288 104.882 200.104C113.53 195.872 122.362 191.456 131.01 187.224C156.586 174.712 181.978 162.2 207.554 149.688C208.474 149.32 208.658 148.768 208.658 147.848C208.658 138.464 208.658 129.08 208.658 119.696C208.658 119.328 208.658 119.144 208.658 118.776C208.658 118.592 208.474 118.408 208.29 118.408C206.818 119.328 205.346 119.88 203.874 120.432C200.93 121.72 197.802 123.008 194.858 124.296C191.362 125.768 187.866 127.24 184.186 128.896C181.242 130.184 178.298 131.472 175.354 132.76C171.858 134.232 168.178 135.888 164.682 137.36C161.738 138.648 158.794 139.936 155.85 141.224C154.562 141.776 153.274 142.328 151.986 142.88C151.802 142.512 151.986 142.144 152.17 141.96C154.194 139.384 156.218 136.808 158.242 134.416C160.266 131.84 162.29 129.264 164.498 126.688C165.97 124.848 167.626 122.824 169.098 120.984C170.754 118.96 172.41 116.936 174.066 114.728C175.354 113.072 176.642 111.6 177.746 109.944C177.93 109.76 178.114 109.76 178.114 109.576C178.482 109.024 178.85 108.656 179.034 108.288Z" fill="#0E8F9A"/>
<path d="M1.656 143.246C25.76 150.974 49.68 158.886 73.6 166.614C73.6 163.67 73.6 160.726 73.6 157.782C73.6 157.046 73.784 156.31 74.336 155.758C78.936 149.686 83.72 143.798 88.32 137.726C88.504 137.542 88.688 137.174 88.872 136.806C87.768 136.254 86.664 136.07 85.56 135.702C80.224 134.23 75.072 132.574 69.736 131.102C64.4 129.63 59.064 128.158 53.728 126.502C50.784 125.582 47.84 124.846 45.08 123.926C44.896 123.926 44.712 123.742 44.712 123.742C44.344 123.558 44.344 123.374 44.712 123.006C45.632 122.638 46.368 122.086 47.288 121.718C49.68 120.614 52.072 119.51 54.464 118.406C58.88 116.382 63.296 114.358 67.712 112.334C71.024 110.862 74.152 109.39 77.28 107.734C81.696 105.342 86.112 102.95 90.344 100.374C93.656 98.3503 96.6 96.1423 99.544 93.7503C100.464 93.0143 101.2 92.2783 102.12 91.5423C102.856 90.8063 103.776 90.0703 104.512 89.3343C107.824 85.8383 110.952 82.3423 113.528 78.2943C115.184 75.5343 116.656 72.5903 117.76 69.6463C116.656 69.6463 115.368 69.6463 114.264 69.6463C112.056 69.8303 109.664 69.8303 107.456 69.8303C105.984 69.6463 104.696 69.0943 103.408 68.7263C95.128 66.5183 86.848 64.3103 78.752 61.9183C78.568 61.9183 78.384 61.7343 78.384 61.7343C77.832 61.7343 77.648 61.3663 77.832 60.8143C78.384 58.4223 79.12 56.2143 79.856 53.8223C84.088 42.0463 90.528 31.7423 99.36 22.9103C101.016 21.2543 102.856 19.7823 104.512 18.1263C103.04 17.5743 101.752 16.6543 100.464 15.7343C97.152 13.1583 93.472 11.1343 89.608 9.29433C86.112 7.82233 82.616 6.53433 79.12 5.61433C75.808 4.69433 72.496 3.95833 69.184 3.40633C67.528 3.22233 65.872 3.03833 64.216 2.85433C62.56 2.67033 61.088 2.67033 59.432 2.67033C58.696 2.67033 57.96 2.85433 57.408 2.48633C56.672 2.48633 56.12 2.67033 55.384 2.67033C52.256 2.67033 49.128 3.22233 46 3.77433C33.304 6.53433 23.184 13.3423 16.192 24.1983C13.984 27.5103 12.328 31.1903 11.04 35.0543C10.856 35.6063 10.856 35.9743 11.408 36.1583C11.592 36.1583 11.592 36.3423 11.776 36.3423C21.896 41.1263 32.2 45.7263 42.32 50.5103C43.24 47.9343 44.344 45.5423 45.448 43.1503C46.92 40.3903 48.576 37.8143 50.968 35.7903C53.544 33.5823 56.488 32.2943 59.8 32.2943C63.296 32.2943 66.608 33.2143 69.368 35.2383C70.472 35.9743 71.392 37.0783 72.312 38.1823C72.496 38.5503 72.68 38.9183 72.68 39.2863C73.232 39.2863 73.232 39.8383 73.416 40.2063C76.176 46.0943 76.36 51.9823 74.152 57.8703C72.496 62.2863 69.92 66.1503 66.976 69.6463C61.272 76.4543 54.648 82.5263 47.472 87.8623C37.904 95.2223 27.784 101.662 17.48 107.918C12.512 110.862 7.544 113.806 2.576 116.934C2.208 117.302 1.84 117.486 1.84 118.038C1.472 122.27 1.288 126.318 0.92 130.55C0.552 134.23 0.368 138.094 0 141.774C0 142.326 0.184 142.51 0.552 142.694C0.92 142.878 1.288 143.062 1.656 143.246Z" fill="#F04C4D"/>
<path d="M324.976 105.894C324.976 102.718 324.495 99.786 323.049 96.854C322.808 96.3654 322.808 95.8767 323.049 95.388C324.495 92.456 324.976 89.2797 324.976 85.859C324.976 80.4836 324.976 74.8639 324.976 69.4886C324.976 68.0225 324.976 66.8009 324.736 65.3349C323.531 58.4935 319.677 53.6068 313.895 50.4305C309.8 47.9871 305.223 47.0098 300.405 47.0098C280.169 47.0098 259.934 47.0098 239.698 47.0098C237.771 47.0098 238.012 46.7654 238.012 48.7201C238.012 64.3575 238.012 80.2393 238.012 95.8767C238.012 111.758 238.012 127.64 238.012 143.522C238.012 145.232 237.771 144.988 239.457 144.988C239.698 144.988 239.939 144.988 240.18 144.988C249.575 144.988 258.729 144.988 268.124 144.988C278.965 144.988 290.046 144.988 300.887 144.988C304.018 144.988 307.15 144.499 310.282 143.278C318.472 140.346 325.458 132.771 324.976 122.02C324.736 116.645 324.976 111.27 324.976 105.894ZM265.956 73.3979C265.956 72.4206 265.956 72.1762 267.161 72.1762C276.556 72.1762 285.71 72.1762 295.105 72.1762C296.309 72.1762 296.55 72.4206 296.55 73.6422C296.55 76.3299 296.55 79.2619 296.55 81.9496C296.55 83.4156 296.309 83.4156 294.864 83.4156C290.528 83.4156 285.951 83.4156 281.615 83.4156C281.374 83.4156 281.133 83.4156 280.892 83.4156C276.315 83.4156 271.738 83.4156 266.92 83.4156C265.715 83.4156 265.715 83.4156 265.715 82.194C265.956 79.2619 265.956 76.3299 265.956 73.3979ZM297.273 118.111C297.273 119.821 297.032 120.066 295.587 120.066C286.192 120.066 276.797 120.066 267.402 120.066C266.197 120.066 266.197 120.066 266.197 118.844C266.197 115.912 266.197 112.736 266.197 109.804C266.197 108.826 266.197 108.826 267.402 108.826C272.22 108.826 277.038 108.826 281.856 108.826C286.433 108.826 291.01 108.826 295.828 108.826C297.514 108.826 297.514 108.826 297.755 110.537C297.273 112.98 297.273 115.668 297.273 118.111Z" fill="#055B63"/>
<path d="M362.307 71.2203C363.033 71.2203 363.76 71.2203 364.486 71.2203C375.625 71.2203 386.523 71.4646 397.662 71.2203C406.38 71.2203 412.676 67.0685 416.792 59.4975C418.245 56.811 419.214 53.8802 419.941 50.7053C420.183 49.4841 420.425 48.0188 420.909 46.7976C421.151 46.3092 420.909 45.8207 420.183 46.065C419.941 46.065 419.698 46.065 419.456 46.065C398.631 46.065 377.805 46.065 356.737 46.065C354.073 46.065 351.652 46.5534 349.23 47.2861C340.754 49.9726 332.763 57.2994 333.005 69.2665C333.248 89.0489 333.005 108.587 333.005 128.369C333.005 133.254 333.005 137.894 333.005 142.779C333.005 144 333.005 144 334.216 144C334.458 144 334.7 144 334.943 144C351.409 144 368.118 144 384.585 144C389.186 144 393.787 144 398.388 144C402.021 144 405.169 143.023 408.317 141.069C412.434 138.627 415.34 134.964 417.277 130.568C418.73 127.393 419.698 124.218 420.425 120.798C420.909 118.6 421.151 118.845 418.73 118.845C400.326 118.845 381.922 118.845 363.517 118.845C363.033 118.845 362.549 118.845 362.064 118.845C360.854 118.845 360.612 118.6 360.612 117.379C360.612 114.449 360.612 111.762 360.612 108.831C360.612 107.61 360.854 107.366 362.064 107.366C363.517 107.366 364.728 107.366 366.181 107.61C370.782 107.854 375.383 108.099 380.226 107.366C388.702 106.145 394.756 101.504 397.904 93.445C398.873 90.7585 399.599 88.3162 400.326 85.6297C400.568 84.6528 400.81 83.6759 400.81 82.699C400.326 82.4548 399.599 82.4548 399.115 82.4548C387.249 82.4548 375.141 82.4548 363.275 82.4548C362.791 82.4548 362.307 82.4548 361.822 82.4548C361.096 82.4548 360.612 81.9663 360.612 81.2337C360.612 78.3029 360.612 75.128 360.612 72.1973C361.096 71.7088 361.58 71.2203 362.307 71.2203Z" fill="#055B63"/>
<path d="M531 47.1081C530.511 46.8649 529.778 47.1081 529.289 47.1081C501.917 47.1081 474.545 47.1081 447.417 47.1081C446.439 47.1081 445.462 47.1081 444.729 47.1081C442.04 47.3513 439.352 47.8377 436.908 48.8105C431.531 50.9992 428.11 54.8904 425.666 59.9975C424.2 63.159 423.222 66.3206 422.489 69.4821C422.244 70.2117 422 70.9413 422 71.9141C422.489 72.1573 423.222 72.1573 423.711 72.1573C435.931 72.1573 447.906 72.1573 460.126 72.1573C462.57 72.1573 462.57 72.1573 462.57 74.5892C462.57 97.4497 462.57 120.067 462.57 142.927C462.57 143.171 462.57 143.657 462.57 143.9C462.57 145.116 462.57 145.116 463.791 144.873C466.48 144.63 468.924 144.143 471.368 143.414C475.278 142.441 478.944 141.225 482.365 138.793C486.765 135.631 489.697 131.497 490.43 126.147C490.675 124.931 490.675 123.472 490.675 122.256C490.675 106.205 490.675 90.1538 490.675 74.1029C490.675 72.1573 490.675 71.9141 492.63 71.9141C497.029 71.9141 501.673 71.9141 506.072 71.9141C508.271 71.9141 510.471 71.6709 512.67 71.1845C518.78 69.7253 523.179 66.0774 526.357 60.9703C528.556 57.0791 529.778 52.9448 530.756 48.5673C531 48.0809 531 47.5945 531 47.1081Z" fill="#055B63"/>
<path d="M104.329 18.4973C104.145 18.6813 104.145 18.6813 103.961 18.6813C102.305 20.3373 100.465 21.8093 98.8089 23.4653C89.9769 32.2973 83.3529 42.6013 79.3049 54.3773C78.5689 56.5853 77.8329 58.9773 77.2809 61.3693C77.0969 61.9213 77.2809 62.2893 77.8329 62.2893C78.0169 62.2893 78.2009 62.2893 78.2009 62.4733C86.4809 64.6813 94.7609 67.0733 102.857 69.2813C104.145 69.6493 105.617 70.2013 106.905 70.3853C106.905 70.2013 106.905 69.8333 107.089 69.6493C108.193 65.4173 109.481 61.1853 111.321 57.1373C113.161 52.9053 115.185 48.8573 117.577 44.9933C120.337 40.5773 123.465 36.5293 126.961 32.6653C129.537 29.7213 132.481 27.1453 135.425 24.7533C138.001 22.7293 140.577 20.7053 143.337 19.0493C146.281 17.2093 149.409 15.5533 152.537 14.2653C156.953 12.4253 161.369 10.9533 165.969 10.0333C169.649 9.29729 173.329 8.74529 177.193 8.74529C177.929 8.74529 178.849 8.74529 179.585 8.74529C179.953 8.74529 180.137 8.74529 180.505 8.56129C176.641 7.82529 172.961 7.27329 169.097 6.72129C163.393 5.98529 157.505 5.24929 151.801 4.32929C145.729 3.40929 139.841 3.59329 133.769 4.69729C129.353 5.61729 125.121 6.90529 120.889 8.56129C118.313 9.84929 115.553 10.9533 113.161 12.4253C110.033 14.2653 107.089 16.2893 104.329 18.4973Z" fill="#055B63"/>
<path d="M177.928 109.759C176.64 111.415 175.352 112.887 174.248 114.543C172.592 116.567 170.936 118.775 169.28 120.799C167.808 122.639 166.152 124.663 164.68 126.503C162.656 129.079 160.632 131.655 158.424 134.231C156.4 136.807 154.376 139.199 152.352 141.775C152.168 141.959 151.8 142.327 152.168 142.695C153.456 142.143 154.744 141.591 156.032 141.039C158.976 139.751 161.92 138.463 164.864 137.175C168.36 135.703 172.04 134.047 175.536 132.575C178.48 131.287 181.424 129.999 184.368 128.711C187.864 127.239 191.36 125.767 195.04 124.111C197.984 122.823 201.112 121.535 204.056 120.247C205.528 119.511 207.184 119.143 208.472 118.223C208.288 118.223 208.288 118.039 208.104 118.039C198.352 115.095 188.416 112.151 178.664 109.207C178.296 109.391 178.112 109.575 177.928 109.759Z" fill="#055B63"/>
<path d="M59.4316 2.4876C61.0876 2.4876 62.5596 2.4876 64.2156 2.6716C65.8716 2.8556 67.5276 3.0396 69.1836 3.2236C72.4956 3.9596 75.8076 4.5116 79.1196 5.6156C82.7996 6.7196 86.2956 7.8236 89.6076 9.4796C93.4716 11.3196 97.1516 13.3436 100.464 15.9196C101.752 16.8396 103.04 17.5756 103.96 18.8636C104.144 18.8636 104.144 18.6796 104.328 18.6796C107.088 16.4716 110.032 14.4476 112.976 12.7916C115.552 11.3196 118.128 10.0316 120.704 8.9276C117.024 6.9036 113.16 5.2476 109.112 3.9596C102.672 1.9356 96.0476 0.647602 89.2396 0.279602C87.0316 0.0956016 85.0076 0.0956016 82.7996 0.279602C79.8556 0.463602 76.9116 0.831602 73.7836 1.0156C69.1836 1.3836 64.5836 1.7516 60.1676 2.3036C59.9836 2.4876 59.6156 2.3036 59.4316 2.4876Z" fill="#C62829"/>
<path d="M69.5529 35.4245C66.6089 33.4005 63.4809 32.4805 59.9849 32.4805C56.4889 32.4805 53.5449 33.7685 51.1529 35.9765C48.7609 38.0005 47.1049 40.5765 45.6329 43.3365C44.3449 45.7285 43.4249 48.1205 42.5049 50.6965C42.5049 50.8805 42.6889 50.8805 42.8729 50.8805C43.9769 50.6965 45.0809 50.5125 46.3689 50.3285C50.6009 49.7765 54.8329 49.2245 59.0649 48.4885C62.3769 47.9365 65.8729 47.5685 69.1849 47.0165C69.5529 47.0165 69.9209 46.8325 69.9209 46.2805C70.8409 43.8885 71.9449 41.6805 73.0489 39.2885C73.0489 38.9205 72.8649 38.5525 72.6809 38.1845C71.5769 37.2645 70.6569 36.1605 69.5529 35.4245Z" fill="#C62829"/>
<path d="M59.4342 2.48616C59.6182 2.11816 60.1702 2.48616 60.3542 2.11816C59.2502 2.11816 58.3302 2.30216 57.4102 2.30216C57.9622 2.67016 58.6982 2.48616 59.4342 2.48616Z" fill="#D84848"/>
<path d="M132.664 73.8798C128.432 81.4238 124.016 88.7838 119.048 95.9598C119.048 96.1438 118.864 96.3278 118.68 96.5118L118.496 96.6958C116.656 99.6398 114.448 102.584 112.424 105.344C107.456 112.336 102.304 119.328 97.1522 126.136C96.9682 126.32 96.7842 126.504 96.7842 126.688C94.2082 130.184 91.6322 133.496 89.0562 136.808C88.8722 137.176 88.6882 137.36 88.5042 137.728C83.9042 143.8 79.3042 149.872 74.5202 155.76C73.9682 156.496 73.7842 157.048 73.7842 157.784C73.7842 160.728 73.7842 163.672 73.7842 166.616C73.7842 166.984 73.7842 167.536 73.7842 167.904C73.7842 173.24 73.7842 178.76 73.7842 184.096C73.7842 185.016 74.1522 185.384 74.8882 185.936C84.4562 190.72 93.8402 195.688 103.408 200.656C103.776 200.288 103.592 199.736 103.592 199.368C103.592 195.32 103.592 191.088 103.592 187.04C103.592 181.888 103.592 176.736 103.592 171.584C103.592 171.032 103.776 170.48 104.144 169.928C105.432 168.272 106.72 166.616 108.008 164.96C111.136 160.912 114.264 156.68 117.576 152.632C120.888 148.216 124.384 143.8 127.696 139.384C131.56 134.232 135.424 129.08 139.288 123.744C143.704 117.488 148.304 111.232 152.536 104.976C156.216 99.6398 159.712 94.1198 163.024 88.4158C165.784 83.6318 168.544 78.8478 170.752 73.8798C172.408 70.3838 173.88 66.7038 174.8 63.0238C175.536 60.0798 176.088 57.1358 176.088 54.1918C176.088 53.4558 175.904 52.5358 175.904 51.7998C175.72 49.9598 175.352 48.1198 174.616 46.4638C173.88 44.9918 173.144 43.5198 171.672 42.4158C169.832 41.1278 167.992 40.7598 165.784 40.9438C163.576 41.1278 161.552 41.8638 159.528 42.7838C157.32 44.0718 155.48 45.5438 153.824 47.5678C151.432 50.3278 149.776 53.4558 148.488 56.5838C146.832 60.2638 145.728 64.1278 144.624 68.1758C144.44 69.0958 144.44 69.0958 143.336 69.0958C140.576 69.0958 138 69.4638 135.24 69.2798H135.056C134.504 70.9358 133.584 72.4078 132.664 73.8798Z" fill="#055B63"/>
<path d="M113.159 78.6648C110.583 82.7128 107.455 86.2088 104.143 89.7048C103.407 90.4408 102.487 91.1768 101.751 91.9128C101.015 92.6488 100.095 93.3848 99.1747 94.1208C96.2307 96.5128 93.1027 98.7208 89.9747 100.745C85.7427 103.321 81.3267 105.713 76.9107 108.105C73.7827 109.761 70.6547 111.233 67.3427 112.705C62.9267 114.729 58.5107 116.753 54.0947 118.777C51.7027 119.881 49.3107 120.985 46.9187 122.089C45.9987 122.457 45.2627 123.009 44.3427 123.377C43.7907 123.561 43.7907 123.929 44.3427 124.113C44.5267 124.113 44.7107 124.297 44.7107 124.297C47.6547 125.033 50.5987 125.953 53.3587 126.873C58.6947 128.529 64.0307 130.001 69.3667 131.473C74.7027 132.945 79.8547 134.417 85.1907 136.073C86.2947 136.441 87.5827 136.625 88.5027 137.177C91.2627 133.865 93.8387 130.553 96.2307 127.057C88.3187 124.849 80.5907 122.641 72.6787 120.249H72.4947C72.3107 120.065 71.9427 120.249 71.9427 119.881C71.9427 119.513 72.1267 119.513 72.4947 119.329C75.2547 118.041 78.0147 116.753 80.7747 115.465C88.8707 111.785 97.1507 108.105 105.247 103.873C109.295 101.665 113.343 99.4568 117.391 97.0648C117.575 96.8808 117.943 96.8808 118.127 96.6968C118.127 96.5128 118.311 96.5128 118.311 96.5128C118.311 96.3288 118.495 96.3288 118.679 96.3288C123.463 89.1528 128.063 81.7928 132.295 74.2488C133.215 72.7768 134.135 71.1208 134.687 69.4648C129.903 69.6488 125.119 69.8328 120.335 70.0168C119.231 70.0168 118.127 70.2008 117.023 70.2008C116.287 72.9608 114.815 75.9048 113.159 78.6648Z" fill="#C62829"/>
<path d="M118.863 96.512C119.047 96.328 119.231 96.144 119.231 95.96C119.047 95.96 118.863 95.96 118.863 96.144C118.863 96.328 118.863 96.328 118.863 96.512Z" fill="#938587"/>
<path d="M118.495 96.6965C118.679 96.3285 118.679 96.3285 118.679 96.1445C118.495 96.1445 118.495 96.1445 118.495 96.3285C118.495 96.5125 118.495 96.6965 118.495 96.6965Z" fill="#D6CBCC"/>
</svg>
