<svg width="1093" height="290" viewBox="0 0 1093 290" fill="none" xmlns="http://www.w3.org/2000/svg">
<path d="M83.7482 134.732C85.2142 136.799 87.4095 138.363 90.3451 139.427L86.1478 152.21C80.6814 151.543 76.2872 150.012 72.9578 147.617C69.6247 145.219 67.1632 141.49 65.5624 136.43C58.4987 146.95 48.0438 152.21 34.1864 152.21C23.7934 152.21 15.603 149.284 9.60792 143.423C3.61278 137.564 0.615234 129.91 0.615234 120.45C0.615234 109.263 4.6448 100.676 12.7039 94.6831C20.7631 88.6904 32.188 85.6941 46.9753 85.6941H63.1592V77.9039C63.1592 70.4496 61.3614 65.1203 57.7657 61.9235C54.1702 58.7267 48.6382 57.1302 41.1807 57.1302C33.4535 57.1302 23.994 58.9964 12.8023 62.7254L8.20759 49.3404C21.2627 44.547 33.3878 42.1486 44.5794 42.1486C56.9671 42.1486 66.2297 45.1813 72.3561 51.2359C78.4825 57.2978 81.5493 65.9186 81.5493 77.1056V125.248C81.553 129.505 82.2823 132.665 83.7482 134.732ZM63.1665 122.047V97.8762H49.3785C29.9272 97.8762 20.2015 105.067 20.2015 119.448C20.2015 125.71 21.7294 130.434 24.7963 133.631C27.8595 136.824 32.3923 138.428 38.3874 138.428C48.9117 138.428 57.1714 132.968 63.1665 122.047Z" fill="white"/>
<path d="M143.099 18.4859C140.703 20.95 139.503 24.7774 139.503 29.9718V44.5524H165.084L163.086 58.7357H139.506V149.824H121.12V58.7357H102.336V44.5524H121.12V30.1686C121.12 21.114 124.015 13.8237 129.813 8.29764C135.608 2.77161 143.704 0.00854492 154.093 0.00854492C158.888 0.00854492 163.184 0.442355 166.984 1.30626C170.78 2.17377 174.879 3.5371 179.273 5.39974L173.479 18.7848C167.484 16.1238 161.353 14.7897 155.092 14.7897C149.494 14.7897 145.498 16.0254 143.099 18.4859Z" fill="white"/>
<path d="M210.044 18.4859C207.648 20.95 206.448 24.7774 206.448 29.9718V44.5524H232.03L230.031 58.7357H206.452V149.824H188.065V58.7357H169.281V44.5524H188.065V30.1686C188.065 21.114 190.961 13.8237 196.759 8.29764C202.553 2.77161 210.649 0.00854492 221.038 0.00854492C225.833 0.00854492 230.13 0.442355 233.929 1.30626C237.725 2.17377 241.824 3.5371 246.219 5.39974L240.424 18.7848C234.429 16.1238 228.299 14.7897 222.037 14.7897C216.44 14.7897 212.443 16.0254 210.044 18.4859Z" fill="white"/>
<path d="M331.147 56.525C337.407 66.1118 340.54 79.6315 340.54 97.0779C340.54 113.591 336.94 126.91 329.749 137.025C322.554 147.147 312.363 152.207 299.175 152.207C287.452 152.207 278.258 148.212 271.596 140.222V190.161L253.21 192.362V44.5434H268.996L270.397 58.7268C274.259 53.4012 278.919 49.3076 284.385 46.4425C289.848 43.5811 295.576 42.1486 301.571 42.1486C315.024 42.1448 324.881 46.9383 331.147 56.525ZM320.754 97.0779C320.754 70.1798 312.825 56.7292 296.973 56.7292C291.777 56.7292 287.047 58.2601 282.784 61.3221C278.521 64.3876 274.79 68.3135 271.592 73.1069V124.442C274.254 128.572 277.588 131.732 281.584 133.931C285.581 136.129 289.975 137.222 294.774 137.222C312.089 137.225 320.754 123.844 320.754 97.0779Z" fill="white"/>
<path d="M443.051 134.732C444.517 136.799 446.712 138.363 449.648 139.427L445.45 152.21C439.983 151.543 435.59 150.012 432.26 147.617C428.927 145.219 426.466 141.49 424.864 136.43C417.802 146.95 407.346 152.21 393.488 152.21C383.095 152.21 374.906 149.284 368.911 143.423C362.916 137.564 359.918 129.91 359.918 120.45C359.918 109.263 363.947 100.676 372.007 94.6831C380.065 88.6904 391.491 85.6941 406.277 85.6941H422.462V77.9039C422.462 70.4496 420.663 65.1203 417.069 61.9235C413.473 58.7267 407.94 57.1302 400.483 57.1302C392.755 57.1302 383.297 58.9964 372.105 62.7254L367.51 49.3404C380.565 44.547 392.69 42.1486 403.881 42.1486C416.27 42.1486 425.532 45.1813 431.658 51.2359C437.785 57.2978 440.852 65.9186 440.852 77.1056V125.248C440.855 129.505 441.585 132.665 443.051 134.732ZM422.469 122.047V97.8762H408.681C389.23 97.8762 379.504 105.067 379.504 119.448C379.504 125.71 381.032 130.434 384.099 133.631C387.162 136.824 391.694 138.428 397.689 138.428C408.21 138.428 416.473 132.968 422.469 122.047Z" fill="white"/>
<path d="M556.56 56.525C562.822 66.1118 565.954 79.6315 565.954 97.0779C565.954 113.591 562.355 126.91 555.16 137.025C547.965 147.147 537.773 152.207 524.587 152.207C512.862 152.207 503.669 148.212 497.007 140.222V190.161L478.62 192.362V44.5434H494.407L495.807 58.7268C499.669 53.4012 504.329 49.3076 509.796 46.4425C515.258 43.5811 520.987 42.1486 526.983 42.1486C540.439 42.1448 550.296 46.9383 556.56 56.525ZM546.167 97.0779C546.167 70.1798 538.24 56.7292 522.388 56.7292C517.191 56.7292 512.461 58.2601 508.199 61.3221C503.935 64.3876 500.205 68.3135 497.007 73.1069V124.442C499.669 128.572 503.002 131.732 506.998 133.931C510.995 136.129 515.389 137.222 520.189 137.222C537.502 137.225 546.167 123.844 546.167 97.0779Z" fill="white"/>
<path d="M668.466 134.732C669.932 136.799 672.13 138.363 675.062 139.427L670.869 152.21C665.402 151.543 661.009 150.012 657.679 147.617C654.35 145.219 651.885 141.49 650.288 136.43C643.224 146.95 632.765 152.21 618.912 152.21C608.519 152.21 600.325 149.284 594.333 143.423C588.334 137.564 585.337 129.91 585.337 120.45C585.337 109.263 589.366 100.676 597.426 94.6831C605.484 88.6904 616.913 85.6941 631.696 85.6941H647.881V77.9039C647.881 70.4496 646.082 65.1203 642.487 61.9235C638.891 58.7267 633.359 57.1302 625.902 57.1302C618.174 57.1302 608.716 58.9964 597.524 62.7254L592.929 49.3404C605.984 44.547 618.105 42.1486 629.3 42.1486C641.689 42.1486 650.951 45.1813 657.077 51.2359C663.203 57.2978 666.271 65.9186 666.271 77.1056V125.248C666.267 129.505 667 132.665 668.466 134.732ZM647.881 122.047V97.8762H634.097C614.641 97.8762 604.92 105.067 604.92 119.448C604.92 125.71 606.447 130.434 609.514 133.631C612.581 136.828 617.11 138.428 623.105 138.428C633.626 138.428 641.889 132.968 647.881 122.047Z" fill="white"/>
<path d="M718.827 128.458C721.488 131.123 722.823 134.386 722.823 138.25C722.823 142.114 721.492 145.408 718.827 148.136C716.16 150.862 712.827 152.229 708.834 152.229C704.966 152.229 701.705 150.862 699.039 148.136C696.373 145.408 695.043 142.114 695.043 138.25C695.043 134.386 696.373 131.123 699.039 128.458C701.701 125.798 704.966 124.464 708.834 124.464C712.827 124.467 716.157 125.798 718.827 128.458Z" fill="white"/>
<path d="M805.555 44.8423C810.751 46.6393 815.748 49.5372 820.543 53.5324L811.751 65.1167C808.021 62.4558 804.384 60.491 800.858 59.2261C797.332 57.9613 793.43 57.327 789.171 57.327C780.641 57.327 774.015 60.7242 769.286 67.5152C764.552 74.3061 762.193 84.3633 762.193 97.6794C762.193 110.994 764.523 120.819 769.187 127.143C773.847 133.467 780.507 136.632 789.171 136.632C793.299 136.632 797.095 136.001 800.56 134.732C804.02 133.467 807.885 131.437 812.152 128.641L820.547 140.626C810.953 148.35 800.227 152.21 788.373 152.21C774.118 152.21 762.893 147.421 754.699 137.83C746.508 128.244 742.409 114.994 742.409 98.0796C742.409 86.8926 744.277 77.1056 748.007 68.7145C751.73 60.327 757.029 53.8021 763.892 49.14C770.751 44.4814 778.909 42.1486 788.373 42.1486C794.63 42.1449 800.358 43.0453 805.555 44.8423Z" fill="white"/>
<path d="M915.567 56.9296C923.758 66.7862 927.857 80.1673 927.857 97.0812C927.857 108.002 925.986 117.626 922.259 125.943C918.532 134.27 913.135 140.728 906.075 145.318C899.012 149.914 890.621 152.21 880.898 152.21C866.107 152.21 854.584 147.286 846.328 137.43C838.065 127.577 833.94 114.192 833.94 97.2781C833.94 86.3612 835.804 76.7375 839.534 68.4156C843.261 60.0937 848.658 53.6344 855.719 49.0415C862.782 44.445 871.238 42.1486 881.099 42.1486C895.879 42.1486 907.373 47.0767 915.567 56.9296ZM853.717 97.2781C853.717 124.045 862.775 137.43 880.895 137.43C899.012 137.43 908.07 123.979 908.07 97.0779C908.07 70.311 899.077 56.926 881.095 56.926C862.841 56.9296 853.717 70.384 853.717 97.2781Z" fill="white"/>
<path d="M1084.73 50.8386C1089.92 56.6308 1092.52 64.4569 1092.52 74.3098V149.815H1074.14V76.9051C1074.14 63.3197 1069.2 56.5287 1059.34 56.5287C1054.15 56.5287 1049.75 58.0269 1046.16 61.0232C1042.56 64.0195 1038.69 68.7108 1034.57 75.1044V149.812H1016.18V76.9051C1016.18 63.3197 1011.25 56.5287 1001.39 56.5287C996.06 56.5287 991.597 58.0597 988.001 61.1252C984.406 64.1908 980.61 68.8493 976.612 75.1081V149.815H958.227V44.547H974.013L975.61 59.9259C983.468 48.0756 993.596 42.1486 1005.98 42.1486C1012.51 42.1486 1018.07 43.8144 1022.67 47.1424C1027.27 50.4741 1030.57 55.1326 1032.56 61.1252C1036.69 55.0014 1041.26 50.3064 1046.25 47.0403C1051.25 43.7779 1057.14 42.1486 1063.94 42.1486C1072.6 42.1486 1079.53 45.0427 1084.73 50.8386Z" fill="white"/>
<path d="M51.9314 232.131L41.8483 273.311H35.7036L26.5687 236.382L17.2734 273.311H11.209L0.892578 232.131H5.61866L14.44 269.768L24.0489 232.131H29.249L38.7012 269.848L47.446 232.131H51.9314Z" fill="white"/>
<path d="M88.9528 234.61C90.9476 236.841 91.9467 239.925 91.9467 243.862V273.308H87.3811V244.493C87.3811 238.143 84.781 234.964 79.5809 234.964C76.9553 234.964 74.6323 235.685 72.6084 237.133C70.5845 238.577 68.6591 240.69 66.8212 243.468V273.311H62.252V215.361L66.8212 214.809V238.981C70.497 233.837 75.0371 231.267 80.4488 231.267C84.121 231.264 86.9581 232.379 88.9528 234.61Z" fill="white"/>
<path d="M137.317 254.49H109.825C110.088 259.845 111.361 263.821 113.643 266.417C115.926 269.015 118.935 270.314 122.665 270.314C124.817 270.314 126.721 269.985 128.376 269.326C130.031 268.67 131.83 267.631 133.769 266.213L135.895 269.129C133.846 270.809 131.745 272.071 129.594 272.905C127.443 273.744 125.05 274.166 122.428 274.166C116.966 274.166 112.688 272.304 109.589 268.578C106.489 264.853 104.942 259.684 104.942 253.068C104.942 248.713 105.613 244.892 106.952 241.608C108.29 238.33 110.208 235.783 112.702 233.972C115.197 232.16 118.096 231.255 121.407 231.255C126.655 231.255 130.648 233.024 133.379 236.57C136.111 240.113 137.475 244.984 137.475 251.176C137.475 252.336 137.42 253.44 137.317 254.49ZM132.985 249.766C132.985 245.143 132.027 241.535 130.108 238.936C128.19 236.337 125.342 235.039 121.56 235.039C118.147 235.039 115.39 236.351 113.29 238.976C111.189 241.605 110.033 245.588 109.825 250.943H132.985V249.766Z" fill="white"/>
<path d="M170.554 231.73L169.689 236.06C168.534 235.746 167.326 235.586 166.065 235.586C163.279 235.586 161.036 236.596 159.329 238.619C157.623 240.642 156.189 243.803 155.037 248.107V273.302H150.468V232.124H154.406L154.8 241.334C155.902 237.923 157.411 235.389 159.329 233.738C161.244 232.083 163.622 231.255 166.459 231.255C168.089 231.26 169.453 231.416 170.554 231.73Z" fill="white"/>
<path d="M206.554 254.49H179.062C179.324 259.845 180.597 263.821 182.883 266.417C185.17 269.012 188.175 270.314 191.902 270.314C194.053 270.314 195.956 269.985 197.613 269.326C199.268 268.67 201.065 267.631 203.006 266.213L205.132 269.129C203.083 270.809 200.982 272.071 198.83 272.905C196.675 273.744 194.287 274.166 191.661 274.166C186.198 274.166 181.92 272.304 178.821 268.578C175.722 264.853 174.175 259.684 174.175 253.068C174.175 248.713 174.847 244.892 176.184 241.608C177.522 238.33 179.441 235.783 181.936 233.972C184.43 232.16 187.329 231.255 190.639 231.255C195.891 231.255 199.881 233.024 202.612 236.57C205.343 240.113 206.707 244.984 206.707 251.176C206.707 252.336 206.656 253.44 206.554 254.49ZM202.222 249.766C202.222 245.143 201.262 241.535 199.344 238.936C197.427 236.337 194.578 235.039 190.8 235.039C187.384 235.039 184.63 236.351 182.53 238.976C180.429 241.605 179.273 245.588 179.062 250.943H202.222V249.766Z" fill="white"/>
<path d="M268.66 236.884C271.731 240.638 273.269 245.876 273.269 252.595C273.269 259.261 271.705 264.521 268.584 268.381C265.458 272.238 261.191 274.166 255.784 274.166C250.321 274.166 246.058 272.268 242.984 268.462C239.91 264.657 238.375 259.422 238.375 252.751C238.375 248.396 239.082 244.59 240.501 241.334C241.92 238.079 243.939 235.586 246.569 233.855C249.195 232.119 252.291 231.255 255.864 231.255C261.323 231.255 265.586 233.133 268.66 236.884ZM246.565 239.599C244.359 242.592 243.258 246.974 243.258 252.748C243.258 258.467 244.344 262.826 246.525 265.819C248.702 268.808 251.787 270.306 255.781 270.306C259.774 270.306 262.884 268.808 265.116 265.819C267.347 262.826 268.463 258.419 268.463 252.59C268.463 246.871 267.373 242.526 265.196 239.56C263.015 236.596 259.905 235.112 255.86 235.112C251.867 235.112 248.771 236.61 246.565 239.599Z" fill="white"/>
<path d="M314.895 236.804C317.39 240.507 318.637 245.741 318.637 252.514C318.637 259.127 317.285 264.39 314.582 268.298C311.876 272.209 308.003 274.163 302.964 274.163C300.495 274.163 298.263 273.652 296.269 272.629C294.273 271.604 292.593 270.226 291.229 268.495V288.805L286.659 289.436V232.119H290.598L290.991 238.105C292.512 235.954 294.365 234.273 296.546 233.064C298.723 231.857 301.1 231.255 303.675 231.255C308.66 231.255 312.401 233.108 314.895 236.804ZM310.76 265.819C312.755 262.826 313.754 258.391 313.754 252.514C313.754 240.861 310.104 235.032 302.807 235.032C300.339 235.032 298.198 235.662 296.385 236.924C294.573 238.185 292.856 239.916 291.226 242.122V264.011C293.956 268.211 297.577 270.314 302.096 270.314C305.877 270.31 308.766 268.812 310.76 265.819Z" fill="white"/>
<path d="M361.486 254.49H333.993C334.256 259.845 335.528 263.821 337.815 266.417C340.101 269.012 343.103 270.314 346.834 270.314C348.984 270.314 350.888 269.985 352.544 269.326C354.2 268.67 355.997 267.631 357.938 266.213L360.063 269.129C358.014 270.809 355.914 272.071 353.762 272.905C351.607 273.744 349.219 274.166 346.593 274.166C341.13 274.166 336.852 272.304 333.753 268.578C330.653 264.853 329.106 259.684 329.106 253.068C329.106 248.713 329.778 244.892 331.116 241.608C332.454 238.33 334.373 235.783 336.867 233.972C339.362 232.16 342.261 231.255 345.571 231.255C350.822 231.255 354.812 233.024 357.544 236.57C360.275 240.113 361.639 244.984 361.639 251.176C361.642 252.336 361.592 253.44 361.486 254.49ZM357.153 249.766C357.153 245.143 356.194 241.535 354.276 238.936C352.358 236.337 349.51 235.039 345.729 235.039C342.315 235.039 339.559 236.351 337.458 238.976C335.358 241.605 334.201 245.588 333.99 250.943H357.15L357.153 249.766Z" fill="white"/>
<path d="M394.729 231.73L393.86 236.06C392.705 235.746 391.497 235.586 390.236 235.586C387.454 235.586 385.207 236.596 383.5 238.619C381.793 240.642 380.36 243.803 379.208 248.107V273.302H374.639V232.124H378.577L378.971 241.334C380.076 237.923 381.582 235.389 383.5 233.738C385.415 232.083 387.793 231.255 390.63 231.255C392.256 231.26 393.624 231.416 394.729 231.73Z" fill="white"/>
<path d="M427.692 268.815C428.242 269.763 429.12 270.47 430.332 270.94L429.306 274.166C427.418 273.799 425.959 273.091 424.935 272.041C423.91 270.992 423.242 269.392 422.925 267.241C420.092 271.863 415.811 274.166 410.085 274.166C406.147 274.166 403.033 273.051 400.75 270.82C398.467 268.593 397.322 265.611 397.322 261.886C397.322 257.632 398.832 254.355 401.851 252.044C404.871 249.733 409.061 248.581 414.414 248.581H422.291V244.564C422.291 241.258 421.554 238.855 420.088 237.357C418.618 235.863 416.175 235.115 412.762 235.115C409.611 235.115 405.881 235.903 401.578 237.474L400.396 234.011C405.016 232.174 409.349 231.255 413.393 231.255C422.371 231.255 426.86 235.612 426.86 244.323V264.164C426.864 266.322 427.14 267.872 427.692 268.815ZM422.294 263.224V251.887H415.128C410.927 251.887 407.726 252.704 405.52 254.326C403.313 255.955 402.212 258.394 402.212 261.649C402.212 264.485 402.971 266.664 404.495 268.184C406.015 269.709 408.142 270.47 410.877 270.47C415.811 270.47 419.618 268.058 422.294 263.224Z" fill="white"/>
<path d="M462.229 271.567C459.603 273.301 456.715 274.165 453.564 274.165C450.414 274.165 447.945 273.236 446.161 271.37C444.375 269.507 443.484 266.816 443.484 263.3V235.822H436.553V232.122H443.484V222.281L448.054 221.729V232.126H458.688L458.137 235.83H448.054V263.073C448.054 265.487 448.554 267.283 449.549 268.464C450.545 269.642 452.069 270.233 454.118 270.233C456.218 270.233 458.319 269.631 460.419 268.424L462.229 271.567Z" fill="white"/>
<path d="M496.376 236.884C499.447 240.638 500.982 245.876 500.982 252.595C500.982 259.261 499.421 264.521 496.296 268.381C493.171 272.238 488.904 274.166 483.496 274.166C478.033 274.166 473.771 272.268 470.697 268.462C467.626 264.657 466.091 259.422 466.091 252.751C466.091 248.396 466.798 244.59 468.216 241.334C469.635 238.079 471.655 235.586 474.281 233.855C476.906 232.119 480.002 231.255 483.576 231.255C489.035 231.255 493.302 233.133 496.376 236.884ZM474.281 239.599C472.078 242.592 470.973 246.974 470.973 252.748C470.973 258.467 472.064 262.826 474.241 265.819C476.421 268.808 479.503 270.306 483.496 270.306C487.485 270.306 490.596 268.808 492.831 265.819C495.063 262.826 496.179 258.419 496.179 252.59C496.179 246.871 495.088 242.526 492.911 239.56C490.731 236.596 487.621 235.112 483.576 235.112C479.586 235.112 476.487 236.61 474.281 239.599Z" fill="white"/>
<path d="M534.459 231.73L533.591 236.06C532.435 235.746 531.228 235.586 529.97 235.586C527.183 235.586 524.941 236.596 523.234 238.619C521.527 240.642 520.098 243.803 518.942 248.107V273.302H514.376V232.124H518.314L518.708 241.334C519.81 237.923 521.32 235.389 523.237 233.738C525.156 232.083 527.53 231.255 530.367 231.255C531.994 231.26 533.357 231.416 534.459 231.73Z" fill="white"/>
<path d="M559.431 232.397C561.531 233.158 563.58 234.3 565.575 235.823L563.449 238.812C561.557 237.504 559.773 236.545 558.092 235.94C556.411 235.334 554.574 235.032 552.578 235.032C549.847 235.032 547.641 235.662 545.959 236.924C544.279 238.185 543.44 239.866 543.44 241.965C543.44 243.959 544.162 245.509 545.606 246.609C547.05 247.71 549.661 248.763 553.442 249.758C558.114 250.965 561.491 252.485 563.562 254.323C565.637 256.163 566.676 258.788 566.676 262.196C566.676 265.874 565.258 268.786 562.421 270.934C559.587 273.088 556.043 274.163 551.787 274.163C548.64 274.163 545.879 273.704 543.516 272.785C541.153 271.866 538.998 270.568 537.059 268.889L539.578 265.975C541.416 267.445 543.294 268.534 545.209 269.242C547.123 269.949 549.293 270.306 551.707 270.306C554.752 270.306 557.21 269.61 559.073 268.217C560.941 266.828 561.874 264.9 561.874 262.432C561.874 260.753 561.557 259.389 560.925 258.339C560.295 257.289 559.219 256.382 557.695 255.62C556.174 254.862 553.942 254.085 550.999 253.298C546.642 252.146 543.506 250.699 541.588 248.967C539.669 247.236 538.714 244.929 538.714 242.042C538.714 239.993 539.315 238.145 540.527 236.493C541.733 234.839 543.374 233.552 545.45 232.633C547.524 231.715 549.847 231.255 552.418 231.255C554.993 231.26 557.326 231.638 559.431 232.397Z" fill="white"/>
<path d="M648.869 234.642C650.783 236.898 651.743 239.971 651.743 243.853V273.299H647.173V244.484C647.173 241.228 646.557 238.827 645.324 237.277C644.088 235.728 642.367 234.951 640.164 234.951C637.852 234.951 635.781 235.688 633.943 237.157C632.101 238.626 630.318 240.725 628.586 243.456V273.299H624.016V244.484C624.016 241.228 623.397 238.827 622.164 237.277C620.928 235.728 619.207 234.951 617.004 234.951C614.645 234.951 612.54 235.688 610.702 237.157C608.861 238.626 607.103 240.725 605.426 243.456V273.299H600.856V232.119H604.795L605.185 239.129C606.764 236.662 608.624 234.733 610.779 233.341C612.931 231.949 615.294 231.255 617.865 231.255C620.494 231.255 622.697 231.977 624.48 233.42C626.263 234.864 627.473 236.873 628.105 239.443C629.731 236.873 631.635 234.864 633.812 233.42C635.992 231.977 638.396 231.255 641.022 231.255C644.34 231.255 646.954 232.382 648.869 234.642Z" fill="white"/>
<path d="M697.111 254.49H669.622C669.885 259.845 671.157 263.821 673.444 266.417C675.727 269.015 678.732 270.314 682.463 270.314C684.618 270.314 686.521 269.985 688.173 269.326C689.825 268.67 691.623 267.631 693.567 266.213L695.692 269.129C693.643 270.809 691.543 272.071 689.391 272.905C687.236 273.744 684.847 274.166 682.222 274.166C676.758 274.166 672.481 272.304 669.382 268.578C666.282 264.853 664.735 259.684 664.735 253.068C664.735 248.713 665.407 244.892 666.745 241.608C668.083 238.33 670.002 235.783 672.492 233.972C674.991 232.16 677.89 231.255 681.2 231.255C686.448 231.255 690.441 233.024 693.173 236.57C695.9 240.113 697.268 244.984 697.268 251.176C697.271 252.336 697.221 253.44 697.111 254.49ZM692.782 249.766C692.782 245.143 691.823 241.535 689.908 238.936C687.991 236.337 685.138 235.039 681.361 235.039C677.944 235.039 675.191 236.351 673.087 238.976C670.986 241.605 669.83 245.588 669.622 250.943H692.782V249.766Z" fill="white"/>
<path d="M739.335 254.49H711.843C712.105 259.845 713.382 263.821 715.665 266.417C717.952 269.015 720.956 270.314 724.686 270.314C726.838 270.314 728.742 269.985 730.394 269.326C732.049 268.67 733.848 267.631 735.787 266.213L737.917 269.129C735.867 270.809 733.767 272.071 731.611 272.905C729.456 273.744 727.071 274.166 724.442 274.166C718.983 274.166 714.703 272.304 711.602 268.578C708.503 264.853 706.957 259.684 706.957 253.068C706.957 248.713 707.628 244.892 708.966 241.608C710.305 238.33 712.222 235.783 714.717 233.972C717.211 232.16 720.11 231.255 723.422 231.255C728.669 231.255 732.662 233.024 735.393 236.57C738.121 240.113 739.488 244.984 739.488 251.176C739.493 252.336 739.438 253.44 739.335 254.49ZM735 249.766C735 245.143 734.04 241.535 732.126 238.936C730.211 236.337 727.36 235.039 723.578 235.039C720.162 235.039 717.408 236.351 715.308 238.976C713.207 241.605 712.047 245.588 711.84 250.943H735V249.766Z" fill="white"/>
<path d="M771.236 271.567C768.607 273.301 765.719 274.165 762.571 274.165C759.421 274.165 756.952 273.236 755.165 271.37C753.382 269.507 752.489 266.816 752.489 263.3V235.822H745.56V232.122H752.489V222.281L757.057 221.729V232.126H767.691L767.141 235.83H757.057V263.073C757.057 265.487 757.557 267.283 758.556 268.464C759.552 269.642 761.072 270.233 763.123 270.233C765.223 270.233 767.324 269.631 769.427 268.424L771.236 271.567Z" fill="white"/>
<path d="M827.748 268.812C828.299 269.759 829.182 270.467 830.388 270.937L829.368 274.166C827.475 273.799 826.02 273.091 824.995 272.041C823.971 270.992 823.299 269.392 822.986 267.241C820.153 271.863 815.871 274.166 810.146 274.166C806.208 274.166 803.093 273.051 800.811 270.82C798.525 268.593 797.387 265.611 797.387 261.886C797.387 257.632 798.892 254.355 801.912 252.044C804.931 249.733 809.121 248.581 814.475 248.581H822.352V244.564C822.352 241.258 821.614 238.855 820.149 237.357C818.679 235.863 816.236 235.115 812.823 235.115C809.672 235.115 805.942 235.903 801.638 237.474L800.456 234.011C805.081 232.174 809.41 231.255 813.453 231.255C822.432 231.255 826.92 235.612 826.92 244.323V264.164C826.92 266.319 827.194 267.867 827.748 268.812ZM822.352 263.22V251.884H815.182C810.981 251.884 807.78 252.7 805.573 254.323C803.367 255.952 802.266 258.391 802.266 261.645C802.266 264.482 803.024 266.661 804.548 268.181C806.073 269.704 808.199 270.467 810.93 270.467C815.868 270.467 819.675 268.053 822.352 263.22Z" fill="white"/>
<path d="M850.354 220.238C849.172 221.342 848.581 223.099 848.581 225.512V232.125H859.453L858.821 235.827H848.578V273.303H844.009V235.832H836.843V232.128H844.009V225.359C844.009 222.103 845.019 219.53 847.043 217.642C849.067 215.754 851.86 214.809 855.434 214.809C858.635 214.809 861.841 215.547 865.043 217.012L863.467 220.397C860.736 219.191 858.136 218.59 855.667 218.59C853.308 218.587 851.535 219.14 850.354 220.238Z" fill="white"/>
<path d="M892.532 217.723L890.88 221.028C887.517 219.454 884.265 218.67 881.111 218.67C878.434 218.67 876.49 219.206 875.28 220.282C874.072 221.36 873.47 223.158 873.47 225.673V232.128H896.471V273.308H891.901V235.835H873.47V273.311H868.902V235.835H862.13V232.131H868.902V225.439C868.902 222.082 869.937 219.468 872.015 217.606C874.087 215.743 877.07 214.809 880.953 214.809C885.053 214.809 888.911 215.783 892.532 217.723Z" fill="white"/>
<path d="M914.703 272.203C913.416 270.894 912.777 268.948 912.777 266.378V215.361L917.344 214.809V266.222C917.344 268.896 918.449 270.238 920.651 270.238C921.756 270.238 922.7 270.056 923.488 269.691L924.75 273.078C923.28 273.811 921.701 274.178 920.02 274.178C917.763 274.172 915.994 273.519 914.703 272.203Z" fill="white"/>
<path d="M940.267 214.964C940.898 215.595 941.212 216.382 941.212 217.326C941.212 218.269 940.898 219.057 940.267 219.684C939.637 220.311 938.798 220.631 937.747 220.631C936.752 220.631 935.935 220.314 935.305 219.684C934.673 219.053 934.359 218.266 934.359 217.326C934.359 216.378 934.673 215.59 935.305 214.964C935.935 214.337 936.749 214.02 937.747 214.02C938.798 214.02 939.637 214.333 940.267 214.964ZM940.11 232.129V273.308H935.541V232.129H940.11Z" fill="white"/>
<path d="M983.231 268.812C983.781 269.759 984.664 270.467 985.871 270.937L984.85 274.166C982.957 273.799 981.502 273.091 980.478 272.041C979.453 270.992 978.782 269.392 978.469 267.241C975.635 271.863 971.353 274.166 965.628 274.166C961.69 274.166 958.575 273.051 956.293 270.82C954.007 268.593 952.869 265.611 952.869 261.886C952.869 257.632 954.374 254.355 957.394 252.044C960.413 249.733 964.603 248.581 969.957 248.581H977.834V244.564C977.834 241.258 977.097 238.855 975.631 237.357C974.162 235.863 971.719 235.115 968.305 235.115C965.155 235.115 961.424 235.903 957.121 237.474L955.939 234.011C960.563 232.174 964.892 231.255 968.936 231.255C977.914 231.255 982.403 235.612 982.403 244.323V264.164C982.407 266.319 982.681 267.867 983.231 268.812ZM977.837 263.22V251.884H970.669C966.468 251.884 963.265 252.7 961.059 254.323C958.857 255.952 957.752 258.391 957.752 261.645C957.752 264.482 958.51 266.661 960.035 268.181C961.559 269.704 963.684 270.467 966.416 270.467C971.353 270.467 975.162 268.053 977.837 263.22Z" fill="white"/>
<path d="M1017.77 271.567C1015.14 273.301 1012.26 274.165 1009.11 274.165C1005.96 274.165 1003.49 273.236 1001.71 271.37C999.92 269.507 999.029 266.816 999.029 263.3V235.822H992.098V232.122H999.029V222.281L1003.6 221.729V232.126H1014.23L1013.68 235.83H1003.6V263.073C1003.6 265.487 1004.1 267.283 1005.09 268.464C1006.09 269.642 1007.61 270.233 1009.66 270.233C1011.76 270.233 1013.86 269.631 1015.96 268.424L1017.77 271.567Z" fill="white"/>
<path d="M1054.01 254.49H1026.52C1026.78 259.845 1028.05 263.821 1030.34 266.417C1032.62 269.015 1035.63 270.314 1039.36 270.314C1041.51 270.314 1043.41 269.985 1045.07 269.326C1046.72 268.67 1048.52 267.631 1050.46 266.213L1052.59 269.129C1050.54 270.809 1048.44 272.071 1046.29 272.905C1044.13 273.744 1041.74 274.166 1039.12 274.166C1033.65 274.166 1029.38 272.304 1026.28 268.578C1023.17 264.853 1021.63 259.684 1021.63 253.068C1021.63 248.713 1022.3 244.892 1023.64 241.608C1024.98 238.33 1026.9 235.783 1029.39 233.972C1031.89 232.16 1034.78 231.255 1038.09 231.255C1043.34 231.255 1047.34 233.024 1050.06 236.57C1052.8 240.113 1054.16 244.984 1054.16 251.176C1054.17 252.336 1054.11 253.44 1054.01 254.49ZM1049.67 249.766C1049.67 245.143 1048.72 241.535 1046.8 238.936C1044.88 236.337 1042.03 235.039 1038.25 235.039C1034.84 235.039 1032.08 236.351 1029.98 238.976C1027.88 241.605 1026.72 245.588 1026.51 250.943H1049.67V249.766Z" fill="white"/>
<path d="M1084.26 232.397C1086.35 233.158 1088.4 234.3 1090.4 235.823L1088.27 238.812C1086.38 237.504 1084.59 236.545 1082.92 235.94C1081.24 235.334 1079.4 235.032 1077.4 235.032C1074.67 235.032 1072.46 235.662 1070.78 236.924C1069.11 238.185 1068.27 239.866 1068.27 241.965C1068.27 243.959 1068.99 245.509 1070.43 246.609C1071.88 247.713 1074.49 248.763 1078.27 249.758C1082.94 250.965 1086.32 252.485 1088.39 254.323C1090.46 256.163 1091.5 258.788 1091.5 262.196C1091.5 265.874 1090.08 268.786 1087.25 270.934C1084.42 273.088 1080.87 274.163 1076.62 274.163C1073.46 274.163 1070.71 273.704 1068.34 272.785C1065.98 271.866 1063.83 270.568 1061.89 268.889L1064.41 265.975C1066.24 267.445 1068.12 268.534 1070.04 269.242C1071.95 269.949 1074.12 270.306 1076.54 270.306C1079.58 270.306 1082.04 269.61 1083.9 268.217C1085.77 266.828 1086.7 264.9 1086.7 262.432C1086.7 260.753 1086.38 259.389 1085.75 258.339C1085.12 257.289 1084.05 256.382 1082.52 255.62C1081 254.862 1078.77 254.085 1075.83 253.298C1071.47 252.146 1068.33 250.699 1066.42 248.967C1064.5 247.236 1063.54 244.929 1063.54 242.042C1063.54 239.993 1064.14 238.145 1065.35 236.493C1066.56 234.839 1068.2 233.552 1070.28 232.633C1072.35 231.715 1074.68 231.255 1077.25 231.255C1079.82 231.255 1082.15 231.638 1084.26 232.397Z" fill="white"/>
</svg>
