<svg width="533" height="67" viewBox="0 0 533 67" fill="none" xmlns="http://www.w3.org/2000/svg">
<path d="M19.3558 30.1172C19.162 29.8635 18.9059 29.6642 18.6125 29.5383C18.319 29.4125 17.9981 29.3646 17.6807 29.399C17.3632 29.4335 17.0601 29.5493 16.8005 29.7352C16.5409 29.9211 16.3337 30.1708 16.1988 30.4602L0.201819 62.4442C0.0560888 62.7357 -0.0127174 63.0596 0.0019334 63.3852C0.0165842 63.7108 0.114206 64.0272 0.28553 64.3044C0.456853 64.5816 0.696193 64.8104 0.980823 64.9692C1.26545 65.1279 1.58593 65.2112 1.91182 65.2112H24.1868C24.5436 65.2195 24.8951 65.124 25.1986 64.9364C25.5022 64.7488 25.7447 64.4771 25.8968 64.1542C30.7018 54.2252 27.7898 39.1282 19.3558 30.1172Z" fill="url(#paint0_linear_112_62)"/>
<path d="M31.0887 1.02605C27.1027 7.15922 24.7798 14.2234 24.348 21.5253C23.9162 28.8271 25.3903 36.1158 28.6257 42.6761L39.3647 64.1541C39.5234 64.4716 39.7675 64.7387 40.0695 64.9254C40.3716 65.1121 40.7196 65.211 41.0747 65.2111H63.3457C63.6716 65.211 63.992 65.1277 64.2767 64.969C64.5613 64.8103 64.8006 64.5814 64.972 64.3042C65.1433 64.027 65.2409 63.7106 65.2556 63.385C65.2702 63.0594 65.2014 62.7355 65.0557 62.4441C65.0557 62.4441 35.0937 2.51305 34.3407 1.01405C34.1918 0.708927 33.9599 0.451946 33.6717 0.272588C33.3834 0.0932305 33.0504 -0.00124049 32.7109 1.23e-05C32.3714 0.00126509 32.0391 0.0981909 31.7522 0.279671C31.4653 0.461152 31.2353 0.719836 31.0887 1.02605Z" fill="#2684FF"/>
<path d="M292.316 26.671C292.316 34.591 295.99 40.879 310.361 43.655C318.935 45.455 320.731 46.839 320.731 49.697C320.731 52.473 318.931 54.27 312.892 54.27C305.593 54.1388 298.44 52.2032 292.071 48.636V61.536C296.399 63.659 302.114 66.027 312.729 66.027C327.753 66.027 333.714 59.327 333.714 49.37M333.714 49.37C333.714 39.98 328.733 35.57 314.689 32.55C306.932 30.835 305.054 29.121 305.054 26.671C305.054 23.571 307.83 22.262 312.974 22.262C319.18 22.262 325.304 24.14 331.101 26.753V14.423C325.543 11.893 319.489 10.6377 313.382 10.749C299.501 10.749 292.316 16.791 292.316 26.671" fill="#0052CC"/>
<path d="M485.334 11.5649V65.2109H496.765V24.3029L501.583 35.1619L517.75 65.2109H532.121V11.5649H520.69V46.1859L516.362 36.1419L503.379 11.5649H485.334Z" fill="#0052CC"/>
<path d="M412.628 11.5649H400.135V65.2109H412.628V11.5649Z" fill="#0052CC"/>
<path d="M385.72 49.37C385.72 39.98 380.739 35.57 366.695 32.55C358.938 30.835 357.06 29.121 357.06 26.671C357.06 23.571 359.836 22.262 364.98 22.262C371.186 22.262 377.31 24.14 383.107 26.753V14.423C377.548 11.893 371.494 10.6377 365.388 10.749C351.507 10.749 344.322 16.791 344.322 26.671C344.322 34.591 347.996 40.879 362.367 43.655C370.941 45.455 372.737 46.839 372.737 49.697C372.737 52.473 370.937 54.27 364.898 54.27C357.599 54.1388 350.446 52.2032 344.077 48.636V61.536C348.405 63.659 354.12 66.027 364.735 66.027C379.759 66.027 385.72 59.327 385.72 49.37Z" fill="#0052CC"/>
<path d="M195.267 11.5649V65.2109H220.945L224.988 53.6159H207.841V11.5649H195.267Z" fill="#0052CC"/>
<path d="M144.535 11.5649V23.1589H158.416V65.2109H170.99V23.1589H185.851V11.5649H144.535Z" fill="#0052CC"/>
<path d="M126.302 11.5649H109.823L91.1162 65.2109H105.402L108.054 56.1759C114.586 58.0938 121.531 58.0938 128.062 56.1759L130.714 65.2109H145.003L126.302 11.5649ZM118.062 46.5019C115.735 46.5018 113.42 46.1688 111.187 45.5129L118.062 22.1019L124.937 45.5209C122.704 46.1741 120.389 46.5044 118.062 46.5019Z" fill="#0052CC"/>
<path d="M265.212 11.5649H248.734L230.027 65.2109H244.316L246.968 56.1759C253.5 58.0938 260.445 58.0938 266.976 56.1759L269.628 65.2109H283.917L265.212 11.5649ZM256.973 46.5019C254.646 46.5018 252.331 46.1688 250.098 45.5129L256.973 22.1019L263.848 45.5209C261.615 46.1741 259.3 46.5044 256.973 46.5019Z" fill="#0052CC"/>
<path d="M457.646 11.5649H441.168L422.461 65.2109H436.75L439.402 56.1759C445.933 58.0938 452.878 58.0938 459.41 56.1759L462.062 65.2109H476.352L457.646 11.5649ZM449.402 46.5019C447.075 46.5018 444.76 46.1688 442.527 45.5129L449.402 22.1019L456.277 45.5209C454.044 46.1741 451.729 46.5044 449.402 46.5019Z" fill="#0052CC"/>
<defs>
<linearGradient id="paint0_linear_112_62" x1="28.1228" y1="35.0532" x2="11.2408" y2="64.2942" gradientUnits="userSpaceOnUse">
<stop stop-color="#0052CC"/>
<stop offset="0.923" stop-color="#2684FF"/>
</linearGradient>
</defs>
</svg>
