<svg width="341" height="211" viewBox="0 0 341 211" fill="none" xmlns="http://www.w3.org/2000/svg">
<rect width="341" height="211" fill="white"/>
<path d="M104.732 83.3C104.732 87 105.132 90 105.832 92.2C106.632 94.4 107.632 96.8 109.032 99.4C109.532 100.2 109.732 101 109.732 101.7C109.732 102.7 109.132 103.7 107.832 104.7L101.532 108.9C100.632 109.5 99.7316 109.8 98.9316 109.8C97.9316 109.8 96.9316 109.3 95.9316 108.4C94.5316 106.9 93.3316 105.3 92.3316 103.7C91.3316 102 90.3316 100.1 89.2316 97.8C81.4316 107 71.6316 111.6 59.8316 111.6C51.4316 111.6 44.7316 109.2 39.8316 104.4C34.9316 99.6 32.4316 93.2 32.4316 85.2C32.4316 76.7 35.4316 69.8 41.5316 64.6C47.6316 59.4 55.7316 56.8 66.0316 56.8C69.4316 56.8 72.9316 57.1 76.6316 57.6C80.3316 58.1 84.1316 58.9 88.1316 59.8V52.5C88.1316 44.9 86.5316 39.6 83.4316 36.5C80.2316 33.4 74.8316 31.9 67.1316 31.9C63.6316 31.9 60.0316 32.3 56.3316 33.2C52.6316 34.1 49.0316 35.2 45.5316 36.6C43.9316 37.3 42.7316 37.7 42.0316 37.9C41.3316 38.1 40.8316 38.2 40.4316 38.2C39.0316 38.2 38.3316 37.2 38.3316 35.1V30.2C38.3316 28.6 38.5316 27.4 39.0316 26.7C39.5316 26 40.4316 25.3 41.8316 24.6C45.3316 22.8 49.5316 21.3 54.4316 20.1C59.3316 18.8 64.5316 18.2 70.0316 18.2C81.9316 18.2 90.6316 20.9 96.2316 26.3C101.732 31.7 104.532 39.9 104.532 50.9V83.3H104.732ZM64.1316 98.5C67.4316 98.5 70.8316 97.9 74.4316 96.7C78.0316 95.5 81.2316 93.3 83.9316 90.3C85.5316 88.4 86.7316 86.3 87.3316 83.9C87.9316 81.5 88.3316 78.6 88.3316 75.2V71C85.4316 70.3 82.3316 69.7 79.1316 69.3C75.9316 68.9 72.8316 68.7 69.7316 68.7C63.0316 68.7 58.1316 70 54.8316 72.7C51.5316 75.4 49.9316 79.2 49.9316 84.2C49.9316 88.9 51.1316 92.4 53.6316 94.8C56.0316 97.3 59.5316 98.5 64.1316 98.5ZM144.432 109.3C142.632 109.3 141.432 109 140.632 108.3C139.832 107.7 139.132 106.3 138.532 104.4L115.032 27.1C114.432 25.1 114.132 23.8 114.132 23.1C114.132 21.5 114.932 20.6 116.532 20.6H126.332C128.232 20.6 129.532 20.9 130.232 21.6C131.032 22.2 131.632 23.6 132.232 25.5L149.032 91.7L164.632 25.5C165.132 23.5 165.732 22.2 166.532 21.6C167.332 21 168.732 20.6 170.532 20.6H178.532C180.432 20.6 181.732 20.9 182.532 21.6C183.332 22.2 184.032 23.6 184.432 25.5L200.232 92.5L217.532 25.5C218.132 23.5 218.832 22.2 219.532 21.6C220.332 21 221.632 20.6 223.432 20.6H232.732C234.332 20.6 235.232 21.4 235.232 23.1C235.232 23.6 235.132 24.1 235.032 24.7C234.932 25.3 234.732 26.1 234.332 27.2L210.232 104.5C209.632 106.5 208.932 107.8 208.132 108.4C207.332 109 206.032 109.4 204.332 109.4H195.732C193.832 109.4 192.532 109.1 191.732 108.4C190.932 107.7 190.232 106.4 189.832 104.4L174.332 39.9L158.932 104.3C158.432 106.3 157.832 107.6 157.032 108.3C156.232 109 154.832 109.3 153.032 109.3H144.432ZM272.932 112C267.732 112 262.532 111.4 257.532 110.2C252.532 109 248.632 107.7 246.032 106.2C244.432 105.3 243.332 104.3 242.932 103.4C242.532 102.5 242.332 101.5 242.332 100.6V95.5C242.332 93.4 243.132 92.4 244.632 92.4C245.232 92.4 245.832 92.5 246.432 92.7C247.032 92.9 247.932 93.3 248.932 93.7C252.332 95.2 256.032 96.4 259.932 97.2C263.932 98 267.832 98.4 271.832 98.4C278.132 98.4 283.032 97.3 286.432 95.1C289.832 92.9 291.632 89.7 291.632 85.6C291.632 82.8 290.732 80.5 288.932 78.6C287.132 76.7 283.732 75 278.832 73.4L264.332 68.9C257.032 66.6 251.632 63.2 248.332 58.7C245.032 54.3 243.332 49.4 243.332 44.2C243.332 40 244.232 36.3 246.032 33.1C247.832 29.9 250.232 27.1 253.232 24.9C256.232 22.6 259.632 20.9 263.632 19.7C267.632 18.5 271.832 18 276.232 18C278.432 18 280.732 18.1 282.932 18.4C285.232 18.7 287.332 19.1 289.432 19.5C291.432 20 293.332 20.5 295.132 21.1C296.932 21.7 298.332 22.3 299.332 22.9C300.732 23.7 301.732 24.5 302.332 25.4C302.932 26.2 303.232 27.3 303.232 28.7V33.4C303.232 35.5 302.432 36.6 300.932 36.6C300.132 36.6 298.832 36.2 297.132 35.4C291.432 32.8 285.032 31.5 277.932 31.5C272.232 31.5 267.732 32.4 264.632 34.3C261.532 36.2 259.932 39.1 259.932 43.2C259.932 46 260.932 48.4 262.932 50.3C264.932 52.2 268.632 54.1 273.932 55.8L288.132 60.3C295.332 62.6 300.532 65.8 303.632 69.9C306.732 74 308.232 78.7 308.232 83.9C308.232 88.2 307.332 92.1 305.632 95.5C303.832 98.9 301.432 101.9 298.332 104.3C295.232 106.8 291.532 108.6 287.232 109.9C282.732 111.3 278.032 112 272.932 112Z" fill="#252F3E"/>
<path fill-rule="evenodd" clip-rule="evenodd" d="M291.832 156.6C258.932 180.9 211.132 193.8 170.032 193.8C112.432 193.8 60.532 172.5 21.332 137.1C18.232 134.3 21.032 130.5 24.732 132.7C67.132 157.3 119.432 172.2 173.532 172.2C210.032 172.2 250.132 164.6 287.032 149C292.532 146.5 297.232 152.6 291.832 156.6Z" fill="#FF9900"/>
<path fill-rule="evenodd" clip-rule="evenodd" d="M305.532 141C301.332 135.6 277.732 138.4 267.032 139.7C263.832 140.1 263.332 137.3 266.232 135.2C285.032 122 315.932 125.8 319.532 130.2C323.132 134.7 318.532 165.6 300.932 180.4C298.232 182.7 295.632 181.5 296.832 178.5C300.832 168.6 309.732 146.3 305.532 141Z" fill="#FF9900"/>
</svg>
