<svg width="525" height="124" viewBox="0 0 525 124" fill="none" xmlns="http://www.w3.org/2000/svg">
<path d="M81.3944 44.1711C73.7466 35.446 61.1824 33.2647 50.257 36.5366C44.248 38.1726 39.8778 43.0805 36.6002 47.9884C36.6002 32.174 36.6002 15.8144 36.6002 0C24.5822 0 12.018 0 0 0C0 40.3539 0 80.7075 0 121.607C11.4717 121.607 22.3971 121.607 33.8688 121.607C33.8688 116.699 34.4151 111.246 33.8688 106.338C36.0539 111.246 38.7853 116.154 43.7017 119.426C50.257 124.334 59.5436 124.334 67.1914 122.698C74.8392 121.062 81.3944 115.608 85.2183 108.519C90.681 98.7033 91.7736 86.7061 91.7736 75.7998C91.2273 64.3483 89.0422 52.351 81.3944 44.1711ZM50.8032 93.2504C48.0719 97.613 40.9703 97.613 38.239 93.2504C35.5076 89.4331 35.5076 84.5248 35.5076 80.1623C35.5076 75.7998 35.5076 71.4373 36.6002 67.0748C37.6927 64.3483 39.3315 61.6213 42.0629 61.0761C45.3405 59.9852 49.7107 61.6213 51.3495 64.8935C53.5346 69.256 53.5346 74.1637 53.5346 79.072C53.5346 83.4345 53.5346 88.8874 50.8032 93.2504Z" fill="#007A5B"/>
<path d="M241.995 95.981C238.171 94.3454 236.533 90.5281 236.533 86.7107C236.533 78.5309 236.533 69.8058 236.533 61.626C241.995 61.0808 247.458 61.626 252.921 61.626C252.921 53.4461 252.921 45.8115 252.921 37.6317C247.458 37.6317 241.995 37.6317 236.533 37.6317C236.533 27.2705 236.533 16.3641 236.533 6.00293C224.515 9.82022 212.497 14.1828 199.932 18C199.386 24.5439 199.932 31.0878 199.932 37.6317C195.562 37.6317 191.192 37.6317 187.368 37.6317C187.368 45.8115 187.368 53.9913 187.368 61.626C191.738 61.626 196.109 61.626 199.932 61.626C199.932 71.9871 199.932 82.3482 199.932 92.7094C199.932 99.7983 201.025 106.888 205.395 112.886C208.673 118.339 215.228 121.611 221.783 122.702C232.709 124.338 243.088 122.157 253.467 118.885C253.467 110.705 253.467 102.525 253.467 94.8906C249.643 95.981 245.819 96.5267 241.995 95.981Z" fill="#007A5B"/>
<path d="M320.114 63.8022C323.938 62.7118 327.762 60.5306 330.494 58.3493C342.512 48.5334 341.965 28.3565 330.494 18.5406C321.753 10.9061 310.282 7.63416 298.81 7.08887C286.246 7.08887 273.681 7.08887 261.663 11.4514C261.663 19.6313 261.663 28.3565 261.663 36.5363C270.404 33.2643 279.144 31.6284 288.431 32.1737C292.255 32.1737 296.079 33.8097 298.81 36.5363C300.995 39.2629 301.541 42.5348 300.995 45.8068C299.902 49.6241 296.079 51.8053 292.255 52.3507C286.246 53.4411 279.69 52.896 273.681 52.896C273.681 61.0758 273.681 69.2556 273.681 77.4355C281.875 76.3446 290.07 74.7091 297.717 78.5264C304.819 81.798 304.273 94.3404 296.625 95.9765C284.607 98.7029 272.589 96.5217 261.117 92.7043C261.117 101.43 261.117 110.155 261.117 118.88C267.672 120.516 274.228 122.152 281.329 122.697C296.079 124.333 311.374 124.333 324.485 117.244C331.586 113.427 337.595 106.883 339.78 99.2487C341.965 90.5231 340.873 80.1619 334.864 73.6182C331.04 68.1653 325.577 65.4383 320.114 63.8022Z" fill="#FDDF18"/>
<path d="M408.611 47.4459C399.325 46.9006 389.492 47.9913 382.39 53.99C382.936 49.6272 383.483 45.2646 385.668 41.4474C388.945 35.9942 394.954 32.7222 401.51 31.6316C411.889 30.5409 422.268 32.1769 432.101 34.9035C432.101 26.1783 432.101 17.4532 432.101 9.27335C420.083 6.0014 407.519 6.0014 394.954 6.54669C381.844 7.63738 368.733 13.6359 359.993 23.9971C349.614 36.5395 346.336 53.4442 346.883 69.2588C346.883 82.3464 350.706 95.4345 359.447 105.796C366.548 115.066 377.474 121.064 388.945 122.701C402.056 124.337 416.805 122.155 427.184 113.43C434.286 107.977 439.202 99.797 440.841 90.5262C441.934 82.3464 441.388 73.0761 437.564 65.4414C431.008 55.6255 420.083 48.5366 408.611 47.4459ZM404.241 93.7984C400.417 99.797 390.584 100.887 386.214 95.4345C382.39 91.072 381.844 84.5276 382.936 79.0747C383.483 75.2574 386.214 71.4401 390.038 69.804C394.954 68.1684 401.51 69.2588 404.787 74.1665C408.065 80.1651 407.519 88.345 404.241 93.7984Z" fill="#FDDF18"/>
<path d="M523.331 75.8042C521.146 65.443 513.498 56.718 503.119 53.4458C496.018 50.7193 488.916 51.81 481.268 52.3553C481.268 46.3568 481.268 40.9036 481.268 34.905C493.832 34.3597 506.943 34.905 519.507 34.905C519.507 26.1798 519.507 17.4546 519.507 8.72949C495.471 8.72949 471.982 8.72949 447.946 8.72949C447.946 29.4517 447.946 49.6287 447.946 70.3507C447.946 71.4416 447.946 71.9868 447.399 73.0777C448.492 72.532 449.584 71.9868 450.677 71.4416C456.14 70.3507 461.602 69.2604 467.611 69.2604C472.528 69.2604 477.991 70.3507 482.361 73.0777C489.462 78.5306 487.824 91.6187 479.083 93.8C468.704 97.0716 457.232 94.8903 447.399 92.1639C447.399 100.889 447.399 109.614 447.399 117.794C463.241 122.156 480.722 124.338 497.11 120.521C506.397 118.34 515.137 112.886 520.054 104.706C524.97 96.5264 525.516 85.6201 523.331 75.8042Z" fill="#FDDF18"/>
<path d="M171.535 44.1719C164.433 37.628 154.054 34.9014 144.767 35.4468C132.203 35.4468 118 38.1734 108.713 47.4439C99.9731 56.7143 97.7881 70.3475 98.3343 82.3448C98.8806 93.7962 102.704 105.793 111.991 113.428C121.824 121.608 134.935 123.789 146.952 123.789C157.878 123.789 168.803 122.698 179.182 118.881C179.182 111.792 179.182 104.157 179.182 97.0684C170.988 101.431 161.156 102.521 152.415 102.521C146.952 101.976 141.49 101.431 137.12 97.6136C134.935 95.4323 134.388 92.1602 133.842 89.4337C150.776 89.4337 167.711 89.4337 184.645 89.4337C184.645 83.4351 184.645 77.4365 184.099 71.4379C182.46 61.0768 179.182 51.2611 171.535 44.1719ZM134.388 71.4379C134.388 67.0754 134.935 62.1677 137.666 57.8052C140.397 53.4426 147.499 53.4426 150.776 57.8052C153.508 61.6225 153.508 66.5302 153.508 71.4379C146.952 71.4379 140.397 71.4379 134.388 71.4379Z" fill="#007A5B"/>
</svg>
