<svg width="683" height="123" viewBox="0 0 683 123" fill="none" xmlns="http://www.w3.org/2000/svg">
<path d="M86.8957 77.2801C86.8957 92.1257 75.3123 107.085 53.168 107.085C40.4493 107.085 26.9354 98.9256 19.0997 90.6525C18.8726 87.8194 18.8726 63.5674 19.0997 60.3941C26.027 53.2547 36.2475 45.3218 53.395 45.3218C69.6343 45.435 86.8957 53.708 86.8957 77.2801ZM54.3036 30.5892C37.7238 30.5892 28.4117 35.8022 19.2133 42.4887V6.9038C19.2014 5.31448 18.5635 3.79363 17.4373 2.66978C16.3111 1.54594 14.7871 0.909323 13.1945 0.897461H2.40625V101.872L0.816406 119.438H10.8098C15.2386 119.438 16.2607 116.378 16.8285 113.658L18.1912 108.332C28.2982 116.378 37.2697 121.931 55.8934 121.931C91.0974 121.931 103.816 94.9592 103.816 76.9399C103.589 59.6009 93.2552 30.5892 54.3036 30.5892ZM129.708 65.7205C133.91 52.2345 144.358 45.0952 160.143 45.0952C183.082 45.0952 189.668 59.6009 191.485 65.7205H129.708ZM159.007 30.2492C131.639 30.2492 111.765 49.2883 111.765 75.5803C111.765 102.325 132.32 121.704 160.597 121.704C187.965 121.704 197.277 111.732 205.453 103.005L208.519 99.7188L195.006 90.0861L193.416 92.1257C188.419 98.3588 181.492 106.859 161.732 106.859C141.632 106.859 130.844 93.8259 128.8 80.5665H209.769L209.882 77.2801C209.882 63.5674 205.794 52.4612 197.731 44.3016C188.76 35.2356 175.019 30.2492 159.007 30.2492ZM260.644 107.312C248.152 107.312 245.654 103.119 245.654 95.8658V47.9283H278.587V39.2022C278.575 37.6128 277.937 36.0919 276.811 34.968C275.684 33.8442 274.16 33.2076 272.568 33.1957H245.54V11.7769C245.533 10.9955 245.372 10.2233 245.065 9.50431C244.759 8.78528 244.313 8.13355 243.754 7.58634C243.195 7.0391 242.534 6.6071 241.808 6.31498C241.081 6.0229 240.305 5.87637 239.522 5.88385H228.733V33.309H211.245V48.1549H228.847V97.2254C228.847 104.025 228.847 122.157 257.918 122.157C263.256 122.157 269.842 121.251 279.154 119.778L280.858 119.551V104.478L277.338 105.158C270.978 106.405 266.322 107.312 260.644 107.312ZM335.935 67.3072C321.853 65.6074 309.702 64.2474 309.702 56.6543C309.702 46.6818 323.33 45.2083 331.506 45.2083C345.588 45.2083 356.263 49.8547 363.644 59.2612L365.007 60.9609L376.59 50.4216L375.568 49.0616C372.274 44.4152 362.281 30.3625 331.733 30.3625C313.109 30.3625 293.122 37.5021 293.122 57.4478C293.122 77.8465 314.926 80.453 334.118 82.8332C348.994 84.6461 361.941 86.2328 361.941 95.0723C361.941 103.912 348.994 107.085 337.979 107.085C322.875 107.085 310.838 101.532 302.094 90.4259L300.731 88.7261L288.24 100.059L289.489 101.532C301.412 115.358 316.402 121.818 336.843 121.818C363.417 121.818 378.747 111.732 378.747 94.0525C378.634 72.407 355.922 69.687 335.935 67.3072ZM434.393 67.3072C420.312 65.6074 408.16 64.2474 408.16 56.6543C408.16 46.6818 421.788 45.2083 429.962 45.2083C444.047 45.2083 454.719 49.8547 462.102 59.2612L463.464 60.9609L475.048 50.4216L474.026 49.0616C470.73 44.4152 460.74 30.3625 430.189 30.3625C411.566 30.3625 391.581 37.5021 391.581 57.4478C391.581 77.8465 413.383 80.453 432.577 82.8332C447.453 84.6461 460.399 86.2328 460.399 95.0723C460.399 103.912 447.453 107.085 436.437 107.085C421.334 107.085 409.296 101.532 400.55 90.4259L399.188 88.7261L386.697 100.059L387.946 101.532C399.869 115.358 414.858 121.818 435.301 121.818C461.875 121.818 477.205 111.732 477.205 94.0525C476.978 72.407 454.378 69.687 434.393 67.3072ZM567.715 76.2599C567.715 95.1858 555.223 107.085 534.893 107.085C514.795 107.085 501.962 94.9592 501.962 76.2599C501.962 61.3007 512.297 45.3218 534.893 45.3218C557.493 45.3218 567.715 60.7343 567.715 76.2599ZM534.893 30.4759C506.049 30.4759 485.156 49.0616 485.156 74.6736C485.156 103.799 504.233 121.931 534.893 121.931C565.554 121.931 584.521 103.799 584.521 74.6736C584.521 49.0616 563.737 30.4759 534.893 30.4759ZM645.955 30.4759C634.485 30.4759 623.7 34.5556 613.138 42.8285V38.9756C613.126 37.3862 612.488 35.8652 611.361 34.7414C610.237 33.6175 608.71 32.9809 607.117 32.9691H596.332V119.324H613.138V60.6207C618.814 54.7278 630.171 45.2083 644.479 45.2083C651.749 45.2083 657.085 47.0216 660.604 50.5347C663.901 53.9347 665.49 58.921 665.377 65.4939V119.438H682.183V63.0009C682.069 34.669 659.469 30.4759 645.955 30.4759Z" fill="#FF6404"/>
</svg>
