<svg width="601" height="169" viewBox="0 0 601 169" fill="none" xmlns="http://www.w3.org/2000/svg">
<path d="M241.64 22.9976V34.9225H255.899L259.912 46.1659C262.047 52.3839 263.84 57.7501 263.84 58.0908C263.84 58.4315 258.888 58.7722 252.74 58.7722H241.64V80.748C241.64 106.046 241.725 106.472 247.873 106.472C250.597 106.331 253.255 105.573 255.643 104.257C257.863 103.064 259.827 102.213 259.912 102.383C261.449 104.513 268.109 121.974 267.682 122.656C266.658 124.274 257.18 128.618 251.715 129.896C244.714 131.514 230.369 131.514 224.904 129.896C218.244 127.936 213.889 124.189 210.73 117.715L207.913 112.008L207.657 85.4328L207.315 58.7722H193.824V34.9225H207.486V11.0728H241.64V22.9976Z" fill="#111111"/>
<path d="M299.358 48.1259L311.397 84.752L312.764 80.0678C313.532 77.5124 316.776 66.3542 320.021 55.366L325.827 35.3493L337.013 35.0937L348.284 34.8382L349.137 38.075C349.65 39.8637 352.895 51.1071 356.395 63.032L362.714 84.752L364.08 80.0678C364.763 77.5124 367.751 66.95 370.569 56.6437C373.387 46.3372 375.948 37.2232 376.205 36.3714C376.632 35.0937 378.254 34.9234 394.221 34.9234C403.784 34.9234 411.554 35.2641 411.383 35.69C411.212 36.1159 403.698 57.3251 394.562 82.9634L377.997 129.471H351.87L349.308 121.123C347.942 116.609 344.612 105.791 341.965 97.1882C339.318 88.5854 337.098 81.3452 336.927 81.1748C336.757 81.0044 333.427 91.7366 329.499 104.94L322.241 129.045H296.028L275.28 70.6982C263.838 38.586 254.531 12.0958 254.531 11.6699C254.531 11.244 261.789 11.1588 270.84 11.244L287.234 11.4995L299.358 48.1259Z" fill="#111111"/>
<path d="M536.56 61.498C544.927 85.6882 547.318 91.7356 547.318 88.7548C547.318 88.1584 551.416 75.8926 556.369 61.3276L565.505 34.9224H582.923C599.232 34.9224 600.426 35.0076 599.915 36.3704C594.109 51.4468 551.331 150.764 549.111 154.171C543.39 162.859 534.51 167.544 522.129 168.396C514.53 168.907 503.515 167.118 497.197 164.393L493.525 162.774L495.745 156.982C496.941 153.83 498.734 149.06 499.673 146.505C500.334 144.672 501.104 142.881 501.979 141.139C502.32 140.798 504.882 141.309 507.614 142.246C513.42 144.291 516.494 144.375 520.336 142.757C523.069 141.65 525.289 138.072 529.131 128.447L530.411 125.296L514.615 89.6914C505.906 70.1008 496.855 49.7433 494.465 44.4623L490.195 34.9224H527.338L536.56 61.498Z" fill="#111111"/>
<path d="M94.3506 66.0126C90.4224 51.1066 80.8596 39.778 68.3082 35.3487C60.1962 32.4527 46.1078 32.1119 36.4594 34.4969L34.154 35.0932V0H0V124.104L7.51386 126.404C20.0654 130.237 27.6647 131.344 40.9847 131.344C50.8894 131.429 54.6464 131.003 59.9402 129.64C78.4686 124.615 89.8248 113.542 94.3506 95.8248C96.1434 89.0106 96.1434 72.7416 94.3506 66.0126ZM56.4394 101.106C54.561 102.98 51.5725 104.939 49.694 105.45C46.1078 106.557 39.1917 106.813 36.1178 105.961L34.154 105.45V59.6243L36.5447 59.1133C37.6116 58.9178 38.6664 58.6619 39.704 58.3467C42.6925 57.3245 47.9863 58.1763 52.1702 60.2208C55.1773 61.623 57.6807 63.9126 59.3425 66.7794C61.6482 70.527 61.9038 71.805 62.16 79.641C62.5872 90.8844 61.1358 96.4212 56.4394 101.106Z" fill="#111111"/>
<path d="M171.197 97.1028L168.209 100.084C160.609 107.494 148.143 108.686 139.69 102.809C137.129 101.021 133.201 93.6954 133.201 90.4584V88.5846H194.934L194.336 80.7486C192.629 55.7914 181.529 39.9483 162.231 34.6673C152.669 32.0268 140.031 32.2823 131.066 35.3488C112.879 41.5667 101.523 57.4949 100.242 78.6192C98.7052 104.598 112.367 124.53 135.421 129.981C142.593 131.684 162.146 131.174 168.294 129.215C175.387 126.868 181.925 123.099 187.506 118.141L192.372 113.627L181.785 105.365L171.197 97.1028ZM133.542 68.994C133.799 68.0568 134.311 66.4386 134.567 65.331C135.335 62.5206 139.007 58.006 142.081 56.1321C145.838 53.8323 151.815 54.0026 155.486 56.4728C158.645 58.6022 161.719 63.6276 162.488 67.8864L163.085 70.6974H148.058C133.457 70.6974 133.115 70.6122 133.542 68.994Z" fill="#111111"/>
<path d="M492.67 60.4766C490.109 46.8483 481.314 37.9898 467.225 34.5827C457.577 32.1977 444.086 32.3681 434.608 34.9234C429.742 36.2011 418.812 41.8228 414.97 45.0596L412.067 47.4445L419.581 55.7068C423.764 60.221 427.265 63.884 427.436 63.884C427.607 63.884 429.571 62.6912 431.791 61.3286C439.817 56.2178 447.758 55.0253 454.076 57.9214C455.928 58.7559 457.496 60.1106 458.587 61.82C459.679 63.5294 460.248 65.5196 460.224 67.5464C460.224 69.5054 459.883 69.5906 449.551 70.613C420.007 73.4234 406.773 82.5374 405.748 100.596C404.98 113.372 410.701 123.082 421.972 128.278C426.923 130.492 428.119 130.748 436.743 130.663C446.818 130.663 452.368 129.215 458.943 124.786C459.996 123.991 461.11 123.279 462.273 122.656C462.799 123.753 463.228 124.893 463.554 126.063L464.578 129.471H493.524V97.1882C493.524 79.1307 493.183 62.9468 492.67 60.4766ZM460.053 95.4848C459.797 103.832 459.712 104.258 457.492 105.876C454.588 108.091 445.964 108.858 442.293 107.325C436.658 105.025 435.548 96.5919 440.329 91.8219C442.037 90.1185 444.428 89.0967 448.27 88.2447C451.16 87.5739 454.102 87.1461 457.064 86.9667L460.309 86.882L460.053 95.4848Z" fill="#111111"/>
</svg>
