<svg width="555" height="328" viewBox="0 0 555 328" fill="none" xmlns="http://www.w3.org/2000/svg">
<path d="M277.684 226.841C340.179 226.841 390.841 176.179 390.841 113.684C390.841 51.1895 340.179 0.527344 277.684 0.527344C215.189 0.527344 164.527 51.1895 164.527 113.684C164.527 176.179 215.189 226.841 277.684 226.841Z" fill="#F4B960"/>
<path d="M266.209 204.418C322.658 204.418 368.418 158.658 368.418 102.209C368.418 45.7606 322.658 0 266.209 0C209.761 0 164 45.7606 164 102.209C164 158.658 209.761 204.418 266.209 204.418Z" fill="#E66F32"/>
<path d="M280.284 177.823C329.243 177.823 368.932 138.134 368.932 89.1753C368.932 40.2164 329.243 0.527344 280.284 0.527344C231.325 0.527344 191.636 40.2164 191.636 89.1753C191.636 138.134 231.325 177.823 280.284 177.823Z" fill="#E43C41"/>
<path d="M287.064 177.297C331.99 177.297 368.409 140.877 368.409 95.9512C368.409 51.0252 331.99 14.6055 287.064 14.6055C242.138 14.6055 205.718 51.0252 205.718 95.9512C205.718 140.877 242.138 177.297 287.064 177.297Z" fill="#BDD041"/>
<path d="M281.331 177.823C323.092 177.823 356.945 143.97 356.945 102.209C356.945 60.4491 323.092 26.5957 281.331 26.5957C239.571 26.5957 205.718 60.4491 205.718 102.209C205.718 143.97 239.571 177.823 281.331 177.823Z" fill="#6DB54C"/>
<path d="M269.341 152.787C304.188 152.787 332.436 124.538 332.436 89.6913C332.436 54.8446 304.188 26.5957 269.341 26.5957C234.494 26.5957 206.245 54.8446 206.245 89.6913C206.245 124.538 234.494 152.787 269.341 152.787Z" fill="#AEDAE6"/>
<path d="M279.241 132.45C308.617 132.45 332.432 108.636 332.432 79.2592C332.432 49.8827 308.617 26.0684 279.241 26.0684C249.864 26.0684 226.05 49.8827 226.05 79.2592C226.05 108.636 249.864 132.45 279.241 132.45Z" fill="#56B8DE"/>
<path d="M286.019 132.978C311.654 132.978 332.435 112.197 332.435 86.562C332.435 60.9274 311.654 40.1465 286.019 40.1465C260.384 40.1465 239.604 60.9274 239.604 86.562C239.604 112.197 260.384 132.978 286.019 132.978Z" fill="#00B1D5"/>
<path d="M279.241 132.451C301.128 132.451 318.871 114.708 318.871 92.8211C318.871 70.9342 301.128 53.1914 279.241 53.1914C257.354 53.1914 239.611 70.9342 239.611 92.8211C239.611 114.708 257.354 132.451 279.241 132.451Z" fill="url(#paint0_radial_114_375)"/>
<path d="M279.241 132.451C301.128 132.451 318.871 114.708 318.871 92.8211C318.871 70.9342 301.128 53.1914 279.241 53.1914C257.354 53.1914 239.611 70.9342 239.611 92.8211C239.611 114.708 257.354 132.451 279.241 132.451Z" fill="#221F1F"/>
<path d="M302.245 81.6968C305.075 75.3892 304.176 68.8429 300.236 67.0752C296.296 65.3074 290.808 68.9878 287.978 75.2954C285.148 81.603 286.047 88.1493 289.987 89.917C293.926 91.6848 299.414 88.0045 302.245 81.6968Z" fill="white"/>
<path d="M0.00739449 265.641C0.00739449 265.271 0.377314 264.546 1.10237 264.546H26.3684C40.6477 264.546 47.2324 271.205 47.2324 281.023C47.2324 288.421 43.5701 292.01 39.094 294.207V294.577C43.1188 296.042 48.246 301.236 48.246 308.856C48.246 321.308 39.8264 327.16 25.1773 327.16H1.09498C0.72505 327.16 0 326.79 0 326.065L0.00739449 265.641ZM26.0059 290.537C31.8656 290.537 35.5279 287.245 35.5279 282.399C35.5279 277.272 31.8656 273.979 26.0059 273.979H12.4665C12.0966 273.979 12.0966 274.349 12.0966 274.349V289.738C12.0966 290.108 12.4665 290.108 12.4665 290.108C12.0966 290.478 26.0059 290.478 26.0059 290.478V290.537ZM12.0966 316.898H26.3758C33.0345 316.898 36.6303 313.606 36.6303 308.109C36.6303 302.612 32.968 299.319 26.3758 299.319H12.0966C11.7267 299.319 11.7267 299.689 11.7267 299.689V315.804C11.3568 316.898 12.0966 316.898 12.0966 316.898ZM56.3992 326.42C56.0292 326.42 55.3042 326.05 55.3042 325.325V282.858C55.3042 282.488 55.6741 281.763 56.3992 281.763H65.5512C65.9211 281.763 66.6462 282.133 66.6462 282.858V286.52H67.0161C69.2135 283.228 73.6748 280.66 79.4679 280.66C83.1302 280.66 87.1624 282.125 89.3524 284.323C89.7223 284.693 89.7223 285.418 89.7223 285.418L84.5951 291.632C84.2252 292.002 83.5001 292.002 83.1302 292.002C80.9328 290.907 78.7354 289.805 75.7316 289.805C69.5168 289.805 66.5796 293.83 66.5796 301.154V324.956C66.5796 325.325 66.2097 326.05 65.4846 326.05L56.3992 326.42ZM91.1724 315.434C90.0774 312.504 89.345 309.574 89.345 304.447C89.345 299.32 89.7149 296.308 91.1724 293.46C94.1022 285.321 101.057 281.378 110.941 281.378C120.826 281.378 127.78 285.773 130.71 293.46C131.805 296.39 132.538 299.32 132.538 304.447C132.538 309.574 132.168 312.585 130.71 315.434C127.78 323.572 120.826 327.515 110.941 327.515C101.057 327.515 93.7323 323.491 91.1724 315.434ZM120.027 312.874C121.122 310.676 121.122 308.479 121.122 304.735C121.122 300.992 120.752 298.876 120.027 296.597C118.562 292.935 115.632 290.737 110.875 290.737C106.48 290.737 103.18 292.935 101.723 296.597C100.628 299.157 100.628 300.992 100.628 304.735C100.628 308.479 100.998 310.595 101.723 312.874C103.188 316.536 106.117 318.733 110.875 318.733C112.815 318.804 114.731 318.28 116.366 317.233C118.001 316.186 119.278 314.665 120.027 312.874ZM180.073 326.413C179.704 326.413 178.978 326.043 178.978 325.318L169.826 296.76H169.457L160.305 324.874C159.935 325.244 159.935 325.969 159.21 325.969H151.071C150.701 325.969 149.976 325.599 149.976 324.874L134.957 282.406C134.587 282.036 135.327 281.311 135.697 281.311H145.219C145.959 281.311 146.314 281.681 146.314 282.406L155.466 311.705H155.836L164.988 282.406C165.358 282.036 165.728 281.311 166.083 281.311H173.481C173.851 281.311 174.576 281.681 174.576 282.406L184.098 311.705H184.468L193.258 282.406C193.628 281.667 193.628 281.311 194.353 281.311H203.875C204.245 281.311 204.97 281.681 204.614 282.406L189.965 324.874C189.595 325.244 189.595 325.969 188.87 325.969L180.073 326.413ZM206.434 320.553C206.065 320.183 206.065 319.458 206.434 319.458L212.294 313.969C212.497 313.791 212.757 313.693 213.027 313.693C213.296 313.693 213.557 313.791 213.759 313.969C217.051 316.898 222.911 319.096 228.038 319.096C233.898 319.096 236.828 316.898 236.828 313.969C236.828 311.409 235 309.574 228.689 309.211L223.562 308.841C214.04 307.746 208.913 303.352 208.913 296.027C208.913 287.608 215.572 281.748 227.217 281.748C234.616 281.748 240.756 283.945 245.159 286.875C245.528 287.245 245.528 287.97 245.528 287.97L240.771 293.097C240.401 293.467 239.676 293.467 239.306 293.467C236.376 291.64 231.168 289.805 226.855 289.805C222.097 289.805 219.456 291.632 219.456 294.562C219.456 297.122 221.283 298.587 227.594 299.319L232.722 299.689C242.606 300.784 247.371 305.549 247.371 312.504C247.371 321.293 240.416 327.523 227.232 327.523C217.347 327.893 210.393 324.23 206.368 320.568L206.434 320.553ZM254.769 315.426C253.674 312.496 252.942 309.211 252.942 304.439C252.942 299.667 253.312 296.301 254.769 293.452C257.699 285.314 264.654 281.371 274.538 281.371C284.423 281.371 291.377 286.128 294.307 293.452C295.402 296.382 296.135 299.667 296.135 306.992C296.135 307.362 295.765 308.087 295.04 308.087H265.016C264.646 308.087 264.646 308.457 264.646 308.457C264.646 309.552 265.016 311.017 265.386 311.749C267.214 316.144 270.513 318.408 276.003 318.408C281.493 318.408 284.793 316.58 287.353 314.383C287.722 314.013 288.447 314.013 289.18 314.013L295.04 318.77C295.41 319.14 295.41 319.865 295.41 319.865C291.385 324.26 284.423 327.56 275.641 327.56C264.654 327.93 257.337 323.535 254.777 315.478L254.769 315.426ZM283.624 295.657C282.529 291.995 278.866 289.798 274.472 289.798C270.077 289.798 266.333 291.995 264.95 295.657C264.58 296.752 264.58 297.855 264.58 299.319C264.58 299.689 264.95 299.689 264.95 299.689H283.986C284.356 299.689 284.356 299.319 284.356 299.319C283.986 298.225 283.994 296.76 283.624 295.657ZM303.393 326.413C303.023 326.413 302.298 326.043 302.298 325.318V282.85C302.298 282.48 302.668 281.755 303.393 281.755H312.545C312.915 281.755 313.64 282.125 313.64 282.85V286.513H314.01C316.207 283.22 320.668 280.653 326.461 280.653C330.124 280.653 334.156 282.118 336.346 284.315C336.716 284.685 336.716 285.41 336.716 285.41L331.588 291.625C331.219 291.995 330.493 291.995 330.124 291.995C327.926 290.9 325.729 289.798 322.725 289.798C316.51 289.798 313.573 293.822 313.573 301.147V324.948C313.573 325.318 313.203 326.043 312.478 326.043L303.393 326.413ZM338.166 319.754C337.796 319.384 337.796 318.659 337.796 318.289L344.011 311.631C344.381 311.261 345.106 311.261 345.476 311.261C349.87 314.553 356.462 317.919 363.78 317.919C371.918 317.919 376.594 314.257 376.594 308.767C376.594 304.373 373.664 301.369 364.512 299.978L360.85 299.608C348.035 297.781 340.711 292.209 340.711 282.036C340.711 270.687 349.863 263 363.41 263C371.829 263 379.886 265.56 385.013 269.215C385.383 269.585 385.383 269.955 385.383 270.31L380.789 276.983C380.419 277.353 379.694 277.353 379.324 277.353C373.834 274.061 368.707 272.596 363.21 272.596C356.255 272.596 352.593 275.888 352.593 281.015C352.593 285.41 355.885 288.414 365.045 289.435L368.707 289.805C381.521 291.632 388.846 297.204 388.846 308.109C388.846 319.014 380.049 327.515 363.58 327.515C352.963 327.885 343.441 324.223 338.314 319.821L338.166 319.754ZM408.822 327.449C399.3 327.449 395.283 323.054 395.283 314.635V291.181C395.283 290.811 394.913 290.811 394.913 290.811H391.983C391.613 290.811 390.888 290.441 390.888 289.716V283.501C390.888 283.131 391.258 282.406 391.983 282.406H394.913C395.283 282.406 395.283 282.036 395.283 282.036V270.029C395.283 269.659 395.653 268.934 396.378 268.934H405.53C405.9 268.934 406.625 269.304 406.625 270.029V282.11C406.625 282.48 406.995 282.48 406.995 282.48H413.653C414.023 282.48 414.748 282.85 414.748 283.575V289.79C414.748 290.16 414.378 290.885 413.653 290.885H406.995C406.625 290.885 406.625 291.255 406.625 291.255V314.324C406.625 317.254 408.09 318.349 411.019 318.349H413.579C413.949 318.349 414.674 318.719 414.674 319.444V326.842C414.674 327.212 414.304 327.937 413.579 327.937L408.822 327.449ZM450.994 326.354C450.624 326.354 449.899 325.984 449.899 325.259V322.114C447.701 325.044 443.24 327.242 436.359 327.242C427.57 327.242 420.245 323.217 420.245 313.702C420.245 304.188 427.644 299.423 439.282 299.423H448.804C449.174 299.423 449.174 299.053 449.174 299.053V296.856C449.174 291.729 446.614 289.457 438.557 289.457C433.43 289.457 429.767 290.922 427.57 292.387C427.2 292.757 426.475 292.757 426.105 292.017L422.443 286.157C422.073 285.788 422.073 285.062 422.813 285.062C426.475 282.503 431.965 280.668 439.652 280.668C454.301 280.668 459.421 285.425 459.421 296.057V324.615C459.421 324.985 459.051 325.71 458.326 325.71L450.994 326.354ZM449.899 311.705V308.412C449.899 308.042 449.529 308.042 449.529 308.042H441.39C433.992 308.042 431.136 309.87 431.136 313.902C431.136 317.564 434.066 319.392 439.556 319.392C445.77 319.022 449.81 316.832 449.81 311.697L449.899 311.705ZM468.935 315.367C467.84 312.437 467.108 309.152 467.108 304.38C467.108 299.608 467.478 296.242 468.935 293.393C471.865 285.255 479.19 281.311 488.704 281.311C496.103 281.311 501.519 283.871 505.181 288.266C505.551 288.636 505.551 289.361 504.811 289.361L498.596 294.488C498.226 294.858 497.501 294.858 497.131 294.118C494.571 291.558 492.374 290.456 488.342 290.456C483.947 290.456 480.647 292.283 479.19 296.316C478.095 298.513 478.095 301.073 478.095 304.454C478.052 307.299 478.421 310.135 479.19 312.874C480.655 316.536 483.947 318.733 488.342 318.733C489.983 318.783 491.616 318.482 493.132 317.851C494.647 317.219 496.011 316.272 497.131 315.071C497.501 314.701 498.226 314.701 498.596 314.701L504.811 319.828C505.181 320.198 505.181 320.923 505.181 320.923C503.044 323.108 500.475 324.822 497.638 325.957C494.801 327.092 491.758 327.623 488.704 327.515C479.182 327.885 471.865 323.491 468.935 315.434V315.367ZM543.994 326.354C543.254 326.354 542.899 325.984 542.166 325.259L530.084 306.955L523.426 313.909V325.259C523.426 325.629 523.056 326.354 522.331 326.354H513.179C512.809 326.354 512.084 325.984 512.084 325.259V264.924C512.084 264.554 512.454 263.829 513.179 263.829H522.331C522.701 263.829 523.426 264.199 523.426 264.924V300.807L539.902 283.235C540.072 282.899 540.334 282.617 540.658 282.424C540.981 282.23 541.353 282.132 541.73 282.14H551.984C552.354 282.14 553.079 282.51 552.354 283.235L536.965 299.349L554.174 325.71C554.544 326.08 554.544 326.805 553.804 326.805L543.994 326.354Z" fill="#202020"/>
<defs>
<radialGradient id="paint0_radial_114_375" cx="0" cy="0" r="1" gradientUnits="userSpaceOnUse" gradientTransform="translate(279.304 93.3446) scale(39.9494)">
<stop stop-color="#797979"/>
<stop offset="1" stop-color="#4C4C4C"/>
</radialGradient>
</defs>
</svg>
