<svg width="147" height="60" viewBox="0 0 147 60" fill="none" xmlns="http://www.w3.org/2000/svg">
<g clip-path="url(#clip0_134_441)">
<path d="M78.632 19.02C77.45 19.427 76.732 19.788 74.039 19.788C69.491 19.788 66.809 16.58 66.809 11.746C66.809 7.31799 68.629 4.10999 73.267 4.10999C76.86 4.10999 79.225 5.91699 79.225 8.53799H75.405C75.405 7.23799 75.087 5.23998 73.085 5.23998C70.902 5.23998 70.402 7.63498 70.402 10.707C70.402 15.451 72.585 18.071 75.542 18.071C76.542 18.071 77.862 17.891 78.635 17.619V19.019L78.632 19.02ZM80.724 11.973C80.724 6.59698 82.998 4.11299 87.728 4.11299C92.412 4.11299 94.732 7.32098 94.732 11.973C94.732 17.213 92.549 19.789 87.728 19.789C82.498 19.789 80.724 16.446 80.724 11.973ZM87.728 18.66C90.912 18.66 91.184 15.136 91.184 11.928C91.184 8.94599 90.911 5.15099 87.728 5.15099C84.498 5.15099 84.272 9.08099 84.272 11.928C84.272 14.628 84.499 18.66 87.728 18.66ZM96.688 18.615C97.325 18.073 100.188 15.678 100.188 13.815C100.188 13.047 99.588 12.55 98.824 12.55C97.924 12.55 97.551 13.228 97.424 13.59H96.878C97.06 13.048 97.56 11.918 99.061 11.918C100.517 11.918 101.517 12.505 101.517 13.996C101.517 15.939 98.379 18.062 97.743 18.65H100.143C101.189 18.65 101.28 18.198 101.325 17.566H101.689V19.418H96.687V18.605L96.688 18.615ZM57.03 34.383C57.03 32.123 56.484 31.583 54.438 31.537V30.904L60.258 29.864V33.964H60.303C60.803 32.834 62.486 29.864 65.715 29.864C68.671 29.864 69.615 31.942 69.615 34.382V45.18H66.385V36.822C66.385 34.292 66.385 32.022 64.202 32.022C62.064 32.022 60.2 35.004 60.2 37.308V45.168H56.97V34.383H57.016H57.03ZM85.045 44.64C84.408 44.866 82.725 45.5 80.497 45.5C75.54 45.5 72.537 42.518 72.537 37.14C72.537 32.035 74.993 29.82 79.359 29.82C84.907 29.82 85.362 33.796 85.362 35.965H76.13C76.13 39.173 77.45 43.735 82.042 43.735C83.406 43.735 84.542 43.419 85.089 43.193V44.639H85.044L85.045 44.64ZM82.145 34.7C82.145 33.977 82.099 30.95 79.28 30.95C76.88 30.95 76.187 33.48 76.187 34.7H82.145ZM98.29 41.52H98.245C97.699 42.92 96.38 45.496 93.242 45.496C88.922 45.496 88.922 41.294 88.922 38.946V34.383C88.922 32.123 88.422 31.583 86.422 31.537V30.904L92.152 29.864V39.534C92.152 42.471 93.252 43.329 94.79 43.329C96.882 43.329 98.337 40.573 98.337 37.907V34.383C98.337 32.123 97.791 31.583 95.837 31.537V30.904L101.567 29.864V45.18H98.337V41.52H98.29ZM113.615 45.27C112.887 45.406 112.16 45.54 111.432 45.54C108.339 45.54 106.52 45.043 106.52 41.383V31.5H103.973V30.2H106.52V27.67L109.75 24.824V30.246H113.98V31.546H109.75V40.898C109.75 43.158 109.932 44.151 112.388 44.151C112.786 44.1531 113.183 44.1074 113.57 44.015V45.28H113.616L113.615 45.27ZM117.845 34.383C117.845 32.123 117.345 31.583 115.299 31.537V30.904L121.119 29.864V34.111H121.164C121.619 32.611 122.62 29.864 125.212 29.864C125.812 29.864 126.394 29.909 126.94 30.044V33.116C126.44 32.936 125.84 32.709 125.303 32.709C122.028 32.709 121.073 35.239 121.073 37.509V45.189H117.843V34.383H117.845ZM136.673 43.283C136.073 43.961 134.991 45.543 132.489 45.543C129.942 45.543 128.169 43.736 128.169 41.838C128.169 37.32 134.627 36.958 136.673 36.868V35.24C136.673 33.207 136.673 30.948 134.627 30.948C132.489 30.948 132.353 32.8 132.353 34.246H128.487C128.851 32.123 129.887 29.864 134.581 29.864C139.175 29.864 139.901 32.214 139.901 35.421V45.181H136.671V43.283H136.673ZM136.673 38.043C135.491 38.088 131.716 38.223 131.716 41.296C131.716 42.796 132.444 43.826 133.672 43.826C135.536 43.826 136.672 42.109 136.672 39.94V38.042L136.673 38.043ZM143.586 27.018C143.586 24.714 143.04 24.172 141.13 24.081V23.449L146.815 22.636V45.18H143.585L143.586 27.018Z" fill="#45AB21"/>
<path d="M93.686 53.584C93.459 52.771 93.322 52.59 92.458 52.544V52.274H94.641L95.823 56.837H95.868L97.414 52.274H98.014L99.742 56.882H99.788L100.788 52.274H101.47L100.07 58.419H99.07L97.57 54.217H97.525L96.05 58.42H95.05L93.686 53.586V53.584ZM107.376 58.194C107.104 58.294 106.421 58.554 105.512 58.554C103.465 58.554 102.237 57.334 102.237 55.12C102.237 53.042 103.237 52.138 105.012 52.138C107.285 52.138 107.467 53.765 107.467 54.668H103.693C103.693 55.968 104.238 57.876 106.093 57.876C106.513 57.8757 106.929 57.7992 107.321 57.65V58.192H107.366L107.376 58.194ZM106.194 54.094C106.194 53.778 106.148 52.558 105.012 52.558C104.012 52.558 103.738 53.598 103.738 54.094H106.194ZM108.694 50.931C108.694 50.027 108.466 49.801 107.694 49.756V49.486L110.059 49.17V53.1H110.105C110.332 52.648 110.741 52.106 111.742 52.106C113.642 52.106 114.107 53.823 114.107 55.449C114.107 57.075 113.425 58.521 111.707 58.521C110.807 58.521 110.307 57.934 109.979 57.617L109.079 58.34H108.715V50.94L108.694 50.931ZM110.014 55.494C110.014 56.172 110.114 57.844 111.242 57.844C112.515 57.844 112.606 56.308 112.606 55.269C112.606 54.365 112.47 52.829 111.333 52.829C110.196 52.829 110.013 54.184 110.013 54.953V55.495L110.014 55.494ZM118.836 53.324C118.654 53.188 118.018 52.691 117.244 52.691C116.844 52.691 116.344 52.827 116.344 53.414C116.344 54.679 119.244 54.679 119.244 56.712C119.244 58.012 118.144 58.519 116.844 58.519C116.024 58.519 115.444 58.339 115.161 58.293V57.253C115.525 57.523 116.161 57.931 116.935 57.931C117.755 57.931 118.072 57.524 118.072 57.027C118.072 55.727 115.172 55.672 115.172 53.819C115.172 52.869 115.809 52.057 117.402 52.057C118.084 52.057 118.675 52.237 118.902 52.283V53.323H118.856L118.836 53.324ZM120.974 54.001C120.974 53.097 120.746 52.871 119.974 52.826V52.556L122.339 52.149V58.429H120.975V54L120.974 54.001ZM120.837 50.251C120.837 49.799 121.201 49.438 121.657 49.438C122.113 49.438 122.521 49.798 122.521 50.251C122.521 50.704 122.121 51.064 121.657 51.064C121.193 51.064 120.837 50.704 120.837 50.251ZM127.477 58.431C127.177 58.4856 126.873 58.5157 126.568 58.521C125.294 58.521 124.568 58.341 124.568 56.804V52.738H123.522V52.196H124.568V51.156L125.886 49.981V52.195H127.616V52.737H125.886V56.577C125.886 57.481 125.932 57.877 126.978 57.877C127.114 57.877 127.296 57.877 127.478 57.832V58.419L127.477 58.431ZM133.344 58.204C133.071 58.304 132.389 58.564 131.479 58.564C129.433 58.564 128.205 57.344 128.205 55.13C128.205 53.052 129.205 52.148 130.979 52.148C133.253 52.148 133.435 53.775 133.435 54.678H129.66C129.66 55.978 130.206 57.886 132.06 57.886C132.48 57.8857 132.896 57.8092 133.288 57.66V58.202H133.334L133.344 58.204ZM132.116 54.104C132.116 53.788 132.07 52.568 130.933 52.568C129.933 52.568 129.66 53.608 129.66 54.104H132.116ZM139.3 52.204L145.713 55.367L139.3 58.5V52.175V52.204Z" fill="white"/>
<path opacity="0.25" d="M1.0918 57.56C1.0918 58.915 9.5058 60 19.8748 60C30.2438 60 38.6578 58.916 38.6578 57.56C38.6578 56.204 30.2438 55.12 19.8748 55.12C9.5048 55.165 1.0918 56.25 1.0918 57.56Z" fill="url(#paint0_radial_134_441)"/>
<path d="M0 39.85C0 46.807 5.64 52.4 12.643 52.4C19.146 52.4 24.468 47.52 25.195 41.286C25.9608 43.0227 27.2159 44.4987 28.8069 45.5337C30.3979 46.5687 32.256 47.1178 34.154 47.114C39.52 47.114 43.886 42.777 43.886 37.444C43.886 33.061 40.93 29.311 36.882 28.137C38.8204 25.9781 39.89 23.1774 39.884 20.276C39.884 13.726 34.517 8.39301 27.924 8.39301C27.242 8.39301 26.524 8.43801 25.877 8.57301C25.3062 6.13177 23.9259 3.95565 21.9606 2.39897C19.9954 0.842286 17.5611 -0.00325881 15.054 9.43896e-06C8.96 9.43896e-06 4.002 4.92501 4.002 11.024C4.002 13.148 4.592 15.09 5.639 16.762C2.4 17.62 0 20.512 0 23.99C0 26.882 1.637 29.367 4.048 30.632C1.546 32.937 0 36.235 0 39.85Z" fill="#69A82F"/>
<path d="M3.456 31.22C1.32 33.48 0 36.506 0 39.85C0 46.807 5.64 52.4 12.643 52.4C17.509 52.4 21.739 49.644 23.831 45.623C21.511 48.018 18.283 49.553 14.644 49.553C7.686 49.553 2.046 43.951 2.046 37.038C2.046 34.915 2.546 32.972 3.446 31.21L3.456 31.22Z" fill="#94C122"/>
<path d="M3.456 31.22C1.32 33.48 0 36.506 0 39.85C0 46.807 5.64 52.4 12.643 52.4C17.509 52.4 21.739 49.644 23.831 45.623C21.511 48.018 18.283 49.553 14.644 49.553C7.686 49.553 2.046 43.951 2.046 37.038C2.046 34.915 2.546 32.972 3.446 31.21L3.456 31.22Z" fill="url(#paint1_linear_134_441)"/>
<path d="M5.00293 6.416C7.04993 4.066 10.0509 2.53 13.4629 2.53C18.7389 2.53 23.1499 6.19 24.2869 11.07C24.9689 10.934 25.6509 10.89 26.3339 10.89C32.9279 10.89 38.2939 16.22 38.2939 22.773C38.2939 24.58 37.8839 26.297 37.1569 27.833C38.8849 25.755 39.9309 23.133 39.9309 20.233C39.9309 13.683 34.5649 8.35 27.9709 8.35C27.2889 8.35 26.5709 8.395 25.9249 8.53C25.3278 6.0973 23.9323 3.93501 21.9617 2.38871C19.991 0.842405 17.5588 0.00136227 15.0539 0C10.5969 0 6.77693 2.62 5.00393 6.416H5.00293ZM23.5579 43.816C23.3759 45.262 23.0119 46.572 22.3759 47.836C23.1021 46.982 23.6997 46.0266 24.1499 45C23.9229 44.593 23.7399 44.232 23.5599 43.825L23.5579 43.816Z" fill="url(#paint2_linear_134_441)"/>
<path d="M33.973 22.545L27.47 27.245C25.423 29.007 23.422 31.175 22.604 34.158L25.104 34.655C25.286 32.395 27.287 30.679 28.97 28.735C30.698 26.747 32.063 24.398 33.973 22.535V22.545Z" fill="#277833"/>
<path d="M16.3273 14.187C20.8753 20.107 21.0113 28.554 21.8753 35.512C22.6033 41.792 21.9213 48.389 19.5553 53.765C18.4183 56.025 15.5533 57.877 15.2803 58.465L24.9673 58.42C27.7873 50.333 27.2873 42.29 25.2853 34.836C23.1933 27.516 23.1023 17.306 16.3253 14.188L16.3273 14.187Z" fill="#277833"/>
<path d="M10.5972 32.846C13.1442 33.614 15.9172 33.524 18.4652 34.518C20.9652 35.512 23.3772 37.681 25.1052 40.256L22.9202 41.52C22.0102 39.442 19.9642 37.725 17.7352 36.415C15.5072 35.06 13.0952 34.065 10.5952 32.845L10.5972 32.846Z" fill="#277833"/>
</g>
<defs>
<radialGradient id="paint0_radial_134_441" cx="0" cy="0" r="1" gradientUnits="userSpaceOnUse" gradientTransform="translate(19.876 57.5817) rotate(180) scale(18.7651 2.43243)">
<stop offset="0.292" stop-color="#000505"/>
<stop offset="1" stop-color="#004343"/>
</radialGradient>
<linearGradient id="paint1_linear_134_441" x1="0" y1="41.824" x2="23.842" y2="41.824" gradientUnits="userSpaceOnUse">
<stop offset="0.067" stop-color="#69A82F"/>
<stop offset="0.365" stop-color="#DAE49B"/>
<stop offset="0.697" stop-color="#69A82F"/>
</linearGradient>
<linearGradient id="paint2_linear_134_441" x1="5.00793" y1="23.917" x2="39.9019" y2="23.917" gradientUnits="userSpaceOnUse">
<stop offset="0.062" stop-color="#69A82F"/>
<stop offset="0.182" stop-color="#9DBF55"/>
<stop offset="0.293" stop-color="#C0D37B"/>
<stop offset="0.38" stop-color="#D3E092"/>
<stop offset="0.433" stop-color="#DAE49B"/>
<stop offset="0.565" stop-color="#C7D883"/>
<stop offset="0.846" stop-color="#90B84A"/>
<stop offset="1" stop-color="#69A82F"/>
</linearGradient>
<clipPath id="clip0_134_441">
<rect width="147" height="60" fill="white"/>
</clipPath>
</defs>
</svg>
