<svg width="507" height="99" viewBox="0 0 507 99" fill="none" xmlns="http://www.w3.org/2000/svg">
<path fill-rule="evenodd" clip-rule="evenodd" d="M297.48 80.2268L260.374 0.335938H0V80.2268H297.48Z" fill="#FCEE21"/>
<path fill-rule="evenodd" clip-rule="evenodd" d="M283.397 18.4502L319.259 98.6637H471.138L507 18.4502H283.397Z" fill="black"/>
<path d="M47.0307 65.0269C39.5025 65.0269 33.2342 62.747 28.2348 58.187C23.2785 53.5779 20.7988 47.6629 20.7988 40.4451C20.7988 33.175 23.2785 27.2631 28.2348 22.7032C33.1881 18.1432 39.4564 15.8633 47.0307 15.8633C52.746 15.8633 57.3458 17.1938 60.8272 19.8517C64.3517 22.5127 66.9727 25.7913 68.6873 29.6844L56.252 35.4581C55.6313 33.556 54.4636 31.9429 52.749 30.6124C51.0345 29.2327 49.1263 28.5444 47.0338 28.5444C43.6015 28.5444 40.8115 29.6844 38.6698 31.9644C36.525 34.2443 35.4527 37.0712 35.4527 40.4451C35.4527 43.8159 36.525 46.6428 38.6698 48.9258C40.8115 51.2027 43.6015 52.3427 47.0307 52.3427C49.1263 52.3427 51.0345 51.679 52.746 50.3454C54.4667 48.9719 55.6343 47.3342 56.2489 45.4291L68.6873 51.132C67.932 52.8778 66.9728 54.5281 65.8296 56.0484C64.6835 57.5233 63.2547 58.9675 61.5401 60.3963C59.8255 61.819 57.7054 62.959 55.1796 63.8163C52.6999 64.6213 49.9867 65.0269 47.0307 65.0269ZM99.1564 64.1696H84.7208V45.2908L66.8529 16.6499H83.0769L91.9386 32.6803L100.659 16.6499H116.883L99.1564 45.2908V64.1696ZM150.36 64.1696H120.414V16.6499H149.359C153.934 16.6499 157.437 17.8851 159.867 20.3556C162.295 22.823 163.512 25.6284 163.512 28.7626C163.512 31.6602 162.75 34.0815 161.226 36.0296C159.76 37.8936 157.684 39.1808 155.363 39.6646C157.984 40.0426 160.153 41.3239 161.868 43.5117C163.582 45.6472 164.44 48.2375 164.44 51.2765C164.44 54.8408 163.226 57.8828 160.795 60.3963C158.368 62.916 154.886 64.1758 150.36 64.1758V64.1696ZM146 34.1737C146.743 34.181 147.46 33.9002 148.001 33.3901C148.278 33.1231 148.497 32.8021 148.645 32.4469C148.793 32.0918 148.866 31.71 148.861 31.3252C148.875 30.96 148.805 30.5964 148.656 30.2627C148.507 29.929 148.282 29.6344 148.001 29.4017C147.461 28.8913 146.746 28.6094 146.003 28.6151H134.849V34.1767H146.003L146 34.1737ZM146.43 52.2014C147.475 52.2014 148.289 51.9402 148.858 51.4178C149.164 51.1382 149.405 50.7957 149.566 50.4138C149.727 50.0318 149.803 49.6196 149.789 49.2054C149.789 48.3543 149.482 47.6384 148.861 47.0699C148.24 46.4554 147.429 46.145 146.43 46.145H134.849V52.1983L146.43 52.2014ZM207.366 64.1696H171.2V16.6499H207.366V29.1897H185.641V33.891H206.868V46.4338H185.638V51.6329H207.366V64.1696ZM257.402 64.1696H240.963L234.387 49.2054H229.17V64.1696H214.731V16.6499H240.173C245.56 16.6499 249.754 18.217 252.756 21.3512C255.804 24.4393 257.328 28.3109 257.328 32.9661C257.328 36.6718 256.471 39.7107 254.756 42.0859C253.088 44.4612 251.087 46.2188 248.752 47.3587L257.399 64.1758L257.402 64.1696ZM237.961 36.6687C239.294 36.6687 240.413 36.3614 241.319 35.7408C242.226 35.077 242.677 34.1276 242.677 32.8923C242.677 31.7032 242.226 30.8029 241.319 30.1853C240.413 29.5185 239.291 29.1866 237.961 29.1866H229.17V36.6687H237.961Z" fill="black"/>
<path d="M357.751 83.1368H327.599V36.5635H356.743C361.349 36.5635 364.877 37.7741 367.323 40.1924C369.769 42.6137 370.992 45.3607 370.992 48.4334C370.992 51.2726 370.224 53.6478 368.69 55.556C367.154 57.4181 365.187 58.6041 362.788 59.1173C365.427 59.4891 367.612 60.7458 369.339 62.8875C371.065 64.9831 371.929 67.5212 371.929 70.4987C371.929 73.9893 370.706 76.9698 368.257 79.4372C365.811 81.9046 362.308 83.1368 357.751 83.1368ZM353.36 53.74C354.129 53.74 354.801 53.485 355.376 52.9718C355.654 52.7135 355.874 52.3998 356.023 52.051C356.171 51.7022 356.245 51.3261 356.24 50.9469C356.254 50.5867 356.184 50.2281 356.034 49.9003C355.883 49.5725 355.658 49.2847 355.376 49.0603C354.826 48.5578 354.105 48.2832 353.36 48.2921H342.136V53.74H353.36ZM353.794 71.4082C354.848 71.4082 355.665 71.1501 356.24 70.64C356.545 70.37 356.788 70.0359 356.95 69.6615C357.112 69.2871 357.189 68.8815 357.177 68.4737C357.177 67.6349 356.863 66.9374 356.24 66.3782C355.616 65.7728 354.801 65.4717 353.794 65.4717H342.136V71.4082H353.794ZM415.15 83.1368H378.735V36.5635H415.15V48.8544H393.272V53.4635H414.646V65.7513H393.272V70.849H415.15V83.1368ZM447.389 83.1368H432.855V48.8544H419.974V36.5635H460.199V48.8544H447.389V83.1368Z" fill="#FFEF00"/>
</svg>
