<svg width="841" height="809" viewBox="0 0 841 809" fill="none" xmlns="http://www.w3.org/2000/svg">
<path d="M202.205 195.131C211.652 171.516 290.763 101.654 329.138 69.6747C360.625 66.2308 427.732 59.6382 444.263 60.8189C464.926 62.2949 479.686 88.8621 500.349 115.429C521.012 141.997 535.772 168.564 554.959 187.751C574.147 206.939 636.137 351.582 643.517 382.577C649.421 407.374 665.656 534.601 673.036 595.115H143.167C133.82 584.783 113.058 562.349 104.792 555.264C94.4606 546.409 103.316 488.846 104.792 426.856C106.268 364.866 190.398 224.65 202.205 195.131Z" fill="#232323"/>
<path d="M773.106 422.428C773.106 209.005 600.124 36.0229 386.701 36.0229C173.277 36.0229 0 209.005 0 422.428C0 635.852 172.982 808.834 386.405 808.834C599.829 808.834 772.811 635.852 773.106 422.428ZM629.348 585.374H497.397L386.405 225.536L273.642 585.374H143.758L319.692 96.242H456.366L629.348 585.374Z" fill="white"/>
<path d="M143.462 625.815H155.27V677.178H143.462V625.815ZM143.462 608.989H155.27V619.616H143.462V608.989Z" fill="#232323"/>
<path d="M166.783 637.623C167.374 620.207 168.554 607.513 188.923 607.513C199.845 607.513 207.224 610.465 210.176 622.273C210.767 624.93 210.767 627.882 210.767 630.538H198.073C197.778 623.749 197.483 618.14 188.923 617.845C178.886 617.845 179.772 629.653 179.772 634.966V653.858C179.772 659.467 180.067 668.618 188.923 668.618C196.302 668.618 198.664 660.943 198.369 650.611H189.513V640.575H210.767V677.179H201.321V669.504H201.025C199.549 674.817 194.531 678.655 188.923 678.95C167.964 678.95 166.783 665.666 166.783 647.659V637.623Z" fill="#232323"/>
<path d="M238.809 667.142C241.466 667.437 244.123 667.142 246.484 666.551C250.026 665.075 250.322 660.648 250.322 657.105C250.322 649.725 248.846 646.774 240.876 646.774H236.152V667.437L238.809 667.142ZM238.514 636.737C241.466 636.737 245.599 637.032 247.665 634.375C248.846 632.014 249.436 629.652 249.141 626.996C249.141 621.977 247.96 619.321 242.351 619.321H236.448V636.737H238.514ZM223.164 677.178V608.989H243.827C249.436 608.989 254.75 609.284 258.292 614.007C260.949 617.55 262.129 621.977 261.539 626.405C261.539 632.309 260.358 638.213 253.274 640.574C260.358 641.46 263.31 647.659 263.31 656.515C263.31 659.467 263.015 662.123 262.425 664.78C259.768 673.341 254.75 676.883 245.599 676.883L223.164 677.178Z" fill="#232323"/>
<path d="M300.505 614.598L291.354 650.906H309.36L300.505 614.598ZM295.486 608.989H305.523L324.71 677.178H316.445L311.131 657.696H289.582L284.564 677.178H276.299L295.486 608.989Z" fill="#232323"/>
<path d="M332.385 677.178V608.989H364.561V615.778H340.06V638.213H362.789V645.002H340.06V677.178H332.385Z" fill="#232323"/>
<path d="M372.826 677.178V608.989H404.707V615.778H380.501V638.213H403.231V645.002H380.501V677.178H372.826Z" fill="#232323"/>
<path d="M424.78 608.989H417.105V677.178H424.78V608.989Z" fill="#232323"/>
<path d="M440.129 677.178V608.989H447.804V670.389H475.552V677.178H440.129Z" fill="#232323"/>
<path d="M492.971 608.989H485.296V677.178H492.971V608.989Z" fill="#232323"/>
<path d="M526.031 614.598L516.88 650.906H534.887L526.031 614.598ZM521.308 608.989H531.344L550.532 677.178H542.266L536.953 657.696H515.404L510.386 677.178H501.825L521.308 608.989Z" fill="#232323"/>
<path d="M547.58 608.989H590.383V615.778H572.967V677.178H565.292V615.778H547.58V608.989Z" fill="#232323"/>
<path d="M598.648 677.178V608.989H632.595V615.778H606.028V638.508H630.824V645.298H606.028V670.389H632.891V677.178H598.648Z" fill="#232323"/>
<path d="M456.366 520.432C456.366 559.102 425.076 590.392 386.406 590.392C347.736 590.392 316.445 559.102 316.445 520.432C316.445 481.762 347.736 450.471 386.406 450.471C425.076 450.471 456.366 481.762 456.366 520.432Z" fill="#232323"/>
<path d="M840.999 69.0844C840.999 31.2999 810.299 0.599976 772.515 0.599976C734.73 0.599976 704.03 31.2999 704.03 69.0844C704.03 106.869 734.73 137.569 772.515 137.569C810.299 137.569 840.999 106.869 840.999 69.0844Z" fill="white"/>
<path d="M739.158 74.3979C741.814 70.5604 745.947 67.0181 751.851 63.1806L753.622 61.9999C750.965 59.048 749.194 56.096 747.718 53.1441C746.242 50.1922 745.652 46.9451 745.652 43.9932C745.652 37.499 747.718 32.7759 752.146 28.9384C756.574 25.3961 762.183 23.625 768.972 23.625C775.171 23.625 780.485 25.3961 784.617 29.2336C788.75 32.7759 790.816 37.499 790.816 43.4028C790.816 48.4211 789.636 52.8489 786.979 55.8009C784.617 59.048 780.78 61.9999 776.057 64.6566L788.75 80.0065C790.226 77.9402 791.407 75.5787 791.997 73.2171C792.883 70.8556 793.178 68.1989 793.178 65.5422H808.233C807.937 70.8556 806.757 76.1691 804.395 81.7777C803.214 84.7296 801.148 88.2719 798.196 91.8142L814.136 110.706H794.063L787.864 103.327C784.912 105.983 782.256 108.05 779.599 109.526C775.171 111.887 769.858 113.068 763.954 113.068C755.098 113.068 748.014 110.411 742.995 105.098C737.977 99.7844 735.32 94.1757 735.32 87.6815C735.32 82.6633 736.501 77.9402 739.158 74.3979ZM755.688 95.3565C758.05 97.718 761.002 98.8988 764.839 98.8988C767.791 98.8988 770.448 98.3084 772.81 97.1276C775.466 95.9469 777.237 94.4709 779.009 92.995L762.773 73.2171C758.64 76.1691 755.688 78.5306 754.213 80.5969C752.737 82.6633 752.146 85.0248 752.146 87.6815C752.146 90.043 753.327 92.6998 755.688 95.3565ZM763.068 48.4211C763.659 49.6018 765.43 51.6682 767.791 54.6201C770.153 52.8489 771.924 51.6682 773.105 50.4874C775.171 48.4211 776.057 46.0595 776.057 43.4028C776.057 41.6317 775.466 39.8605 774.286 38.6798C773.105 37.2038 771.334 36.6134 768.677 36.6134C767.201 36.6134 765.725 36.9086 764.249 37.7942C762.183 38.9749 761.297 41.0413 761.297 43.698C761.592 44.8788 761.888 46.6499 763.068 48.4211Z" fill="#232323"/>
</svg>
