<svg width="747" height="133" viewBox="0 0 747 133" fill="none" xmlns="http://www.w3.org/2000/svg">
<mask id="mask0_126_30" style="mask-type:luminance" maskUnits="userSpaceOnUse" x="0" y="0" width="747" height="133">
<path d="M747 0.629883H0V132.371H747V0.629883Z" fill="white"/>
</mask>
<g mask="url(#mask0_126_30)">
<path d="M478.967 91.9465C476.8 103.161 470.994 112.699 461.547 120.558C452.103 128.418 441.798 132.366 430.632 132.404H348.762L374.366 0.629883H456.236C467.448 0.629883 476.216 4.58311 482.541 12.4896C488.866 20.396 490.964 29.9333 488.833 41.1013C487.283 49.148 482 57.6198 472.984 66.517C478.534 75.442 480.528 83.9186 478.967 91.9465ZM448.851 91.9465C449.161 90.6822 449.181 89.3637 448.906 88.091C448.631 86.8183 448.071 85.6247 447.268 84.6008C446.455 83.6049 445.422 82.8135 444.249 82.29C443.076 81.7666 441.796 81.5258 440.512 81.5867H405.252L411.545 51.4751H446.357C449.277 51.4616 452.094 50.391 454.288 48.461C456.59 46.6145 458.164 44.0121 458.73 41.1153C459.042 39.851 459.06 38.5325 458.787 37.2598C458.512 35.9871 457.951 34.7936 457.147 33.7696C456.334 32.7764 455.3 31.9876 454.127 31.4665C452.954 30.9456 451.674 30.7069 450.393 30.7697H398.624L384.735 102.264H436.49C439.407 102.247 442.218 101.177 444.409 99.2501C446.701 97.4142 448.275 94.828 448.851 91.9465Z" fill="#FFBC00"/>
<path d="M591.541 132.404H478.613L504.231 0.629883H617.143L611.3 30.7697H528.49L524.454 51.4751H588.443L582.599 81.5867H518.609L514.588 102.306H597.398L591.541 132.404Z" fill="#FFBC00"/>
<path d="M741.158 30.7697H695.108L675.292 132.404H645.175L664.935 30.7557H618.828L624.672 0.629883H746.96L741.158 30.7697Z" fill="#FFBC00"/>
<path d="M142.022 132.404H111.906L123.51 72.7131L80.8503 132.404H62.0292L42.5774 72.7412L30.9877 132.404H0.871094L26.4751 0.629883H56.6197L81.2847 81.5867L137.482 0.629883H167.626L142.022 132.404Z" fill="#4B4B4B"/>
<path d="M262.472 132.404H149.545L175.177 0.629883H288.104L282.246 30.7557H199.408L195.385 51.4611H259.375L253.517 81.5867H189.528L185.506 102.292H268.315L262.472 132.404Z" fill="#4B4B4B"/>
<path d="M366.177 132.404H269.996L295.6 0.629883H325.717L305.957 102.292H372.034L366.177 132.404Z" fill="#4B4B4B"/>
</g>
</svg>
