<svg width="1067" height="462" viewBox="0 0 1067 462" fill="none" xmlns="http://www.w3.org/2000/svg">
<g clip-path="url(#clip0_138_440)">
<path d="M166.539 416.938C166.539 437.004 173.549 444.861 184.265 444.861C211.084 444.861 253.811 382.264 252.189 316.543C292.855 273.644 341.603 206.442 341.603 152.617C341.603 139.587 337.909 128.616 322.466 128.616C298.855 128.616 265.118 169.308 243.718 209.716C223.08 251.579 203.775 299.327 178.147 364.858C172.159 381.295 166.539 401.203 166.539 416.938ZM746.635 327.602V361.329C746.635 361.329 763.353 373.408 795.97 373.408C845.477 373.408 867.227 345.785 867.227 315.641C867.227 250.314 779.264 265.929 779.264 222.58C779.264 206.288 792.236 194.5 814.01 194.5C839.438 194.5 858.168 208.069 858.168 208.069V176.853C858.168 176.853 840.758 167.205 815.657 167.205C773.325 167.205 746.949 193.643 746.949 225.403C746.949 289.99 834.638 277.355 834.638 319.445C834.638 338.789 818.734 345.799 798.166 345.799C768.725 345.799 746.635 327.602 746.635 327.602ZM1066.13 368.775H1034.65V256.65C1034.65 214.923 1019.41 194.06 988.951 194.059C973.207 194.06 960.184 199.979 949.88 211.819C939.576 223.659 934.424 238.602 934.424 256.65V368.775H902.937V172.172H934.424V204.811H935.192C950.04 179.98 971.543 167.564 999.702 167.564C1021.21 167.564 1037.65 174.508 1049.05 188.395C1060.44 202.283 1066.13 222.347 1066.13 248.586L1066.13 368.775ZM712.261 368.775H680.774V255.882C680.774 234.122 677.414 218.379 670.694 208.651C663.974 198.923 652.679 194.06 636.807 194.059C623.367 194.06 611.944 200.203 602.536 212.491C593.128 224.779 588.424 239.498 588.424 256.65V368.775H556.937V252.042C556.937 213.387 542.025 194.06 512.202 194.059C498.378 194.06 486.987 199.851 478.027 211.435C469.067 223.019 464.587 238.09 464.587 256.65V368.775H433.1V172.172H464.587V203.275H465.355C479.307 179.468 499.658 167.564 526.41 167.564C539.849 167.564 551.561 171.308 561.545 178.796C571.528 186.284 578.376 196.107 582.088 208.267C596.68 181.132 618.439 167.564 647.367 167.564C690.629 167.564 712.261 194.252 712.261 247.626L712.261 368.775ZM50.3372 460.81C23.45 460.81 0.533203 443.935 0.533203 405.682C0.533203 346.63 51.3508 301.786 74.4073 289.103C74.4073 289.103 106.666 307.686 140.133 319.645C73.6376 277.574 31.1477 200.921 31.1477 115.843C31.1477 36.3321 73.1163 0.533447 111.008 0.533447C141.49 0.533447 213.756 34.0653 213.756 162.735C213.756 301.187 141.511 460.81 50.3372 460.81Z" fill="white"/>
</g>
<defs>
<clipPath id="clip0_138_440">
<rect width="1066.67" height="461.344" fill="white"/>
</clipPath>
</defs>
</svg>
