<svg width="421" height="178" viewBox="0 0 421 178" fill="none" xmlns="http://www.w3.org/2000/svg">
<path d="M77.677 35.7363C41.6823 35.7363 12.397 65.0203 12.397 101.018C12.397 137.014 41.6823 166.3 77.677 166.3H349.774C385.766 166.3 415.053 137.014 415.053 101.018C415.053 65.0203 385.766 35.7363 349.774 35.7363H77.677Z" fill="white"/>
<path d="M77.6774 35.7362C41.6827 35.7362 12.3974 65.0202 12.3974 101.018C12.3974 137.014 41.6827 166.3 77.6774 166.3H349.775C385.767 166.3 415.053 137.014 415.053 101.018C415.053 65.0202 385.767 35.7362 349.775 35.7362H77.6774ZM349.775 171.862H77.6774C38.6161 171.862 6.8374 140.079 6.8374 101.018C6.8374 61.9562 38.6161 30.1762 77.6774 30.1762H349.775C388.836 30.1762 420.615 61.9562 420.615 101.018C420.615 140.079 388.836 171.862 349.775 171.862Z" fill="#C8C7C7"/>
<path d="M317.136 90.3196C311.717 90.3196 307.32 85.9289 307.32 80.5089C307.32 75.0836 311.717 70.6916 317.136 70.6916C322.554 70.6916 326.953 75.0836 326.953 80.5089C326.953 85.9289 322.554 90.3196 317.136 90.3196ZM317.136 61.3743C306.573 61.3743 298.008 69.9409 298.008 80.5089C298.008 91.0716 306.573 99.6316 317.136 99.6316C327.705 99.6316 336.265 91.0716 336.265 80.5089C336.265 69.9409 327.705 61.3743 317.136 61.3743Z" fill="#231F20"/>
<path d="M229.401 90.3196C223.988 90.3196 219.592 85.9289 219.592 80.5089C219.592 75.0836 223.988 70.6916 229.401 70.6916C234.826 70.6916 239.218 75.0836 239.218 80.5089C239.218 85.9289 234.826 90.3196 229.401 90.3196ZM229.401 61.3743C218.838 61.3743 210.274 69.9409 210.274 80.5089C210.274 91.0716 218.838 99.6316 229.401 99.6316C239.97 99.6316 248.537 91.0716 248.537 80.5089C248.537 69.9409 239.97 61.3743 229.401 61.3743Z" fill="#231F20"/>
<path d="M296.775 90.8542C295.565 91.2062 293.715 91.5529 293.011 91.5529C289.741 91.5529 289.029 90.4262 289.029 87.2969V69.6235H296.851V62.2382H289.029V51.7982H280.229L278.38 62.2382H272.249V62.2435H271.751C266.737 62.2675 262.956 65.3262 260.531 70.1169L257.471 62.2382H251.16V98.9449H261.945V82.9742C261.945 74.9249 266.701 69.7822 272.339 69.6235H278.239V87.8715C278.239 96.4609 282.641 99.6555 289.811 99.6555C293.511 99.6555 296.347 98.8742 298.048 98.3102L296.775 90.8542Z" fill="#231F20"/>
<path d="M349.333 73.851V98.9443H338.848V62.2377H345.212L347.344 67.8443" fill="#231F20"/>
<path d="M347.297 67.8795C350.485 64.1808 354.846 61.3795 359.956 61.3795C368.692 61.3795 372.285 68.3435 372.285 74.8022V98.9448H361.488V75.1128C361.488 71.9662 358.869 70.2582 356.028 70.2582C353.004 70.2582 351.06 71.9902 349.352 73.8395" fill="#231F20"/>
<path d="M168.203 48.9513H180.222L196.726 80.386V48.9513H206.68V98.9513H195.791L178.162 64.3873V98.9513H168.203V48.9513Z" fill="#231F20"/>
<path d="M404.137 30.1778V31.9685H401.518V40.7751H399.474V31.9685H396.903V30.1778H404.137Z" fill="#A7A5A6"/>
<path d="M405.604 40.7754V30.1781H408.37L410.207 37.1181L412.075 30.1781H414.87V40.7754H413.184V32.4847H413.136L410.995 40.7754H409.498L407.336 32.4847H407.29V40.7754H405.604Z" fill="#A7A5A6"/>
<path d="M165.203 143.259L167.698 139.379C169.724 140.876 172.766 142.267 176.475 142.267C180.08 142.267 182.306 140.634 182.306 137.798C182.306 134.535 179.494 133.671 174.872 132.063C170.728 130.607 166.654 128.516 166.654 122.646C166.654 117.144 170.992 114.148 176.828 114.148C180.708 114.148 183.567 114.912 185.87 116.268L183.874 120.396C181.942 119.392 179.634 118.711 176.922 118.711C173.67 118.711 171.72 119.938 171.72 122.516C171.72 125.546 173.98 126.315 178.231 127.712C182.664 129.15 187.543 131.2 187.543 137.704C187.543 143.207 183.61 146.835 176.552 146.835C171.315 146.835 167.468 145.027 165.203 143.259Z" fill="#A7A5A6"/>
<path d="M197.008 114.648H215.904V119.04H202.385V127.712H213.061V132.01H202.385V142.032H216.725V146.418H197.008V114.648Z" fill="#A7A5A6"/>
<path d="M224.417 130.56C224.417 121.289 228.856 114.156 237.716 114.156C241.684 114.156 244.82 115.412 247.028 117.984L243.892 121.612C241.996 119.756 240.388 118.847 237.804 118.847C232.602 118.847 230.201 123.103 230.201 130.965C230.201 138.345 232.736 142.085 237.85 142.085C240.692 142.085 242.688 140.593 244.438 138.739L247.604 142.267C245.301 144.985 242.418 146.835 237.804 146.835C228.668 146.835 224.417 139.871 224.417 130.56Z" fill="#A7A5A6"/>
<path d="M256.362 134.259V114.648H261.781V135.134C261.781 139.502 262.862 142.36 267.472 142.36C272.04 142.36 273.172 139.502 273.172 135.134V114.648H278.644V134.259C278.644 142.131 275.614 146.835 267.43 146.835C259.381 146.835 256.362 142.131 256.362 134.259Z" fill="#A7A5A6"/>
<path d="M299.593 128.798C303.621 128.798 305.693 127.489 305.693 123.819C305.693 120.291 303.579 119.034 299.909 119.034H294.802V128.798H299.593ZM311.799 146.423H305.922L299.822 132.949H294.802V146.423H289.423V114.649H299.787C306.203 114.649 311.213 116.95 311.213 123.913C311.213 128.663 308.365 131.047 305.194 132.181L311.799 146.423Z" fill="#A7A5A6"/>
<path d="M320.999 114.648H339.894V119.04H326.371V127.712H337.034V132.01H326.371V142.032H340.703V146.418H320.999V114.648Z" fill="#A7A5A6"/>
<path d="M357.407 142.033C364.824 142.033 367.36 138.61 367.36 130.419C367.36 123.233 365.369 119.034 358.076 119.034H355.188V142.033H357.407ZM349.787 114.649H357.719C368.076 114.649 373.053 120.255 373.053 130.419C373.053 140.775 367.988 146.423 357.993 146.423H349.787V114.649Z" fill="#A7A5A6"/>
<path d="M77.3518 48.763C63.4011 48.763 50.2784 54.2003 40.3971 64.0696C30.5278 73.9443 25.0918 87.067 25.0918 101.018C25.0918 114.966 30.5278 128.088 40.3971 137.97C50.2718 147.832 63.3944 153.27 77.3518 153.275C91.3011 153.27 104.424 147.832 114.305 137.963C124.162 128.088 129.6 114.966 129.605 101.018C129.6 87.067 124.162 73.9443 114.3 64.0643C104.418 54.2003 91.2958 48.763 77.3518 48.763ZM77.3518 177.455C35.2078 177.455 0.913086 143.16 0.913086 101.018C0.913086 58.8736 35.2078 24.5856 77.3518 24.5856C119.49 24.5856 153.777 58.8736 153.784 101.018C153.777 143.16 119.49 177.455 77.3518 177.455Z" fill="#FBBC09"/>
<path d="M166.571 12.8133H160.612V18.7733H166.571V12.8133Z" fill="#FBBC09"/>
<path d="M166.571 0.936076H160.612V6.90808H166.571V0.936076Z" fill="#FBBC09"/>
<path d="M149.41 18.7307H143.844V24.5493H149.41V18.7307Z" fill="#FBBC09"/>
<path d="M138.424 30.1573H132.811V35.7227H138.424V30.1573Z" fill="#231F20"/>
<path d="M155.65 24.5507H149.408V30.1573H155.65V24.5507Z" fill="#231F20"/>
<path d="M127.222 30.1573H132.811V24.8253H127.222V30.1573Z" fill="#231F20"/>
<path d="M149.41 30.1573H143.844V35.7227H149.41V30.1573Z" fill="#231F20"/>
<path d="M160.612 6.9067H154.716V12.8134H160.612V6.9067Z" fill="#231F20"/>
<path d="M154.716 12.8134H143.844V18.7307H154.716V12.8134Z" fill="#231F20"/>
<path d="M138.424 30.1573H143.843V18.732H138.424V30.1573Z" fill="#231F20"/>
<path d="M138.425 35.7227V41.3307H132.811V35.7227H123.499V39.7627H118.509V44.7467H124.081V50.3014H118.509V44.7467H112.585V53.46H106.983V59.02H103.267V64.604H99.1795C94.5888 71.432 83.0808 92.716 79.6062 101.381C67.0648 83.932 57.3302 77.016 49.6622 74.5147C45.5288 73.2694 40.5448 77.7734 47.4128 84.86C63.1888 102.209 68.1568 116.575 72.9528 128.035C75.4902 134.077 86.8622 135.017 89.1462 128.863C94.0022 115.859 101.042 101.247 109.379 89.2454V83.028H113.83V77.42H118.509V70.9214H124.098V64.656H118.445V58.9614H124.098V64.656H129.629L129.618 59.02H134.05V52.216H139.041V47.536H143.843V35.7227H138.425Z" fill="#231F20"/>
</svg>
