<svg width="552" height="201" viewBox="0 0 552 201" fill="none" xmlns="http://www.w3.org/2000/svg">
<path d="M500.205 136.997H513.569V102.676C513.569 94.0001 518.586 88.5015 526.554 88.5015C534.694 88.5015 538.459 93.0308 538.459 102.027V136.997H551.831V98.8508C551.831 84.7828 544.661 76.8628 531.515 76.8628C522.727 76.8628 516.801 80.9028 513.998 87.4788H513.081V78.0468H500.205V136.997ZM463.91 126.977C454.586 126.977 449.247 119.867 449.247 107.525C449.247 95.2375 454.586 88.0748 463.91 88.0748C473.175 88.0748 478.511 95.2375 478.511 107.525C478.511 119.867 473.229 126.977 463.91 126.977ZM463.91 138.189C481.529 138.189 492.251 126.656 492.251 107.525C492.251 88.4481 481.475 76.8628 463.91 76.8628C446.391 76.8628 435.562 88.5015 435.562 107.525C435.562 126.656 446.231 138.189 463.91 138.189ZM420.713 68.3015C425.126 68.3015 428.685 64.7361 428.685 60.2681C428.685 55.7921 425.133 52.1801 420.713 52.1801C416.35 52.1801 412.738 55.7921 412.738 60.2681C412.738 64.7361 416.35 68.2948 420.713 68.2948V68.3015ZM414.083 136.997H427.394V78.0468H414.083V136.997ZM380.157 63.6121V78.4281H370.839V89.0975H380.157V121.264C380.157 132.691 385.549 137.272 399.073 137.272C401.655 137.272 404.137 137.004 406.077 136.623V126.168C404.457 126.328 403.434 126.436 401.549 126.436C395.95 126.436 393.467 123.855 393.467 118.033V89.0975H406.077V78.4281H393.467V63.6055H380.157V63.6121ZM339.601 126.977C330.283 126.977 324.953 119.867 324.953 107.525C324.953 95.2375 330.283 88.0748 339.601 88.0748C348.871 88.0748 354.203 95.2375 354.203 107.525C354.203 119.867 348.925 126.977 339.601 126.977ZM339.601 138.189C357.227 138.189 367.95 126.656 367.95 107.525C367.95 88.4481 357.174 76.8628 339.601 76.8628C322.089 76.8628 311.259 88.5015 311.259 107.525C311.259 126.656 321.929 138.189 339.601 138.189ZM250.763 136.997V84.0868H251.679L289.835 136.997H301.847V59.2441H288.49V112.101H287.573L249.419 59.2441H237.359V136.991H250.77L250.763 136.997Z" fill="black"/>
<path fill-rule="evenodd" clip-rule="evenodd" d="M12.1013 8.65244L123.389 0.457776C137.056 -0.714224 140.572 0.0697656 149.161 6.30977L184.685 31.2778C190.547 35.5711 192.501 36.7404 192.501 41.4218V178.363C192.501 186.946 189.375 192.02 178.444 192.798L49.2053 200.602C41 200.994 37.0947 199.824 32.7973 194.358L6.636 160.416C1.94933 154.168 0 149.494 0 144.026V22.3031C0 15.2844 3.128 9.42977 12.1013 8.65244ZM159.707 67.1684C160.485 70.6831 159.707 74.1951 156.185 74.5898L150.335 75.7551V161.584C145.255 164.315 140.571 165.876 136.667 165.876C130.417 165.876 128.852 163.924 124.171 158.075L85.8987 97.9938V156.124L98.0093 158.856C98.0093 158.856 98.0093 165.876 88.2387 165.876L61.3027 167.439C60.52 165.876 61.3027 161.978 64.036 161.196L71.064 159.248V82.3898L61.3053 81.6071C60.5227 78.0938 62.472 73.0244 67.9427 72.6324L96.8373 70.6844L136.667 131.547V77.7058L126.512 76.5404C125.733 72.2431 128.852 69.1244 132.757 68.7364L159.707 67.1684ZM39.8293 60.9311V177.19C39.8293 183.439 42.9507 185.776 49.9787 185.39L171.411 178.363C178.441 177.976 179.225 173.679 179.225 168.603V53.1244C179.225 48.0578 177.276 45.3244 172.972 45.7151L46.0733 53.1244C41.3907 53.5178 39.8293 55.8604 39.8293 60.9311ZM33.1947 35.1804C39.436 40.2524 41.7773 39.8658 53.4987 39.0831L163.992 32.4484C166.336 32.4484 164.387 30.1111 163.605 29.7218L145.255 16.4564C141.739 13.7271 137.053 10.6004 128.075 11.3818L21.084 19.1858C17.1827 19.5724 16.404 21.5231 17.9573 23.0871L33.1947 35.1804Z" fill="black"/>
</svg>
