<svg width="1257" height="400" viewBox="0 0 1257 400" fill="none" xmlns="http://www.w3.org/2000/svg">
<path d="M0 322.629V79.4879L215.084 0L331.974 37.4061V364.708L215.084 399.942L0 322.629L215.084 348.51V65.4631L74.809 98.1928V289.901L0 322.629ZM561.048 324.334C527.19 324.334 500.077 313.177 479.708 290.865C459.338 268.553 449.154 239.525 449.154 203.78C449.154 165.371 459.532 134.734 480.291 111.868C501.048 89.001 529.299 77.5682 565.044 77.5682C598.012 77.5682 624.57 88.6689 644.718 110.869C664.865 133.071 674.939 162.099 674.939 197.955C674.939 236.918 664.615 267.722 643.969 290.368C623.321 313.014 595.682 324.334 561.048 324.334ZM563.046 102.873C537.958 102.873 517.589 111.92 501.937 130.013C486.285 148.108 478.459 171.864 478.459 201.28C478.459 230.697 486.091 254.369 501.353 272.296C516.617 290.224 536.515 299.188 561.047 299.188C587.245 299.188 607.892 290.64 622.989 273.545C638.085 256.45 645.633 232.528 645.633 201.779C645.633 170.254 638.307 145.887 623.655 128.682C609.001 111.476 588.799 102.874 563.046 102.873ZM774.435 64.2277C759.005 64.2277 746.184 69.483 735.86 79.8622C725.536 90.2414 720.371 104.365 720.371 122.236V149.852H691.295V173.231H720.371V320.369H747.549V173.231H814.033V320.369H841.211V173.231H881.1V149.852H841.211V123.551C841.211 99.4623 850.756 87.4601 869.849 87.4601C876.621 87.4601 882.64 88.8463 887.968 91.8436V67.2957C883.084 65.2977 876.568 64.2277 868.243 64.2277C852.813 64.2277 839.845 69.483 829.521 79.8616C819.198 90.2414 814.033 104.364 814.033 122.236V149.851H747.549V123.551C747.549 99.4616 757.095 87.4594 776.188 87.4594C782.96 87.4594 788.979 88.8463 794.307 91.8429V67.2957C789.423 65.2977 782.76 64.2284 774.435 64.2277ZM920.814 106.513C915.929 106.513 911.767 104.848 908.326 101.518C904.885 98.1877 903.164 93.9696 903.164 88.8627C903.164 83.7565 904.885 79.5106 908.326 76.1251C911.767 72.7397 915.929 71.0466 920.814 71.0466C925.809 71.0466 930.055 72.7397 933.551 76.1251C937.048 79.5112 938.796 83.7571 938.797 88.8627C938.796 93.7474 937.048 97.91 933.551 101.35C930.055 104.792 925.809 106.513 920.814 106.513ZM934.134 320.309H906.827V149.805H934.134V320.309ZM1089.27 312.483C1076.17 320.365 1060.63 324.305 1042.65 324.305C1018.34 324.305 998.72 316.396 983.789 300.578C968.859 284.76 961.393 264.251 961.393 239.053C961.393 210.968 969.442 188.406 985.537 171.366C1001.63 154.327 1023.11 145.808 1049.98 145.808C1064.96 145.808 1078.17 148.583 1089.6 154.133V182.106C1076.95 173.226 1063.41 168.786 1048.98 168.786C1031.55 168.786 1017.26 175.029 1006.1 187.518C994.945 200.006 989.366 216.407 989.366 236.721C989.366 256.703 994.611 272.465 1005.1 284.01C1015.59 295.555 1029.66 301.328 1047.31 301.327C1062.19 301.327 1076.17 296.387 1089.27 286.507L1089.27 312.483ZM1256.2 241.894H1135.81C1136.26 260.876 1141.36 275.529 1151.13 285.852C1160.9 296.175 1174.33 301.337 1191.43 301.337C1210.63 301.337 1228.28 295.01 1244.38 282.355V307.997C1229.39 318.876 1209.58 324.315 1184.93 324.315C1160.84 324.315 1141.92 316.573 1128.15 301.087C1114.39 285.602 1107.51 263.818 1107.51 235.733C1107.51 209.202 1115.03 187.584 1130.07 170.878C1145.11 154.172 1163.79 145.819 1186.1 145.819C1208.41 145.819 1225.67 153.034 1237.88 167.465C1250.09 181.896 1256.2 201.933 1256.2 227.575L1256.2 241.894ZM1228.22 218.75C1228.11 202.987 1224.31 190.721 1216.82 181.951C1209.33 173.182 1198.92 168.797 1185.6 168.797C1172.72 168.797 1161.79 173.404 1152.8 182.617C1143.8 191.831 1138.25 203.875 1136.14 218.75H1228.22Z" fill="#EB3C00"/>
</svg>
