<svg width="915" height="244" viewBox="0 0 915 244" fill="none" xmlns="http://www.w3.org/2000/svg">
<path d="M345.057 57.1206C345.057 69.247 342.758 79.5635 338.161 88.07C333.6 96.5766 327.374 103.074 319.483 107.563C311.628 112.015 302.796 114.241 292.986 114.241C283.104 114.241 274.235 111.997 266.38 107.508C258.525 103.02 252.317 96.5223 247.756 88.0157C243.196 79.5092 240.915 69.2108 240.915 57.1206C240.915 44.9943 243.196 34.6778 247.756 26.1712C252.317 17.6647 258.525 11.1852 266.38 6.73285C274.235 2.24428 283.104 0 292.986 0C302.796 0 311.628 2.24428 319.483 6.73285C327.374 11.1852 333.6 17.6647 338.161 26.1712C342.758 34.6778 345.057 44.9943 345.057 57.1206ZM321.221 57.1206C321.221 49.2656 320.044 42.6414 317.691 37.2479C315.375 31.8543 312.099 27.764 307.863 24.9767C303.628 22.1894 298.669 20.7958 292.986 20.7958C287.303 20.7958 282.344 22.1894 278.109 24.9767C273.873 27.764 270.579 31.8543 268.227 37.2479C265.91 42.6414 264.751 49.2656 264.751 57.1206C264.751 64.9756 265.91 71.5999 268.227 76.9934C270.579 82.3869 273.873 86.4773 278.109 89.2646C282.344 92.0518 287.303 93.4454 292.986 93.4454C298.669 93.4454 303.628 92.0518 307.863 89.2646C312.099 86.4773 315.375 82.3869 317.691 76.9934C320.044 71.5999 321.221 64.9756 321.221 57.1206Z" fill="#DA4F4A"/>
<path d="M389.756 64.505V112.721H366.625V29.3205H388.67V44.035H389.647C391.494 39.1845 394.589 35.3475 398.932 32.524C403.276 29.6644 408.543 28.2345 414.733 28.2345C420.524 28.2345 425.574 29.5015 429.882 32.0353C434.189 34.5692 437.538 38.189 439.927 42.8948C442.316 47.5643 443.51 53.1388 443.51 59.6183V112.721H420.38V63.7449C420.416 58.641 419.113 54.6592 416.47 51.7995C413.828 48.9037 410.19 47.4557 405.557 47.4557C402.444 47.4557 399.692 48.1254 397.303 49.4647C394.951 50.8041 393.104 52.7588 391.765 55.3288C390.462 57.8627 389.792 60.9214 389.756 64.505Z" fill="#DA4F4A"/>
<path d="M518.29 57.8808V76.2332H467.576V57.8808H518.29Z" fill="#DA4F4A"/>
<path d="M543.021 112.721V1.52032H586.893C595.328 1.52032 602.513 3.13114 608.449 6.35277C614.386 9.53821 618.911 13.9725 622.024 19.6556C625.173 25.3025 626.747 31.8181 626.747 39.2026C626.747 46.587 625.155 53.1026 621.969 58.7495C618.784 64.3964 614.169 68.7945 608.124 71.9438C602.115 75.093 594.839 76.6676 586.296 76.6676H558.333V57.8265H582.495C587.02 57.8265 590.748 57.0482 593.681 55.4917C596.649 53.899 598.857 51.709 600.305 48.9218C601.789 46.0983 602.531 42.8586 602.531 39.2026C602.531 35.5104 601.789 32.2887 600.305 29.5377C598.857 26.7504 596.649 24.5966 593.681 23.0763C590.712 21.5198 586.948 20.7415 582.387 20.7415H566.532V112.721H543.021Z" fill="#DA4F4A"/>
<path d="M667.714 114.296C662.393 114.296 657.651 113.373 653.488 111.526C649.325 109.644 646.031 106.875 643.606 103.219C641.217 99.5267 640.022 94.9296 640.022 89.4274C640.022 84.7941 640.873 80.9028 642.574 77.7536C644.275 74.6043 646.592 72.0705 649.524 70.152C652.456 68.2335 655.786 66.7855 659.515 65.8082C663.279 64.8308 667.225 64.1431 671.352 63.7449C676.202 63.2381 680.111 62.7675 683.08 62.3332C686.048 61.8626 688.202 61.1748 689.541 60.2699C690.88 59.3649 691.55 58.0256 691.55 56.2519V55.9261C691.55 52.4873 690.464 49.8267 688.292 47.9444C686.157 46.0621 683.116 45.121 679.17 45.121C675.008 45.121 671.695 46.044 669.234 47.8901C666.772 49.7 665.144 51.9805 664.347 54.7316L642.954 52.994C644.04 47.9263 646.176 43.5463 649.361 39.8541C652.547 36.1257 656.655 33.2661 661.687 31.2752C666.754 29.2481 672.618 28.2345 679.279 28.2345C683.912 28.2345 688.347 28.7775 692.582 29.8634C696.853 30.9494 700.636 32.6326 703.93 34.9131C707.26 37.1936 709.884 40.1256 711.803 43.7092C713.721 47.2566 714.681 51.5099 714.681 56.4691V112.721H692.745V101.156H692.093C690.754 103.762 688.962 106.06 686.718 108.051C684.473 110.006 681.777 111.544 678.627 112.667C675.478 113.753 671.84 114.296 667.714 114.296ZM674.338 98.3322C677.741 98.3322 680.745 97.6625 683.351 96.3232C685.957 94.9477 688.003 93.1016 689.487 90.7849C690.971 88.4682 691.713 85.8438 691.713 82.9118V74.0613C690.989 74.5319 689.994 74.9663 688.727 75.3645C687.496 75.7265 686.102 76.0703 684.546 76.3961C682.989 76.6857 681.433 76.9572 679.876 77.2106C678.32 77.4278 676.908 77.6269 675.641 77.8079C672.926 78.206 670.555 78.8395 668.528 79.7083C666.501 80.577 664.926 81.7534 663.804 83.2376C662.682 84.6855 662.121 86.4954 662.121 88.6673C662.121 91.8165 663.261 94.2237 665.542 95.8888C667.858 97.5177 670.79 98.3322 674.338 98.3322Z" fill="#DA4F4A"/>
<path d="M774.787 145.734C767.294 145.734 760.868 144.702 755.511 142.639C750.19 140.612 745.955 137.842 742.806 134.331C739.656 130.82 737.611 126.874 736.67 122.494L758.063 119.617C758.715 121.282 759.746 122.838 761.158 124.286C762.57 125.734 764.434 126.892 766.751 127.761C769.103 128.666 771.963 129.119 775.33 129.119C780.361 129.119 784.506 127.888 787.764 125.426C791.058 123.001 792.705 118.929 792.705 113.21V97.9521H791.727C790.714 100.269 789.193 102.459 787.166 104.522C785.139 106.585 782.533 108.269 779.348 109.572C776.162 110.875 772.361 111.526 767.945 111.526C761.683 111.526 755.982 110.078 750.842 107.183C745.738 104.251 741.665 99.7801 738.625 93.7712C735.62 87.7261 734.118 80.0883 734.118 70.8578C734.118 61.4101 735.656 53.5189 738.733 47.1842C741.81 40.8496 745.9 36.1076 751.004 32.9584C756.145 29.8092 761.773 28.2345 767.891 28.2345C772.56 28.2345 776.47 29.0309 779.619 30.6236C782.768 32.1801 785.302 34.1348 787.221 36.4877C789.175 38.8044 790.678 41.0849 791.727 43.3291H792.596V29.3205H815.564V113.535C815.564 120.63 813.826 126.567 810.351 131.345C806.876 136.123 802.062 139.707 795.908 142.096C789.791 144.521 782.75 145.734 774.787 145.734ZM775.275 94.1513C779.004 94.1513 782.153 93.2282 784.723 91.3821C787.329 89.4998 789.32 86.8212 790.696 83.3462C792.107 79.8349 792.813 75.636 792.813 70.7492C792.813 65.8625 792.125 61.6273 790.75 58.0437C789.374 54.4239 787.383 51.6185 784.777 49.6276C782.171 47.6367 779.004 46.6413 775.275 46.6413C771.474 46.6413 768.271 47.6729 765.665 49.7362C763.058 51.7633 761.086 54.5868 759.746 58.2066C758.407 61.8264 757.737 66.0073 757.737 70.7492C757.737 75.5636 758.407 79.7264 759.746 83.2376C761.122 86.7126 763.095 89.4093 765.665 91.3278C768.271 93.2102 771.474 94.1513 775.275 94.1513Z" fill="#DA4F4A"/>
<path d="M876.566 114.35C867.987 114.35 860.602 112.612 854.412 109.137C848.259 105.626 843.517 100.667 840.186 94.2599C836.856 87.8166 835.191 80.1969 835.191 71.4008C835.191 62.8218 836.856 55.2926 840.186 48.8132C843.517 42.3337 848.204 37.2841 854.249 33.6642C860.331 30.0444 867.462 28.2345 875.643 28.2345C881.145 28.2345 886.267 29.1214 891.009 30.8951C895.787 32.6326 899.95 35.257 903.497 38.7682C907.081 42.2794 909.868 46.6956 911.859 52.0167C913.85 57.3016 914.845 63.4915 914.845 70.5863V76.9391H844.422V62.6046H893.072C893.072 59.2744 892.348 56.3243 890.9 53.7542C889.452 51.1841 887.443 49.1751 884.873 47.7272C882.339 46.2431 879.389 45.501 876.023 45.501C872.511 45.501 869.398 46.3155 866.683 47.9444C864.005 49.5371 861.905 51.6909 860.385 54.4058C858.865 57.0844 858.086 60.0708 858.05 63.3648V76.9934C858.05 81.12 858.81 84.6855 860.331 87.6899C861.887 90.6944 864.077 93.0111 866.901 94.64C869.724 96.2689 873.072 97.0833 876.946 97.0833C879.516 97.0833 881.869 96.7214 884.004 95.9974C886.14 95.2734 887.968 94.1875 889.488 92.7396C891.009 91.2916 892.167 89.5179 892.963 87.4185L914.356 88.8302C913.27 93.9703 911.044 98.4589 907.678 102.296C904.348 106.097 900.04 109.065 894.755 111.201C889.506 113.3 883.443 114.35 876.566 114.35Z" fill="#DA4F4A"/>
<path d="M257.809 220.79H276.359C286.808 220.79 293.003 215.65 293.003 207.005V206.937C293.003 200.436 288.714 195.67 281.635 194.853V194.717C286.706 194.003 290.518 189.067 290.518 183.996V183.928C290.518 176.576 284.834 171.674 276.427 171.674H257.809V220.79ZM275.031 177.086C280.954 177.086 284.324 179.741 284.324 184.574V184.642C284.324 189.952 280.375 192.845 273.125 192.845H263.935V177.086H275.031ZM274.861 198.121C282.69 198.121 286.706 201.014 286.706 206.698V206.767C286.706 212.417 282.792 215.378 275.44 215.378H263.935V198.121H274.861Z" fill="#3367A4"/>
<path d="M302.431 232.703C308.83 232.703 311.928 229.776 314.447 223.002L328.266 185.391H322.037L312.234 214.867H312.098L302.329 185.391H295.998L309.137 220.824L308.422 222.832C306.992 226.848 304.916 227.802 301.172 227.802C300.457 227.802 299.776 227.699 299.266 227.597V232.431C300.015 232.567 301.274 232.703 302.431 232.703Z" fill="#3367A4"/>
<path d="M360.567 220.79H366.694V177.188H382.181V171.674H345.08V177.188H360.567V220.79Z" fill="#3367A4"/>
<path d="M379.9 220.79H385.823V198.938C385.823 193.56 388.818 190.361 393.413 190.361C394.842 190.361 396.102 190.531 396.578 190.701V184.949C396.102 184.881 395.217 184.71 394.196 184.71C390.213 184.71 387.15 187.297 385.959 191.382H385.823V185.391H379.9V220.79Z" fill="#3367A4"/>
<path d="M411.078 221.471C415.809 221.471 420.064 218.918 422.14 215.038H422.276V220.79H428.199V196.317C428.199 189.237 422.957 184.71 414.584 184.71C406.245 184.71 401.173 189.408 400.663 195.228L400.629 195.602H406.347L406.415 195.296C407.096 192.131 409.955 189.952 414.516 189.952C419.451 189.952 422.276 192.573 422.276 196.896V199.857L412.133 200.436C403.998 200.912 399.301 204.69 399.301 210.715V210.783C399.301 217.216 404.032 221.471 411.078 221.471ZM405.36 210.783V210.715C405.36 207.413 408.083 205.303 412.814 205.031L422.276 204.452V207.345C422.276 212.485 417.988 216.331 412.406 216.331C408.151 216.331 405.36 214.187 405.36 210.783Z" fill="#3367A4"/>
<path d="M437.627 220.79H443.55V190.293H450.766V185.391H443.482V181.068C443.482 177.563 445.115 175.895 448.383 175.895C449.302 175.895 450.221 175.929 450.936 176.031V171.232C450.051 171.096 448.655 170.993 447.328 170.993C440.793 170.993 437.627 174.227 437.627 181.034V185.391H432.692V190.293H437.627V220.79Z" fill="#3367A4"/>
<path d="M458.798 220.79H464.721V190.293H471.937V185.391H464.653V181.068C464.653 177.563 466.286 175.895 469.554 175.895C470.473 175.895 471.392 175.929 472.107 176.031V171.232C471.222 171.096 469.826 170.993 468.499 170.993C461.964 170.993 458.798 174.227 458.798 181.034V185.391H453.863V190.293H458.798V220.79Z" fill="#3367A4"/>
<path d="M481.399 179.401C483.475 179.401 485.109 177.733 485.109 175.691C485.109 173.614 483.475 171.98 481.399 171.98C479.357 171.98 477.689 173.614 477.689 175.691C477.689 177.733 479.357 179.401 481.399 179.401ZM478.438 220.79H484.36V185.391H478.438V220.79Z" fill="#3367A4"/>
<path d="M507.097 221.471C515.096 221.471 520.916 216.263 521.869 209.524L521.903 209.285H516.083L516.015 209.558C515.028 213.506 511.93 216.229 507.097 216.229C500.97 216.229 496.75 211.362 496.75 203.125V203.09C496.75 195.058 500.868 189.952 507.029 189.952C512.237 189.952 515.096 193.084 515.981 196.623L516.049 196.896H521.835L521.801 196.623C521.052 190.565 515.845 184.71 507.029 184.71C497.192 184.71 490.691 191.858 490.691 203.022V203.056C490.691 214.323 497.056 221.471 507.097 221.471Z" fill="#3367A4"/>
<path d="M542.564 220.79H548.691V201.355H560.433L570.951 220.79H578.133L566.764 200.402C572.891 198.461 576.635 193.186 576.635 186.378V186.31C576.635 177.46 570.44 171.674 560.978 171.674H542.564V220.79ZM548.691 195.943V177.12H560.161C566.458 177.12 570.304 180.592 570.304 186.446V186.514C570.304 192.539 566.73 195.943 560.433 195.943H548.691Z" fill="#3367A4"/>
<path d="M598.01 221.471C605.737 221.471 611.523 216.842 612.681 210.987L612.749 210.647H606.928L606.826 210.953C605.805 213.982 602.64 216.229 598.147 216.229C591.85 216.229 587.833 211.974 587.697 204.69H613.191V202.512C613.191 191.892 607.303 184.71 597.636 184.71C587.97 184.71 581.707 192.233 581.707 203.193V203.227C581.707 214.357 587.833 221.471 598.01 221.471ZM597.602 189.952C602.776 189.952 606.588 193.186 607.167 200.061H587.799C588.446 193.458 592.462 189.952 597.602 189.952Z" fill="#3367A4"/>
<path d="M631.741 221.471C639.638 221.471 645.492 217.114 645.492 210.919V210.885C645.492 205.848 642.906 203.022 635.758 201.287L630.142 199.925C626.227 198.972 624.628 197.304 624.628 194.888V194.853C624.628 191.722 627.283 189.646 631.571 189.646C635.962 189.646 638.583 191.926 639.059 195.364L639.093 195.602H644.744L644.71 195.16C644.267 189.237 639.332 184.71 631.571 184.71C623.913 184.71 618.569 189.033 618.569 195.126V195.16C618.569 200.265 621.803 203.363 628.474 204.963L634.09 206.324C638.106 207.311 639.434 208.741 639.434 211.293V211.328C639.434 214.527 636.575 216.535 631.775 216.535C626.942 216.535 624.321 214.459 623.606 210.919L623.538 210.579H617.616L617.65 210.885C618.365 217.216 623.402 221.471 631.741 221.471Z" fill="#3367A4"/>
<path d="M666.221 221.471C673.948 221.471 679.734 216.842 680.891 210.987L680.959 210.647H675.139L675.037 210.953C674.016 213.982 670.85 216.229 666.357 216.229C660.06 216.229 656.044 211.974 655.908 204.69H681.402V202.512C681.402 191.892 675.513 184.71 665.847 184.71C656.18 184.71 649.917 192.233 649.917 203.193V203.227C649.917 214.357 656.044 221.471 666.221 221.471ZM665.813 189.952C670.986 189.952 674.798 193.186 675.377 200.061H656.01C656.657 193.458 660.673 189.952 665.813 189.952Z" fill="#3367A4"/>
<path d="M697.74 221.471C702.471 221.471 706.725 218.918 708.802 215.038H708.938V220.79H714.86V196.317C714.86 189.237 709.619 184.71 701.245 184.71C692.906 184.71 687.835 189.408 687.324 195.228L687.29 195.602H693.008L693.076 195.296C693.757 192.131 696.616 189.952 701.177 189.952C706.113 189.952 708.938 192.573 708.938 196.896V199.857L698.795 200.436C690.66 200.912 685.963 204.69 685.963 210.715V210.783C685.963 217.216 690.694 221.471 697.74 221.471ZM692.021 210.783V210.715C692.021 207.413 694.744 205.303 699.475 205.031L708.938 204.452V207.345C708.938 212.485 704.649 216.331 699.067 216.331C694.812 216.331 692.021 214.187 692.021 210.783Z" fill="#3367A4"/>
<path d="M722.382 220.79H728.305V198.938C728.305 193.56 731.3 190.361 735.895 190.361C737.325 190.361 738.584 190.531 739.061 190.701V184.949C738.584 184.881 737.699 184.71 736.678 184.71C732.696 184.71 729.632 187.297 728.441 191.382H728.305V185.391H722.382V220.79Z" fill="#3367A4"/>
<path d="M756.862 221.471C764.861 221.471 770.681 216.263 771.634 209.524L771.668 209.285H765.848L765.78 209.558C764.793 213.506 761.695 216.229 756.862 216.229C750.735 216.229 746.515 211.362 746.515 203.125V203.09C746.515 195.058 750.633 189.952 756.794 189.952C762.002 189.952 764.861 193.084 765.746 196.623L765.814 196.896H771.6L771.566 196.623C770.817 190.565 765.61 184.71 756.794 184.71C746.957 184.71 740.456 191.858 740.456 203.022V203.056C740.456 214.323 746.821 221.471 756.862 221.471Z" fill="#3367A4"/>
<path d="M777.421 220.79H783.343V200.129C783.343 194.105 786.985 189.952 792.465 189.952C797.979 189.952 801.247 193.73 801.247 200.129V220.79H807.169V199.108C807.169 190.531 802.03 184.71 794.507 184.71C789.232 184.71 785.385 187.059 783.479 191.041H783.343V171.674H777.421V220.79Z" fill="#3367A4"/>
<path d="M66.8249 213.22L14.0957 174.848L27.7566 170.323L66.8249 200.516V213.22Z" fill="#DA4F4A"/>
<path d="M96.9307 218.614C103.404 210.261 103.921 195.237 103.37 188.769L133.911 164.406C134.537 194.895 109.518 213.249 96.9307 218.614Z" fill="#DA4F4A"/>
<path d="M36.9912 97.0589C30.5175 105.412 30.0013 120.436 30.5523 126.904L0.0111351 151.267C-0.615349 120.778 24.4035 102.425 36.9912 97.0589Z" fill="#DA4F4A"/>
<path d="M5.65573 243.5C-0.748349 212.524 16.4452 193.468 25.8425 187.812L52.3811 207.825C44.6544 231.214 18.0114 241.354 5.65573 243.5Z" fill="#DA4F4A"/>
<path d="M16.8986 226.185C12.8225 206.534 23.7661 194.446 29.7474 190.858L46.6389 203.553C41.721 218.391 24.7629 224.823 16.8986 226.185Z" fill="#FCAE04"/>
<path d="M174.198 66.0825L115.552 24.1032L174.198 2.04175V66.0825Z" fill="#DA4F4A"/>
<path d="M68.6524 199.124L27.8438 168.148C27.8438 89.7672 83.8214 40.8201 111.81 26.144L173.067 69.65C169.029 140.791 101.775 185.608 68.6524 199.124Z" fill="#3367A4"/>
<path d="M90.8404 128.731L86.2288 125.338L52.1201 179.285L90.8404 128.731Z" fill="#E1E9F2"/>
<circle cx="123.905" cy="75.654" r="24.0153" fill="#FCAE04"/>
<circle cx="123.905" cy="75.6538" r="18.4465" fill="#F3F7FA"/>
</svg>
