<svg width="494" height="70" viewBox="0 0 494 70" fill="none" xmlns="http://www.w3.org/2000/svg">
<path d="M175.946 44.9123L189.945 66.5686C189.26 67.6496 188.554 67.5487 187.912 67.5487C183.772 67.5487 179.625 67.5487 175.488 67.5811C174.977 67.6103 174.469 67.4894 174.026 67.2333C173.583 66.9772 173.224 66.5971 172.994 66.1398C169.369 60.0309 165.726 53.9256 162.065 47.8239C161.712 47.3088 161.322 46.8199 160.898 46.3609H150.387C148.683 53.3478 148.052 60.4609 146.337 67.4226H131.963L143.263 2.94752C143.843 2.36378 144.524 2.43224 145.176 2.43224C155.5 2.43224 165.831 2.2845 176.165 2.53313C183.289 2.7061 189.159 5.53474 192.741 12.1289C194.124 14.7333 194.846 17.6372 194.845 20.586C194.997 30.4232 190.95 37.8101 181.913 42.163C180.075 43.0422 178.23 43.8602 175.946 44.9123ZM156.199 15.0981C154.945 17.3286 152.477 32.4195 153.143 33.7383C158.617 33.7383 164.127 33.7383 169.636 33.7383C175.146 33.7383 178.587 30.0412 179.981 25.5731C181.293 21.3715 178.414 15.1557 173.517 15.1233C167.777 15.0512 162.029 15.0945 156.199 15.0945V15.0981Z" fill="#1D2759"/>
<path d="M472.967 67.3183C471.342 61.034 470.052 54.9047 468.902 48.9411C467.821 48.1375 466.942 48.4655 466.084 48.6817C454.614 51.5518 443.847 56.7228 434.436 63.8807C434.386 63.9147 434.34 63.9546 434.299 63.9996C431.496 67.4588 427.752 67.9056 423.622 67.6029C420.653 67.3759 417.655 67.5597 414.672 67.5597L414.25 67.048L454.518 2.51172H470.372L478.055 30.618C473.259 31.2378 468.852 31.7999 464.34 32.744L460.618 17.7179L460.081 17.6134L444.655 42.7217L445.016 43.4027C460.51 36.3401 476.689 33.2701 493.974 34.7546C492.93 38.6895 492.868 42.5956 491.549 46.4043C488.551 46.4872 485.571 46.0872 482.411 46.5701L488.036 67.3039L472.967 67.3183Z" fill="#1D2759"/>
<path d="M49.9746 67.0692C51.5889 64.4928 53.2176 61.9344 54.7995 59.3652C60.673 49.9195 66.5489 40.4715 72.4272 31.0211C78.1397 21.8373 83.8691 12.6595 89.6152 3.48775C89.7853 3.16851 90.0392 2.90177 90.3498 2.71634C90.6603 2.53091 91.0156 2.43382 91.3773 2.43557C95.9416 2.43557 100.506 2.44398 105.07 2.46079C105.462 2.51747 105.847 2.61903 106.216 2.76348L113.754 30.4085C109.268 31.4895 104.829 31.5255 100.306 32.8264C98.5696 27.8861 97.885 22.9099 96.5445 18.1643C95.6112 17.9733 95.2509 18.5462 94.9014 19.112C90.2819 26.5925 85.666 34.0683 81.0536 41.5393C80.919 41.7085 80.8242 41.9058 80.7761 42.1167C80.7281 42.3275 80.7281 42.5464 80.7762 42.7572C81.2662 43.3338 81.8572 43.0815 82.3725 42.8221C87.1181 40.4871 92.1268 38.898 97.2148 37.5216C103.228 35.8609 109.402 34.8557 115.632 34.5235C119.649 34.329 123.674 34.3578 127.692 34.5235C128.283 34.5488 128.906 34.4695 129.515 35.1577L127.631 46.2237C124.561 46.739 121.552 46.0219 118.19 46.584L123.829 67.4835H108.955C106.699 61.4083 106.198 54.7817 104.421 48.7136C103.506 48.1875 102.85 48.4866 102.238 48.6415C92.9628 51.0126 84.167 54.4898 76.1459 59.812C73.0354 61.8294 70.0477 64.0302 67.1987 66.4025C66.2987 67.2033 65.1234 67.6243 63.9196 67.5772C59.8406 67.498 55.7544 67.5556 51.6682 67.5484C51.207 67.552 50.7061 67.7214 49.9746 67.0692Z" fill="#1D2759"/>
<path d="M321.239 28.1716H352.949C352.61 32.701 351.54 36.6251 350.971 40.9887H318.847L316.641 53.8492H351.735C351.221 58.4302 350.427 62.9754 349.356 67.4591H299.99L311.33 2.67773H359.352C359.298 6.382 357.662 14.4643 356.783 15.5382C356.224 15.8552 355.612 15.7363 355.017 15.7363H325.83C323.506 15.7363 323.153 16.0678 322.821 18.3344C322.594 19.8766 322.259 21.4008 322.007 22.9395C321.755 24.4781 321.553 26.0131 321.239 28.1716Z" fill="#1D2759"/>
<path d="M17.9736 49.2041C16.2512 55.2469 15.9629 61.4555 14.3306 67.3686H0L11.2821 3.09176C11.4655 2.84945 11.7099 2.6601 11.9903 2.54299C12.2707 2.42589 12.5772 2.38522 12.8784 2.42514C23.2597 2.42514 33.6446 2.35307 44.0259 2.51522C49.4526 2.5981 54.4433 4.22682 58.2809 8.33106C62.6806 13.0443 63.9237 18.7808 63.1959 24.9966C62.1148 34.2789 57.4305 41.1938 49.2328 45.7052C45.3195 47.8672 41.0423 48.6635 36.6534 48.9951C31.0214 49.4203 25.3749 49.1464 19.7356 49.2041C19.26 49.2077 18.7844 49.2041 17.9736 49.2041ZM20.1789 35.1185C20.7266 35.8139 21.368 35.695 21.9481 35.695C27.1081 35.695 32.2682 35.695 37.4426 35.6518C39.1307 35.6735 40.7996 35.2926 42.3111 34.5406C43.8225 33.7887 45.133 32.6873 46.1339 31.3277C48.6202 28.0631 49.5823 24.4057 47.6401 20.5681C45.9718 17.2746 42.9557 16.208 39.3776 16.2657C34.7581 16.3413 30.1386 16.2657 25.519 16.2657C24.7984 16.2657 24.0777 16.1468 23.3822 16.8314L20.1789 35.1185Z" fill="#1D2759"/>
<path d="M249.271 67.4157H234.785L246.111 2.98392C246.777 2.41819 247.39 2.44341 247.988 2.44341C258.373 2.44341 268.761 2.30649 279.139 2.55152C285.96 2.71367 291.733 5.36575 295.433 11.4662C298.316 16.2263 298.676 21.4548 297.783 26.7661C296.46 34.5026 292.313 40.4589 285.762 44.7433C281.215 47.7089 276.069 48.7539 270.743 49.0674C265.525 49.3737 260.293 49.2043 255.079 49.2043C254.243 49.2043 253.393 49.107 252.485 49.7628L249.271 67.4157ZM254.993 35.007C255.196 35.2533 255.457 35.4461 255.752 35.5686C256.048 35.6911 256.368 35.7395 256.686 35.7097C261.785 35.7097 266.888 35.7529 271.986 35.652C277.222 35.5512 280.995 32.9567 282.699 28.085C284.94 21.7106 281.204 16.2912 275.06 16.2948C270.015 16.2948 264.971 16.2731 259.926 16.2587C259.604 16.2375 259.281 16.2843 258.978 16.396C258.675 16.5078 258.399 16.682 258.167 16.9073L254.993 35.007Z" fill="#1D2759"/>
<path d="M359.547 58.4755C362.725 54.9225 365.413 51.1138 368.952 47.7987C371.323 50.8651 373.892 53.0848 377.175 54.2847C383.952 56.7747 390.723 57.2719 397.353 53.7983C398.975 52.9479 400.323 51.7227 400.87 49.8886C402.488 44.4836 399.764 42.2891 394.745 41.0604C390.611 40.0478 386.316 39.8569 382.18 38.8227C378.483 37.9002 374.973 36.4985 371.979 34.1383C368.375 31.3169 367.182 27.3676 367.258 22.9679C367.402 14.518 371.391 8.4427 378.789 4.46458C387.869 -0.421582 397.422 -0.904433 407.255 1.42695C411.262 2.37823 417.024 6.7275 417.939 9.41561L408.931 17.3791C408.69 17.4432 408.436 17.4437 408.195 17.3806C407.954 17.3174 407.733 17.1927 407.555 17.0187C401.22 11.92 394.164 11.7037 386.868 14.2585C384.057 15.2423 381.906 17.2313 381.657 20.5284C381.477 22.9643 382.655 24.9245 384.951 25.7389C386.464 26.2758 387.995 26.8199 389.635 26.9928C393.984 27.4541 398.33 27.9369 402.582 29.072C409.94 31.0322 416.109 37.2444 415.986 45.9754C415.842 56.0648 409.702 63.585 401.13 66.7884C394.514 69.2603 387.614 70.3918 380.652 69.5918C373.067 68.7054 365.831 66.5038 360.75 60.0934C360.401 59.7222 360.109 59.2754 359.547 58.4755Z" fill="#1D2759"/>
<path d="M216.693 67.3792H202.258L213.623 2.62305H228.094L216.693 67.3792Z" fill="#1D2759"/>
</svg>
