<svg width="659" height="139" viewBox="0 0 659 139" fill="none" xmlns="http://www.w3.org/2000/svg">
<path d="M9.24831 0.248993C8.48432 0.409836 7.35844 0.731522 6.75529 0.972778C4.90562 1.73677 1.93008 4.75252 0.965041 6.88365L0 8.89415V69.2494V129.564L1.04546 131.655C1.6084 132.781 2.89512 134.43 3.86016 135.315C7.35844 138.411 1.40735 138.169 78.4498 138.169C154.688 138.169 149.219 138.37 152.557 135.596C153.482 134.832 154.768 133.264 155.412 132.098L156.618 129.926L156.739 69.8124C156.859 2.70181 157.06 7.60744 153.964 4.10916C153.08 3.10391 151.351 1.81718 150.064 1.17383L147.772 0.0479431L79.2138 0.00773621C41.4968 -0.0324707 10.0123 0.08815 9.24831 0.248993ZM143.027 11.1861C143.711 11.5882 144.716 12.4728 145.239 13.1966L146.163 14.5236V69.2092V123.895L145.279 125.141C143.309 127.916 148.415 127.715 78.3292 127.715C18.8987 127.715 14.9983 127.675 13.6714 126.991C12.9074 126.629 11.862 125.704 11.3794 124.94L10.4546 123.573L10.535 68.7669L10.6557 13.9606L12.0228 12.5533C12.7466 11.7893 14.0333 10.9851 14.8375 10.784C15.7623 10.5026 39.4058 10.3819 79.0127 10.4221C137.719 10.5026 141.821 10.5428 143.027 11.1861Z" fill="#0080F7"/>
<path d="M106.315 22.1233C105.632 22.445 104.626 23.2894 104.104 24.0132L103.139 25.3803L103.018 73.7128L102.938 122.085H121.836H140.735L140.655 73.9138C140.534 26.7877 140.534 25.7422 139.73 24.4555C139.287 23.7317 138.202 22.8069 137.317 22.3646C135.749 21.6006 134.784 21.5604 121.595 21.5604C110.738 21.6006 107.28 21.7212 106.315 22.1233Z" fill="#0080F7"/>
<path d="M62.7678 43.9976C62.0038 44.3594 60.9985 45.2038 60.5562 45.807C59.7118 46.9329 59.7118 47.2546 59.5912 84.5293L59.5107 122.085H78.4095H97.3082L97.2278 84.7705C97.1071 48.3 97.1071 47.4556 96.3029 46.1287C94.6543 43.314 94.3728 43.2738 78.4095 43.2738C65.6227 43.2738 63.9741 43.3542 62.7678 43.9976Z" fill="#0080F7"/>
<path d="M19.4616 65.5501C18.7781 65.8718 17.7728 66.7162 17.2501 67.44L16.285 68.8071L16.1644 95.4262L16.084 122.085H34.9827H53.9216L53.801 95.6272L53.6804 69.2092L52.7555 67.7617C51.1069 65.0676 50.4636 64.9872 34.661 64.9872C23.8445 65.0274 20.4267 65.148 19.4616 65.5501Z" fill="#0080F7"/>
<path d="M477.293 71.8227V107.208H482.52H487.748V98.6026V89.9574L490.804 87.4644C492.452 86.0972 493.98 85.1322 494.141 85.3333C494.302 85.5343 498.041 90.5204 502.384 96.4312L510.346 107.208H516.538C519.956 107.208 522.73 107.127 522.73 107.047C522.73 106.966 517.945 100.573 512.075 92.8525C506.204 85.1724 501.459 78.6584 501.54 78.3769C501.58 78.0955 506.124 73.1898 511.592 67.3996L521.564 56.945H515.372H509.18L501.741 64.6653C497.679 68.9276 493.015 74.0342 491.366 76.0447C489.758 78.015 488.23 79.8647 487.989 80.1462C487.667 80.5081 487.587 74.557 487.667 58.5534L487.828 36.4379H482.56H477.293V71.8227Z" fill="#212732"/>
<path d="M532.501 38.4484C531.778 38.8505 530.933 39.7753 530.571 40.4186C529.325 42.9117 530.129 46.9327 532.22 48.2998C535.075 50.1495 540.061 49.104 541.348 46.3697C542.795 43.354 541.75 39.4536 539.216 38.1669C537.648 37.3627 533.989 37.5235 532.501 38.4484Z" fill="#212732"/>
<path d="M200.688 40.66C194.455 42.0673 189.992 45.4047 187.499 50.431C185.971 53.4869 185.971 53.4869 185.971 58.5132C185.971 63.3384 186.011 63.7003 187.218 66.1933C188.665 69.1689 190.957 71.9434 193.732 73.9941C194.817 74.7581 198.919 77.05 202.899 79.0203C206.84 81.0308 210.781 83.2424 211.625 83.926C213.837 85.7756 214.882 87.9872 214.601 90.3998C214.118 94.3001 211.384 96.2704 205.955 96.6323C201.09 96.954 194.455 95.3456 185.69 91.7267C185.006 91.4452 184.966 91.8875 184.966 97.8386V104.192L187.901 105.318C193.41 107.368 195.863 107.771 203.462 107.771C208.931 107.771 211.062 107.61 213.032 107.087C218.943 105.438 222.964 102.744 225.578 98.683C229.478 92.6917 229.197 83.6445 224.935 78.0955C222.723 75.1602 218.823 72.5063 210.62 68.3647C202.216 64.1024 200.205 62.5342 199.482 59.8401C198.557 56.4223 200.608 52.8436 204.146 51.7981C207.684 50.7527 213.716 51.5167 219.989 53.889L223.447 55.1758L225.658 49.868L227.87 44.5201L225.377 43.5149C219.064 40.9816 216.088 40.3785 209.494 40.2176C205.071 40.097 202.538 40.2579 200.688 40.66Z" fill="#0080F7"/>
<path d="M305.194 73.793V107.208H310.623H316.051V93.9382V80.6689H321.6H327.189L335.191 93.9382L343.193 107.167L349.345 107.208C352.682 107.208 355.457 107.087 355.457 106.966C355.457 106.846 351.315 100.332 346.209 92.4906C341.142 84.6497 336.96 78.0552 336.96 77.8542C336.96 77.6531 337.322 77.3717 337.764 77.251C339.896 76.5675 344.761 72.7877 346.45 70.4958C348.782 67.3594 349.586 64.5849 349.586 59.7597C349.626 52.9642 347.334 48.0988 342.63 44.882C337.644 41.4641 334.065 40.8207 318.182 40.5795L305.194 40.3784V73.793ZM328.476 50.1495C334.146 51.0341 337.322 53.5271 338.207 57.6688C339.373 63.2982 337.121 68.1636 332.376 70.2545C330.567 71.0989 329.562 71.2195 323.208 71.3402L316.051 71.501V60.6041V49.7072H320.997C323.691 49.7072 327.069 49.9082 328.476 50.1495Z" fill="#212732"/>
<path d="M240.858 74.0342V107.208H259.958H279.058V101.578V95.9487H266.995H254.932V87.1025V78.2563H266.191H277.45V72.6269V66.9975H266.191H254.932V59.5586V52.1198H266.995H279.058V46.4904V40.861H259.958H240.858V74.0342Z" fill="#0080F7"/>
<path d="M378.859 56.1408C373.672 56.8645 365.469 59.5184 365.549 60.4432C365.549 60.6041 366.313 62.3331 367.238 64.2632L368.927 67.7213L371.782 66.5552C376.205 64.7859 379.02 64.1828 383 64.1828C389.796 64.223 392.048 66.2737 392.691 73.1094L392.932 76.1252L390.439 76.3664C389.032 76.5273 386.338 76.6479 384.448 76.6479C377.21 76.6479 369.852 78.4171 365.951 81.071C363.418 82.8 361.247 85.8158 360.644 88.4696C359.96 91.6462 360.322 97.3158 361.448 99.7687C363.82 105.117 369.128 108.012 376.486 108.012C382.84 107.972 387.424 106.162 391.284 102.101C393.535 99.7284 393.415 99.648 394.822 104.272L395.707 107.208H399.527H403.347L403.226 87.384L403.105 67.6006L402.14 65.2282C401.055 62.4939 398.32 59.5184 395.747 58.1915C392.128 56.3418 384.207 55.3768 378.859 56.1408ZM392.45 86.5798C392.45 90.842 392.048 92.4504 390.319 95.0239C386.981 99.9697 377.572 101.618 373.35 97.919C370.133 95.1043 370.897 88.5903 374.757 85.9766C377.331 84.2476 382.236 83.363 390.359 83.1217L392.45 83.0815V86.5798Z" fill="#212732"/>
<path d="M440.943 56.181C436.078 56.9852 432.137 58.9555 429.644 61.8908C428.88 62.7754 428.116 63.4188 427.996 63.2579C427.835 63.1373 427.433 61.6898 427.071 60.0813L426.387 57.146L422.085 57.0254L417.782 56.9048V82.0762V107.208H423.17H428.559L428.719 91.405C428.88 76.5273 428.92 75.4818 429.765 72.9888C431.614 67.48 434.67 65.1076 440.622 64.7055C445.929 64.3436 449.226 66.0324 451.036 70.0132C451.679 71.4608 451.76 73.3105 451.88 89.3945L452.001 107.208H457.429H462.817V89.7966C462.817 79.9451 462.616 71.3402 462.415 69.8926C461.692 65.4695 460.526 63.0167 457.952 60.5237C455.298 57.8698 452.886 56.8243 448.181 56.181C444.683 55.6985 443.798 55.6985 440.943 56.181Z" fill="#212732"/>
<path d="M579.105 56.181C574.36 56.9852 570.098 59.1565 567.886 61.9712C567.243 62.7352 566.64 63.3786 566.479 63.3786C566.318 63.3786 565.876 61.931 565.473 60.1618L564.75 56.945H560.447H556.104V82.0762V107.208H561.533H566.961V93.4155C566.961 85.856 567.162 78.3769 567.363 76.8489C568.208 70.9381 570.339 67.3996 574.159 65.6705C575.606 64.987 576.853 64.8261 579.828 64.7859C583.166 64.7859 583.93 64.9066 585.659 65.8314C587.307 66.6758 587.87 67.2387 588.876 69.209L590.082 71.5814L590.203 89.3945L590.323 107.208H595.711H601.14V89.3945C601.14 70.1339 600.939 68.0831 598.928 63.9013C597.601 61.2474 594.505 58.4327 591.731 57.3873C589.599 56.5831 584.332 55.6985 582.321 55.7789C581.718 55.8191 580.271 55.9799 579.105 56.181Z" fill="#212732"/>
<path d="M625.587 56.7439C616.822 58.9152 612.398 65.0673 612.881 74.3559C613.042 77.1706 613.283 78.2562 614.329 80.3874C615.535 82.7598 617.988 85.5745 620.36 87.1025C621.245 87.7056 621.245 87.7056 619.033 89.4346C615.374 92.2493 614.288 95.828 616.058 99.4871C616.54 100.452 617.626 101.739 618.43 102.342L619.958 103.428L617.384 104.353C614.248 105.478 611.232 108.052 609.946 110.746C608.538 113.601 608.619 117.903 610.106 120.959C611.996 124.819 615.213 127.111 620.601 128.519C629.206 130.73 642.717 129.444 649.593 125.785C650.678 125.181 652.608 123.694 653.855 122.407C656.951 119.351 657.956 116.737 657.997 111.791C657.997 108.454 657.916 107.931 656.71 105.478C655.101 102.221 652.85 100.332 649.03 99.085C646.738 98.3613 645.089 98.2004 636.645 97.9994C627.598 97.7581 626.834 97.7179 625.788 96.9137C624.944 96.2703 624.622 95.6672 624.542 94.4207C624.421 93.0133 624.622 92.5308 625.829 91.2441L627.196 89.7161L631.78 89.6759C637.128 89.6357 640.224 89.0727 643.601 87.4643C647.1 85.8157 649.512 83.5238 651.08 80.3472C652.327 77.8541 652.407 77.4118 652.407 73.431C652.407 69.6513 652.287 68.9677 651.282 66.8366C650.678 65.5499 650.236 64.3838 650.316 64.3034C650.397 64.2229 651.925 63.9013 653.654 63.5796C659.163 62.5341 658.64 62.9362 658.64 59.7998V57.0253L648.909 56.7841C643.521 56.6635 636.605 56.4624 633.509 56.3418C629.447 56.2211 627.236 56.3418 625.587 56.7439ZM637.691 63.7404C640.505 65.188 642.154 68.6058 642.154 72.9887C642.154 79.4223 638.897 82.8 632.745 82.8C626.432 82.8 623.255 79.543 623.255 73.0691C623.255 67.3593 625.386 64.0621 629.809 62.9362C631.82 62.4135 635.921 62.8558 637.691 63.7404ZM640.626 107.167C644.647 107.61 646.295 108.333 647.381 110.143C649.754 114.043 646.738 119.069 640.948 120.919C637.128 122.166 628.241 122.447 624.582 121.482C620.079 120.276 617.867 117.3 618.591 113.48C619.194 110.384 622.129 107.851 625.989 107.207C628.643 106.765 636.484 106.765 640.626 107.167Z" fill="#212732"/>
<path d="M530.451 81.9559L530.571 107.007L535.919 107.127L541.227 107.248V82.0766V56.9453H535.798H530.37L530.451 81.9559Z" fill="#212732"/>
</svg>
