<svg width="676" height="90" viewBox="0 0 676 90" fill="none" xmlns="http://www.w3.org/2000/svg">
<path d="M466.268 35.3075C466.268 24.2306 459.345 16.269 446.537 16.269H404.307V73.7306H418.153V53.9998H434.422L450.345 73.7306H465.922V72.346L450.345 53.6537C460.384 51.5767 466.268 44.3075 466.268 35.3075ZM444.807 42.2306H418.153V28.0383H444.807C449.653 28.0383 452.768 30.8075 452.768 35.3075C453.114 39.8075 449.999 42.2306 444.807 42.2306Z" fill="#111111"/>
<path d="M675.346 15.9233H662.538V37.731H627.577V15.9233H613.73V73.3849H627.577V50.8849H662.538V73.3849H675.346V15.9233Z" fill="#111111"/>
<path d="M367.27 15.9233L352.039 64.0387H351.347L335.77 15.9233H311.193V73.3849H324.347V26.308H325.04L340.27 73.3849H361.386L376.963 26.308H377.655V73.3849H391.155V15.9233H367.27Z" fill="#111111"/>
<path d="M216.692 39.4614C211.846 39.1153 202.846 38.0768 197.653 37.7306C192.807 37.3845 190.038 35.6537 190.038 32.5383C190.038 29.4229 193.153 26.9999 204.923 26.9999C215.307 26.9999 225 29.4229 233.653 33.2306V20.4229C225.346 16.2691 216 14.5383 204.23 14.5383C187.961 14.5383 176.538 21.4614 176.538 32.8845C176.538 42.5768 183.115 48.1153 196.615 49.4999C201.461 50.1922 209.769 50.8845 215.307 51.2306C221.538 51.5768 223.269 53.6537 223.269 56.4229C223.269 60.2306 218.769 62.6537 208.038 62.6537C196.961 62.6537 185.538 58.846 177.23 53.9999V67.1537C183.807 71.6537 194.884 75.1153 207.692 75.1153C225.346 75.1153 236.769 68.1922 236.769 56.0768C236.769 46.7306 230.884 40.846 216.692 39.4614Z" fill="#111111"/>
<path d="M246.114 15.9233V73.3849H299.422V61.6156H259.268V49.8464H298.73V38.0772H259.268V27.6926H299.422V15.9233H246.114Z" fill="#111111"/>
<path d="M585.002 39.4614C580.155 39.1153 571.155 38.0768 565.963 37.7306C561.117 37.3845 558.348 35.6537 558.348 32.5383C558.348 29.4229 561.463 26.9999 573.232 26.9999C583.617 26.9999 593.309 29.0768 601.963 33.2306V20.4229C593.655 16.2691 584.309 14.5383 572.54 14.5383C556.271 14.5383 544.848 21.4614 544.848 32.8845C544.848 42.5768 551.425 48.1153 564.925 49.4999C569.771 50.1922 578.078 50.8845 583.617 51.2306C589.848 51.5768 591.578 53.6537 591.578 56.4229C591.578 60.2306 587.078 62.6537 576.348 62.6537C565.271 62.6537 553.848 58.846 545.54 53.9999V67.1537C552.117 71.6537 563.194 75.1153 576.002 75.1153C593.655 75.1153 605.078 68.1922 605.078 56.0768C605.078 46.7306 598.848 40.846 585.002 39.4614Z" fill="#111111"/>
<path d="M521.655 15.9233V45.3464C521.655 56.4233 514.732 62.6541 504.693 62.6541C494.309 62.6541 487.732 56.7695 487.732 45.3464V15.9233H473.886V43.9618C473.886 64.731 487.04 75.1157 504.693 75.1157C522.001 75.1157 535.155 65.0772 535.155 44.6541V15.9233H521.655Z" fill="#111111"/>
<path d="M129.462 44.3077C129.462 47.0769 128.077 47.4231 124.615 47.4231C120.808 47.4231 120.115 46.7308 119.769 43.9615C119.077 36.6923 114.231 30.4615 105.923 30.1154C103.5 29.7692 102.808 29.0769 102.808 25.6154C102.808 22.5 103.154 21.1154 105.577 21.1154C119.423 21.4615 129.462 32.8846 129.462 44.3077ZM149.885 44.3077C149.885 22.8462 135.346 0 101.423 0H34.6154C33.2308 0 32.1923 0.692308 32.1923 2.07692C32.1923 2.76923 32.5385 3.46154 33.2308 3.80769C35.6538 5.88462 39.1154 7.96154 43.9615 10.3846C48.4615 12.8077 52.2692 14.1923 55.7308 15.5769C57.1154 16.2692 57.8077 16.9615 57.8077 17.6538C57.8077 18.6923 57.1154 19.7308 55.3846 19.7308H2.42308C0.692308 19.3846 0 20.4231 0 21.4615C0 22.5 0.346154 23.1923 1.03846 23.8846C5.19231 28.3846 12.1154 33.9231 22.1538 40.1538C30.8077 45.6923 41.8846 51.5769 50.5385 55.7308C51.9231 56.4231 52.6154 57.1154 52.6154 58.1538C52.6154 59.1923 51.9231 59.8846 50.1923 59.8846H25.6154C24.2308 59.8846 23.5385 60.5769 23.5385 61.6154C23.5385 62.3077 23.8846 63 24.5769 63.6923C30.1154 68.8846 39.1154 74.0769 50.8846 79.2692C66.8077 85.8462 82.7308 90 100.731 90C135 90 149.885 64.3846 149.885 44.3077ZM105.231 75.1154C88.6154 75.1154 74.4231 61.6154 74.4231 44.3077C74.4231 27.6923 88.2692 14.1923 105.231 14.1923C122.538 14.1923 136.038 27.6923 136.038 44.3077C136.038 61.2692 122.538 75.1154 105.231 75.1154Z" fill="#FF642D"/>
</svg>
