<svg width="1440" height="300" viewBox="0 0 1440 300" fill="none" xmlns="http://www.w3.org/2000/svg">
<path opacity="0.35" d="M1236.88 247.79L1439.92 247.376V4.14365H1097.24L1198.34 181.492L1236.88 247.79Z" fill="white"/>
<path d="M356.354 68.3702V4.14365H280.111L319.061 68.3702H356.354Z" fill="white"/>
<path d="M392.817 150.414C392.817 235.773 459.944 300 549.032 300C590.054 300 639.364 284.254 670.856 261.878V147.928H606.629V223.757C589.226 232.459 569.751 237.845 554.833 237.845C506.353 237.845 469.06 200.138 469.06 150.414C469.06 101.519 505.938 63.8122 554.005 63.8122C581.353 63.8122 610.773 75.8287 632.32 95.7182L674.17 45.1657C643.922 18.232 597.927 1.65746 554.419 1.65746C462.016 1.65746 392.817 65.4696 392.817 150.414Z" fill="white"/>
<path d="M280.111 68.3702V297.099L356.354 297.514V132.597L319.061 68.3702H280.111Z" fill="white"/>
<path d="M240.331 210.083C240.331 147.514 193.094 129.696 146.271 120.166L142.127 119.337C99.4475 110.635 77.9005 106.492 77.9005 84.5304C77.9005 65.884 94.0608 55.5249 121.823 55.5249C150.414 55.5249 169.475 67.1271 176.105 88.674L176.519 90.3315L238.26 73.7569L237.845 72.0994C224.171 24.8619 182.735 0 117.68 0C45.1657 0 5.38674 31.0773 5.38674 87.4309C5.38674 142.541 43.5083 159.116 84.9447 168.646C93.232 170.304 100.691 171.961 107.735 173.619C145.856 181.492 168.646 186.05 168.646 211.74C168.646 237.845 144.613 243.646 124.309 243.646C84.9447 243.646 67.5414 223.343 64.2265 203.867L63.8122 202.21L0 219.199L0.414365 220.856C7.45856 256.077 34.8066 298.343 124.309 298.343C199.309 298.343 240.331 267.265 240.331 210.083Z" fill="white"/>
<path d="M1076.52 68.7845L1039.23 4.55801H962.984L878.868 179.006L796.409 4.55801H717.68V297.514H784.392V107.32L854.42 261.878H902.901L973.343 107.32L973.757 297.514H1039.23V68.7845H1076.52Z" fill="white"/>
<path d="M1396.82 297.514L1227.35 4.55801L1190.47 68.7845L1153.59 133.011H1153.18L1058.29 297.514H1132.46L1227.35 132.597L1322.65 297.514H1396.82Z" fill="white"/>
</svg>
