<svg width="974" height="127" viewBox="0 0 974 127" fill="none" xmlns="http://www.w3.org/2000/svg">
<path d="M244.174 0.633443C240.874 1.76192 238.56 3.82139 237.178 6.72721C236.501 8.16602 236.444 8.61741 236.444 11.8336C236.444 15.2472 236.473 15.4447 237.347 17.222C238.504 19.5354 240.479 21.4538 243.018 22.6387C244.851 23.5133 245.049 23.5415 248.575 23.5415C252.158 23.5415 252.299 23.5133 254.105 22.6387C256.559 21.4256 258.732 19.2533 259.832 16.9399C260.65 15.1908 260.707 14.8805 260.707 11.8336C260.707 8.84311 260.65 8.44814 259.888 6.81185C259.296 5.57053 258.534 4.52669 257.18 3.25715C254.641 0.859139 252.977 0.238477 248.999 0.0692054C246.431 -0.0154303 245.782 0.0409935 244.174 0.633443Z" fill="#092540"/>
<path d="M434.069 0.435959C428.793 1.84655 425.605 6.16297 425.605 11.89C425.605 16.8553 427.947 20.5793 432.376 22.6669C434.125 23.5133 434.351 23.5415 437.878 23.5415C441.432 23.5415 441.602 23.5133 443.464 22.6387C445.89 21.482 447.978 19.3661 449.134 16.9117C449.868 15.3601 450.009 14.6548 450.093 12.3414C450.234 9.37913 449.811 7.54536 448.57 5.57052C447.724 4.21635 445.805 2.38258 444.366 1.53622C441.856 0.040992 437.313 -0.43861 434.069 0.435959Z" fill="#092540"/>
<path d="M465.666 57.8187V115.089H476.528H487.389V57.8187V0.548549H476.528H465.666V57.8187Z" fill="#092540"/>
<path d="M885.177 57.8186V115.089L894.543 115.032L903.881 114.948L904.953 109.757C905.546 106.907 906.082 104.425 906.138 104.284C906.166 104.143 906.956 104.904 907.831 106.005C911.781 110.829 917.592 114.355 924.166 115.935C930.993 117.571 939.682 117.176 946.538 114.948C951.983 113.17 956.694 110.18 961.236 105.666C969.897 96.9767 973.875 86.1998 973.395 72.4888C973 60.7809 969.164 51.217 961.8 43.487C958.471 40.0169 955.199 37.5907 951.052 35.5312C944.845 32.4561 939.795 31.4405 931.867 31.6662C927.636 31.779 926.31 31.9201 923.968 32.5407C918.439 33.9513 913.332 37.1675 908.621 42.2174L906.054 44.954V22.7512V0.548442H895.615H885.177V57.8186ZM934.632 51.612C938.328 52.543 941.065 54.1793 944.168 57.2544C946.594 59.6524 947.045 60.273 948.315 62.8967C950.149 66.7336 950.628 68.7084 950.826 73.1941C951.164 81.1216 948.907 87.0743 943.716 91.8986C938.779 96.4971 931.67 98.472 924.42 97.2024C919.623 96.3561 916.436 94.7198 912.937 91.2497C910.991 89.3313 910.426 88.5414 909.213 86.0305C907.521 82.6169 907.013 80.7831 906.59 76.9181C906.138 72.4042 906.9 67.326 908.593 63.5738C911.103 58.0161 916.351 53.3893 922.021 51.7248C925.717 50.6528 930.767 50.5964 934.632 51.612Z" fill="#092540"/>
<path d="M63.506 18.5196C52.2212 21.0304 45.2247 31.6381 47.4252 42.81C48.0459 45.9415 50.1618 50.0887 52.588 52.8817C55.0988 55.7875 59.1331 59.3422 65.3398 64.1946C68.0481 66.3105 71.3489 68.9342 72.6748 70.0345C76.3988 73.1378 82.7747 79.7112 84.7778 82.5042C86.9783 85.6075 89.1224 90.0085 89.8841 92.9144C91.8589 100.701 91.1254 111.026 87.9939 118.474C87.4579 119.8 86.9783 121.239 86.9501 121.719C86.8654 123.778 89.4891 122.593 94.9905 117.995C121.707 95.8202 123.118 56.0978 98.0373 31.9767C88.6428 22.9488 78.1762 18.2657 67.6531 18.3503C65.6783 18.3785 63.8163 18.4349 63.506 18.5196Z" fill="#FF8126"/>
<path d="M30.7797 23.6542C29.0588 24.4159 25.3066 26.8139 22.6829 28.7887C19.6642 31.0457 14.0218 36.6881 11.7649 39.7067C0.282615 54.913 -3.01818 74.4074 2.8499 92.4066C4.14765 96.3845 7.05347 102.337 9.39506 105.92C11.7366 109.418 17.238 115.004 21.0466 117.713C24.1499 119.913 30.6386 123.214 33.8548 124.258C38.3123 125.697 41.472 126.176 46.1552 126.204C55.2676 126.261 60.7689 124.23 66.0728 118.926C68.3015 116.669 68.8375 115.935 70.1071 113.396C70.897 111.76 71.7434 109.672 71.9973 108.741C72.5897 106.428 72.8154 101.237 72.4204 98.8953C71.6587 94.466 69.2607 89.7547 66.2985 86.736C64.8032 85.2125 56.8757 78.752 51.2897 74.492C42.3183 67.6647 36.0835 60.7528 32.5852 53.8127C28.4099 45.4902 28.0431 36.6034 31.5132 27.2935C33.0366 23.2874 32.8956 22.6668 30.7797 23.6542Z" fill="#092540"/>
<path d="M184.676 30.9044C179.456 31.525 175.055 32.7099 171.557 34.4591C168.538 35.9825 167.128 36.9699 164.814 39.1705C160.018 43.769 157.705 48.7907 157.395 55.2795C157.113 61.4579 158.551 65.2947 162.642 69.3572C167.41 74.0968 172.714 76.4102 187.497 80.247C202.534 84.1684 204.678 85.4662 204.706 90.6572C204.706 93.1398 204.085 94.494 202.082 96.3842C199.854 98.5001 198.104 99.0643 193.365 99.2336C187.215 99.4311 183.547 98.359 179.964 95.2839C177.933 93.563 175.563 90.6854 174.717 88.908C174.237 87.9488 173.983 87.7231 173.532 87.836C173.222 87.9206 168.849 88.908 163.799 90.0083C158.749 91.1368 154.602 92.0678 154.545 92.096C154.291 92.2935 156.661 98.0769 157.79 99.9671C159.652 103.099 164.758 108.177 168.115 110.264C172.714 113.086 178.441 115.089 184.563 115.991C188.371 116.556 198.528 116.443 201.857 115.822C213.17 113.735 221.52 107.81 224.962 99.4875C226.373 96.1303 226.796 93.3373 226.627 88.7388C226.429 83.04 225.498 80.1906 222.762 76.8051C218.868 71.9809 212.521 69.1033 196.666 64.8715C184.535 61.6553 180.557 59.9062 179.146 57.2261C178.582 56.0976 178.638 53.7842 179.315 52.4865C180.049 51.0195 181.883 49.496 183.801 48.7343C185.973 47.9161 192.349 47.6905 195.199 48.3393C198.923 49.2139 201.998 51.4426 204.057 54.7716C204.621 55.6744 205.129 56.4079 205.214 56.4079C205.411 56.4079 222.874 52.4583 223.269 52.3172C223.523 52.2326 223.382 51.5837 222.762 49.891C219.94 42.1045 213.931 36.2082 205.863 33.246C201.349 31.6097 197.625 30.989 191.305 30.8762C188.202 30.8197 185.212 30.8479 184.676 30.9044Z" fill="#092540"/>
<path d="M316.792 32.0048C309.682 33.3026 302.46 37.6754 298.595 43.0357C298.116 43.7128 297.664 44.2488 297.636 44.1924C297.551 44.1359 295.83 34.0925 295.83 33.7258C295.83 33.6411 291.401 33.5565 285.956 33.5565H276.082V74.3227V115.089H287.085H298.087V95.8201C298.087 85.2407 298.228 74.8587 298.369 72.7428C299.159 61.8812 303.363 55.2514 311.206 52.5713C313.209 51.8942 313.886 51.7814 316.989 51.7814C320.064 51.7814 320.77 51.866 322.547 52.5149C328.33 54.5743 331.744 59.8218 332.788 68.2571C332.957 69.7241 333.07 79.2598 333.07 92.8579V115.089H343.932H354.793V92.9707C354.793 69.0188 354.821 68.37 356.373 63.715C358.771 56.3799 364.78 51.6121 372.256 51.1325C382.187 50.4836 388.055 56.5774 389.212 68.7931C389.381 70.4859 389.494 81.0653 389.494 93.4221V115.089H400.214H410.935V89.4443C410.935 61.7684 410.878 60.4424 409.411 54.659C407.832 48.4242 405.575 44.277 401.484 40.1581C397.45 36.0673 393.246 33.7822 387.265 32.3998C383.654 31.5534 375.839 31.356 372.002 32.0048C363.652 33.3872 356.458 37.5344 351.38 43.9103L349.743 45.9697L348.756 44.3334C346.358 40.4402 342.86 37.1676 338.712 34.9953C335.609 33.3872 333.155 32.5691 329.572 32.0048C326.44 31.497 319.585 31.497 316.792 32.0048Z" fill="#092540"/>
<path d="M534.644 31.751C519.494 34.0362 507.476 43.9385 502.539 58.2702C500.592 63.8561 500.226 66.4234 500.226 74.1817C500.254 81.7707 500.536 83.8866 502.341 89.3879C505.614 99.4313 513.231 108.375 522.457 113.001C531.71 117.684 545.393 118.277 553.885 114.384C557.862 112.55 562.969 108.628 565.846 105.158C566.58 104.256 567.257 103.635 567.313 103.748C567.37 103.861 567.934 106.456 568.527 109.503L569.599 115.089H579.275H588.952V74.3228V33.5566H578.09H567.229V38.9732V44.4181L566.467 43.4307C564.803 41.202 560.768 37.6191 558.342 36.1803C552.841 32.9077 548.75 31.8638 540.992 31.7228C537.973 31.6664 535.124 31.6946 534.644 31.751ZM551.571 51.8943C555.295 53.0792 557.27 54.2923 560.317 57.3674C564.944 62.0224 566.608 66.0567 566.862 73.1943C567.06 78.4981 566.439 81.5732 564.379 85.7486C563.11 88.3159 562.574 89.0494 560.345 91.2499C556.537 95.0303 552.897 96.7512 547.509 97.2872C540.117 98.049 533.713 95.792 528.945 90.7703C526.209 87.8645 524.46 84.5919 523.444 80.4165C522.598 77.0029 522.598 70.7963 523.472 67.5519C525.616 59.3987 531.795 53.2767 539.694 51.4711C542.402 50.8505 549.032 51.0761 551.571 51.8943Z" fill="#092540"/>
<path d="M827.766 31.7511C821.305 32.7385 817.638 33.8388 813.011 36.2368C804.039 40.8353 797.043 49.0732 793.799 58.8063C789.934 70.4578 790.695 85.0151 795.717 94.9739C801.077 105.694 810.726 113.142 822.546 115.766C832.646 117.995 843.226 117.064 851.323 113.227C854.482 111.732 858.686 108.967 861.112 106.767C865.513 102.789 870.14 95.5382 871.776 90.0369L871.946 89.4162H861.507C851.266 89.4162 851.069 89.4162 850.899 89.9804C850.617 90.8832 848.219 93.7326 846.527 95.1714C844.749 96.6949 841.223 98.5004 838.768 99.1493C835.298 100.052 829.487 99.5161 825.791 97.9644C819.105 95.1432 814.309 88.5416 813.632 81.2065L813.434 79.2599H843.762H874.118L874.315 74.4921C874.513 69.555 874.428 67.8059 873.723 63.7434C872.087 54.2642 866.388 44.926 858.742 39.2837C856.203 37.3935 851.351 34.8262 848.501 33.8388C843.79 32.2307 841.11 31.8075 834.678 31.7229C831.349 31.6665 828.245 31.6947 827.766 31.7511ZM838.825 49.5246C842.521 50.3427 846.583 52.8254 848.812 55.6184C850.815 58.1292 852.31 61.9096 852.508 65.0129L852.592 66.1414L832.787 66.226C818.371 66.2542 812.954 66.1978 812.954 65.9721C812.954 65.1258 813.942 61.9942 814.76 60.2169C818.71 51.7251 828.725 47.2958 838.825 49.5246Z" fill="#092540"/>
<path d="M237.432 74.3227V115.089H248.575H259.719V74.3227V33.5565H248.575H237.432V74.3227Z" fill="#092540"/>
<path d="M426.733 74.3227V115.089H437.877H449.021V74.3227V33.5565H437.877H426.733V74.3227Z" fill="#092540"/>
<path d="M603.904 74.3227V115.089H614.738H625.599L625.712 93.9864C625.797 75.5076 625.881 72.6582 626.276 70.9372C627.489 65.9155 628.618 63.715 631.552 60.7527C635.558 56.7184 641.229 54.9975 650.567 54.9975H655.306L655.194 54.3486C655.109 54.0101 653.783 49.1859 652.259 43.5999L649.467 33.4718L646.645 33.6411C643.57 33.8386 641.37 34.3464 639 35.3902C634.627 37.3087 628.872 42.6689 626.107 47.3521C625.232 48.8755 625.345 49.2987 624.358 41.4558C623.963 38.2679 623.568 35.1928 623.483 34.6003L623.314 33.5565H613.609H603.904V74.3227Z" fill="#092540"/>
<path d="M661.88 34.8824C662.586 37.3369 670.203 63.4329 673.165 73.6174C678.074 90.347 683.632 109.418 684.478 112.324L685.268 115.089H696.468H707.696L707.95 114.158C708.204 113.34 709.333 109.475 716.47 85.0432C717.825 80.3882 720.307 71.84 722 66.0848C723.664 60.3014 725.131 55.731 725.244 55.9285C725.329 56.0978 727.219 62.4737 729.448 70.0909C731.648 77.6799 734.131 86.1999 734.949 88.9929C735.767 91.7858 737.799 98.8106 739.491 104.566L742.538 115.089H753.766H764.967L765.531 113.17C766.546 109.757 773.176 87.1873 775.433 79.5419C776.646 75.4229 778.96 67.4954 780.624 61.9094C782.26 56.3235 784.8 47.6906 786.267 42.7253L788.89 33.6975L778.311 33.6129C772.471 33.5847 767.619 33.6411 767.506 33.754C767.393 33.895 764.938 43.6846 762.033 55.5618C755.572 81.827 753.23 91.3062 753.146 91.1088C753.146 91.0241 749.591 78.0749 745.303 62.3326L737.46 33.6975L725.16 33.6129C715.483 33.5565 712.831 33.6129 712.746 33.895C712.662 34.0925 709.135 47.0418 704.875 62.6712C700.615 78.3006 697.061 90.9959 696.976 90.8831C696.891 90.7702 695.594 85.6074 694.098 79.4008C692.603 73.1942 689.782 61.5709 687.835 53.5869C685.889 45.603 683.998 37.8447 683.632 36.3777L683.011 33.6975L672.234 33.6129L661.485 33.5565L661.88 34.8824Z" fill="#092540"/>
</svg>
