<svg width="1769" height="393" viewBox="0 0 1769 393" fill="none" xmlns="http://www.w3.org/2000/svg">
<path d="M73.6143 160.153C95.8671 211.402 211.571 272.916 266.079 297.267V242.759C203.816 221.854 136.552 155.283 111.264 124.751L73.6143 160.153Z" fill="black"/>
<path d="M265.236 55.0703C165.436 73.9515 67.8076 184.13 31.4687 236.858L0 198.927C68.5569 86.539 205.39 19.4806 265.236 0V55.0703Z" fill="#78B83E"/>
<path d="M0 197.803C27.8723 266.36 189.374 356.177 266.36 392.516V333.793C172.404 305.921 66.8711 208.293 26.1303 162.963L0 197.803Z" fill="black"/>
<path d="M93.8439 293.052L57.5986 265.236C112.444 164.761 220.093 104.24 266.641 86.8198V144.138C176.056 176.056 114.167 255.871 93.8439 293.052Z" fill="#78B83E"/>
<path d="M265.236 54.7893C365.037 73.6705 464.632 184.13 500.971 236.858L531.597 198.365C463.04 85.9771 325.083 19.4806 265.236 0V54.7893Z" fill="black"/>
<path d="M433.819 285.185L473.998 264.674C419.153 164.199 312.346 104.24 265.799 86.8198V144.138C356.384 176.056 413.496 248.003 433.819 285.185Z" fill="black"/>
<path d="M532.721 198.084C504.848 266.641 343.346 356.177 266.36 392.516V333.793C360.317 305.921 465.85 207.731 506.59 162.401L532.721 198.084Z" fill="#78B83E"/>
<path d="M483.551 136.552C461.298 187.801 320.588 272.916 266.079 297.267V242.478C328.342 221.574 420.613 132.244 445.901 101.711L465.288 118.57L483.551 136.552Z" fill="#78B83E"/>
<path d="M727.976 224.215H679.887L620.868 24.753H658.028L703.932 188.148L749.835 24.753H787.268L727.976 224.215Z" fill="black"/>
<path d="M977.141 197.711C971.312 207.547 962.842 215.107 951.73 220.389C940.801 225.49 928.05 228.04 913.477 228.04C899.087 228.04 887.065 226.309 877.41 222.848C867.756 219.205 859.923 214.469 853.912 208.64C847.901 202.629 843.074 195.07 839.431 185.962C833.055 169.932 829.867 149.439 829.867 124.484C829.867 109 831.051 95.4298 833.419 83.7718C835.787 72.1138 839.886 61.3665 845.715 51.5301C857.373 31.1285 879.232 20.9277 911.291 20.9277C947.723 20.9277 971.767 35.0449 983.425 63.2791C989.801 79.1268 992.989 99.5283 992.989 124.484C992.989 140.149 991.805 153.811 989.437 165.469C987.069 177.127 982.97 187.874 977.141 197.711ZM911.291 197.984C927.868 197.984 939.435 191.517 945.992 178.584C952.55 165.651 955.829 147.618 955.829 124.484C955.829 101.35 952.55 83.3164 945.992 70.3833C939.435 57.4501 927.868 50.9836 911.291 50.9836C893.804 50.9836 881.873 58.0877 875.498 72.2959C869.851 85.229 867.027 102.625 867.027 124.484C867.027 160.915 874.405 183.594 889.159 192.519C895.17 196.162 902.548 197.984 911.291 197.984Z" fill="black"/>
<path d="M1195.45 197.711C1189.62 207.547 1181.15 215.107 1170.04 220.389C1159.11 225.49 1146.36 228.04 1131.79 228.04C1117.4 228.04 1105.38 226.309 1095.72 222.848C1086.07 219.205 1078.23 214.469 1072.22 208.64C1066.21 202.629 1061.38 195.07 1057.74 185.962C1051.37 169.932 1048.18 149.439 1048.18 124.484C1048.18 109 1049.36 95.4298 1051.73 83.7718C1054.1 72.1138 1058.2 61.3665 1064.03 51.5301C1075.68 31.1285 1097.54 20.9277 1129.6 20.9277C1166.03 20.9277 1190.08 35.0449 1201.74 63.2791C1208.11 79.1268 1211.3 99.5283 1211.3 124.484C1211.3 140.149 1210.12 153.811 1207.75 165.469C1205.38 177.127 1201.28 187.874 1195.45 197.711ZM1129.6 197.984C1146.18 197.984 1157.75 191.517 1164.3 178.584C1170.86 165.651 1174.14 147.618 1174.14 124.484C1174.14 101.35 1170.86 83.3164 1164.3 70.3833C1157.75 57.4501 1146.18 50.9836 1129.6 50.9836C1112.11 50.9836 1100.18 58.0877 1093.81 72.2959C1088.16 85.229 1085.34 102.625 1085.34 124.484C1085.34 160.915 1092.72 183.594 1107.47 192.519C1113.48 196.162 1120.86 197.984 1129.6 197.984Z" fill="black"/>
<path d="M1395.18 24.753H1432.34V224.215H1393L1314.03 88.69V224.215H1276.87V24.753H1316.22L1395.18 160.551V24.753Z" fill="black"/>
<path d="M1508.26 24.753H1545.42V224.215H1508.26V24.753Z" fill="black"/>
<path d="M1597.12 24.753H1639.47L1684.28 93.8815L1725.81 24.753H1764.88L1703.95 124.211L1768.98 224.215H1726.63L1679.36 151.534L1636.46 224.215H1597.66L1659.96 121.478L1597.12 24.753Z" fill="black"/>
<path d="M659.199 346.306C657.763 348.807 655.702 350.729 653.015 352.073C650.329 353.37 647.017 354.018 643.08 354.018C639.189 354.018 635.9 353.37 633.213 352.073C630.573 350.776 628.535 348.877 627.099 346.375C625.709 343.828 624.713 341.072 624.111 338.107C623.555 335.142 623.277 331.9 623.277 328.38C623.277 324.813 623.439 321.802 623.764 319.347C624.088 316.846 624.69 314.437 625.57 312.121C626.497 309.805 627.678 307.883 629.114 306.354C632.31 303.019 636.988 301.351 643.149 301.351C650.931 301.351 656.281 303.945 659.199 309.133C660.635 311.635 661.631 314.367 662.187 317.332C662.789 320.297 663.09 323.771 663.09 327.754C663.09 331.692 662.789 335.142 662.187 338.107C661.631 341.072 660.635 343.804 659.199 346.306ZM643.566 349.016C645.975 349.016 648.105 348.483 649.958 347.417C651.857 346.306 653.293 344.754 654.266 342.762C655.239 340.724 655.934 338.501 656.351 336.092C656.767 333.637 656.976 330.835 656.976 327.685C656.976 324.535 656.767 321.756 656.351 319.347C655.934 316.892 655.239 314.645 654.266 312.607C652.228 308.438 648.522 306.354 643.149 306.354C638.841 306.354 635.599 307.72 633.422 310.453C630.735 313.835 629.392 319.579 629.392 327.685C629.392 335.791 630.735 341.535 633.422 344.916C635.599 347.649 638.98 349.016 643.566 349.016Z" fill="black"/>
<path d="M693.016 312.329C703.021 312.329 708.024 319.277 708.024 333.174C708.024 347.07 702.836 354.018 692.46 354.018C689.079 354.018 685.443 353.3 681.552 351.864V368.47L675.576 369.304V313.302H679.12L680.509 316.776C684.539 313.812 688.708 312.329 693.016 312.329ZM702.049 333.174C702.049 328.588 701.238 324.79 699.617 321.779C698.042 318.722 695.448 317.193 691.835 317.193C688.222 317.193 684.794 318.374 681.552 320.737V347.348C684.424 348.552 687.689 349.155 691.349 349.155C698.482 349.155 702.049 343.828 702.049 333.174Z" fill="black"/>
<path d="M713.232 317.401V313.302H720.041V306.076L726.016 303.714V313.302H734.424V317.401H726.016V343.735C726.016 345.819 726.294 347.302 726.85 348.182C727.452 349.016 728.309 349.432 729.421 349.432C730.533 349.432 731.899 349.247 733.52 348.877L734.215 352.907C731.714 353.648 729.583 354.018 727.823 354.018C726.109 354.018 724.696 353.74 723.585 353.184C722.473 352.629 721.685 351.795 721.222 350.683C720.435 349.016 720.041 346.769 720.041 343.943V317.401H713.232Z" fill="black"/>
<path d="M743.09 313.302H749.065V353.045H743.09V313.302ZM746.078 306.632C743.715 306.632 742.534 305.358 742.534 302.81C742.534 300.216 743.715 298.919 746.078 298.919C748.533 298.919 749.76 300.216 749.76 302.81C749.76 305.358 748.533 306.632 746.078 306.632Z" fill="black"/>
<path d="M781.781 312.329C787.154 312.329 790.767 314.159 792.62 317.818C794.334 316.29 796.372 314.993 798.734 313.927C801.143 312.862 803.621 312.329 806.169 312.329C814.229 312.329 818.259 316.475 818.259 324.767V353.045H812.283V325.114C812.283 322.52 811.727 320.551 810.616 319.208C809.504 317.865 807.697 317.193 805.196 317.193C801.073 317.193 797.275 318.768 793.801 321.918C793.94 322.844 794.009 323.794 794.009 324.767V353.045H788.034V325.114C788.034 322.52 787.478 320.551 786.367 319.208C785.255 317.865 783.425 317.193 780.877 317.193C776.848 317.193 773.142 318.652 769.76 321.57V353.045H763.785V313.302H767.468L768.996 317.263C772.887 313.974 777.149 312.329 781.781 312.329Z" fill="black"/>
<path d="M832.317 313.302H838.292V353.045H832.317V313.302ZM835.304 306.632C832.942 306.632 831.761 305.358 831.761 302.81C831.761 300.216 832.942 298.919 835.304 298.919C837.759 298.919 838.987 300.216 838.987 302.81C838.987 305.358 837.759 306.632 835.304 306.632Z" fill="black"/>
<path d="M867.394 330.881C871.563 331.9 874.528 333.266 876.288 334.98C878.095 336.648 878.998 339.172 878.998 342.554C878.998 345.889 877.747 348.599 875.246 350.683C872.744 352.768 869.039 353.81 864.129 353.81C859.219 353.81 855.652 352.883 853.429 351.031C851.252 349.131 849.862 346.398 849.26 342.832L854.123 342.067C854.818 346.746 857.991 349.085 863.642 349.085C869.896 349.085 873.022 346.977 873.022 342.762C873.022 340.909 872.443 339.543 871.285 338.663C870.174 337.783 868.159 336.972 865.24 336.231L861.28 335.258C857.25 334.239 854.378 332.896 852.664 331.228C850.997 329.561 850.163 327.036 850.163 323.655C850.163 320.227 851.367 317.494 853.776 315.456C856.185 313.372 859.728 312.329 864.407 312.329C869.131 312.329 872.536 313.279 874.62 315.178C876.751 317.031 878.118 319.741 878.72 323.307L873.787 324.072C873.184 319.393 870.22 317.054 864.893 317.054C859.057 317.054 856.138 319.162 856.138 323.377C856.138 325.23 856.671 326.619 857.736 327.546C858.802 328.426 860.678 329.213 863.364 329.908L867.394 330.881Z" fill="black"/>
<path d="M903.263 354.018C897.194 354.018 892.863 352.304 890.269 348.877C887.676 345.403 886.379 340.168 886.379 333.174C886.379 319.277 891.914 312.329 902.985 312.329C913.916 312.329 919.382 319 919.382 332.34V333.799H892.284C892.331 339.265 893.165 343.202 894.786 345.611C896.407 347.973 899.233 349.155 903.263 349.155C909.84 349.155 913.36 346.491 913.824 341.164L918.757 341.442C917.877 349.826 912.712 354.018 903.263 354.018ZM913.407 329.352C913.175 325.461 912.295 322.474 910.767 320.389C909.238 318.258 906.667 317.193 903.054 317.193C899.441 317.193 896.847 318.282 895.272 320.459C893.697 322.589 892.748 325.554 892.423 329.352H913.407Z" fill="black"/>
<path d="M958.373 370.068L952.953 369.096L959.068 353.323L944.06 313.302H950.243L961.986 345.472L973.381 313.302H979.495L958.373 370.068Z" fill="black"/>
<path d="M995.821 347.904C997.396 348.738 999.341 349.155 1001.66 349.155C1003.97 349.155 1005.9 348.738 1007.42 347.904C1009 347.024 1010.16 345.796 1010.9 344.221C1011.64 342.6 1012.15 340.933 1012.43 339.219C1012.75 337.458 1012.91 335.444 1012.91 333.174C1012.91 330.904 1012.75 328.912 1012.43 327.198C1012.15 325.438 1011.64 323.771 1010.9 322.196C1010.16 320.574 1009 319.347 1007.42 318.513C1005.9 317.633 1003.97 317.193 1001.66 317.193C999.341 317.193 997.396 317.633 995.821 318.513C994.292 319.347 993.134 320.574 992.347 322.196C991.606 323.771 991.096 325.415 990.818 327.129C990.54 328.843 990.401 330.858 990.401 333.174C990.401 335.49 990.54 337.505 990.818 339.219C991.096 340.933 991.606 342.6 992.347 344.221C993.134 345.796 994.292 347.024 995.821 347.904ZM1018.89 333.174C1018.89 347.07 1013.15 354.018 1001.66 354.018C990.17 354.018 984.426 347.07 984.426 333.174C984.426 319.277 990.17 312.329 1001.66 312.329C1013.15 312.329 1018.89 319.277 1018.89 333.174Z" fill="black"/>
<path d="M1041.02 354.018C1036.9 354.018 1033.91 352.999 1032.06 350.961C1030.2 348.877 1029.28 345.773 1029.28 341.651V313.302H1035.25V341.234C1035.25 343.967 1035.83 345.982 1036.99 347.279C1038.19 348.529 1040.05 349.155 1042.55 349.155C1047.04 349.155 1051.23 346.862 1055.12 342.276V313.302H1061.1V353.045H1057.14L1055.26 347.14C1050.96 351.725 1046.21 354.018 1041.02 354.018Z" fill="black"/>
<path d="M1081.82 353.045H1075.84V313.302H1079.38L1081.54 320.389C1084.78 315.248 1089.53 312.561 1095.78 312.329V317.818C1089.53 318.05 1084.87 320.69 1081.82 325.739V353.045Z" fill="black"/>
<path d="M1146.39 314.97C1149.17 316.961 1150.56 320.713 1150.56 326.226V353.045H1146.6L1145.07 346.862C1140.63 351.633 1135.74 354.018 1130.41 354.018C1126.89 354.018 1124.3 353.092 1122.63 351.239C1121.01 349.386 1120.2 346.885 1120.2 343.735C1120.2 340.585 1121.17 338.037 1123.12 336.092C1125.11 334.147 1128.81 332.734 1134.23 331.854L1144.59 330.186V326.226C1144.59 322.798 1143.85 320.436 1142.36 319.139C1140.93 317.842 1138.93 317.193 1136.39 317.193C1131.29 317.193 1128.26 319.671 1127.29 324.628L1122.42 323.168C1123.16 319.741 1124.71 317.077 1127.08 315.178C1129.44 313.279 1132.64 312.329 1136.67 312.329C1140.74 312.329 1143.98 313.209 1146.39 314.97ZM1132.08 349.432C1136.25 349.432 1140.42 347.186 1144.59 342.693V334.355L1134.79 336.023C1131.5 336.625 1129.23 337.574 1127.98 338.871C1126.73 340.122 1126.1 341.674 1126.1 343.527C1126.1 345.333 1126.59 346.769 1127.56 347.834C1128.54 348.9 1130.04 349.432 1132.08 349.432Z" fill="black"/>
<path d="M1177.1 303.922C1173.49 303.922 1171.68 306.03 1171.68 310.245V313.302H1180.85V317.401H1171.68V353.045H1165.7V317.401H1161.12V313.302H1165.7V310.245C1165.7 302.88 1169.36 299.197 1176.68 299.197C1179.42 299.197 1181.87 299.591 1184.05 300.379L1182.52 304.895C1180.94 304.246 1179.14 303.922 1177.1 303.922Z" fill="black"/>
<path d="M1200.58 303.922C1196.96 303.922 1195.16 306.03 1195.16 310.245V313.302H1204.33V317.401H1195.16V353.045H1189.18V317.401H1184.6V313.302H1189.18V310.245C1189.18 302.88 1192.84 299.197 1200.16 299.197C1202.89 299.197 1205.35 299.591 1207.52 300.379L1206 304.895C1204.42 304.246 1202.61 303.922 1200.58 303.922ZM1211.83 313.302H1217.81V353.045H1211.83V313.302ZM1214.82 306.632C1212.46 306.632 1211.28 305.358 1211.28 302.81C1211.28 300.216 1212.46 298.919 1214.82 298.919C1217.27 298.919 1218.5 300.216 1218.5 302.81C1218.5 305.358 1217.27 306.632 1214.82 306.632Z" fill="black"/>
<path d="M1238.49 353.045H1232.51V300.379L1238.49 299.545V353.045Z" fill="black"/>
<path d="M1253.21 313.302H1259.18V353.045H1253.21V313.302ZM1256.2 306.632C1253.83 306.632 1252.65 305.358 1252.65 302.81C1252.65 300.216 1253.83 298.919 1256.2 298.919C1258.65 298.919 1259.88 300.216 1259.88 302.81C1259.88 305.358 1258.65 306.632 1256.2 306.632Z" fill="black"/>
<path d="M1296.42 314.97C1299.19 316.961 1300.58 320.713 1300.58 326.226V353.045H1296.62L1295.1 346.862C1290.65 351.633 1285.76 354.018 1280.43 354.018C1276.91 354.018 1274.32 353.092 1272.65 351.239C1271.03 349.386 1270.22 346.885 1270.22 343.735C1270.22 340.585 1271.19 338.037 1273.14 336.092C1275.13 334.147 1278.84 332.734 1284.26 331.854L1294.61 330.186V326.226C1294.61 322.798 1293.87 320.436 1292.39 319.139C1290.95 317.842 1288.96 317.193 1286.41 317.193C1281.31 317.193 1278.28 319.671 1277.31 324.628L1272.44 323.168C1273.19 319.741 1274.74 317.077 1277.1 315.178C1279.46 313.279 1282.66 312.329 1286.69 312.329C1290.76 312.329 1294.01 313.209 1296.42 314.97ZM1282.1 349.432C1286.27 349.432 1290.44 347.186 1294.61 342.693V334.355L1284.81 336.023C1281.52 336.625 1279.25 337.574 1278 338.871C1276.75 340.122 1276.13 341.674 1276.13 343.527C1276.13 345.333 1276.61 346.769 1277.59 347.834C1278.56 348.9 1280.06 349.432 1282.1 349.432Z" fill="black"/>
<path d="M1308.71 317.401V313.302H1315.52V306.076L1321.49 303.714V313.302H1329.9V317.401H1321.49V343.735C1321.49 345.819 1321.77 347.302 1322.33 348.182C1322.93 349.016 1323.79 349.432 1324.9 349.432C1326.01 349.432 1327.38 349.247 1329 348.877L1329.69 352.907C1327.19 353.648 1325.06 354.018 1323.3 354.018C1321.59 354.018 1320.17 353.74 1319.06 353.184C1317.95 352.629 1317.16 351.795 1316.7 350.683C1315.91 349.016 1315.52 346.769 1315.52 343.943V317.401H1308.71Z" fill="black"/>
<path d="M1338.57 313.302H1344.54V353.045H1338.57V313.302ZM1341.56 306.632C1339.19 306.632 1338.01 305.358 1338.01 302.81C1338.01 300.216 1339.19 298.919 1341.56 298.919C1344.01 298.919 1345.24 300.216 1345.24 302.81C1345.24 305.358 1344.01 306.632 1341.56 306.632Z" fill="black"/>
<path d="M1367.04 347.904C1368.62 348.738 1370.56 349.155 1372.88 349.155C1375.2 349.155 1377.12 348.738 1378.65 347.904C1380.22 347.024 1381.38 345.796 1382.12 344.221C1382.86 342.6 1383.37 340.933 1383.65 339.219C1383.97 337.458 1384.14 335.444 1384.14 333.174C1384.14 330.904 1383.97 328.912 1383.65 327.198C1383.37 325.438 1382.86 323.771 1382.12 322.196C1381.38 320.574 1380.22 319.347 1378.65 318.513C1377.12 317.633 1375.2 317.193 1372.88 317.193C1370.56 317.193 1368.62 317.633 1367.04 318.513C1365.52 319.347 1364.36 320.574 1363.57 322.196C1362.83 323.771 1362.32 325.415 1362.04 327.129C1361.76 328.843 1361.62 330.858 1361.62 333.174C1361.62 335.49 1361.76 337.505 1362.04 339.219C1362.32 340.933 1362.83 342.6 1363.57 344.221C1364.36 345.796 1365.52 347.024 1367.04 347.904ZM1390.11 333.174C1390.11 347.07 1384.37 354.018 1372.88 354.018C1361.39 354.018 1355.65 347.07 1355.65 333.174C1355.65 319.277 1361.39 312.329 1372.88 312.329C1384.37 312.329 1390.11 319.277 1390.11 333.174Z" fill="black"/>
<path d="M1406.41 317.471C1411.09 314.043 1415.69 312.329 1420.23 312.329C1424.77 312.329 1427.97 313.372 1429.82 315.456C1431.67 317.494 1432.6 320.621 1432.6 324.836V353.045H1426.63V324.975C1426.63 322.196 1426.09 320.204 1425.03 319C1423.96 317.795 1422.18 317.193 1419.68 317.193C1415.37 317.193 1411.2 318.745 1407.17 321.848V353.045H1401.2V313.302H1404.74L1406.41 317.471Z" fill="black"/>
<path d="M1484.25 354.018C1479.9 354.018 1475.7 352.605 1471.67 349.78L1470.35 353.045H1466.81V300.379L1472.78 299.684V315.595C1476.77 313.418 1480.59 312.329 1484.25 312.329C1494.25 312.329 1499.26 319.277 1499.26 333.174C1499.26 347.07 1494.25 354.018 1484.25 354.018ZM1483.14 317.193C1479.57 317.193 1476.12 318.189 1472.78 320.181V345.889C1475.98 348.066 1479.25 349.155 1482.58 349.155C1489.72 349.155 1493.28 343.828 1493.28 333.174C1493.28 330.256 1492.98 327.662 1492.38 325.392C1491.82 323.122 1490.76 321.2 1489.18 319.625C1487.61 318.004 1485.59 317.193 1483.14 317.193Z" fill="black"/>
<path d="M1521.42 354.018C1517.3 354.018 1514.31 352.999 1512.46 350.961C1510.6 348.877 1509.68 345.773 1509.68 341.651V313.302H1515.65V341.234C1515.65 343.967 1516.23 345.982 1517.39 347.279C1518.59 348.529 1520.45 349.155 1522.95 349.155C1527.44 349.155 1531.63 346.862 1535.52 342.276V313.302H1541.5V353.045H1537.54L1535.66 347.14C1531.35 351.725 1526.61 354.018 1521.42 354.018Z" fill="black"/>
<path d="M1570.62 330.881C1574.79 331.9 1577.76 333.266 1579.52 334.98C1581.32 336.648 1582.23 339.172 1582.23 342.554C1582.23 345.889 1580.98 348.599 1578.47 350.683C1575.97 352.768 1572.27 353.81 1567.36 353.81C1562.45 353.81 1558.88 352.883 1556.66 351.031C1554.48 349.131 1553.09 346.398 1552.49 342.832L1557.35 342.067C1558.05 346.746 1561.22 349.085 1566.87 349.085C1573.12 349.085 1576.25 346.977 1576.25 342.762C1576.25 340.909 1575.67 339.543 1574.51 338.663C1573.4 337.783 1571.39 336.972 1568.47 336.231L1564.51 335.258C1560.48 334.239 1557.61 332.896 1555.89 331.228C1554.22 329.561 1553.39 327.036 1553.39 323.655C1553.39 320.227 1554.6 317.494 1557 315.456C1559.41 313.372 1562.96 312.329 1567.63 312.329C1572.36 312.329 1575.76 313.279 1577.85 315.178C1579.98 317.031 1581.35 319.741 1581.95 323.307L1577.01 324.072C1576.41 319.393 1573.45 317.054 1568.12 317.054C1562.28 317.054 1559.37 319.162 1559.37 323.377C1559.37 325.23 1559.9 326.619 1560.96 327.546C1562.03 328.426 1563.91 329.213 1566.59 329.908L1570.62 330.881Z" fill="black"/>
<path d="M1593.22 313.302H1599.19V353.045H1593.22V313.302ZM1596.21 306.632C1593.84 306.632 1592.66 305.358 1592.66 302.81C1592.66 300.216 1593.84 298.919 1596.21 298.919C1598.66 298.919 1599.89 300.216 1599.89 302.81C1599.89 305.358 1598.66 306.632 1596.21 306.632Z" fill="black"/>
<path d="M1619.13 317.471C1623.8 314.043 1628.41 312.329 1632.95 312.329C1637.49 312.329 1640.69 313.372 1642.54 315.456C1644.39 317.494 1645.32 320.621 1645.32 324.836V353.045H1639.34V324.975C1639.34 322.196 1638.81 320.204 1637.75 319C1636.68 317.795 1634.9 317.193 1632.4 317.193C1628.09 317.193 1623.92 318.745 1619.89 321.848V353.045H1613.91V313.302H1617.46L1619.13 317.471Z" fill="black"/>
<path d="M1672.65 354.018C1666.58 354.018 1662.25 352.304 1659.65 348.877C1657.06 345.403 1655.76 340.168 1655.76 333.174C1655.76 319.277 1661.3 312.329 1672.37 312.329C1683.3 312.329 1688.77 319 1688.77 332.34V333.799H1661.67C1661.72 339.265 1662.55 343.202 1664.17 345.611C1665.79 347.973 1668.62 349.155 1672.65 349.155C1679.22 349.155 1682.75 346.491 1683.21 341.164L1688.14 341.442C1687.26 349.826 1682.1 354.018 1672.65 354.018ZM1682.79 329.352C1682.56 325.461 1681.68 322.474 1680.15 320.389C1678.62 318.258 1676.05 317.193 1672.44 317.193C1668.83 317.193 1666.23 318.282 1664.66 320.459C1663.08 322.589 1662.13 325.554 1661.81 329.352H1682.79Z" fill="black"/>
<path d="M1713.93 330.881C1718.1 331.9 1721.06 333.266 1722.82 334.98C1724.63 336.648 1725.53 339.172 1725.53 342.554C1725.53 345.889 1724.28 348.599 1721.78 350.683C1719.28 352.768 1715.57 353.81 1710.66 353.81C1705.75 353.81 1702.19 352.883 1699.96 351.031C1697.78 349.131 1696.4 346.398 1695.79 342.832L1700.66 342.067C1701.35 346.746 1704.52 349.085 1710.18 349.085C1716.43 349.085 1719.56 346.977 1719.56 342.762C1719.56 340.909 1718.98 339.543 1717.82 338.663C1716.71 337.783 1714.69 336.972 1711.77 336.231L1707.81 335.258C1703.78 334.239 1700.91 332.896 1699.2 331.228C1697.53 329.561 1696.7 327.036 1696.7 323.655C1696.7 320.227 1697.9 317.494 1700.31 315.456C1702.72 313.372 1706.26 312.329 1710.94 312.329C1715.66 312.329 1719.07 313.279 1721.15 315.178C1723.28 317.031 1724.65 319.741 1725.25 323.307L1720.32 324.072C1719.72 319.393 1716.75 317.054 1711.43 317.054C1705.59 317.054 1702.67 319.162 1702.67 323.377C1702.67 325.23 1703.2 326.619 1704.27 327.546C1705.34 328.426 1707.21 329.213 1709.9 329.908L1713.93 330.881Z" fill="black"/>
<path d="M1750.91 330.881C1755.08 331.9 1758.04 333.266 1759.8 334.98C1761.61 336.648 1762.51 339.172 1762.51 342.554C1762.51 345.889 1761.26 348.599 1758.76 350.683C1756.26 352.768 1752.55 353.81 1747.64 353.81C1742.73 353.81 1739.17 352.883 1736.94 351.031C1734.76 349.131 1733.38 346.398 1732.77 342.832L1737.64 342.067C1738.33 346.746 1741.5 349.085 1747.16 349.085C1753.41 349.085 1756.54 346.977 1756.54 342.762C1756.54 340.909 1755.96 339.543 1754.8 338.663C1753.69 337.783 1751.67 336.972 1748.75 336.231L1744.79 335.258C1740.76 334.239 1737.89 332.896 1736.18 331.228C1734.51 329.561 1733.68 327.036 1733.68 323.655C1733.68 320.227 1734.88 317.494 1737.29 315.456C1739.7 313.372 1743.24 312.329 1747.92 312.329C1752.64 312.329 1756.05 313.279 1758.13 315.178C1760.26 317.031 1761.63 319.741 1762.23 323.307L1757.3 324.072C1756.7 319.393 1753.73 317.054 1748.41 317.054C1742.57 317.054 1739.65 319.162 1739.65 323.377C1739.65 325.23 1740.18 326.619 1741.25 327.546C1742.32 328.426 1744.19 329.213 1746.88 329.908L1750.91 330.881Z" fill="black"/>
</svg>
