<svg width="1000" height="278" viewBox="0 0 1000 278" fill="none" xmlns="http://www.w3.org/2000/svg">
<g clip-path="url(#clip0_138_463)">
<path d="M0 67.5109H59.4934L94.1357 156.14L129.228 67.5109H187.154L99.9296 277.324H41.6359L65.5123 221.727L0 67.5109Z" fill="white"/>
<path d="M247.498 63.9827C202.798 63.9827 174.54 104.072 174.54 143.994C174.54 188.919 205.522 224.536 246.65 224.536C277.331 224.536 288.899 205.843 288.899 205.843V220.404H340.789V67.5118H288.899V81.4111C288.899 81.4111 275.993 63.9827 247.498 63.9827ZM258.536 113.116C279.161 113.116 289.804 129.436 289.804 144.162C289.804 160.019 278.401 175.58 258.536 175.58C242.071 175.58 227.192 162.125 227.192 144.837C227.192 127.304 239.16 113.116 258.536 113.116Z" fill="white"/>
<path d="M358.659 220.403V0H412.933V81.9405C412.933 81.9405 425.824 64.0016 452.823 64.0016C485.848 64.0016 505.198 88.6082 505.198 123.77V220.403H451.321V137.007C451.321 125.108 445.653 113.613 432.814 113.613C419.744 113.613 412.933 125.282 412.933 137.007V220.403H358.659Z" fill="white"/>
<path d="M597.732 64.0007C546.542 64.0007 516.061 102.926 516.061 144.63C516.061 192.09 552.966 224.536 597.926 224.536C641.502 224.536 679.633 193.563 679.633 145.426C679.633 92.7564 639.709 64.0007 597.732 64.0007ZM598.221 113.566C616.303 113.566 628.814 128.627 628.814 144.687C628.814 158.385 617.156 175.281 598.221 175.281C580.87 175.281 567.85 161.363 567.85 144.537C567.85 128.328 578.675 113.566 598.221 113.566Z" fill="white"/>
<path d="M770.05 64.0007C718.86 64.0007 688.379 102.926 688.379 144.63C688.379 192.09 725.285 224.536 770.244 224.536C813.821 224.536 851.952 193.563 851.952 145.426C851.952 92.7564 812.027 64.0007 770.05 64.0007ZM770.539 113.566C788.621 113.566 801.132 128.627 801.132 144.687C801.132 158.385 789.474 175.281 770.539 175.281C753.189 175.281 740.168 161.363 740.168 144.537C740.168 128.328 750.993 113.566 770.539 113.566Z" fill="white"/>
<path d="M894.777 223.649C914.682 223.649 930.817 207.514 930.817 187.61C930.817 167.706 914.682 151.57 894.777 151.57C874.873 151.57 858.738 167.706 858.738 187.61C858.738 207.514 874.873 223.649 894.777 223.649Z" fill="white"/>
<path d="M942.66 138.331H877.779L935.362 0H1000L942.66 138.331Z" fill="white"/>
</g>
<defs>
<clipPath id="clip0_138_463">
<rect width="1000" height="277.324" fill="white"/>
</clipPath>
</defs>
</svg>
