<svg width="512" height="92" viewBox="0 0 512 92" fill="none" xmlns="http://www.w3.org/2000/svg">
<path d="M74.848 81.344L106.008 34.924H77.8V21.948H124.432V31.34L93.376 77.652H124.84V90.732H74.848V81.344ZM188.024 90.732H175.8L174.68 83.244H174.272C172.176 85.7932 169.663 87.9692 166.84 89.68C164.124 91.228 160.936 92 157.268 92C151.5 92 147.324 90.1 144.748 86.304C142.164 82.504 140.876 77.304 140.876 70.688V38.408H155.844V68.688C155.844 72.2 156.352 74.768 157.372 76.388C158.388 78.004 160.324 78.812 163.172 78.812C165.076 78.812 166.74 78.392 168.164 77.548C169.656 76.704 171.284 75.12 173.052 72.8V38.408H188.02L188.024 90.732ZM198.7 16.78H228.328V70.9C228.328 72.516 228.532 73.888 228.94 75.016C229.416 76.068 230.028 76.948 230.772 77.656C231.588 78.284 232.468 78.744 233.42 79.024C234.44 79.304 235.46 79.444 236.476 79.444C237.628 79.444 238.852 79.34 240.14 79.128C241.603 78.7924 243.034 78.3332 244.42 77.756L247.78 89.152L244.008 90.312C242.872 90.6596 241.716 90.9412 240.548 91.156C239.392 91.436 238.172 91.648 236.884 91.788C235.462 91.936 234.034 92.0064 232.604 92C226.224 92 221.404 90.068 218.148 86.2C214.956 82.26 213.36 76.948 213.36 70.268V29.016H198.7V16.78ZM262.62 76.176C262.62 73.22 263.232 70.656 264.452 68.476C265.676 66.224 267.612 64.324 270.256 62.776C272.972 61.228 276.432 60 280.644 59.084C284.852 58.1 289.94 57.432 295.916 57.084C295.644 54.688 294.624 52.824 292.86 51.488C291.164 50.152 288.58 49.488 285.124 49.488C282.68 49.488 280.204 49.94 277.688 50.856C275.248 51.696 272.6 52.86 269.748 54.336L264.452 44.208C267.916 42.168 271.612 40.484 275.552 39.144C279.59 37.8042 283.818 37.1287 288.072 37.144C295.136 37.144 300.7 39.076 304.772 42.944C308.844 46.812 310.884 52.756 310.884 60.772V90.732H298.664L297.544 84.824H297.136C294.556 86.864 291.74 88.588 288.684 89.996C285.702 91.3168 282.477 91.9992 279.216 92C276.636 92 274.328 91.58 272.296 90.732C270.354 90.0196 268.583 88.906 267.1 87.464C265.68 85.9956 264.541 84.2792 263.74 82.4C262.978 80.4144 262.598 78.3028 262.62 76.176ZM276.98 75.016C276.98 76.704 277.588 77.968 278.808 78.816C280.1 79.588 281.828 79.976 284.004 79.976C286.184 79.9876 288.339 79.518 290.316 78.6C292.303 77.6044 294.18 76.4032 295.916 75.016V66.36C292.18 66.572 289.092 66.92 286.648 67.416C284.208 67.908 282.272 68.54 280.848 69.312C279.42 70.016 278.4 70.86 277.792 71.844C277.248 72.832 276.976 73.884 276.976 75.012L276.98 75.016ZM327.528 16.78H342.496V34.924L342.088 43.156C344.006 41.29 346.248 39.7882 348.704 38.724C351.05 37.7034 353.578 37.1647 356.136 37.14C359.26 37.14 362.076 37.776 364.588 39.04C367.168 40.304 369.308 42.1 371.004 44.42C372.768 46.672 374.124 49.448 375.076 52.756C376.028 55.992 376.5 59.612 376.5 63.62C376.5 68.124 375.892 72.132 374.668 75.648C373.448 79.168 371.816 82.152 369.78 84.616C367.854 86.9208 365.459 88.79 362.756 90.1C360.225 91.3548 357.437 92.0052 354.612 92C352.236 92 349.86 91.4 347.484 90.208C345.176 89.008 342.968 87.288 340.864 85.036H340.456L339.236 90.732H327.528V16.78ZM342.496 75.86C343.774 77.0336 345.258 77.9624 346.872 78.6C348.432 79.092 349.892 79.34 351.252 79.34C354.032 79.34 356.372 78.144 358.276 75.752C360.176 73.292 361.128 69.352 361.128 63.936C361.128 54.512 358.04 49.8 351.86 49.8C348.672 49.8 345.548 51.42 342.496 54.652V75.86ZM393.648 64.572C393.648 60.28 394.36 56.448 395.784 53.072C397.28 49.696 399.248 46.848 401.692 44.528C404.084 42.1664 406.924 40.3016 410.04 39.04C413.18 37.7827 416.532 37.1378 419.916 37.14C423.784 37.14 427.212 37.776 430.2 39.04C433.048 40.2072 435.592 42.012 437.632 44.316C439.6 46.564 441.096 49.236 442.112 52.332C443.132 55.356 443.64 58.664 443.64 62.252C443.64 63.656 443.572 64.956 443.436 66.152C443.34 67.0376 443.2 67.9184 443.028 68.792H409.02C409.768 72.8 411.464 75.72 414.112 77.548C416.76 79.308 419.948 80.188 423.684 80.188C425.992 80.188 428.164 79.904 430.2 79.34C432.456 78.6424 434.64 77.7232 436.716 76.596L441.604 85.88C438.64 87.832 435.42 89.3592 432.032 90.416C428.668 91.4468 425.168 91.9804 421.648 92C417.708 92 414.044 91.4 410.652 90.208C407.372 89.0124 404.364 87.1832 401.792 84.824C399.235 82.3688 397.193 79.4288 395.784 76.176C394.36 72.8 393.648 68.932 393.648 64.572ZM430.096 59.188C430.096 56.164 429.316 53.708 427.756 51.804C426.196 49.908 423.684 48.956 420.22 48.956C417.56 48.938 414.972 49.8312 412.892 51.488C410.788 53.108 409.428 55.672 408.816 59.188H430.096ZM473.616 50.54H460.988V39.04L474.328 38.408L476.26 24.48H488.58V38.408H509.86V50.54H488.58V68.896C488.58 72.904 489.432 75.752 491.128 77.44C492.824 79.06 495.504 79.868 499.172 79.868C501.14 79.868 502.94 79.692 504.568 79.34C506.196 79.008 507.796 78.5492 509.352 77.968L512 89.152C509.524 89.916 507.008 90.55 504.464 91.052C501.488 91.7052 498.448 92.0232 495.404 92C491.4 92 488.004 91.44 485.22 90.312C482.44 89.188 480.164 87.64 478.4 85.672C476.656 83.5444 475.408 81.0588 474.736 78.392C473.988 75.576 473.616 72.448 473.616 69V50.54ZM38.58 0H24.64V25.308H0V39.588L24.64 39.592V64.9H38.58V39.592H63.348V25.312H38.58V0Z" fill="#E53835"/>
</svg>
