<svg width="1021" height="269" viewBox="0 0 1021 269" fill="none" xmlns="http://www.w3.org/2000/svg">
<g clip-path="url(#clip0_324_112)">
<path d="M112.48 0H0V269L112.48 0Z" fill="white"/>
<path d="M191.621 0H303.955V269L191.621 0Z" fill="white"/>
<path d="M152.052 99.1436L223.643 268.999H176.673L155.276 214.921H102.883L152.052 99.1436Z" fill="white"/>
<path d="M487.452 171.066L500.715 209.097C501.155 210.049 501.815 210.489 502.987 210.489H528.488C529.88 210.489 530.1 209.83 529.88 208.437L477.194 62.1032C476.974 60.9308 476.754 60.7109 475.581 60.7109H443.926C443.047 60.7109 442.533 61.3704 442.533 62.323C442.094 70.0171 441.434 72.362 440.482 74.6336L393.511 208.218C393.291 209.83 393.804 210.489 395.123 210.489H417.912C419.305 210.489 419.964 210.049 420.477 208.657L433.007 171.066H487.452ZM440.262 146.225C447.15 125.415 456.236 98.7417 459.9 83.5001H460.12C464.663 99.4745 475.362 131.13 480.198 146.225H440.262Z" fill="white"/>
<path d="M597.613 212.76C611.316 212.76 625.898 210.269 640.7 203.894C641.872 203.454 642.092 202.941 642.092 201.842C641.652 197.739 641.139 191.803 641.139 187.26V49.4997C641.139 48.6203 641.139 48.1807 640.04 48.1807H615.199C614.247 48.1807 613.807 48.6203 613.807 49.7928V96.4703C609.923 96.0306 607.212 95.8108 603.988 95.8108C563.905 95.8108 539.284 122.263 539.284 155.311C539.284 193.635 564.565 212.76 597.613 212.76ZM613.807 187.26C609.703 188.579 605.16 189.092 600.544 189.092C582.371 189.092 567.496 178.833 567.496 153.919C567.496 131.863 582.811 118.819 603.108 118.819C607.212 118.819 610.803 119.259 613.807 120.431V187.26Z" fill="white"/>
<path d="M721.339 95.8105C687.118 95.8105 665.941 122.044 665.941 154.432C665.941 183.377 682.795 212.761 720.826 212.761C752.995 212.761 775.564 189.092 775.564 153.699C775.564 122.483 756.439 95.8105 721.339 95.8105ZM719.947 118.82C739.292 118.82 747.499 135.453 747.499 154.432C747.499 177.881 735.408 189.532 721.339 189.532C703.972 189.532 693.713 174.95 693.713 153.919C693.713 132.303 704.632 118.82 719.947 118.82Z" fill="white"/>
<path d="M801.25 48.1807C800.297 48.1807 799.638 48.6203 799.638 49.7928V205.726C799.638 206.385 800.297 207.558 801.25 207.778C812.168 211.148 823.599 212.76 835.397 212.76C869.178 212.76 902.006 191.803 902.006 149.596C902.006 119.039 881.048 95.8108 848.22 95.8108C840.673 95.8108 833.638 96.9832 827.483 99.035L827.19 50.0126C827.19 48.4005 826.75 48.1807 825.138 48.1807H801.25ZM873.941 152.38C873.941 177.661 856.647 189.532 837.962 189.532C834.078 189.532 830.634 189.312 827.483 188.359V121.824C831.074 120.431 835.397 119.259 843.384 119.259C861.41 119.259 873.941 130.69 873.941 152.38Z" fill="white"/>
<path d="M994.699 160.587C1005.84 160.587 1015 160.368 1018.15 159.635C1019.32 159.415 1019.76 158.975 1019.98 158.023C1020.64 155.531 1020.93 150.329 1020.93 143.954C1020.93 122.264 1007.89 95.8105 974.182 95.8105C939.742 95.8105 920.616 123.876 920.616 155.531C920.616 183.596 935.418 212.761 976.893 212.761C992.428 212.761 1002.47 210.269 1011.11 206.166C1011.99 205.726 1012.43 204.993 1012.43 203.674V184.696C1012.43 183.596 1011.77 183.377 1011.11 183.816C1002.47 187.48 993.087 189.312 982.828 189.312C959.6 189.312 949.048 176.489 948.388 160.587H994.699ZM948.388 140.949C950.22 129.811 957.255 117.72 973.009 117.72C990.376 117.72 994.919 132.303 994.919 138.897C994.919 139.117 994.919 140.07 994.919 140.729C993.966 140.949 991.035 140.949 982.389 140.949H948.388Z" fill="white"/>
</g>
<defs>
<clipPath id="clip0_324_112">
<rect width="1021" height="269" fill="white"/>
</clipPath>
</defs>
</svg>
