<svg width="334" height="86" viewBox="0 0 334 86" fill="none" xmlns="http://www.w3.org/2000/svg">
<g clip-path="url(#clip0_324_109)">
<path d="M5.7536 34.1545H38.1184V43.2578L25.9476 44.1931C6.28759 45.6674 0.137695 50.8738 0.137695 65.4777V68.4217C0.137695 79.1106 7.62703 85.5554 19.1258 85.5554C28.2216 85.5554 33.437 83.4128 39.8583 76.8528H40.9263V83.8137H53.8979V19.9648H5.7536V34.1545ZM38.1184 64.9433C34.1134 68.9515 28.0881 71.624 23.1397 71.624C17.7997 71.624 15.5169 69.6153 15.6504 65.197C15.7839 59.0421 18.0578 57.5678 28.3551 56.6325L38.1184 55.6971V64.9433Z" fill="white"/>
<path fill-rule="evenodd" clip-rule="evenodd" d="M81.1744 19.9694H106.183V32.9521H119.822V83.8139H103.909V34.2927H81.1744V83.8139H65.2568V0.827148H81.1744V19.9694ZM313.888 45.6676L304.258 44.7277C298.918 44.1933 297.583 42.8571 297.583 38.5728C297.583 33.7538 299.456 32.5468 306.928 32.5468C313.603 32.5468 315.485 33.6202 316.424 38.1719H331.403C331.002 22.9134 326.321 19.0208 307.729 19.0208C287.401 19.0208 282.319 22.9045 282.319 38.5638C282.319 52.8872 286.062 56.7665 301.179 58.2404L309.068 59.0422C316.157 59.7101 317.893 61.0509 317.893 65.3352C317.893 70.5553 315.752 71.8911 307.061 71.8911C299.438 71.8911 297.431 70.6888 297.031 65.7361H281.901C282.301 81.5291 287.116 85.5464 306.376 85.5464C327.772 85.5464 333.12 81.2621 333.12 63.8614C333.143 50.8872 329.267 47.1373 313.888 45.6676ZM231.957 46.8703C231.957 26.2582 224.872 19.0297 204.54 19.0297C184.479 19.0297 176.59 28.3826 176.59 51.6891C176.59 77.1245 183.545 85.5377 206.013 85.5377C222.198 85.5377 229.015 80.5851 231.289 66.6628H215.91C214.17 70.9649 212.301 71.9003 205.768 71.9003C195.871 71.9003 193.331 69.0897 192.797 57.1761H230.911C231.549 53.7764 231.899 50.3286 231.957 46.8703ZM192.908 44.5942C193.041 35.6288 196.65 32.2841 205.212 32.2841C213.369 32.2841 216.711 35.6288 216.982 44.5942H192.908ZM241.221 22.7753V83.8139H257.139V33.6201H276.274V19.9649H257.139V18.228C257.268 14.4779 258.207 13.409 261.282 13.409H278.668V0.827148H259.938C247.237 0.827148 241.221 4.70638 241.221 22.7753ZM147.407 83.8139H131.493V19.9695H171.081V34.9608H147.407V83.8139Z" fill="white"/>
</g>
<defs>
<clipPath id="clip0_324_109">
<rect width="334" height="86" fill="white"/>
</clipPath>
</defs>
</svg>
