<svg width="70" height="114" viewBox="0 0 70 114" fill="none" xmlns="http://www.w3.org/2000/svg">
<path d="M57.7284 96.7667L40.1963 106.891L22.6641 96.7667L40.1963 86.6548L57.7284 96.7667Z" fill="white"/>
<path d="M57.7294 0.460741L40.1973 0V96.7665H57.7294V0.460741Z" fill="url(#paint0_linear_348_1941)"/>
<path d="M40.1963 0L22.6641 2.3158V96.7665H40.1963V0Z" fill="url(#paint1_linear_348_1941)"/>
<path d="M67.4031 96.7663L40.1955 112.48L13 96.7663L40.1955 81.0649L67.4031 96.7663Z" stroke="url(#paint2_linear_348_1941)" stroke-width="2.46754" stroke-miterlimit="10"/>
<path fill-rule="evenodd" clip-rule="evenodd" d="M37.3547 99.9351L33.2129 97.5407V86.8236L41.6636 83.8657L37.3547 99.9351Z" fill="#CFD3EE"/>
<path fill-rule="evenodd" clip-rule="evenodd" d="M0 68.5413V95.3439H0.0302214V95.5358C0.0853267 96.8957 0.775029 97.964 1.78826 98.4831L8.09159 102.125L8.30845 96.4833L23.6615 87.6184L28.4414 90.3648L28.6583 84.7423C28.6938 84.718 28.7271 84.6906 28.7579 84.6605L47.8314 73.6519V73.6306C49.7654 72.9356 51.0399 70.8504 50.9244 68.7742V47.3845L52.3251 48.1951L56.2358 43.4684L49.7156 39.7106C49.3363 39.4042 48.892 39.1886 48.4167 39.0801C47.9413 38.9717 47.4475 38.9733 46.9728 39.0849C46.5355 39.1779 46.1156 39.3393 45.7285 39.5631V39.5329L25.3875 51.2934L23.1709 52.5733C22.9131 52.6928 22.6668 52.8356 22.435 52.9999L2.89392 64.3C2.07421 64.6765 1.37401 65.2714 0.870112 66.0196C0.366216 66.7678 0.0780861 67.6402 0.0373279 68.5413H0Z" fill="#CFD3EE"/>
<path fill-rule="evenodd" clip-rule="evenodd" d="M6.50586 72.2901V99.0926H6.53252C6.53252 99.153 6.53252 99.2188 6.53252 99.2792C6.61962 101.491 8.38833 102.932 10.4841 102.498C10.9846 102.391 11.4611 102.193 11.8902 101.914L33.9803 89.1612V89.1505L34.0301 89.1203C34.4738 88.9539 34.8861 88.7135 35.2495 88.4093L54.3213 77.4006V77.3793C56.2553 76.6789 57.5245 74.5992 57.416 72.5194V46.5968C57.4311 46.4147 57.4365 46.2319 57.432 46.0493C57.3449 43.8362 55.5762 42.3946 53.4804 42.8336C53.0426 42.9248 52.6224 43.0863 52.2361 43.3118L52.2255 43.2816L31.8898 55.0421L29.6714 56.3202C29.4136 56.4394 29.1678 56.5828 28.9373 56.7486L9.38911 68.0487C8.56976 68.4257 7.86989 69.0208 7.36606 69.7688C6.86223 70.5169 6.57387 71.3891 6.53252 72.2901H6.50586Z" fill="#F2F3F5"/>
<path fill-rule="evenodd" clip-rule="evenodd" d="M48.1719 80.0317L37.3535 99.9354V82.9292L48.1719 80.0317Z" fill="#F2F3F5"/>
<path fill-rule="evenodd" clip-rule="evenodd" d="M20.0674 75.9893C22.0867 75.2036 23.7203 76.2009 23.7203 78.2167C23.7203 80.2324 22.0867 82.5095 20.0674 83.2952C18.048 84.0809 16.418 83.0837 16.418 81.0626C16.418 79.0415 18.0516 76.775 20.0674 75.9893ZM45.0798 61.07C47.0956 60.2826 48.7328 61.2816 48.7328 63.2956C48.7328 65.3096 47.0956 67.5849 45.0798 68.3706C43.064 69.1563 41.4269 68.1591 41.4269 66.1433C41.4269 64.1275 43.064 61.8557 45.0798 61.07ZM32.7789 68.6532C34.7947 67.8675 36.4319 68.8648 36.4319 70.8805C36.4319 72.8963 34.7947 75.1681 32.7789 75.9538C30.7631 76.7395 29.126 75.7423 29.126 73.7265C29.126 71.7107 30.7631 69.4389 32.7789 68.6532Z" fill="white"/>
<g filter="url(#filter0_d_348_1941)">
<g clip-path="url(#clip0_348_1941)">
<mask id="mask0_348_1941" style="mask-type:luminance" maskUnits="userSpaceOnUse" x="15" y="47" width="35" height="50">
<rect width="39.9593" height="29.9694" transform="matrix(0.866025 -0.5 2.20305e-08 1 15 66.9814)" fill="white"/>
</mask>
<g mask="url(#mask0_348_1941)">
<path fill-rule="evenodd" clip-rule="evenodd" d="M15 66.9814L15 96.9509L49.6057 76.9713L49.6057 47.0018L15 66.9814Z" fill="#2E42A5"/>
<mask id="mask1_348_1941" style="mask-type:luminance" maskUnits="userSpaceOnUse" x="15" y="47" width="35" height="50">
<path fill-rule="evenodd" clip-rule="evenodd" d="M15 66.9814L15 96.9509L49.6057 76.9713L49.6057 47.0018L15 66.9814Z" fill="white"/>
</mask>
<g mask="url(#mask1_348_1941)">
<path fill-rule="evenodd" clip-rule="evenodd" d="M19.6001 72.0036L17.4493 74.5562L18.4878 71.6235L17.1621 70.6814L18.8095 69.6601L19.6001 66.8224L20.2034 68.8553L22.1312 67.8125L20.7432 70.3213L21.6238 72.1461L19.6001 72.0036Z" fill="#F7FCFF"/>
<path fill-rule="evenodd" clip-rule="evenodd" d="M27.2765 73.7244L24.622 76.541L25.6634 72.7222L23.3555 71.8959L26.121 70.2992L27.2765 66.1517L28.1584 69.1229L30.9282 67.5238L28.9599 70.819L29.9372 73.4723L27.2765 73.7244Z" fill="#F7FCFF"/>
<path fill-rule="evenodd" clip-rule="evenodd" d="M15 84.4634L15 89.4583L49.6057 69.4787L49.6057 64.4838L15 84.4634Z" fill="#F9E813"/>
</g>
</g>
<mask id="mask2_348_1941" style="mask-type:luminance" maskUnits="userSpaceOnUse" x="15" y="47" width="35" height="50">
<rect width="39.9593" height="29.9694" transform="matrix(0.866025 -0.5 2.20305e-08 1 15 66.9814)" fill="white"/>
</mask>
<g mask="url(#mask2_348_1941)">
<path fill-rule="evenodd" clip-rule="evenodd" d="M15 66.9814L15 96.9509L49.6057 76.9713L49.6057 47.0018L15 66.9814Z" fill="#009933"/>
<mask id="mask3_348_1941" style="mask-type:luminance" maskUnits="userSpaceOnUse" x="15" y="47" width="35" height="50">
<path fill-rule="evenodd" clip-rule="evenodd" d="M15 66.9814L15 96.9509L49.6057 76.9713L49.6057 47.0018L15 66.9814Z" fill="white"/>
</mask>
<g mask="url(#mask3_348_1941)">
<g filter="url(#filter1_d_348_1941)">
<path fill-rule="evenodd" clip-rule="evenodd" d="M32.2237 61.6627L45.4191 64.6628L32.0442 82.3294L19.1191 79.6413L32.2237 61.6627Z" fill="#FFD221"/>
<path fill-rule="evenodd" clip-rule="evenodd" d="M32.2237 61.6627L45.4191 64.6628L32.0442 82.3294L19.1191 79.6413L32.2237 61.6627Z" fill="url(#paint3_linear_348_1941)"/>
</g>
<path fill-rule="evenodd" clip-rule="evenodd" d="M32.3036 78.4699C35.2899 76.7458 37.7108 72.5528 37.7108 69.1045C37.7108 65.6562 35.2899 64.2585 32.3036 65.9827C29.3173 67.7068 26.8965 71.8999 26.8965 75.3481C26.8965 78.7964 29.3173 80.1941 32.3036 78.4699Z" fill="#2E42A5"/>
<mask id="mask4_348_1941" style="mask-type:luminance" maskUnits="userSpaceOnUse" x="26" y="65" width="12" height="15">
<path fill-rule="evenodd" clip-rule="evenodd" d="M32.3036 78.4699C35.2899 76.7458 37.7108 72.5528 37.7108 69.1045C37.7108 65.6562 35.2899 64.2585 32.3036 65.9827C29.3173 67.7068 26.8965 71.8999 26.8965 75.3481C26.8965 78.7964 29.3173 80.1941 32.3036 78.4699Z" fill="white"/>
</mask>
<g mask="url(#mask4_348_1941)">
<path fill-rule="evenodd" clip-rule="evenodd" d="M30.5516 76.1972L30.31 76.4833L30.3562 76.1461L30.1607 76.0389L30.4308 75.8377L30.5516 75.4854L30.6723 75.6982L30.9424 75.5876L30.747 75.9204L30.7931 76.2043L30.5516 76.1972Z" fill="#F7FCFF"/>
<path fill-rule="evenodd" clip-rule="evenodd" d="M32.7117 74.9481L32.4702 75.2342L32.5163 74.897L32.3209 74.7899L32.591 74.5887L32.7117 74.2364L32.8325 74.4492L33.1026 74.3386L32.9071 74.6714L32.9533 74.9553L32.7117 74.9481Z" fill="#F7FCFF"/>
<path fill-rule="evenodd" clip-rule="evenodd" d="M32.7117 76.4467L32.4702 76.7328L32.5163 76.3956L32.3209 76.2884L32.591 76.0872L32.7117 75.7349L32.8325 75.9478L33.1026 75.8371L32.9071 76.1699L32.9533 76.4539L32.7117 76.4467Z" fill="#F7FCFF"/>
<path fill-rule="evenodd" clip-rule="evenodd" d="M31.6336 71.8266L31.3921 72.1127L31.4382 71.7754L31.2428 71.6683L31.5128 71.4671L31.6336 71.1148L31.7544 71.3276L32.0244 71.217L31.829 71.5498L31.8751 71.8337L31.6336 71.8266Z" fill="#F7FCFF"/>
<path fill-rule="evenodd" clip-rule="evenodd" d="M31.6336 74.3236L31.3921 74.6097L31.4382 74.2725L31.2428 74.1654L31.5128 73.9642L31.6336 73.6119L31.7544 73.8247L32.0244 73.7141L31.829 74.0469L31.8751 74.3308L31.6336 74.3236Z" fill="#F7FCFF"/>
<path fill-rule="evenodd" clip-rule="evenodd" d="M30.1199 73.9491L29.8784 74.2352L29.9245 73.898L29.7291 73.7909L29.9992 73.5897L30.1199 73.2374L30.2407 73.4502L30.5108 73.3396L30.3153 73.6724L30.3615 73.9563L30.1199 73.9491Z" fill="#F7FCFF"/>
<path fill-rule="evenodd" clip-rule="evenodd" d="M28.6043 75.8217L28.3628 76.1078L28.4089 75.7706L28.2135 75.6634L28.4835 75.4622L28.6043 75.1099L28.7251 75.3228L28.9951 75.2121L28.7997 75.5449L28.8458 75.8289L28.6043 75.8217Z" fill="#F7FCFF"/>
<path fill-rule="evenodd" clip-rule="evenodd" d="M33.5789 68.7055L33.3374 68.9916L33.3835 68.6544L33.1881 68.5472L33.4581 68.346L33.5789 67.9937L33.6997 68.2065L33.9697 68.0959L33.7743 68.4287L33.8205 68.7126L33.5789 68.7055Z" fill="#F7FCFF"/>
<path d="M25.7324 74.5172L25.895 71.933C31.0837 69.3891 35.1789 68.9946 38.1293 70.7955L36.5785 73.4317C34.0214 71.8709 30.4232 72.2174 25.7324 74.5172Z" fill="#F7FCFF"/>
<path d="M28.291 72.5478L28.3467 71.8946C31.6916 70.3635 34.5605 70.1865 36.9449 71.3653L36.5771 72.0353C34.2794 70.8994 31.5203 71.0696 28.291 72.5478Z" fill="#009933"/>
</g>
</g>
</g>
<rect width="39.9642" height="29.9731" transform="matrix(0.866025 -0.5 2.20305e-08 1 15 66.981)" fill="url(#paint4_linear_348_1941)" style="mix-blend-mode:overlay"/>
</g>
<rect x="0.428961" y="0.247661" width="38.9736" height="28.9825" rx="1.48597" transform="matrix(0.866025 -0.5 2.20305e-08 1 15.0575 67.1964)" stroke="black" stroke-opacity="0.1" stroke-width="0.990643" style="mix-blend-mode:multiply"/>
</g>
<defs>
<filter id="filter0_d_348_1941" x="12.0281" y="46.0094" width="40.5532" height="55.8989" filterUnits="userSpaceOnUse" color-interpolation-filters="sRGB">
<feFlood flood-opacity="0" result="BackgroundImageFix"/>
<feColorMatrix in="SourceAlpha" type="matrix" values="0 0 0 0 0 0 0 0 0 0 0 0 0 0 0 0 0 0 127 0" result="hardAlpha"/>
<feOffset dy="1.98129"/>
<feGaussianBlur stdDeviation="1.48596"/>
<feColorMatrix type="matrix" values="0 0 0 0 0 0 0 0 0 0 0 0 0 0 0 0 0 0 0.1 0"/>
<feBlend mode="normal" in2="BackgroundImageFix" result="effect1_dropShadow_348_1941"/>
<feBlend mode="normal" in="SourceGraphic" in2="effect1_dropShadow_348_1941" result="shape"/>
</filter>
<filter id="filter1_d_348_1941" x="19.1191" y="61.6626" width="26.3008" height="20.667" filterUnits="userSpaceOnUse" color-interpolation-filters="sRGB">
<feFlood flood-opacity="0" result="BackgroundImageFix"/>
<feColorMatrix in="SourceAlpha" type="matrix" values="0 0 0 0 0 0 0 0 0 0 0 0 0 0 0 0 0 0 127 0" result="hardAlpha"/>
<feOffset/>
<feColorMatrix type="matrix" values="0 0 0 0 0.0313726 0 0 0 0 0.368627 0 0 0 0 0 0 0 0 0.28 0"/>
<feBlend mode="normal" in2="BackgroundImageFix" result="effect1_dropShadow_348_1941"/>
<feBlend mode="normal" in="SourceGraphic" in2="effect1_dropShadow_348_1941" result="shape"/>
</filter>
<linearGradient id="paint0_linear_348_1941" x1="48.9633" y1="4.6801" x2="48.9633" y2="103.823" gradientUnits="userSpaceOnUse">
<stop stop-color="white" stop-opacity="0"/>
<stop offset="1" stop-color="white"/>
</linearGradient>
<linearGradient id="paint1_linear_348_1941" x1="31.4302" y1="4.6801" x2="31.4302" y2="103.823" gradientUnits="userSpaceOnUse">
<stop stop-color="white" stop-opacity="0"/>
<stop offset="1" stop-color="white"/>
</linearGradient>
<linearGradient id="paint2_linear_348_1941" x1="10.5751" y1="96.7663" x2="69.828" y2="96.7663" gradientUnits="userSpaceOnUse">
<stop stop-color="#2CD4D9" stop-opacity="0"/>
<stop offset="0.58" stop-color="#2CD4D9" stop-opacity="0.5"/>
<stop offset="1" stop-color="#2CD4D9" stop-opacity="0.1"/>
</linearGradient>
<linearGradient id="paint3_linear_348_1941" x1="49.6057" y1="76.9713" x2="36.6286" y2="54.4942" gradientUnits="userSpaceOnUse">
<stop stop-color="#FFC600"/>
<stop offset="1" stop-color="#FFDE42"/>
</linearGradient>
<linearGradient id="paint4_linear_348_1941" x1="19.9821" y1="0" x2="19.9821" y2="29.9731" gradientUnits="userSpaceOnUse">
<stop stop-color="white" stop-opacity="0.7"/>
<stop offset="1" stop-opacity="0.3"/>
</linearGradient>
<clipPath id="clip0_348_1941">
<rect width="39.9642" height="29.9731" rx="1.98129" transform="matrix(0.866025 -0.5 2.20305e-08 1 15 66.9819)" fill="white"/>
</clipPath>
</defs>
</svg>
