<svg width="120" height="56" viewBox="0 0 120 56" fill="none" xmlns="http://www.w3.org/2000/svg">
<path d="M1 7.29344C1 3.81767 3.81767 1 7.29345 1H112.707C116.182 1 119 3.81767 119 7.29345V39.9316C119 43.4074 116.182 46.2251 112.707 46.2251H55.7589C53.3488 46.2251 51.0578 47.2735 49.4825 49.0975L45.4652 53.7487C45.1368 54.1289 44.5474 54.1289 44.219 53.7487L40.2018 49.0975C38.6264 47.2735 36.3354 46.2251 33.9253 46.2251H7.29344C3.81767 46.2251 1 43.4074 1 39.9316V7.29344Z" fill="white" stroke="#B6C3CE" stroke-width="2"/>
<g filter="url(#filter0_d_310_69)">
<g clip-path="url(#clip0_310_69)">
<path fill-rule="evenodd" clip-rule="evenodd" d="M17.2373 14H29.7123V32.7125H17.2373V14Z" fill="#F7FCFF"/>
<path fill-rule="evenodd" clip-rule="evenodd" d="M23.4565 19.4582L23.4749 28.8145H23.0075L23.2943 26.499C21.1968 26.8764 20.2348 26.97 20.4082 26.7796C20.5816 26.5892 20.7182 26.3194 20.8181 25.9702L18.0171 24.1015C18.3116 24.0978 18.5787 24.0247 18.8184 23.8822C19.058 23.7396 18.9382 23.2458 18.4589 22.4005L19.8731 22.6063L20.4082 22.0248L21.4752 23.1415H21.9548L21.4752 20.5836L22.3349 21.0638L23.4565 19.4582ZM23.4567 19.458L24.6152 21.0636L25.4749 20.5834L24.9953 23.1413H25.4749L26.5419 22.0246L27.0769 22.6061L28.4911 22.4003C28.0118 23.2456 27.892 23.7394 28.1317 23.882C28.3713 24.0245 28.6384 24.0976 28.9329 24.1013L26.1319 25.97C26.2318 26.3192 26.3685 26.589 26.5419 26.7794C26.7153 26.9698 25.7532 26.8763 23.6558 26.4988L23.9426 28.8143H23.4751L23.4567 19.458Z" fill="#E31D1C"/>
<path fill-rule="evenodd" clip-rule="evenodd" d="M29.7124 14H35.9499V32.7125H29.7124V14Z" fill="#E31D1C"/>
<path fill-rule="evenodd" clip-rule="evenodd" d="M11 14H17.2375V32.7125H11V14Z" fill="#E31D1C"/>
<rect x="11" y="14" width="24.9531" height="18.7148" fill="url(#paint0_linear_310_69)" style="mix-blend-mode:overlay"/>
</g>
<rect x="11.3093" y="14.3093" width="24.3345" height="18.0963" rx="0.927816" stroke="black" stroke-opacity="0.1" stroke-width="0.618544" style="mix-blend-mode:multiply"/>
</g>
<path d="M55.4964 21.326H53.1058C53.0376 20.9339 52.9119 20.5866 52.7287 20.2841C52.5455 19.9773 52.3175 19.7173 52.0447 19.5043C51.772 19.2912 51.4609 19.1314 51.1115 19.0249C50.7663 18.9141 50.3935 18.8587 49.9929 18.8587C49.2813 18.8587 48.6506 19.0376 48.1009 19.3956C47.5511 19.7493 47.1207 20.2692 46.8097 20.9553C46.4986 21.6371 46.343 22.4702 46.343 23.4545C46.343 24.456 46.4986 25.2997 46.8097 25.9858C47.125 26.6676 47.5554 27.1832 48.1009 27.5327C48.6506 27.8778 49.2791 28.0504 49.9865 28.0504C50.3786 28.0504 50.745 27.9993 51.0859 27.897C51.4311 27.7905 51.7401 27.6349 52.0128 27.4304C52.2898 27.2259 52.522 26.9744 52.7095 26.6761C52.9013 26.3778 53.0334 26.0369 53.1058 25.6534L55.4964 25.6662C55.407 26.2884 55.2131 26.8722 54.9148 27.4176C54.6207 27.9631 54.2351 28.4446 53.7578 28.8622C53.2805 29.2756 52.7223 29.5994 52.0831 29.8338C51.4439 30.0639 50.7344 30.179 49.9545 30.179C48.804 30.179 47.777 29.9126 46.8736 29.38C45.9702 28.8473 45.2585 28.0781 44.7386 27.0724C44.2188 26.0668 43.9588 24.8608 43.9588 23.4545C43.9588 22.044 44.2209 20.8381 44.745 19.8366C45.2692 18.831 45.983 18.0618 46.8864 17.5291C47.7898 16.9964 48.8125 16.7301 49.9545 16.7301C50.6832 16.7301 51.3608 16.8324 51.9872 17.0369C52.6136 17.2415 53.1719 17.5419 53.6619 17.9382C54.152 18.3303 54.5547 18.8118 54.87 19.3828C55.1896 19.9496 55.3984 20.5973 55.4964 21.326ZM60.3912 30.1982C59.769 30.1982 59.2086 30.0874 58.71 29.8658C58.2157 29.6399 57.8237 29.3075 57.5339 28.8686C57.2484 28.4297 57.1056 27.8885 57.1056 27.245C57.1056 26.6911 57.2079 26.233 57.4125 25.8707C57.617 25.5085 57.8961 25.2188 58.2498 25.0014C58.6035 24.7841 59.002 24.62 59.4451 24.5092C59.8926 24.3942 60.3549 24.3111 60.8322 24.2599C61.4075 24.2003 61.8741 24.147 62.2321 24.1001C62.59 24.049 62.85 23.9723 63.0119 23.87C63.1781 23.7635 63.2612 23.5994 63.2612 23.3778V23.3395C63.2612 22.858 63.1184 22.4851 62.8329 22.2209C62.5474 21.9567 62.1362 21.8246 61.5993 21.8246C61.0325 21.8246 60.5829 21.9482 60.2505 22.1953C59.9224 22.4425 59.7008 22.7344 59.5858 23.071L57.4252 22.7642C57.5957 22.1676 57.877 21.669 58.269 21.2685C58.661 20.8636 59.1404 20.5611 59.7072 20.3608C60.274 20.1562 60.9004 20.054 61.5865 20.054C62.0595 20.054 62.5304 20.1094 62.9991 20.2202C63.4679 20.331 63.8961 20.5142 64.2839 20.7699C64.6717 21.0213 64.9828 21.3643 65.2172 21.799C65.4558 22.2337 65.5751 22.777 65.5751 23.429V30H63.3507V28.6513H63.274C63.1333 28.924 62.9352 29.1797 62.6795 29.4183C62.4281 29.6527 62.1106 29.8423 61.7271 29.9872C61.3478 30.1278 60.9025 30.1982 60.3912 30.1982ZM60.992 28.4979C61.4565 28.4979 61.8592 28.4062 62.2001 28.223C62.541 28.0355 62.8031 27.7884 62.9863 27.4815C63.1738 27.1747 63.2676 26.8402 63.2676 26.478V25.321C63.1951 25.3807 63.0716 25.4361 62.8968 25.4872C62.7264 25.5384 62.5346 25.5831 62.3216 25.6214C62.1085 25.6598 61.8975 25.6939 61.6887 25.7237C61.4799 25.7536 61.2988 25.7791 61.1454 25.8004C60.8002 25.8473 60.4913 25.924 60.2186 26.0305C59.9458 26.1371 59.7306 26.2862 59.573 26.478C59.4153 26.6655 59.3365 26.9084 59.3365 27.2067C59.3365 27.6328 59.492 27.9545 59.8031 28.1719C60.1142 28.3892 60.5105 28.4979 60.992 28.4979ZM70.2157 24.2472V30H67.9018V20.1818H70.1135V21.8501H70.2285C70.4544 21.3004 70.8145 20.8636 71.3088 20.5398C71.8074 20.2159 72.4231 20.054 73.1561 20.054C73.8336 20.054 74.4238 20.1989 74.9267 20.4886C75.4338 20.7784 75.8258 21.1982 76.1028 21.7479C76.3841 22.2976 76.5225 22.9645 76.5183 23.7486V30H74.2044V24.1065C74.2044 23.4503 74.0339 22.9368 73.693 22.5661C73.3564 22.1953 72.8897 22.0099 72.2931 22.0099C71.8883 22.0099 71.5282 22.0994 71.2129 22.2784C70.9018 22.4531 70.6568 22.7067 70.4778 23.0391C70.3031 23.3714 70.2157 23.7741 70.2157 24.2472ZM81.6958 30.1982C81.0737 30.1982 80.5133 30.0874 80.0147 29.8658C79.5204 29.6399 79.1284 29.3075 78.8386 28.8686C78.5531 28.4297 78.4103 27.8885 78.4103 27.245C78.4103 26.6911 78.5126 26.233 78.7172 25.8707C78.9217 25.5085 79.2008 25.2188 79.5545 25.0014C79.9082 24.7841 80.3066 24.62 80.7498 24.5092C81.1973 24.3942 81.6596 24.3111 82.1369 24.2599C82.7122 24.2003 83.1788 24.147 83.5368 24.1001C83.8947 24.049 84.1547 23.9723 84.3166 23.87C84.4828 23.7635 84.5659 23.5994 84.5659 23.3778V23.3395C84.5659 22.858 84.4231 22.4851 84.1376 22.2209C83.8521 21.9567 83.4409 21.8246 82.9039 21.8246C82.3372 21.8246 81.8876 21.9482 81.5552 22.1953C81.2271 22.4425 81.0055 22.7344 80.8904 23.071L78.7299 22.7642C78.9004 22.1676 79.1816 21.669 79.5737 21.2685C79.9657 20.8636 80.4451 20.5611 81.0119 20.3608C81.5787 20.1562 82.2051 20.054 82.8912 20.054C83.3642 20.054 83.8351 20.1094 84.3038 20.2202C84.7726 20.331 85.2008 20.5142 85.5886 20.7699C85.9764 21.0213 86.2875 21.3643 86.5218 21.799C86.7605 22.2337 86.8798 22.777 86.8798 23.429V30H84.6554V28.6513H84.5787C84.438 28.924 84.2399 29.1797 83.9842 29.4183C83.7328 29.6527 83.4153 29.8423 83.0318 29.9872C82.6525 30.1278 82.2072 30.1982 81.6958 30.1982ZM82.2967 28.4979C82.7612 28.4979 83.1639 28.4062 83.5048 28.223C83.8457 28.0355 84.1078 27.7884 84.291 27.4815C84.4785 27.1747 84.5723 26.8402 84.5723 26.478V25.321C84.4998 25.3807 84.3762 25.4361 84.2015 25.4872C84.0311 25.5384 83.8393 25.5831 83.6262 25.6214C83.4132 25.6598 83.2022 25.6939 82.9934 25.7237C82.7846 25.7536 82.6035 25.7791 82.4501 25.8004C82.1049 25.8473 81.796 25.924 81.5233 26.0305C81.2505 26.1371 81.0353 26.2862 80.8777 26.478C80.72 26.6655 80.6412 26.9084 80.6412 27.2067C80.6412 27.6328 80.7967 27.9545 81.1078 28.1719C81.4189 28.3892 81.8152 28.4979 82.2967 28.4979ZM92.85 30.1726C92.0787 30.1726 91.3883 29.9744 90.7789 29.5781C90.1696 29.1818 89.688 28.6065 89.3343 27.8523C88.9806 27.098 88.8038 26.1818 88.8038 25.1037C88.8038 24.0128 88.9828 23.0923 89.3407 22.3423C89.7029 21.5881 90.1909 21.0192 90.8045 20.6357C91.4181 20.2479 92.1021 20.054 92.8564 20.054C93.4316 20.054 93.9047 20.152 94.2754 20.348C94.6461 20.5398 94.9402 20.772 95.1575 21.0447C95.3748 21.3132 95.5431 21.5668 95.6625 21.8054H95.7583V16.9091H98.0787V30H95.8031V28.4531H95.6625C95.5431 28.6918 95.3706 28.9453 95.1447 29.2138C94.9189 29.478 94.6206 29.7038 94.2498 29.8913C93.8791 30.0788 93.4125 30.1726 92.85 30.1726ZM93.4956 28.2741C93.9856 28.2741 94.4032 28.142 94.7484 27.8778C95.0936 27.6094 95.3556 27.2365 95.5346 26.7592C95.7136 26.282 95.8031 25.7259 95.8031 25.0909C95.8031 24.456 95.7136 23.9041 95.5346 23.4354C95.3599 22.9666 95.1 22.6023 94.7548 22.3423C94.4139 22.0824 93.9941 21.9524 93.4956 21.9524C92.9799 21.9524 92.5495 22.0866 92.2044 22.3551C91.8592 22.6236 91.5993 22.9943 91.4245 23.4673C91.2498 23.9403 91.1625 24.4815 91.1625 25.0909C91.1625 25.7045 91.2498 26.2521 91.4245 26.7337C91.6035 27.2109 91.8656 27.5881 92.2108 27.8651C92.5602 28.1378 92.9885 28.2741 93.4956 28.2741ZM103.37 30.1982C102.748 30.1982 102.187 30.0874 101.689 29.8658C101.194 29.6399 100.802 29.3075 100.512 28.8686C100.227 28.4297 100.084 27.8885 100.084 27.245C100.084 26.6911 100.186 26.233 100.391 25.8707C100.596 25.5085 100.875 25.2188 101.228 25.0014C101.582 24.7841 101.98 24.62 102.424 24.5092C102.871 24.3942 103.333 24.3111 103.811 24.2599C104.386 24.2003 104.853 24.147 105.211 24.1001C105.569 24.049 105.828 23.9723 105.99 23.87C106.157 23.7635 106.24 23.5994 106.24 23.3778V23.3395C106.24 22.858 106.097 22.4851 105.811 22.2209C105.526 21.9567 105.115 21.8246 104.578 21.8246C104.011 21.8246 103.561 21.9482 103.229 22.1953C102.901 22.4425 102.679 22.7344 102.564 23.071L100.404 22.7642C100.574 22.1676 100.855 21.669 101.248 21.2685C101.64 20.8636 102.119 20.5611 102.686 20.3608C103.252 20.1562 103.879 20.054 104.565 20.054C105.038 20.054 105.509 20.1094 105.978 20.2202C106.446 20.331 106.875 20.5142 107.262 20.7699C107.65 21.0213 107.961 21.3643 108.196 21.799C108.434 22.2337 108.554 22.777 108.554 23.429V30H106.329V28.6513H106.252C106.112 28.924 105.914 29.1797 105.658 29.4183C105.407 29.6527 105.089 29.8423 104.706 29.9872C104.326 30.1278 103.881 30.1982 103.37 30.1982ZM103.971 28.4979C104.435 28.4979 104.838 28.4062 105.179 28.223C105.52 28.0355 105.782 27.7884 105.965 27.4815C106.152 27.1747 106.246 26.8402 106.246 26.478V25.321C106.174 25.3807 106.05 25.4361 105.875 25.4872C105.705 25.5384 105.513 25.5831 105.3 25.6214C105.087 25.6598 104.876 25.6939 104.667 25.7237C104.458 25.7536 104.277 25.7791 104.124 25.8004C103.779 25.8473 103.47 25.924 103.197 26.0305C102.924 26.1371 102.709 26.2862 102.551 26.478C102.394 26.6655 102.315 26.9084 102.315 27.2067C102.315 27.6328 102.471 27.9545 102.782 28.1719C103.093 28.3892 103.489 28.4979 103.971 28.4979Z" fill="#1C1C1E"/>
<defs>
<filter id="filter0_d_310_69" x="9.14437" y="13.3815" width="28.6644" height="22.4261" filterUnits="userSpaceOnUse" color-interpolation-filters="sRGB">
<feFlood flood-opacity="0" result="BackgroundImageFix"/>
<feColorMatrix in="SourceAlpha" type="matrix" values="0 0 0 0 0 0 0 0 0 0 0 0 0 0 0 0 0 0 127 0" result="hardAlpha"/>
<feOffset dy="1.23709"/>
<feGaussianBlur stdDeviation="0.927816"/>
<feColorMatrix type="matrix" values="0 0 0 0 0 0 0 0 0 0 0 0 0 0 0 0 0 0 0.1 0"/>
<feBlend mode="normal" in2="BackgroundImageFix" result="effect1_dropShadow_310_69"/>
<feBlend mode="normal" in="SourceGraphic" in2="effect1_dropShadow_310_69" result="shape"/>
</filter>
<linearGradient id="paint0_linear_310_69" x1="23.4765" y1="14" x2="23.4765" y2="32.7148" gradientUnits="userSpaceOnUse">
<stop stop-color="white" stop-opacity="0.7"/>
<stop offset="1" stop-opacity="0.3"/>
</linearGradient>
<clipPath id="clip0_310_69">
<rect x="11" y="14" width="24.9531" height="18.7148" rx="1.23709" fill="white"/>
</clipPath>
</defs>
</svg>
