<svg width="120" height="56" viewBox="0 0 120 56" fill="none" xmlns="http://www.w3.org/2000/svg">
<path d="M1 7.29344C1 3.81767 3.81767 1 7.29345 1H112.707C116.182 1 119 3.81767 119 7.29345V39.9316C119 43.4074 116.182 46.2251 112.707 46.2251H55.7589C53.3488 46.2251 51.0578 47.2735 49.4825 49.0975L45.4652 53.7487C45.1368 54.1289 44.5474 54.1289 44.219 53.7487L40.2018 49.0975C38.6264 47.2735 36.3354 46.2251 33.9253 46.2251H7.29344C3.81767 46.2251 1 43.4074 1 39.9316V7.29344Z" fill="white" stroke="#B6C3CE" stroke-width="2"/>
<g filter="url(#filter0_d_309_267)">
<g clip-path="url(#clip0_309_267)">
<mask id="mask0_309_267" style="mask-type:luminance" maskUnits="userSpaceOnUse" x="7" y="14" width="25" height="19">
<rect x="7" y="14" width="24.95" height="18.7125" fill="white"/>
</mask>
<g mask="url(#mask0_309_267)">
<path fill-rule="evenodd" clip-rule="evenodd" d="M7 14V32.7125H31.95V14H7Z" fill="#2E42A5"/>
<mask id="mask1_309_267" style="mask-type:luminance" maskUnits="userSpaceOnUse" x="7" y="14" width="25" height="19">
<path fill-rule="evenodd" clip-rule="evenodd" d="M7 14V32.7125H31.95V14H7Z" fill="white"/>
</mask>
<g mask="url(#mask1_309_267)">
<path fill-rule="evenodd" clip-rule="evenodd" d="M10.3173 18.7947L8.76664 19.6131L9.51534 18.1563L8.55957 17.0902L9.7473 17.0464L10.3173 15.5596L10.7523 17.0464L12.1422 17.0902L11.1415 18.1563L11.7763 19.6131L10.3173 18.7947Z" fill="#F7FCFF"/>
<path fill-rule="evenodd" clip-rule="evenodd" d="M15.8514 22.6355L13.9376 23.4372L14.6884 21.4283L13.0244 20.0803H15.0183L15.8514 17.9072L16.4872 20.0803H18.4842L17.0651 21.4283L17.7697 23.4372L15.8514 22.6355Z" fill="#F7FCFF"/>
<path fill-rule="evenodd" clip-rule="evenodd" d="M7 24.916V28.0348H31.95V24.916H7Z" fill="#F9E813"/>
</g>
</g>
<rect x="7" y="14" width="24.9531" height="18.7148" fill="url(#paint0_linear_309_267)" style="mix-blend-mode:overlay"/>
</g>
<rect x="7.30927" y="14.3093" width="24.3345" height="18.0963" rx="0.927816" stroke="black" stroke-opacity="0.1" stroke-width="0.618544" style="mix-blend-mode:multiply"/>
</g>
<path d="M51.4964 21.326H49.1058C49.0376 20.9339 48.9119 20.5866 48.7287 20.2841C48.5455 19.9773 48.3175 19.7173 48.0447 19.5043C47.772 19.2912 47.4609 19.1314 47.1115 19.0249C46.7663 18.9141 46.3935 18.8587 45.9929 18.8587C45.2813 18.8587 44.6506 19.0376 44.1009 19.3956C43.5511 19.7493 43.1207 20.2692 42.8097 20.9553C42.4986 21.6371 42.343 22.4702 42.343 23.4545C42.343 24.456 42.4986 25.2997 42.8097 25.9858C43.125 26.6676 43.5554 27.1832 44.1009 27.5327C44.6506 27.8778 45.2791 28.0504 45.9865 28.0504C46.3786 28.0504 46.745 27.9993 47.0859 27.897C47.4311 27.7905 47.7401 27.6349 48.0128 27.4304C48.2898 27.2259 48.522 26.9744 48.7095 26.6761C48.9013 26.3778 49.0334 26.0369 49.1058 25.6534L51.4964 25.6662C51.407 26.2884 51.2131 26.8722 50.9148 27.4176C50.6207 27.9631 50.2351 28.4446 49.7578 28.8622C49.2805 29.2756 48.7223 29.5994 48.0831 29.8338C47.4439 30.0639 46.7344 30.179 45.9545 30.179C44.804 30.179 43.777 29.9126 42.8736 29.38C41.9702 28.8473 41.2585 28.0781 40.7386 27.0724C40.2188 26.0668 39.9588 24.8608 39.9588 23.4545C39.9588 22.044 40.2209 20.8381 40.745 19.8366C41.2692 18.831 41.983 18.0618 42.8864 17.5291C43.7898 16.9964 44.8125 16.7301 45.9545 16.7301C46.6832 16.7301 47.3608 16.8324 47.9872 17.0369C48.6136 17.2415 49.1719 17.5419 49.6619 17.9382C50.152 18.3303 50.5547 18.8118 50.87 19.3828C51.1896 19.9496 51.3984 20.5973 51.4964 21.326ZM59.8237 25.8707V20.1818H62.1376V30H59.894V28.255H59.7917C59.5701 28.8047 59.2058 29.2543 58.6987 29.6037C58.1958 29.9531 57.5758 30.1278 56.8386 30.1278C56.1951 30.1278 55.6262 29.9851 55.1319 29.6996C54.6419 29.4098 54.2583 28.9901 53.9814 28.4403C53.7044 27.8864 53.5659 27.2173 53.5659 26.4332V20.1818H55.8798V26.0753C55.8798 26.6974 56.0502 27.1918 56.3912 27.5582C56.7321 27.9247 57.1795 28.108 57.7335 28.108C58.0744 28.108 58.4047 28.0249 58.7243 27.8587C59.0439 27.6925 59.3059 27.4453 59.5105 27.1172C59.7193 26.7848 59.8237 26.3693 59.8237 25.8707ZM64.517 30V20.1818H66.7607V21.8182H66.8629C67.0419 21.2514 67.3487 20.8146 67.7834 20.5078C68.2223 20.1967 68.723 20.0412 69.2855 20.0412C69.4134 20.0412 69.5561 20.0476 69.7138 20.0604C69.8757 20.0689 70.0099 20.0838 70.1165 20.1051V22.2337C70.0185 22.1996 69.8629 22.1697 69.6499 22.1442C69.4411 22.1143 69.2386 22.0994 69.0426 22.0994C68.6207 22.0994 68.2415 22.1911 67.9048 22.3743C67.5724 22.5533 67.3104 22.8026 67.1186 23.1222C66.9268 23.4418 66.831 23.8104 66.831 24.228V30H64.517ZM74.3033 30.1982C73.6811 30.1982 73.1207 30.0874 72.6222 29.8658C72.1278 29.6399 71.7358 29.3075 71.446 28.8686C71.1605 28.4297 71.0178 27.8885 71.0178 27.245C71.0178 26.6911 71.12 26.233 71.3246 25.8707C71.5291 25.5085 71.8082 25.2188 72.1619 25.0014C72.5156 24.7841 72.9141 24.62 73.3572 24.5092C73.8047 24.3942 74.267 24.3111 74.7443 24.2599C75.3196 24.2003 75.7862 24.147 76.1442 24.1001C76.5021 24.049 76.7621 23.9723 76.924 23.87C77.0902 23.7635 77.1733 23.5994 77.1733 23.3778V23.3395C77.1733 22.858 77.0305 22.4851 76.745 22.2209C76.4595 21.9567 76.0483 21.8246 75.5114 21.8246C74.9446 21.8246 74.495 21.9482 74.1626 22.1953C73.8345 22.4425 73.6129 22.7344 73.4979 23.071L71.3374 22.7642C71.5078 22.1676 71.7891 21.669 72.1811 21.2685C72.5732 20.8636 73.0526 20.5611 73.6193 20.3608C74.1861 20.1562 74.8125 20.054 75.4986 20.054C75.9716 20.054 76.4425 20.1094 76.9112 20.2202C77.38 20.331 77.8082 20.5142 78.196 20.7699C78.5838 21.0213 78.8949 21.3643 79.1293 21.799C79.3679 22.2337 79.4872 22.777 79.4872 23.429V30H77.2628V28.6513H77.1861C77.0455 28.924 76.8473 29.1797 76.5916 29.4183C76.3402 29.6527 76.0227 29.8423 75.6392 29.9872C75.2599 30.1278 74.8146 30.1982 74.3033 30.1982ZM74.9041 28.4979C75.3686 28.4979 75.7713 28.4062 76.1122 28.223C76.4531 28.0355 76.7152 27.7884 76.8984 27.4815C77.0859 27.1747 77.1797 26.8402 77.1797 26.478V25.321C77.1072 25.3807 76.9837 25.4361 76.8089 25.4872C76.6385 25.5384 76.4467 25.5831 76.2337 25.6214C76.0206 25.6598 75.8097 25.6939 75.6009 25.7237C75.392 25.7536 75.2109 25.7791 75.0575 25.8004C74.7124 25.8473 74.4034 25.924 74.1307 26.0305C73.858 26.1371 73.6428 26.2862 73.4851 26.478C73.3274 26.6655 73.2486 26.9084 73.2486 27.2067C73.2486 27.6328 73.4041 27.9545 73.7152 28.1719C74.0263 28.3892 74.4226 28.4979 74.9041 28.4979ZM86.0966 30.1918C85.1165 30.1918 84.2749 29.9766 83.5717 29.5462C82.8729 29.1158 82.3338 28.5213 81.9545 27.7628C81.5795 27 81.392 26.1222 81.392 25.1293C81.392 24.1321 81.5838 23.2521 81.9673 22.4893C82.3509 21.7223 82.892 21.1257 83.5909 20.6996C84.294 20.2692 85.125 20.054 86.0838 20.054C86.8807 20.054 87.5859 20.201 88.1996 20.495C88.8175 20.7848 89.3097 21.196 89.6761 21.7287C90.0426 22.2571 90.2514 22.875 90.3026 23.5824H88.0909C88.0014 23.1094 87.7884 22.7152 87.4517 22.3999C87.1193 22.0803 86.674 21.9205 86.1158 21.9205C85.6428 21.9205 85.2273 22.0483 84.8693 22.304C84.5114 22.5554 84.2322 22.9176 84.032 23.3906C83.8359 23.8636 83.7379 24.4304 83.7379 25.0909C83.7379 25.7599 83.8359 26.3352 84.032 26.8168C84.228 27.294 84.5028 27.6626 84.8565 27.9226C85.2145 28.1783 85.6342 28.3061 86.1158 28.3061C86.4567 28.3061 86.7614 28.2422 87.0298 28.1143C87.3026 27.9822 87.5305 27.7926 87.7138 27.5455C87.897 27.2983 88.0227 26.9979 88.0909 26.6442H90.3026C90.2472 27.3388 90.0426 27.9545 89.6889 28.4915C89.3352 29.0241 88.8537 29.4418 88.2443 29.7443C87.6349 30.0426 86.919 30.1918 86.0966 30.1918ZM85.4318 29.9489H86.6847L86.5824 30.4922C86.983 30.5518 87.3217 30.7053 87.5987 30.9524C87.88 31.2038 88.0206 31.5639 88.0206 32.0327C88.0249 32.6378 87.7543 33.1236 87.2088 33.4901C86.6634 33.8565 85.8857 34.0398 84.8757 34.0398L84.8501 32.902C85.3402 32.902 85.7301 32.8359 86.0199 32.7038C86.3097 32.576 86.4567 32.3714 86.4609 32.0902C86.4695 31.8175 86.3672 31.6172 86.1541 31.4893C85.9453 31.3658 85.6129 31.2805 85.157 31.2337L85.4318 29.9489ZM95.0279 30.1982C94.4057 30.1982 93.8453 30.0874 93.3468 29.8658C92.8525 29.6399 92.4604 29.3075 92.1706 28.8686C91.8851 28.4297 91.7424 27.8885 91.7424 27.245C91.7424 26.6911 91.8446 26.233 92.0492 25.8707C92.2537 25.5085 92.5328 25.2188 92.8865 25.0014C93.2402 24.7841 93.6387 24.62 94.0819 24.5092C94.5293 24.3942 94.9917 24.3111 95.4689 24.2599C96.0442 24.2003 96.5108 24.147 96.8688 24.1001C97.2267 24.049 97.4867 23.9723 97.6486 23.87C97.8148 23.7635 97.8979 23.5994 97.8979 23.3778V23.3395C97.8979 22.858 97.7551 22.4851 97.4696 22.2209C97.1841 21.9567 96.7729 21.8246 96.236 21.8246C95.6692 21.8246 95.2196 21.9482 94.8873 22.1953C94.5591 22.4425 94.3375 22.7344 94.2225 23.071L92.062 22.7642C92.2324 22.1676 92.5137 21.669 92.9057 21.2685C93.2978 20.8636 93.7772 20.5611 94.3439 20.3608C94.9107 20.1562 95.5371 20.054 96.2232 20.054C96.6962 20.054 97.1671 20.1094 97.6358 20.2202C98.1046 20.331 98.5328 20.5142 98.9206 20.7699C99.3084 21.0213 99.6195 21.3643 99.8539 21.799C100.093 22.2337 100.212 22.777 100.212 23.429V30H97.9874V28.6513H97.9107C97.7701 28.924 97.5719 29.1797 97.3162 29.4183C97.0648 29.6527 96.7473 29.8423 96.3638 29.9872C95.9846 30.1278 95.5392 30.1982 95.0279 30.1982ZM95.6287 28.4979C96.0932 28.4979 96.4959 28.4062 96.8368 28.223C97.1777 28.0355 97.4398 27.7884 97.623 27.4815C97.8105 27.1747 97.9043 26.8402 97.9043 26.478V25.321C97.8319 25.3807 97.7083 25.4361 97.5336 25.4872C97.3631 25.5384 97.1713 25.5831 96.9583 25.6214C96.7452 25.6598 96.5343 25.6939 96.3255 25.7237C96.1167 25.7536 95.9355 25.7791 95.7821 25.8004C95.437 25.8473 95.128 25.924 94.8553 26.0305C94.5826 26.1371 94.3674 26.2862 94.2097 26.478C94.052 26.6655 93.9732 26.9084 93.9732 27.2067C93.9732 27.6328 94.1287 27.9545 94.4398 28.1719C94.7509 28.3892 95.1472 28.4979 95.6287 28.4979ZM106.821 30.1918C105.862 30.1918 105.031 29.9808 104.328 29.5589C103.625 29.1371 103.08 28.5469 102.692 27.7884C102.308 27.0298 102.117 26.1435 102.117 25.1293C102.117 24.1151 102.308 23.2266 102.692 22.4638C103.08 21.701 103.625 21.1087 104.328 20.6868C105.031 20.2649 105.862 20.054 106.821 20.054C107.78 20.054 108.611 20.2649 109.314 20.6868C110.017 21.1087 110.561 21.701 110.944 22.4638C111.332 23.2266 111.526 24.1151 111.526 25.1293C111.526 26.1435 111.332 27.0298 110.944 27.7884C110.561 28.5469 110.017 29.1371 109.314 29.5589C108.611 29.9808 107.78 30.1918 106.821 30.1918ZM106.834 28.3381C107.354 28.3381 107.789 28.1953 108.138 27.9098C108.487 27.62 108.747 27.2322 108.918 26.7464C109.093 26.2607 109.18 25.7195 109.18 25.1229C109.18 24.522 109.093 23.9787 108.918 23.4929C108.747 23.0028 108.487 22.6129 108.138 22.3232C107.789 22.0334 107.354 21.8885 106.834 21.8885C106.301 21.8885 105.858 22.0334 105.504 22.3232C105.155 22.6129 104.893 23.0028 104.718 23.4929C104.548 23.9787 104.463 24.522 104.463 25.1229C104.463 25.7195 104.548 26.2607 104.718 26.7464C104.893 27.2322 105.155 27.62 105.504 27.9098C105.858 28.1953 106.301 28.3381 106.834 28.3381Z" fill="#1C1C1E"/>
<defs>
<filter id="filter0_d_309_267" x="5.14437" y="13.3815" width="28.6644" height="22.4261" filterUnits="userSpaceOnUse" color-interpolation-filters="sRGB">
<feFlood flood-opacity="0" result="BackgroundImageFix"/>
<feColorMatrix in="SourceAlpha" type="matrix" values="0 0 0 0 0 0 0 0 0 0 0 0 0 0 0 0 0 0 127 0" result="hardAlpha"/>
<feOffset dy="1.23709"/>
<feGaussianBlur stdDeviation="0.927816"/>
<feColorMatrix type="matrix" values="0 0 0 0 0 0 0 0 0 0 0 0 0 0 0 0 0 0 0.1 0"/>
<feBlend mode="normal" in2="BackgroundImageFix" result="effect1_dropShadow_309_267"/>
<feBlend mode="normal" in="SourceGraphic" in2="effect1_dropShadow_309_267" result="shape"/>
</filter>
<linearGradient id="paint0_linear_309_267" x1="19.4765" y1="14" x2="19.4765" y2="32.7148" gradientUnits="userSpaceOnUse">
<stop stop-color="white" stop-opacity="0.7"/>
<stop offset="1" stop-opacity="0.3"/>
</linearGradient>
<clipPath id="clip0_309_267">
<rect x="7" y="14" width="24.9531" height="18.7148" rx="1.23709" fill="white"/>
</clipPath>
</defs>
</svg>
