<svg width="70" height="114" viewBox="0 0 70 114" fill="none" xmlns="http://www.w3.org/2000/svg">
<path d="M57.7284 96.7667L40.1963 106.891L22.6641 96.7667L40.1963 86.6548L57.7284 96.7667Z" fill="white"/>
<path d="M57.7294 0.460741L40.1973 0V96.7665H57.7294V0.460741Z" fill="url(#paint0_linear_348_1900)"/>
<path d="M40.1963 0L22.6641 2.3158V96.7665H40.1963V0Z" fill="url(#paint1_linear_348_1900)"/>
<path d="M67.4031 96.7663L40.1955 112.48L13 96.7663L40.1955 81.0649L67.4031 96.7663Z" stroke="url(#paint2_linear_348_1900)" stroke-width="2.46754" stroke-miterlimit="10"/>
<path fill-rule="evenodd" clip-rule="evenodd" d="M37.3547 99.9351L33.2129 97.5407V86.8236L41.6636 83.8657L37.3547 99.9351Z" fill="#CFD3EE"/>
<path fill-rule="evenodd" clip-rule="evenodd" d="M0 68.5413V95.3439H0.0302214V95.5358C0.0853267 96.8957 0.775029 97.964 1.78826 98.4831L8.09159 102.125L8.30845 96.4833L23.6615 87.6184L28.4414 90.3648L28.6583 84.7423C28.6938 84.718 28.7271 84.6906 28.7579 84.6605L47.8314 73.6519V73.6306C49.7654 72.9356 51.0399 70.8504 50.9244 68.7742V47.3845L52.3251 48.1951L56.2358 43.4684L49.7156 39.7106C49.3363 39.4042 48.892 39.1886 48.4167 39.0801C47.9413 38.9717 47.4475 38.9733 46.9728 39.0849C46.5355 39.1779 46.1156 39.3393 45.7285 39.5631V39.5329L25.3875 51.2934L23.1709 52.5733C22.9131 52.6928 22.6668 52.8356 22.435 52.9999L2.89392 64.3C2.07421 64.6765 1.37401 65.2714 0.870112 66.0196C0.366216 66.7678 0.0780861 67.6402 0.0373279 68.5413H0Z" fill="#CFD3EE"/>
<path fill-rule="evenodd" clip-rule="evenodd" d="M6.50586 72.2901V99.0926H6.53252C6.53252 99.153 6.53252 99.2188 6.53252 99.2792C6.61962 101.491 8.38833 102.932 10.4841 102.498C10.9846 102.391 11.4611 102.193 11.8902 101.914L33.9803 89.1612V89.1505L34.0301 89.1203C34.4738 88.9539 34.8861 88.7135 35.2495 88.4093L54.3213 77.4006V77.3793C56.2553 76.6789 57.5245 74.5992 57.416 72.5194V46.5968C57.4311 46.4147 57.4365 46.2319 57.432 46.0493C57.3449 43.8362 55.5762 42.3946 53.4804 42.8336C53.0426 42.9248 52.6224 43.0863 52.2361 43.3118L52.2255 43.2816L31.8898 55.0421L29.6714 56.3202C29.4136 56.4394 29.1678 56.5828 28.9373 56.7486L9.38911 68.0487C8.56976 68.4257 7.86989 69.0208 7.36606 69.7688C6.86223 70.5169 6.57387 71.3891 6.53252 72.2901H6.50586Z" fill="#F2F3F5"/>
<path fill-rule="evenodd" clip-rule="evenodd" d="M48.1719 80.0317L37.3535 99.9354V82.9292L48.1719 80.0317Z" fill="#F2F3F5"/>
<path fill-rule="evenodd" clip-rule="evenodd" d="M20.0674 75.9893C22.0867 75.2036 23.7203 76.2009 23.7203 78.2167C23.7203 80.2324 22.0867 82.5095 20.0674 83.2952C18.048 84.0809 16.418 83.0837 16.418 81.0626C16.418 79.0415 18.0516 76.775 20.0674 75.9893ZM45.0798 61.07C47.0956 60.2826 48.7328 61.2816 48.7328 63.2956C48.7328 65.3096 47.0956 67.5849 45.0798 68.3706C43.064 69.1563 41.4269 68.1591 41.4269 66.1433C41.4269 64.1275 43.064 61.8557 45.0798 61.07ZM32.7789 68.6532C34.7947 67.8675 36.4319 68.8648 36.4319 70.8805C36.4319 72.8963 34.7947 75.1681 32.7789 75.9538C30.7631 76.7395 29.126 75.7423 29.126 73.7265C29.126 71.7107 30.7631 69.4389 32.7789 68.6532Z" fill="white"/>
<g filter="url(#filter0_d_348_1900)">
<g clip-path="url(#clip0_348_1900)">
<path fill-rule="evenodd" clip-rule="evenodd" d="M15 67.3999L15 97.7108L50 77.5035L50 47.1926L15 67.3999Z" fill="#009933"/>
<mask id="mask0_348_1900" style="mask-type:luminance" maskUnits="userSpaceOnUse" x="15" y="47" width="35" height="51">
<path fill-rule="evenodd" clip-rule="evenodd" d="M15 67.3999L15 97.7108L50 77.5035L50 47.1926L15 67.3999Z" fill="white"/>
</mask>
<g mask="url(#mask0_348_1900)">
<mask id="mask1_348_1900" style="mask-type:luminance" maskUnits="userSpaceOnUse" x="15" y="47" width="35" height="51">
<rect width="40.4145" height="30.3109" transform="matrix(0.866025 -0.5 2.20305e-08 1 15 67.3994)" fill="white"/>
</mask>
<g mask="url(#mask1_348_1900)">
<path fill-rule="evenodd" clip-rule="evenodd" d="M15 85.0796L50 64.8723L50 77.5019L15 97.7091L15 85.0796Z" fill="#F7FCFF"/>
<path fill-rule="evenodd" clip-rule="evenodd" d="M15 77.5015L50 57.2942L50 64.8719L15 85.0792L15 77.5015Z" fill="#F7FCFF"/>
<path fill-rule="evenodd" clip-rule="evenodd" d="M15 67.3984L50 47.1912L50 59.8207L15 80.028L15 67.3984Z" fill="#F7FCFF"/>
<path d="M32.2394 84.4587C32.2327 84.4593 32.2267 84.4578 32.2217 84.4545L32.2153 84.4512C32.1869 84.437 32.1599 84.4202 32.1345 84.401C32.0664 84.351 31.9751 84.273 31.8948 84.2038C31.7356 84.0666 31.604 83.9451 31.5792 83.9223L31.5387 83.8848L31.1417 83.9726L30.8519 83.9839L31.0067 83.6935L31.5387 83.6494L31.9357 83.5142L32.6697 83.7139L32.6692 83.7147C32.6677 83.717 32.5624 83.8789 32.4578 84.0492C32.4111 84.1251 32.3523 84.2223 32.3107 84.2984C32.2936 84.3294 32.2777 84.3611 32.2632 84.3931C32.2545 84.4149 32.2466 84.4368 32.2394 84.4587M29.5133 85.0872C29.1552 85.2902 28.8043 85.3794 28.4965 85.3458L28.4961 85.346L28.4961 85.3455C28.5336 85.2518 28.5837 85.1605 28.6432 85.0776C28.7424 84.9363 28.9213 84.7324 29.2105 84.5642L29.2165 84.5607C29.5589 84.363 29.978 84.2555 30.4622 84.2411C30.1752 84.6038 29.8471 84.8963 29.5133 85.0872ZM28.0122 85.5697C27.951 85.6064 27.8922 85.6118 27.8502 85.5846C27.814 85.5569 27.789 85.5128 27.7776 85.4566C27.7613 85.3845 27.7552 85.3042 27.7597 85.2181C27.7849 85.1909 27.812 85.1681 27.8395 85.1511L27.8452 85.1478C27.9736 85.0737 28.0747 85.1438 28.1181 85.2462C28.1417 85.2889 28.1467 85.3504 28.1321 85.4191C28.1103 85.4843 28.0629 85.5437 28.0125 85.569L28.0122 85.5697ZM30.6535 83.6912C29.7663 84.0572 29.3903 83.9039 29.231 83.7109C29.1302 83.5962 29.0827 83.4166 29.0964 83.2008L29.0964 83.2L29.0971 83.1996C29.1416 83.1621 29.1872 83.1299 29.2329 83.1039C29.4689 82.9676 30.0726 82.7562 30.6537 83.6906L30.6541 83.6913L30.6531 83.6913L30.6535 83.6912ZM28.8351 84.5381C28.4561 84.7569 28.1675 84.848 27.9774 84.809C27.8965 84.7959 27.8314 84.7493 27.789 84.6744C27.7735 84.6456 27.7633 84.6112 27.7586 84.5725C27.8849 84.4405 28.0193 84.33 28.1555 84.246C28.1751 84.2336 28.1948 84.2216 28.2155 84.2096C28.5084 84.0405 28.9539 83.8936 29.424 84.148L29.4245 84.1483L29.4239 84.1486C29.2286 84.2925 29.0317 84.4227 28.8346 84.5384L28.8351 84.5381ZM26.9998 85.5163C26.6001 85.747 26.051 85.9231 25.7086 85.7255L25.7082 85.7252L25.7092 85.7246C25.9695 85.5033 26.2353 85.3091 26.5026 85.1449C26.5276 85.1298 26.5527 85.1149 26.578 85.1002C26.9527 84.8839 27.2396 84.8022 27.4306 84.8573C27.484 84.8635 27.5236 84.8992 27.5419 84.9573C27.5462 85.0055 27.5253 85.0667 27.4879 85.1153C27.4019 85.24 27.2481 85.3688 27.0308 85.4983L27.0001 85.5172L26.9998 85.5163ZM25.7046 85.4968C25.6556 85.5252 25.6091 85.5268 25.5779 85.5011C25.5491 85.474 25.5297 85.4342 25.5213 85.385C25.5083 85.3212 25.5033 85.2513 25.5064 85.1767L25.5064 85.1757C25.526 85.154 25.5472 85.1362 25.5686 85.1235C25.6188 85.0967 25.6662 85.0938 25.701 85.1155C25.7397 85.1369 25.7691 85.1732 25.7872 85.2217C25.8053 85.2605 25.8086 85.3133 25.7964 85.3719C25.7815 85.4241 25.745 85.4735 25.7044 85.4965L25.7046 85.4968ZM28.6961 83.6918C28.6348 83.7285 28.576 83.7339 28.534 83.7067C28.4978 83.679 28.4728 83.635 28.4614 83.5788C28.445 83.5068 28.4389 83.4264 28.4434 83.3403C28.4687 83.3131 28.4958 83.2904 28.5233 83.2733L28.529 83.27C28.6573 83.1959 28.7585 83.2661 28.8018 83.3684C28.8254 83.4112 28.8304 83.4726 28.8158 83.5414C28.7941 83.6066 28.7467 83.666 28.6962 83.6913L28.6961 83.6918ZM27.2389 84.4635C26.4346 84.8951 26.0174 84.872 25.8087 84.7768C25.7195 84.738 25.6459 84.6713 25.592 84.5804C25.5719 84.5462 25.5564 84.5069 25.5456 84.4633L25.5467 84.4622C25.6111 84.4025 25.678 84.3523 25.7452 84.3134L25.764 84.3025C26.0353 84.1459 26.5875 83.9587 27.2386 84.4635L27.2386 84.464L27.2389 84.4635ZM28.1124 83.8653C27.4653 84.1251 27.0987 84.0161 26.9051 83.8787C26.7856 83.7995 26.6948 83.6762 26.6387 83.5168C26.7041 83.4618 26.7709 83.4139 26.838 83.3741C26.8466 83.3691 26.8556 83.3635 26.8648 83.3582C26.8739 83.3529 26.8834 83.3474 26.893 83.3423C27.2185 83.1626 27.8096 82.9915 28.1122 83.865L28.1128 83.8647L28.1124 83.8653ZM24.7903 85.4245C24.5843 85.5442 24.379 85.6344 24.179 85.6929C23.8402 85.7907 23.6949 85.7252 23.6326 85.6531C23.6058 85.6238 23.5879 85.5831 23.5799 85.5339C23.5771 85.5146 23.5766 85.4937 23.5784 85.4715L23.5799 85.47C23.7549 85.3188 23.9344 85.1889 24.1147 85.0828C24.127 85.0758 24.1393 85.0683 24.1518 85.0611C24.2987 84.9759 24.4454 84.9077 24.5895 84.8574C24.9164 84.7475 25.2078 84.7918 25.41 84.9821L25.41 84.9826L25.4093 84.983C25.2066 85.1573 24.9985 85.3055 24.7898 85.4244L24.7903 85.4245ZM26.2924 83.927C26.2314 83.9641 26.1726 83.9702 26.1303 83.9439C26.0939 83.9156 26.069 83.8711 26.0577 83.8142C26.0413 83.7428 26.0353 83.6631 26.0398 83.5775C26.065 83.5503 26.0921 83.5276 26.1196 83.5106L26.1253 83.5073C26.2534 83.4333 26.3547 83.5034 26.3982 83.6057C26.4214 83.6482 26.4257 83.7094 26.4106 83.7776C26.3899 83.8426 26.3428 83.9022 26.2926 83.9272L26.2924 83.927ZM25.1629 84.4003C24.9478 84.4542 24.7421 84.4692 24.5513 84.4451C24.2679 84.4072 23.9213 84.2511 23.879 83.7219L23.8797 83.7215C23.9013 83.7038 23.9231 83.6882 23.9451 83.6747C23.9502 83.6718 23.9562 83.668 23.9621 83.6645C24.0468 83.6156 24.22 83.5431 24.4296 83.6061C24.6964 83.687 24.9428 83.9543 25.163 84.4013L25.1629 84.4003ZM25.9004 83.9432C25.7249 83.9525 25.5619 83.9257 25.4164 83.8636C25.0405 83.707 24.7476 83.4041 24.5621 82.98C24.6084 82.9282 24.6585 82.8849 24.7096 82.8525C24.7147 82.8491 24.7198 82.846 24.7252 82.8429C24.7329 82.8385 24.7408 82.8339 24.7489 82.8298C24.8721 82.7627 25.0598 82.7134 25.2679 82.8526C25.5069 83.0124 25.7202 83.3787 25.9016 83.9415L25.9021 83.9431L25.9006 83.9433L25.9004 83.9432ZM23.9894 84.9822C23.743 85.1245 23.6587 85.0188 23.6339 84.9668C23.6091 84.9119 23.5994 84.8424 23.6055 84.7643L23.6055 84.7632C23.6457 84.7284 23.6869 84.6985 23.7282 84.6738L23.7366 84.6689C23.8977 84.5714 24.0511 84.5669 24.1498 84.6571C24.1628 84.6719 24.2028 84.7265 24.1697 84.8062C24.1432 84.8693 24.0829 84.9283 23.9893 84.9823L23.9894 84.9822ZM23.4436 84.5023C23.2527 84.6131 23.0622 84.7042 22.8742 84.7749C22.6547 84.8555 22.5303 84.7119 22.4646 84.5772C22.4205 84.4848 22.3896 84.3786 22.3726 84.2613L22.3733 84.2609C23.0521 83.892 23.3727 83.9359 23.5221 84.0377C23.6146 84.0955 23.6723 84.206 23.6859 84.3516L23.6855 84.3519C23.6845 84.3525 23.5889 84.4183 23.4432 84.5024L23.4436 84.5023ZM24.1504 83.2787C24.1495 83.2779 24.072 83.2118 23.9954 83.1186C23.915 83.0208 23.8407 82.9129 23.8407 82.7899C23.8407 82.6709 23.8164 82.4341 23.802 82.3036C23.7837 82.138 23.7652 81.9979 23.7636 81.986L23.7643 81.9856C23.7815 81.9829 24.1889 81.9242 24.1889 82.3655C24.1889 82.8067 24.1512 83.2733 24.1508 83.2779L24.1508 83.2786L24.1503 83.2789L24.1504 83.2787ZM23.6225 83.5416C23.6182 83.544 23.6139 83.546 23.6097 83.5477C23.4893 83.594 23.2775 83.61 23.0438 83.5901C22.784 83.5681 22.5731 83.5056 22.4499 83.4142C22.3374 83.3309 22.271 83.1364 22.2516 82.8367C22.243 82.7008 22.2445 82.5585 22.256 82.4114C22.2777 82.3907 22.3004 82.3736 22.3232 82.3608C22.4134 82.3104 22.5096 82.3017 22.6395 82.33C22.758 82.359 22.8689 82.4038 22.9712 82.4639C23.1012 82.538 23.224 82.6241 23.3392 82.7219L23.3409 82.7233C23.3544 82.7435 23.4705 82.9182 23.561 83.1013C23.6062 83.1835 23.6409 83.2772 23.6644 83.3807C23.6733 83.4098 23.6733 83.4463 23.6644 83.4858C23.6606 83.499 23.6537 83.5124 23.6448 83.5236C23.6376 83.5312 23.63 83.5375 23.6223 83.5419L23.6225 83.5416Z" fill="#4E5B31"/>
<path d="M30.9012 85.2329C30.9079 85.2257 30.914 85.2172 30.9189 85.2082L30.9253 85.1976C30.9537 85.1505 30.9807 85.1026 31.0062 85.0539C31.0742 84.9253 31.1656 84.7419 31.2459 84.58C31.4051 84.259 31.5366 83.9856 31.5614 83.9341L31.6019 83.8498L31.9989 83.4793L32.2887 83.1559L32.1339 83.0443L31.6019 83.6144L31.205 83.9377L30.4709 84.9849L30.4715 84.9851C30.4729 84.9857 30.5782 85.026 30.6828 85.0755C30.7295 85.0976 30.7883 85.1268 30.8299 85.1549C30.847 85.1662 30.8629 85.1795 30.8774 85.1947C30.8862 85.2064 30.8941 85.2192 30.9012 85.2329M33.6273 82.7136C33.9855 82.503 34.3363 82.1871 34.6441 81.798L34.6445 81.7977L34.6445 81.7973C34.607 81.7468 34.557 81.7134 34.4974 81.6992C34.3982 81.6724 34.2193 81.6752 33.9301 81.8409L33.9241 81.8443C33.5817 82.042 33.1626 82.4184 32.6784 82.9631C32.9655 82.9943 33.2935 82.9081 33.6273 82.7136ZM35.1284 81.4627C35.1896 81.4287 35.2485 81.3662 35.2904 81.2905C35.3267 81.221 35.3516 81.1481 35.363 81.0787C35.3794 80.9878 35.3854 80.9004 35.3809 80.8195C35.3557 80.8214 35.3286 80.83 35.3011 80.8447L35.2954 80.848C35.167 80.9221 35.0659 81.109 35.0226 81.2614C34.9989 81.3314 34.9939 81.3987 35.0086 81.4505C35.0303 81.4906 35.0777 81.4953 35.1281 81.4623L35.1284 81.4627ZM32.4871 82.6342C33.3743 81.9756 33.7504 81.3881 33.9096 81.0113C34.0104 80.7801 34.0579 80.5457 34.0442 80.3458L34.0442 80.3449L34.0436 80.3453C33.999 80.3592 33.9534 80.3797 33.9077 80.4065C33.6717 80.5427 33.068 81.0284 32.4869 82.6338L32.4865 82.6349L32.4876 82.6337L32.4871 82.6342ZM34.3056 81.3813C34.6846 81.1624 34.9731 80.9203 35.1633 80.6618C35.2441 80.5554 35.3092 80.4335 35.3516 80.3096C35.3671 80.263 35.3774 80.2167 35.382 80.1727C35.2557 80.1865 35.1214 80.2311 34.9851 80.3044C34.9656 80.3147 34.9458 80.3254 34.9251 80.3373C34.6322 80.5065 34.1867 80.874 33.7166 81.6712L33.7162 81.672L33.7167 81.6717C33.912 81.5901 34.1089 81.4929 34.306 81.3811L34.3056 81.3813ZM36.1409 80.2402C36.5405 80.0095 37.0896 79.5515 37.432 78.9585L37.4324 78.9578L37.4314 78.9584C37.1711 79.0377 36.9053 79.1503 36.638 79.2947C36.6131 79.3084 36.5879 79.3226 36.5626 79.3372C36.1879 79.5535 35.9011 79.803 35.71 80.0787C35.6567 80.1465 35.617 80.228 35.5987 80.3072C35.5945 80.3604 35.6154 80.3974 35.6527 80.403C35.7387 80.4283 35.8925 80.3795 36.1099 80.2581L36.1405 80.2415L36.1409 80.2402ZM37.436 78.7253C37.485 78.6971 37.5315 78.6449 37.5627 78.5833C37.5915 78.5229 37.6109 78.4607 37.6193 78.4017C37.6323 78.323 37.6373 78.2472 37.6342 78.1763L37.6342 78.1752C37.6147 78.1761 37.5934 78.1828 37.572 78.1949C37.5218 78.226 37.4744 78.2779 37.4397 78.3397C37.401 78.4058 37.3715 78.4762 37.3534 78.5456C37.3353 78.6052 37.332 78.6618 37.3442 78.7064C37.3591 78.7413 37.3957 78.7486 37.4362 78.7247L37.436 78.7253ZM34.4446 80.3745C34.5058 80.3405 34.5646 80.2779 34.6066 80.2023C34.6428 80.1327 34.6678 80.0599 34.6793 79.9905C34.6956 79.8995 34.7017 79.8121 34.6972 79.7312C34.6719 79.7332 34.6449 79.7417 34.6174 79.7564L34.6116 79.7597C34.4833 79.8338 34.3822 80.0208 34.3388 80.1732C34.3152 80.2432 34.3102 80.3104 34.3248 80.3623C34.3465 80.4024 34.394 80.4071 34.4444 80.3741L34.4446 80.3745ZM35.9017 79.4636C36.706 78.9665 37.1232 78.4617 37.3319 78.1254C37.4212 77.9836 37.4947 77.832 37.5486 77.6788C37.5687 77.6214 37.5842 77.5642 37.595 77.5081L37.594 77.5082C37.5296 77.5229 37.4627 77.55 37.3954 77.5887L37.3766 77.5996C37.1054 77.7562 36.5532 78.2065 35.902 79.4632L35.902 79.4638L35.9017 79.4636ZM35.0282 79.874C35.6753 79.3866 36.0419 78.8542 36.2355 78.4933C36.355 78.2762 36.4458 78.0479 36.502 77.8238C36.4365 77.8443 36.3697 77.8735 36.3026 77.9112C36.294 77.9162 36.285 77.921 36.2759 77.9262C36.2667 77.9315 36.2572 77.937 36.2476 77.943C35.9221 78.1391 35.331 78.6506 35.0284 79.8735L35.0279 79.8738L35.0282 79.874ZM38.3503 77.5972C38.5563 77.479 38.7616 77.3321 38.9616 77.1598C39.3004 76.8663 39.4457 76.633 39.508 76.489C39.5348 76.4287 39.5528 76.3673 39.5607 76.309C39.5635 76.2864 39.5641 76.2649 39.5623 76.2448L39.5607 76.245C39.3857 76.296 39.2062 76.3733 39.0259 76.4754C39.0137 76.4825 39.0013 76.4892 38.9888 76.4965C38.8419 76.581 38.6953 76.6821 38.5511 76.7982C38.2242 77.0658 37.9329 77.4465 37.7307 77.8703L37.7307 77.8708L37.7313 77.8704C37.934 77.8106 38.1421 77.7186 38.3508 77.5966L38.3503 77.5972ZM36.8482 77.8341C36.9092 77.8008 36.9681 77.739 37.0103 77.6638C37.0467 77.5936 37.0717 77.5202 37.0829 77.4503C37.0993 77.36 37.1054 77.2733 37.1009 77.193C37.0756 77.1949 37.0485 77.2035 37.021 77.2182L37.0153 77.2215C36.8872 77.2954 36.7859 77.4825 36.7424 77.635C36.7193 77.7043 36.7149 77.7706 36.73 77.8212C36.7508 77.8623 36.7978 77.8675 36.8481 77.8345L36.8482 77.8341ZM37.9777 77.0032C38.1928 76.8087 38.3985 76.5862 38.5894 76.3417C38.8727 75.9767 39.2193 75.4203 39.2616 74.8423L39.2609 74.8428C39.2394 74.8499 39.2175 74.8595 39.1956 74.8714C39.1904 74.8743 39.1845 74.8774 39.1785 74.8809C39.0939 74.9297 38.9206 75.0573 38.711 75.3623C38.4442 75.7512 38.1979 76.303 37.9776 77.0044L37.9777 77.0032ZM37.2402 77.3977C37.4157 77.2043 37.5787 76.9893 37.7242 76.7593C38.1001 76.1687 38.393 75.5274 38.5785 74.8892C38.5322 74.8908 38.4821 74.9054 38.431 74.932C38.4259 74.9345 38.4208 74.9373 38.4154 74.9405C38.4077 74.9449 38.3998 74.9495 38.3917 74.9546C38.2685 75.0298 38.0808 75.1973 37.8728 75.5767C37.6338 76.0125 37.4204 76.6251 37.239 77.3974L37.2385 77.3995L37.24 77.3981L37.2402 77.3977ZM39.1512 76.2301C39.3976 76.0878 39.4819 75.8848 39.5068 75.8041C39.5315 75.7206 39.5412 75.6399 39.5351 75.569L39.5351 75.5678C39.495 75.5794 39.4538 75.597 39.4124 75.6201L39.404 75.6249C39.2429 75.7134 39.0895 75.8861 38.9908 76.0902C38.9778 76.1201 38.9378 76.2207 38.9709 76.2623C38.9975 76.2947 39.0578 76.2841 39.1513 76.2301L39.1512 76.2301ZM39.697 75.12C39.8879 75.0103 40.0784 74.8815 40.2664 74.735C40.4859 74.5622 40.6103 74.2749 40.676 74.0645C40.7201 73.921 40.7511 73.7791 40.768 73.6423L40.7674 73.6426C40.0885 74.0576 39.7679 74.4717 39.6185 74.746C39.526 74.9107 39.4683 75.0878 39.4547 75.2491L39.4551 75.2488C39.4562 75.2482 39.5517 75.2037 39.6974 75.1196L39.697 75.12ZM38.9902 74.7124C38.9911 74.7106 39.0687 74.555 39.1452 74.3734C39.2256 74.1827 39.3 73.989 39.3 73.866C39.3 73.747 39.3242 73.4822 39.3387 73.335C39.357 73.1483 39.3755 72.9868 39.377 72.9731L39.3763 72.9735C39.3591 72.9907 38.9517 73.4025 38.9517 73.8437C38.9517 74.285 38.9894 74.708 38.9898 74.7122L38.9898 74.7129L38.9903 74.7126L38.9902 74.7124ZM39.5182 74.3657C39.5225 74.3633 39.5267 74.3603 39.5309 74.3571C39.6513 74.2644 39.8631 74.0358 40.0969 73.746C40.3566 73.4241 40.5675 73.1181 40.6908 72.8844C40.8032 72.6712 40.8696 72.4 40.8891 72.0778C40.8976 71.9321 40.8961 71.7916 40.8846 71.6577C40.8629 71.6621 40.8402 71.6712 40.8174 71.6847C40.7272 71.7384 40.631 71.8409 40.5011 72.0192C40.3827 72.1849 40.2717 72.3578 40.1694 72.5361C40.0395 72.7602 39.9167 72.9881 39.8014 73.219L39.7998 73.2223C39.7862 73.2582 39.6701 73.5669 39.5796 73.8545C39.5344 73.9889 39.4997 74.1226 39.4762 74.2533C39.4673 74.2927 39.4673 74.3292 39.4762 74.3584C39.48 74.3673 39.4869 74.3726 39.4959 74.3735C39.503 74.3729 39.5106 74.3703 39.5184 74.3658L39.5182 74.3657Z" fill="#4E5B31"/>
<path d="M45.7355 52.8983L45.6151 53.0231L45.5679 53.0721L45.4221 53.147L45.2854 53.3016L45.0432 53.6326L45.0325 53.6476L44.9422 53.727L44.8583 53.7336L44.8107 53.7862L44.7943 53.9089L44.7489 54.0165L44.6931 54.094L44.4998 54.2284L44.3368 54.4197L44.1246 54.4765L44.0261 54.578L43.8166 54.9169L43.7095 55.0372L43.6721 55.0563L43.5301 55.1299L43.4701 55.1872L43.3806 55.3388L43.2112 55.4518L43.1584 55.5245L43.0757 55.7646L42.9861 55.9231L42.935 55.9651L42.8794 55.9735L42.8377 56.0061L42.8188 56.1402L42.7782 56.2151L42.6648 56.3257L42.5742 56.4652L42.4947 56.5583L42.3882 56.6168L42.3637 56.6309L42.2576 56.7598L42.0583 56.895L41.9753 57.0344L41.957 57.0645L41.9182 57.1139L41.8548 57.1941L41.8395 57.2138L41.7629 57.2423L41.6734 57.3349L41.6372 57.2915L41.5753 57.3701L41.4936 57.4214L41.3913 57.428L41.3135 57.4329L41.2567 57.4752L41.2369 57.6011L41.2349 57.6144L41.1751 57.7409L41.0635 57.8834L41.0481 57.9151L40.9211 58.1777L40.6798 58.6101L40.4757 58.8476L40.2642 59.0441L40.116 59.2701L39.7275 59.7167L39.1145 60.4231L38.9891 60.5419L38.8092 60.6789L38.4883 61.0006L38.2053 61.2627L38.1895 61.2773L38.1333 61.3294L37.7341 61.6993L37.5483 61.7839L37.4383 61.8935L37.1518 62.0222L36.9525 62.1419L36.8264 62.2449L36.5894 62.513L36.1894 62.966L36.0572 63.1819L35.8514 63.4247L35.6104 63.6519L35.611 63.5347L35.6096 63.5305L35.526 63.6093L35.4656 63.6662L35.2701 63.8139L35.1614 63.8767L35.0938 63.893L35.0836 63.903L34.684 64.2853L34.2384 64.5922L34.0154 64.8036L33.8488 64.8967L33.7447 64.9926L33.5402 65.1395L33.4672 65.1592L33.4508 65.1635L32.8503 65.5403L32.5757 65.663L32.4447 65.7731L32.2249 65.8146L31.9045 65.9567L31.8296 65.974L31.6609 66.0137L31.5847 66.1084L31.5277 66.1483L31.3914 66.1699L31.3423 66.1968L31.2299 66.309L31.1651 66.3272L31.105 66.3066L30.9639 66.3638L30.8779 66.33L30.3975 66.6809L30.2671 66.7119L29.8299 66.8172L29.7604 66.8614L29.6735 66.9866L29.5432 67.1166L29.4302 67.2158L29.2763 67.3106L29.0974 67.3597L28.9131 67.363L28.8449 67.3836L28.6929 67.4891L28.6464 67.5207L28.3671 67.509L28.0072 67.4571L27.763 67.4624L27.6713 67.4981L27.659 67.5556L27.7044 67.6946L27.7198 67.8494L27.7151 68.0034L27.7126 68.0985L27.7354 68.1694L27.8236 68.2313L27.8603 68.3234L27.8872 68.6198L27.8869 68.9364L27.844 69.4658L27.8296 69.5508L27.7784 69.8418L27.7317 70.1089L27.5505 70.8529L27.5007 70.9609L27.3785 71.1277L27.1016 71.5052L26.8976 71.7587L26.8331 71.8268L26.6675 71.9369L26.5644 71.9905L26.436 71.9843L26.3099 72.0197L26.1447 71.9779L25.9607 72.0402L25.7593 72.022L25.7068 71.9795L25.5972 72.0311L25.4451 72.0662L25.4451 72.0659L25.3892 72.0788L25.3506 72.0881L25.1564 72.1944L24.9755 72.2024L24.8802 72.2308L24.75 72.2984L24.6138 72.4502L24.5447 72.5272L24.4575 72.5375L24.3944 72.5785L24.3228 72.7446L24.314 72.7688L24.2648 72.8273L24.2034 72.8617L24.1554 72.8879L24.1035 72.9441L24.0336 73.0195L23.9718 73.0862L23.9417 73.1187L23.9412 73.1184L23.9226 73.1334L23.8897 73.1591L23.8488 73.1917L23.7767 73.1847L23.7384 73.1807L23.6741 73.2027L23.6395 73.2515L23.6327 73.3912L23.6012 73.4908L23.5009 73.651L23.3991 73.8133L23.3281 73.9751L23.1402 74.5787L23.0227 74.8464L22.9861 74.914L22.8625 75.1424L22.7534 75.3032L22.5018 75.6736L22.2637 75.9138L22.0586 76.0806L21.9589 76.1386L21.7698 76.2188L21.5999 76.2566L21.4134 76.2297L21.2089 76.1579L20.9128 75.991L20.8709 75.9861L20.8622 75.9844L20.7689 75.9694L20.6997 76.0114L20.6726 76.0787L20.6578 76.1617L20.6453 76.2351L20.6113 76.6304L20.6138 76.6508L20.6317 76.7952L20.8565 77.0283L20.926 77.181L20.9374 77.1965L20.9838 77.2597L21.0191 77.3079L21.0226 77.3128L21.0993 77.5334L21.0452 77.7142L21.0725 77.7988L21.0043 77.8994L20.9917 77.9931L21.1937 78.1688L21.2377 78.2723L21.1885 78.4795L21.11 78.6234L21.0881 78.663L21.0991 78.7322L21.192 78.775L21.3499 78.8462L21.4341 79.0387L21.4981 79.0667L21.5725 79.0054L21.6139 79.018L21.6767 78.9805L21.7384 79.0162L21.7784 79.0154L21.8416 79.0153L21.8915 79.0616L21.9025 79.286L21.9957 79.5191L21.9971 79.6737L21.9976 79.6955L22.0556 79.777L22.0738 79.8573L22.0431 80.1151L22.1169 80.1496L22.197 80.0844L22.2488 80.064L22.3319 80.0959L22.4325 80.2149L22.5309 80.1414L22.5934 80.1401L22.8949 80.2808L22.9634 80.2812L22.9671 80.2815L23.0164 80.2816L23.0777 80.3175L23.1726 80.19L23.1831 80.1827L23.2862 80.1126L23.3315 80.1219L23.4184 80.1395L23.5326 80.0719L23.7801 80.0166L23.8884 79.9861L24.1062 80.0167L24.1988 80.0293L24.2536 80.0491L24.3263 80.0756L24.4717 80.0639L24.5965 80.0263L24.664 80.0058L24.7151 79.999L24.7164 79.9946L24.7171 79.9942L24.7159 79.9986L24.986 79.9621L25.1322 79.9171L25.2676 79.8965L25.3661 79.8809L25.4383 79.8405L25.5405 79.6823L25.6395 79.6185L25.7218 79.5946L25.802 79.5328L25.929 79.3691L25.9538 79.3124L26.0439 79.2109L26.3477 78.9919L26.4364 78.9739L26.6644 78.7278L26.8171 78.6887L26.9523 78.5553L27.2476 78.4606L27.3261 78.479L27.4139 78.5443L27.4246 78.5387L27.5223 78.4844L27.4815 78.5866L27.6104 78.6683L27.7269 78.8044L27.7348 78.8267L27.8194 79.0649L27.8824 79.1302L27.9265 79.2467L27.9286 79.338L27.8601 79.4379L27.8489 79.4788L27.845 79.4937L27.8589 79.5244L27.8848 79.4932L27.934 79.4333L27.9939 79.388L28.0995 79.34L28.1692 79.3082L28.2793 79.1815L28.3522 79.0975L28.4694 79.0881L28.5982 79.0121L28.6523 79.0087L28.8056 79.0003L28.8837 78.9637L28.9126 78.9251L28.931 78.864L28.9216 78.8104L28.8627 78.7665L28.7334 78.6678L28.6804 78.6093L28.6401 78.5035L28.6276 78.3457L28.6187 78.2396L28.6348 78.0842L28.6695 78.0119L28.6951 77.8811L28.6956 77.8808L28.7021 77.8466L28.774 77.695L28.9643 77.4439L29.1688 77.1144L29.3304 76.8981L29.497 76.7186L29.5014 76.6924L29.52 76.6903L29.9438 76.2792L29.9508 76.2743L30.1395 76.1274L31.4131 75.4956L31.4603 75.4519L31.4603 75.4515L31.5028 75.2895L31.5256 75.2508L31.5409 75.2253L31.681 75.0733L31.7465 75.0247L31.9282 74.9716L32.0026 74.9498L32.1218 74.8039L32.2063 74.7567L32.381 74.5458L32.4889 74.4866L32.5297 74.4441L32.7399 74.1483L32.9424 73.9645L32.995 73.9017L33.0135 73.8792L33.221 73.6329L33.3529 73.4399L33.4666 73.3044L33.5912 73.1953L33.9173 72.9806L33.9829 72.8165L34.1231 72.714L34.2078 72.5547L34.3049 72.4531L34.3744 72.2975L34.4326 72.167L34.5139 72.0657L34.7746 71.8964L35.0835 71.7622L35.1244 71.71L35.1942 71.382L35.2673 71.2858L35.4641 70.8409L35.4648 70.7199L35.4648 70.6191L35.4971 70.4569L35.4752 70.2104L35.5012 69.933L35.6236 69.5289L35.7314 69.3322L35.9051 69.0961L35.9935 69.0006L36.1187 68.9041L36.1187 68.9041L36.1371 68.8899L36.169 68.8652L36.6 68.6095C36.606 68.6009 36.7567 68.5165 36.7567 68.5165L36.9004 68.4313L37.2641 68.2959L37.29 68.2862L37.4127 68.2613L37.5544 68.3068L37.7046 68.3894L37.7328 68.4047L37.8299 68.3959L37.8592 68.3937L37.9395 68.3325L38.0539 68.1978L38.1401 68.0637L38.2577 67.9217L38.2606 67.9153L38.3267 67.7621L38.3287 67.7586L38.3302 67.7582L38.3302 67.7576L38.329 67.7582L38.3552 67.6974L38.5824 67.4639L38.8497 67.2919L38.8798 67.2558L38.8965 67.2358L38.9671 67.0992L39.0333 67.0604L39.1935 67.0348L39.306 66.9441L39.3954 66.9337L39.4649 66.8841L39.596 66.7907L39.7368 66.8238L39.8188 66.7882L40.108 66.8166L40.123 66.8108L40.1308 66.8079L40.1473 66.8015L40.1816 66.7699L40.2327 66.7234L40.2395 66.7172L40.2459 66.7238L40.2788 66.7583L40.3239 66.7398L40.3772 66.6267L40.356 66.6017L40.348 66.5927L40.2447 66.6281L40.1519 66.4987L40.2403 66.3379L40.1017 66.2216L40.0787 66.2024L40.0709 66.1931L40.023 66.1368L39.7804 65.8498L39.4645 65.741L39.3538 65.7027L39.3531 65.7025L39.3144 65.6895L39.1457 65.5887L39.0252 65.4735L39.0094 65.4429L38.9845 65.3946L38.9123 65.2546L38.7865 65.2151L38.6839 65.145L38.6788 65.1403L38.4672 64.9305L38.4325 64.8949L38.3825 64.8904L38.2769 64.9506L38.2667 64.9447L38.2608 64.9409L38.2643 64.9345L38.315 64.8471L38.3715 64.7981L38.3958 64.7198L38.2881 64.422L38.2873 64.4099L38.2793 64.2994L38.3671 63.7261L38.3784 63.656L38.528 63.2179L38.6207 63.0767L38.7219 62.7886L38.8088 62.5916L38.8919 62.4503L38.9064 62.432L39.0563 62.2406L39.1823 62.1474L39.3023 62.0586L39.5119 62.0122L39.7112 61.8926L39.7501 61.8654L39.8405 61.8014L39.9893 61.6613L40.0595 61.5708L40.096 61.4852L40.172 61.147L40.1964 61.0393L40.2433 60.9105L40.5145 60.3934L40.7195 60.0561L41.1804 59.3997L41.4061 59.1137L41.5213 58.9677L42.5499 57.8459L42.8172 57.3788L42.9565 57.1356L43.2028 56.8024L43.4912 56.4996L43.7392 56.1296L43.7934 56.0196L43.8617 55.7264L43.9186 55.6777L43.9697 55.5199L43.9843 55.475L44.1867 55.1933L44.2096 55.1669L44.9961 54.2579L45.1104 54.21L45.1717 54.0688L45.4005 53.8924L45.4427 53.8598L45.4989 53.7948L45.5469 53.6727L45.5469 53.654L45.5535 53.398L45.6023 53.3017L45.6289 53.1201L45.654 53.0673L45.6803 53.0122L45.7451 52.9222L45.7338 52.8974L45.7355 52.8983Z" fill="#D57800"/>
</g>
</g>
<rect width="40.4145" height="30.3109" transform="matrix(0.866025 -0.5 2.20305e-08 1 15 67.4028)" fill="url(#paint3_linear_348_1900)" style="mix-blend-mode:overlay"/>
</g>
<rect x="0.433795" y="0.250451" width="39.4127" height="29.3091" rx="1.50271" transform="matrix(0.866025 -0.5 2.20305e-08 1 15.0581 67.6207)" stroke="black" stroke-opacity="0.1" stroke-width="1.00181" style="mix-blend-mode:multiply"/>
</g>
<defs>
<filter id="filter0_d_348_1900" x="11.9946" y="46.195" width="41.0108" height="56.5289" filterUnits="userSpaceOnUse" color-interpolation-filters="sRGB">
<feFlood flood-opacity="0" result="BackgroundImageFix"/>
<feColorMatrix in="SourceAlpha" type="matrix" values="0 0 0 0 0 0 0 0 0 0 0 0 0 0 0 0 0 0 127 0" result="hardAlpha"/>
<feOffset dy="2.00361"/>
<feGaussianBlur stdDeviation="1.50271"/>
<feColorMatrix type="matrix" values="0 0 0 0 0 0 0 0 0 0 0 0 0 0 0 0 0 0 0.1 0"/>
<feBlend mode="normal" in2="BackgroundImageFix" result="effect1_dropShadow_348_1900"/>
<feBlend mode="normal" in="SourceGraphic" in2="effect1_dropShadow_348_1900" result="shape"/>
</filter>
<linearGradient id="paint0_linear_348_1900" x1="48.9633" y1="4.6801" x2="48.9633" y2="103.823" gradientUnits="userSpaceOnUse">
<stop stop-color="white" stop-opacity="0"/>
<stop offset="1" stop-color="white"/>
</linearGradient>
<linearGradient id="paint1_linear_348_1900" x1="31.4302" y1="4.6801" x2="31.4302" y2="103.823" gradientUnits="userSpaceOnUse">
<stop stop-color="white" stop-opacity="0"/>
<stop offset="1" stop-color="white"/>
</linearGradient>
<linearGradient id="paint2_linear_348_1900" x1="10.5751" y1="96.7663" x2="69.828" y2="96.7663" gradientUnits="userSpaceOnUse">
<stop stop-color="#2CD4D9" stop-opacity="0"/>
<stop offset="0.58" stop-color="#2CD4D9" stop-opacity="0.5"/>
<stop offset="1" stop-color="#2CD4D9" stop-opacity="0.1"/>
</linearGradient>
<linearGradient id="paint3_linear_348_1900" x1="20.2073" y1="0" x2="20.2073" y2="30.3109" gradientUnits="userSpaceOnUse">
<stop stop-color="white" stop-opacity="0.7"/>
<stop offset="1" stop-opacity="0.3"/>
</linearGradient>
<clipPath id="clip0_348_1900">
<rect width="40.4145" height="30.3109" rx="2.00361" transform="matrix(0.866025 -0.5 2.20305e-08 1 15 67.4038)" fill="white"/>
</clipPath>
</defs>
</svg>
