<svg width="120" height="56" viewBox="0 0 120 56" fill="none" xmlns="http://www.w3.org/2000/svg">
<path d="M1 7.29344C1 3.81767 3.81767 1 7.29345 1H112.707C116.182 1 119 3.81767 119 7.29345V39.9316C119 43.4074 116.182 46.2251 112.707 46.2251H55.7589C53.3488 46.2251 51.0578 47.2735 49.4825 49.0975L45.4652 53.7487C45.1368 54.1289 44.5474 54.1289 44.219 53.7487L40.2018 49.0975C38.6264 47.2735 36.3354 46.2251 33.9253 46.2251H7.29344C3.81767 46.2251 1 43.4074 1 39.9316V7.29344Z" fill="white" stroke="#B6C3CE" stroke-width="2"/>
<g filter="url(#filter0_d_307_199)">
<g clip-path="url(#clip0_307_199)">
<path fill-rule="evenodd" clip-rule="evenodd" d="M12 13.998V32.7129H36.9531V13.998H12Z" fill="#009933"/>
<mask id="mask0_307_199" style="mask-type:luminance" maskUnits="userSpaceOnUse" x="12" y="13" width="25" height="20">
<path fill-rule="evenodd" clip-rule="evenodd" d="M12 13.998V32.7129H36.9531V13.998H12Z" fill="white"/>
</mask>
<g mask="url(#mask0_307_199)">
<mask id="mask1_307_199" style="mask-type:luminance" maskUnits="userSpaceOnUse" x="12" y="13" width="25" height="20">
<rect x="12" y="13.998" width="24.9531" height="18.7148" fill="white"/>
</mask>
<g mask="url(#mask1_307_199)">
<path fill-rule="evenodd" clip-rule="evenodd" d="M12 24.915H36.9531V32.7129H12V24.915Z" fill="#F7FCFF"/>
<path fill-rule="evenodd" clip-rule="evenodd" d="M12 20.2363H36.9531V24.915H12V20.2363Z" fill="#F7FCFF"/>
<path fill-rule="evenodd" clip-rule="evenodd" d="M12 13.998H36.9531V21.7959H12V13.998Z" fill="#F7FCFF"/>
<path d="M24.2912 30.6769C24.2864 30.6748 24.2821 30.6718 24.2786 30.6679L24.274 30.6637C24.2538 30.6448 24.2345 30.6248 24.2164 30.6038C24.1678 30.5487 24.1027 30.468 24.0455 30.3967C23.932 30.2552 23.8382 30.1333 23.8205 30.1103L23.7916 30.0727L23.5086 29.9855L23.302 29.8891L23.4124 29.765L23.7916 29.9274L24.0746 29.9855L24.598 30.3704L24.5976 30.3707C24.5965 30.3716 24.5215 30.434 24.4469 30.5019C24.4136 30.5321 24.3717 30.5711 24.3421 30.6033C24.3298 30.6164 24.3185 30.6303 24.3082 30.6448C24.3019 30.6552 24.2963 30.6659 24.2912 30.6769M22.3476 30.0932C22.0923 30.0908 21.8422 30.0208 21.6227 29.8903H21.6224V29.89C21.6491 29.8455 21.6849 29.807 21.7273 29.7771C21.798 29.7251 21.9256 29.6631 22.1318 29.6623H22.136C22.3802 29.6623 22.6789 29.7453 23.0241 29.909C22.8195 30.0306 22.5856 30.0943 22.3476 30.0932ZM21.2774 29.856C21.2338 29.8568 21.1918 29.8392 21.1619 29.8074C21.1361 29.7774 21.1183 29.7412 21.1102 29.7025C21.0985 29.6522 21.0942 29.6004 21.0974 29.5488C21.1154 29.541 21.1347 29.5366 21.1543 29.5359H21.1584C21.2499 29.5359 21.322 29.6153 21.3529 29.694C21.3697 29.7288 21.3733 29.7685 21.3629 29.8057C21.3474 29.8382 21.3136 29.858 21.2776 29.8556L21.2774 29.856ZM23.1606 29.6377C22.528 29.5474 22.2599 29.3187 22.1464 29.1428C22.0745 29.036 22.0407 28.9082 22.0504 28.7798V28.7793H22.0509C22.0826 28.772 22.1151 28.7684 22.1477 28.7686C22.316 28.7686 22.7464 28.8533 23.1607 29.6374L23.161 29.6379L23.1602 29.6375L23.1606 29.6377ZM21.8641 29.5123C21.5939 29.5123 21.3881 29.4657 21.2526 29.3739C21.1949 29.337 21.1485 29.285 21.1183 29.2236C21.1072 29.2003 21.0999 29.1754 21.0966 29.1499C21.1867 29.1134 21.2825 29.093 21.3796 29.0897C21.3935 29.0891 21.4076 29.0887 21.4224 29.0886C21.6312 29.0886 21.9488 29.1568 22.284 29.4814L22.2843 29.4818H22.2839C22.1447 29.501 22.0043 29.5112 21.8638 29.5124L21.8641 29.5123ZM20.5556 29.4621C20.2707 29.4621 19.8792 29.375 19.6351 29.131L19.6348 29.1307H19.6355C19.8211 29.0868 20.0106 29.0616 20.2012 29.0555C20.219 29.0551 20.2369 29.0549 20.2549 29.0548C20.5221 29.0548 20.7266 29.1066 20.8628 29.2088C20.9008 29.2316 20.9291 29.2678 20.9421 29.3102C20.9452 29.3415 20.9303 29.3718 20.9037 29.3885C20.8423 29.4348 20.7327 29.4595 20.5777 29.462L20.5559 29.4628L20.5556 29.4621ZM19.6323 28.9884C19.5973 28.9884 19.5642 28.9728 19.5419 28.9458C19.5214 28.9188 19.5075 28.8874 19.5016 28.8539C19.4923 28.81 19.4887 28.765 19.491 28.7201V28.7194C19.5049 28.713 19.52 28.7096 19.5353 28.7094C19.571 28.7107 19.6049 28.7258 19.6296 28.7516C19.6572 28.7786 19.6782 28.8116 19.6911 28.848C19.704 28.8783 19.7064 28.9121 19.6977 28.944C19.6871 28.9708 19.661 28.9884 19.6321 28.9881L19.6323 28.9884ZM21.765 28.9403C21.7213 28.9411 21.6794 28.9235 21.6495 28.8917C21.6236 28.8617 21.6058 28.8256 21.5977 28.7868C21.586 28.7365 21.5817 28.6847 21.5849 28.6332C21.6029 28.6254 21.6222 28.621 21.6418 28.6203H21.6459C21.7374 28.6203 21.8095 28.6996 21.8404 28.7783C21.8572 28.8131 21.8608 28.8528 21.8504 28.8901C21.8349 28.9226 21.8011 28.9424 21.7651 28.94L21.765 28.9403ZM20.7261 28.8973C20.1527 28.8771 19.8553 28.7141 19.7065 28.5809C19.6428 28.5251 19.5904 28.4578 19.552 28.3824C19.5376 28.3541 19.5266 28.3243 19.5189 28.2936L19.5196 28.2932C19.5655 28.2793 19.6132 28.2722 19.6612 28.2721H19.6746C19.868 28.2721 20.2617 28.3534 20.7259 28.8972V28.8975L20.7261 28.8973ZM21.3489 28.8393C20.8875 28.7691 20.6261 28.571 20.4881 28.4172C20.4029 28.3257 20.3382 28.2172 20.2982 28.0988C20.3448 28.0881 20.3924 28.0824 20.4403 28.0817C20.4464 28.0817 20.4528 28.0815 20.4594 28.0815C20.4659 28.0815 20.4727 28.0815 20.4795 28.0817C20.7116 28.0868 21.133 28.1919 21.3487 28.8391H21.3491L21.3489 28.8393ZM18.9804 28.6178C18.8335 28.6183 18.6872 28.6007 18.5446 28.5656C18.303 28.5052 18.1994 28.413 18.155 28.3462C18.1359 28.3186 18.1231 28.287 18.1175 28.2539C18.1155 28.241 18.1151 28.2278 18.1163 28.2148L18.1175 28.2144C18.2422 28.1835 18.3702 28.1672 18.4988 28.166C18.5075 28.166 18.5162 28.1658 18.5252 28.1658C18.6299 28.1656 18.7345 28.1757 18.8372 28.196C19.0703 28.2447 19.278 28.376 19.4222 28.5655V28.5658H19.4217C19.2772 28.6012 19.1288 28.6186 18.9801 28.6176L18.9804 28.6178ZM20.0513 28.2286C20.0078 28.2298 19.9659 28.2126 19.9357 28.1813C19.9098 28.1509 19.892 28.1144 19.884 28.0753C19.8723 28.0254 19.868 27.974 19.8712 27.9228C19.8892 27.915 19.9085 27.9106 19.9281 27.9099H19.9322C20.0235 27.9099 20.0957 27.9893 20.1267 28.068C20.1432 28.1025 20.1464 28.1418 20.1356 28.1785C20.1208 28.2113 20.0872 28.2313 20.0514 28.2288L20.0513 28.2286ZM19.246 28.1182C19.0927 28.0748 18.946 28.0108 18.81 27.9278C18.608 27.8035 18.3608 27.5835 18.3307 27.2417H18.3312C18.3466 27.2384 18.3621 27.2366 18.3778 27.2361C18.3814 27.2361 18.3857 27.2359 18.3899 27.2359C18.4503 27.2359 18.5738 27.2529 18.7232 27.3665C18.9135 27.5115 19.0891 27.7644 19.2461 28.1189L19.246 28.1182ZM19.7718 28.0989C19.6467 28.0421 19.5305 27.9674 19.4268 27.8772C19.1588 27.6466 18.9499 27.3551 18.8177 27.0271C18.8507 27.0116 18.8864 27.0028 18.9229 27.001C18.9265 27.0007 18.9301 27.0006 18.934 27.0006C18.9395 27.0006 18.9451 27.0006 18.9509 27.001C19.0387 27.0034 19.1725 27.04 19.3209 27.2C19.4912 27.3839 19.6433 27.6861 19.7727 28.0983L19.7731 28.0994L19.772 28.0991L19.7718 28.0989ZM18.4094 28.0592C18.2337 28.0592 18.1736 27.9639 18.1559 27.9229C18.1383 27.8802 18.1313 27.8338 18.1357 27.7878V27.7871C18.1643 27.78 18.1937 27.7762 18.2232 27.7757H18.2292C18.344 27.7729 18.4534 27.8248 18.5237 27.9156C18.533 27.9294 18.5615 27.9774 18.538 28.0148C18.519 28.0443 18.476 28.0592 18.4093 28.0592L18.4094 28.0592ZM18.0202 27.5683C17.8842 27.5687 17.7484 27.557 17.6143 27.5337C17.4578 27.5052 17.3691 27.3722 17.3223 27.2656C17.2908 27.1928 17.2688 27.1162 17.2567 27.0377H17.2572C17.7411 27.0519 17.9697 27.1934 18.0762 27.3095C18.1422 27.3781 18.1833 27.4669 18.193 27.5617H18.1927C18.192 27.5617 18.1238 27.5682 18.02 27.5682L18.0202 27.5683ZM18.5242 27.0648C18.5235 27.064 18.4683 26.9955 18.4137 26.9107C18.3564 26.8216 18.3033 26.7285 18.3033 26.6526C18.3033 26.5791 18.2861 26.4243 18.2758 26.3385C18.2627 26.2298 18.2495 26.1367 18.2484 26.1288H18.2489C18.2612 26.1332 18.5516 26.2422 18.5516 26.5147C18.5516 26.7871 18.5247 27.0617 18.5245 27.0645V27.0649H18.5241L18.5242 27.0648ZM18.1478 27.0389C18.1447 27.0389 18.1417 27.0386 18.1387 27.0381C18.0528 27.0238 17.9018 26.9582 17.7352 26.8626C17.55 26.7564 17.3996 26.6426 17.3118 26.5423C17.2316 26.4507 17.1843 26.307 17.1704 26.115C17.1643 26.028 17.1654 25.9407 17.1736 25.854C17.1891 25.849 17.2052 25.8465 17.2215 25.8467C17.2858 25.8477 17.3544 25.8767 17.447 25.9405C17.5314 26.0006 17.6105 26.0678 17.6835 26.1414C17.7761 26.2334 17.8637 26.3304 17.9458 26.4318L17.947 26.4333C17.9567 26.4506 18.0395 26.5999 18.1039 26.7451C18.1362 26.812 18.1609 26.8822 18.1777 26.9545C18.184 26.9757 18.184 26.9982 18.1777 27.0194C18.175 27.0263 18.17 27.032 18.1637 27.0357C18.1586 27.0379 18.1531 27.039 18.1476 27.039L18.1478 27.0389Z" fill="#4E5B31"/>
<path d="M23.3367 30.6769C23.3415 30.6748 23.3458 30.6718 23.3494 30.6679L23.3539 30.6637C23.3742 30.6448 23.3934 30.6248 23.4116 30.6038C23.4601 30.5487 23.5252 30.468 23.5824 30.3967C23.696 30.2552 23.7897 30.1333 23.8074 30.1103L23.8363 30.0727L24.1193 29.9855L24.326 29.8891L24.2156 29.765L23.8363 29.9274L23.5533 29.9855L23.0299 30.3704L23.0303 30.3707C23.0314 30.3716 23.1065 30.434 23.181 30.5019C23.2143 30.5321 23.2563 30.5711 23.2859 30.6033C23.2981 30.6164 23.3094 30.6303 23.3198 30.6448C23.326 30.6552 23.3316 30.6659 23.3367 30.6769M25.2803 30.0932C25.5356 30.0908 25.7858 30.0208 26.0052 29.8903H26.0055V29.89C25.9788 29.8455 25.9431 29.807 25.9006 29.7771C25.8299 29.7251 25.7023 29.6631 25.4962 29.6623H25.4919C25.2478 29.6623 24.949 29.7453 24.6038 29.909C24.8084 30.0306 25.0423 30.0943 25.2803 30.0932ZM26.3505 29.856C26.3941 29.8568 26.4361 29.8392 26.466 29.8074C26.4918 29.7774 26.5096 29.7412 26.5177 29.7025C26.5294 29.6522 26.5337 29.6004 26.5305 29.5488C26.5125 29.541 26.4932 29.5366 26.4736 29.5359H26.4695C26.378 29.5359 26.3059 29.6153 26.275 29.694C26.2582 29.7288 26.2546 29.7685 26.265 29.8057C26.2806 29.8382 26.3143 29.858 26.3503 29.8556L26.3505 29.856ZM24.4674 29.6377C25.0999 29.5474 25.368 29.3187 25.4816 29.1428C25.5534 29.036 25.5873 28.9082 25.5775 28.7798V28.7793H25.5771C25.5453 28.772 25.5128 28.7684 25.4802 28.7686C25.3119 28.7686 24.8815 28.8533 24.4672 29.6374L24.467 29.6379L24.4677 29.6375L24.4674 29.6377ZM25.7638 29.5123C26.0341 29.5123 26.2398 29.4657 26.3753 29.3739C26.433 29.337 26.4794 29.285 26.5097 29.2236C26.5207 29.2003 26.528 29.1754 26.5313 29.1499C26.4413 29.1134 26.3455 29.093 26.2484 29.0897C26.2344 29.0891 26.2203 29.0887 26.2056 29.0886C25.9967 29.0886 25.6791 29.1568 25.344 29.4814L25.3436 29.4818H25.344C25.4833 29.501 25.6236 29.5112 25.7642 29.5124L25.7638 29.5123ZM27.0723 29.4621C27.3573 29.4621 27.7487 29.375 27.9929 29.131L27.9931 29.1307H27.9924C27.8068 29.0868 27.6173 29.0616 27.4268 29.0555C27.409 29.0551 27.3911 29.0549 27.373 29.0548C27.1059 29.0548 26.9014 29.1066 26.7652 29.2088C26.7271 29.2316 26.6988 29.2678 26.6858 29.3102C26.6828 29.3415 26.6977 29.3718 26.7243 29.3885C26.7856 29.4348 26.8952 29.4595 27.0502 29.462L27.0721 29.4628L27.0723 29.4621ZM27.9957 28.9884C28.0306 28.9884 28.0638 28.9728 28.086 28.9458C28.1065 28.9188 28.1204 28.8874 28.1264 28.8539C28.1357 28.81 28.1392 28.765 28.137 28.7201V28.7194C28.1231 28.713 28.1079 28.7096 28.0926 28.7094C28.0569 28.7107 28.0231 28.7258 27.9983 28.7516C27.9707 28.7786 27.9497 28.8116 27.9368 28.848C27.9239 28.8783 27.9216 28.9121 27.9302 28.944C27.9409 28.9708 27.9669 28.9884 27.9958 28.9881L27.9957 28.9884ZM25.863 28.9403C25.9066 28.9411 25.9485 28.9235 25.9785 28.8917C26.0043 28.8617 26.0221 28.8256 26.0303 28.7868C26.0419 28.7365 26.0463 28.6847 26.0431 28.6332C26.0251 28.6254 26.0058 28.621 25.9861 28.6203H25.9821C25.8906 28.6203 25.8185 28.6996 25.7876 28.7783C25.7707 28.8131 25.7672 28.8528 25.7776 28.8901C25.7931 28.9226 25.8269 28.9424 25.8628 28.94L25.863 28.9403ZM26.9018 28.8973C27.4752 28.8771 27.7727 28.7141 27.9215 28.5809C27.9851 28.5251 28.0375 28.4578 28.076 28.3824C28.0903 28.3541 28.1014 28.3243 28.1091 28.2936L28.1083 28.2932C28.0624 28.2793 28.0147 28.2722 27.9667 28.2721H27.9533C27.7599 28.2721 27.3663 28.3534 26.902 28.8972V28.8975L26.9018 28.8973ZM26.2791 28.8393C26.7404 28.7691 27.0018 28.571 27.1398 28.4172C27.225 28.3257 27.2898 28.2172 27.3298 28.0988C27.2831 28.0881 27.2355 28.0824 27.1877 28.0817C27.1815 28.0817 27.1751 28.0815 27.1686 28.0815C27.162 28.0815 27.1553 28.0815 27.1484 28.0817C26.9164 28.0868 26.4949 28.1919 26.2792 28.8391H26.2788L26.2791 28.8393ZM28.6475 28.6178C28.7944 28.6183 28.9408 28.6007 29.0833 28.5656C29.3249 28.5052 29.4285 28.413 29.4729 28.3462C29.492 28.3186 29.5048 28.287 29.5105 28.2539C29.5125 28.241 29.5129 28.2278 29.5116 28.2148L29.5105 28.2144C29.3857 28.1835 29.2577 28.1672 29.1292 28.166C29.1205 28.166 29.1117 28.1658 29.1028 28.1658C28.998 28.1656 28.8935 28.1757 28.7907 28.196C28.5576 28.2447 28.3499 28.376 28.2058 28.5655V28.5658H28.2062C28.3508 28.6012 28.4991 28.6186 28.6479 28.6176L28.6475 28.6178ZM27.5766 28.2286C27.6201 28.2298 27.6621 28.2126 27.6922 28.1813C27.7181 28.1509 27.7359 28.1144 27.744 28.0753C27.7556 28.0254 27.7599 27.974 27.7567 27.9228C27.7387 27.915 27.7194 27.9106 27.6998 27.9099H27.6957C27.6044 27.9099 27.5322 27.9893 27.5012 28.068C27.4847 28.1025 27.4816 28.1418 27.4923 28.1785C27.5071 28.2113 27.5407 28.2313 27.5765 28.2288L27.5766 28.2286ZM28.3819 28.1182C28.5352 28.0748 28.6819 28.0108 28.818 27.9278C29.02 27.8035 29.2671 27.5835 29.2972 27.2417H29.2967C29.2814 27.2384 29.2658 27.2366 29.2502 27.2361C29.2465 27.2361 29.2422 27.2359 29.238 27.2359C29.1776 27.2359 29.0541 27.2529 28.9047 27.3665C28.7145 27.5115 28.5388 27.7644 28.3818 28.1189L28.3819 28.1182ZM27.8561 28.0989C27.9812 28.0421 28.0974 27.9674 28.2011 27.8772C28.4691 27.6466 28.678 27.3551 28.8102 27.0271C28.7772 27.0116 28.7415 27.0028 28.7051 27.001C28.7014 27.0007 28.6978 27.0006 28.6939 27.0006C28.6885 27.0006 28.6828 27.0006 28.6771 27.001C28.5892 27.0034 28.4554 27.04 28.3071 27.2C28.1367 27.3839 27.9846 27.6861 27.8552 28.0983L27.8549 28.0994L27.856 28.0991L27.8561 28.0989ZM29.2185 28.0592C29.3942 28.0592 29.4543 27.9639 29.472 27.9229C29.4897 27.8802 29.4966 27.8338 29.4922 27.7878V27.7871C29.4636 27.78 29.4342 27.7762 29.4048 27.7757H29.3987C29.2839 27.7729 29.1745 27.8248 29.1042 27.9156C29.0949 27.9294 29.0664 27.9774 29.09 28.0148C29.1089 28.0443 29.1519 28.0592 29.2186 28.0592L29.2185 28.0592ZM29.6077 27.5683C29.7437 27.5687 29.8796 27.557 30.0136 27.5337C30.1701 27.5052 30.2588 27.3722 30.3056 27.2656C30.3371 27.1928 30.3591 27.1162 30.3712 27.0377H30.3708C29.8868 27.0519 29.6582 27.1934 29.5517 27.3095C29.4857 27.3781 29.4446 27.4669 29.4349 27.5617H29.4352C29.4359 27.5617 29.5041 27.5682 29.6079 27.5682L29.6077 27.5683ZM29.1037 27.0648C29.1044 27.064 29.1597 26.9955 29.2143 26.9107C29.2716 26.8216 29.3246 26.7285 29.3246 26.6526C29.3246 26.5791 29.3419 26.4243 29.3522 26.3385C29.3652 26.2298 29.3784 26.1367 29.3795 26.1288H29.379C29.3668 26.1332 29.0763 26.2422 29.0763 26.5147C29.0763 26.7871 29.1032 27.0617 29.1035 27.0645V27.0649H29.1038L29.1037 27.0648ZM29.4801 27.0389C29.4832 27.0389 29.4862 27.0386 29.4893 27.0381C29.5751 27.0238 29.7261 26.9582 29.8927 26.8626C30.0779 26.7564 30.2283 26.6426 30.3161 26.5423C30.3963 26.4507 30.4437 26.307 30.4575 26.115C30.4636 26.028 30.4626 25.9407 30.4544 25.854C30.4389 25.849 30.4227 25.8465 30.4064 25.8467C30.3422 25.8477 30.2735 25.8767 30.1809 25.9405C30.0965 26.0006 30.0174 26.0678 29.9444 26.1414C29.8518 26.2334 29.7643 26.3304 29.6821 26.4318L29.6809 26.4333C29.6713 26.4506 29.5885 26.5999 29.524 26.7451C29.4917 26.812 29.467 26.8822 29.4502 26.9545C29.4439 26.9757 29.4439 26.9982 29.4502 27.0194C29.4529 27.0263 29.4579 27.032 29.4643 27.0357C29.4693 27.0379 29.4748 27.039 29.4803 27.039L29.4801 27.0389Z" fill="#4E5B31"/>
<path d="M33.9121 16.0011L33.8263 16.0353L33.7927 16.0487L33.6887 16.043L33.5913 16.0897L33.4186 16.2078L33.411 16.2132L33.3466 16.23L33.2868 16.2042L33.2528 16.2197L33.2411 16.2896L33.2088 16.3399L33.169 16.3678L33.0312 16.3819L32.9149 16.4419L32.7637 16.4014L32.6935 16.4289L32.5441 16.5634L32.4677 16.5996L32.4411 16.5981L32.3398 16.5928L32.2971 16.6068L32.2333 16.6685L32.1125 16.6779L32.0748 16.704L32.0159 16.8228L31.952 16.8886L31.9156 16.8964L31.8759 16.8818L31.8462 16.887L31.8327 16.9631L31.8038 16.9949L31.7229 17.0227L31.6583 17.0766L31.6016 17.1057L31.5257 17.1038H31.5082L31.4326 17.1456L31.2905 17.158L31.2313 17.2145L31.2183 17.2265L31.1907 17.2432L31.1455 17.2702L31.1345 17.2769L31.0799 17.2672L31.0161 17.2924L30.9903 17.2527L30.9462 17.2792L30.8879 17.2817L30.815 17.2493L30.7596 17.2246L30.719 17.2305L30.7049 17.3012L30.7035 17.3087L30.6608 17.3654L30.5813 17.4136L30.5703 17.4277L30.4798 17.5446L30.3077 17.7256L30.1622 17.7995L30.0114 17.8454L29.9057 17.9321L29.6288 18.0693L29.1917 18.287L29.1024 18.3156L28.9741 18.3361L28.7453 18.4204L28.5435 18.4812L28.5323 18.4847L28.4922 18.4968L28.2076 18.5829L28.0752 18.5689L27.9967 18.5974L27.7925 18.5747L27.6504 18.5775L27.5605 18.5962L27.3915 18.6772L27.1063 18.8143L27.0121 18.9005L26.8654 18.9771L26.6936 19.0315L26.694 18.9593L26.6929 18.9562L26.6333 18.975L26.5903 18.9886L26.4509 19.0101H26.3734L26.3252 18.9961L26.318 18.9987L26.0331 19.0923L25.7154 19.123L25.5564 19.174L25.4376 19.1721L25.3633 19.1941L25.2176 19.212L25.1656 19.1981L25.1538 19.1949L24.7257 19.2135L24.5299 19.1913L24.4365 19.2126L24.2798 19.1599L24.0514 19.1334L23.998 19.1174L23.8778 19.0818L23.8234 19.1131L23.7828 19.1174L23.6856 19.0822L23.6506 19.0813L23.5705 19.1105L23.5243 19.0986L23.4814 19.0644L23.3808 19.0495L23.3195 18.9979L22.977 19.0433L22.884 19.016L22.5723 18.9252L22.5228 18.9277L22.4608 18.974L22.368 19.0079L22.2874 19.0288L22.1776 19.0325L22.0501 18.999L21.9187 18.9353L21.8701 18.9238L21.7618 18.9347L21.7286 18.9377L21.5294 18.8309L21.2728 18.6705L21.0987 18.5867L21.0334 18.5761L21.0246 18.6072L21.057 18.7092L21.0679 18.8103L21.0646 18.9037L21.0628 18.9615L21.0791 19.0135L21.1419 19.0831L21.1681 19.1531L21.1873 19.3456L21.1871 19.541L21.1565 19.8526L21.1462 19.9L21.1098 20.0614L21.0765 20.2096L20.9473 20.6044L20.9118 20.6533L20.8246 20.7127L20.6272 20.8471L20.4818 20.9309L20.4358 20.95L20.3178 20.9589L20.2442 20.9553L20.1527 20.9057L20.0628 20.8825L19.945 20.7979L19.8138 20.7707L19.6702 20.6877L19.6328 20.6428L19.5546 20.6355L19.4462 20.603V20.6028L19.4064 20.5909L19.3789 20.5829L19.2404 20.5792L19.1114 20.5197L19.0435 20.5033L18.9507 20.4986L18.8535 20.5437L18.8043 20.5667L18.7421 20.542L18.6971 20.5448L18.6461 20.6218L18.6398 20.6336L18.6047 20.6522L18.561 20.6516L18.5268 20.6506L18.4897 20.6668L18.4399 20.6884L18.3959 20.7076L18.3744 20.7169L18.374 20.7166L18.3608 20.7192L18.3373 20.7233L18.3081 20.7289L18.2567 20.6989L18.2294 20.6827L18.1836 20.6734L18.1589 20.6912L18.1541 20.775L18.1316 20.8253L18.0601 20.8884L17.9875 20.9524L17.9369 21.027L17.8029 21.3327L17.7191 21.456L17.6931 21.4848L17.605 21.5817L17.5272 21.6421L17.3478 21.7811L17.178 21.8445L17.0318 21.8744L16.9607 21.8747L16.8259 21.8568L16.7048 21.8196L16.5718 21.7365L16.4261 21.6192L16.2149 21.4107L16.1851 21.3927L16.1788 21.3886L16.1123 21.346L16.063 21.3473L16.0437 21.3792L16.0331 21.4252L16.0242 21.466L16 21.698L16.0018 21.7114L16.0145 21.807L16.1748 22.0311L16.2243 22.1501L16.2324 22.1637L16.2655 22.2193L16.2907 22.2616L16.2932 22.2659L16.3479 22.4295L16.3094 22.5218L16.3288 22.5838L16.2801 22.6215L16.2712 22.6749L16.4152 22.8554L16.4466 22.935L16.4115 23.0454L16.3555 23.1063L16.3399 23.1229L16.3478 23.1696L16.414 23.2291L16.5266 23.3293L16.5866 23.4782L16.6322 23.5183L16.6853 23.507L16.7148 23.5295L16.7595 23.5288L16.8036 23.5728L16.8321 23.5866L16.8771 23.609L16.9127 23.6554L16.9206 23.7979L16.987 23.975L16.988 24.071L16.9883 24.0846L17.0297 24.1556L17.0426 24.2117L17.0208 24.3599L17.0734 24.4075L17.1305 24.3958L17.1674 24.4017L17.2266 24.451L17.2984 24.5603L17.3686 24.5501L17.4131 24.5715L17.6281 24.7659L17.6769 24.7905L17.6796 24.792L17.7147 24.8096L17.7584 24.8537L17.826 24.8088L17.8335 24.808L17.9071 24.8015L17.9393 24.8234L18.0013 24.8652L18.0827 24.8642L18.2592 24.9183L18.3364 24.9381L18.4917 25.0346L18.5577 25.0754L18.5967 25.1071L18.6486 25.1494L18.7523 25.194L18.8412 25.2153L18.8893 25.2267L18.9258 25.2407L18.9267 25.2385H18.9272L18.9263 25.2408L19.1189 25.3145L19.2232 25.3388L19.3196 25.3744L19.3899 25.3999L19.4414 25.4007L19.5143 25.3394L19.5848 25.3353L19.6435 25.3499L19.7007 25.3403L19.7912 25.2845L19.8089 25.2583L19.8731 25.2278L20.0897 25.2009L20.153 25.2214L20.3155 25.1507L20.4244 25.181L20.5207 25.1468L20.7313 25.1936L20.7873 25.233L20.8499 25.3046L20.8575 25.3049L20.9272 25.3063L20.898 25.3548L20.99 25.4512L21.073 25.5768L21.0786 25.5933L21.139 25.7706L21.1839 25.8334L21.2153 25.921L21.2168 25.9781L21.168 26.0154L21.16 26.0366L21.1572 26.0445L21.1671 26.0684L21.1856 26.0583L21.2206 26.0389L21.2634 26.0322L21.3386 26.0403L21.3883 26.0455L21.4668 26.0065L21.5188 25.9806L21.6024 26.0166L21.6942 26.0156L21.7327 26.0328L21.8421 26.0822L21.8978 26.0875L21.9184 26.074L21.9315 26.0428L21.9247 26.0063L21.8828 25.9583L21.7906 25.8512L21.7528 25.7962L21.7241 25.7165L21.7152 25.6147L21.7088 25.546L21.7203 25.4557L21.7451 25.4235L21.7633 25.3518H21.7636L21.7683 25.333L21.8195 25.265L21.9552 25.1778L22.101 25.0473L22.2162 24.9713L22.335 24.9199L22.3382 24.9053L22.3514 24.9106L22.6535 24.8079L22.6585 24.8073L22.7931 24.7839L23.7011 24.8479L23.7348 24.8377V24.8375L23.765 24.7526L23.7813 24.7368L23.7922 24.7266L23.8921 24.6826L23.9387 24.6759L24.0683 24.7079L24.1214 24.721L24.2063 24.6734L24.2666 24.6744L24.3911 24.6064L24.468 24.6084L24.4972 24.5967L24.647 24.489L24.7913 24.4476L24.8289 24.4277L24.8421 24.4204L24.99 24.3422L25.084 24.2701L25.1651 24.227L25.254 24.204L25.4864 24.1877L25.5332 24.1098L25.6332 24.0964L25.6936 24.0283L25.7628 24.0002L25.8123 23.9289L25.8538 23.8691L25.9118 23.8355L26.0976 23.8238L26.3179 23.8511L26.347 23.8335L26.3968 23.6558L26.4489 23.6225L26.5892 23.418L26.5897 23.3435V23.2812L26.6128 23.1926L26.5971 23.0326L26.6157 22.8706L26.7029 22.6648L26.7798 22.5817L26.9037 22.4979L26.9667 22.4705L27.0559 22.4555V22.4555L27.069 22.4533L27.0917 22.4494L27.399 22.4451C27.4033 22.442 27.5108 22.4436 27.5108 22.4436L27.6132 22.4422L27.8725 22.4883L27.891 22.4915L27.9784 22.5199L28.0795 22.5985L28.1866 22.703L28.2066 22.7225L28.2759 22.7517L28.2968 22.7608L28.3541 22.7517L28.4356 22.7092L28.4971 22.6572L28.5809 22.6114L28.5829 22.6085L28.6301 22.5375L28.6315 22.5361L28.6326 22.5363V22.5359H28.6318L28.6504 22.5077L28.8124 22.4445L29.003 22.4336L29.0244 22.422L29.0363 22.4156L29.0867 22.3565L29.1339 22.3561L29.2481 22.3974L29.3283 22.3815L29.392 22.407L29.4416 22.4011L29.5351 22.3902L29.6354 22.4608L29.6939 22.4681L29.9001 22.5887L29.9108 22.5904L29.9163 22.5914L29.9281 22.5934L29.9526 22.5861L29.989 22.5756L29.9938 22.5742L29.9984 22.5805L30.0218 22.6136L30.054 22.6182L30.092 22.5674L30.0769 22.5444L30.0712 22.536L29.9975 22.521L29.9314 22.4081L29.9944 22.3403L29.8956 22.2191L29.8792 22.199L29.8736 22.1905L29.8395 22.1386L29.6665 21.875L29.4413 21.6952L29.3624 21.6321L29.3619 21.6317L29.3342 21.6098L29.214 21.4875L29.1281 21.3734L29.1168 21.3489L29.0991 21.3102L29.0476 21.198L28.9579 21.1288L28.8848 21.049L28.8811 21.0443L28.7303 20.8393L28.7055 20.8049L28.6699 20.7843L28.5946 20.7838L28.5873 20.7765L28.5831 20.7721L28.5856 20.7694L28.6217 20.7335L28.662 20.7234L28.6793 20.6837L28.6025 20.4614L28.602 20.4537L28.5963 20.3826L28.6589 20.06L28.6669 20.0206L28.7736 19.8035L28.8397 19.7494L28.9119 19.6076L28.9738 19.5169L29.033 19.4593L29.0434 19.4532L29.1503 19.3884L29.2401 19.3758L29.3256 19.3637L29.475 19.4098L29.6172 19.407L29.6449 19.4041L29.7094 19.3968L29.8154 19.3634L29.8655 19.3325L29.8915 19.2926L29.9457 19.1109L29.9631 19.0531L29.9965 18.9903L30.1898 18.7677L30.336 18.6325L30.6646 18.3916L30.8255 18.2954L30.9076 18.2463L31.641 17.9204L31.8316 17.7272L31.9309 17.6267L32.1065 17.5089L32.3121 17.4247L32.4889 17.2847L32.5276 17.236L32.5762 17.0794L32.6168 17.0696L32.6532 16.9903L32.6637 16.9678L32.808 16.8661L32.8243 16.858L33.385 16.577L33.4665 16.5882L33.5102 16.5229L33.6734 16.4955L33.7034 16.4904L33.7435 16.4703L33.7777 16.412V16.4005L33.7824 16.2448L33.8172 16.2027L33.8362 16.1001L33.8541 16.0764L33.8728 16.0518L33.919 16.0193L33.911 16L33.9121 16.0011Z" fill="#D57800"/>
</g>
</g>
<rect x="12" y="14" width="24.9531" height="18.7148" fill="url(#paint0_linear_307_199)" style="mix-blend-mode:overlay"/>
</g>
<rect x="12.3093" y="14.3093" width="24.3345" height="18.0963" rx="0.927816" stroke="black" stroke-opacity="0.1" stroke-width="0.618544" style="mix-blend-mode:multiply"/>
</g>
<path d="M56.4964 21.326H54.1058C54.0376 20.9339 53.9119 20.5866 53.7287 20.2841C53.5455 19.9773 53.3175 19.7173 53.0447 19.5043C52.772 19.2912 52.4609 19.1314 52.1115 19.0249C51.7663 18.9141 51.3935 18.8587 50.9929 18.8587C50.2813 18.8587 49.6506 19.0376 49.1009 19.3956C48.5511 19.7493 48.1207 20.2692 47.8097 20.9553C47.4986 21.6371 47.343 22.4702 47.343 23.4545C47.343 24.456 47.4986 25.2997 47.8097 25.9858C48.125 26.6676 48.5554 27.1832 49.1009 27.5327C49.6506 27.8778 50.2791 28.0504 50.9865 28.0504C51.3786 28.0504 51.745 27.9993 52.0859 27.897C52.4311 27.7905 52.7401 27.6349 53.0128 27.4304C53.2898 27.2259 53.522 26.9744 53.7095 26.6761C53.9013 26.3778 54.0334 26.0369 54.1058 25.6534L56.4964 25.6662C56.407 26.2884 56.2131 26.8722 55.9148 27.4176C55.6207 27.9631 55.2351 28.4446 54.7578 28.8622C54.2805 29.2756 53.7223 29.5994 53.0831 29.8338C52.4439 30.0639 51.7344 30.179 50.9545 30.179C49.804 30.179 48.777 29.9126 47.8736 29.38C46.9702 28.8473 46.2585 28.0781 45.7386 27.0724C45.2188 26.0668 44.9588 24.8608 44.9588 23.4545C44.9588 22.044 45.2209 20.8381 45.745 19.8366C46.2692 18.831 46.983 18.0618 47.8864 17.5291C48.7898 16.9964 49.8125 16.7301 50.9545 16.7301C51.6832 16.7301 52.3608 16.8324 52.9872 17.0369C53.6136 17.2415 54.1719 17.5419 54.6619 17.9382C55.152 18.3303 55.5547 18.8118 55.87 19.3828C56.1896 19.9496 56.3984 20.5973 56.4964 21.326ZM60.092 33.6818C59.7766 33.6818 59.4847 33.6563 59.2163 33.6051C58.9521 33.5582 58.7411 33.5028 58.5835 33.4389L59.1204 31.6364C59.457 31.7344 59.7575 31.7813 60.0217 31.777C60.2859 31.7727 60.5181 31.6896 60.7184 31.5277C60.9229 31.37 61.0955 31.1058 61.2362 30.7351L61.4343 30.2045L57.8739 20.1818H60.3285L62.5913 27.5966H62.6935L64.9627 20.1818H67.4237L63.4925 31.1889C63.3093 31.7088 63.0664 32.1541 62.7638 32.5249C62.4613 32.8999 62.0906 33.1854 61.6516 33.3814C61.217 33.5817 60.6971 33.6818 60.092 33.6818ZM69.0249 33.6818V20.1818H71.3004V21.8054H71.4347C71.554 21.5668 71.7223 21.3132 71.9396 21.0447C72.157 20.772 72.451 20.5398 72.8217 20.348C73.1925 20.152 73.6655 20.054 74.2408 20.054C74.9993 20.054 75.6832 20.2479 76.2926 20.6357C76.9063 21.0192 77.392 21.5881 77.75 22.3423C78.1122 23.0923 78.2933 24.0128 78.2933 25.1037C78.2933 26.1818 78.1165 27.098 77.7628 27.8523C77.4091 28.6065 76.9276 29.1818 76.3182 29.5781C75.7088 29.9744 75.0185 30.1726 74.2472 30.1726C73.6847 30.1726 73.218 30.0788 72.8473 29.8913C72.4766 29.7038 72.1783 29.478 71.9524 29.2138C71.7308 28.9453 71.5582 28.6918 71.4347 28.4531H71.3388V33.6818H69.0249ZM71.294 25.0909C71.294 25.7259 71.3835 26.282 71.5625 26.7592C71.7457 27.2365 72.0078 27.6094 72.3487 27.8778C72.6939 28.142 73.1115 28.2741 73.6016 28.2741C74.1129 28.2741 74.5412 28.1378 74.8864 27.8651C75.2315 27.5881 75.4915 27.2109 75.6662 26.7337C75.8452 26.2521 75.9347 25.7045 75.9347 25.0909C75.9347 24.4815 75.8473 23.9403 75.6726 23.4673C75.4979 22.9943 75.2379 22.6236 74.8928 22.3551C74.5476 22.0866 74.1172 21.9524 73.6016 21.9524C73.1072 21.9524 72.6875 22.0824 72.3423 22.3423C71.9972 22.6023 71.7351 22.9666 71.5561 23.4354C71.3814 23.9041 71.294 24.456 71.294 25.0909ZM80.2749 30V20.1818H82.5185V21.8182H82.6207C82.7997 21.2514 83.1065 20.8146 83.5412 20.5078C83.9801 20.1967 84.4808 20.0412 85.0433 20.0412C85.1712 20.0412 85.3139 20.0476 85.4716 20.0604C85.6335 20.0689 85.7678 20.0838 85.8743 20.1051V22.2337C85.7763 22.1996 85.6207 22.1697 85.4077 22.1442C85.1989 22.1143 84.9964 22.0994 84.8004 22.0994C84.3786 22.0994 83.9993 22.1911 83.6626 22.3743C83.3303 22.5533 83.0682 22.8026 82.8764 23.1222C82.6847 23.4418 82.5888 23.8104 82.5888 24.228V30H80.2749ZM93.6694 25.8707V20.1818H95.9833V30H93.7397V28.255H93.6374C93.4158 28.8047 93.0515 29.2543 92.5444 29.6037C92.0415 29.9531 91.4215 30.1278 90.6843 30.1278C90.0408 30.1278 89.4719 29.9851 88.9776 29.6996C88.4876 29.4098 88.104 28.9901 87.8271 28.4403C87.5501 27.8864 87.4116 27.2173 87.4116 26.4332V20.1818H89.7255V26.0753C89.7255 26.6974 89.896 27.1918 90.2369 27.5582C90.5778 27.9247 91.0252 28.108 91.5792 28.108C91.9201 28.108 92.2504 28.0249 92.57 27.8587C92.8896 27.6925 93.1516 27.4453 93.3562 27.1172C93.565 26.7848 93.6694 26.3693 93.6694 25.8707ZM106.123 22.777L104.013 23.0071C103.954 22.794 103.849 22.5938 103.7 22.4062C103.555 22.2188 103.359 22.0675 103.112 21.9524C102.865 21.8374 102.562 21.7798 102.204 21.7798C101.723 21.7798 101.318 21.8842 100.99 22.093C100.666 22.3018 100.506 22.5724 100.51 22.9048C100.506 23.1903 100.611 23.4226 100.824 23.6016C101.041 23.7805 101.399 23.9276 101.898 24.0426L103.572 24.4006C104.501 24.6009 105.192 24.9183 105.643 25.353C106.099 25.7876 106.329 26.3565 106.334 27.0597C106.329 27.6776 106.148 28.223 105.79 28.696C105.437 29.1648 104.944 29.5312 104.314 29.7955C103.683 30.0597 102.959 30.1918 102.14 30.1918C100.939 30.1918 99.9714 29.9403 99.2385 29.4375C98.5055 28.9304 98.0687 28.2251 97.9281 27.3217L100.184 27.1044C100.287 27.5476 100.504 27.8821 100.836 28.108C101.169 28.3338 101.601 28.4467 102.134 28.4467C102.684 28.4467 103.125 28.3338 103.457 28.108C103.794 27.8821 103.962 27.603 103.962 27.2706C103.962 26.9893 103.854 26.7571 103.636 26.5739C103.423 26.3906 103.091 26.25 102.639 26.152L100.964 25.8004C100.023 25.6044 99.3258 25.2741 98.8741 24.8097C98.4224 24.3409 98.1987 23.7486 98.2029 23.0327C98.1987 22.4276 98.3627 21.9034 98.6951 21.4602C99.0318 21.0128 99.4984 20.6676 100.095 20.4247C100.696 20.1776 101.388 20.054 102.172 20.054C103.323 20.054 104.229 20.299 104.889 20.7891C105.554 21.2791 105.965 21.9418 106.123 22.777Z" fill="#1C1C1E"/>
<defs>
<filter id="filter0_d_307_199" x="10.1444" y="13.3815" width="28.6644" height="22.4261" filterUnits="userSpaceOnUse" color-interpolation-filters="sRGB">
<feFlood flood-opacity="0" result="BackgroundImageFix"/>
<feColorMatrix in="SourceAlpha" type="matrix" values="0 0 0 0 0 0 0 0 0 0 0 0 0 0 0 0 0 0 127 0" result="hardAlpha"/>
<feOffset dy="1.23709"/>
<feGaussianBlur stdDeviation="0.927816"/>
<feColorMatrix type="matrix" values="0 0 0 0 0 0 0 0 0 0 0 0 0 0 0 0 0 0 0.1 0"/>
<feBlend mode="normal" in2="BackgroundImageFix" result="effect1_dropShadow_307_199"/>
<feBlend mode="normal" in="SourceGraphic" in2="effect1_dropShadow_307_199" result="shape"/>
</filter>
<linearGradient id="paint0_linear_307_199" x1="24.4765" y1="14" x2="24.4765" y2="32.7148" gradientUnits="userSpaceOnUse">
<stop stop-color="white" stop-opacity="0.7"/>
<stop offset="1" stop-opacity="0.3"/>
</linearGradient>
<clipPath id="clip0_307_199">
<rect x="12" y="14" width="24.9531" height="18.7148" rx="1.23709" fill="white"/>
</clipPath>
</defs>
</svg>
