<svg width="120" height="56" viewBox="0 0 120 56" fill="none" xmlns="http://www.w3.org/2000/svg">
<path d="M1 7.29344C1 3.81767 3.81767 1 7.29345 1H112.707C116.182 1 119 3.81767 119 7.29345V39.9316C119 43.4074 116.182 46.2251 112.707 46.2251H55.7589C53.3488 46.2251 51.0578 47.2735 49.4825 49.0975L45.4652 53.7487C45.1368 54.1289 44.5474 54.1289 44.219 53.7487L40.2018 49.0975C38.6264 47.2735 36.3354 46.2251 33.9253 46.2251H7.29344C3.81767 46.2251 1 43.4074 1 39.9316V7.29344Z" fill="white" stroke="#B6C3CE" stroke-width="2"/>
<g filter="url(#filter0_d_306_166)">
<g clip-path="url(#clip0_306_166)">
<path fill-rule="evenodd" clip-rule="evenodd" d="M17 13.998V32.7129H41.9531V13.998H17Z" fill="#009933"/>
<mask id="mask0_306_166" style="mask-type:luminance" maskUnits="userSpaceOnUse" x="17" y="13" width="25" height="20">
<path fill-rule="evenodd" clip-rule="evenodd" d="M17 13.998V32.7129H41.9531V13.998H17Z" fill="white"/>
</mask>
<g mask="url(#mask0_306_166)">
<g filter="url(#filter1_d_306_166)">
<path fill-rule="evenodd" clip-rule="evenodd" d="M29.4195 16.8864L38.9343 23.5173L29.29 29.7273L19.9701 23.3887L29.4195 16.8864Z" fill="#FFD221"/>
<path fill-rule="evenodd" clip-rule="evenodd" d="M29.4195 16.8864L38.9343 23.5173L29.29 29.7273L19.9701 23.3887L29.4195 16.8864Z" fill="url(#paint0_linear_306_166)"/>
</g>
<path fill-rule="evenodd" clip-rule="evenodd" d="M29.4766 27.4101C31.6299 27.4101 33.3755 25.6645 33.3755 23.5112C33.3755 21.3579 31.6299 19.6123 29.4766 19.6123C27.3232 19.6123 25.5776 21.3579 25.5776 23.5112C25.5776 25.6645 27.3232 27.4101 29.4766 27.4101Z" fill="#2E42A5"/>
<mask id="mask1_306_166" style="mask-type:luminance" maskUnits="userSpaceOnUse" x="25" y="19" width="9" height="9">
<path fill-rule="evenodd" clip-rule="evenodd" d="M29.4766 27.4101C31.6299 27.4101 33.3755 25.6645 33.3755 23.5112C33.3755 21.3579 31.6299 19.6123 29.4766 19.6123C27.3232 19.6123 25.5776 21.3579 25.5776 23.5112C25.5776 25.6645 27.3232 27.4101 29.4766 27.4101Z" fill="white"/>
</mask>
<g mask="url(#mask1_306_166)">
<path fill-rule="evenodd" clip-rule="evenodd" d="M28.2128 25.3595L28.0387 25.4511L28.0719 25.2571L27.931 25.1198L28.1257 25.0915L28.2128 24.915L28.2999 25.0915L28.4946 25.1198L28.3537 25.2571L28.387 25.4511L28.2128 25.3595Z" fill="#F7FCFF"/>
<path fill-rule="evenodd" clip-rule="evenodd" d="M29.7729 25.3595L29.5987 25.4511L29.632 25.2571L29.4911 25.1198L29.6858 25.0915L29.7729 24.915L29.86 25.0915L30.0547 25.1198L29.9138 25.2571L29.9471 25.4511L29.7729 25.3595Z" fill="#F7FCFF"/>
<path fill-rule="evenodd" clip-rule="evenodd" d="M29.7729 26.2951L29.5987 26.3866L29.632 26.1927L29.4911 26.0553L29.6858 26.027L29.7729 25.8506L29.86 26.027L30.0547 26.0553L29.9138 26.1927L29.9471 26.3866L29.7729 26.2951Z" fill="#F7FCFF"/>
<path fill-rule="evenodd" clip-rule="evenodd" d="M28.9931 23.0206L28.8189 23.1122L28.8522 22.9183L28.7113 22.7809L28.906 22.7526L28.9931 22.5762L29.0802 22.7526L29.2749 22.7809L29.134 22.9183L29.1673 23.1122L28.9931 23.0206Z" fill="#F7FCFF"/>
<path fill-rule="evenodd" clip-rule="evenodd" d="M28.9931 24.5802L28.8189 24.6718L28.8522 24.4778L28.7113 24.3405L28.906 24.3122L28.9931 24.1357L29.0802 24.3122L29.2749 24.3405L29.134 24.4778L29.1673 24.6718L28.9931 24.5802Z" fill="#F7FCFF"/>
<path fill-rule="evenodd" clip-rule="evenodd" d="M27.9023 23.7999L27.7281 23.8915L27.7614 23.6976L27.6205 23.5602L27.8152 23.5319L27.9023 23.3555L27.9894 23.5319L28.1841 23.5602L28.0432 23.6976L28.0764 23.8915L27.9023 23.7999Z" fill="#F7FCFF"/>
<path fill-rule="evenodd" clip-rule="evenodd" d="M26.809 24.4249L26.6348 24.5165L26.6681 24.3226L26.5272 24.1852L26.7219 24.1569L26.809 23.9805L26.8961 24.1569L27.0908 24.1852L26.9499 24.3226L26.9832 24.5165L26.809 24.4249Z" fill="#F7FCFF"/>
<path fill-rule="evenodd" clip-rule="evenodd" d="M30.3969 21.7726L30.2227 21.8642L30.256 21.6702L30.1151 21.5329L30.3098 21.5046L30.3969 21.3281L30.484 21.5046L30.6787 21.5329L30.5378 21.6702L30.5711 21.8642L30.3969 21.7726Z" fill="#F7FCFF"/>
<path d="M24.7397 22.5727L24.857 21.0176C28.5984 21.2997 31.5513 22.5299 33.6787 24.7181L32.5605 25.8052C30.7166 23.9086 28.1221 22.8278 24.7397 22.5727Z" fill="#F7FCFF"/>
<path d="M26.582 22.2657L26.6222 21.8779C29.034 22.1278 31.1027 23.0516 32.8221 24.6473L32.5568 24.9331C30.9001 23.3954 28.9105 22.5069 26.582 22.2657Z" fill="#009933"/>
</g>
<mask id="mask2_306_166" style="mask-type:luminance" maskUnits="userSpaceOnUse" x="17" y="13" width="25" height="20">
<rect x="17" y="13.998" width="24.9531" height="18.7148" fill="white"/>
</mask>
<g mask="url(#mask2_306_166)">
<path fill-rule="evenodd" clip-rule="evenodd" d="M17 24.915H41.9531V32.7129H17V24.915Z" fill="#AB0403"/>
<path fill-rule="evenodd" clip-rule="evenodd" d="M17 20.2363H41.9531V24.915H17V20.2363Z" fill="#F7FCFF"/>
<path fill-rule="evenodd" clip-rule="evenodd" d="M17 13.998H41.9531V21.7959H17V13.998Z" fill="#AB0403"/>
</g>
</g>
<rect x="17" y="14" width="24.9531" height="18.7148" fill="url(#paint1_linear_306_166)" style="mix-blend-mode:overlay"/>
</g>
<rect x="17.3093" y="14.3093" width="24.3345" height="18.0963" rx="0.927816" stroke="black" stroke-opacity="0.1" stroke-width="0.618544" style="mix-blend-mode:multiply"/>
</g>
<path d="M50.2912 30V16.9091H52.6626V28.0121H58.4283V30H50.2912ZM63.2095 30.1982C62.5874 30.1982 62.027 30.0874 61.5284 29.8658C61.0341 29.6399 60.642 29.3075 60.3523 28.8686C60.0668 28.4297 59.924 27.8885 59.924 27.245C59.924 26.6911 60.0263 26.233 60.2308 25.8707C60.4354 25.5085 60.7145 25.2188 61.0682 25.0014C61.4219 24.7841 61.8203 24.62 62.2635 24.5092C62.7109 24.3942 63.1733 24.3111 63.6506 24.2599C64.2259 24.2003 64.6925 24.147 65.0504 24.1001C65.4084 24.049 65.6683 23.9723 65.8303 23.87C65.9964 23.7635 66.0795 23.5994 66.0795 23.3778V23.3395C66.0795 22.858 65.9368 22.4851 65.6513 22.2209C65.3658 21.9567 64.9545 21.8246 64.4176 21.8246C63.8509 21.8246 63.4013 21.9482 63.0689 22.1953C62.7408 22.4425 62.5192 22.7344 62.4041 23.071L60.2436 22.7642C60.4141 22.1676 60.6953 21.669 61.0874 21.2685C61.4794 20.8636 61.9588 20.5611 62.5256 20.3608C63.0923 20.1562 63.7188 20.054 64.4048 20.054C64.8778 20.054 65.3487 20.1094 65.8175 20.2202C66.2862 20.331 66.7145 20.5142 67.1023 20.7699C67.4901 21.0213 67.8011 21.3643 68.0355 21.799C68.2741 22.2337 68.3935 22.777 68.3935 23.429V30H66.169V28.6513H66.0923C65.9517 28.924 65.7536 29.1797 65.4979 29.4183C65.2464 29.6527 64.929 29.8423 64.5455 29.9872C64.1662 30.1278 63.7209 30.1982 63.2095 30.1982ZM63.8104 28.4979C64.2749 28.4979 64.6776 28.4062 65.0185 28.223C65.3594 28.0355 65.6214 27.7884 65.8047 27.4815C65.9922 27.1747 66.0859 26.8402 66.0859 26.478V25.321C66.0135 25.3807 65.8899 25.4361 65.7152 25.4872C65.5447 25.5384 65.353 25.5831 65.1399 25.6214C64.9268 25.6598 64.7159 25.6939 64.5071 25.7237C64.2983 25.7536 64.1172 25.7791 63.9638 25.8004C63.6186 25.8473 63.3097 25.924 63.0369 26.0305C62.7642 26.1371 62.549 26.2862 62.3913 26.478C62.2337 26.6655 62.1548 26.9084 62.1548 27.2067C62.1548 27.6328 62.3104 27.9545 62.6214 28.1719C62.9325 28.3892 63.3288 28.4979 63.8104 28.4979ZM75.6229 20.1818V21.9716H69.9787V20.1818H75.6229ZM71.3722 17.8295H73.6861V27.0469C73.6861 27.358 73.733 27.5966 73.8267 27.7628C73.9247 27.9247 74.0526 28.0355 74.2102 28.0952C74.3679 28.1548 74.5426 28.1847 74.7344 28.1847C74.8793 28.1847 75.0114 28.174 75.1307 28.1527C75.2543 28.1314 75.348 28.1122 75.4119 28.0952L75.8018 29.9041C75.6783 29.9467 75.5014 29.9936 75.2713 30.0447C75.0455 30.0959 74.7685 30.1257 74.4403 30.1342C73.8608 30.1513 73.3388 30.0639 72.8743 29.8722C72.4098 29.6761 72.0412 29.3736 71.7685 28.9645C71.5 28.5554 71.3679 28.044 71.3722 27.4304V17.8295ZM86.3279 20.1818L82.8315 30H80.2747L76.7782 20.1818H79.2456L81.502 27.4751H81.6042L83.867 20.1818H86.3279ZM87.9292 30V20.1818H90.2431V30H87.9292ZM89.0925 18.7884C88.726 18.7884 88.4107 18.6669 88.1465 18.424C87.8823 18.1768 87.7502 17.8807 87.7502 17.5355C87.7502 17.1861 87.8823 16.8899 88.1465 16.647C88.4107 16.3999 88.726 16.2763 89.0925 16.2763C89.4632 16.2763 89.7786 16.3999 90.0385 16.647C90.3027 16.8899 90.4348 17.1861 90.4348 17.5355C90.4348 17.8807 90.3027 18.1768 90.0385 18.424C89.7786 18.6669 89.4632 18.7884 89.0925 18.7884ZM95.4478 30.1982C94.8256 30.1982 94.2653 30.0874 93.7667 29.8658C93.2724 29.6399 92.8803 29.3075 92.5906 28.8686C92.305 28.4297 92.1623 27.8885 92.1623 27.245C92.1623 26.6911 92.2646 26.233 92.4691 25.8707C92.6737 25.5085 92.9528 25.2188 93.3065 25.0014C93.6602 24.7841 94.0586 24.62 94.5018 24.5092C94.9492 24.3942 95.4116 24.3111 95.8888 24.2599C96.4641 24.2003 96.9308 24.147 97.2887 24.1001C97.6467 24.049 97.9066 23.9723 98.0685 23.87C98.2347 23.7635 98.3178 23.5994 98.3178 23.3778V23.3395C98.3178 22.858 98.1751 22.4851 97.8896 22.2209C97.604 21.9567 97.1928 21.8246 96.6559 21.8246C96.0891 21.8246 95.6396 21.9482 95.3072 22.1953C94.979 22.4425 94.7575 22.7344 94.6424 23.071L92.4819 22.7642C92.6523 22.1676 92.9336 21.669 93.3256 21.2685C93.7177 20.8636 94.1971 20.5611 94.7638 20.3608C95.3306 20.1562 95.957 20.054 96.6431 20.054C97.1161 20.054 97.587 20.1094 98.0558 20.2202C98.5245 20.331 98.9528 20.5142 99.3406 20.7699C99.7283 21.0213 100.039 21.3643 100.274 21.799C100.512 22.2337 100.632 22.777 100.632 23.429V30H98.4073V28.6513H98.3306C98.19 28.924 97.9918 29.1797 97.7362 29.4183C97.4847 29.6527 97.1673 29.8423 96.7837 29.9872C96.4045 30.1278 95.9592 30.1982 95.4478 30.1982ZM96.0487 28.4979C96.5131 28.4979 96.9158 28.4062 97.2567 28.223C97.5977 28.0355 97.8597 27.7884 98.043 27.4815C98.2305 27.1747 98.3242 26.8402 98.3242 26.478V25.321C98.2518 25.3807 98.1282 25.4361 97.9535 25.4872C97.783 25.5384 97.5913 25.5831 97.3782 25.6214C97.1651 25.6598 96.9542 25.6939 96.7454 25.7237C96.5366 25.7536 96.3555 25.7791 96.2021 25.8004C95.8569 25.8473 95.5479 25.924 95.2752 26.0305C95.0025 26.1371 94.7873 26.2862 94.6296 26.478C94.4719 26.6655 94.3931 26.9084 94.3931 27.2067C94.3931 27.6328 94.5487 27.9545 94.8597 28.1719C95.1708 28.3892 95.5671 28.4979 96.0487 28.4979Z" fill="#1C1C1E"/>
<defs>
<filter id="filter0_d_306_166" x="15.1444" y="13.3815" width="28.6644" height="22.4261" filterUnits="userSpaceOnUse" color-interpolation-filters="sRGB">
<feFlood flood-opacity="0" result="BackgroundImageFix"/>
<feColorMatrix in="SourceAlpha" type="matrix" values="0 0 0 0 0 0 0 0 0 0 0 0 0 0 0 0 0 0 127 0" result="hardAlpha"/>
<feOffset dy="1.23709"/>
<feGaussianBlur stdDeviation="0.927816"/>
<feColorMatrix type="matrix" values="0 0 0 0 0 0 0 0 0 0 0 0 0 0 0 0 0 0 0.1 0"/>
<feBlend mode="normal" in2="BackgroundImageFix" result="effect1_dropShadow_306_166"/>
<feBlend mode="normal" in="SourceGraphic" in2="effect1_dropShadow_306_166" result="shape"/>
</filter>
<filter id="filter1_d_306_166" x="19.9702" y="16.8867" width="18.9639" height="12.8408" filterUnits="userSpaceOnUse" color-interpolation-filters="sRGB">
<feFlood flood-opacity="0" result="BackgroundImageFix"/>
<feColorMatrix in="SourceAlpha" type="matrix" values="0 0 0 0 0 0 0 0 0 0 0 0 0 0 0 0 0 0 127 0" result="hardAlpha"/>
<feOffset/>
<feColorMatrix type="matrix" values="0 0 0 0 0.0313726 0 0 0 0 0.368627 0 0 0 0 0 0 0 0 0.28 0"/>
<feBlend mode="normal" in2="BackgroundImageFix" result="effect1_dropShadow_306_166"/>
<feBlend mode="normal" in="SourceGraphic" in2="effect1_dropShadow_306_166" result="shape"/>
</filter>
<linearGradient id="paint0_linear_306_166" x1="41.9531" y1="32.7129" x2="41.9531" y2="13.998" gradientUnits="userSpaceOnUse">
<stop stop-color="#FFC600"/>
<stop offset="1" stop-color="#FFDE42"/>
</linearGradient>
<linearGradient id="paint1_linear_306_166" x1="29.4765" y1="14" x2="29.4765" y2="32.7148" gradientUnits="userSpaceOnUse">
<stop stop-color="white" stop-opacity="0.7"/>
<stop offset="1" stop-opacity="0.3"/>
</linearGradient>
<clipPath id="clip0_306_166">
<rect x="17" y="14" width="24.9531" height="18.7148" rx="1.23709" fill="white"/>
</clipPath>
</defs>
</svg>
