<svg width="70" height="114" viewBox="0 0 70 114" fill="none" xmlns="http://www.w3.org/2000/svg">
<path d="M57.7284 96.7667L40.1963 106.891L22.6641 96.7667L40.1963 86.6548L57.7284 96.7667Z" fill="white"/>
<path d="M57.7294 0.460741L40.1973 0V96.7665H57.7294V0.460741Z" fill="url(#paint0_linear_347_1860)"/>
<path d="M40.1963 0L22.6641 2.3158V96.7665H40.1963V0Z" fill="url(#paint1_linear_347_1860)"/>
<path d="M67.4031 96.7663L40.1955 112.48L13 96.7663L40.1955 81.0649L67.4031 96.7663Z" stroke="url(#paint2_linear_347_1860)" stroke-width="2.46754" stroke-miterlimit="10"/>
<path fill-rule="evenodd" clip-rule="evenodd" d="M37.3547 99.9351L33.2129 97.5407V86.8236L41.6636 83.8657L37.3547 99.9351Z" fill="#CFD3EE"/>
<path fill-rule="evenodd" clip-rule="evenodd" d="M0 68.5413V95.3439H0.0302214V95.5358C0.0853267 96.8957 0.775029 97.964 1.78826 98.4831L8.09159 102.125L8.30845 96.4833L23.6615 87.6184L28.4414 90.3648L28.6583 84.7423C28.6938 84.718 28.7271 84.6906 28.7579 84.6605L47.8314 73.6519V73.6306C49.7654 72.9356 51.0399 70.8504 50.9244 68.7742V47.3845L52.3251 48.1951L56.2358 43.4684L49.7156 39.7106C49.3363 39.4042 48.892 39.1886 48.4167 39.0801C47.9413 38.9717 47.4475 38.9733 46.9728 39.0849C46.5355 39.1779 46.1156 39.3393 45.7285 39.5631V39.5329L25.3875 51.2934L23.1709 52.5733C22.9131 52.6928 22.6668 52.8356 22.435 52.9999L2.89392 64.3C2.07421 64.6765 1.37401 65.2714 0.870112 66.0196C0.366216 66.7678 0.0780861 67.6402 0.0373279 68.5413H0Z" fill="#CFD3EE"/>
<path fill-rule="evenodd" clip-rule="evenodd" d="M6.50586 72.2901V99.0926H6.53252C6.53252 99.153 6.53252 99.2188 6.53252 99.2792C6.61962 101.491 8.38833 102.932 10.4841 102.498C10.9846 102.391 11.4611 102.193 11.8902 101.914L33.9803 89.1612V89.1505L34.0301 89.1203C34.4738 88.9539 34.8861 88.7135 35.2495 88.4093L54.3213 77.4006V77.3793C56.2553 76.6789 57.5245 74.5992 57.416 72.5194V46.5968C57.4311 46.4147 57.4365 46.2319 57.432 46.0493C57.3449 43.8362 55.5762 42.3946 53.4804 42.8336C53.0426 42.9248 52.6224 43.0863 52.2361 43.3118L52.2255 43.2816L31.8898 55.0421L29.6714 56.3202C29.4136 56.4394 29.1678 56.5828 28.9373 56.7486L9.38911 68.0487C8.56976 68.4257 7.86989 69.0208 7.36606 69.7688C6.86223 70.5169 6.57387 71.3891 6.53252 72.2901H6.50586Z" fill="#F2F3F5"/>
<path fill-rule="evenodd" clip-rule="evenodd" d="M48.1719 80.0317L37.3535 99.9354V82.9292L48.1719 80.0317Z" fill="#F2F3F5"/>
<path fill-rule="evenodd" clip-rule="evenodd" d="M20.0674 75.9893C22.0867 75.2036 23.7203 76.2009 23.7203 78.2167C23.7203 80.2324 22.0867 82.5095 20.0674 83.2952C18.048 84.0809 16.418 83.0837 16.418 81.0626C16.418 79.0415 18.0516 76.775 20.0674 75.9893ZM45.0798 61.07C47.0956 60.2826 48.7328 61.2816 48.7328 63.2956C48.7328 65.3096 47.0956 67.5849 45.0798 68.3706C43.064 69.1563 41.4269 68.1591 41.4269 66.1433C41.4269 64.1275 43.064 61.8557 45.0798 61.07ZM32.7789 68.6532C34.7947 67.8675 36.4319 68.8648 36.4319 70.8805C36.4319 72.8963 34.7947 75.1681 32.7789 75.9538C30.7631 76.7395 29.126 75.7423 29.126 73.7265C29.126 71.7107 30.7631 69.4389 32.7789 68.6532Z" fill="white"/>
<g filter="url(#filter0_d_347_1860)">
<g clip-path="url(#clip0_347_1860)">
<path fill-rule="evenodd" clip-rule="evenodd" d="M15 67.3999L15 97.7108L50 77.5035L50 47.1926L15 67.3999Z" fill="#009933"/>
<mask id="mask0_347_1860" style="mask-type:luminance" maskUnits="userSpaceOnUse" x="15" y="47" width="35" height="51">
<path fill-rule="evenodd" clip-rule="evenodd" d="M15 67.3999L15 97.7108L50 77.5035L50 47.1926L15 67.3999Z" fill="white"/>
</mask>
<g mask="url(#mask0_347_1860)">
<g filter="url(#filter1_d_347_1860)">
<path fill-rule="evenodd" clip-rule="evenodd" d="M32.4199 62.0201L45.7657 65.0543L32.2384 82.9222L19.166 80.2035L32.4199 62.0201Z" fill="#FFD221"/>
<path fill-rule="evenodd" clip-rule="evenodd" d="M32.4199 62.0201L45.7657 65.0543L32.2384 82.9222L19.166 80.2035L32.4199 62.0201Z" fill="url(#paint3_linear_347_1860)"/>
</g>
<path fill-rule="evenodd" clip-rule="evenodd" d="M32.498 79.0185C35.5184 77.2748 37.9668 73.0339 37.9668 69.5464C37.9668 66.0588 35.5184 64.6452 32.498 66.389C29.4777 68.1328 27.0293 72.3736 27.0293 75.8612C27.0293 79.3487 29.4777 80.7623 32.498 79.0185Z" fill="#2E42A5"/>
<mask id="mask1_347_1860" style="mask-type:luminance" maskUnits="userSpaceOnUse" x="27" y="65" width="11" height="15">
<path fill-rule="evenodd" clip-rule="evenodd" d="M32.498 79.0185C35.5184 77.2748 37.9668 73.0339 37.9668 69.5464C37.9668 66.0588 35.5184 64.6452 32.498 66.389C29.4777 68.1328 27.0293 72.3736 27.0293 75.8612C27.0293 79.3487 29.4777 80.7623 32.498 79.0185Z" fill="white"/>
</mask>
<g mask="url(#mask1_347_1860)">
<path fill-rule="evenodd" clip-rule="evenodd" d="M30.7262 76.7202L30.4819 77.0095L30.5285 76.6685L30.3309 76.5601L30.604 76.3566L30.7262 76.0003L30.8483 76.2155L31.1215 76.1037L30.9238 76.4402L30.9705 76.7274L30.7262 76.7202Z" fill="#F7FCFF"/>
<path fill-rule="evenodd" clip-rule="evenodd" d="M32.9156 75.457L32.6713 75.7463L32.718 75.4053L32.5203 75.2969L32.7935 75.0934L32.9156 74.7371L33.0378 74.9524L33.3109 74.8405L33.1133 75.1771L33.1599 75.4642L32.9156 75.457Z" fill="#F7FCFF"/>
<path fill-rule="evenodd" clip-rule="evenodd" d="M32.9156 76.9716L32.6713 77.261L32.718 76.9199L32.5203 76.8116L32.7935 76.6081L32.9156 76.2517L33.0378 76.467L33.3109 76.3551L33.1133 76.6917L33.1599 76.9789L32.9156 76.9716Z" fill="#F7FCFF"/>
<path fill-rule="evenodd" clip-rule="evenodd" d="M31.8199 72.3002L31.5756 72.5896L31.6223 72.2485L31.4246 72.1402L31.6978 71.9367L31.8199 71.5804L31.9421 71.7956L32.2152 71.6838L32.0176 72.0203L32.0642 72.3075L31.8199 72.3002Z" fill="#F7FCFF"/>
<path fill-rule="evenodd" clip-rule="evenodd" d="M31.8199 74.8266L31.5756 75.116L31.6223 74.7749L31.4246 74.6666L31.6978 74.463L31.8199 74.1067L31.9421 74.322L32.2152 74.2101L32.0176 74.5467L32.0642 74.8339L31.8199 74.8266Z" fill="#F7FCFF"/>
<path fill-rule="evenodd" clip-rule="evenodd" d="M30.2926 74.4462L30.0483 74.7356L30.0949 74.3945L29.8973 74.2862L30.1704 74.0827L30.2926 73.7263L30.4147 73.9416L30.6879 73.8297L30.4902 74.1663L30.5369 74.4535L30.2926 74.4462Z" fill="#F7FCFF"/>
<path fill-rule="evenodd" clip-rule="evenodd" d="M28.7594 76.3437L28.5151 76.633L28.5617 76.292L28.3641 76.1836L28.6372 75.9801L28.7594 75.6238L28.8815 75.8391L29.1547 75.7272L28.957 76.0638L29.0037 76.351L28.7594 76.3437Z" fill="#F7FCFF"/>
<path fill-rule="evenodd" clip-rule="evenodd" d="M33.7906 69.1415L33.5463 69.4309L33.593 69.0898L33.3953 68.9815L33.6685 68.778L33.7906 68.4217L33.9128 68.6369L34.1859 68.5251L33.9883 68.8616L34.0349 69.1488L33.7906 69.1415Z" fill="#F7FCFF"/>
<path d="M25.8574 75.0192L26.0219 72.4055C31.2697 69.8327 35.4116 69.4337 38.3955 71.2551L36.8271 73.9213C34.2408 72.3427 30.6016 72.6932 25.8574 75.0192Z" fill="#F7FCFF"/>
<path d="M28.4414 73.0305L28.4978 72.3698C31.8807 70.8213 34.7823 70.6423 37.1939 71.8345L36.8219 72.5121C34.498 71.3633 31.7074 71.5355 28.4414 73.0305Z" fill="#009933"/>
</g>
<mask id="mask2_347_1860" style="mask-type:luminance" maskUnits="userSpaceOnUse" x="15" y="47" width="35" height="51">
<rect width="40.4145" height="30.3109" transform="matrix(0.866025 -0.5 2.20305e-08 1 15 67.3994)" fill="white"/>
</mask>
<g mask="url(#mask2_347_1860)">
<path fill-rule="evenodd" clip-rule="evenodd" d="M15 85.0796L50 64.8723L50 77.5019L15 97.7091L15 85.0796Z" fill="#AB0403"/>
<path fill-rule="evenodd" clip-rule="evenodd" d="M15 77.5015L50 57.2942L50 64.8719L15 85.0792L15 77.5015Z" fill="#F7FCFF"/>
<path fill-rule="evenodd" clip-rule="evenodd" d="M15 67.3984L50 47.1912L50 59.8207L15 80.028L15 67.3984Z" fill="#AB0403"/>
</g>
</g>
<rect width="40.4145" height="30.3109" transform="matrix(0.866025 -0.5 2.20305e-08 1 15 67.4028)" fill="url(#paint4_linear_347_1860)" style="mix-blend-mode:overlay"/>
</g>
<rect x="0.433795" y="0.250451" width="39.4127" height="29.3091" rx="1.50271" transform="matrix(0.866025 -0.5 2.20305e-08 1 15.0581 67.6207)" stroke="black" stroke-opacity="0.1" stroke-width="1.00181" style="mix-blend-mode:multiply"/>
</g>
<defs>
<filter id="filter0_d_347_1860" x="11.9946" y="46.195" width="41.0108" height="56.5289" filterUnits="userSpaceOnUse" color-interpolation-filters="sRGB">
<feFlood flood-opacity="0" result="BackgroundImageFix"/>
<feColorMatrix in="SourceAlpha" type="matrix" values="0 0 0 0 0 0 0 0 0 0 0 0 0 0 0 0 0 0 127 0" result="hardAlpha"/>
<feOffset dy="2.00361"/>
<feGaussianBlur stdDeviation="1.50271"/>
<feColorMatrix type="matrix" values="0 0 0 0 0 0 0 0 0 0 0 0 0 0 0 0 0 0 0.1 0"/>
<feBlend mode="normal" in2="BackgroundImageFix" result="effect1_dropShadow_347_1860"/>
<feBlend mode="normal" in="SourceGraphic" in2="effect1_dropShadow_347_1860" result="shape"/>
</filter>
<filter id="filter1_d_347_1860" x="19.166" y="62.02" width="26.5996" height="20.9023" filterUnits="userSpaceOnUse" color-interpolation-filters="sRGB">
<feFlood flood-opacity="0" result="BackgroundImageFix"/>
<feColorMatrix in="SourceAlpha" type="matrix" values="0 0 0 0 0 0 0 0 0 0 0 0 0 0 0 0 0 0 127 0" result="hardAlpha"/>
<feOffset/>
<feColorMatrix type="matrix" values="0 0 0 0 0.0313726 0 0 0 0 0.368627 0 0 0 0 0 0 0 0 0.28 0"/>
<feBlend mode="normal" in2="BackgroundImageFix" result="effect1_dropShadow_347_1860"/>
<feBlend mode="normal" in="SourceGraphic" in2="effect1_dropShadow_347_1860" result="shape"/>
</filter>
<linearGradient id="paint0_linear_347_1860" x1="48.9633" y1="4.6801" x2="48.9633" y2="103.823" gradientUnits="userSpaceOnUse">
<stop stop-color="#AB0403" stop-opacity="0"/>
<stop offset="0.541667" stop-color="#AB0403" stop-opacity="0.5"/>
<stop offset="1" stop-color="#AB0403" stop-opacity="0"/>
</linearGradient>
<linearGradient id="paint1_linear_347_1860" x1="31.4302" y1="4.6801" x2="31.4302" y2="103.823" gradientUnits="userSpaceOnUse">
<stop stop-color="#AB0403" stop-opacity="0"/>
<stop offset="0.541667" stop-color="#AB0403" stop-opacity="0.5"/>
<stop offset="1" stop-color="#AB0403" stop-opacity="0"/>
</linearGradient>
<linearGradient id="paint2_linear_347_1860" x1="10.5751" y1="96.7663" x2="69.828" y2="96.7663" gradientUnits="userSpaceOnUse">
<stop stop-color="#2CD4D9" stop-opacity="0"/>
<stop offset="0.58" stop-color="#2CD4D9" stop-opacity="0.5"/>
<stop offset="1" stop-color="#2CD4D9" stop-opacity="0.1"/>
</linearGradient>
<linearGradient id="paint3_linear_347_1860" x1="50" y1="77.503" x2="36.875" y2="54.7699" gradientUnits="userSpaceOnUse">
<stop stop-color="#FFC600"/>
<stop offset="1" stop-color="#FFDE42"/>
</linearGradient>
<linearGradient id="paint4_linear_347_1860" x1="20.2073" y1="0" x2="20.2073" y2="30.3109" gradientUnits="userSpaceOnUse">
<stop stop-color="white" stop-opacity="0.7"/>
<stop offset="1" stop-opacity="0.3"/>
</linearGradient>
<clipPath id="clip0_347_1860">
<rect width="40.4145" height="30.3109" rx="2.00361" transform="matrix(0.866025 -0.5 2.20305e-08 1 15 67.4038)" fill="white"/>
</clipPath>
</defs>
</svg>
