<svg width="445" height="130" viewBox="0 0 445 130" fill="none" xmlns="http://www.w3.org/2000/svg">
<g clip-path="url(#clip0_324_123)">
<mask id="mask0_324_123" style="mask-type:luminance" maskUnits="userSpaceOnUse" x="0" y="0" width="445" height="130">
<path d="M444.04 0H0V129.465H444.04V0Z" fill="white"/>
</mask>
<g mask="url(#mask0_324_123)">
<path fill-rule="evenodd" clip-rule="evenodd" d="M0 116.102H27.1357C29.9381 116.102 32.2298 113.81 32.2298 111.008V63.9914L82.8812 120.404L133.535 63.9914V111.008C133.535 113.81 135.827 116.102 138.629 116.102H165.762V15.3574H142.722C136.063 15.3574 131.1 18.5648 128.419 21.5483L82.8812 72.2627L37.344 21.5483C34.6649 18.5648 29.6991 15.3574 23.0428 15.3574H0V116.102Z" fill="white"/>
<path fill-rule="evenodd" clip-rule="evenodd" d="M304.703 116.103H438.945C441.748 116.103 444.04 113.811 444.04 111.008V84.1772H378.767L443.851 15.4512H309.692C306.892 15.4512 304.598 17.7454 304.598 20.5452V47.3766H369.787L304.703 116.103Z" fill="white"/>
<path fill-rule="evenodd" clip-rule="evenodd" d="M239.143 0C280.11 0 313.32 28.635 313.32 64.7338C313.32 100.83 280.11 129.465 239.143 129.465C198.174 129.465 164.966 100.83 164.966 64.7338C164.966 28.635 198.174 0 239.143 0ZM239.143 32.348C259.119 32.348 276.251 46.8479 276.251 64.7338C276.251 82.6171 259.638 97.117 239.143 97.117C218.649 97.117 202.033 82.6171 202.033 64.7338C202.033 46.8479 219.167 32.348 239.143 32.348Z" fill="white"/>
</g>
</g>
<defs>
<clipPath id="clip0_324_123">
<rect width="445" height="130" fill="white"/>
</clipPath>
</defs>
</svg>
