<svg width="552" height="201" viewBox="0 0 552 201" fill="none" xmlns="http://www.w3.org/2000/svg">
<g clip-path="url(#clip0_324_106)">
<path d="M500.205 136.997H513.569V102.676C513.569 93.9997 518.586 88.5011 526.554 88.5011C534.694 88.5011 538.459 93.0304 538.459 102.027V136.997H551.831V98.8504C551.831 84.7824 544.661 76.8624 531.515 76.8624C522.727 76.8624 516.801 80.9024 513.998 87.4784H513.081V78.0464H500.205V136.997ZM463.91 126.977C454.586 126.977 449.247 119.867 449.247 107.525C449.247 95.2371 454.586 88.0744 463.91 88.0744C473.175 88.0744 478.511 95.2371 478.511 107.525C478.511 119.867 473.229 126.977 463.91 126.977ZM463.91 138.189C481.529 138.189 492.251 126.656 492.251 107.525C492.251 88.4477 481.475 76.8624 463.91 76.8624C446.391 76.8624 435.562 88.5011 435.562 107.525C435.562 126.656 446.231 138.189 463.91 138.189ZM420.713 68.3011C425.126 68.3011 428.685 64.7357 428.685 60.2677C428.685 55.7917 425.133 52.1797 420.713 52.1797C416.35 52.1797 412.738 55.7917 412.738 60.2677C412.738 64.7357 416.35 68.2944 420.713 68.2944V68.3011ZM414.083 136.997H427.394V78.0464H414.083V136.997ZM380.157 63.6117V78.4277H370.839V89.0971H380.157V121.264C380.157 132.691 385.549 137.272 399.073 137.272C401.655 137.272 404.137 137.004 406.077 136.623V126.168C404.457 126.328 403.434 126.436 401.549 126.436C395.95 126.436 393.467 123.855 393.467 118.033V89.0971H406.077V78.4277H393.467V63.6051H380.157V63.6117ZM339.601 126.977C330.283 126.977 324.953 119.867 324.953 107.525C324.953 95.2371 330.283 88.0744 339.601 88.0744C348.871 88.0744 354.203 95.2371 354.203 107.525C354.203 119.867 348.925 126.977 339.601 126.977ZM339.601 138.189C357.227 138.189 367.95 126.656 367.95 107.525C367.95 88.4477 357.174 76.8624 339.601 76.8624C322.089 76.8624 311.259 88.5011 311.259 107.525C311.259 126.656 321.929 138.189 339.601 138.189ZM250.763 136.997V84.0864H251.679L289.835 136.997H301.847V59.2437H288.49V112.101H287.573L249.419 59.2437H237.359V136.991H250.77L250.763 136.997Z" fill="white"/>
<path fill-rule="evenodd" clip-rule="evenodd" d="M12.1013 8.65239L123.389 0.457727C137.056 -0.714273 140.572 0.069716 149.161 6.30972L184.685 31.2778C190.547 35.5711 192.501 36.7403 192.501 41.4217V178.363C192.501 186.946 189.375 192.02 178.444 192.798L49.2053 200.602C41 200.994 37.0947 199.824 32.7973 194.358L6.636 160.416C1.94933 154.168 0 149.494 0 144.026V22.3031C0 15.2844 3.128 9.42972 12.1013 8.65239ZM159.707 67.1684C160.485 70.6831 159.707 74.1951 156.185 74.5898L150.335 75.7551V161.584C145.255 164.315 140.571 165.876 136.667 165.876C130.417 165.876 128.852 163.924 124.171 158.075L85.8987 97.9938V156.124L98.0093 158.856C98.0093 158.856 98.0093 165.876 88.2387 165.876L61.3027 167.439C60.52 165.876 61.3027 161.978 64.036 161.196L71.064 159.248V82.3898L61.3053 81.6071C60.5227 78.0938 62.472 73.0244 67.9427 72.6324L96.8373 70.6844L136.667 131.547V77.7058L126.512 76.5404C125.733 72.2431 128.852 69.1244 132.757 68.7364L159.707 67.1684ZM39.8293 60.931V177.19C39.8293 183.439 42.9507 185.776 49.9787 185.39L171.411 178.363C178.441 177.976 179.225 173.679 179.225 168.603V53.1244C179.225 48.0578 177.276 45.3243 172.972 45.715L46.0733 53.1244C41.3907 53.5178 39.8293 55.8603 39.8293 60.931ZM33.1947 35.1804C39.436 40.2524 41.7773 39.8657 53.4987 39.083L163.992 32.4483C166.336 32.4483 164.387 30.1111 163.605 29.7218L145.255 16.4564C141.739 13.7271 137.053 10.6004 128.075 11.3818L21.084 19.1858C17.1827 19.5724 16.404 21.523 17.9573 23.087L33.1947 35.1804Z" fill="white"/>
</g>
<defs>
<clipPath id="clip0_324_106">
<rect width="552" height="201" fill="white"/>
</clipPath>
</defs>
</svg>
