<svg width="253" height="224" viewBox="0 0 253 224" fill="none" xmlns="http://www.w3.org/2000/svg">
<rect x="1" y="1" width="251" height="222" rx="19" fill="white" stroke="#B6C3CE" stroke-width="2"/>
<path d="M34.6236 69H30.6861L37.8551 48.6364H42.4091L49.5881 69H45.6506L40.2116 52.8125H40.0526L34.6236 69ZM34.7528 61.0156H45.4915V63.9787H34.7528V61.0156ZM52.2702 69V48.6364H55.8697V56.2528H56.0188C56.2044 55.8816 56.4663 55.4872 56.8043 55.0696C57.1424 54.6454 57.5998 54.2841 58.1765 53.9858C58.7532 53.6809 59.489 53.5284 60.3839 53.5284C61.5638 53.5284 62.6277 53.83 63.5756 54.4332C64.5302 55.0298 65.2859 55.9148 65.8427 57.0881C66.4061 58.2547 66.6879 59.6866 66.6879 61.3835C66.6879 63.0606 66.4128 64.4858 65.8626 65.6591C65.3124 66.8324 64.5633 67.7273 63.6154 68.3438C62.6675 68.9602 61.5936 69.2685 60.3938 69.2685C59.5188 69.2685 58.793 69.1226 58.2163 68.831C57.6396 68.5393 57.1755 68.188 56.8242 67.777C56.4795 67.3594 56.2111 66.965 56.0188 66.5938H55.81V69H52.2702ZM55.8001 61.3636C55.8001 62.3513 55.9393 63.2164 56.2177 63.9588C56.5027 64.7012 56.9104 65.2812 57.4407 65.6989C57.9776 66.1098 58.6272 66.3153 59.3896 66.3153C60.185 66.3153 60.8512 66.1032 61.3881 65.679C61.9251 65.2481 62.3294 64.6615 62.6012 63.919C62.8796 63.17 63.0188 62.3182 63.0188 61.3636C63.0188 60.4157 62.8829 59.5739 62.6112 58.8381C62.3394 58.1023 61.935 57.5256 61.3981 57.108C60.8612 56.6903 60.1916 56.4815 59.3896 56.4815C58.6206 56.4815 57.9677 56.6837 57.4308 57.0881C56.8938 57.4924 56.4862 58.0592 56.2077 58.7884C55.936 59.5175 55.8001 60.3759 55.8001 61.3636ZM76.4098 69.2983C74.9183 69.2983 73.6257 68.9702 72.532 68.3139C71.4382 67.6577 70.5897 66.7396 69.9865 65.5597C69.3899 64.3797 69.0916 63.0009 69.0916 61.4233C69.0916 59.8456 69.3899 58.4635 69.9865 57.277C70.5897 56.0904 71.4382 55.169 72.532 54.5128C73.6257 53.8565 74.9183 53.5284 76.4098 53.5284C77.9013 53.5284 79.1939 53.8565 80.2876 54.5128C81.3814 55.169 82.2266 56.0904 82.8232 57.277C83.4264 58.4635 83.728 59.8456 83.728 61.4233C83.728 63.0009 83.4264 64.3797 82.8232 65.5597C82.2266 66.7396 81.3814 67.6577 80.2876 68.3139C79.1939 68.9702 77.9013 69.2983 76.4098 69.2983ZM76.4297 66.4148C77.2384 66.4148 77.9145 66.1927 78.4581 65.7486C79.0017 65.2978 79.406 64.6946 79.6712 63.9389C79.9429 63.1832 80.0788 62.3414 80.0788 61.4134C80.0788 60.4787 79.9429 59.6335 79.6712 58.8778C79.406 58.1155 79.0017 57.509 78.4581 57.0582C77.9145 56.6075 77.2384 56.3821 76.4297 56.3821C75.6011 56.3821 74.9117 56.6075 74.3615 57.0582C73.8179 57.509 73.4103 58.1155 73.1385 58.8778C72.8733 59.6335 72.7408 60.4787 72.7408 61.4134C72.7408 62.3414 72.8733 63.1832 73.1385 63.9389C73.4103 64.6946 73.8179 65.2978 74.3615 65.7486C74.9117 66.1927 75.6011 66.4148 76.4297 66.4148ZM96.5174 62.5767V53.7273H100.117V69H96.6268V66.2855H96.4677C96.123 67.1406 95.5562 67.84 94.7674 68.3835C93.9852 68.9271 93.0207 69.1989 91.8739 69.1989C90.873 69.1989 89.988 68.9768 89.2191 68.5327C88.4568 68.0819 87.8602 67.429 87.4293 66.5739C86.9985 65.7121 86.783 64.6714 86.783 63.4517V53.7273H90.3825V62.8949C90.3825 63.8627 90.6476 64.6316 91.1779 65.2017C91.7082 65.7718 92.4042 66.0568 93.266 66.0568C93.7963 66.0568 94.31 65.9276 94.8072 65.669C95.3043 65.4105 95.712 65.026 96.0302 64.5156C96.355 63.9986 96.5174 63.3523 96.5174 62.5767ZM111.445 53.7273V56.5114H102.665V53.7273H111.445ZM104.832 50.0682H108.432V64.4062C108.432 64.8902 108.505 65.2614 108.651 65.5199C108.803 65.7718 109.002 65.9441 109.247 66.0369C109.492 66.1297 109.764 66.1761 110.062 66.1761C110.288 66.1761 110.493 66.1596 110.679 66.1264C110.871 66.0933 111.017 66.0634 111.116 66.0369L111.723 68.8509C111.531 68.9171 111.256 68.9901 110.898 69.0696C110.546 69.1491 110.116 69.1955 109.605 69.2088C108.704 69.2353 107.892 69.0994 107.169 68.8011C106.446 68.4962 105.873 68.0256 105.449 67.3892C105.031 66.7528 104.826 65.9574 104.832 65.0028V50.0682ZM131.135 62.5767V53.7273H134.734V69H131.244V66.2855H131.085C130.74 67.1406 130.173 67.84 129.385 68.3835C128.602 68.9271 127.638 69.1989 126.491 69.1989C125.49 69.1989 124.605 68.9768 123.836 68.5327C123.074 68.0819 122.477 67.429 122.047 66.5739C121.616 65.7121 121.4 64.6714 121.4 63.4517V53.7273H125V62.8949C125 63.8627 125.265 64.6316 125.795 65.2017C126.325 65.7718 127.021 66.0568 127.883 66.0568C128.413 66.0568 128.927 65.9276 129.424 65.669C129.922 65.4105 130.329 65.026 130.647 64.5156C130.972 63.9986 131.135 63.3523 131.135 62.5767ZM150.506 57.7642L147.225 58.1222C147.132 57.7907 146.97 57.4792 146.738 57.1875C146.513 56.8958 146.208 56.6605 145.823 56.4815C145.439 56.3026 144.968 56.2131 144.411 56.2131C143.662 56.2131 143.032 56.3755 142.522 56.7003C142.018 57.0251 141.77 57.446 141.776 57.9631C141.77 58.4072 141.932 58.7685 142.263 59.0469C142.602 59.3253 143.158 59.554 143.934 59.733L146.539 60.2898C147.984 60.6013 149.058 61.0952 149.761 61.7713C150.47 62.4474 150.828 63.3324 150.835 64.4261C150.828 65.3873 150.546 66.2358 149.989 66.9716C149.439 67.7008 148.674 68.2708 147.692 68.6818C146.711 69.0928 145.585 69.2983 144.312 69.2983C142.442 69.2983 140.938 68.9072 139.798 68.125C138.657 67.3362 137.978 66.2391 137.759 64.8338L141.269 64.4957C141.428 65.1851 141.766 65.7055 142.283 66.0568C142.8 66.4081 143.473 66.5838 144.302 66.5838C145.157 66.5838 145.843 66.4081 146.36 66.0568C146.884 65.7055 147.146 65.2713 147.146 64.7543C147.146 64.3168 146.977 63.9555 146.638 63.6705C146.307 63.3854 145.79 63.1667 145.087 63.0142L142.482 62.4673C141.017 62.1624 139.933 61.6487 139.231 60.9261C138.528 60.197 138.18 59.2756 138.187 58.1619C138.18 57.2206 138.435 56.4053 138.952 55.7159C139.476 55.0199 140.202 54.483 141.13 54.1051C142.065 53.7206 143.142 53.5284 144.362 53.5284C146.151 53.5284 147.56 53.9096 148.587 54.6719C149.621 55.4342 150.261 56.465 150.506 57.7642Z" fill="#1C1C1E"/>
<path d="M32.3011 134.864V129.051L46.875 106.091H51.8864V114.136H48.9205L39.733 128.676V128.949H60.4432V134.864H32.3011ZM49.0568 141V133.091L49.1932 130.517V106.091H56.1136V141H49.0568Z" fill="#1C1C1E"/>
<path opacity="0.7" d="M35.4205 171.198C34.5 171.198 33.6967 170.987 33.0107 170.565C32.3246 170.143 31.7919 169.553 31.4126 168.795C31.0334 168.036 30.8438 167.15 30.8438 166.136C30.8438 165.117 31.0334 164.227 31.4126 163.464C31.7919 162.701 32.3246 162.109 33.0107 161.687C33.6967 161.265 34.5 161.054 35.4205 161.054C36.3409 161.054 37.1442 161.265 37.8303 161.687C38.5163 162.109 39.049 162.701 39.4283 163.464C39.8075 164.227 39.9972 165.117 39.9972 166.136C39.9972 167.15 39.8075 168.036 39.4283 168.795C39.049 169.553 38.5163 170.143 37.8303 170.565C37.1442 170.987 36.3409 171.198 35.4205 171.198ZM35.4268 169.594C36.0234 169.594 36.5178 169.436 36.9098 169.121C37.3018 168.805 37.5916 168.386 37.7791 167.862C37.9709 167.337 38.0668 166.76 38.0668 166.129C38.0668 165.503 37.9709 164.928 37.7791 164.403C37.5916 163.875 37.3018 163.451 36.9098 163.131C36.5178 162.812 36.0234 162.652 35.4268 162.652C34.826 162.652 34.3274 162.812 33.9311 163.131C33.5391 163.451 33.2472 163.875 33.0554 164.403C32.8679 164.928 32.7741 165.503 32.7741 166.129C32.7741 166.76 32.8679 167.337 33.0554 167.862C33.2472 168.386 33.5391 168.805 33.9311 169.121C34.3274 169.436 34.826 169.594 35.4268 169.594ZM46.8031 161.182V162.716H41.2548V161.182H46.8031ZM42.7761 171V160.044C42.7761 159.43 42.9103 158.921 43.1788 158.516C43.4473 158.107 43.8031 157.803 44.2463 157.602C44.6895 157.398 45.171 157.295 45.6909 157.295C46.0744 157.295 46.4025 157.327 46.6752 157.391C46.948 157.451 47.1504 157.506 47.2825 157.558L46.8351 159.104C46.7456 159.079 46.6305 159.049 46.4899 159.015C46.3493 158.977 46.1788 158.957 45.9785 158.957C45.514 158.957 45.1816 159.072 44.9814 159.303C44.7853 159.533 44.6873 159.865 44.6873 160.3V171H42.7761ZM53.4476 161.182V162.716H47.8993V161.182H53.4476ZM49.4206 171V160.044C49.4206 159.43 49.5549 158.921 49.8233 158.516C50.0918 158.107 50.4476 157.803 50.8908 157.602C51.334 157.398 51.8155 157.295 52.3354 157.295C52.7189 157.295 53.0471 157.327 53.3198 157.391C53.5925 157.451 53.7949 157.506 53.927 157.558L53.4796 159.104C53.3901 159.079 53.275 159.049 53.1344 159.015C52.9938 158.977 52.8233 158.957 52.623 158.957C52.1586 158.957 51.8262 159.072 51.6259 159.303C51.4299 159.533 51.3319 159.865 51.3319 160.3V171H49.4206ZM55.4196 171V161.182H57.3308V171H55.4196ZM56.3848 159.667C56.0524 159.667 55.7669 159.556 55.5282 159.335C55.2939 159.109 55.1767 158.84 55.1767 158.529C55.1767 158.214 55.2939 157.945 55.5282 157.724C55.7669 157.498 56.0524 157.385 56.3848 157.385C56.7172 157.385 57.0005 157.498 57.2349 157.724C57.4735 157.945 57.5929 158.214 57.5929 158.529C57.5929 158.84 57.4735 159.109 57.2349 159.335C57.0005 159.556 56.7172 159.667 56.3848 159.667ZM64.0376 171.198C63.0874 171.198 62.2692 170.983 61.5831 170.553C60.9013 170.118 60.3771 169.519 60.0107 168.756C59.6442 167.994 59.4609 167.12 59.4609 166.136C59.4609 165.138 59.6484 164.259 60.0234 163.496C60.3984 162.729 60.9268 162.13 61.6087 161.7C62.2905 161.269 63.0938 161.054 64.0185 161.054C64.7642 161.054 65.429 161.192 66.0128 161.469C66.5966 161.742 67.0675 162.126 67.4254 162.62C67.7876 163.114 68.0028 163.692 68.071 164.352H66.2109C66.1087 163.892 65.8743 163.496 65.5078 163.163C65.1456 162.831 64.6598 162.665 64.0504 162.665C63.5178 162.665 63.0511 162.805 62.6506 163.087C62.2543 163.364 61.9453 163.76 61.7237 164.276C61.5021 164.787 61.3913 165.392 61.3913 166.091C61.3913 166.807 61.5 167.425 61.7173 167.945C61.9347 168.464 62.2415 168.867 62.6378 169.153C63.0384 169.438 63.5092 169.581 64.0504 169.581C64.4126 169.581 64.7408 169.515 65.0348 169.383C65.3331 169.246 65.5824 169.053 65.7827 168.801C65.9872 168.55 66.13 168.247 66.2109 167.893H68.071C68.0028 168.528 67.7962 169.095 67.451 169.594C67.1058 170.092 66.6435 170.484 66.0639 170.77C65.4886 171.055 64.8132 171.198 64.0376 171.198ZM74.3464 171.198C73.3791 171.198 72.546 170.991 71.8471 170.578C71.1525 170.161 70.6156 169.575 70.2363 168.82C69.8613 168.062 69.6738 167.173 69.6738 166.155C69.6738 165.149 69.8613 164.263 70.2363 163.496C70.6156 162.729 71.144 162.13 71.8216 161.7C72.5034 161.269 73.3002 161.054 74.2122 161.054C74.7662 161.054 75.3031 161.146 75.823 161.329C76.3429 161.512 76.8095 161.8 77.2228 162.192C77.6362 162.584 77.9622 163.093 78.2008 163.719C78.4395 164.342 78.5588 165.098 78.5588 165.989V166.666H70.7541V165.234H76.6859C76.6859 164.732 76.5836 164.286 76.3791 163.898C76.1745 163.506 75.8869 163.197 75.5162 162.972C75.1497 162.746 74.7193 162.633 74.225 162.633C73.688 162.633 73.2193 162.765 72.8187 163.029C72.4224 163.289 72.1156 163.63 71.8983 164.052C71.6852 164.469 71.5787 164.923 71.5787 165.413V166.532C71.5787 167.188 71.6937 167.746 71.9238 168.207C72.1582 168.667 72.4842 169.018 72.9018 169.261C73.3194 169.5 73.8074 169.619 74.3656 169.619C74.7278 169.619 75.0581 169.568 75.3564 169.466C75.6547 169.359 75.9125 169.202 76.1298 168.993C76.3471 168.784 76.5133 168.526 76.6284 168.219L78.4373 168.545C78.2924 169.078 78.0325 169.545 77.6575 169.945C77.2868 170.342 76.8201 170.651 76.2576 170.872C75.6994 171.089 75.0623 171.198 74.3464 171.198ZM88.0366 163.579L86.3043 163.886C86.2319 163.664 86.1168 163.453 85.9592 163.253C85.8058 163.053 85.5969 162.888 85.3327 162.761C85.0685 162.633 84.7383 162.569 84.342 162.569C83.8008 162.569 83.3491 162.69 82.9869 162.933C82.6246 163.172 82.4435 163.481 82.4435 163.86C82.4435 164.188 82.565 164.452 82.8079 164.653C83.0508 164.853 83.4428 165.017 83.984 165.145L85.5437 165.503C86.4471 165.712 87.1204 166.033 87.5636 166.468C88.0067 166.903 88.2283 167.467 88.2283 168.162C88.2283 168.75 88.0579 169.274 87.717 169.734C87.3803 170.19 86.9094 170.548 86.3043 170.808C85.7035 171.068 85.0067 171.198 84.2141 171.198C83.1147 171.198 82.2177 170.964 81.5231 170.495C80.8285 170.022 80.4023 169.351 80.2447 168.482L82.092 168.2C82.207 168.682 82.4435 169.046 82.8015 169.293C83.1594 169.536 83.6261 169.658 84.2013 169.658C84.8278 169.658 85.3285 169.528 85.7035 169.268C86.0785 169.004 86.266 168.682 86.266 168.303C86.266 167.996 86.1509 167.738 85.9208 167.529C85.695 167.32 85.3477 167.163 84.8789 167.056L83.217 166.692C82.3008 166.483 81.6232 166.151 81.1843 165.695C80.7496 165.239 80.5323 164.661 80.5323 163.962C80.5323 163.383 80.6942 162.876 81.0181 162.441C81.342 162.006 81.7894 161.668 82.3604 161.425C82.9315 161.178 83.5856 161.054 84.3228 161.054C85.3839 161.054 86.2191 161.284 86.8285 161.744C87.4379 162.2 87.8406 162.812 88.0366 163.579Z" fill="#1C1C1E"/>
<path opacity="0.7" d="M134.516 171.198C133.549 171.198 132.716 170.991 132.017 170.578C131.322 170.161 130.786 169.575 130.406 168.82C130.031 168.062 129.844 167.173 129.844 166.155C129.844 165.149 130.031 164.263 130.406 163.496C130.786 162.729 131.314 162.13 131.991 161.7C132.673 161.269 133.47 161.054 134.382 161.054C134.936 161.054 135.473 161.146 135.993 161.329C136.513 161.512 136.979 161.8 137.393 162.192C137.806 162.584 138.132 163.093 138.371 163.719C138.609 164.342 138.729 165.098 138.729 165.989V166.666H130.924V165.234H136.856C136.856 164.732 136.754 164.286 136.549 163.898C136.344 163.506 136.057 163.197 135.686 162.972C135.32 162.746 134.889 162.633 134.395 162.633C133.858 162.633 133.389 162.765 132.989 163.029C132.592 163.289 132.286 163.63 132.068 164.052C131.855 164.469 131.749 164.923 131.749 165.413V166.532C131.749 167.188 131.864 167.746 132.094 168.207C132.328 168.667 132.654 169.018 133.072 169.261C133.489 169.5 133.977 169.619 134.536 169.619C134.898 169.619 135.228 169.568 135.526 169.466C135.825 169.359 136.082 169.202 136.3 168.993C136.517 168.784 136.683 168.526 136.798 168.219L138.607 168.545C138.462 169.078 138.202 169.545 137.827 169.945C137.457 170.342 136.99 170.651 136.428 170.872C135.869 171.089 135.232 171.198 134.516 171.198ZM140.849 171V161.182H142.684V162.78H142.805C143.01 162.239 143.344 161.817 143.809 161.514C144.273 161.207 144.829 161.054 145.477 161.054C146.133 161.054 146.683 161.207 147.126 161.514C147.574 161.821 147.904 162.243 148.117 162.78H148.219C148.454 162.256 148.827 161.838 149.338 161.527C149.849 161.212 150.459 161.054 151.166 161.054C152.057 161.054 152.783 161.333 153.346 161.891C153.912 162.45 154.196 163.291 154.196 164.416V171H152.285V164.595C152.285 163.93 152.104 163.449 151.741 163.151C151.379 162.852 150.947 162.703 150.444 162.703C149.822 162.703 149.338 162.895 148.993 163.278C148.648 163.658 148.475 164.146 148.475 164.742V171H146.57V164.474C146.57 163.941 146.404 163.513 146.072 163.189C145.739 162.865 145.307 162.703 144.774 162.703C144.412 162.703 144.077 162.799 143.77 162.991C143.468 163.178 143.223 163.44 143.035 163.777C142.852 164.114 142.76 164.504 142.76 164.947V171H140.849ZM156.757 174.682V161.182H158.624V162.773H158.784C158.895 162.569 159.054 162.332 159.263 162.064C159.472 161.795 159.762 161.561 160.132 161.361C160.503 161.156 160.993 161.054 161.603 161.054C162.395 161.054 163.103 161.254 163.725 161.655C164.347 162.055 164.835 162.633 165.189 163.387C165.547 164.141 165.725 165.049 165.725 166.11C165.725 167.171 165.549 168.081 165.195 168.839C164.841 169.594 164.355 170.175 163.738 170.585C163.12 170.989 162.414 171.192 161.622 171.192C161.025 171.192 160.537 171.092 160.158 170.891C159.783 170.691 159.489 170.457 159.276 170.188C159.063 169.92 158.899 169.681 158.784 169.472H158.669V174.682H156.757ZM158.63 166.091C158.63 166.781 158.73 167.386 158.931 167.906C159.131 168.426 159.421 168.833 159.8 169.127C160.179 169.417 160.644 169.562 161.194 169.562C161.765 169.562 162.242 169.411 162.625 169.108C163.009 168.801 163.299 168.386 163.495 167.862C163.695 167.337 163.795 166.747 163.795 166.091C163.795 165.443 163.697 164.862 163.501 164.346C163.309 163.83 163.02 163.423 162.632 163.125C162.248 162.827 161.769 162.678 161.194 162.678C160.64 162.678 160.171 162.82 159.787 163.106C159.408 163.391 159.12 163.79 158.924 164.301C158.728 164.812 158.63 165.409 158.63 166.091ZM169.778 157.909V171H167.867V157.909H169.778ZM176.485 171.198C175.564 171.198 174.761 170.987 174.075 170.565C173.389 170.143 172.856 169.553 172.477 168.795C172.098 168.036 171.908 167.15 171.908 166.136C171.908 165.117 172.098 164.227 172.477 163.464C172.856 162.701 173.389 162.109 174.075 161.687C174.761 161.265 175.564 161.054 176.485 161.054C177.405 161.054 178.209 161.265 178.895 161.687C179.581 162.109 180.113 162.701 180.493 163.464C180.872 164.227 181.062 165.117 181.062 166.136C181.062 167.15 180.872 168.036 180.493 168.795C180.113 169.553 179.581 170.143 178.895 170.565C178.209 170.987 177.405 171.198 176.485 171.198ZM176.491 169.594C177.088 169.594 177.582 169.436 177.974 169.121C178.366 168.805 178.656 168.386 178.844 167.862C179.035 167.337 179.131 166.76 179.131 166.129C179.131 165.503 179.035 164.928 178.844 164.403C178.656 163.875 178.366 163.451 177.974 163.131C177.582 162.812 177.088 162.652 176.491 162.652C175.89 162.652 175.392 162.812 174.996 163.131C174.604 163.451 174.312 163.875 174.12 164.403C173.932 164.928 173.839 165.503 173.839 166.129C173.839 166.76 173.932 167.337 174.12 167.862C174.312 168.386 174.604 168.805 174.996 169.121C175.392 169.436 175.89 169.594 176.491 169.594ZM184.069 174.682C183.784 174.682 183.524 174.658 183.289 174.612C183.055 174.569 182.88 174.522 182.765 174.471L183.225 172.905C183.575 172.999 183.886 173.039 184.159 173.026C184.431 173.013 184.672 172.911 184.881 172.719C185.094 172.528 185.281 172.214 185.443 171.78L185.68 171.128L182.088 161.182H184.133L186.619 168.801H186.722L189.208 161.182H191.26L187.214 172.31C187.026 172.822 186.788 173.254 186.498 173.608C186.208 173.966 185.863 174.234 185.463 174.413C185.062 174.592 184.597 174.682 184.069 174.682ZM196.954 171.198C195.987 171.198 195.153 170.991 194.455 170.578C193.76 170.161 193.223 169.575 192.844 168.82C192.469 168.062 192.281 167.173 192.281 166.155C192.281 165.149 192.469 164.263 192.844 163.496C193.223 162.729 193.751 162.13 194.429 161.7C195.111 161.269 195.908 161.054 196.82 161.054C197.374 161.054 197.911 161.146 198.43 161.329C198.95 161.512 199.417 161.8 199.83 162.192C200.244 162.584 200.57 163.093 200.808 163.719C201.047 164.342 201.166 165.098 201.166 165.989V166.666H193.362V165.234H199.293C199.293 164.732 199.191 164.286 198.987 163.898C198.782 163.506 198.494 163.197 198.124 162.972C197.757 162.746 197.327 162.633 196.832 162.633C196.295 162.633 195.827 162.765 195.426 163.029C195.03 163.289 194.723 163.63 194.506 164.052C194.293 164.469 194.186 164.923 194.186 165.413V166.532C194.186 167.188 194.301 167.746 194.531 168.207C194.766 168.667 195.092 169.018 195.509 169.261C195.927 169.5 196.415 169.619 196.973 169.619C197.335 169.619 197.665 169.568 197.964 169.466C198.262 169.359 198.52 169.202 198.737 168.993C198.955 168.784 199.121 168.526 199.236 168.219L201.045 168.545C200.9 169.078 200.64 169.545 200.265 169.945C199.894 170.342 199.428 170.651 198.865 170.872C198.307 171.089 197.67 171.198 196.954 171.198ZM207.518 171.198C206.551 171.198 205.718 170.991 205.019 170.578C204.324 170.161 203.787 169.575 203.408 168.82C203.033 168.062 202.846 167.173 202.846 166.155C202.846 165.149 203.033 164.263 203.408 163.496C203.787 162.729 204.316 162.13 204.993 161.7C205.675 161.269 206.472 161.054 207.384 161.054C207.938 161.054 208.475 161.146 208.995 161.329C209.515 161.512 209.981 161.8 210.395 162.192C210.808 162.584 211.134 163.093 211.373 163.719C211.611 164.342 211.731 165.098 211.731 165.989V166.666H203.926V165.234H209.858C209.858 164.732 209.756 164.286 209.551 163.898C209.346 163.506 209.059 163.197 208.688 162.972C208.322 162.746 207.891 162.633 207.397 162.633C206.86 162.633 206.391 162.765 205.991 163.029C205.594 163.289 205.287 163.63 205.07 164.052C204.857 164.469 204.751 164.923 204.751 165.413V166.532C204.751 167.188 204.866 167.746 205.096 168.207C205.33 168.667 205.656 169.018 206.074 169.261C206.491 169.5 206.979 169.619 207.537 169.619C207.9 169.619 208.23 169.568 208.528 169.466C208.827 169.359 209.084 169.202 209.302 168.993C209.519 168.784 209.685 168.526 209.8 168.219L211.609 168.545C211.464 169.078 211.204 169.545 210.829 169.945C210.459 170.342 209.992 170.651 209.43 170.872C208.871 171.089 208.234 171.198 207.518 171.198ZM221.208 163.579L219.476 163.886C219.404 163.664 219.289 163.453 219.131 163.253C218.978 163.053 218.769 162.888 218.505 162.761C218.24 162.633 217.91 162.569 217.514 162.569C216.973 162.569 216.521 162.69 216.159 162.933C215.797 163.172 215.615 163.481 215.615 163.86C215.615 164.188 215.737 164.452 215.98 164.653C216.223 164.853 216.615 165.017 217.156 165.145L218.716 165.503C219.619 165.712 220.292 166.033 220.735 166.468C221.179 166.903 221.4 167.467 221.4 168.162C221.4 168.75 221.23 169.274 220.889 169.734C220.552 170.19 220.081 170.548 219.476 170.808C218.875 171.068 218.179 171.198 217.386 171.198C216.287 171.198 215.39 170.964 214.695 170.495C214 170.022 213.574 169.351 213.417 168.482L215.264 168.2C215.379 168.682 215.615 169.046 215.973 169.293C216.331 169.536 216.798 169.658 217.373 169.658C218 169.658 218.5 169.528 218.875 169.268C219.25 169.004 219.438 168.682 219.438 168.303C219.438 167.996 219.323 167.738 219.093 167.529C218.867 167.32 218.52 167.163 218.051 167.056L216.389 166.692C215.473 166.483 214.795 166.151 214.356 165.695C213.922 165.239 213.704 164.661 213.704 163.962C213.704 163.383 213.866 162.876 214.19 162.441C214.514 162.006 214.961 161.668 215.532 161.425C216.103 161.178 216.757 161.054 217.495 161.054C218.556 161.054 219.391 161.284 220 161.744C220.61 162.2 221.012 162.812 221.208 163.579Z" fill="#1C1C1E"/>
<path d="M133.21 141L147.682 112.364V112.125H130.824V106.091H155.318V112.21L140.83 141H133.21ZM172.483 141.477C169.938 141.477 167.67 141.04 165.682 140.165C163.705 139.278 162.142 138.062 160.994 136.517C159.858 134.96 159.273 133.165 159.239 131.131H166.67C166.716 131.983 166.994 132.733 167.506 133.381C168.028 134.017 168.722 134.511 169.585 134.864C170.449 135.216 171.42 135.392 172.5 135.392C173.625 135.392 174.619 135.193 175.483 134.795C176.347 134.398 177.023 133.847 177.511 133.142C178 132.437 178.244 131.625 178.244 130.705C178.244 129.773 177.983 128.949 177.46 128.233C176.949 127.506 176.21 126.937 175.244 126.528C174.29 126.119 173.153 125.915 171.835 125.915H168.58V120.494H171.835C172.949 120.494 173.932 120.301 174.784 119.915C175.648 119.528 176.318 118.994 176.795 118.312C177.273 117.619 177.511 116.812 177.511 115.892C177.511 115.017 177.301 114.25 176.881 113.591C176.472 112.92 175.892 112.398 175.142 112.023C174.403 111.648 173.54 111.46 172.551 111.46C171.551 111.46 170.636 111.642 169.807 112.006C168.977 112.358 168.312 112.864 167.812 113.523C167.312 114.182 167.045 114.955 167.011 115.841H159.938C159.972 113.83 160.545 112.057 161.659 110.523C162.773 108.989 164.273 107.79 166.159 106.926C168.057 106.051 170.199 105.614 172.585 105.614C174.994 105.614 177.102 106.051 178.909 106.926C180.716 107.801 182.119 108.983 183.119 110.472C184.131 111.949 184.631 113.608 184.619 115.449C184.631 117.403 184.023 119.034 182.795 120.341C181.58 121.648 179.994 122.477 178.04 122.83V123.102C180.608 123.432 182.563 124.324 183.903 125.778C185.256 127.222 185.926 129.028 185.915 131.199C185.926 133.188 185.352 134.955 184.193 136.5C183.045 138.045 181.46 139.261 179.438 140.148C177.415 141.034 175.097 141.477 172.483 141.477Z" fill="#1C1C1E"/>
<rect opacity="0.25" x="109" y="87" width="1" height="95" fill="#1C1C1E"/>
</svg>
