<svg width="269" height="321" viewBox="0 0 269 321" fill="none" xmlns="http://www.w3.org/2000/svg">
<rect x="1" y="1" width="267" height="319" rx="19" fill="white" stroke="#B6C3CE" stroke-width="2"/>
<path d="M34.6236 69H30.6861L37.8551 48.6364H42.4091L49.5881 69H45.6506L40.2116 52.8125H40.0526L34.6236 69ZM34.7528 61.0156H45.4915V63.9787H34.7528V61.0156ZM52.2702 69V48.6364H55.8697V56.2528H56.0188C56.2044 55.8816 56.4663 55.4872 56.8043 55.0696C57.1424 54.6454 57.5998 54.2841 58.1765 53.9858C58.7532 53.6809 59.489 53.5284 60.3839 53.5284C61.5638 53.5284 62.6277 53.83 63.5756 54.4332C64.5302 55.0298 65.2859 55.9148 65.8427 57.0881C66.4061 58.2547 66.6879 59.6866 66.6879 61.3835C66.6879 63.0606 66.4128 64.4858 65.8626 65.6591C65.3124 66.8324 64.5633 67.7273 63.6154 68.3438C62.6675 68.9602 61.5936 69.2685 60.3938 69.2685C59.5188 69.2685 58.793 69.1226 58.2163 68.831C57.6396 68.5393 57.1755 68.188 56.8242 67.777C56.4795 67.3594 56.2111 66.965 56.0188 66.5938H55.81V69H52.2702ZM55.8001 61.3636C55.8001 62.3513 55.9393 63.2164 56.2177 63.9588C56.5027 64.7012 56.9104 65.2812 57.4407 65.6989C57.9776 66.1098 58.6272 66.3153 59.3896 66.3153C60.185 66.3153 60.8512 66.1032 61.3881 65.679C61.9251 65.2481 62.3294 64.6615 62.6012 63.919C62.8796 63.17 63.0188 62.3182 63.0188 61.3636C63.0188 60.4157 62.8829 59.5739 62.6112 58.8381C62.3394 58.1023 61.935 57.5256 61.3981 57.108C60.8612 56.6903 60.1916 56.4815 59.3896 56.4815C58.6206 56.4815 57.9677 56.6837 57.4308 57.0881C56.8938 57.4924 56.4862 58.0592 56.2077 58.7884C55.936 59.5175 55.8001 60.3759 55.8001 61.3636ZM76.4098 69.2983C74.9183 69.2983 73.6257 68.9702 72.532 68.3139C71.4382 67.6577 70.5897 66.7396 69.9865 65.5597C69.3899 64.3797 69.0916 63.0009 69.0916 61.4233C69.0916 59.8456 69.3899 58.4635 69.9865 57.277C70.5897 56.0904 71.4382 55.169 72.532 54.5128C73.6257 53.8565 74.9183 53.5284 76.4098 53.5284C77.9013 53.5284 79.1939 53.8565 80.2876 54.5128C81.3814 55.169 82.2266 56.0904 82.8232 57.277C83.4264 58.4635 83.728 59.8456 83.728 61.4233C83.728 63.0009 83.4264 64.3797 82.8232 65.5597C82.2266 66.7396 81.3814 67.6577 80.2876 68.3139C79.1939 68.9702 77.9013 69.2983 76.4098 69.2983ZM76.4297 66.4148C77.2384 66.4148 77.9145 66.1927 78.4581 65.7486C79.0017 65.2978 79.406 64.6946 79.6712 63.9389C79.9429 63.1832 80.0788 62.3414 80.0788 61.4134C80.0788 60.4787 79.9429 59.6335 79.6712 58.8778C79.406 58.1155 79.0017 57.509 78.4581 57.0582C77.9145 56.6075 77.2384 56.3821 76.4297 56.3821C75.6011 56.3821 74.9117 56.6075 74.3615 57.0582C73.8179 57.509 73.4103 58.1155 73.1385 58.8778C72.8733 59.6335 72.7408 60.4787 72.7408 61.4134C72.7408 62.3414 72.8733 63.1832 73.1385 63.9389C73.4103 64.6946 73.8179 65.2978 74.3615 65.7486C74.9117 66.1927 75.6011 66.4148 76.4297 66.4148ZM96.5174 62.5767V53.7273H100.117V69H96.6268V66.2855H96.4677C96.123 67.1406 95.5562 67.84 94.7674 68.3835C93.9852 68.9271 93.0207 69.1989 91.8739 69.1989C90.873 69.1989 89.988 68.9768 89.2191 68.5327C88.4568 68.0819 87.8602 67.429 87.4293 66.5739C86.9985 65.7121 86.783 64.6714 86.783 63.4517V53.7273H90.3825V62.8949C90.3825 63.8627 90.6476 64.6316 91.1779 65.2017C91.7082 65.7718 92.4042 66.0568 93.266 66.0568C93.7963 66.0568 94.31 65.9276 94.8072 65.669C95.3043 65.4105 95.712 65.026 96.0302 64.5156C96.355 63.9986 96.5174 63.3523 96.5174 62.5767ZM111.445 53.7273V56.5114H102.665V53.7273H111.445ZM104.832 50.0682H108.432V64.4062C108.432 64.8902 108.505 65.2614 108.651 65.5199C108.803 65.7718 109.002 65.9441 109.247 66.0369C109.492 66.1297 109.764 66.1761 110.062 66.1761C110.288 66.1761 110.493 66.1596 110.679 66.1264C110.871 66.0933 111.017 66.0634 111.116 66.0369L111.723 68.8509C111.531 68.9171 111.256 68.9901 110.898 69.0696C110.546 69.1491 110.116 69.1955 109.605 69.2088C108.704 69.2353 107.892 69.0994 107.169 68.8011C106.446 68.4962 105.873 68.0256 105.449 67.3892C105.031 66.7528 104.826 65.9574 104.832 65.0028V50.0682ZM131.135 62.5767V53.7273H134.734V69H131.244V66.2855H131.085C130.74 67.1406 130.173 67.84 129.385 68.3835C128.602 68.9271 127.638 69.1989 126.491 69.1989C125.49 69.1989 124.605 68.9768 123.836 68.5327C123.074 68.0819 122.477 67.429 122.047 66.5739C121.616 65.7121 121.4 64.6714 121.4 63.4517V53.7273H125V62.8949C125 63.8627 125.265 64.6316 125.795 65.2017C126.325 65.7718 127.021 66.0568 127.883 66.0568C128.413 66.0568 128.927 65.9276 129.424 65.669C129.922 65.4105 130.329 65.026 130.647 64.5156C130.972 63.9986 131.135 63.3523 131.135 62.5767ZM150.506 57.7642L147.225 58.1222C147.132 57.7907 146.97 57.4792 146.738 57.1875C146.513 56.8958 146.208 56.6605 145.823 56.4815C145.439 56.3026 144.968 56.2131 144.411 56.2131C143.662 56.2131 143.032 56.3755 142.522 56.7003C142.018 57.0251 141.77 57.446 141.776 57.9631C141.77 58.4072 141.932 58.7685 142.263 59.0469C142.602 59.3253 143.158 59.554 143.934 59.733L146.539 60.2898C147.984 60.6013 149.058 61.0952 149.761 61.7713C150.47 62.4474 150.828 63.3324 150.835 64.4261C150.828 65.3873 150.546 66.2358 149.989 66.9716C149.439 67.7008 148.674 68.2708 147.692 68.6818C146.711 69.0928 145.585 69.2983 144.312 69.2983C142.442 69.2983 140.938 68.9072 139.798 68.125C138.657 67.3362 137.978 66.2391 137.759 64.8338L141.269 64.4957C141.428 65.1851 141.766 65.7055 142.283 66.0568C142.8 66.4081 143.473 66.5838 144.302 66.5838C145.157 66.5838 145.843 66.4081 146.36 66.0568C146.884 65.7055 147.146 65.2713 147.146 64.7543C147.146 64.3168 146.977 63.9555 146.638 63.6705C146.307 63.3854 145.79 63.1667 145.087 63.0142L142.482 62.4673C141.017 62.1624 139.933 61.6487 139.231 60.9261C138.528 60.197 138.18 59.2756 138.187 58.1619C138.18 57.2206 138.435 56.4053 138.952 55.7159C139.476 55.0199 140.202 54.483 141.13 54.1051C142.065 53.7206 143.142 53.5284 144.362 53.5284C146.151 53.5284 147.56 53.9096 148.587 54.6719C149.621 55.4342 150.261 56.465 150.506 57.7642Z" fill="#1C1C1E"/>
<path d="M45.733 141.477C43.1875 141.477 40.9205 141.04 38.9318 140.165C36.9545 139.278 35.392 138.062 34.2443 136.517C33.108 134.96 32.5227 133.165 32.4886 131.131H39.9205C39.9659 131.983 40.2443 132.733 40.7557 133.381C41.2784 134.017 41.9716 134.511 42.8352 134.864C43.6989 135.216 44.6705 135.392 45.75 135.392C46.875 135.392 47.8693 135.193 48.733 134.795C49.5966 134.398 50.2727 133.847 50.7614 133.142C51.25 132.437 51.4943 131.625 51.4943 130.705C51.4943 129.773 51.233 128.949 50.7102 128.233C50.1989 127.506 49.4602 126.937 48.4943 126.528C47.5398 126.119 46.4034 125.915 45.0852 125.915H41.8295V120.494H45.0852C46.1989 120.494 47.1818 120.301 48.0341 119.915C48.8977 119.528 49.5682 118.994 50.0455 118.312C50.5227 117.619 50.7614 116.812 50.7614 115.892C50.7614 115.017 50.5511 114.25 50.1307 113.591C49.7216 112.92 49.142 112.398 48.392 112.023C47.6534 111.648 46.7898 111.46 45.8011 111.46C44.8011 111.46 43.8864 111.642 43.0568 112.006C42.2273 112.358 41.5625 112.864 41.0625 113.523C40.5625 114.182 40.2955 114.955 40.2614 115.841H33.1875C33.2216 113.83 33.7955 112.057 34.9091 110.523C36.0227 108.989 37.5227 107.79 39.4091 106.926C41.3068 106.051 43.4489 105.614 45.8352 105.614C48.2443 105.614 50.3523 106.051 52.1591 106.926C53.9659 107.801 55.3693 108.983 56.3693 110.472C57.3807 111.949 57.8807 113.608 57.8693 115.449C57.8807 117.403 57.2727 119.034 56.0455 120.341C54.8295 121.648 53.2443 122.477 51.2898 122.83V123.102C53.858 123.432 55.8125 124.324 57.1534 125.778C58.5057 127.222 59.1761 129.028 59.1648 131.199C59.1761 133.188 58.6023 134.955 57.4432 136.5C56.2955 138.045 54.7102 139.261 52.6875 140.148C50.6648 141.034 48.3466 141.477 45.733 141.477Z" fill="#1C1C1E"/>
<path opacity="0.7" d="M35.4205 171.198C34.5 171.198 33.6967 170.987 33.0107 170.565C32.3246 170.143 31.7919 169.553 31.4126 168.795C31.0334 168.036 30.8438 167.15 30.8438 166.136C30.8438 165.117 31.0334 164.227 31.4126 163.464C31.7919 162.701 32.3246 162.109 33.0107 161.687C33.6967 161.265 34.5 161.054 35.4205 161.054C36.3409 161.054 37.1442 161.265 37.8303 161.687C38.5163 162.109 39.049 162.701 39.4283 163.464C39.8075 164.227 39.9972 165.117 39.9972 166.136C39.9972 167.15 39.8075 168.036 39.4283 168.795C39.049 169.553 38.5163 170.143 37.8303 170.565C37.1442 170.987 36.3409 171.198 35.4205 171.198ZM35.4268 169.594C36.0234 169.594 36.5178 169.436 36.9098 169.121C37.3018 168.805 37.5916 168.386 37.7791 167.862C37.9709 167.337 38.0668 166.76 38.0668 166.129C38.0668 165.503 37.9709 164.928 37.7791 164.403C37.5916 163.875 37.3018 163.451 36.9098 163.131C36.5178 162.812 36.0234 162.652 35.4268 162.652C34.826 162.652 34.3274 162.812 33.9311 163.131C33.5391 163.451 33.2472 163.875 33.0554 164.403C32.8679 164.928 32.7741 165.503 32.7741 166.129C32.7741 166.76 32.8679 167.337 33.0554 167.862C33.2472 168.386 33.5391 168.805 33.9311 169.121C34.3274 169.436 34.826 169.594 35.4268 169.594ZM46.8031 161.182V162.716H41.2548V161.182H46.8031ZM42.7761 171V160.044C42.7761 159.43 42.9103 158.921 43.1788 158.516C43.4473 158.107 43.8031 157.803 44.2463 157.602C44.6895 157.398 45.171 157.295 45.6909 157.295C46.0744 157.295 46.4025 157.327 46.6752 157.391C46.948 157.451 47.1504 157.506 47.2825 157.558L46.8351 159.104C46.7456 159.079 46.6305 159.049 46.4899 159.015C46.3493 158.977 46.1788 158.957 45.9785 158.957C45.514 158.957 45.1816 159.072 44.9814 159.303C44.7853 159.533 44.6873 159.865 44.6873 160.3V171H42.7761ZM53.4476 161.182V162.716H47.8993V161.182H53.4476ZM49.4206 171V160.044C49.4206 159.43 49.5549 158.921 49.8233 158.516C50.0918 158.107 50.4476 157.803 50.8908 157.602C51.334 157.398 51.8155 157.295 52.3354 157.295C52.7189 157.295 53.0471 157.327 53.3198 157.391C53.5925 157.451 53.7949 157.506 53.927 157.558L53.4796 159.104C53.3901 159.079 53.275 159.049 53.1344 159.015C52.9938 158.977 52.8233 158.957 52.623 158.957C52.1586 158.957 51.8262 159.072 51.6259 159.303C51.4299 159.533 51.3319 159.865 51.3319 160.3V171H49.4206ZM55.4196 171V161.182H57.3308V171H55.4196ZM56.3848 159.667C56.0524 159.667 55.7669 159.556 55.5282 159.335C55.2939 159.109 55.1767 158.84 55.1767 158.529C55.1767 158.214 55.2939 157.945 55.5282 157.724C55.7669 157.498 56.0524 157.385 56.3848 157.385C56.7172 157.385 57.0005 157.498 57.2349 157.724C57.4735 157.945 57.5929 158.214 57.5929 158.529C57.5929 158.84 57.4735 159.109 57.2349 159.335C57.0005 159.556 56.7172 159.667 56.3848 159.667ZM64.0376 171.198C63.0874 171.198 62.2692 170.983 61.5831 170.553C60.9013 170.118 60.3771 169.519 60.0107 168.756C59.6442 167.994 59.4609 167.12 59.4609 166.136C59.4609 165.138 59.6484 164.259 60.0234 163.496C60.3984 162.729 60.9268 162.13 61.6087 161.7C62.2905 161.269 63.0938 161.054 64.0185 161.054C64.7642 161.054 65.429 161.192 66.0128 161.469C66.5966 161.742 67.0675 162.126 67.4254 162.62C67.7876 163.114 68.0028 163.692 68.071 164.352H66.2109C66.1087 163.892 65.8743 163.496 65.5078 163.163C65.1456 162.831 64.6598 162.665 64.0504 162.665C63.5178 162.665 63.0511 162.805 62.6506 163.087C62.2543 163.364 61.9453 163.76 61.7237 164.276C61.5021 164.787 61.3913 165.392 61.3913 166.091C61.3913 166.807 61.5 167.425 61.7173 167.945C61.9347 168.464 62.2415 168.867 62.6378 169.153C63.0384 169.438 63.5092 169.581 64.0504 169.581C64.4126 169.581 64.7408 169.515 65.0348 169.383C65.3331 169.246 65.5824 169.053 65.7827 168.801C65.9872 168.55 66.13 168.247 66.2109 167.893H68.071C68.0028 168.528 67.7962 169.095 67.451 169.594C67.1058 170.092 66.6435 170.484 66.0639 170.77C65.4886 171.055 64.8132 171.198 64.0376 171.198ZM74.3464 171.198C73.3791 171.198 72.546 170.991 71.8471 170.578C71.1525 170.161 70.6156 169.575 70.2363 168.82C69.8613 168.062 69.6738 167.173 69.6738 166.155C69.6738 165.149 69.8613 164.263 70.2363 163.496C70.6156 162.729 71.144 162.13 71.8216 161.7C72.5034 161.269 73.3002 161.054 74.2122 161.054C74.7662 161.054 75.3031 161.146 75.823 161.329C76.3429 161.512 76.8095 161.8 77.2228 162.192C77.6362 162.584 77.9622 163.093 78.2008 163.719C78.4395 164.342 78.5588 165.098 78.5588 165.989V166.666H70.7541V165.234H76.6859C76.6859 164.732 76.5836 164.286 76.3791 163.898C76.1745 163.506 75.8869 163.197 75.5162 162.972C75.1497 162.746 74.7193 162.633 74.225 162.633C73.688 162.633 73.2193 162.765 72.8187 163.029C72.4224 163.289 72.1156 163.63 71.8983 164.052C71.6852 164.469 71.5787 164.923 71.5787 165.413V166.532C71.5787 167.188 71.6937 167.746 71.9238 168.207C72.1582 168.667 72.4842 169.018 72.9018 169.261C73.3194 169.5 73.8074 169.619 74.3656 169.619C74.7278 169.619 75.0581 169.568 75.3564 169.466C75.6547 169.359 75.9125 169.202 76.1298 168.993C76.3471 168.784 76.5133 168.526 76.6284 168.219L78.4373 168.545C78.2924 169.078 78.0325 169.545 77.6575 169.945C77.2868 170.342 76.8201 170.651 76.2576 170.872C75.6994 171.089 75.0623 171.198 74.3464 171.198ZM88.0366 163.579L86.3043 163.886C86.2319 163.664 86.1168 163.453 85.9592 163.253C85.8058 163.053 85.5969 162.888 85.3327 162.761C85.0685 162.633 84.7383 162.569 84.342 162.569C83.8008 162.569 83.3491 162.69 82.9869 162.933C82.6246 163.172 82.4435 163.481 82.4435 163.86C82.4435 164.188 82.565 164.452 82.8079 164.653C83.0508 164.853 83.4428 165.017 83.984 165.145L85.5437 165.503C86.4471 165.712 87.1204 166.033 87.5636 166.468C88.0067 166.903 88.2283 167.467 88.2283 168.162C88.2283 168.75 88.0579 169.274 87.717 169.734C87.3803 170.19 86.9094 170.548 86.3043 170.808C85.7035 171.068 85.0067 171.198 84.2141 171.198C83.1147 171.198 82.2177 170.964 81.5231 170.495C80.8285 170.022 80.4023 169.351 80.2447 168.482L82.092 168.2C82.207 168.682 82.4435 169.046 82.8015 169.293C83.1594 169.536 83.6261 169.658 84.2013 169.658C84.8278 169.658 85.3285 169.528 85.7035 169.268C86.0785 169.004 86.266 168.682 86.266 168.303C86.266 167.996 86.1509 167.738 85.9208 167.529C85.695 167.32 85.3477 167.163 84.8789 167.056L83.217 166.692C82.3008 166.483 81.6232 166.151 81.1843 165.695C80.7496 165.239 80.5323 164.661 80.5323 163.962C80.5323 163.383 80.6942 162.876 81.0181 162.441C81.342 162.006 81.7894 161.668 82.3604 161.425C82.9315 161.178 83.5856 161.054 84.3228 161.054C85.3839 161.054 86.2191 161.284 86.8285 161.744C87.4379 162.2 87.8406 162.812 88.0366 163.579Z" fill="#1C1C1E"/>
<path opacity="0.7" d="M34.0014 210.273L34.1229 207.575L31.8473 209.039L31.1506 207.825L33.5668 206.591L31.1506 205.357L31.8473 204.143L34.1229 205.607L34.0014 202.909H35.3885L35.267 205.607L37.5426 204.143L38.2393 205.357L35.8232 206.591L38.2393 207.825L37.5426 209.039L35.267 207.575L35.3885 210.273H34.0014ZM40.8249 216V202.909H42.8001V208.598H49.3264V202.909H51.3079V216H49.3264V210.292H42.8001V216H40.8249ZM58.2624 216.198C57.2951 216.198 56.462 215.991 55.7631 215.578C55.0685 215.161 54.5316 214.575 54.1523 213.82C53.7773 213.062 53.5898 212.173 53.5898 211.155C53.5898 210.149 53.7773 209.263 54.1523 208.496C54.5316 207.729 55.06 207.13 55.7376 206.7C56.4194 206.269 57.2163 206.054 58.1282 206.054C58.6822 206.054 59.2191 206.146 59.739 206.329C60.2589 206.512 60.7255 206.8 61.1388 207.192C61.5522 207.584 61.8782 208.093 62.1168 208.719C62.3555 209.342 62.4748 210.098 62.4748 210.989V211.666H54.6701V210.234H60.6019C60.6019 209.732 60.4996 209.286 60.2951 208.898C60.0906 208.506 59.8029 208.197 59.4322 207.972C59.0657 207.746 58.6353 207.633 58.141 207.633C57.604 207.633 57.1353 207.765 56.7347 208.029C56.3384 208.289 56.0316 208.63 55.8143 209.052C55.6012 209.469 55.4947 209.923 55.4947 210.413V211.532C55.4947 212.188 55.6097 212.746 55.8398 213.207C56.0742 213.667 56.4002 214.018 56.8178 214.261C57.2354 214.5 57.7234 214.619 58.2816 214.619C58.6438 214.619 58.9741 214.568 59.2724 214.466C59.5707 214.359 59.8285 214.202 60.0458 213.993C60.2631 213.784 60.4293 213.526 60.5444 213.219L62.3533 213.545C62.2085 214.078 61.9485 214.545 61.5735 214.945C61.2028 215.342 60.7362 215.651 60.1737 215.872C59.6154 216.089 58.9783 216.198 58.2624 216.198ZM68.731 216.198C67.8105 216.198 67.0073 215.987 66.3212 215.565C65.6351 215.143 65.1025 214.553 64.7232 213.795C64.3439 213.036 64.1543 212.15 64.1543 211.136C64.1543 210.117 64.3439 209.227 64.7232 208.464C65.1025 207.701 65.6351 207.109 66.3212 206.687C67.0073 206.265 67.8105 206.054 68.731 206.054C69.6515 206.054 70.4547 206.265 71.1408 206.687C71.8269 207.109 72.3596 207.701 72.7388 208.464C73.1181 209.227 73.3077 210.117 73.3077 211.136C73.3077 212.15 73.1181 213.036 72.7388 213.795C72.3596 214.553 71.8269 215.143 71.1408 215.565C70.4547 215.987 69.6515 216.198 68.731 216.198ZM68.7374 214.594C69.334 214.594 69.8283 214.436 70.2203 214.121C70.6124 213.805 70.9022 213.386 71.0897 212.862C71.2814 212.337 71.3773 211.76 71.3773 211.129C71.3773 210.503 71.2814 209.928 71.0897 209.403C70.9022 208.875 70.6124 208.451 70.2203 208.131C69.8283 207.812 69.334 207.652 68.7374 207.652C68.1365 207.652 67.638 207.812 67.2417 208.131C66.8496 208.451 66.5577 208.875 66.3659 209.403C66.1784 209.928 66.0847 210.503 66.0847 211.129C66.0847 211.76 66.1784 212.337 66.3659 212.862C66.5577 213.386 66.8496 213.805 67.2417 214.121C67.638 214.436 68.1365 214.594 68.7374 214.594ZM74.2585 207.831V206.182H82.5426V207.831H79.3402V216H77.4737V207.831H74.2585ZM84.5641 216V206.182H86.4753V210.298H87.3958L90.6365 206.182H93.0016L89.1983 210.957L93.0463 216H90.6749L87.7154 212.075H86.4753V216H84.5641ZM94.5309 219.682V206.182H96.3974V207.773H96.5572C96.668 207.569 96.8278 207.332 97.0366 207.064C97.2454 206.795 97.5352 206.561 97.9059 206.361C98.2766 206.156 98.7667 206.054 99.3761 206.054C100.169 206.054 100.876 206.254 101.498 206.655C102.12 207.055 102.608 207.633 102.962 208.387C103.32 209.141 103.499 210.049 103.499 211.11C103.499 212.171 103.322 213.081 102.968 213.839C102.615 214.594 102.129 215.175 101.511 215.585C100.893 215.989 100.188 216.192 99.3952 216.192C98.7987 216.192 98.3107 216.092 97.9315 215.891C97.5565 215.691 97.2624 215.457 97.0494 215.188C96.8363 214.92 96.6722 214.681 96.5572 214.472H96.4421V219.682H94.5309ZM96.4038 211.091C96.4038 211.781 96.5039 212.386 96.7042 212.906C96.9045 213.426 97.1942 213.833 97.5735 214.127C97.9528 214.417 98.4173 214.562 98.967 214.562C99.538 214.562 100.015 214.411 100.399 214.108C100.782 213.801 101.072 213.386 101.268 212.862C101.468 212.337 101.569 211.747 101.569 211.091C101.569 210.443 101.471 209.862 101.275 209.346C101.083 208.83 100.793 208.423 100.405 208.125C100.022 207.827 99.5423 207.678 98.967 207.678C98.413 207.678 97.9442 207.82 97.5607 208.106C97.1815 208.391 96.8938 208.79 96.6978 209.301C96.5018 209.812 96.4038 210.409 96.4038 211.091ZM107.078 209.557H109.929C111.131 209.557 112.056 209.855 112.703 210.452C113.351 211.048 113.675 211.817 113.675 212.759C113.675 213.373 113.53 213.925 113.24 214.415C112.951 214.905 112.527 215.293 111.968 215.578C111.41 215.859 110.73 216 109.929 216H105.64V206.182H107.513V214.351H109.929C110.479 214.351 110.931 214.208 111.284 213.923C111.638 213.633 111.815 213.264 111.815 212.817C111.815 212.344 111.638 211.958 111.284 211.66C110.931 211.357 110.479 211.206 109.929 211.206H107.078V209.557ZM115.069 216V206.182H116.98V216H115.069ZM118.995 207.831V206.182H127.279V207.831H124.077V216H122.21V207.831H118.995ZM130.739 209.557H133.589C134.791 209.557 135.716 209.855 136.364 210.452C137.011 211.048 137.335 211.817 137.335 212.759C137.335 213.373 137.19 213.925 136.901 214.415C136.611 214.905 136.187 215.293 135.629 215.578C135.07 215.859 134.391 216 133.589 216H129.3V206.182H131.173V214.351H133.589C134.139 214.351 134.591 214.208 134.945 213.923C135.298 213.633 135.475 213.264 135.475 212.817C135.475 212.344 135.298 211.958 134.945 211.66C134.591 211.357 134.139 211.206 133.589 211.206H130.739V209.557ZM138.729 216V206.182H140.64V216H138.729ZM147.436 216.198C146.469 216.198 145.636 215.991 144.937 215.578C144.242 215.161 143.705 214.575 143.326 213.82C142.951 213.062 142.764 212.173 142.764 211.155C142.764 210.149 142.951 209.263 143.326 208.496C143.705 207.729 144.234 207.13 144.911 206.7C145.593 206.269 146.39 206.054 147.302 206.054C147.856 206.054 148.393 206.146 148.913 206.329C149.433 206.512 149.899 206.8 150.313 207.192C150.726 207.584 151.052 208.093 151.291 208.719C151.529 209.342 151.649 210.098 151.649 210.989V211.666H143.844V210.234H149.776C149.776 209.732 149.673 209.286 149.469 208.898C149.264 208.506 148.977 208.197 148.606 207.972C148.24 207.746 147.809 207.633 147.315 207.633C146.778 207.633 146.309 207.765 145.909 208.029C145.512 208.289 145.205 208.63 144.988 209.052C144.775 209.469 144.669 209.923 144.669 210.413V211.532C144.669 212.188 144.784 212.746 145.014 213.207C145.248 213.667 145.574 214.018 145.992 214.261C146.409 214.5 146.897 214.619 147.455 214.619C147.818 214.619 148.148 214.568 148.446 214.466C148.744 214.359 149.002 214.202 149.22 213.993C149.437 213.784 149.603 213.526 149.718 213.219L151.527 213.545C151.382 214.078 151.122 214.545 150.747 214.945C150.377 215.342 149.91 215.651 149.347 215.872C148.789 216.089 148.152 216.198 147.436 216.198ZM162.669 216.198C161.748 216.198 160.945 215.987 160.259 215.565C159.573 215.143 159.04 214.553 158.661 213.795C158.281 213.036 158.092 212.15 158.092 211.136C158.092 210.117 158.281 209.227 158.661 208.464C159.04 207.701 159.573 207.109 160.259 206.687C160.945 206.265 161.748 206.054 162.669 206.054C163.589 206.054 164.392 206.265 165.078 206.687C165.764 207.109 166.297 207.701 166.676 208.464C167.056 209.227 167.245 210.117 167.245 211.136C167.245 212.15 167.056 213.036 166.676 213.795C166.297 214.553 165.764 215.143 165.078 215.565C164.392 215.987 163.589 216.198 162.669 216.198ZM162.675 214.594C163.271 214.594 163.766 214.436 164.158 214.121C164.55 213.805 164.84 213.386 165.027 212.862C165.219 212.337 165.315 211.76 165.315 211.129C165.315 210.503 165.219 209.928 165.027 209.403C164.84 208.875 164.55 208.451 164.158 208.131C163.766 207.812 163.271 207.652 162.675 207.652C162.074 207.652 161.575 207.812 161.179 208.131C160.787 208.451 160.495 208.875 160.303 209.403C160.116 209.928 160.022 210.503 160.022 211.129C160.022 211.76 160.116 212.337 160.303 212.862C160.495 213.386 160.787 213.805 161.179 214.121C161.575 214.436 162.074 214.594 162.675 214.594ZM173.604 219.343V202.909H175.515V219.343H173.604ZM173.604 216.198C172.909 216.198 172.276 216.079 171.705 215.84C171.134 215.597 170.642 215.252 170.229 214.805C169.815 214.357 169.496 213.822 169.27 213.2C169.048 212.578 168.938 211.89 168.938 211.136C168.938 210.373 169.048 209.68 169.27 209.058C169.496 208.436 169.815 207.901 170.229 207.454C170.642 207.006 171.134 206.661 171.705 206.418C172.276 206.175 172.909 206.054 173.604 206.054H174.077V216.198H173.604ZM173.604 214.587H173.872V207.665H173.604C173.143 207.665 172.743 207.759 172.402 207.946C172.061 208.129 171.778 208.383 171.552 208.707C171.326 209.026 171.156 209.395 171.04 209.812C170.93 210.23 170.874 210.671 170.874 211.136C170.874 211.758 170.974 212.331 171.175 212.855C171.375 213.375 171.678 213.795 172.082 214.114C172.487 214.43 172.994 214.587 173.604 214.587ZM175.515 216.198H175.036V206.054H175.515C176.21 206.054 176.842 206.175 177.413 206.418C177.984 206.661 178.474 207.006 178.884 207.454C179.297 207.901 179.614 208.436 179.836 209.058C180.062 209.68 180.175 210.373 180.175 211.136C180.175 211.89 180.062 212.578 179.836 213.2C179.614 213.822 179.297 214.357 178.884 214.805C178.474 215.252 177.984 215.597 177.413 215.84C176.842 216.079 176.21 216.198 175.515 216.198ZM175.515 214.587C175.975 214.587 176.376 214.498 176.717 214.319C177.058 214.136 177.341 213.884 177.567 213.565C177.793 213.241 177.961 212.872 178.072 212.459C178.183 212.041 178.238 211.6 178.238 211.136C178.238 210.518 178.138 209.947 177.938 209.423C177.741 208.894 177.441 208.47 177.036 208.151C176.631 207.827 176.124 207.665 175.515 207.665H175.24V214.587H175.515ZM184.171 213.322L188.499 206.182H190.557V216H188.684V208.854L184.376 216H182.298V206.182H184.171V213.322ZM197.262 216.198C196.312 216.198 195.494 215.983 194.808 215.553C194.126 215.118 193.602 214.519 193.235 213.756C192.869 212.994 192.686 212.12 192.686 211.136C192.686 210.138 192.873 209.259 193.248 208.496C193.623 207.729 194.151 207.13 194.833 206.7C195.515 206.269 196.318 206.054 197.243 206.054C197.989 206.054 198.654 206.192 199.237 206.469C199.821 206.742 200.292 207.126 200.65 207.62C201.012 208.114 201.227 208.692 201.296 209.352H199.436C199.333 208.892 199.099 208.496 198.732 208.163C198.37 207.831 197.884 207.665 197.275 207.665C196.742 207.665 196.276 207.805 195.875 208.087C195.479 208.364 195.17 208.76 194.948 209.276C194.727 209.787 194.616 210.392 194.616 211.091C194.616 211.807 194.725 212.425 194.942 212.945C195.159 213.464 195.466 213.867 195.862 214.153C196.263 214.438 196.734 214.581 197.275 214.581C197.637 214.581 197.965 214.515 198.259 214.383C198.558 214.246 198.807 214.053 199.007 213.801C199.212 213.55 199.355 213.247 199.436 212.893H201.296C201.227 213.528 201.021 214.095 200.676 214.594C200.33 215.092 199.868 215.484 199.289 215.77C198.713 216.055 198.038 216.198 197.262 216.198ZM204.778 209.557H207.629C208.83 209.557 209.755 209.855 210.403 210.452C211.05 211.048 211.374 211.817 211.374 212.759C211.374 213.373 211.229 213.925 210.94 214.415C210.65 214.905 210.226 215.293 209.668 215.578C209.109 215.859 208.43 216 207.629 216H203.339V206.182H205.212V214.351H207.629C208.178 214.351 208.63 214.208 208.984 213.923C209.337 213.633 209.514 213.264 209.514 212.817C209.514 212.344 209.337 211.958 208.984 211.66C208.63 211.357 208.178 211.206 207.629 211.206H204.778V209.557ZM212.768 216V206.182H214.679V216H212.768ZM219.73 214.21L219.634 214.907C219.57 215.418 219.462 215.951 219.308 216.505C219.159 217.063 219.004 217.581 218.842 218.058C218.684 218.536 218.554 218.915 218.452 219.196H217.097C217.152 218.932 217.229 218.574 217.327 218.122C217.425 217.675 217.521 217.174 217.615 216.62C217.708 216.066 217.779 215.501 217.825 214.926L217.889 214.21H219.73ZM30.326 240.832V236.344H31.125C31.3295 236.157 31.5021 235.933 31.6428 235.673C31.7876 235.413 31.9091 235.104 32.0071 234.746C32.1094 234.388 32.1946 233.971 32.2628 233.494C32.331 233.012 32.3906 232.462 32.4418 231.844L32.7486 228.182H39.4219V236.344H40.9304V240.832H39.0639V238H32.218V240.832H30.326ZM33.1705 236.344H37.5554V229.818H34.4616L34.2571 231.844C34.1591 232.876 34.0355 233.771 33.8864 234.529C33.7372 235.283 33.4986 235.888 33.1705 236.344ZM44.0066 241.682C43.7211 241.682 43.4611 241.658 43.2267 241.612C42.9924 241.569 42.8176 241.522 42.7026 241.471L43.1628 239.905C43.5123 239.999 43.8233 240.039 44.0961 240.026C44.3688 240.013 44.6096 239.911 44.8184 239.719C45.0314 239.528 45.2189 239.214 45.3809 238.78L45.6174 238.128L42.025 228.182H44.0705L46.557 235.801H46.6593L49.1458 228.182H51.1976L47.1515 239.31C46.964 239.822 46.7253 240.254 46.4355 240.608C46.1458 240.966 45.8006 241.234 45.4 241.413C44.9995 241.592 44.535 241.682 44.0066 241.682ZM58.5037 235.635L61.6742 228.182H63.3233L59.2132 238H57.7942L53.7672 228.182H55.3972L58.5037 235.635ZM54.8667 228.182V238H52.9938V228.182H54.8667ZM62.1919 238V228.182H64.052V238H62.1919ZM69.4565 238.217C68.8343 238.217 68.2718 238.102 67.769 237.872C67.2662 237.638 66.8677 237.299 66.5737 236.856C66.2839 236.413 66.139 235.869 66.139 235.226C66.139 234.672 66.2456 234.216 66.4586 233.858C66.6717 233.5 66.9593 233.217 67.3216 233.008C67.6838 232.799 68.0886 232.641 68.536 232.535C68.9835 232.428 69.4395 232.347 69.9039 232.292C70.492 232.224 70.9693 232.168 71.3358 232.126C71.7022 232.079 71.9686 232.004 72.1348 231.902C72.301 231.8 72.3841 231.634 72.3841 231.403V231.359C72.3841 230.8 72.2264 230.368 71.911 230.061C71.6 229.754 71.1355 229.601 70.5176 229.601C69.8741 229.601 69.367 229.744 68.9963 230.029C68.6298 230.31 68.3762 230.624 68.2356 230.969L66.4395 230.56C66.6525 229.963 66.9636 229.482 67.3727 229.115C67.786 228.744 68.2612 228.476 68.7981 228.31C69.335 228.139 69.8997 228.054 70.492 228.054C70.8841 228.054 71.2995 228.101 71.7385 228.195C72.1816 228.284 72.595 228.45 72.9785 228.693C73.3663 228.936 73.6838 229.283 73.9309 229.735C74.1781 230.183 74.3017 230.764 74.3017 231.48V238H72.4352V236.658H72.3585C72.2349 236.905 72.0495 237.148 71.8024 237.386C71.5552 237.625 71.2377 237.823 70.85 237.981C70.4622 238.138 69.9977 238.217 69.4565 238.217ZM69.872 236.683C70.4004 236.683 70.8521 236.579 71.2271 236.37C71.6064 236.161 71.894 235.888 72.09 235.552C72.2903 235.211 72.3904 234.847 72.3904 234.459V233.193C72.3223 233.261 72.1902 233.325 71.9941 233.385C71.8024 233.44 71.5829 233.489 71.3358 233.532C71.0886 233.57 70.8478 233.607 70.6135 233.641C70.3791 233.67 70.1831 233.696 70.0254 233.717C69.6547 233.764 69.3159 233.843 69.0091 233.954C68.7065 234.065 68.4636 234.224 68.2804 234.433C68.1014 234.638 68.0119 234.911 68.0119 235.251C68.0119 235.724 68.1866 236.082 68.536 236.325C68.8855 236.564 69.3308 236.683 69.872 236.683ZM81.7884 232.337V233.999H76.5533V232.337H81.7884ZM78.1065 228.182V238H76.1953V228.182H78.1065ZM84.7798 238.198C83.8679 238.198 83.071 237.985 82.3892 237.559C81.7074 237.133 81.179 236.54 80.804 235.782C80.429 235.019 80.2415 234.135 80.2415 233.129C80.2415 232.115 80.429 231.229 80.804 230.47C81.179 229.707 81.7074 229.115 82.3892 228.693C83.071 228.267 83.8679 228.054 84.7798 228.054C85.696 228.054 86.4929 228.267 87.1705 228.693C87.8523 229.115 88.3807 229.707 88.7557 230.47C89.1349 231.229 89.3246 232.115 89.3246 233.129C89.3246 234.135 89.1349 235.019 88.7557 235.782C88.3807 236.54 87.8523 237.133 87.1705 237.559C86.4929 237.985 85.696 238.198 84.7798 238.198ZM84.7798 236.562C85.3977 236.562 85.9027 236.406 86.2947 236.095C86.6911 235.78 86.983 235.362 87.1705 234.842C87.358 234.322 87.4517 233.751 87.4517 233.129C87.4517 232.503 87.358 231.93 87.1705 231.41C86.983 230.886 86.6911 230.466 86.2947 230.151C85.9027 229.835 85.3977 229.678 84.7798 229.678C84.1662 229.678 83.6612 229.835 83.2649 230.151C82.8686 230.466 82.5767 230.886 82.3892 231.41C82.2017 231.93 82.108 232.503 82.108 233.129C82.108 233.751 82.2017 234.322 82.3892 234.842C82.5767 235.362 82.8686 235.78 83.2649 236.095C83.6612 236.406 84.1662 236.562 84.7798 236.562ZM95.568 238L95.5616 236.344H95.9132C96.1859 236.344 96.4139 236.287 96.5971 236.172C96.7846 236.053 96.938 235.852 97.0574 235.571C97.1767 235.29 97.2683 234.902 97.3322 234.408C97.3961 233.909 97.443 233.283 97.4728 232.528L97.6454 228.182H104.498V238H102.625V229.831H99.416L99.2626 233.168C99.2243 233.977 99.1412 234.685 99.0133 235.29C98.8897 235.895 98.7086 236.4 98.47 236.805C98.2314 237.205 97.9245 237.506 97.5495 237.706C97.1745 237.902 96.7186 238 96.1816 238H95.568ZM107.903 241.682C107.618 241.682 107.358 241.658 107.123 241.612C106.889 241.569 106.714 241.522 106.599 241.471L107.059 239.905C107.409 239.999 107.72 240.039 107.993 240.026C108.265 240.013 108.506 239.911 108.715 239.719C108.928 239.528 109.115 239.214 109.277 238.78L109.514 238.128L105.922 228.182H107.967L110.453 235.801H110.556L113.042 228.182H115.094L111.048 239.31C110.86 239.822 110.622 240.254 110.332 240.608C110.042 240.966 109.697 241.234 109.297 241.413C108.896 241.592 108.431 241.682 107.903 241.682ZM124.49 228.182V238H122.624V228.182H124.49ZM123.679 232.739V234.388C123.385 234.508 123.074 234.614 122.745 234.708C122.417 234.798 122.072 234.868 121.71 234.919C121.348 234.97 120.971 234.996 120.578 234.996C119.364 234.996 118.399 234.7 117.683 234.107C116.967 233.511 116.609 232.599 116.609 231.371V228.163H118.469V231.371C118.469 231.836 118.554 232.213 118.725 232.503C118.895 232.793 119.138 233.006 119.453 233.142C119.769 233.278 120.144 233.347 120.578 233.347C121.154 233.347 121.684 233.293 122.17 233.187C122.66 233.076 123.163 232.927 123.679 232.739ZM127.033 228.182H128.906V236.344H132.3V228.182H134.173V236.344H137.567V228.182H139.44V238H127.033V228.182ZM146.223 238.198C145.256 238.198 144.423 237.991 143.724 237.578C143.029 237.161 142.493 236.575 142.113 235.82C141.738 235.062 141.551 234.173 141.551 233.155C141.551 232.149 141.738 231.263 142.113 230.496C142.493 229.729 143.021 229.13 143.699 228.7C144.38 228.269 145.177 228.054 146.089 228.054C146.643 228.054 147.18 228.146 147.7 228.329C148.22 228.512 148.686 228.8 149.1 229.192C149.513 229.584 149.839 230.093 150.078 230.719C150.316 231.342 150.436 232.098 150.436 232.989V233.666H142.631V232.234H148.563C148.563 231.732 148.461 231.286 148.256 230.898C148.051 230.506 147.764 230.197 147.393 229.972C147.027 229.746 146.596 229.633 146.102 229.633C145.565 229.633 145.096 229.765 144.696 230.029C144.299 230.289 143.993 230.63 143.775 231.052C143.562 231.469 143.456 231.923 143.456 232.413V233.532C143.456 234.188 143.571 234.746 143.801 235.207C144.035 235.667 144.361 236.018 144.779 236.261C145.196 236.5 145.684 236.619 146.243 236.619C146.605 236.619 146.935 236.568 147.233 236.466C147.532 236.359 147.789 236.202 148.007 235.993C148.224 235.784 148.39 235.526 148.505 235.219L150.314 235.545C150.169 236.078 149.909 236.545 149.534 236.945C149.164 237.342 148.697 237.651 148.135 237.872C147.576 238.089 146.939 238.198 146.223 238.198ZM35.4205 260.198C34.5 260.198 33.6967 259.987 33.0107 259.565C32.3246 259.143 31.7919 258.553 31.4126 257.795C31.0334 257.036 30.8438 256.15 30.8438 255.136C30.8438 254.117 31.0334 253.227 31.4126 252.464C31.7919 251.701 32.3246 251.109 33.0107 250.687C33.6967 250.265 34.5 250.054 35.4205 250.054C36.3409 250.054 37.1442 250.265 37.8303 250.687C38.5163 251.109 39.049 251.701 39.4283 252.464C39.8075 253.227 39.9972 254.117 39.9972 255.136C39.9972 256.15 39.8075 257.036 39.4283 257.795C39.049 258.553 38.5163 259.143 37.8303 259.565C37.1442 259.987 36.3409 260.198 35.4205 260.198ZM35.4268 258.594C36.0234 258.594 36.5178 258.436 36.9098 258.121C37.3018 257.805 37.5916 257.386 37.7791 256.862C37.9709 256.337 38.0668 255.76 38.0668 255.129C38.0668 254.503 37.9709 253.928 37.7791 253.403C37.5916 252.875 37.3018 252.451 36.9098 252.131C36.5178 251.812 36.0234 251.652 35.4268 251.652C34.826 251.652 34.3274 251.812 33.9311 252.131C33.5391 252.451 33.2472 252.875 33.0554 253.403C32.8679 253.928 32.7741 254.503 32.7741 255.129C32.7741 255.76 32.8679 256.337 33.0554 256.862C33.2472 257.386 33.5391 257.805 33.9311 258.121C34.3274 258.436 34.826 258.594 35.4268 258.594ZM40.948 251.831V250.182H49.2321V251.831H46.0297V260H44.1632V251.831H40.948ZM54.9322 260.198C54.0117 260.198 53.2085 259.987 52.5224 259.565C51.8363 259.143 51.3036 258.553 50.9244 257.795C50.5451 257.036 50.3555 256.15 50.3555 255.136C50.3555 254.117 50.5451 253.227 50.9244 252.464C51.3036 251.701 51.8363 251.109 52.5224 250.687C53.2085 250.265 54.0117 250.054 54.9322 250.054C55.8526 250.054 56.6559 250.265 57.342 250.687C58.0281 251.109 58.5607 251.701 58.94 252.464C59.3192 253.227 59.5089 254.117 59.5089 255.136C59.5089 256.15 59.3192 257.036 58.94 257.795C58.5607 258.553 58.0281 259.143 57.342 259.565C56.6559 259.987 55.8526 260.198 54.9322 260.198ZM54.9386 258.594C55.5352 258.594 56.0295 258.436 56.4215 258.121C56.8136 257.805 57.1033 257.386 57.2908 256.862C57.4826 256.337 57.5785 255.76 57.5785 255.129C57.5785 254.503 57.4826 253.928 57.2908 253.403C57.1033 252.875 56.8136 252.451 56.4215 252.131C56.0295 251.812 55.5352 251.652 54.9386 251.652C54.3377 251.652 53.8391 251.812 53.4428 252.131C53.0508 252.451 52.7589 252.875 52.5671 253.403C52.3796 253.928 52.2859 254.503 52.2859 255.129C52.2859 255.76 52.3796 256.337 52.5671 256.862C52.7589 257.386 53.0508 257.805 53.4428 258.121C53.8391 258.436 54.3377 258.594 54.9386 258.594ZM69.2168 246.526L70.0094 247.734C69.7154 248.002 69.3809 248.194 69.0059 248.309C68.6351 248.42 68.2069 248.49 67.7211 248.52C67.2353 248.545 66.6792 248.569 66.0527 248.59C65.3453 248.612 64.7637 248.765 64.3077 249.05C63.8517 249.332 63.5002 249.749 63.253 250.303C63.0101 250.853 62.8525 251.543 62.78 252.374H62.9015C63.2211 251.765 63.6642 251.309 64.231 251.006C64.802 250.704 65.4434 250.553 66.155 250.553C66.9476 250.553 67.6529 250.734 68.2708 251.096C68.8887 251.458 69.3745 251.989 69.7282 252.688C70.0861 253.382 70.2651 254.232 70.2651 255.238C70.2651 256.256 70.0776 257.136 69.7026 257.878C69.3319 258.619 68.8077 259.192 68.1301 259.597C67.4569 259.998 66.6621 260.198 65.7459 260.198C64.8297 260.198 64.0307 259.991 63.3489 259.578C62.6713 259.161 62.1451 258.543 61.7701 257.724C61.3993 256.906 61.214 255.896 61.214 254.695V253.723C61.214 251.477 61.6145 249.788 62.4157 248.654C63.2168 247.521 64.4142 246.939 66.008 246.909C66.5236 246.896 66.9838 246.894 67.3887 246.903C67.7935 246.907 68.1472 246.888 68.4498 246.845C68.7566 246.798 69.0123 246.692 69.2168 246.526ZM65.7523 258.594C66.285 258.594 66.7431 258.46 67.1266 258.191C67.5144 257.918 67.8127 257.533 68.0215 257.034C68.2303 256.536 68.3347 255.947 68.3347 255.27C68.3347 254.605 68.2303 254.04 68.0215 253.576C67.8127 253.112 67.5144 252.758 67.1266 252.515C66.7388 252.268 66.2743 252.144 65.7331 252.144C65.3326 252.144 64.9746 252.214 64.6593 252.355C64.3439 252.491 64.0733 252.694 63.8475 252.962C63.6259 253.231 63.4533 253.559 63.3297 253.947C63.2104 254.33 63.1465 254.771 63.138 255.27C63.138 256.284 63.3702 257.092 63.8347 257.692C64.3034 258.293 64.9426 258.594 65.7523 258.594ZM72.4 263.682V250.182H74.2665V251.773H74.4263C74.5371 251.569 74.6969 251.332 74.9057 251.064C75.1145 250.795 75.4043 250.561 75.775 250.361C76.1458 250.156 76.6358 250.054 77.2452 250.054C78.0378 250.054 78.7452 250.254 79.3674 250.655C79.9895 251.055 80.4775 251.633 80.8311 252.387C81.1891 253.141 81.3681 254.049 81.3681 255.11C81.3681 256.171 81.1912 257.081 80.8375 257.839C80.4838 258.594 79.998 259.175 79.3801 259.585C78.7623 259.989 78.057 260.192 77.2644 260.192C76.6678 260.192 76.1799 260.092 75.8006 259.891C75.4256 259.691 75.1316 259.457 74.9185 259.188C74.7054 258.92 74.5414 258.681 74.4263 258.472H74.3113V263.682H72.4ZM74.2729 255.091C74.2729 255.781 74.373 256.386 74.5733 256.906C74.7736 257.426 75.0634 257.833 75.4426 258.127C75.8219 258.417 76.2864 258.562 76.8361 258.562C77.4071 258.562 77.8844 258.411 78.2679 258.108C78.6515 257.801 78.9412 257.386 79.1373 256.862C79.3375 256.337 79.4377 255.747 79.4377 255.091C79.4377 254.443 79.3397 253.862 79.1436 253.346C78.9519 252.83 78.6621 252.423 78.2743 252.125C77.8908 251.827 77.4114 251.678 76.8361 251.678C76.2821 251.678 75.8134 251.82 75.4299 252.106C75.0506 252.391 74.763 252.79 74.5669 253.301C74.3709 253.812 74.2729 254.409 74.2729 255.091ZM86.3667 260.217C85.7445 260.217 85.182 260.102 84.6792 259.872C84.1763 259.638 83.7779 259.299 83.4838 258.856C83.1941 258.413 83.0492 257.869 83.0492 257.226C83.0492 256.672 83.1557 256.216 83.3688 255.858C83.5819 255.5 83.8695 255.217 84.2317 255.008C84.5939 254.799 84.9988 254.641 85.4462 254.535C85.8936 254.428 86.3496 254.347 86.8141 254.292C87.4022 254.224 87.8794 254.168 88.2459 254.126C88.6124 254.079 88.8787 254.004 89.0449 253.902C89.2111 253.8 89.2942 253.634 89.2942 253.403V253.359C89.2942 252.8 89.1365 252.368 88.8212 252.061C88.5101 251.754 88.0456 251.601 87.4277 251.601C86.7843 251.601 86.2772 251.744 85.9064 252.029C85.54 252.31 85.2864 252.624 85.1458 252.969L83.3496 252.56C83.5627 251.963 83.8738 251.482 84.2828 251.115C84.6962 250.744 85.1713 250.476 85.7083 250.31C86.2452 250.139 86.8098 250.054 87.4022 250.054C87.7942 250.054 88.2097 250.101 88.6486 250.195C89.0918 250.284 89.5051 250.45 89.8887 250.693C90.2765 250.936 90.5939 251.283 90.8411 251.735C91.0882 252.183 91.2118 252.764 91.2118 253.48V260H89.3453V258.658H89.2686C89.1451 258.905 88.9597 259.148 88.7125 259.386C88.4654 259.625 88.1479 259.823 87.7601 259.981C87.3723 260.138 86.9078 260.217 86.3667 260.217ZM86.7821 258.683C87.3105 258.683 87.7623 258.579 88.1373 258.37C88.5165 258.161 88.8042 257.888 89.0002 257.552C89.2005 257.211 89.3006 256.847 89.3006 256.459V255.193C89.2324 255.261 89.1003 255.325 88.9043 255.385C88.7125 255.44 88.4931 255.489 88.2459 255.532C87.9988 255.57 87.758 255.607 87.5236 255.641C87.2892 255.67 87.0932 255.696 86.9355 255.717C86.5648 255.764 86.226 255.843 85.9192 255.954C85.6167 256.065 85.3738 256.224 85.1905 256.433C85.0115 256.638 84.9221 256.911 84.9221 257.251C84.9221 257.724 85.0968 258.082 85.4462 258.325C85.7956 258.564 86.2409 258.683 86.7821 258.683ZM93.1758 257.405H95.1317C95.1573 257.805 95.3384 258.114 95.6751 258.332C96.016 258.549 96.457 258.658 96.9982 258.658C97.5479 258.658 98.0167 258.54 98.4045 258.306C98.7923 258.067 98.9862 257.699 98.9862 257.2C98.9862 256.902 98.9116 256.642 98.7624 256.42C98.6175 256.195 98.4109 256.02 98.1424 255.896C97.8782 255.773 97.565 255.711 97.2028 255.711H95.6048V254.209H97.2028C97.744 254.209 98.1488 254.085 98.4173 253.838C98.6857 253.591 98.82 253.282 98.82 252.911C98.82 252.511 98.6751 252.189 98.3853 251.946C98.0998 251.699 97.7013 251.575 97.19 251.575C96.6701 251.575 96.2376 251.692 95.8924 251.927C95.5472 252.157 95.3661 252.455 95.3491 252.822H93.4187C93.4315 252.272 93.5977 251.79 93.9173 251.377C94.2411 250.96 94.6758 250.636 95.2212 250.406C95.771 250.171 96.3952 250.054 97.0941 250.054C97.8228 250.054 98.4535 250.171 98.9862 250.406C99.5188 250.64 99.93 250.964 100.22 251.377C100.514 251.79 100.661 252.266 100.661 252.803C100.661 253.344 100.499 253.787 100.175 254.132C99.8555 254.473 99.4379 254.718 98.9222 254.867V254.969C99.3015 254.995 99.6381 255.11 99.9322 255.315C100.226 255.519 100.456 255.79 100.623 256.126C100.789 256.463 100.872 256.844 100.872 257.271C100.872 257.871 100.706 258.391 100.373 258.83C100.045 259.269 99.5891 259.608 99.0053 259.847C98.4258 260.081 97.7631 260.198 97.0174 260.198C96.293 260.198 95.6431 260.085 95.0678 259.859C94.4968 259.629 94.043 259.305 93.7063 258.888C93.3739 258.47 93.1971 257.976 93.1758 257.405ZM104.718 257.322L109.046 250.182H111.104V260H109.231V252.854L104.923 260H102.845V250.182H104.718V257.322ZM112.456 251.831V250.182H120.74V251.831H117.537V260H115.671V251.831H112.456ZM124.2 253.557H127.05C128.252 253.557 129.177 253.855 129.825 254.452C130.472 255.048 130.796 255.817 130.796 256.759C130.796 257.373 130.651 257.925 130.362 258.415C130.072 258.905 129.648 259.293 129.089 259.578C128.531 259.859 127.852 260 127.05 260H122.761V250.182H124.634V258.351H127.05C127.6 258.351 128.052 258.208 128.406 257.923C128.759 257.633 128.936 257.264 128.936 256.817C128.936 256.344 128.759 255.958 128.406 255.66C128.052 255.357 127.6 255.206 127.05 255.206H124.2V253.557ZM137.703 260V250.182H145.712V260H143.839V251.831H139.563V260H137.703ZM148.267 263.682V250.182H150.134V251.773H150.294C150.404 251.569 150.564 251.332 150.773 251.064C150.982 250.795 151.271 250.561 151.642 250.361C152.013 250.156 152.503 250.054 153.112 250.054C153.905 250.054 154.612 250.254 155.235 250.655C155.857 251.055 156.345 251.633 156.698 252.387C157.056 253.141 157.235 254.049 157.235 255.11C157.235 256.171 157.058 257.081 156.705 257.839C156.351 258.594 155.865 259.175 155.247 259.585C154.629 259.989 153.924 260.192 153.132 260.192C152.535 260.192 152.047 260.092 151.668 259.891C151.293 259.691 150.999 259.457 150.786 259.188C150.573 258.92 150.409 258.681 150.294 258.472H150.178V263.682H148.267ZM150.14 255.091C150.14 255.781 150.24 256.386 150.441 256.906C150.641 257.426 150.931 257.833 151.31 258.127C151.689 258.417 152.154 258.562 152.703 258.562C153.274 258.562 153.752 258.411 154.135 258.108C154.519 257.801 154.808 257.386 155.004 256.862C155.205 256.337 155.305 255.747 155.305 255.091C155.305 254.443 155.207 253.862 155.011 253.346C154.819 252.83 154.529 252.423 154.142 252.125C153.758 251.827 153.279 251.678 152.703 251.678C152.149 251.678 151.681 251.82 151.297 252.106C150.918 252.391 150.63 252.79 150.434 253.301C150.238 253.812 150.14 254.409 150.14 255.091ZM163.512 260.198C162.592 260.198 161.789 259.987 161.102 259.565C160.416 259.143 159.884 258.553 159.504 257.795C159.125 257.036 158.936 256.15 158.936 255.136C158.936 254.117 159.125 253.227 159.504 252.464C159.884 251.701 160.416 251.109 161.102 250.687C161.789 250.265 162.592 250.054 163.512 250.054C164.433 250.054 165.236 250.265 165.922 250.687C166.608 251.109 167.141 251.701 167.52 252.464C167.899 253.227 168.089 254.117 168.089 255.136C168.089 256.15 167.899 257.036 167.52 257.795C167.141 258.553 166.608 259.143 165.922 259.565C165.236 259.987 164.433 260.198 163.512 260.198ZM163.519 258.594C164.115 258.594 164.61 258.436 165.002 258.121C165.394 257.805 165.683 257.386 165.871 256.862C166.063 256.337 166.159 255.76 166.159 255.129C166.159 254.503 166.063 253.928 165.871 253.403C165.683 252.875 165.394 252.451 165.002 252.131C164.61 251.812 164.115 251.652 163.519 251.652C162.918 251.652 162.419 251.812 162.023 252.131C161.631 252.451 161.339 252.875 161.147 253.403C160.96 253.928 160.866 254.503 160.866 255.129C160.866 255.76 160.96 256.337 161.147 256.862C161.339 257.386 161.631 257.805 162.023 258.121C162.419 258.436 162.918 258.594 163.519 258.594ZM174.358 260.198C173.408 260.198 172.589 259.983 171.903 259.553C171.222 259.118 170.697 258.519 170.331 257.756C169.964 256.994 169.781 256.12 169.781 255.136C169.781 254.138 169.969 253.259 170.344 252.496C170.719 251.729 171.247 251.13 171.929 250.7C172.611 250.269 173.414 250.054 174.339 250.054C175.085 250.054 175.749 250.192 176.333 250.469C176.917 250.742 177.388 251.126 177.746 251.62C178.108 252.114 178.323 252.692 178.391 253.352H176.531C176.429 252.892 176.195 252.496 175.828 252.163C175.466 251.831 174.98 251.665 174.371 251.665C173.838 251.665 173.371 251.805 172.971 252.087C172.575 252.364 172.266 252.76 172.044 253.276C171.822 253.787 171.712 254.392 171.712 255.091C171.712 255.807 171.82 256.425 172.038 256.945C172.255 257.464 172.562 257.867 172.958 258.153C173.359 258.438 173.83 258.581 174.371 258.581C174.733 258.581 175.061 258.515 175.355 258.383C175.653 258.246 175.903 258.053 176.103 257.801C176.308 257.55 176.45 257.247 176.531 256.893H178.391C178.323 257.528 178.116 258.095 177.771 258.594C177.426 259.092 176.964 259.484 176.384 259.77C175.809 260.055 175.134 260.198 174.358 260.198ZM179.692 251.831V250.182H187.976V251.831H184.774V260H182.907V251.831H179.692ZM193.676 260.198C192.756 260.198 191.953 259.987 191.267 259.565C190.58 259.143 190.048 258.553 189.669 257.795C189.289 257.036 189.1 256.15 189.1 255.136C189.1 254.117 189.289 253.227 189.669 252.464C190.048 251.701 190.58 251.109 191.267 250.687C191.953 250.265 192.756 250.054 193.676 250.054C194.597 250.054 195.4 250.265 196.086 250.687C196.772 251.109 197.305 251.701 197.684 252.464C198.063 253.227 198.253 254.117 198.253 255.136C198.253 256.15 198.063 257.036 197.684 257.795C197.305 258.553 196.772 259.143 196.086 259.565C195.4 259.987 194.597 260.198 193.676 260.198ZM193.683 258.594C194.279 258.594 194.774 258.436 195.166 258.121C195.558 257.805 195.847 257.386 196.035 256.862C196.227 256.337 196.323 255.76 196.323 255.129C196.323 254.503 196.227 253.928 196.035 253.403C195.847 252.875 195.558 252.451 195.166 252.131C194.774 251.812 194.279 251.652 193.683 251.652C193.082 251.652 192.583 251.812 192.187 252.131C191.795 252.451 191.503 252.875 191.311 253.403C191.124 253.928 191.03 254.503 191.03 255.129C191.03 255.76 191.124 256.337 191.311 256.862C191.503 257.386 191.795 257.805 192.187 258.121C192.583 258.436 193.082 258.594 193.683 258.594ZM205.15 260V250.182H209.222C210.33 250.182 211.208 250.418 211.855 250.891C212.503 251.36 212.827 251.997 212.827 252.803C212.827 253.378 212.644 253.834 212.277 254.17C211.911 254.507 211.425 254.733 210.82 254.848C211.259 254.899 211.661 255.031 212.028 255.244C212.394 255.453 212.688 255.734 212.91 256.088C213.136 256.442 213.249 256.864 213.249 257.354C213.249 257.874 213.115 258.334 212.846 258.734C212.578 259.131 212.188 259.442 211.676 259.668C211.169 259.889 210.558 260 209.842 260H205.15ZM206.946 258.402H209.842C210.315 258.402 210.686 258.289 210.954 258.063C211.222 257.837 211.357 257.531 211.357 257.143C211.357 256.687 211.222 256.329 210.954 256.069C210.686 255.805 210.315 255.673 209.842 255.673H206.946V258.402ZM206.946 254.273H209.241C209.599 254.273 209.906 254.222 210.161 254.119C210.421 254.017 210.619 253.872 210.756 253.685C210.896 253.493 210.967 253.267 210.967 253.007C210.967 252.628 210.811 252.332 210.5 252.119C210.189 251.906 209.763 251.799 209.222 251.799H206.946V254.273ZM31.2848 282V272.182H35.3565C36.4645 272.182 37.3423 272.418 37.9901 272.891C38.6378 273.36 38.9616 273.997 38.9616 274.803C38.9616 275.378 38.7784 275.834 38.4119 276.17C38.0455 276.507 37.5597 276.733 36.9545 276.848C37.3935 276.899 37.7962 277.031 38.1626 277.244C38.5291 277.453 38.8232 277.734 39.0447 278.088C39.2706 278.442 39.3835 278.864 39.3835 279.354C39.3835 279.874 39.2493 280.334 38.9808 280.734C38.7124 281.131 38.3224 281.442 37.8111 281.668C37.304 281.889 36.6925 282 35.9766 282H31.2848ZM33.081 280.402H35.9766C36.4496 280.402 36.8203 280.289 37.0888 280.063C37.3572 279.837 37.4915 279.531 37.4915 279.143C37.4915 278.687 37.3572 278.329 37.0888 278.069C36.8203 277.805 36.4496 277.673 35.9766 277.673H33.081V280.402ZM33.081 276.273H35.3757C35.7337 276.273 36.0405 276.222 36.2962 276.119C36.5561 276.017 36.7543 275.872 36.8906 275.685C37.0312 275.493 37.1016 275.267 37.1016 275.007C37.1016 274.628 36.946 274.332 36.6349 274.119C36.3239 273.906 35.8977 273.799 35.3565 273.799H33.081V276.273ZM43.353 279.322L47.6804 272.182H49.7386V282H47.8658V274.854L43.5575 282H41.4801V272.182H43.353V279.322ZM51.3494 284.832V280.344H52.1484C52.353 280.157 52.5256 279.933 52.6662 279.673C52.8111 279.413 52.9325 279.104 53.0305 278.746C53.1328 278.388 53.218 277.971 53.2862 277.494C53.3544 277.012 53.4141 276.462 53.4652 275.844L53.772 272.182H60.4453V280.344H61.9538V284.832H60.0874V282H53.2415V284.832H51.3494ZM54.1939 280.344H58.5788V273.818H55.4851L55.2805 275.844C55.1825 276.876 55.0589 277.771 54.9098 278.529C54.7607 279.283 54.522 279.888 54.1939 280.344ZM68.0534 282.198C67.0861 282.198 66.253 281.991 65.5542 281.578C64.8596 281.161 64.3226 280.575 63.9434 279.82C63.5684 279.062 63.3809 278.173 63.3809 277.155C63.3809 276.149 63.5684 275.263 63.9434 274.496C64.3226 273.729 64.851 273.13 65.5286 272.7C66.2104 272.269 67.0073 272.054 67.9192 272.054C68.4732 272.054 69.0101 272.146 69.53 272.329C70.0499 272.512 70.5165 272.8 70.9299 273.192C71.3432 273.584 71.6692 274.093 71.9078 274.719C72.1465 275.342 72.2658 276.098 72.2658 276.989V277.666H64.4611V276.234H70.3929C70.3929 275.732 70.2907 275.286 70.0861 274.898C69.8816 274.506 69.5939 274.197 69.2232 273.972C68.8567 273.746 68.4263 273.633 67.932 273.633C67.3951 273.633 66.9263 273.765 66.5257 274.029C66.1294 274.289 65.8226 274.63 65.6053 275.052C65.3922 275.469 65.2857 275.923 65.2857 276.413V277.532C65.2857 278.188 65.4007 278.746 65.6309 279.207C65.8652 279.667 66.1912 280.018 66.6088 280.261C67.0265 280.5 67.5144 280.619 68.0726 280.619C68.4348 280.619 68.7651 280.568 69.0634 280.466C69.3617 280.359 69.6195 280.202 69.8368 279.993C70.0542 279.784 70.2203 279.526 70.3354 279.219L72.1444 279.545C71.9995 280.078 71.7395 280.545 71.3645 280.945C70.9938 281.342 70.5272 281.651 69.9647 281.872C69.4064 282.089 68.7694 282.198 68.0534 282.198ZM83.2857 282.198C82.3354 282.198 81.5172 281.983 80.8311 281.553C80.1493 281.118 79.6252 280.519 79.2587 279.756C78.8922 278.994 78.709 278.12 78.709 277.136C78.709 276.138 78.8965 275.259 79.2715 274.496C79.6465 273.729 80.1749 273.13 80.8567 272.7C81.5385 272.269 82.3418 272.054 83.2665 272.054C84.0123 272.054 84.677 272.192 85.2608 272.469C85.8446 272.742 86.3155 273.126 86.6735 273.62C87.0357 274.114 87.2509 274.692 87.3191 275.352H85.459C85.3567 274.892 85.1223 274.496 84.7559 274.163C84.3936 273.831 83.9078 273.665 83.2985 273.665C82.7658 273.665 82.2992 273.805 81.8986 274.087C81.5023 274.364 81.1934 274.76 80.9718 275.276C80.7502 275.787 80.6394 276.392 80.6394 277.091C80.6394 277.807 80.748 278.425 80.9654 278.945C81.1827 279.464 81.4895 279.867 81.8858 280.153C82.2864 280.438 82.7573 280.581 83.2985 280.581C83.6607 280.581 83.9888 280.515 84.2828 280.383C84.5811 280.246 84.8304 280.053 85.0307 279.801C85.2353 279.55 85.378 279.247 85.459 278.893H87.3191C87.2509 279.528 87.0442 280.095 86.699 280.594C86.3539 281.092 85.8915 281.484 85.312 281.77C84.7367 282.055 84.0613 282.198 83.2857 282.198ZM89.3629 282V272.182H93.4347C94.5426 272.182 95.4205 272.418 96.0682 272.891C96.7159 273.36 97.0398 273.997 97.0398 274.803C97.0398 275.378 96.8565 275.834 96.4901 276.17C96.1236 276.507 95.6378 276.733 95.0327 276.848C95.4716 276.899 95.8743 277.031 96.2408 277.244C96.6072 277.453 96.9013 277.734 97.1229 278.088C97.3487 278.442 97.4616 278.864 97.4616 279.354C97.4616 279.874 97.3274 280.334 97.0589 280.734C96.7905 281.131 96.4006 281.442 95.8892 281.668C95.3821 281.889 94.7706 282 94.0547 282H89.3629ZM91.1591 280.402H94.0547C94.5277 280.402 94.8984 280.289 95.1669 280.063C95.4354 279.837 95.5696 279.531 95.5696 279.143C95.5696 278.687 95.4354 278.329 95.1669 278.069C94.8984 277.805 94.5277 277.673 94.0547 277.673H91.1591V280.402ZM91.1591 276.273H93.4538C93.8118 276.273 94.1186 276.222 94.3743 276.119C94.6342 276.017 94.8324 275.872 94.9688 275.685C95.1094 275.493 95.1797 275.267 95.1797 275.007C95.1797 274.628 95.0241 274.332 94.7131 274.119C94.402 273.906 93.9759 273.799 93.4347 273.799H91.1591V276.273ZM103.79 282.198C102.822 282.198 101.989 281.991 101.29 281.578C100.596 281.161 100.059 280.575 99.6797 279.82C99.3047 279.062 99.1172 278.173 99.1172 277.155C99.1172 276.149 99.3047 275.263 99.6797 274.496C100.059 273.729 100.587 273.13 101.265 272.7C101.947 272.269 102.744 272.054 103.656 272.054C104.21 272.054 104.746 272.146 105.266 272.329C105.786 272.512 106.253 272.8 106.666 273.192C107.08 273.584 107.406 274.093 107.644 274.719C107.883 275.342 108.002 276.098 108.002 276.989V277.666H100.197V276.234H106.129C106.129 275.732 106.027 275.286 105.822 274.898C105.618 274.506 105.33 274.197 104.96 273.972C104.593 273.746 104.163 273.633 103.668 273.633C103.131 273.633 102.663 273.765 102.262 274.029C101.866 274.289 101.559 274.63 101.342 275.052C101.129 275.469 101.022 275.923 101.022 276.413V277.532C101.022 278.188 101.137 278.746 101.367 279.207C101.602 279.667 101.928 280.018 102.345 280.261C102.763 280.5 103.251 280.619 103.809 280.619C104.171 280.619 104.501 280.568 104.8 280.466C105.098 280.359 105.356 280.202 105.573 279.993C105.79 279.784 105.957 279.526 106.072 279.219L107.881 279.545C107.736 280.078 107.476 280.545 107.101 280.945C106.73 281.342 106.263 281.651 105.701 281.872C105.143 282.089 104.506 282.198 103.79 282.198ZM118.004 272.182V282H116.138V272.182H118.004ZM117.192 276.739V278.388C116.898 278.508 116.587 278.614 116.259 278.708C115.931 278.798 115.586 278.868 115.224 278.919C114.861 278.97 114.484 278.996 114.092 278.996C112.878 278.996 111.912 278.7 111.197 278.107C110.481 277.511 110.123 276.599 110.123 275.371V272.163H111.983V275.371C111.983 275.836 112.068 276.213 112.238 276.503C112.409 276.793 112.652 277.006 112.967 277.142C113.282 277.278 113.657 277.347 114.092 277.347C114.667 277.347 115.198 277.293 115.684 277.187C116.174 277.076 116.677 276.927 117.192 276.739ZM124.778 282.198C123.811 282.198 122.978 281.991 122.279 281.578C121.584 281.161 121.047 280.575 120.668 279.82C120.293 279.062 120.105 278.173 120.105 277.155C120.105 276.149 120.293 275.263 120.668 274.496C121.047 273.729 121.576 273.13 122.253 272.7C122.935 272.269 123.732 272.054 124.644 272.054C125.198 272.054 125.735 272.146 126.255 272.329C126.775 272.512 127.241 272.8 127.654 273.192C128.068 273.584 128.394 274.093 128.632 274.719C128.871 275.342 128.99 276.098 128.99 276.989V277.666H121.186V276.234H127.118C127.118 275.732 127.015 275.286 126.811 274.898C126.606 274.506 126.319 274.197 125.948 273.972C125.581 273.746 125.151 273.633 124.657 273.633C124.12 273.633 123.651 273.765 123.25 274.029C122.854 274.289 122.547 274.63 122.33 275.052C122.117 275.469 122.01 275.923 122.01 276.413V277.532C122.01 278.188 122.125 278.746 122.355 279.207C122.59 279.667 122.916 280.018 123.333 280.261C123.751 280.5 124.239 280.619 124.797 280.619C125.159 280.619 125.49 280.568 125.788 280.466C126.086 280.359 126.344 280.202 126.561 279.993C126.779 279.784 126.945 279.526 127.06 279.219L128.869 279.545C128.724 280.078 128.464 280.545 128.089 280.945C127.718 281.342 127.252 281.651 126.689 281.872C126.131 282.089 125.494 282.198 124.778 282.198ZM137.765 276.266V277.922H132.447V276.266H137.765ZM132.984 272.182V282H131.111V272.182H132.984ZM139.101 272.182V282H137.235V272.182H139.101ZM143.531 279.322L147.858 272.182H149.916V282H148.044V274.854L143.735 282H141.658V272.182H143.531V279.322ZM158.341 282V273.812H155.989C155.431 273.812 154.996 273.942 154.685 274.202C154.374 274.462 154.218 274.803 154.218 275.224C154.218 275.642 154.361 275.979 154.646 276.234C154.936 276.486 155.341 276.612 155.861 276.612H158.897V278.158H155.861C155.137 278.158 154.51 278.039 153.982 277.8C153.458 277.558 153.053 277.214 152.767 276.771C152.486 276.328 152.345 275.804 152.345 275.199C152.345 274.581 152.49 274.048 152.78 273.601C153.074 273.149 153.494 272.8 154.039 272.553C154.589 272.305 155.239 272.182 155.989 272.182H160.137V282H158.341ZM151.898 282L154.666 277.04H156.622L153.854 282H151.898ZM168.001 275.455C168.001 273.852 168.212 272.378 168.634 271.031C169.056 269.685 169.672 268.442 170.481 267.305H172.233C171.917 267.727 171.623 268.244 171.35 268.858C171.078 269.472 170.839 270.145 170.635 270.878C170.43 271.607 170.27 272.363 170.155 273.147C170.04 273.927 169.983 274.696 169.983 275.455C169.983 276.469 170.083 277.496 170.283 278.536C170.483 279.575 170.754 280.54 171.095 281.431C171.436 282.322 171.815 283.048 172.233 283.611H170.481C169.672 282.473 169.056 281.231 168.634 279.884C168.212 278.538 168.001 277.061 168.001 275.455ZM175.507 282H173.41L178.121 268.909H180.403L185.114 282H183.018L179.317 271.287H179.214L175.507 282ZM175.858 276.874H182.66V278.536H175.858V276.874ZM190.918 285.343V268.909H192.829V285.343H190.918ZM190.918 282.198C190.224 282.198 189.591 282.079 189.02 281.84C188.449 281.597 187.956 281.252 187.543 280.805C187.13 280.357 186.81 279.822 186.584 279.2C186.363 278.578 186.252 277.89 186.252 277.136C186.252 276.373 186.363 275.68 186.584 275.058C186.81 274.436 187.13 273.901 187.543 273.454C187.956 273.006 188.449 272.661 189.02 272.418C189.591 272.175 190.224 272.054 190.918 272.054H191.391V282.198H190.918ZM190.918 280.587H191.187V273.665H190.918C190.458 273.665 190.057 273.759 189.716 273.946C189.376 274.129 189.092 274.383 188.866 274.707C188.64 275.026 188.47 275.395 188.355 275.812C188.244 276.23 188.189 276.671 188.189 277.136C188.189 277.758 188.289 278.331 188.489 278.855C188.689 279.375 188.992 279.795 189.397 280.114C189.802 280.43 190.309 280.587 190.918 280.587ZM192.829 282.198H192.35V272.054H192.829C193.524 272.054 194.157 272.175 194.728 272.418C195.299 272.661 195.789 273.006 196.198 273.454C196.611 273.901 196.929 274.436 197.15 275.058C197.376 275.68 197.489 276.373 197.489 277.136C197.489 277.89 197.376 278.578 197.15 279.2C196.929 279.822 196.611 280.357 196.198 280.805C195.789 281.252 195.299 281.597 194.728 281.84C194.157 282.079 193.524 282.198 192.829 282.198ZM192.829 280.587C193.29 280.587 193.69 280.498 194.031 280.319C194.372 280.136 194.655 279.884 194.881 279.565C195.107 279.241 195.275 278.872 195.386 278.459C195.497 278.041 195.552 277.6 195.552 277.136C195.552 276.518 195.452 275.947 195.252 275.423C195.056 274.894 194.756 274.47 194.351 274.151C193.946 273.827 193.439 273.665 192.829 273.665H192.555V280.587H192.829ZM199.613 285.682V272.182H201.479V273.773H201.639C201.75 273.569 201.91 273.332 202.119 273.064C202.327 272.795 202.617 272.561 202.988 272.361C203.359 272.156 203.849 272.054 204.458 272.054C205.251 272.054 205.958 272.254 206.58 272.655C207.202 273.055 207.69 273.633 208.044 274.387C208.402 275.141 208.581 276.049 208.581 277.11C208.581 278.171 208.404 279.081 208.05 279.839C207.697 280.594 207.211 281.175 206.593 281.585C205.975 281.989 205.27 282.192 204.477 282.192C203.881 282.192 203.393 282.092 203.013 281.891C202.638 281.691 202.344 281.457 202.131 281.188C201.918 280.92 201.754 280.681 201.639 280.472H201.524V285.682H199.613ZM201.486 277.091C201.486 277.781 201.586 278.386 201.786 278.906C201.987 279.426 202.276 279.833 202.656 280.127C203.035 280.417 203.499 280.562 204.049 280.562C204.62 280.562 205.097 280.411 205.481 280.108C205.864 279.801 206.154 279.386 206.35 278.862C206.55 278.337 206.651 277.747 206.651 277.091C206.651 276.443 206.553 275.862 206.357 275.346C206.165 274.83 205.875 274.423 205.487 274.125C205.104 273.827 204.624 273.678 204.049 273.678C203.495 273.678 203.026 273.82 202.643 274.106C202.263 274.391 201.976 274.79 201.78 275.301C201.584 275.812 201.486 276.409 201.486 277.091ZM212.595 279.322L216.923 272.182H218.981V282H217.108V274.854L212.8 282H210.722V272.182H212.595V279.322ZM221.55 282V272.182H223.462V276.298H224.382L227.623 272.182H229.988L226.185 276.957L230.033 282H227.661L224.702 278.075H223.462V282H221.55ZM234.374 282.217C233.752 282.217 233.19 282.102 232.687 281.872C232.184 281.638 231.786 281.299 231.492 280.856C231.202 280.413 231.057 279.869 231.057 279.226C231.057 278.672 231.164 278.216 231.377 277.858C231.59 277.5 231.877 277.217 232.24 277.008C232.602 276.799 233.007 276.641 233.454 276.535C233.901 276.428 234.357 276.347 234.822 276.292C235.41 276.224 235.887 276.168 236.254 276.126C236.62 276.079 236.887 276.004 237.053 275.902C237.219 275.8 237.302 275.634 237.302 275.403V275.359C237.302 274.8 237.144 274.368 236.829 274.061C236.518 273.754 236.053 273.601 235.436 273.601C234.792 273.601 234.285 273.744 233.914 274.029C233.548 274.31 233.294 274.624 233.154 274.969L231.357 274.56C231.57 273.963 231.882 273.482 232.291 273.115C232.704 272.744 233.179 272.476 233.716 272.31C234.253 272.139 234.818 272.054 235.41 272.054C235.802 272.054 236.218 272.101 236.656 272.195C237.1 272.284 237.513 272.45 237.896 272.693C238.284 272.936 238.602 273.283 238.849 273.735C239.096 274.183 239.22 274.764 239.22 275.48V282H237.353V280.658H237.276C237.153 280.905 236.968 281.148 236.72 281.386C236.473 281.625 236.156 281.823 235.768 281.981C235.38 282.138 234.916 282.217 234.374 282.217ZM234.79 280.683C235.318 280.683 235.77 280.579 236.145 280.37C236.524 280.161 236.812 279.888 237.008 279.552C237.208 279.211 237.308 278.847 237.308 278.459V277.193C237.24 277.261 237.108 277.325 236.912 277.385C236.72 277.44 236.501 277.489 236.254 277.532C236.007 277.57 235.766 277.607 235.531 277.641C235.297 277.67 235.101 277.696 234.943 277.717C234.573 277.764 234.234 277.843 233.927 277.954C233.624 278.065 233.382 278.224 233.198 278.433C233.019 278.638 232.93 278.911 232.93 279.251C232.93 279.724 233.105 280.082 233.454 280.325C233.803 280.564 234.249 280.683 234.79 280.683ZM245.441 276.567C245.441 278.173 245.23 279.65 244.808 280.996C244.386 282.343 243.77 283.585 242.961 284.723H241.209C241.525 284.301 241.819 283.783 242.091 283.17C242.364 282.556 242.603 281.885 242.807 281.156C243.012 280.423 243.172 279.665 243.287 278.881C243.402 278.097 243.459 277.325 243.459 276.567C243.459 275.557 243.359 274.532 243.159 273.492C242.958 272.452 242.688 271.487 242.347 270.597C242.006 269.706 241.627 268.979 241.209 268.417H242.961C243.77 269.555 244.386 270.797 244.808 272.143C245.23 273.49 245.441 274.964 245.441 276.567Z" fill="#1D5623"/>
<path opacity="0.7" d="M134.516 171.198C133.549 171.198 132.716 170.991 132.017 170.578C131.322 170.161 130.786 169.575 130.406 168.82C130.031 168.062 129.844 167.173 129.844 166.155C129.844 165.149 130.031 164.263 130.406 163.496C130.786 162.729 131.314 162.13 131.991 161.7C132.673 161.269 133.47 161.054 134.382 161.054C134.936 161.054 135.473 161.146 135.993 161.329C136.513 161.512 136.979 161.8 137.393 162.192C137.806 162.584 138.132 163.093 138.371 163.719C138.609 164.342 138.729 165.098 138.729 165.989V166.666H130.924V165.234H136.856C136.856 164.732 136.754 164.286 136.549 163.898C136.344 163.506 136.057 163.197 135.686 162.972C135.32 162.746 134.889 162.633 134.395 162.633C133.858 162.633 133.389 162.765 132.989 163.029C132.592 163.289 132.286 163.63 132.068 164.052C131.855 164.469 131.749 164.923 131.749 165.413V166.532C131.749 167.188 131.864 167.746 132.094 168.207C132.328 168.667 132.654 169.018 133.072 169.261C133.489 169.5 133.977 169.619 134.536 169.619C134.898 169.619 135.228 169.568 135.526 169.466C135.825 169.359 136.082 169.202 136.3 168.993C136.517 168.784 136.683 168.526 136.798 168.219L138.607 168.545C138.462 169.078 138.202 169.545 137.827 169.945C137.457 170.342 136.99 170.651 136.428 170.872C135.869 171.089 135.232 171.198 134.516 171.198ZM140.849 171V161.182H142.684V162.78H142.805C143.01 162.239 143.344 161.817 143.809 161.514C144.273 161.207 144.829 161.054 145.477 161.054C146.133 161.054 146.683 161.207 147.126 161.514C147.574 161.821 147.904 162.243 148.117 162.78H148.219C148.454 162.256 148.827 161.838 149.338 161.527C149.849 161.212 150.459 161.054 151.166 161.054C152.057 161.054 152.783 161.333 153.346 161.891C153.912 162.45 154.196 163.291 154.196 164.416V171H152.285V164.595C152.285 163.93 152.104 163.449 151.741 163.151C151.379 162.852 150.947 162.703 150.444 162.703C149.822 162.703 149.338 162.895 148.993 163.278C148.648 163.658 148.475 164.146 148.475 164.742V171H146.57V164.474C146.57 163.941 146.404 163.513 146.072 163.189C145.739 162.865 145.307 162.703 144.774 162.703C144.412 162.703 144.077 162.799 143.77 162.991C143.468 163.178 143.223 163.44 143.035 163.777C142.852 164.114 142.76 164.504 142.76 164.947V171H140.849ZM156.757 174.682V161.182H158.624V162.773H158.784C158.895 162.569 159.054 162.332 159.263 162.064C159.472 161.795 159.762 161.561 160.132 161.361C160.503 161.156 160.993 161.054 161.603 161.054C162.395 161.054 163.103 161.254 163.725 161.655C164.347 162.055 164.835 162.633 165.189 163.387C165.547 164.141 165.725 165.049 165.725 166.11C165.725 167.171 165.549 168.081 165.195 168.839C164.841 169.594 164.355 170.175 163.738 170.585C163.12 170.989 162.414 171.192 161.622 171.192C161.025 171.192 160.537 171.092 160.158 170.891C159.783 170.691 159.489 170.457 159.276 170.188C159.063 169.92 158.899 169.681 158.784 169.472H158.669V174.682H156.757ZM158.63 166.091C158.63 166.781 158.73 167.386 158.931 167.906C159.131 168.426 159.421 168.833 159.8 169.127C160.179 169.417 160.644 169.562 161.194 169.562C161.765 169.562 162.242 169.411 162.625 169.108C163.009 168.801 163.299 168.386 163.495 167.862C163.695 167.337 163.795 166.747 163.795 166.091C163.795 165.443 163.697 164.862 163.501 164.346C163.309 163.83 163.02 163.423 162.632 163.125C162.248 162.827 161.769 162.678 161.194 162.678C160.64 162.678 160.171 162.82 159.787 163.106C159.408 163.391 159.12 163.79 158.924 164.301C158.728 164.812 158.63 165.409 158.63 166.091ZM169.778 157.909V171H167.867V157.909H169.778ZM176.485 171.198C175.564 171.198 174.761 170.987 174.075 170.565C173.389 170.143 172.856 169.553 172.477 168.795C172.098 168.036 171.908 167.15 171.908 166.136C171.908 165.117 172.098 164.227 172.477 163.464C172.856 162.701 173.389 162.109 174.075 161.687C174.761 161.265 175.564 161.054 176.485 161.054C177.405 161.054 178.209 161.265 178.895 161.687C179.581 162.109 180.113 162.701 180.493 163.464C180.872 164.227 181.062 165.117 181.062 166.136C181.062 167.15 180.872 168.036 180.493 168.795C180.113 169.553 179.581 170.143 178.895 170.565C178.209 170.987 177.405 171.198 176.485 171.198ZM176.491 169.594C177.088 169.594 177.582 169.436 177.974 169.121C178.366 168.805 178.656 168.386 178.844 167.862C179.035 167.337 179.131 166.76 179.131 166.129C179.131 165.503 179.035 164.928 178.844 164.403C178.656 163.875 178.366 163.451 177.974 163.131C177.582 162.812 177.088 162.652 176.491 162.652C175.89 162.652 175.392 162.812 174.996 163.131C174.604 163.451 174.312 163.875 174.12 164.403C173.932 164.928 173.839 165.503 173.839 166.129C173.839 166.76 173.932 167.337 174.12 167.862C174.312 168.386 174.604 168.805 174.996 169.121C175.392 169.436 175.89 169.594 176.491 169.594ZM184.069 174.682C183.784 174.682 183.524 174.658 183.289 174.612C183.055 174.569 182.88 174.522 182.765 174.471L183.225 172.905C183.575 172.999 183.886 173.039 184.159 173.026C184.431 173.013 184.672 172.911 184.881 172.719C185.094 172.528 185.281 172.214 185.443 171.78L185.68 171.128L182.088 161.182H184.133L186.619 168.801H186.722L189.208 161.182H191.26L187.214 172.31C187.026 172.822 186.788 173.254 186.498 173.608C186.208 173.966 185.863 174.234 185.463 174.413C185.062 174.592 184.597 174.682 184.069 174.682ZM196.954 171.198C195.987 171.198 195.153 170.991 194.455 170.578C193.76 170.161 193.223 169.575 192.844 168.82C192.469 168.062 192.281 167.173 192.281 166.155C192.281 165.149 192.469 164.263 192.844 163.496C193.223 162.729 193.751 162.13 194.429 161.7C195.111 161.269 195.908 161.054 196.82 161.054C197.374 161.054 197.911 161.146 198.43 161.329C198.95 161.512 199.417 161.8 199.83 162.192C200.244 162.584 200.57 163.093 200.808 163.719C201.047 164.342 201.166 165.098 201.166 165.989V166.666H193.362V165.234H199.293C199.293 164.732 199.191 164.286 198.987 163.898C198.782 163.506 198.494 163.197 198.124 162.972C197.757 162.746 197.327 162.633 196.832 162.633C196.295 162.633 195.827 162.765 195.426 163.029C195.03 163.289 194.723 163.63 194.506 164.052C194.293 164.469 194.186 164.923 194.186 165.413V166.532C194.186 167.188 194.301 167.746 194.531 168.207C194.766 168.667 195.092 169.018 195.509 169.261C195.927 169.5 196.415 169.619 196.973 169.619C197.335 169.619 197.665 169.568 197.964 169.466C198.262 169.359 198.52 169.202 198.737 168.993C198.955 168.784 199.121 168.526 199.236 168.219L201.045 168.545C200.9 169.078 200.64 169.545 200.265 169.945C199.894 170.342 199.428 170.651 198.865 170.872C198.307 171.089 197.67 171.198 196.954 171.198ZM207.518 171.198C206.551 171.198 205.718 170.991 205.019 170.578C204.324 170.161 203.787 169.575 203.408 168.82C203.033 168.062 202.846 167.173 202.846 166.155C202.846 165.149 203.033 164.263 203.408 163.496C203.787 162.729 204.316 162.13 204.993 161.7C205.675 161.269 206.472 161.054 207.384 161.054C207.938 161.054 208.475 161.146 208.995 161.329C209.515 161.512 209.981 161.8 210.395 162.192C210.808 162.584 211.134 163.093 211.373 163.719C211.611 164.342 211.731 165.098 211.731 165.989V166.666H203.926V165.234H209.858C209.858 164.732 209.756 164.286 209.551 163.898C209.346 163.506 209.059 163.197 208.688 162.972C208.322 162.746 207.891 162.633 207.397 162.633C206.86 162.633 206.391 162.765 205.991 163.029C205.594 163.289 205.287 163.63 205.07 164.052C204.857 164.469 204.751 164.923 204.751 165.413V166.532C204.751 167.188 204.866 167.746 205.096 168.207C205.33 168.667 205.656 169.018 206.074 169.261C206.491 169.5 206.979 169.619 207.537 169.619C207.9 169.619 208.23 169.568 208.528 169.466C208.827 169.359 209.084 169.202 209.302 168.993C209.519 168.784 209.685 168.526 209.8 168.219L211.609 168.545C211.464 169.078 211.204 169.545 210.829 169.945C210.459 170.342 209.992 170.651 209.43 170.872C208.871 171.089 208.234 171.198 207.518 171.198ZM221.208 163.579L219.476 163.886C219.404 163.664 219.289 163.453 219.131 163.253C218.978 163.053 218.769 162.888 218.505 162.761C218.24 162.633 217.91 162.569 217.514 162.569C216.973 162.569 216.521 162.69 216.159 162.933C215.797 163.172 215.615 163.481 215.615 163.86C215.615 164.188 215.737 164.452 215.98 164.653C216.223 164.853 216.615 165.017 217.156 165.145L218.716 165.503C219.619 165.712 220.292 166.033 220.735 166.468C221.179 166.903 221.4 167.467 221.4 168.162C221.4 168.75 221.23 169.274 220.889 169.734C220.552 170.19 220.081 170.548 219.476 170.808C218.875 171.068 218.179 171.198 217.386 171.198C216.287 171.198 215.39 170.964 214.695 170.495C214 170.022 213.574 169.351 213.417 168.482L215.264 168.2C215.379 168.682 215.615 169.046 215.973 169.293C216.331 169.536 216.798 169.658 217.373 169.658C218 169.658 218.5 169.528 218.875 169.268C219.25 169.004 219.438 168.682 219.438 168.303C219.438 167.996 219.323 167.738 219.093 167.529C218.867 167.32 218.52 167.163 218.051 167.056L216.389 166.692C215.473 166.483 214.795 166.151 214.356 165.695C213.922 165.239 213.704 164.661 213.704 163.962C213.704 163.383 213.866 162.876 214.19 162.441C214.514 162.006 214.961 161.668 215.532 161.425C216.103 161.178 216.757 161.054 217.495 161.054C218.556 161.054 219.391 161.284 220 161.744C220.61 162.2 221.012 162.812 221.208 163.579Z" fill="#1C1C1E"/>
<path d="M147.017 106.091V141H139.636V113.097H139.432L131.438 118.108V111.562L140.08 106.091H147.017ZM167.081 141.767C164.15 141.756 161.627 141.034 159.513 139.602C157.411 138.17 155.792 136.097 154.655 133.381C153.53 130.665 152.973 127.398 152.985 123.58C152.985 119.773 153.547 116.528 154.672 113.847C155.809 111.165 157.428 109.125 159.53 107.727C161.644 106.318 164.161 105.614 167.081 105.614C170.002 105.614 172.513 106.318 174.616 107.727C176.729 109.136 178.354 111.182 179.491 113.864C180.627 116.534 181.189 119.773 181.178 123.58C181.178 127.409 180.61 130.682 179.473 133.398C178.348 136.114 176.735 138.187 174.633 139.619C172.53 141.051 170.013 141.767 167.081 141.767ZM167.081 135.648C169.081 135.648 170.678 134.642 171.871 132.631C173.064 130.619 173.655 127.602 173.644 123.58C173.644 120.932 173.371 118.727 172.826 116.966C172.292 115.205 171.53 113.881 170.542 112.994C169.564 112.108 168.411 111.665 167.081 111.665C165.093 111.665 163.502 112.659 162.309 114.648C161.116 116.636 160.513 119.614 160.502 123.58C160.502 126.261 160.769 128.5 161.303 130.295C161.848 132.08 162.616 133.42 163.604 134.318C164.593 135.205 165.752 135.648 167.081 135.648ZM198.208 141.767C195.276 141.756 192.754 141.034 190.64 139.602C188.538 138.17 186.919 136.097 185.782 133.381C184.657 130.665 184.1 127.398 184.112 123.58C184.112 119.773 184.674 116.528 185.799 113.847C186.936 111.165 188.555 109.125 190.657 107.727C192.771 106.318 195.288 105.614 198.208 105.614C201.129 105.614 203.64 106.318 205.742 107.727C207.856 109.136 209.481 111.182 210.617 113.864C211.754 116.534 212.316 119.773 212.305 123.58C212.305 127.409 211.737 130.682 210.6 133.398C209.475 136.114 207.862 138.187 205.759 139.619C203.657 141.051 201.14 141.767 198.208 141.767ZM198.208 135.648C200.208 135.648 201.805 134.642 202.998 132.631C204.191 130.619 204.782 127.602 204.771 123.58C204.771 120.932 204.498 118.727 203.953 116.966C203.419 115.205 202.657 113.881 201.669 112.994C200.691 112.108 199.538 111.665 198.208 111.665C196.22 111.665 194.629 112.659 193.436 114.648C192.242 116.636 191.64 119.614 191.629 123.58C191.629 126.261 191.896 128.5 192.43 130.295C192.975 132.08 193.742 133.42 194.731 134.318C195.72 135.205 196.879 135.648 198.208 135.648ZM226.079 135.682V111.545H232.182V135.682H226.079ZM217.062 126.665V120.562H241.199V126.665H217.062Z" fill="#1C1C1E"/>
<rect opacity="0.25" x="109" y="87" width="1" height="95" fill="#1C1C1E"/>
</svg>
