<svg width="659" height="139" viewBox="0 0 659 139" fill="none" xmlns="http://www.w3.org/2000/svg">
<g clip-path="url(#clip0_324_131)">
<path d="M9.24831 0.249049C8.48432 0.409892 7.35844 0.731578 6.75529 0.972834C4.90562 1.73683 1.93008 4.75258 0.965041 6.88371L0 8.89421V69.2495V129.564L1.04546 131.655C1.6084 132.781 2.89512 134.43 3.86016 135.315C7.35844 138.411 1.40735 138.169 78.4498 138.169C154.688 138.169 149.219 138.37 152.557 135.596C153.482 134.832 154.768 133.264 155.412 132.098L156.618 129.926L156.739 69.8125C156.859 2.70187 157.06 7.6075 153.964 4.10922C153.08 3.10397 151.351 1.81724 150.064 1.17389L147.772 0.0479995L79.2138 0.00779266C41.4968 -0.0324142 10.0123 0.0882064 9.24831 0.249049ZM143.027 11.1862C143.711 11.5883 144.716 12.4729 145.239 13.1967L146.163 14.5237V69.2093V123.895L145.279 125.141C143.309 127.916 148.415 127.715 78.3292 127.715C18.8987 127.715 14.9983 127.675 13.6714 126.991C12.9074 126.629 11.862 125.704 11.3794 124.94L10.4546 123.573L10.535 68.767L10.6557 13.9607L12.0228 12.5534C12.7466 11.7894 14.0333 10.9852 14.8375 10.7841C15.7623 10.5027 39.4058 10.382 79.0127 10.4222C137.719 10.5027 141.821 10.5429 143.027 11.1862Z" fill="white"/>
<path d="M106.315 22.1234C105.632 22.4451 104.626 23.2895 104.104 24.0133L103.139 25.3804L103.018 73.7129L102.938 122.085H121.836H140.735L140.655 73.9139C140.534 26.7878 140.534 25.7423 139.73 24.4556C139.287 23.7318 138.202 22.807 137.317 22.3647C135.749 21.6007 134.784 21.5605 121.595 21.5605C110.738 21.6007 107.28 21.7213 106.315 22.1234Z" fill="white"/>
<path d="M62.7678 43.9972C62.0038 44.359 60.9985 45.2034 60.5562 45.8066C59.7118 46.9325 59.7118 47.2542 59.5912 84.5289L59.5107 122.085H78.4095H97.3082L97.2278 84.7701C97.1071 48.2996 97.1071 47.4552 96.3029 46.1283C94.6543 43.3136 94.3728 43.2734 78.4095 43.2734C65.6227 43.2734 63.9741 43.3538 62.7678 43.9972Z" fill="white"/>
<path d="M19.4616 65.5502C18.7781 65.8719 17.7728 66.7163 17.2501 67.4401L16.285 68.8072L16.1644 95.4263L16.084 122.085H34.9827H53.9216L53.801 95.6273L53.6804 69.2093L52.7555 67.7618C51.1069 65.0677 50.4636 64.9873 34.661 64.9873C23.8445 65.0275 20.4267 65.1481 19.4616 65.5502Z" fill="white"/>
<path d="M477.293 71.8223V107.208H482.52H487.748V98.6022V89.957L490.804 87.464C492.452 86.0968 493.98 85.1318 494.141 85.3329C494.302 85.5339 498.041 90.52 502.384 96.4308L510.346 107.208H516.538C519.956 107.208 522.73 107.127 522.73 107.047C522.73 106.966 517.945 100.573 512.075 92.8521C506.204 85.172 501.459 78.658 501.54 78.3765C501.58 78.0951 506.124 73.1894 511.592 67.3992L521.564 56.9446H515.372H509.18L501.741 64.6649C497.679 68.9272 493.015 74.0338 491.366 76.0443C489.758 78.0146 488.23 79.8643 487.989 80.1458C487.667 80.5077 487.587 74.5566 487.667 58.553L487.828 36.4375H482.56H477.293V71.8223Z" fill="white"/>
<path d="M532.501 38.4482C531.778 38.8503 530.933 39.7751 530.571 40.4184C529.325 42.9115 530.129 46.9325 532.22 48.2996C535.075 50.1493 540.061 49.1038 541.348 46.3695C542.795 43.3538 541.75 39.4534 539.216 38.1667C537.648 37.3625 533.989 37.5233 532.501 38.4482Z" fill="white"/>
<path d="M200.688 40.6603C194.455 42.0676 189.992 45.405 187.499 50.4313C185.971 53.4872 185.971 53.4872 185.971 58.5135C185.971 63.3387 186.011 63.7006 187.218 66.1936C188.665 69.1692 190.957 71.9437 193.732 73.9944C194.817 74.7584 198.919 77.0503 202.899 79.0206C206.84 81.0311 210.781 83.2427 211.625 83.9263C213.837 85.7759 214.882 87.9875 214.601 90.4001C214.118 94.3004 211.384 96.2707 205.955 96.6326C201.09 96.9543 194.455 95.3459 185.69 91.727C185.006 91.4455 184.966 91.8878 184.966 97.8389V104.192L187.901 105.318C193.41 107.368 195.863 107.771 203.462 107.771C208.931 107.771 211.062 107.61 213.032 107.087C218.943 105.438 222.964 102.744 225.578 98.6833C229.478 92.692 229.197 83.6448 224.935 78.0958C222.723 75.1605 218.823 72.5066 210.62 68.365C202.216 64.1027 200.205 62.5345 199.482 59.8404C198.557 56.4226 200.608 52.8439 204.146 51.7984C207.684 50.753 213.716 51.517 219.989 53.8893L223.447 55.1761L225.658 49.8683L227.87 44.5204L225.377 43.5152C219.064 40.9819 216.088 40.3788 209.494 40.2179C205.071 40.0973 202.538 40.2582 200.688 40.6603Z" fill="white"/>
<path d="M305.194 73.7925V107.208H310.623H316.051V93.9377V80.6684H321.6H327.189L335.191 93.9377L343.193 107.167L349.345 107.208C352.682 107.208 355.457 107.087 355.457 106.966C355.457 106.846 351.315 100.332 346.209 92.4901C341.142 84.6492 336.96 78.0547 336.96 77.8537C336.96 77.6526 337.322 77.3712 337.764 77.2505C339.896 76.567 344.761 72.7872 346.45 70.4953C348.782 67.3589 349.586 64.5844 349.586 59.7592C349.626 52.9637 347.334 48.0983 342.63 44.8815C337.644 41.4636 334.065 40.8202 318.182 40.579L305.194 40.3779V73.7925ZM328.476 50.149C334.146 51.0336 337.322 53.5266 338.207 57.6683C339.373 63.2977 337.121 68.1631 332.376 70.254C330.567 71.0984 329.562 71.219 323.208 71.3397L316.051 71.5005V60.6036V49.7067H320.997C323.691 49.7067 327.069 49.9077 328.476 50.149Z" fill="white"/>
<path d="M240.858 74.0345V107.208H259.958H279.058V101.578V95.949H266.995H254.932V87.1028V78.2566H266.191H277.45V72.6272V66.9978H266.191H254.932V59.5589V52.1201H266.995H279.058V46.4907V40.8613H259.958H240.858V74.0345Z" fill="white"/>
<path d="M378.859 56.1411C373.672 56.8648 365.469 59.5187 365.549 60.4435C365.549 60.6044 366.313 62.3334 367.238 64.2635L368.927 67.7216L371.782 66.5555C376.205 64.7862 379.02 64.1831 383 64.1831C389.796 64.2233 392.048 66.274 392.691 73.1097L392.932 76.1255L390.439 76.3667C389.032 76.5276 386.338 76.6482 384.448 76.6482C377.21 76.6482 369.852 78.4174 365.951 81.0713C363.418 82.8003 361.247 85.8161 360.644 88.4699C359.96 91.6465 360.322 97.3161 361.448 99.769C363.82 105.117 369.128 108.012 376.486 108.012C382.84 107.972 387.424 106.162 391.284 102.101C393.535 99.7287 393.415 99.6483 394.822 104.272L395.707 107.208H399.527H403.347L403.226 87.3843L403.105 67.6009L402.14 65.2285C401.055 62.4942 398.32 59.5187 395.747 58.1918C392.128 56.3421 384.207 55.3771 378.859 56.1411ZM392.45 86.5801C392.45 90.8423 392.048 92.4507 390.319 95.0242C386.981 99.97 377.572 101.618 373.35 97.9193C370.133 95.1046 370.897 88.5906 374.757 85.9769C377.331 84.2479 382.236 83.3633 390.359 83.122L392.45 83.0818V86.5801Z" fill="white"/>
<path d="M440.943 56.1812C436.078 56.9854 432.137 58.9557 429.644 61.891C428.88 62.7756 428.116 63.419 427.996 63.2581C427.835 63.1375 427.433 61.69 427.071 60.0815L426.387 57.1462L422.085 57.0256L417.782 56.905V82.0764V107.208H423.17H428.559L428.719 91.4052C428.88 76.5275 428.92 75.482 429.765 72.989C431.614 67.4802 434.67 65.1078 440.622 64.7057C445.929 64.3438 449.226 66.0326 451.036 70.0134C451.679 71.461 451.76 73.3107 451.88 89.3947L452.001 107.208H457.429H462.817V89.7968C462.817 79.9453 462.616 71.3404 462.415 69.8928C461.692 65.4697 460.526 63.0169 457.952 60.5239C455.298 57.87 452.886 56.8245 448.181 56.1812C444.683 55.6987 443.798 55.6987 440.943 56.1812Z" fill="white"/>
<path d="M579.104 56.1806C574.359 56.9848 570.097 59.1561 567.885 61.9708C567.242 62.7348 566.64 63.3782 566.479 63.3782C566.318 63.3782 565.876 61.9306 565.473 60.1614L564.75 56.9446H560.447H556.104V82.0758V107.208H561.533H566.961V93.4151C566.961 85.8556 567.161 78.3765 567.362 76.8485C568.207 70.9377 570.339 67.3992 574.159 65.6701C575.606 64.9866 576.853 64.8257 579.828 64.7855C583.166 64.7855 583.93 64.9062 585.659 65.831C587.307 66.6754 587.869 67.2383 588.875 69.2086L590.081 71.581L590.203 89.3941L590.323 107.208H595.711H601.14V89.3941C601.14 70.1335 600.938 68.0827 598.927 63.9009C597.6 61.247 594.505 58.4323 591.731 57.3869C589.599 56.5827 584.331 55.6981 582.32 55.7785C581.717 55.8187 580.27 55.9795 579.104 56.1806Z" fill="white"/>
<path d="M625.587 56.7436C616.822 58.9149 612.398 65.067 612.881 74.3556C613.042 77.1703 613.283 78.2559 614.329 80.3871C615.535 82.7595 617.988 85.5742 620.36 87.1022C621.245 87.7053 621.245 87.7053 619.033 89.4343C615.374 92.249 614.288 95.8277 616.058 99.4868C616.54 100.452 617.626 101.739 618.43 102.342L619.958 103.428L617.384 104.353C614.248 105.478 611.232 108.052 609.946 110.746C608.538 113.601 608.619 117.903 610.106 120.959C611.996 124.819 615.213 127.111 620.601 128.519C629.206 130.73 642.717 129.444 649.593 125.785C650.678 125.181 652.608 123.694 653.855 122.407C656.951 119.351 657.956 116.737 657.997 111.791C657.997 108.454 657.916 107.931 656.71 105.478C655.101 102.221 652.85 100.332 649.03 99.0847C646.738 98.361 645.089 98.2001 636.645 97.9991C627.598 97.7578 626.834 97.7176 625.788 96.9134C624.944 96.27 624.622 95.6669 624.542 94.4204C624.421 93.013 624.622 92.5305 625.829 91.2438L627.196 89.7158L631.78 89.6756C637.128 89.6354 640.224 89.0724 643.601 87.464C647.1 85.8154 649.512 83.5235 651.08 80.3469C652.327 77.8538 652.407 77.4115 652.407 73.4307C652.407 69.651 652.287 68.9674 651.282 66.8363C650.678 65.5496 650.236 64.3835 650.316 64.3031C650.397 64.2226 651.925 63.901 653.654 63.5793C659.163 62.5338 658.64 62.9359 658.64 59.7995V57.025L648.909 56.7838C643.521 56.6632 636.605 56.4621 633.509 56.3415C629.447 56.2208 627.236 56.3415 625.587 56.7436ZM637.691 63.7401C640.505 65.1877 642.154 68.6055 642.154 72.9884C642.154 79.422 638.897 82.7997 632.745 82.7997C626.432 82.7997 623.255 79.5427 623.255 73.0688C623.255 67.359 625.386 64.0618 629.809 62.9359C631.82 62.4132 635.921 62.8555 637.691 63.7401ZM640.626 107.167C644.647 107.61 646.295 108.333 647.381 110.143C649.754 114.043 646.738 119.069 640.948 120.919C637.128 122.166 628.241 122.447 624.582 121.482C620.079 120.276 617.867 117.3 618.591 113.48C619.194 110.384 622.129 107.851 625.989 107.207C628.643 106.765 636.484 106.765 640.626 107.167Z" fill="white"/>
<path d="M530.451 81.9559L530.571 107.007L535.919 107.127L541.227 107.248V82.0766V56.9453H535.798H530.37L530.451 81.9559Z" fill="white"/>
</g>
<defs>
<clipPath id="clip0_324_131">
<rect width="659" height="139" fill="white"/>
</clipPath>
</defs>
</svg>
