<svg width="676" height="90" viewBox="0 0 676 90" fill="none" xmlns="http://www.w3.org/2000/svg">
<g clip-path="url(#clip0_324_146)">
<path d="M466.268 35.3071C466.268 24.2302 459.345 16.2686 446.537 16.2686H404.307V73.7302H418.153V53.9994H434.422L450.345 73.7302H465.922V72.3456L450.345 53.6533C460.384 51.5763 466.268 44.3071 466.268 35.3071ZM444.807 42.2302H418.153V28.0379H444.807C449.653 28.0379 452.768 30.8071 452.768 35.3071C453.114 39.8071 449.999 42.2302 444.807 42.2302Z" fill="white"/>
<path d="M675.346 15.9229H662.539V37.7306H627.578V15.9229H613.73V73.3845H627.578V50.8845H662.539V73.3845H675.346V15.9229Z" fill="white"/>
<path d="M367.27 15.9229L352.039 64.0382H351.347L335.77 15.9229H311.193V73.3845H324.347V26.3076H325.04L340.27 73.3845H361.386L376.963 26.3076H377.655V73.3845H391.155V15.9229H367.27Z" fill="white"/>
<path d="M216.692 39.4612C211.846 39.1151 202.846 38.0766 197.653 37.7304C192.807 37.3843 190.038 35.6535 190.038 32.5381C190.038 29.4227 193.153 26.9997 204.923 26.9997C215.307 26.9997 225 29.4227 233.653 33.2304V20.4227C225.346 16.2689 216 14.5381 204.23 14.5381C187.961 14.5381 176.538 21.4612 176.538 32.8843C176.538 42.5766 183.115 48.1151 196.615 49.4997C201.461 50.192 209.769 50.8843 215.307 51.2304C221.538 51.5766 223.269 53.6535 223.269 56.4227C223.269 60.2304 218.769 62.6535 208.038 62.6535C196.961 62.6535 185.538 58.8458 177.23 53.9997V67.1535C183.807 71.6535 194.884 75.1151 207.692 75.1151C225.346 75.1151 236.769 68.192 236.769 56.0766C236.769 46.7304 230.884 40.8458 216.692 39.4612Z" fill="white"/>
<path d="M246.114 15.9229V73.3845H299.422V61.6152H259.268V49.846H298.73V38.0768H259.268V27.6922H299.422V15.9229H246.114Z" fill="white"/>
<path d="M585.002 39.4612C580.155 39.1151 571.155 38.0766 565.963 37.7304C561.117 37.3843 558.348 35.6535 558.348 32.5381C558.348 29.4227 561.463 26.9997 573.232 26.9997C583.617 26.9997 593.309 29.0766 601.963 33.2304V20.4227C593.655 16.2689 584.309 14.5381 572.54 14.5381C556.271 14.5381 544.848 21.4612 544.848 32.8843C544.848 42.5766 551.425 48.1151 564.925 49.4997C569.771 50.192 578.078 50.8843 583.617 51.2304C589.848 51.5766 591.578 53.6535 591.578 56.4227C591.578 60.2304 587.078 62.6535 576.348 62.6535C565.271 62.6535 553.848 58.8458 545.54 53.9997V67.1535C552.117 71.6535 563.194 75.1151 576.002 75.1151C593.655 75.1151 605.078 68.192 605.078 56.0766C605.078 46.7304 598.848 40.8458 585.002 39.4612Z" fill="white"/>
<path d="M521.656 15.9229V45.346C521.656 56.4229 514.733 62.6536 504.694 62.6536C494.31 62.6536 487.733 56.7691 487.733 45.346V15.9229H473.887V43.9614C473.887 64.7306 487.041 75.1152 504.694 75.1152C522.002 75.1152 535.156 65.0767 535.156 44.6537V15.9229H521.656Z" fill="white"/>
<path d="M129.462 44.3077C129.462 47.0769 128.077 47.4231 124.615 47.4231C120.808 47.4231 120.115 46.7308 119.769 43.9615C119.077 36.6923 114.231 30.4615 105.923 30.1154C103.5 29.7692 102.808 29.0769 102.808 25.6154C102.808 22.5 103.154 21.1154 105.577 21.1154C119.423 21.4615 129.462 32.8846 129.462 44.3077ZM149.885 44.3077C149.885 22.8462 135.346 0 101.423 0H34.6154C33.2308 0 32.1923 0.692308 32.1923 2.07692C32.1923 2.76923 32.5385 3.46154 33.2308 3.80769C35.6538 5.88462 39.1154 7.96154 43.9615 10.3846C48.4615 12.8077 52.2692 14.1923 55.7308 15.5769C57.1154 16.2692 57.8077 16.9615 57.8077 17.6538C57.8077 18.6923 57.1154 19.7308 55.3846 19.7308H2.42308C0.692308 19.3846 0 20.4231 0 21.4615C0 22.5 0.346154 23.1923 1.03846 23.8846C5.19231 28.3846 12.1154 33.9231 22.1538 40.1538C30.8077 45.6923 41.8846 51.5769 50.5385 55.7308C51.9231 56.4231 52.6154 57.1154 52.6154 58.1538C52.6154 59.1923 51.9231 59.8846 50.1923 59.8846H25.6154C24.2308 59.8846 23.5385 60.5769 23.5385 61.6154C23.5385 62.3077 23.8846 63 24.5769 63.6923C30.1154 68.8846 39.1154 74.0769 50.8846 79.2692C66.8077 85.8462 82.7308 90 100.731 90C135 90 149.885 64.3846 149.885 44.3077ZM105.231 75.1154C88.6154 75.1154 74.4231 61.6154 74.4231 44.3077C74.4231 27.6923 88.2692 14.1923 105.231 14.1923C122.538 14.1923 136.038 27.6923 136.038 44.3077C136.038 61.2692 122.538 75.1154 105.231 75.1154Z" fill="white"/>
</g>
<defs>
<clipPath id="clip0_324_146">
<rect width="676" height="90" fill="white"/>
</clipPath>
</defs>
</svg>
