<svg width="70" height="114" viewBox="0 0 70 114" fill="none" xmlns="http://www.w3.org/2000/svg">
<path d="M57.7284 96.7667L40.1963 106.891L22.6641 96.7667L40.1963 86.6548L57.7284 96.7667Z" fill="white"/>
<path d="M57.7294 0.460741L40.1973 0V96.7664H57.7294V0.460741Z" fill="url(#paint0_linear_346_583)"/>
<path d="M40.1963 0L22.6641 2.3158V96.7664H40.1963V0Z" fill="url(#paint1_linear_346_583)"/>
<path d="M67.4031 96.7663L40.1955 112.48L13 96.7663L40.1955 81.0649L67.4031 96.7663Z" stroke="url(#paint2_linear_346_583)" stroke-width="2.46754" stroke-miterlimit="10"/>
<path fill-rule="evenodd" clip-rule="evenodd" d="M37.3547 99.9351L33.2129 97.5407V86.8236L41.6636 83.8657L37.3547 99.9351Z" fill="#CFD3EE"/>
<path fill-rule="evenodd" clip-rule="evenodd" d="M0 68.5413V95.3438H0.0302214V95.5358C0.0853267 96.8957 0.775029 97.964 1.78825 98.4831L8.09159 102.125L8.30845 96.4833L23.6615 87.6184L28.4414 90.3648L28.6583 84.7423C28.6938 84.718 28.7271 84.6906 28.7579 84.6605L47.8314 73.6519V73.6306C49.7654 72.9356 51.0399 70.8504 50.9244 68.7742V47.3845L52.3251 48.1951L56.2358 43.4684L49.7156 39.7106C49.3363 39.4042 48.892 39.1886 48.4167 39.0801C47.9413 38.9717 47.4475 38.9733 46.9728 39.0849C46.5355 39.1779 46.1156 39.3393 45.7285 39.5631V39.5329L25.3875 51.2934L23.1709 52.5733C22.9131 52.6928 22.6668 52.8356 22.435 52.9999L2.89392 64.3C2.07421 64.6765 1.37401 65.2714 0.870112 66.0196C0.366216 66.7678 0.0780861 67.6402 0.0373279 68.5413H0Z" fill="#CFD3EE"/>
<path fill-rule="evenodd" clip-rule="evenodd" d="M6.50586 72.2901V99.0926H6.53252C6.53252 99.153 6.53252 99.2188 6.53252 99.2792C6.61962 101.491 8.38833 102.932 10.4841 102.498C10.9846 102.391 11.4611 102.193 11.8902 101.914L33.9803 89.1612V89.1505L34.0301 89.1203C34.4738 88.9539 34.8861 88.7135 35.2495 88.4092L54.3213 77.4006V77.3793C56.2553 76.6789 57.5245 74.5992 57.416 72.5194V46.5968C57.4311 46.4147 57.4365 46.2319 57.432 46.0493C57.3449 43.8362 55.5762 42.3946 53.4804 42.8336C53.0426 42.9248 52.6224 43.0863 52.2361 43.3118L52.2255 43.2816L31.8898 55.0421L29.6714 56.3202C29.4136 56.4394 29.1678 56.5828 28.9373 56.7486L9.38911 68.0487C8.56976 68.4257 7.86989 69.0208 7.36606 69.7688C6.86223 70.5169 6.57387 71.3891 6.53252 72.2901H6.50586Z" fill="#F2F3F5"/>
<path fill-rule="evenodd" clip-rule="evenodd" d="M48.1719 80.0317L37.3535 99.9354V82.9292L48.1719 80.0317Z" fill="#F2F3F5"/>
<path fill-rule="evenodd" clip-rule="evenodd" d="M20.0674 75.9893C22.0867 75.2036 23.7203 76.2009 23.7203 78.2167C23.7203 80.2324 22.0867 82.5095 20.0674 83.2952C18.048 84.0809 16.418 83.0837 16.418 81.0626C16.418 79.0415 18.0516 76.775 20.0674 75.9893ZM45.0798 61.07C47.0956 60.2826 48.7328 61.2816 48.7328 63.2956C48.7328 65.3096 47.0956 67.5849 45.0798 68.3706C43.064 69.1563 41.4269 68.1591 41.4269 66.1433C41.4269 64.1275 43.064 61.8557 45.0798 61.07ZM32.7789 68.6532C34.7947 67.8675 36.4319 68.8648 36.4319 70.8805C36.4319 72.8963 34.7947 75.1681 32.7789 75.9538C30.7631 76.7395 29.126 75.7423 29.126 73.7265C29.126 71.7107 30.7631 69.4389 32.7789 68.6532Z" fill="white"/>
<g filter="url(#filter0_d_346_583)">
<g clip-path="url(#clip0_346_583)">
<mask id="mask0_346_583" style="mask-type:luminance" maskUnits="userSpaceOnUse" x="15" y="47" width="35" height="51">
<rect width="40.4095" height="30.3071" transform="matrix(0.866025 -0.5 2.20305e-08 1 15 67.4033)" fill="white"/>
</mask>
<g mask="url(#mask0_346_583)">
<path fill-rule="evenodd" clip-rule="evenodd" d="M15 67.4033L15 97.7105L49.9957 77.5057L49.9957 47.1986L15 67.4033Z" fill="#3195F9"/>
<mask id="mask1_346_583" style="mask-type:luminance" maskUnits="userSpaceOnUse" x="15" y="47" width="35" height="51">
<path fill-rule="evenodd" clip-rule="evenodd" d="M15 67.4033L15 97.7105L49.9957 77.5057L49.9957 47.1986L15 67.4033Z" fill="white"/>
</mask>
<g mask="url(#mask1_346_583)">
<path fill-rule="evenodd" clip-rule="evenodd" d="M15 82.5571L15 97.7107L49.9957 77.5059L49.9957 62.3524L15 82.5571Z" fill="#FECA00"/>
</g>
</g>
<rect width="40.4145" height="30.3109" transform="matrix(0.866025 -0.5 2.20305e-08 1 15 67.4028)" fill="url(#paint3_linear_346_583)" style="mix-blend-mode:overlay"/>
</g>
<rect x="0.433795" y="0.250451" width="39.4127" height="29.3091" rx="1.50271" transform="matrix(0.866025 -0.5 2.20305e-08 1 15.0581 67.6207)" stroke="black" stroke-opacity="0.1" stroke-width="1.00181" style="mix-blend-mode:multiply"/>
</g>
<defs>
<filter id="filter0_d_346_583" x="11.9946" y="46.195" width="41.0108" height="56.5289" filterUnits="userSpaceOnUse" color-interpolation-filters="sRGB">
<feFlood flood-opacity="0" result="BackgroundImageFix"/>
<feColorMatrix in="SourceAlpha" type="matrix" values="0 0 0 0 0 0 0 0 0 0 0 0 0 0 0 0 0 0 127 0" result="hardAlpha"/>
<feOffset dy="2.00361"/>
<feGaussianBlur stdDeviation="1.50271"/>
<feColorMatrix type="matrix" values="0 0 0 0 0 0 0 0 0 0 0 0 0 0 0 0 0 0 0.1 0"/>
<feBlend mode="normal" in2="BackgroundImageFix" result="effect1_dropShadow_346_583"/>
<feBlend mode="normal" in="SourceGraphic" in2="effect1_dropShadow_346_583" result="shape"/>
</filter>
<linearGradient id="paint0_linear_346_583" x1="48.9633" y1="4.6801" x2="48.9633" y2="103.823" gradientUnits="userSpaceOnUse">
<stop stop-color="white" stop-opacity="0"/>
<stop offset="1" stop-color="white"/>
</linearGradient>
<linearGradient id="paint1_linear_346_583" x1="31.4302" y1="4.6801" x2="31.4302" y2="103.823" gradientUnits="userSpaceOnUse">
<stop stop-color="white" stop-opacity="0"/>
<stop offset="1" stop-color="white"/>
</linearGradient>
<linearGradient id="paint2_linear_346_583" x1="10.5751" y1="96.7663" x2="69.828" y2="96.7663" gradientUnits="userSpaceOnUse">
<stop stop-color="#2CD4D9" stop-opacity="0"/>
<stop offset="0.58" stop-color="#2CD4D9" stop-opacity="0.5"/>
<stop offset="1" stop-color="#2CD4D9" stop-opacity="0.1"/>
</linearGradient>
<linearGradient id="paint3_linear_346_583" x1="20.2073" y1="0" x2="20.2073" y2="30.3109" gradientUnits="userSpaceOnUse">
<stop stop-color="white" stop-opacity="0.7"/>
<stop offset="1" stop-opacity="0.3"/>
</linearGradient>
<clipPath id="clip0_346_583">
<rect width="40.4145" height="30.3109" rx="2.00361" transform="matrix(0.866025 -0.5 2.20305e-08 1 15 67.4038)" fill="white"/>
</clipPath>
</defs>
</svg>
