<svg width="70" height="114" viewBox="0 0 70 114" fill="none" xmlns="http://www.w3.org/2000/svg">
<path d="M57.7284 96.7667L40.1963 106.891L22.6641 96.7667L40.1963 86.6548L57.7284 96.7667Z" fill="white"/>
<path d="M57.7294 0.460741L40.1973 0V96.7665H57.7294V0.460741Z" fill="url(#paint0_linear_346_236)"/>
<path d="M40.1963 0L22.6641 2.3158V96.7665H40.1963V0Z" fill="url(#paint1_linear_346_236)"/>
<path d="M67.4031 96.7663L40.1955 112.48L13 96.7663L40.1955 81.0649L67.4031 96.7663Z" stroke="url(#paint2_linear_346_236)" stroke-width="2.46754" stroke-miterlimit="10"/>
<path fill-rule="evenodd" clip-rule="evenodd" d="M37.3547 99.9351L33.2129 97.5407V86.8236L41.6636 83.8657L37.3547 99.9351Z" fill="#CFD3EE"/>
<path fill-rule="evenodd" clip-rule="evenodd" d="M0 68.5413V95.3439H0.0302214V95.5358C0.0853267 96.8957 0.775029 97.964 1.78826 98.4831L8.09159 102.125L8.30845 96.4833L23.6615 87.6184L28.4414 90.3648L28.6583 84.7423C28.6938 84.718 28.7271 84.6906 28.7579 84.6605L47.8314 73.6519V73.6306C49.7654 72.9356 51.0399 70.8504 50.9244 68.7742V47.3845L52.3251 48.1951L56.2358 43.4684L49.7156 39.7106C49.3363 39.4042 48.892 39.1886 48.4167 39.0801C47.9413 38.9717 47.4475 38.9733 46.9728 39.0849C46.5355 39.1779 46.1156 39.3393 45.7285 39.5631V39.5329L25.3875 51.2934L23.1709 52.5733C22.9131 52.6928 22.6668 52.8356 22.435 52.9999L2.89392 64.3C2.07421 64.6765 1.37401 65.2714 0.870112 66.0196C0.366216 66.7678 0.0780861 67.6402 0.0373279 68.5413H0Z" fill="#CFD3EE"/>
<path fill-rule="evenodd" clip-rule="evenodd" d="M6.50586 72.2901V99.0926H6.53252C6.53252 99.153 6.53252 99.2188 6.53252 99.2792C6.61962 101.491 8.38833 102.932 10.4841 102.498C10.9846 102.391 11.4611 102.193 11.8902 101.914L33.9803 89.1612V89.1505L34.0301 89.1203C34.4738 88.9539 34.8861 88.7135 35.2495 88.4093L54.3213 77.4006V77.3793C56.2553 76.6789 57.5245 74.5992 57.416 72.5194V46.5968C57.4311 46.4147 57.4365 46.2319 57.432 46.0493C57.3449 43.8362 55.5762 42.3946 53.4804 42.8336C53.0426 42.9248 52.6224 43.0863 52.2361 43.3118L52.2255 43.2816L31.8898 55.0421L29.6714 56.3202C29.4136 56.4394 29.1678 56.5828 28.9373 56.7486L9.38911 68.0487C8.56976 68.4257 7.86989 69.0208 7.36606 69.7688C6.86223 70.5169 6.57387 71.3891 6.53252 72.2901H6.50586Z" fill="#F2F3F5"/>
<path fill-rule="evenodd" clip-rule="evenodd" d="M48.1719 80.0317L37.3535 99.9354V82.9292L48.1719 80.0317Z" fill="#F2F3F5"/>
<path fill-rule="evenodd" clip-rule="evenodd" d="M20.0674 75.9893C22.0867 75.2036 23.7203 76.2009 23.7203 78.2167C23.7203 80.2324 22.0867 82.5095 20.0674 83.2952C18.048 84.0809 16.418 83.0837 16.418 81.0626C16.418 79.0415 18.0516 76.775 20.0674 75.9893ZM45.0798 61.07C47.0956 60.2826 48.7328 61.2816 48.7328 63.2956C48.7328 65.3096 47.0956 67.5849 45.0798 68.3706C43.064 69.1563 41.4269 68.1591 41.4269 66.1433C41.4269 64.1275 43.064 61.8557 45.0798 61.07ZM32.7789 68.6532C34.7947 67.8675 36.4319 68.8648 36.4319 70.8805C36.4319 72.8963 34.7947 75.1681 32.7789 75.9538C30.7631 76.7395 29.126 75.7423 29.126 73.7265C29.126 71.7107 30.7631 69.4389 32.7789 68.6532Z" fill="white"/>
<g filter="url(#filter0_d_346_236)">
<g clip-path="url(#clip0_346_236)">
<path fill-rule="evenodd" clip-rule="evenodd" d="M15 67.2061L49.9957 47.0013L49.9957 77.3084L15 97.5132L15 67.2061Z" fill="#F7FCFF"/>
<path fill-rule="evenodd" clip-rule="evenodd" d="M15 85.7271L15 88.2526L49.9957 68.0479L49.9957 65.5223L15 85.7271Z" fill="#E31D1C"/>
<path fill-rule="evenodd" clip-rule="evenodd" d="M15 90.3564L15 92.882L49.9957 72.6773L49.9957 70.1517L15 90.3564Z" fill="#E31D1C"/>
<path fill-rule="evenodd" clip-rule="evenodd" d="M15 76.4658L15 78.9914L49.9957 58.7867L49.9957 56.2611L15 76.4658Z" fill="#E31D1C"/>
<path fill-rule="evenodd" clip-rule="evenodd" d="M15 94.9878L15 97.5134L49.9957 77.3086L49.9957 74.783L15 94.9878Z" fill="#E31D1C"/>
<path fill-rule="evenodd" clip-rule="evenodd" d="M15 81.0967L15 83.6223L49.9957 63.4175L49.9957 60.8919L15 81.0967Z" fill="#E31D1C"/>
<path fill-rule="evenodd" clip-rule="evenodd" d="M15 67.2061L15 69.7316L49.9957 49.5269L49.9957 47.0013L15 67.2061Z" fill="#E31D1C"/>
<path fill-rule="evenodd" clip-rule="evenodd" d="M15 71.8364L15 74.362L49.9957 54.1573L49.9957 51.6317L15 71.8364Z" fill="#E31D1C"/>
<rect width="25.2559" height="16.4164" transform="matrix(0.866025 -0.5 2.20305e-08 1 15 67.2061)" fill="#2E42A5"/>
<path fill-rule="evenodd" clip-rule="evenodd" d="M33.5856 60.8268L34.3794 59.7258L35.1475 59.925L34.9087 58.9193L35.5256 57.8384L34.7405 58.2916L34.3783 57.5675L34.0695 58.6791L33.1485 59.2108L33.8536 59.5284L33.5856 60.8268ZM21.2582 67.3028L20.4644 68.4037L20.7324 67.1054L20.0273 66.7877L20.9483 66.256L21.2571 65.1444L21.6193 65.8686L22.4044 65.4154L21.7875 66.4962L22.0263 67.502L21.2582 67.3028ZM16.8832 69.8288L16.0894 70.9297L16.3574 69.6314L15.6523 69.3137L16.5733 68.782L16.8821 67.6704L17.2443 68.3946L18.0294 67.9413L17.4125 69.0222L17.6513 70.0279L16.8832 69.8288ZM24.8394 65.8787L25.6332 64.7778L26.4013 64.9769L26.1625 63.9712L26.7794 62.8903L25.9943 63.3436L25.6321 62.6194L25.3233 63.731L24.4023 64.2627L25.1074 64.5804L24.8394 65.8787ZM30.0082 62.2518L29.2144 63.3527L29.4824 62.0544L28.7773 61.7367L29.6983 61.205L30.0071 60.0934L30.3693 60.8176L31.1544 60.3644L30.5375 61.4452L30.7763 62.451L30.0082 62.2518ZM16.0894 75.9807L16.8832 74.8798L17.6513 75.0789L17.4125 74.0732L18.0294 72.9923L17.2443 73.4456L16.8821 72.7214L16.5733 73.833L15.6523 74.3647L16.3574 74.6824L16.0894 75.9807ZM21.2582 72.3538L20.4644 73.4547L20.7324 72.1564L20.0273 71.8387L20.9483 71.307L21.2571 70.1954L21.6193 70.9196L22.4044 70.4664L21.7875 71.5472L22.0263 72.553L21.2582 72.3538ZM24.8394 70.9297L25.6332 69.8288L26.4013 70.0279L26.1625 69.0222L26.7794 67.9413L25.9943 68.3946L25.6321 67.6704L25.3233 68.782L24.4023 69.3137L25.1074 69.6314L24.8394 70.9297ZM30.0082 67.3028L29.2144 68.4037L29.4824 67.1054L28.7773 66.7877L29.6983 66.256L30.0071 65.1444L30.3693 65.8686L31.1544 65.4154L30.5375 66.4962L30.7763 67.502L30.0082 67.3028ZM16.0894 81.0317L16.8832 79.9308L17.6513 80.1299L17.4125 79.1242L18.0294 78.0433L17.2443 78.4966L16.8821 77.7724L16.5733 78.884L15.6523 79.4157L16.3574 79.7334L16.0894 81.0317ZM21.2582 77.4057L20.4644 78.5067L20.7324 77.2083L20.0273 76.8907L20.9483 76.359L21.2571 75.2474L21.6193 75.9716L22.4044 75.5183L21.7875 76.5992L22.0263 77.6049L21.2582 77.4057ZM24.8394 75.9807L25.6332 74.8798L26.4013 75.0789L26.1625 74.0732L26.7794 72.9923L25.9943 73.4456L25.6321 72.7214L25.3233 73.833L24.4023 74.3647L25.1074 74.6824L24.8394 75.9807ZM30.0082 72.3538L29.2144 73.4547L29.4824 72.1564L28.7773 71.8387L29.6983 71.307L30.0071 70.1954L30.3693 70.9196L31.1544 70.4664L30.5375 71.5472L30.7763 72.553L30.0082 72.3538ZM34.3794 64.7778L33.5856 65.8787L33.8536 64.5804L33.1485 64.2627L34.0695 63.731L34.3783 62.6194L34.7405 63.3436L35.5256 62.8903L34.9087 63.9712L35.1475 64.9769L34.3794 64.7778ZM33.5856 70.9297L34.3794 69.8288L35.1475 70.0279L34.9087 69.0222L35.5256 67.9413L34.7405 68.3946L34.3783 67.6704L34.0695 68.782L33.1485 69.3137L33.8536 69.6314L33.5856 70.9297ZM19.0688 71.0915L18.275 72.1925L18.543 70.8941L17.8379 70.5765L18.7589 70.0448L19.0677 68.9331L19.4299 69.6573L20.215 69.2041L19.5981 70.285L19.8369 71.2907L19.0688 71.0915ZM22.65 69.6665L23.4438 68.5655L24.2119 68.7647L23.9731 67.759L24.59 66.6781L23.8049 67.1314L23.4427 66.4072L23.1339 67.5188L22.2129 68.0505L22.918 68.3681L22.65 69.6665ZM27.8188 66.04L27.025 67.141L27.293 65.8426L26.5879 65.525L27.5089 64.9933L27.8177 63.8817L28.1799 64.6059L28.965 64.1526L28.3481 65.2335L28.5869 66.2392L27.8188 66.04ZM18.275 77.2435L19.0688 76.1425L19.8369 76.3417L19.5981 75.3359L20.215 74.2551L19.4299 74.7083L19.0677 73.9841L18.7589 75.0958L17.8379 75.6275L18.543 75.9451L18.275 77.2435ZM23.4438 73.6165L22.65 74.7175L22.918 73.4191L22.2129 73.1015L23.1339 72.5698L23.4427 71.4582L23.8049 72.1824L24.59 71.7291L23.9731 72.81L24.2119 73.8157L23.4438 73.6165ZM27.025 72.1925L27.8188 71.0915L28.5869 71.2907L28.3481 70.2849L28.965 69.2041L28.1799 69.6573L27.8177 68.9331L27.5089 70.0448L26.5879 70.5765L27.293 70.8941L27.025 72.1925ZM32.1938 63.5145L31.4 64.6155L31.668 63.3171L30.9629 62.9995L31.8839 62.4678L32.1927 61.3562L32.5549 62.0804L33.34 61.6271L32.7231 62.708L32.9619 63.7137L32.1938 63.5145ZM31.4 69.6665L32.1938 68.5655L32.9619 68.7647L32.7231 67.759L33.34 66.6781L32.5549 67.1314L32.1927 66.4072L31.8839 67.5188L30.9629 68.0505L31.668 68.3681L31.4 69.6665Z" fill="#F7FCFF"/>
<rect width="40.4145" height="30.3109" transform="matrix(0.866025 -0.5 2.20305e-08 1 15 67.2061)" fill="url(#paint3_linear_346_236)" style="mix-blend-mode:overlay"/>
</g>
<rect x="0.433795" y="0.250452" width="39.4127" height="29.3091" rx="1.50271" transform="matrix(0.866025 -0.5 2.20305e-08 1 15.0581 67.4239)" stroke="black" stroke-opacity="0.1" stroke-width="1.00181" style="mix-blend-mode:multiply"/>
</g>
<defs>
<filter id="filter0_d_346_236" x="11.9946" y="45.9982" width="41.0108" height="56.5289" filterUnits="userSpaceOnUse" color-interpolation-filters="sRGB">
<feFlood flood-opacity="0" result="BackgroundImageFix"/>
<feColorMatrix in="SourceAlpha" type="matrix" values="0 0 0 0 0 0 0 0 0 0 0 0 0 0 0 0 0 0 127 0" result="hardAlpha"/>
<feOffset dy="2.00361"/>
<feGaussianBlur stdDeviation="1.50271"/>
<feColorMatrix type="matrix" values="0 0 0 0 0 0 0 0 0 0 0 0 0 0 0 0 0 0 0.1 0"/>
<feBlend mode="normal" in2="BackgroundImageFix" result="effect1_dropShadow_346_236"/>
<feBlend mode="normal" in="SourceGraphic" in2="effect1_dropShadow_346_236" result="shape"/>
</filter>
<linearGradient id="paint0_linear_346_236" x1="48.9633" y1="4.6801" x2="48.9633" y2="103.823" gradientUnits="userSpaceOnUse">
<stop stop-color="white" stop-opacity="0"/>
<stop offset="1" stop-color="white"/>
</linearGradient>
<linearGradient id="paint1_linear_346_236" x1="31.4302" y1="4.6801" x2="31.4302" y2="103.823" gradientUnits="userSpaceOnUse">
<stop stop-color="white" stop-opacity="0"/>
<stop offset="1" stop-color="white"/>
</linearGradient>
<linearGradient id="paint2_linear_346_236" x1="10.5751" y1="96.7663" x2="69.828" y2="96.7663" gradientUnits="userSpaceOnUse">
<stop stop-color="#2CD4D9" stop-opacity="0"/>
<stop offset="0.58" stop-color="#2CD4D9" stop-opacity="0.5"/>
<stop offset="1" stop-color="#2CD4D9" stop-opacity="0.1"/>
</linearGradient>
<linearGradient id="paint3_linear_346_236" x1="20.2073" y1="0" x2="20.2073" y2="30.3109" gradientUnits="userSpaceOnUse">
<stop stop-color="white" stop-opacity="0.7"/>
<stop offset="1" stop-opacity="0.3"/>
</linearGradient>
<clipPath id="clip0_346_236">
<rect width="40.4145" height="30.3109" rx="2.00361" transform="matrix(0.866025 -0.5 2.20305e-08 1 15 67.207)" fill="white"/>
</clipPath>
</defs>
</svg>
