<svg width="500" height="400" viewBox="0 0 500 400" fill="none" xmlns="http://www.w3.org/2000/svg">
<mask id="mask0_893_2384" style="mask-type:alpha" maskUnits="userSpaceOnUse" x="0" y="0" width="500" height="400">
<rect width="500" height="400" fill="#D9D9D9"/>
</mask>
<g mask="url(#mask0_893_2384)">
<rect width="500" height="400" fill="#D9D9D9"/>
<rect width="500" height="400" fill="url(#paint0_linear_893_2384)"/>
<g opacity="0.5">
<path d="M254.444 215.829C254.444 259.177 219.233 294.387 175.886 294.387C132.539 294.387 97.3281 259.177 97.3281 215.829C97.3281 172.482 132.539 137.271 175.886 137.271C219.233 137.271 254.444 172.482 254.444 215.829Z" fill="#175938"/>
</g>
<g opacity="0.5">
<path d="M246.588 212.888C246.588 253.289 213.902 285.975 173.501 285.975C133.1 285.975 100.414 253.289 100.414 212.888C100.414 172.486 133.1 139.801 173.501 139.801C213.902 139.801 246.588 172.486 246.588 212.888Z" fill="#1C793F"/>
</g>
<g opacity="0.5">
<path d="M237.891 212.041C237.891 250.899 206.468 282.322 167.609 282.322C128.751 282.322 97.3281 250.899 97.3281 212.041C97.3281 173.183 128.751 141.76 167.609 141.76C206.468 141.76 237.891 173.183 237.891 212.041Z" fill="#1D8842"/>
</g>
<g opacity="0.5">
<path d="M219.379 236.313C216.293 235.892 213.347 235.471 210.401 234.77C196.653 257.355 171.964 272.646 143.627 272.926C99.8586 273.488 63.9464 238.277 63.3853 194.649C62.8242 150.881 98.035 114.969 141.663 114.408C166.773 114.127 189.218 125.49 203.948 143.586C207.455 143.025 210.962 142.464 214.469 141.903C198.056 119.177 171.402 104.588 141.522 105.009C92.7042 105.57 53.4253 145.831 53.9864 194.789C54.5475 243.608 94.8085 282.886 143.767 282.325C176.733 281.905 205.351 263.528 220.221 236.593C219.94 236.453 219.659 236.453 219.379 236.313Z" fill="#17AE4A"/>
</g>
<g opacity="0.6">
<path d="M55.944 223.405C58.3288 221.441 60.5733 219.478 63.0984 217.654C55.1023 192.403 59.8719 163.786 78.2488 142.182C106.586 108.935 156.807 104.867 190.054 133.204C223.3 161.541 227.369 211.762 199.032 245.009C182.759 264.087 159.332 273.486 136.045 272.785C134.221 275.731 132.257 278.817 130.434 281.763C158.21 284.288 186.687 273.767 206.046 251.041C237.75 213.866 233.26 157.753 196.086 126.05C158.771 94.4862 102.798 98.9752 71.0944 136.15C49.7716 161.26 44.8617 194.928 55.2426 223.967C55.5231 223.686 55.6634 223.546 55.944 223.405Z" fill="#1EAE4E"/>
</g>
<g opacity="0.5">
<path d="M125.809 205.309C133.665 198.576 138.154 192.263 138.996 186.231C139.697 181.321 138.435 178.656 135.348 178.235C133.525 177.954 132.122 178.656 131.14 180.339C130.158 182.023 129.316 185.109 128.615 189.878L99.857 186.371C101.4 177.253 104.346 169.958 108.554 164.487C112.763 159.016 117.673 155.229 123.424 153.125C129.176 151.02 135.208 150.459 141.661 151.301C152.884 152.704 160.739 156.772 165.088 163.505C169.437 170.239 170.98 178.095 169.717 186.792C168.455 196.051 164.387 204.468 157.513 212.043C150.779 219.618 142.643 225.791 133.244 230.7L163.826 234.628L160.038 261.001L90.8789 252.304L94.386 227.755C107.432 219.478 117.953 212.043 125.809 205.309Z" fill="#004E67"/>
<path d="M174.49 209.939C176.734 193.807 181.924 181.462 189.921 172.765C197.917 164.067 208.578 160.56 222.185 162.243C235.793 163.927 245.192 169.959 250.382 180.34C255.573 190.721 257.116 203.907 254.871 219.899C252.627 236.032 247.436 248.377 239.44 257.074C231.444 265.772 220.783 269.279 207.175 267.595C193.568 265.912 184.169 259.88 178.979 249.499C173.788 239.399 172.245 226.072 174.49 209.939ZM225.552 216.392C226.534 209.378 226.534 203.907 225.692 199.979C224.851 196.051 222.185 193.807 217.837 193.246C213.348 192.685 210.121 194.228 208.157 197.735C206.193 201.382 204.65 206.573 203.668 213.587C202.686 220.601 202.546 226.072 203.528 230C204.37 234.068 207.035 236.312 211.524 236.874C215.873 237.435 219.099 235.892 221.063 232.244C223.027 228.737 224.57 223.406 225.552 216.392Z" fill="#004E67"/>
</g>
<path d="M127.912 199.978C136.188 192.684 140.678 186.231 141.379 180.479C142.08 175.71 140.678 173.465 137.451 173.465C135.627 173.465 134.084 174.307 133.102 175.99C132.12 177.674 131.279 180.76 130.577 185.249H100.136C101.679 176.411 104.485 169.257 108.833 163.645C113.182 158.034 118.373 153.826 124.405 151.16C130.437 148.495 136.89 147.232 143.623 147.232C155.547 147.232 163.824 150.178 168.594 156.07C173.363 161.962 175.047 169.116 173.924 177.533C172.662 186.511 168.594 194.928 161.58 202.924C154.565 210.78 146.149 217.654 136.329 223.406H168.734L165.227 248.797H91.8594L95.0859 224.949C108.833 215.55 119.635 207.273 127.912 199.978Z" fill="white"/>
<path d="M179.396 198.575C181.5 183.144 186.691 170.8 194.968 161.681C203.244 152.563 214.467 147.934 228.775 147.934C243.084 147.934 253.185 152.563 258.936 161.681C264.688 170.94 266.511 183.144 264.407 198.575C262.303 214.006 257.112 226.351 248.836 235.61C240.559 244.868 229.337 249.358 215.028 249.358C200.719 249.358 190.619 244.728 184.867 235.61C179.116 226.492 177.292 214.147 179.396 198.575ZM233.265 198.575C234.247 191.842 234.106 186.651 233.124 183.144C232.142 179.497 229.337 177.673 224.707 177.673C219.938 177.673 216.571 179.497 214.607 183.144C212.643 186.792 211.1 191.982 210.258 198.575C209.276 205.309 209.417 210.499 210.399 214.147C211.381 217.794 214.326 219.618 218.956 219.618C223.585 219.618 226.952 217.794 228.916 214.147C230.88 210.499 232.423 205.309 233.265 198.575Z" fill="white"/>
<path d="M336.37 208.396C338.053 211.062 338.615 214.148 338.194 217.655C337.492 222.986 335.107 227.194 331.18 230.14C327.252 233.086 321.921 234.489 315.328 234.489H283.203L291.62 173.186L294.285 169.258C300.458 169.258 333.985 174.589 337.212 177.254C340.438 179.919 341.701 183.987 340.999 189.178C340.578 192.825 339.176 195.771 336.931 198.296C334.687 200.821 332.021 202.364 328.795 203.206C332.021 204.048 334.687 205.731 336.37 208.396ZM307.472 197.174H314.907C316.59 197.174 317.993 196.893 318.975 196.192C319.957 195.491 320.518 194.368 320.658 192.965C320.799 191.422 320.658 190.3 319.817 189.599C319.115 188.897 317.853 188.476 316.169 188.476H308.734L307.472 197.174ZM317.151 218.216C318.133 217.515 318.694 216.533 318.835 214.99C319.256 212.044 317.713 210.501 314.346 210.501H305.648L304.526 219.198H313.223C314.907 219.198 316.31 218.777 317.151 218.216Z" fill="#000E14"/>
<path d="M367.93 188.476L366.808 196.052L386.587 206.573L383.922 210.641H364.844L363.721 219.198L385.886 230.701L383.221 234.629H342.398L350.815 173.186L353.34 169.258L392.199 184.549L389.533 188.476H367.93Z" fill="#000E14"/>
<path d="M447.614 184.549L445.089 188.476H428.816L425.028 230.561L422.503 234.629H403.144L409.457 188.476H393.465L395.429 173.186L398.094 169.258L447.614 184.549Z" fill="#000E14"/>
<path d="M339.175 203.908C340.858 206.573 341.419 209.66 340.998 213.167C340.297 218.497 337.912 222.706 333.984 225.652C330.056 228.598 324.726 230.001 318.132 230.001H286.008L294.425 168.697H325.708C331.88 168.697 336.65 170.1 339.876 172.765C343.103 175.431 344.365 179.499 343.664 184.689C343.243 188.337 341.84 191.283 339.596 193.808C337.351 196.333 334.686 197.876 331.459 198.718C334.826 199.419 337.491 201.243 339.175 203.908ZM310.277 192.545H317.712C319.395 192.545 320.798 192.265 321.78 191.563C322.762 190.862 323.323 189.74 323.463 188.337C323.603 186.794 323.463 185.671 322.621 184.97C321.92 184.269 320.657 183.848 318.974 183.848H311.539L310.277 192.545ZM319.956 213.588C320.938 212.886 321.499 211.904 321.639 210.361C322.06 207.415 320.517 206.012 317.15 206.012H308.453L307.331 214.71H316.028C317.712 214.569 319.114 214.289 319.956 213.588Z" fill="white"/>
<path d="M370.738 183.988L369.616 191.563H388.694L386.731 206.012H367.652L366.53 214.71H388.133L386.029 230.001H345.207L353.624 168.697H394.446L392.342 183.988H370.738Z" fill="white"/>
<path d="M450.001 168.697L447.897 183.988H431.625L425.312 230.001H405.953L412.266 183.988H396.273L398.237 168.697H450.001Z" fill="white"/>
<g opacity="0.5">
<path d="M254.444 215.829C254.444 259.177 219.233 294.387 175.886 294.387C132.539 294.387 97.3281 259.177 97.3281 215.829C97.3281 172.482 132.539 137.271 175.886 137.271C219.233 137.271 254.444 172.482 254.444 215.829Z" fill="#175938"/>
</g>
<g opacity="0.5">
<path d="M246.588 212.888C246.588 253.289 213.902 285.975 173.501 285.975C133.1 285.975 100.414 253.289 100.414 212.888C100.414 172.486 133.1 139.801 173.501 139.801C213.902 139.801 246.588 172.486 246.588 212.888Z" fill="#1C793F"/>
</g>
<g opacity="0.5">
<path d="M237.891 212.041C237.891 250.899 206.468 282.322 167.609 282.322C128.751 282.322 97.3281 250.899 97.3281 212.041C97.3281 173.183 128.751 141.76 167.609 141.76C206.468 141.76 237.891 173.183 237.891 212.041Z" fill="#1D8842"/>
</g>
<g opacity="0.5">
<path d="M219.379 236.313C216.293 235.892 213.347 235.471 210.401 234.77C196.653 257.355 171.964 272.646 143.627 272.926C99.8586 273.488 63.9464 238.277 63.3853 194.649C62.8242 150.881 98.035 114.969 141.663 114.408C166.773 114.127 189.218 125.49 203.948 143.586C207.455 143.025 210.962 142.464 214.469 141.903C198.056 119.177 171.402 104.588 141.522 105.009C92.7042 105.57 53.4253 145.831 53.9864 194.789C54.5475 243.608 94.8085 282.886 143.767 282.325C176.733 281.905 205.351 263.528 220.221 236.593C219.94 236.453 219.659 236.453 219.379 236.313Z" fill="#17AE4A"/>
</g>
<g opacity="0.6">
<path d="M55.944 223.405C58.3288 221.441 60.5733 219.478 63.0984 217.654C55.1023 192.403 59.8719 163.786 78.2488 142.182C106.586 108.935 156.807 104.867 190.054 133.204C223.3 161.541 227.369 211.762 199.032 245.009C182.759 264.087 159.332 273.486 136.045 272.785C134.221 275.731 132.257 278.817 130.434 281.763C158.21 284.288 186.687 273.767 206.046 251.041C237.75 213.866 233.26 157.753 196.086 126.05C158.771 94.4862 102.798 98.9752 71.0944 136.15C49.7716 161.26 44.8617 194.928 55.2426 223.967C55.5231 223.686 55.6634 223.546 55.944 223.405Z" fill="#1EAE4E"/>
</g>
<g opacity="0.5">
<path d="M125.809 205.309C133.665 198.576 138.154 192.263 138.996 186.231C139.697 181.321 138.435 178.656 135.348 178.235C133.525 177.954 132.122 178.656 131.14 180.339C130.158 182.023 129.316 185.109 128.615 189.878L99.857 186.371C101.4 177.253 104.346 169.958 108.554 164.487C112.763 159.016 117.673 155.229 123.424 153.125C129.176 151.02 135.208 150.459 141.661 151.301C152.884 152.704 160.739 156.772 165.088 163.505C169.437 170.239 170.98 178.095 169.717 186.792C168.455 196.051 164.387 204.468 157.513 212.043C150.779 219.618 142.643 225.791 133.244 230.7L163.826 234.628L160.038 261.001L90.8789 252.304L94.386 227.755C107.432 219.478 117.953 212.043 125.809 205.309Z" fill="#004E67"/>
<path d="M174.49 209.939C176.734 193.807 181.924 181.462 189.921 172.765C197.917 164.067 208.578 160.56 222.185 162.243C235.793 163.927 245.192 169.959 250.382 180.34C255.573 190.721 257.116 203.907 254.871 219.899C252.627 236.032 247.436 248.377 239.44 257.074C231.444 265.772 220.783 269.279 207.175 267.595C193.568 265.912 184.169 259.88 178.979 249.499C173.788 239.399 172.245 226.072 174.49 209.939ZM225.552 216.392C226.534 209.378 226.534 203.907 225.692 199.979C224.851 196.051 222.185 193.807 217.837 193.246C213.348 192.685 210.121 194.228 208.157 197.735C206.193 201.382 204.65 206.573 203.668 213.587C202.686 220.601 202.546 226.072 203.528 230C204.37 234.068 207.035 236.312 211.524 236.874C215.873 237.435 219.099 235.892 221.063 232.244C223.027 228.737 224.57 223.406 225.552 216.392Z" fill="#004E67"/>
</g>
<path d="M127.912 199.978C136.188 192.684 140.678 186.231 141.379 180.479C142.08 175.71 140.678 173.465 137.451 173.465C135.627 173.465 134.084 174.307 133.102 175.99C132.12 177.674 131.279 180.76 130.577 185.249H100.136C101.679 176.411 104.485 169.257 108.833 163.645C113.182 158.034 118.373 153.826 124.405 151.16C130.437 148.495 136.89 147.232 143.623 147.232C155.547 147.232 163.824 150.178 168.594 156.07C173.363 161.962 175.047 169.116 173.924 177.533C172.662 186.511 168.594 194.928 161.58 202.924C154.565 210.78 146.149 217.654 136.329 223.406H168.734L165.227 248.797H91.8594L95.0859 224.949C108.833 215.55 119.635 207.273 127.912 199.978Z" fill="white"/>
<path d="M179.396 198.575C181.5 183.144 186.691 170.8 194.968 161.681C203.244 152.563 214.467 147.934 228.775 147.934C243.084 147.934 253.185 152.563 258.936 161.681C264.688 170.94 266.511 183.144 264.407 198.575C262.303 214.006 257.112 226.351 248.836 235.61C240.559 244.868 229.337 249.358 215.028 249.358C200.719 249.358 190.619 244.728 184.867 235.61C179.116 226.492 177.292 214.147 179.396 198.575ZM233.265 198.575C234.247 191.842 234.106 186.651 233.124 183.144C232.142 179.497 229.337 177.673 224.707 177.673C219.938 177.673 216.571 179.497 214.607 183.144C212.643 186.792 211.1 191.982 210.258 198.575C209.276 205.309 209.417 210.499 210.399 214.147C211.381 217.794 214.326 219.618 218.956 219.618C223.585 219.618 226.952 217.794 228.916 214.147C230.88 210.499 232.423 205.309 233.265 198.575Z" fill="white"/>
<path d="M336.37 208.396C338.053 211.062 338.615 214.148 338.194 217.655C337.492 222.986 335.107 227.194 331.18 230.14C327.252 233.086 321.921 234.489 315.328 234.489H283.203L291.62 173.186L294.285 169.258C300.458 169.258 333.985 174.589 337.212 177.254C340.438 179.919 341.701 183.987 340.999 189.178C340.578 192.825 339.176 195.771 336.931 198.296C334.687 200.821 332.021 202.364 328.795 203.206C332.021 204.048 334.687 205.731 336.37 208.396ZM307.472 197.174H314.907C316.59 197.174 317.993 196.893 318.975 196.192C319.957 195.491 320.518 194.368 320.658 192.965C320.799 191.422 320.658 190.3 319.817 189.599C319.115 188.897 317.853 188.476 316.169 188.476H308.734L307.472 197.174ZM317.151 218.216C318.133 217.515 318.694 216.533 318.835 214.99C319.256 212.044 317.713 210.501 314.346 210.501H305.648L304.526 219.198H313.223C314.907 219.198 316.31 218.777 317.151 218.216Z" fill="#000E14"/>
<path d="M367.93 188.476L366.808 196.052L386.587 206.573L383.922 210.641H364.844L363.721 219.198L385.886 230.701L383.221 234.629H342.398L350.815 173.186L353.34 169.258L392.199 184.549L389.533 188.476H367.93Z" fill="#000E14"/>
<path d="M447.614 184.549L445.089 188.476H428.816L425.028 230.561L422.503 234.629H403.144L409.457 188.476H393.465L395.429 173.186L398.094 169.258L447.614 184.549Z" fill="#000E14"/>
<path d="M339.175 203.908C340.858 206.573 341.419 209.66 340.998 213.167C340.297 218.497 337.912 222.706 333.984 225.652C330.056 228.598 324.726 230.001 318.132 230.001H286.008L294.425 168.697H325.708C331.88 168.697 336.65 170.1 339.876 172.765C343.103 175.431 344.365 179.499 343.664 184.689C343.243 188.337 341.84 191.283 339.596 193.808C337.351 196.333 334.686 197.876 331.459 198.718C334.826 199.419 337.491 201.243 339.175 203.908ZM310.277 192.545H317.712C319.395 192.545 320.798 192.265 321.78 191.563C322.762 190.862 323.323 189.74 323.463 188.337C323.603 186.794 323.463 185.671 322.621 184.97C321.92 184.269 320.657 183.848 318.974 183.848H311.539L310.277 192.545ZM319.956 213.588C320.938 212.886 321.499 211.904 321.639 210.361C322.06 207.415 320.517 206.012 317.15 206.012H308.453L307.331 214.71H316.028C317.712 214.569 319.114 214.289 319.956 213.588Z" fill="white"/>
<path d="M370.738 183.988L369.616 191.563H388.694L386.731 206.012H367.652L366.53 214.71H388.133L386.029 230.001H345.207L353.624 168.697H394.446L392.342 183.988H370.738Z" fill="white"/>
<path d="M450.001 168.697L447.897 183.988H431.625L425.312 230.001H405.953L412.266 183.988H396.273L398.237 168.697H450.001Z" fill="white"/>
</g>
<defs>
<linearGradient id="paint0_linear_893_2384" x1="250" y1="0" x2="250" y2="400" gradientUnits="userSpaceOnUse">
<stop stop-color="#134884"/>
<stop offset="1" stop-color="#091E36"/>
</linearGradient>
</defs>
</svg>
