<svg width="32" height="32" viewBox="0 0 32 32" fill="none" xmlns="http://www.w3.org/2000/svg">
<mask id="mask0_866_3019" style="mask-type:alpha" maskUnits="userSpaceOnUse" x="0" y="0" width="32" height="32">
<circle cx="16" cy="16" r="16" fill="#D9D9D9"/>
</mask>
<g mask="url(#mask0_866_3019)">
<circle cx="16" cy="16" r="14" fill="#2B59FF"/>
<path d="M9.60493 9.26619C9.59662 9.27117 9.67465 9.22303 9.64975 9.22137C9.66303 9.19646 9.68295 9.1533 9.68627 9.07693C9.68793 9.04041 9.67963 8.99724 9.66801 8.95906C9.65971 8.9408 9.65307 8.92254 9.64145 8.90926L9.63813 8.90427L9.63647 8.90095C9.62983 8.88767 9.64477 8.91922 9.64311 8.91424L9.63979 8.90926L9.61821 8.87439C9.60327 8.84949 9.60659 8.86609 9.59828 8.85447C9.52856 8.78142 9.39574 8.69841 9.21977 8.67019C9.20151 8.66687 9.16996 8.66189 9.16166 8.66355C9.12846 8.65857 9.08529 8.65359 9.07533 8.65525C9.04545 8.65359 8.98402 8.65525 8.93754 8.66023C8.83793 8.66853 8.73666 8.69509 8.63871 8.73328C8.54076 8.77146 8.44447 8.82293 8.36312 8.88933C8.34154 8.90593 8.32328 8.92254 8.30336 8.9408L8.2934 8.95076C8.29008 8.95408 8.31498 8.93084 8.30336 8.94246L8.27845 8.96736C8.26517 8.98064 8.24359 9.00056 8.23861 9.00886C8.22035 9.03211 8.1805 9.08523 8.15228 9.1284C8.02943 9.31268 7.96468 9.5534 7.98793 9.77254V9.7825V9.78582C7.99125 9.8074 7.9846 9.7576 7.9846 9.76424L7.98627 9.77254L8.00121 9.87215C8.00453 9.90037 8.00785 9.90535 8.01117 9.91531L8.01781 9.94686C8.03109 9.99666 8.05101 10.0597 8.07591 10.1162C8.12572 10.2324 8.19711 10.3486 8.28509 10.4598C8.46273 10.6823 8.7018 10.8898 8.96244 11.0691C9.23305 11.2534 9.53188 11.4128 9.83403 11.5954C10.1345 11.7747 10.44 11.9673 10.7123 12.1964C10.9746 12.4205 11.2402 12.6911 11.3929 13.0431C11.4311 13.1277 11.461 13.229 11.4776 13.307C11.5008 13.4166 11.5075 13.5063 11.5075 13.5992C11.5058 13.7835 11.4627 13.9611 11.3846 14.1205C11.3083 14.2766 11.1788 14.4177 11.0559 14.4957C11.0343 14.5106 11.0127 14.5239 10.9895 14.5356C10.9679 14.5472 10.953 14.5538 10.9331 14.5621C10.8965 14.5804 10.8617 14.5903 10.8268 14.602C10.7571 14.6235 10.689 14.6352 10.6226 14.6401C10.362 14.6584 10.1544 14.5638 10.0332 14.4642C9.97348 14.416 9.93198 14.3695 9.90874 14.3363C9.88549 14.3031 9.87387 14.2865 9.87387 14.2865C9.77758 14.1504 9.80913 13.9628 9.94526 13.8682C10.0415 13.8001 10.1627 13.7968 10.2607 13.8482L10.4018 13.923C10.4035 13.923 10.4084 13.9263 10.425 13.9296C10.4383 13.9329 10.4798 13.9396 10.5396 13.923C10.5545 13.9196 10.5678 13.9113 10.5811 13.9047C10.5894 13.8997 10.6143 13.8814 10.5994 13.8881C10.6342 13.8565 10.6409 13.8316 10.6575 13.7868C10.6708 13.7437 10.6774 13.6839 10.6691 13.6191C10.6658 13.5876 10.6558 13.5511 10.6475 13.5328C10.6326 13.4847 10.6176 13.4598 10.596 13.4199C10.5147 13.2722 10.3487 13.1128 10.1196 12.9518C9.89877 12.7907 9.63481 12.643 9.33764 12.4919C9.04213 12.3425 8.71342 12.1748 8.37972 11.9689C8.03939 11.7564 7.70736 11.4958 7.42679 11.1488C7.28734 10.9762 7.16116 10.7819 7.06321 10.5644C7.01507 10.4532 6.97522 10.347 6.94202 10.2208L6.91878 10.1195C6.91214 10.0863 6.90384 10.0481 6.90218 10.0315L6.88724 9.93192L6.88226 9.88875L6.8806 9.86551C6.84407 9.36746 6.98851 8.89265 7.25081 8.51082C7.32054 8.41453 7.38695 8.33318 7.4849 8.23689C7.50814 8.21365 7.5181 8.20535 7.5347 8.1904L7.55794 8.16882L7.5762 8.15222L7.60111 8.1323C7.64427 8.09577 7.6891 8.06091 7.73558 8.02937C7.9182 7.89988 8.11576 7.80857 8.31498 7.74714C8.51586 7.69069 8.71674 7.66247 8.91264 7.66413C9.01391 7.66579 9.09858 7.67077 9.20815 7.68903C9.26791 7.69734 9.29614 7.70564 9.331 7.71228C9.39076 7.7239 9.42729 7.73552 9.47377 7.75046C9.82407 7.86501 10.1329 8.07917 10.3105 8.37966C10.3321 8.41453 10.3653 8.47595 10.3736 8.49919L10.3885 8.53572L10.3902 8.5407L10.3985 8.55896L10.4001 8.56228L10.4051 8.57722L10.4151 8.60877C10.4433 8.69177 10.4566 8.77146 10.4649 8.84783C10.4782 9.00056 10.4549 9.1367 10.4201 9.25457C10.3487 9.49197 10.2009 9.65301 10.0831 9.73602C10.0216 9.78084 9.94526 9.82069 9.93862 9.81903C9.91704 9.82733 9.90708 9.83065 9.90708 9.83065C9.75102 9.91365 9.55678 9.85223 9.47377 9.69617C9.3891 9.54178 9.44887 9.3492 9.60493 9.26619V9.26619Z" fill="url(#paint0_radial_866_3019)"/>
<path d="M21.4304 9.83651C21.4304 9.83651 21.4205 9.83319 21.3989 9.82488C21.3922 9.82488 21.3142 9.7867 21.2544 9.74188C21.1366 9.65887 20.9888 9.49783 20.9174 9.26043C20.8809 9.14256 20.8593 9.00642 20.8726 8.85369C20.8809 8.77732 20.8942 8.69763 20.9224 8.61462L20.9324 8.58308L20.9374 8.56814L20.939 8.56482L20.9473 8.54656L20.949 8.54158L20.9639 8.50505C20.9739 8.48181 21.0054 8.41873 21.027 8.38552C21.2046 8.08669 21.5134 7.87087 21.8637 7.75632C21.9119 7.74138 21.9467 7.72976 22.0065 7.71814C22.0414 7.70984 22.0696 7.70319 22.1294 7.69489C22.2406 7.67663 22.3236 7.67331 22.4249 7.66999C22.6208 7.66833 22.8216 7.69655 23.0225 7.753C23.2217 7.81443 23.4193 7.90573 23.6019 8.03523C23.6484 8.06677 23.6932 8.10163 23.7364 8.13816L23.7613 8.15808L23.7796 8.17468L23.8028 8.19626C23.8194 8.21286 23.8294 8.21951 23.8526 8.24275C23.9506 8.3407 24.017 8.42039 24.0867 8.51667C24.349 8.89685 24.4951 9.37332 24.4569 9.87137L24.4552 9.89461L24.4503 9.93778L24.4353 10.0374C24.4337 10.0556 24.4254 10.0922 24.4187 10.1254L24.3955 10.2266C24.3623 10.3528 24.3224 10.4591 24.2743 10.5703C24.178 10.7878 24.0502 10.982 23.9107 11.1547C23.6301 11.5017 23.2981 11.7623 22.9578 11.9748C22.6241 12.1807 22.2954 12.3467 21.9999 12.4977C21.7027 12.6488 21.4387 12.7966 21.2179 12.9576C20.9888 13.1187 20.8228 13.278 20.7415 13.4258C20.7199 13.4656 20.7049 13.4905 20.69 13.5387C20.6817 13.5569 20.6734 13.5935 20.6684 13.625C20.6584 13.6897 20.6667 13.7495 20.68 13.7927C20.6966 13.8375 20.7033 13.8624 20.7381 13.8939C20.7215 13.8856 20.7481 13.9056 20.7564 13.9105C20.7697 13.9172 20.783 13.9238 20.7979 13.9288C20.8577 13.9471 20.8992 13.9404 20.9125 13.9355C20.9291 13.9321 20.9357 13.9272 20.9357 13.9288L21.0751 13.8541C21.2212 13.7761 21.4039 13.8309 21.4819 13.9786C21.5367 14.0815 21.5251 14.2044 21.462 14.294L21.4271 14.3439C21.4039 14.3771 21.364 14.4235 21.3026 14.4717C21.1831 14.5713 20.9739 14.6643 20.7132 14.6477C20.6485 14.6427 20.5804 14.6311 20.509 14.6095C20.4742 14.5979 20.4376 14.5862 20.4028 14.5696C20.3845 14.5613 20.3679 14.5547 20.3463 14.5431C20.3248 14.5298 20.3015 14.5165 20.2799 14.5032C20.1571 14.4252 20.0259 14.2841 19.9512 14.128C19.8715 13.9687 19.83 13.791 19.8284 13.6067C19.8267 13.5138 19.8333 13.4241 19.8582 13.3146C19.8748 13.2349 19.9047 13.1336 19.9429 13.0506C20.0957 12.7003 20.3613 12.428 20.6236 12.2039C20.8959 11.9748 21.2013 11.7822 21.5018 11.6029C21.804 11.4203 22.1028 11.2626 22.3734 11.0766C22.634 10.8974 22.8731 10.6915 23.0507 10.4674C23.1387 10.3561 23.2101 10.2399 23.2599 10.1237C23.2832 10.0673 23.3048 10.0042 23.318 9.95438L23.3247 9.92283C23.328 9.91287 23.3313 9.90623 23.3346 9.87967L23.3496 9.78006L23.3313 9.77176C23.333 9.76512 23.3097 9.81492 23.3097 9.79334V9.79002L23.3297 9.78006C23.3529 9.56092 23.2964 9.31853 23.1753 9.13592C23.147 9.09109 23.1122 9.03963 23.0939 9.01638C23.0889 9.00974 23.069 8.98816 23.0574 8.97488L23.0358 8.9533L23.0341 8.94998C23.0225 8.93836 23.0474 8.9616 23.0441 8.95828L23.0341 8.94832C23.0159 8.93006 22.996 8.91345 22.9744 8.89685C22.893 8.83045 22.7967 8.77898 22.6988 8.7408C22.6008 8.70261 22.4979 8.67605 22.4 8.66775C22.3518 8.65945 22.2904 8.65945 22.2605 8.65945C22.2505 8.65779 22.2074 8.66277 22.1742 8.66775C22.1659 8.66775 22.1343 8.67107 22.1161 8.67439C21.9401 8.70261 21.8056 8.78562 21.7376 8.85867C21.7276 8.87029 21.7326 8.85535 21.7176 8.87859L21.696 8.91345L21.6927 8.91843L21.6994 8.90515L21.6977 8.90847L21.6944 8.91345C21.6828 8.92674 21.6761 8.945 21.6678 8.96326C21.6562 9.00144 21.6479 9.04461 21.6496 9.08113C21.6529 9.15584 21.6728 9.20066 21.6861 9.22556C21.6612 9.22723 21.7392 9.27537 21.7309 9.27039C21.887 9.3534 21.9484 9.54598 21.8654 9.70369C21.7807 9.85975 21.5865 9.91951 21.4304 9.83651V9.83651Z" fill="url(#paint1_radial_866_3019)"/>
<path d="M17.6262 20.1111C16.9754 19.8255 16.8409 18.6152 16.821 17.9512H17.0932C17.3638 17.9512 17.5066 17.7105 17.5066 17.4398V16.7741C17.5066 16.5035 17.3622 16.291 17.0932 16.291H14.2676C13.9987 16.291 13.8543 16.5035 13.8543 16.7741V17.4398C13.8543 17.7105 13.9987 17.9512 14.2676 17.9512H14.5316C14.5084 18.6152 14.3673 19.8255 13.7165 20.1111C12.7652 20.5294 12.649 20.8316 12.5793 21.318C12.5095 21.8061 15.6887 21.8326 15.6887 21.8326C15.6887 21.8326 18.8514 21.8077 18.7816 21.3197C18.7119 20.8332 18.5774 20.5294 17.6262 20.1111V20.1111Z" fill="url(#paint2_linear_866_3019)"/>
<path d="M10.0781 6.89649C10.0781 6.89649 10.3786 17.5149 15.6712 17.5149C20.9638 17.5149 21.2643 6.89649 21.2643 6.89649C18.7326 5.70117 12.6099 5.70117 10.0781 6.89649V6.89649Z" fill="url(#paint3_radial_866_3019)"/>
<path d="M11.0938 21.3457H20.2612V25.3384H11.0938V21.3457Z" fill="#832B00"/>
<path d="M12.2812 21.9805H19.0464V24.5919H12.2812V21.9805Z" fill="url(#paint4_linear_866_3019)"/>
<path d="M9.76562 24.7012H21.5561V25.9828H9.76562V24.7012Z" fill="#832B00"/>
<path opacity="0.2" d="M23.3266 9.76758C23.3245 9.76967 23.3224 9.77386 23.3203 9.77804L23.3266 9.77386V9.76758Z" fill="#424242"/>
<path opacity="0.2" d="M23.3199 9.7793L23.3047 9.78607V9.78945C23.3047 9.79453 23.3047 9.79622 23.3064 9.79622C23.3098 9.79453 23.3148 9.78607 23.3199 9.7793V9.7793Z" fill="#424242"/>
<path opacity="0.2" d="M15.6649 6.49805C17.7202 6.49805 19.5796 6.76368 20.7434 7.2169C20.7301 7.43438 20.7085 7.74981 20.6703 8.13331C20.6488 8.34747 20.7683 8.55001 20.9642 8.63634C21.0289 8.66456 21.097 8.67951 21.1651 8.67951C21.1916 8.67951 21.2165 8.67785 21.2431 8.67286C21.2215 8.71105 21.2066 8.74425 21.1983 8.76749C21.1916 8.78078 21.1866 8.79572 21.1833 8.81066C21.1684 8.85714 21.1534 8.92189 21.1451 8.99494C21.102 8.98166 21.0555 8.97667 21.009 8.97667C20.9758 8.97667 20.9426 8.97999 20.9094 8.98664C20.7035 9.02814 20.5458 9.19416 20.5159 9.40334C20.3649 10.4393 20.1607 11.4038 19.9083 12.2688C19.8452 12.4879 19.9382 12.7203 20.1324 12.8366C20.2105 12.883 20.2985 12.9063 20.3865 12.9063C20.4296 12.9063 20.4728 12.9013 20.5143 12.8897C20.423 12.986 20.3499 13.0823 20.2968 13.1786C20.2951 13.1819 20.2935 13.1835 20.2918 13.1869L20.2852 13.1985C20.2653 13.2367 20.237 13.2881 20.2105 13.3661C20.1906 13.4209 20.1739 13.4857 20.1656 13.5471C20.0826 13.4691 19.9731 13.4176 19.8535 13.411C19.8436 13.411 19.832 13.4093 19.822 13.4093C19.6211 13.4093 19.4402 13.5288 19.3621 13.7164C18.7396 15.2123 18.0639 16.0955 17.1691 16.5802C17.008 16.6666 16.9084 16.8359 16.9084 17.0185V17.4419C16.9084 17.48 16.9067 17.5116 16.9051 17.5381H16.8038C16.6693 17.5381 16.5398 17.5929 16.4469 17.6892C16.3523 17.7855 16.3024 17.9167 16.3058 18.0511C16.3356 19.0124 16.5498 20.2359 17.4098 20.6128C18.1701 20.9465 18.2249 21.0859 18.2664 21.3532C18.2664 21.4246 18.2814 21.496 18.3112 21.5624C18.3926 21.74 18.5686 21.8546 18.7645 21.8546H19.7323V24.8429C19.7323 25.1185 19.9548 25.3409 20.2304 25.3409H21.0605V25.5069H10.1034V25.3409H10.9335C11.2091 25.3409 11.4315 25.1185 11.4315 24.8429V21.8546H12.5654C12.8344 21.8546 13.0535 21.6421 13.0635 21.3748C13.1066 21.0843 13.1598 20.9365 13.9018 20.6094C14.7602 20.2326 14.981 19.0107 15.0142 18.0528C15.0191 17.9183 14.9693 17.7872 14.8747 17.6892C14.7801 17.5913 14.6522 17.5365 14.5161 17.5365H14.2986C14.277 17.5116 14.2538 17.4651 14.2538 17.4402V17.0169C14.2538 16.8459 14.1658 16.6865 14.0214 16.5952C13.1863 16.0689 12.4459 15.0728 11.8831 13.7148C11.8051 13.5288 11.6241 13.4077 11.4232 13.4077C11.4133 13.4077 11.4016 13.4077 11.3917 13.4093C11.3054 13.4143 11.2223 13.4425 11.1526 13.4873C11.1443 13.4442 11.131 13.401 11.1178 13.3628C11.0912 13.2865 11.0646 13.235 11.043 13.1968L11.0364 13.1835C11.0347 13.1802 11.0331 13.1786 11.0314 13.1752C10.9783 13.0789 10.9053 12.9827 10.8139 12.8864C10.8554 12.898 10.8986 12.903 10.9418 12.903C11.0281 12.903 11.1161 12.8797 11.1958 12.8332C11.3917 12.717 11.4846 12.4846 11.4199 12.2655C11.1692 11.4005 10.965 10.436 10.8123 9.40002C10.7824 9.1925 10.6247 9.02648 10.4188 8.98332C10.3856 8.97667 10.3524 8.97335 10.3192 8.97335C10.2727 8.97335 10.2262 8.97999 10.1831 8.99162C10.1764 8.91857 10.1598 8.85382 10.1449 8.80734C10.1399 8.79406 10.1349 8.77745 10.1283 8.76251C10.12 8.74093 10.1051 8.70773 10.0835 8.66954C10.1084 8.67286 10.1349 8.67618 10.1615 8.67618C10.2296 8.67618 10.2976 8.6629 10.3624 8.63302C10.5583 8.54669 10.6778 8.34249 10.6562 8.12999C10.6197 7.74649 10.5965 7.43272 10.5832 7.21358C11.7503 6.76534 13.6097 6.49805 15.6649 6.49805M8.90143 8.16319H8.91969C8.91139 8.16319 8.90143 8.16485 8.89313 8.16485C8.7487 8.17814 8.6026 8.21466 8.45651 8.2711C8.30211 8.33253 8.16598 8.4089 8.05475 8.50021C8.02487 8.52345 7.99664 8.54835 7.9651 8.57658C7.95846 8.58156 7.95182 8.58986 7.94684 8.59484L7.91197 8.6297C7.89371 8.64796 7.86881 8.6712 7.84557 8.70441C7.82565 8.73097 7.77584 8.79406 7.73932 8.85216C7.55006 9.13605 7.46041 9.48634 7.49361 9.81506V9.81672C7.49361 9.82834 7.49527 9.83996 7.49693 9.84992L7.50025 9.87482L7.50855 9.93625C7.51353 9.98439 7.52184 10.0193 7.53014 10.0458L7.53512 10.0641C7.53512 10.0674 7.53678 10.0707 7.53678 10.074C7.5567 10.1504 7.58658 10.2384 7.61979 10.3164C7.68619 10.4708 7.77916 10.6236 7.89703 10.7746C8.09625 11.0237 8.36022 11.2627 8.68395 11.4835C8.87819 11.6163 9.08239 11.7342 9.27995 11.8488C9.3779 11.9052 9.47917 11.9633 9.58044 12.0247C9.70993 12.1028 9.84275 12.1825 9.97224 12.2688C9.85105 12.1991 9.71491 12.126 9.5572 12.0463C9.27497 11.9019 8.95456 11.7392 8.64245 11.5483C8.29713 11.3324 8.02487 11.1 7.81236 10.8377C7.68785 10.685 7.5899 10.5256 7.51852 10.3662C7.47701 10.2733 7.44879 10.1919 7.42389 10.1023L7.40396 10.0159C7.40064 9.99934 7.39566 9.98273 7.394 9.96945C7.394 9.96613 7.394 9.96447 7.39234 9.96115L7.38238 9.89475L7.37906 9.86984L7.37574 9.8466L7.37408 9.83332C7.34752 9.47306 7.44713 9.10783 7.65465 8.80402C7.70611 8.73429 7.75426 8.67452 7.83561 8.59318C7.84059 8.5882 7.84391 8.58654 7.84557 8.58322C7.85221 8.57657 7.86051 8.56993 7.86881 8.56163L7.89205 8.54171L7.90035 8.53341L7.91861 8.51847C7.95348 8.49025 7.98502 8.46534 8.02154 8.44044C8.14772 8.35079 8.29381 8.28107 8.45651 8.2296C8.60426 8.1881 8.75202 8.16651 8.89313 8.16651L8.90143 8.16319ZM22.4351 8.16319C22.5779 8.16319 22.724 8.18478 22.8717 8.22628C23.0344 8.27775 23.1805 8.34913 23.3117 8.4421C23.3432 8.46368 23.3747 8.48693 23.4129 8.52013L23.4262 8.53175L23.4362 8.54171L23.4528 8.55665C23.4627 8.56661 23.471 8.57325 23.4793 8.5799C23.4827 8.58322 23.486 8.58488 23.4926 8.59318C23.5723 8.6712 23.6205 8.73097 23.6719 8.80236C23.8794 9.10617 23.979 9.4714 23.9525 9.83498V9.8466L23.9492 9.86984L23.9458 9.89641L23.9359 9.96281C23.9359 9.96613 23.9359 9.96779 23.9342 9.97111C23.9326 9.98439 23.9276 10.001 23.9259 10.0126L23.9043 10.1056C23.8794 10.1952 23.8512 10.2766 23.8114 10.3679C23.7383 10.5289 23.6387 10.6883 23.5159 10.8427C23.3034 11.105 23.0328 11.3374 22.6891 11.5516C22.3753 11.7442 22.0549 11.9085 21.766 12.0546C21.6133 12.1326 21.4788 12.204 21.3593 12.2738C21.4888 12.1874 21.6216 12.1077 21.7511 12.0297C21.8507 11.9683 21.952 11.9118 22.0499 11.8537C22.2475 11.7392 22.4534 11.6213 22.6476 11.4885C22.9697 11.2677 23.2336 11.0286 23.4345 10.778C23.5507 10.6302 23.6437 10.4775 23.7101 10.3214C23.7433 10.245 23.7732 10.1571 23.7931 10.0807C23.7931 10.0774 23.7948 10.074 23.7948 10.0724L23.7997 10.0541C23.8064 10.0276 23.8164 9.99436 23.8213 9.94621L23.8296 9.88478L23.8346 9.85158C23.8429 9.78683 23.8396 9.72209 23.8247 9.66066C23.8213 9.37677 23.7367 9.09455 23.5839 8.86544C23.559 8.82892 23.5175 8.76417 23.4827 8.71935C23.4627 8.69279 23.4428 8.6712 23.4179 8.64464C23.403 8.62638 23.3864 8.60812 23.3681 8.59152L23.3648 8.5882C23.3332 8.55831 23.305 8.53341 23.2751 8.51017C23.1622 8.41886 23.0278 8.34249 22.8717 8.28107C22.7256 8.22296 22.5795 8.1881 22.4351 8.17482C22.4268 8.17482 22.4168 8.17316 22.4085 8.17316H22.4218L22.4351 8.16319ZM15.6649 6C13.5017 6 11.3386 6.29883 10.0718 6.89649C10.0718 6.89649 10.0868 7.39786 10.1632 8.18146C9.98386 7.9839 9.74148 7.8378 9.47419 7.74981C9.42604 7.73487 9.39118 7.72325 9.33141 7.71163C9.29655 7.70333 9.26833 7.69669 9.20856 7.68839C9.09733 7.67013 9.01432 7.66681 8.91305 7.66348H8.89479C8.70553 7.66348 8.50963 7.69171 8.31539 7.74649C8.11617 7.80792 7.91861 7.89923 7.736 8.02872C7.68951 8.06026 7.64469 8.09513 7.60152 8.13165L7.57662 8.15157L7.55836 8.16817L7.53512 8.18976C7.51852 8.20636 7.50855 8.213 7.48531 8.23624C7.38736 8.33419 7.32096 8.41388 7.25123 8.51017C6.98892 8.89035 6.84283 9.36681 6.88101 9.86486L6.88267 9.8881L6.88765 9.93127L6.90259 10.0309C6.90425 10.0491 6.91255 10.0857 6.9192 10.1189L6.94244 10.2201C6.97564 10.3463 7.01549 10.4526 7.06363 10.5638C7.15992 10.7813 7.28775 10.9755 7.42721 11.1482C7.70777 11.4951 8.03981 11.7558 8.38014 11.9683C8.71383 12.1742 9.04255 12.3402 9.33806 12.4912C9.63522 12.6423 9.89919 12.7901 10.12 12.9511C10.3491 13.1121 10.5151 13.2715 10.5965 13.4193C10.618 13.4591 10.633 13.484 10.6479 13.5322C10.6562 13.5504 10.6645 13.587 10.6695 13.6185C10.6795 13.6832 10.6712 13.743 10.6579 13.7862C10.6413 13.831 10.6346 13.8559 10.5998 13.8874C10.6031 13.8858 10.6048 13.8858 10.6048 13.8858C10.6081 13.8858 10.5898 13.8991 10.5815 13.904C10.5682 13.9107 10.555 13.9173 10.54 13.9223C10.5101 13.9306 10.4836 13.9339 10.4636 13.9339C10.4454 13.9339 10.4304 13.9306 10.4238 13.9289C10.4089 13.9256 10.4022 13.9206 10.4006 13.9206L10.2594 13.8459C10.2163 13.8227 10.1665 13.8111 10.1183 13.8111C10.0586 13.8111 9.99714 13.8293 9.94402 13.8659C9.80788 13.9621 9.77634 14.1497 9.87263 14.2842L9.90749 14.334C9.93073 14.3672 9.97058 14.4137 10.032 14.4619C10.1416 14.5532 10.3275 14.6395 10.5583 14.6395C10.5782 14.6395 10.5998 14.6395 10.6214 14.6378C10.6861 14.6329 10.7542 14.6212 10.8256 14.5997C10.8604 14.588 10.897 14.5764 10.9318 14.5598C10.9501 14.5515 10.9667 14.5449 10.9883 14.5332C11.0098 14.52 11.0331 14.5067 11.0547 14.4934C11.1775 14.4154 11.3087 14.2743 11.3834 14.1182C11.4166 14.0501 11.4016 13.9787 11.4216 13.9057C11.9711 15.2255 12.758 16.3876 13.7541 17.0152V17.4385C13.7541 17.7091 13.9815 18.0329 14.2505 18.0329H14.5144C14.4912 18.6969 14.3501 19.8657 13.6993 20.1512C12.748 20.5696 12.6318 20.8568 12.5621 21.3432C12.5604 21.3515 12.5638 21.3515 12.5638 21.3515H10.9335V24.8379H9.60534V26H21.5585V24.8379H20.2304V21.3515H18.7645C18.7645 21.3515 18.7678 21.33 18.7661 21.3233C18.6964 20.8352 18.5619 20.5713 17.6107 20.1529C16.9582 19.8674 16.8237 18.6953 16.8038 18.0312H17.0761C17.3467 18.0312 17.4065 17.7075 17.4065 17.4369V17.0135C18.5686 16.3843 19.2741 15.2239 19.822 13.904C19.8419 13.9771 19.8884 14.0485 19.9216 14.1165C19.998 14.2726 20.1391 14.4137 20.2619 14.4917C20.2835 14.5067 20.3101 14.52 20.3333 14.5316C20.3549 14.5432 20.3732 14.5498 20.3914 14.5581C20.428 14.5764 20.4645 14.5864 20.4993 14.598C20.5691 14.6196 20.6388 14.6312 20.7035 14.6362C20.7251 14.6378 20.7467 14.6378 20.7666 14.6378C20.9974 14.6378 21.1833 14.5515 21.2929 14.4602C21.3527 14.4121 21.3942 14.3656 21.4174 14.3324C21.4407 14.2992 21.4523 14.2826 21.4523 14.2826C21.5154 14.1929 21.527 14.0701 21.4722 13.9671C21.4174 13.8659 21.3145 13.8078 21.2066 13.8078C21.1584 13.8078 21.1103 13.8194 21.0655 13.8426L20.926 13.9173C20.9243 13.9173 20.9177 13.9206 20.9028 13.9256C20.8961 13.9273 20.8828 13.9306 20.8629 13.9306C20.843 13.9306 20.8181 13.9273 20.7866 13.919C20.7716 13.9157 20.7583 13.9074 20.745 13.9007C20.7384 13.8957 20.7185 13.8825 20.7218 13.8825C20.7218 13.8825 20.7235 13.8825 20.7268 13.8841C20.6919 13.8526 20.6853 13.8277 20.6687 13.7829C20.6554 13.7397 20.6488 13.6799 20.6571 13.6152C20.6604 13.5836 20.6703 13.5471 20.6786 13.5288C20.6936 13.4807 20.7085 13.4558 20.7301 13.416C20.8115 13.2682 20.9775 13.1088 21.2066 12.9478C21.4274 12.7868 21.6913 12.639 21.9885 12.4879C22.284 12.3385 22.6127 12.1708 22.9464 11.965C23.2868 11.7525 23.6188 11.4918 23.8994 11.1448C24.0388 10.9722 24.165 10.778 24.2629 10.5605C24.3111 10.4492 24.3509 10.343 24.3841 10.2168L24.4074 10.1155C24.414 10.0823 24.4223 10.0442 24.424 10.0276L24.4389 9.92795L24.4439 9.88478L24.4456 9.86154C24.4821 9.36349 24.3376 8.88869 24.0753 8.50685C24.0056 8.41056 23.9392 8.32921 23.8413 8.23292C23.818 8.20968 23.808 8.20138 23.7914 8.18644L23.7682 8.16485L23.7499 8.14825L23.725 8.12833C23.6819 8.09181 23.6371 8.05694 23.5906 8.0254C23.408 7.89591 23.2104 7.8046 23.0112 7.74317C22.8169 7.68839 22.621 7.66016 22.4318 7.66016H22.4135C22.3122 7.66182 22.2276 7.6668 22.118 7.68507C22.0582 7.69337 22.03 7.70167 21.9951 7.70831C21.9354 7.71993 21.8989 7.73155 21.8524 7.74649C21.5851 7.83448 21.3427 7.98058 21.1634 8.17814C21.2398 7.39454 21.2547 6.89317 21.2547 6.89317C19.9913 6.29883 17.8281 6 15.6649 6V6ZM22.1661 8.66456C22.1944 8.66124 22.2292 8.65626 22.2458 8.65626H22.2525H22.279C22.3122 8.65626 22.3554 8.65792 22.3903 8.66124C22.4899 8.66954 22.5911 8.69611 22.6891 8.73429C22.787 8.77247 22.8833 8.82394 22.9647 8.89035C22.9863 8.90695 23.0045 8.92355 23.0245 8.94181L23.0344 8.95177L23.0211 8.94015L23.0245 8.94347L23.0261 8.94679L23.0477 8.96837C23.0593 8.98165 23.0792 9.00158 23.0842 9.00988C23.1025 9.03312 23.1373 9.08625 23.1656 9.12941C23.2868 9.31203 23.3415 9.54943 23.32 9.76691L23.3216 9.76525L23.3399 9.77355L23.3249 9.87316C23.3216 9.90139 23.3183 9.90637 23.315 9.91633L23.3083 9.94787C23.2951 9.99768 23.2751 10.0608 23.2502 10.1172C23.2004 10.2334 23.129 10.3496 23.0411 10.4609C22.8634 10.6833 22.6244 10.8908 22.3637 11.0701C22.0931 11.2544 21.7943 11.4138 21.4921 11.5964C21.1916 11.7757 20.8862 11.9683 20.6139 12.1974C20.5375 12.2638 20.4595 12.3335 20.3848 12.4082C20.6803 11.3906 20.8762 10.3629 21.0057 9.47472C21.0787 9.59426 21.1651 9.6839 21.2414 9.73869C21.3012 9.78351 21.3776 9.8217 21.3859 9.8217C21.4075 9.83 21.4174 9.83332 21.4174 9.83332C21.4656 9.85822 21.5154 9.86984 21.5668 9.86984C21.6814 9.86984 21.7926 9.80842 21.8507 9.69885C21.9337 9.54279 21.8723 9.34855 21.7162 9.26554C21.5602 9.18253 21.7162 9.26554 21.7162 9.26554C21.7113 9.26222 21.6498 9.22238 21.6714 9.22072C21.6581 9.19582 21.6382 9.15265 21.6349 9.07628C21.6332 9.03976 21.6415 8.9966 21.6532 8.95841C21.6615 8.94015 21.6681 8.92189 21.6797 8.90861L21.683 8.90363L21.6847 8.90031C21.6864 8.89865 21.6864 8.89699 21.6864 8.89699L21.6781 8.91359L21.6814 8.90861L21.703 8.87374C21.7179 8.84884 21.7146 8.86544 21.7229 8.85382C21.7926 8.78078 21.9254 8.69777 22.1014 8.66954C22.1246 8.66954 22.1562 8.66456 22.1661 8.66456V8.66456ZM9.07741 8.65626H9.08405C9.10065 8.65626 9.13552 8.66124 9.16374 8.66456C9.1737 8.66456 9.20358 8.66954 9.22184 8.6712C9.39782 8.69943 9.53229 8.78244 9.60036 8.85548C9.61032 8.8671 9.60534 8.85216 9.62028 8.8754L9.64187 8.91027L9.64519 8.91525L9.63689 8.89865C9.63689 8.89865 9.63689 8.90031 9.63855 8.90197L9.64021 8.90529L9.64353 8.91027C9.65515 8.92355 9.66179 8.94181 9.67009 8.96007C9.68171 8.99826 9.69001 9.04142 9.68835 9.07794C9.68503 9.15265 9.66511 9.19748 9.65183 9.22238C9.67507 9.22404 9.61364 9.26388 9.607 9.2672C9.60036 9.27052 9.607 9.2672 9.607 9.2672C9.45095 9.35021 9.39118 9.54279 9.47253 9.70051C9.53063 9.81008 9.64187 9.8715 9.75642 9.8715C9.80622 9.8715 9.85769 9.85988 9.90583 9.83498C9.90583 9.83498 9.91579 9.83166 9.93737 9.82336C9.94568 9.82336 10.022 9.78517 10.0818 9.74035C10.1582 9.68723 10.2462 9.59592 10.3176 9.47638C10.447 10.3646 10.6429 11.3906 10.9385 12.4099C10.8637 12.3352 10.7874 12.2655 10.7094 12.1991C10.4371 11.97 10.1316 11.7774 9.83112 11.5981C9.52897 11.4155 9.23014 11.2577 8.95954 11.0718C8.69889 10.8925 8.45983 10.6866 8.28219 10.4625C8.1942 10.3513 8.12282 10.2351 8.07301 10.1189C8.04977 10.0624 8.02819 9.99934 8.0149 9.94953L8.01158 9.91799C8.00826 9.90803 8.00494 9.90139 8.00162 9.87482L7.99166 9.80842L7.98834 9.78351V9.77521C7.9651 9.55607 8.02985 9.31369 8.1527 9.13107C8.18092 9.08625 8.22076 9.03478 8.23903 9.01154C8.24401 9.0049 8.26559 8.98332 8.27887 8.97003L8.30377 8.94513C8.32203 8.92687 8.34196 8.91027 8.36354 8.89367C8.44489 8.82726 8.54118 8.77579 8.63913 8.73761C8.73708 8.69943 8.84001 8.67286 8.93796 8.66456C8.97448 8.65792 9.0193 8.65626 9.05085 8.65626H9.07741Z" fill="#424242"/>
</g>
<defs>
<radialGradient id="paint0_radial_866_3019" cx="0" cy="0" r="1" gradientUnits="userSpaceOnUse" gradientTransform="translate(7.58168 9.04257) scale(5.65435)">
<stop stop-color="#C28605"/>
<stop offset="0.1326" stop-color="#CB991C"/>
<stop offset="0.3743" stop-color="#D9B73F"/>
<stop offset="0.5717" stop-color="#E2C955"/>
<stop offset="0.699" stop-color="#E5D05D"/>
</radialGradient>
<radialGradient id="paint1_radial_866_3019" cx="0" cy="0" r="1" gradientUnits="userSpaceOnUse" gradientTransform="translate(22.1476 11.1578) scale(2.96223)">
<stop stop-color="#C28605"/>
<stop offset="0.1326" stop-color="#CB991C"/>
<stop offset="0.3743" stop-color="#D9B73F"/>
<stop offset="0.5717" stop-color="#E2C955"/>
<stop offset="0.699" stop-color="#E5D05D"/>
</radialGradient>
<linearGradient id="paint2_linear_866_3019" x1="12.5781" y1="19.0618" x2="18.7828" y2="19.0618" gradientUnits="userSpaceOnUse">
<stop offset="0.0765" stop-color="#DA9A14"/>
<stop offset="0.1118" stop-color="#DB9E19"/>
<stop offset="0.1526" stop-color="#DDA827"/>
<stop offset="0.1962" stop-color="#E0B93E"/>
<stop offset="0.2398" stop-color="#E5D05D"/>
<stop offset="0.3187" stop-color="#E4CB55"/>
<stop offset="0.4411" stop-color="#E1BD3F"/>
<stop offset="0.591" stop-color="#DCA61C"/>
<stop offset="0.6836" stop-color="#D99502"/>
<stop offset="1" stop-color="#C28605"/>
</linearGradient>
<radialGradient id="paint3_radial_866_3019" cx="0" cy="0" r="1" gradientUnits="userSpaceOnUse" gradientTransform="translate(13.181 9.73537) scale(10.8057)">
<stop offset="0.0663" stop-color="#FFF48A"/>
<stop offset="0.1414" stop-color="#FCEE82"/>
<stop offset="0.2578" stop-color="#F4DD6C"/>
<stop offset="0.4012" stop-color="#E8C248"/>
<stop offset="0.5644" stop-color="#D69D17"/>
<stop offset="0.6275" stop-color="#CF8D02"/>
<stop offset="1" stop-color="#C28605"/>
</radialGradient>
<linearGradient id="paint4_linear_866_3019" x1="12.9523" y1="21.0425" x2="17.7668" y2="25.0269" gradientUnits="userSpaceOnUse">
<stop stop-color="#C28605"/>
<stop offset="0.1036" stop-color="#CB991C"/>
<stop offset="0.2923" stop-color="#D9B73F"/>
<stop offset="0.4465" stop-color="#E2C955"/>
<stop offset="0.5459" stop-color="#E5D05D"/>
<stop offset="0.6672" stop-color="#E0B93E"/>
<stop offset="0.7884" stop-color="#DDA827"/>
<stop offset="0.902" stop-color="#DB9E19"/>
<stop offset="1" stop-color="#DA9A14"/>
</linearGradient>
</defs>
</svg>
