<svg width="500" height="400" viewBox="0 0 500 400" fill="none" xmlns="http://www.w3.org/2000/svg">
<mask id="mask0_894_2384" style="mask-type:alpha" maskUnits="userSpaceOnUse" x="0" y="0" width="500" height="400">
<rect width="500" height="400" fill="#D9D9D9"/>
</mask>
<g mask="url(#mask0_894_2384)">
<rect width="500" height="400" fill="#D9D9D9"/>
<rect width="500" height="400" fill="url(#paint0_linear_894_2384)"/>
<path d="M375.262 337.188C375.839 337.918 376.153 338.822 376.153 339.753C376.153 340.684 375.839 341.588 375.262 342.319V337.188Z" fill="#FEDE17"/>
<path d="M334.602 92.8707C334.602 85.7126 334.474 79.307 334.705 72.9186C334.756 71.5588 335.825 69.4293 336.911 69.0445C350.552 64.2297 364.278 59.6372 378.817 54.7539V92.8707C384.803 92.8707 390.063 92.9733 395.314 92.8707C398.102 92.7937 399.119 93.897 399.077 96.6251C398.968 104.174 398.948 111.728 399.017 119.288C399.017 121.854 397.982 122.889 395.468 122.854C391.046 122.803 386.633 122.931 382.212 122.854C379.775 122.854 378.637 123.71 378.723 126.369C378.996 135.05 378.8 143.756 379.287 152.428C379.809 161.63 383.563 164.401 392.688 163.075C394.493 162.81 396.289 162.528 398.743 162.151C398.863 164.572 399.042 166.752 399.051 168.942C399.051 175.356 399.171 181.77 398.931 188.176C398.88 189.57 397.828 191.802 396.768 192.135C384.88 195.898 372.693 198.378 360.242 196.18C345.942 193.666 336.869 184.207 335.629 169.506C334.491 155.925 334.825 142.208 334.577 128.55C334.474 122.829 334.577 122.829 328.71 122.812C319.2 122.812 319.2 122.812 319.191 113.062C319.191 107.794 319.354 102.509 319.123 97.2494C318.978 93.9568 319.978 92.5543 323.399 92.8023C326.82 93.0503 330.523 92.8707 334.602 92.8707Z" fill="white"/>
<path d="M96.3328 248.411C96.3328 238.815 96.2558 229.767 96.461 220.719C96.461 219.864 98.1715 218.521 99.2576 218.273C105.509 216.87 111.769 215.075 118.115 214.613C135.587 213.347 153.068 212.646 169.188 221.737C185.873 231.144 192.125 250.626 183.419 266.558C179.605 273.545 173.387 277.625 165.785 280.84C166.65 281.428 167.553 281.959 168.487 282.431C181.17 287.511 188.285 296.816 188.824 310.499C189.371 324.482 183.693 335.42 171.403 342.604C162.261 347.94 152.255 350.301 141.813 350.831C127.696 351.449 113.562 350.108 99.8135 346.846C96.5893 346.102 95.0585 344.802 95.144 341.27C95.3322 333.727 95.144 326.175 95.144 318.632C95.2178 317.501 95.3606 316.376 95.5716 315.263C102.114 316.674 108.297 318.632 114.6 319.188C121.537 319.714 128.508 319.602 135.425 318.855C140.701 318.35 143.404 314.844 144.096 309.575C144.411 307.274 143.997 304.932 142.912 302.879C141.828 300.825 140.128 299.162 138.05 298.124C131.071 294.635 123.631 295.216 116.259 295.986C110.016 296.645 110.033 296.841 110.033 290.547C110.033 284.116 110.127 277.719 110.033 271.262C109.973 268.491 111.06 267.687 113.736 267.662C119.732 267.719 125.726 267.468 131.696 266.909C138.623 266.122 142.146 262.385 142.352 256.646C142.583 250.506 139.085 245.862 132.465 244.46C122.365 242.304 112.471 244.109 102.678 246.717L96.3328 248.411Z" fill="#FEDE17"/>
<path d="M313.102 315.311C319.397 316.457 324.973 318.022 330.617 318.33C336.715 318.704 342.836 318.377 348.859 317.355C355.239 316.244 358.557 311.788 359.121 305.724C359.771 298.883 357.146 293.674 351.322 290.835C343.42 286.97 334.996 287.62 326.64 288.483C322.672 288.885 318.764 289.92 314.608 290.707V239.138C314.608 232.852 314.727 226.566 314.565 220.323C314.488 217.347 315.343 216.047 318.542 216.047C343.839 216.132 369.13 216.132 394.416 216.047C397.341 216.047 398.743 216.859 398.692 220.092C398.521 227.789 398.53 235.486 398.692 243.183C398.752 246.167 397.555 247.023 394.732 246.997C382.443 246.92 370.145 247.108 357.847 246.997C354.537 246.997 353.374 248.006 353.571 251.273C353.802 255.31 353.733 259.372 353.571 263.426C353.477 266.128 354.426 267.103 357.214 267.052C362.653 266.958 368.187 266.573 373.523 267.394C389.772 269.959 401.668 283.061 403.558 300.559C405.123 315.046 402.84 328.55 391.072 338.744C383.204 345.586 373.694 348.648 363.577 350.11C347.67 352.402 332.097 350.349 316.728 346.253C315.343 345.885 313.308 344.2 313.308 343.072C312.974 333.989 313.102 324.932 313.102 315.311Z" fill="#FEDE17"/>
<path d="M280.101 264.83C267.076 259.836 254.068 260.811 241.497 266.9C240.342 267.464 239.213 268.063 237.87 268.747C237.28 256.483 244.31 246.922 256.163 244.715C262.107 243.604 268.41 243.706 274.474 244.202C280.956 244.724 287.362 246.349 294.699 247.623C294.699 238.789 294.562 230.297 294.776 221.804C294.853 218.529 293.759 217.195 290.5 216.485C278.365 213.808 266.092 213.637 253.795 214.09C229.686 214.946 212.094 226.2 201.627 248.008C194.905 262.008 193.759 277.043 194.716 292.257C196.94 327.594 222.69 356.74 264.57 350.078C287.584 346.409 302.353 331.614 305.218 309.104C307.724 289.631 297.744 271.603 280.101 264.83ZM264.912 311.867C262.449 319.264 257.369 322.788 250.228 322.266C243.968 321.796 238.974 316.733 237.811 309.541C237.546 307.899 237.571 306.205 237.4 303.682C237.689 301.339 238.115 299.015 238.674 296.721C240.385 290.811 244.661 287.468 250.442 287.16C257.01 286.809 261.722 289.512 264.237 295.164C266.612 300.441 266.855 306.433 264.912 311.884V311.867Z" fill="#FEDE17"/>
<path d="M317.133 151.787C316.218 143.192 316.226 134.401 314.396 126.011C310.351 107.487 299.678 94.4195 280.051 91.7171C271.046 90.477 261.587 91.0671 252.487 92.1447C232.715 94.5051 218.724 107.025 214.661 126.293C213.1 134.24 212.671 142.369 213.387 150.436C214.952 170.362 224.565 188.159 248.169 194.24C266.898 199.055 285.712 197.49 304.271 192.94C311.925 191.067 310.257 191.905 310.437 184.713C310.565 179.445 310.616 174.177 310.633 168.909C310.633 167.557 310.428 166.197 310.274 164.41C308.564 165.077 307.461 165.556 306.306 165.992C293.478 170.807 280.359 172.235 266.966 168.832C260.125 167.121 257.473 163.504 256.704 155.815H261.245C278.486 155.815 295.718 155.747 312.951 155.884C316.149 155.901 317.501 155.028 317.133 151.787ZM257.174 133.691C255.378 126.105 259.192 117.194 264.948 115.278C269.275 113.841 273.936 115.278 276.211 119.144C278.101 122.385 278.734 127.516 279.144 133.682L257.174 133.691Z" fill="white"/>
<path d="M197.42 107.436C189.176 93.7521 173.902 87.8768 158.346 91.5884C150.649 93.4271 144.979 98.0709 139.283 104.93V48.6055H95.1457V138.531C95.1457 155.92 95.1457 173.31 95.1457 190.699C95.1457 192.948 94.9917 194.975 98.2928 194.975C109.975 194.881 121.666 194.924 133.357 194.975C135.683 194.975 136.726 194.017 136.683 191.657C136.615 187.56 136.683 183.455 136.683 178.187C144.132 190.425 148.092 194.171 156.772 195.916C176.895 199.978 193.435 192.196 200.593 172.739C203.339 165.248 204.75 157.072 205.494 149.093C206.819 134.52 205.152 120.264 197.42 107.436ZM159.218 156.653C157.764 161.245 154.395 163.717 149.298 163.572H149.058H148.776C147.075 163.641 145.395 163.175 143.972 162.239C142.55 161.304 141.457 159.945 140.848 158.355C140.459 157.598 140.131 156.811 139.865 156.003C138.377 151.607 138.522 147.023 138.052 142.551C138.505 137.984 138.419 133.408 139.899 129.013C140.172 128.208 140.509 127.428 140.908 126.678C142.242 123.437 145.107 121.547 149.007 121.547H149.477C154.378 121.47 157.875 124.018 159.312 128.688C162.165 137.796 162.132 147.564 159.218 156.653V156.653Z" fill="white"/>
</g>
<defs>
<linearGradient id="paint0_linear_894_2384" x1="250" y1="0" x2="250" y2="400" gradientUnits="userSpaceOnUse">
<stop stop-color="#027B5B"/>
<stop offset="1" stop-color="#00523C"/>
</linearGradient>
</defs>
</svg>
