<svg width="78" height="76" viewBox="0 0 78 76" fill="none" xmlns="http://www.w3.org/2000/svg">
<path d="M38.97 75.118C20.2241 75.118 0 63.3598 0 37.559C0 11.7582 20.2241 0 38.97 0C49.3844 0 58.9925 3.42667 66.1146 9.67531C73.8414 16.5287 77.94 26.204 77.94 37.559C77.94 48.9141 73.8414 58.5222 66.1146 65.3755C58.9925 71.6242 49.3172 75.118 38.97 75.118Z" fill="url(#paint0_radial_1_96)"/>
<path d="M13.1356 42.7125C14.2711 45.2455 15.7694 47.6106 17.5768 49.7203C19.3641 51.8032 21.4402 53.6106 23.7448 55.0955C26.036 56.5871 28.522 57.7495 31.1357 58.5423C36.4034 60.081 41.9935 60.081 47.2612 58.5423C49.8749 57.7495 52.3609 56.5871 54.6521 55.0955C56.9835 53.6173 59.0933 51.8032 60.9007 49.7203C62.7081 47.6173 64.1997 45.2724 65.3419 42.7461C65.7451 42.0137 66.6589 41.7449 67.3912 42.1481C67.9959 42.484 68.305 43.1828 68.1303 43.8547C67.0486 46.7573 65.5233 49.4785 63.6152 51.9174C57.7293 59.3889 48.7461 63.7495 39.2388 63.7495C29.7247 63.7428 20.7414 59.3822 14.8623 51.904C12.9542 49.465 11.429 46.7438 10.3472 43.8413C10.0314 43.0753 10.3942 42.1884 11.1602 41.8726C11.9262 41.5568 12.8131 41.9196 13.1289 42.6856L13.1356 42.7125Z" fill="#422B0D"/>
<path d="M71.1471 15.2319C74.7283 21.0102 76.5962 27.8904 76.5962 35.5433C76.5962 46.8984 72.4976 56.5065 64.7708 63.3599C57.6487 69.6085 47.9734 73.1024 37.6262 73.1024C25.4918 73.1024 12.766 68.1639 5.25423 57.689C12.4838 69.5547 26.083 75.118 38.97 75.118C49.3172 75.118 58.9925 71.6242 66.1146 65.3755C73.8414 58.5222 77.94 48.9141 77.94 37.559C77.94 28.9991 75.6085 21.3932 71.1471 15.2319V15.2319Z" fill="#EB8F00"/>
<path d="M29.933 32.9901L29.8322 32.8423L29.6911 32.6609C29.6374 32.587 29.5836 32.5265 29.5164 32.466L29.0998 32.0495C28.9319 31.8815 28.7303 31.7001 28.522 31.5187C28.0786 31.1357 27.5814 30.8266 27.0438 30.5847C26.5198 30.3496 25.9486 30.2353 25.3775 30.2353H25.1289C25.0617 30.2219 25.0013 30.2219 24.9341 30.2353C24.8131 30.2488 24.6922 30.2689 24.5713 30.2958C24.2891 30.363 24.0203 30.4504 23.7515 30.5579C23.214 30.7997 22.7168 31.1088 22.2734 31.4918C21.9106 31.8009 21.5746 32.1301 21.2588 32.4795L20.8758 32.9095L20.6743 33.1379C19.8747 34.0786 18.4637 34.1995 17.5231 33.4C16.8041 32.7886 16.5421 31.7941 16.8713 30.9072L16.9452 30.6922C17.0124 30.4839 17.0931 30.2824 17.1804 30.0808C17.5029 29.3484 17.9128 28.6631 18.41 28.0382C19.5858 26.4862 21.2387 25.3574 23.1132 24.8199C23.4962 24.7191 23.8859 24.6452 24.2823 24.5914C24.4839 24.5914 24.7796 24.5309 24.8669 24.5309H25.3775C26.1435 24.5444 26.9027 24.6519 27.6418 24.8467C28.3473 25.0416 29.0259 25.3238 29.6575 25.6866C30.699 26.2913 31.6127 27.1043 32.3451 28.0651C32.6273 28.4279 32.8826 28.8042 33.1043 29.2073C33.2858 29.5231 33.447 29.8456 33.5881 30.1749C33.6419 30.2824 33.6889 30.3966 33.7225 30.5108C33.7225 30.5982 33.7762 30.6721 33.7964 30.7326L33.8636 30.9072C34.2466 32.0965 33.5948 33.3731 32.4056 33.7561C31.5052 34.0383 30.5175 33.7292 29.933 32.9901V32.9901Z" fill="#422B0D"/>
<path d="M59.0463 32.9901L58.9253 32.8423L58.7842 32.6609C58.7305 32.587 58.6767 32.5265 58.6095 32.466L58.193 32.0495C58.025 31.8815 57.8234 31.7001 57.6151 31.5187C57.1717 31.1357 56.6745 30.8266 56.137 30.5847C55.6196 30.3563 55.0552 30.2353 54.4908 30.2353H54.2153C54.1481 30.2219 54.0877 30.2219 54.0205 30.2353C53.8995 30.2488 53.7786 30.2689 53.6577 30.2958C53.3755 30.363 53.1067 30.4503 52.8379 30.5578C52.2937 30.8064 51.7831 31.129 51.3329 31.5187C50.9701 31.8277 50.6341 32.157 50.3116 32.5063L49.9891 32.9229L49.7875 33.1514C49.035 34.1323 47.6307 34.3137 46.6498 33.5545C45.8435 32.9364 45.5546 31.8479 45.9577 30.9072L46.0316 30.6922C46.0988 30.4839 46.1795 30.2824 46.2668 30.0808C46.5826 29.3417 46.9992 28.6497 47.4896 28.0114C48.6655 26.4593 50.3183 25.3305 52.1929 24.793C52.5759 24.6922 52.9656 24.6183 53.362 24.5645C53.5636 24.5645 53.8525 24.5041 53.9466 24.5041H54.4572C55.2232 24.5175 55.9824 24.625 56.7215 24.8198C57.427 25.0147 58.1056 25.2969 58.7372 25.6597C59.7786 26.2644 60.6924 27.0774 61.4248 28.0382C61.707 28.4011 61.9623 28.7773 62.184 29.1805C62.3654 29.4962 62.5267 29.8188 62.6678 30.148C62.7215 30.2555 62.7686 30.3697 62.8022 30.4839L62.8761 30.7057L62.9365 30.8871C63.3195 32.0763 62.6678 33.3462 61.4785 33.7292C60.5849 34.0181 59.6107 33.7225 59.0261 32.9901H59.0463Z" fill="#422B0D"/>
<path d="M51.0171 57.1582C51.6084 56.8828 52.1929 56.5871 52.764 56.278C52.1929 56.5871 51.6084 56.8828 51.0171 57.1582Z" fill="#FF4081"/>
<path d="M54.4706 55.2769C53.913 55.6263 53.3486 55.9488 52.7708 56.2713C53.4426 55.9085 54.1145 55.5255 54.7327 55.1157L54.4706 55.2769Z" fill="#FF4081"/>
<path d="M45.9577 58.9119C46.4079 58.8044 46.8581 58.6902 47.3015 58.5558C46.8715 58.6969 46.4213 58.7977 45.9577 58.9119Z" fill="#FF4081"/>
<path d="M59.5032 51.2052C59.9802 50.7147 60.4505 50.2108 60.9007 49.6867C60.4505 50.2108 59.9802 50.7147 59.5032 51.2052Z" fill="#FF4081"/>
<path d="M49.203 57.9242C49.801 57.6957 50.3922 57.4471 50.9768 57.1784C50.3922 57.4471 49.801 57.6957 49.203 57.9242Z" fill="#FF4081"/>
<path d="M47.3015 58.5625C47.9264 58.3811 48.5311 58.1728 49.1358 57.9443C48.5445 58.1728 47.9734 58.3811 47.3015 58.5625Z" fill="#FF4081"/>
<path d="M58.193 52.4751C57.7831 52.8379 57.3598 53.1873 56.9231 53.5165C56.7081 53.6912 56.4863 53.8525 56.2512 54.0205C55.7473 54.4034 55.2366 54.773 54.7125 55.1157C55.3844 54.6924 55.9891 54.2355 56.6073 53.7719C57.2254 53.3082 57.689 52.9253 58.193 52.4751V52.4751Z" fill="#FF4081"/>
<path opacity="0.3" d="M59.5032 51.2052C59.4561 51.2523 59.4158 51.2993 59.3688 51.3396C58.9925 51.736 58.5961 52.1123 58.193 52.4751C58.6163 52.0989 59.0261 51.7092 59.4158 51.2993L59.5032 51.2052Z" fill="#AB3F2E"/>
<path d="M42.1615 59.5569L44.6542 62.2042L44.8961 62.4528L42.1615 59.5569Z" fill="#FF4081"/>
<path opacity="0.3" d="M44.8961 62.4528L45.4941 63.0978L45.5008 63.0911V63.0844L44.8961 62.4528Z" fill="#AB3F2E"/>
<path d="M69.8907 55.1694L65.1874 50.2511L64.9993 50.0563L63.1986 48.175L62.6678 47.6173L62.6006 47.5501C62.0698 48.3026 61.5054 49.0283 60.9007 49.7203C59.1135 51.8032 57.0373 53.6106 54.7327 55.0955C52.4415 56.5871 49.9555 57.7495 47.3418 58.5423C45.6621 59.0395 43.9353 59.3688 42.1884 59.5367L44.8961 62.4864L45.5008 63.118L45.9846 63.6219L46.2601 63.9108L53.2075 71.1673C57.2321 75.3733 63.9041 75.5212 68.1102 71.4965L69.5614 70.1057C73.7742 66.081 73.9355 59.4091 69.9108 55.1896C69.9041 55.1829 69.8974 55.1761 69.8907 55.1694V55.1694Z" fill="#FF4081"/>
<path d="M60.5177 60.2221L55.2702 54.7327C55.0888 54.8604 54.9141 54.9947 54.7327 55.1157C54.175 55.4718 53.6106 55.7876 53.0395 56.1302L58.6566 62.0026C58.8917 62.2512 59.2142 62.3923 59.5569 62.399C59.8996 62.4125 60.2288 62.2848 60.4774 62.0429C60.9881 61.5592 61.0149 60.7529 60.5312 60.2355C60.5312 60.2355 60.5244 60.2288 60.5177 60.2221V60.2221Z" fill="#E62B6B"/>
<path opacity="0.3" d="M63.165 48.1481L62.6342 47.5904L62.567 47.5233C62.0496 48.2825 61.492 49.0149 60.9007 49.7204C59.1135 51.8032 57.0373 53.6106 54.7327 55.0955C52.4415 56.5871 49.9555 57.7495 47.3418 58.5424C45.6621 59.0396 43.9353 59.3688 42.1884 59.5368L44.8961 62.4864L45.5008 63.118C58.0048 58.5827 62.3386 50.1974 63.165 48.1481V48.1481Z" fill="#AB3F2E"/>
<defs>
<radialGradient id="paint0_radial_1_96" cx="0" cy="0" r="1" gradientUnits="userSpaceOnUse" gradientTransform="translate(38.97 37.559) scale(38.271)">
<stop offset="0.5" stop-color="#FDE030"/>
<stop offset="0.92" stop-color="#F7C02B"/>
<stop offset="1" stop-color="#F4A223"/>
</radialGradient>
</defs>
</svg>
