<svg width="78" height="79" viewBox="0 0 78 79" fill="none" xmlns="http://www.w3.org/2000/svg">
<path d="M44.6475 77.5834C36.8447 77.5834 25.3073 77.361 15.2676 75.4446C1.85961 72.8873 0.858918 67.6222 0.983188 62.4487C1.08784 58.0469 3.10231 43.3112 5.09062 37.2808C8.09925 28.1634 12.6972 19.0982 15.4965 15.2001C19.3358 9.85653 29.0681 1.26886 38.8527 0.974533H38.9442C40.2392 0.974533 41.5277 1.8248 42.2995 3.19176L46.1257 9.94155C47.0414 11.5636 47.0217 13.5584 46.0734 15.1543C45.295 16.4624 43.032 16.8156 43.0124 16.8222L41.2138 17.0838L42.4238 18.4507C42.4172 18.4507 42.8227 19.0917 41.8678 20.4783C41.0176 21.7144 39.3628 22.3096 36.8186 22.3096C34.4313 22.3096 31.7104 21.7668 29.5259 21.3351C29.3951 21.3089 29.2577 21.2959 29.1204 21.2959C28.3094 21.2959 27.4722 21.7471 26.7135 22.5974C25.7324 23.6897 22.6388 28.1307 23.8945 39.3869C24.5159 44.9724 22.6649 50.0021 22.6453 50.0544L21.867 52.1343L23.9272 51.3102C23.9469 51.2971 27.0863 50.0675 31.403 50.0675H31.8609L32.1552 49.7143C32.2468 49.6031 41.2726 38.9356 52.9867 38.9356C60.639 38.9356 67.9644 42.0358 72.582 47.2289C75.8392 50.8916 77.3631 55.2279 76.866 59.4335C74.9431 75.7716 59.5272 77.5376 52.9867 77.5376C52.071 77.5376 50.9984 77.5441 49.8014 77.5572C48.2775 77.5703 46.5443 77.5834 44.6475 77.5834V77.5834Z" fill="url(#paint0_linear_1_10)"/>
<path d="M38.9508 1.96215C39.8795 1.96215 40.8606 2.63582 41.4558 3.6823L45.282 10.4321C46.0276 11.7467 46.008 13.3688 45.2427 14.6638C44.8699 15.2917 43.6076 15.7495 42.8881 15.8607L39.2712 16.3709L41.5212 18.9086C41.5146 19.0394 41.4427 19.3729 41.0633 19.9223C40.4158 20.8576 38.99 21.3351 36.8186 21.3351C34.5294 21.3351 31.8609 20.8053 29.7221 20.3802C29.5259 20.3409 29.3232 20.3213 29.1269 20.3213C28.3617 20.3213 27.191 20.6026 25.9875 21.9499C23.1947 25.0697 22.0501 31.6298 22.92 39.498C23.5087 44.8155 21.7427 49.6685 21.7231 49.7143L20.1795 53.8414L24.287 52.2259C24.3066 52.2062 27.2956 51.0486 31.403 51.0486H32.3252L32.9139 50.3422C32.9989 50.2375 41.7566 39.9166 52.9932 39.9166C60.3709 39.9166 67.4215 42.8926 71.856 47.883C74.9235 51.3364 76.3624 55.398 75.898 59.3223C75.1851 65.3657 72.497 69.9048 67.899 72.8284C63.0329 75.909 57.1072 76.5565 52.9867 76.5565C52.071 76.5565 50.9984 76.563 49.7949 76.5761C48.271 76.5892 46.5377 76.6023 44.6541 76.6023C36.8905 76.6023 25.4119 76.3799 15.4573 74.4832C9.59048 73.3647 5.78391 71.6707 3.80214 69.3096C2.09507 67.2755 1.91847 64.8229 1.9708 62.4748C2.07545 58.1188 4.06376 43.5466 6.03245 37.5948C8.90372 28.8959 13.5082 19.6738 16.3076 15.7822C20.0356 10.5891 29.467 2.24993 38.8919 1.96869L38.9508 1.96215ZM38.9508 0H38.833C28.4925 0.307403 18.4921 9.35945 14.7117 14.6311C11.8273 18.6535 7.16395 27.9083 4.1684 36.9734C2.19317 42.9645 0.119838 57.7526 0.00864926 62.4225C-0.128701 68.1323 1.21864 73.7572 15.091 76.4061C24.9606 78.2897 36.328 78.5644 44.6541 78.5644C48.0355 78.5644 50.9133 78.5186 52.9867 78.5186C64.1055 78.5186 76.1335 74.0776 77.8405 59.5512C79.1486 48.4324 67.3758 37.9545 52.9867 37.9545C40.6578 37.9545 31.403 49.0864 31.403 49.0864C26.8247 49.0864 23.5544 50.3945 23.5544 50.3945C23.5544 50.3945 25.5166 45.1621 24.8625 39.2757C23.561 27.542 27.0863 22.2769 29.1204 22.2769C29.1923 22.2769 29.2643 22.2835 29.3362 22.2965C31.5992 22.7478 34.3463 23.2907 36.8186 23.2907C39.2909 23.2907 41.4885 22.7478 42.6723 21.0342C44.1439 18.9086 43.1563 17.7967 43.1563 17.7967C43.1563 17.7967 45.8837 17.4108 46.9236 15.6579C48.0551 13.7547 48.0813 11.387 46.989 9.45756L43.1563 2.70777C42.2864 1.17075 40.7102 0 38.9508 0V0Z" fill="#EDA600"/>
<path d="M38.4537 9.5295C36.812 9.2221 34.8564 9.15669 33.3325 9.92847C31.4423 10.8899 30.7817 13.3819 31.8805 15.1936C33.5287 17.8948 37.9828 18.1564 40.8017 18.0452C42.0575 17.9929 42.064 16.0308 40.8017 16.0831C38.7676 16.1616 36.2299 16.0569 34.4574 14.9777C33.1886 14.1994 32.7569 12.4204 34.3201 11.629C35.3273 11.1123 36.8382 11.2235 37.9239 11.4262C39.1666 11.6486 39.6964 9.75842 38.4537 9.5295Z" fill="#EDA600"/>
<path d="M21.0691 51.5326C17.9296 56.1044 17.1186 60.7023 18.2305 66.1179C18.4856 67.354 20.3758 66.8308 20.1207 65.5946C19.1134 60.6762 19.9114 56.6734 22.763 52.5202C23.4825 51.4802 21.782 50.4992 21.0691 51.5326Z" fill="#EDA600"/>
<path d="M28.6364 20.2494C27.1844 20.0401 25.1111 18.2807 24.2477 16.4232C23.9861 15.8607 24.0973 15.0628 23.0705 15.0039C21.6512 14.9254 22.6911 17.7771 23.1751 18.4769C24.5028 20.3802 26.3015 21.4463 28.656 21.6163C29.9183 21.7079 29.9314 20.4325 28.6364 20.2494Z" fill="#EDA600"/>
<path d="M32.4168 57.8507C34.065 64.6593 40.2392 69.7348 47.0479 70.657C53.6211 71.5465 64.6615 70.0225 67.899 62.9915C68.4222 61.8535 66.7348 60.8528 66.205 62.0039C63.2422 68.4463 52.6662 69.6628 46.7274 68.6425C40.9129 67.6418 35.7198 63.1681 34.3136 57.334C34.0127 56.1044 32.1225 56.6211 32.4168 57.8507V57.8507Z" fill="#EDA600"/>
<defs>
<linearGradient id="paint0_linear_1_10" x1="38.9671" y1="72.436" x2="38.9671" y2="9.71264" gradientUnits="userSpaceOnUse">
<stop stop-color="#FFB300"/>
<stop offset="0.4007" stop-color="#FFCA28"/>
</linearGradient>
</defs>
</svg>
