<svg width="78" height="78" viewBox="0 0 78 78" fill="none" xmlns="http://www.w3.org/2000/svg">
<path d="M72.744 77.94H5.196C2.32521 77.94 0 75.6148 0 72.744V5.196C0 2.32521 2.32521 0 5.196 0H72.744C75.6148 0 77.94 2.32521 77.94 5.196V72.744C77.94 75.6148 75.6148 77.94 72.744 77.94Z" fill="url(#paint0_linear_1_37)"/>
<g opacity="0.2">
<path d="M72.744 1.9485C74.5366 1.9485 75.9915 3.40338 75.9915 5.196V72.744C75.9915 74.5366 74.5366 75.9915 72.744 75.9915H5.196C3.40338 75.9915 1.9485 74.5366 1.9485 72.744V5.196C1.9485 3.40338 3.40338 1.9485 5.196 1.9485H72.744ZM72.744 0H5.196C2.32521 0 0 2.32521 0 5.196V72.744C0 75.6148 2.32521 77.94 5.196 77.94H72.744C75.6148 77.94 77.94 75.6148 77.94 72.744V5.196C77.94 2.32521 75.6148 0 72.744 0Z" fill="#424242"/>
</g>
<path d="M42.815 68.1975H35.1249C34.2741 68.1975 33.5856 67.509 33.5856 66.6582V29.7406C33.5856 28.8898 34.2741 28.2013 35.1249 28.2013H42.815C43.6659 28.2013 44.3543 28.8898 44.3543 29.7406V66.6582C44.3543 67.509 43.6659 68.1975 42.815 68.1975Z" fill="white"/>
<path d="M38.97 23.5898C42.7938 23.5898 45.8937 20.49 45.8937 16.6662C45.8937 12.8423 42.7938 9.7425 38.97 9.7425C35.1462 9.7425 32.0463 12.8423 32.0463 16.6662C32.0463 20.49 35.1462 23.5898 38.97 23.5898Z" fill="white"/>
<g opacity="0.2">
<path d="M42.4058 30.1498V66.249H35.5341V30.1498H42.4058ZM42.815 28.2013H35.1249C34.2741 28.2013 33.5856 28.8898 33.5856 29.7406V66.6582C33.5856 67.509 34.2741 68.1975 35.1249 68.1975H42.815C43.6659 68.1975 44.3543 67.509 44.3543 66.6582V29.7406C44.3543 28.8898 43.6659 28.2013 42.815 28.2013V28.2013Z" fill="#424242"/>
<path d="M38.97 11.691C41.7109 11.691 43.9452 13.9253 43.9452 16.6662C43.9452 19.4071 41.7109 21.6413 38.97 21.6413C36.2291 21.6413 33.9948 19.4071 33.9948 16.6662C33.9948 13.9253 36.2291 11.691 38.97 11.691ZM38.97 9.7425C35.1444 9.7425 32.0463 12.8406 32.0463 16.6662C32.0463 20.4917 35.1444 23.5898 38.97 23.5898C42.7956 23.5898 45.8937 20.4917 45.8937 16.6662C45.8937 12.8406 42.7956 9.7425 38.97 9.7425Z" fill="#424242"/>
</g>
<defs>
<linearGradient id="paint0_linear_1_37" x1="38.97" y1="-2.81448" x2="38.97" y2="80.603" gradientUnits="userSpaceOnUse">
<stop stop-color="#29B6F6"/>
<stop offset="0.5369" stop-color="#169FE4"/>
<stop offset="0.9954" stop-color="#0288D1"/>
</linearGradient>
</defs>
</svg>
