<svg width="78" height="78" viewBox="0 0 78 78" fill="none" xmlns="http://www.w3.org/2000/svg">
<path d="M45.5045 72.3993C52.8964 79.7912 64.9976 79.7912 72.3961 72.3993C79.788 65.0074 79.788 52.9062 72.3961 45.5077L52.4158 25.5275L25.5242 52.419L45.5045 72.3993Z" fill="url(#paint0_radial_1_26)"/>
<path d="M52.4158 25.5275L32.4355 5.54718C25.0436 -1.84475 12.9424 -1.84475 5.54394 5.54718C-1.84798 12.9391 -1.84798 25.0403 5.54394 32.4387L25.5242 52.419L52.4158 25.5275Z" fill="url(#paint1_radial_1_26)"/>
<path opacity="0.2" d="M18.9897 1.94866C23.5626 1.94866 27.8496 3.71545 31.0584 6.92425L71.019 46.8848C74.2278 50.0936 75.9946 54.3807 75.9946 58.9535C75.9946 63.5264 74.2278 67.8134 71.019 71.0222C67.8102 74.231 63.5231 75.9978 58.9503 75.9978C54.3774 75.9978 50.0904 74.231 46.8816 71.0222L6.921 31.0617C3.7122 27.8529 1.94541 23.5658 1.94541 18.993C1.94541 14.4201 3.7122 10.133 6.921 6.92425C10.1298 3.71545 14.4169 1.94866 18.9897 1.94866M18.9897 0C14.1181 0 9.23991 1.85123 5.54394 5.54719C-1.84798 12.9391 -1.84798 25.0403 5.54394 32.4387L45.5045 72.3993C49.2005 76.0953 54.0786 77.9465 58.9503 77.9465C63.8219 77.9465 68.7001 76.0953 72.3961 72.3993C79.788 65.0074 79.788 52.9062 72.3961 45.5078L32.4355 5.54719C28.7395 1.85123 23.8614 0 18.9897 0V0Z" fill="#424242"/>
<path opacity="0.2" d="M53.7926 26.9077L26.9006 53.7997L25.5227 52.4218L52.4147 25.5298L53.7926 26.9077Z" fill="#424242"/>
<defs>
<radialGradient id="paint0_radial_1_26" cx="0" cy="0" r="1" gradientUnits="userSpaceOnUse" gradientTransform="translate(41.5678 39.4064) rotate(49.339) scale(44.5282 29.4477)">
<stop stop-color="#EF5350"/>
<stop offset="0.6263" stop-color="#D83534"/>
<stop offset="0.7356" stop-color="#D32F2F"/>
<stop offset="1" stop-color="#D32F2F"/>
</radialGradient>
<radialGradient id="paint1_radial_1_26" cx="0" cy="0" r="1" gradientUnits="userSpaceOnUse" gradientTransform="translate(8.22371 7.57874) rotate(45) scale(43.4846 34.2232)">
<stop stop-color="#FFEB3B"/>
<stop offset="0.349" stop-color="#FEE439"/>
<stop offset="0.6698" stop-color="#FDD835"/>
<stop offset="0.9954" stop-color="#FBC02D"/>
</radialGradient>
</defs>
</svg>
