<svg width="78" height="80" viewBox="0 0 78 80" fill="none" xmlns="http://www.w3.org/2000/svg">
<path d="M37.1645 72.9664C34.3799 70.7317 8.52225 45.5861 8.23322 45.3111C7.0912 44.1691 6.37215 42.9848 6.17476 41.8992C5.97032 40.7712 6.31575 39.7843 7.23219 38.8679C8.08518 38.0149 9.12851 37.5637 10.2494 37.5637C11.617 37.5637 13.0199 38.2123 14.1901 39.3895L25.9134 50.6547C26.1179 50.8521 26.3858 50.9508 26.6466 50.9508C26.9215 50.9508 27.1894 50.845 27.3938 50.6406C27.8027 50.2317 27.8027 49.569 27.4009 49.1602L8.68439 29.8304C6.80922 27.9552 5.92803 25.086 8.15568 22.8584C9.00867 22.0054 10.052 21.5542 11.1729 21.5542C12.5405 21.5542 13.9433 22.2028 15.1136 23.38L34.2601 42.0472C34.4645 42.2446 34.7324 42.3503 35.0003 42.3503C35.2682 42.3503 35.5431 42.2446 35.7475 42.0402C36.1564 41.6313 36.1635 40.9686 35.7546 40.5527L12.759 16.9791C11.6945 15.9146 11.053 14.6386 10.9402 13.3979C10.8345 12.136 11.2786 10.9658 12.2303 10.0141C13.0833 9.16114 14.1266 8.70997 15.2475 8.70997C16.6151 8.70997 18.018 9.35853 19.1882 10.5288L42.642 33.3974C42.8464 33.5948 43.1143 33.7006 43.3822 33.7006C43.6501 33.7006 43.925 33.5948 44.1294 33.3904C44.5383 32.9815 44.5454 32.3188 44.1365 31.9029L27.1048 14.3989C26.0333 13.3274 25.3918 12.0585 25.286 10.8178C25.1803 9.55592 25.6244 8.38569 26.5761 7.43401C27.4291 6.58101 28.4724 6.12984 29.5933 6.12984C30.9609 6.12984 32.3638 6.7784 33.534 7.95567C39.7799 14.0888 56.0854 30.1264 56.6353 30.7186C58.729 32.1638 59.152 29.9784 59.2577 28.5614C59.3776 26.9119 57.4883 21.1524 58.588 15.971C60.435 9.0836 65.7574 10.2115 65.8772 10.2679C68.7957 11.6355 68.2388 13.6799 67.2025 17.7898L67.0968 18.6005C66.0112 23.9722 73.4696 39.89 74.0194 41.0814C76.945 47.4824 80.3147 60.4606 69.1553 71.62C56.9243 83.8509 41.7819 77.5839 37.1645 72.9664V72.9664Z" fill="url(#paint0_radial_1_19)"/>
<path d="M52.8567 79.8327C45.356 79.8327 38.9762 76.2445 36.4595 73.756C34.1966 71.909 19.9143 58.1201 8.28257 46.8338C7.81025 46.3756 7.53532 46.1148 7.50712 46.0795C6.18886 44.7613 5.37111 43.3866 5.13848 42.0895C4.8706 40.6161 5.32882 39.2838 6.48494 38.1206C7.54237 37.0632 8.83948 36.5063 10.2494 36.5063C11.906 36.5063 13.5697 37.2676 14.9373 38.6423L26.6466 49.8933L7.92304 30.5635C5.76589 28.4064 4.68026 24.8322 7.40843 22.1111C8.46586 21.0537 9.76297 20.4968 11.1729 20.4968C12.8295 20.4968 14.4932 21.2581 15.8608 22.6328L34.9932 41.2859L12.0047 17.7193C10.7781 16.4927 10.0238 14.9911 9.88986 13.4966C9.75592 11.9034 10.3058 10.4442 11.4831 9.26689C12.5405 8.20946 13.8376 7.65255 15.2475 7.65255C16.8971 7.65255 18.5608 8.40685 19.9354 9.7815L43.3822 32.6431L26.3505 15.1391C25.1168 13.9055 24.3625 12.4039 24.2357 10.9094C24.1017 9.32328 24.6516 7.86403 25.8288 6.68676C26.8863 5.62933 28.1834 5.07242 29.5933 5.07242C31.2499 5.07242 32.9136 5.83377 34.2812 7.20843L39.3639 12.1924C48.4226 21.0749 55.9938 28.5121 56.8045 29.344C57.1993 29.6612 57.7139 29.781 57.9324 29.6753C58.0734 29.6048 58.2285 29.2805 58.2003 28.5967C58.158 27.3983 57.9888 25.9108 57.8126 24.3388C57.4601 21.1806 57.0935 17.9096 57.5517 15.7525C58.5528 12.0092 60.5196 10.423 61.9859 9.73921C64.002 8.80867 65.9548 9.13295 66.3284 9.30919C69.9941 11.0293 69.268 13.9055 68.267 17.8955L68.2459 17.9942L68.1331 18.819C67.3999 22.4284 71.1644 32.4034 74.9288 40.5316L74.9852 40.6443C77.5019 46.143 82.0347 60.2491 69.9096 72.3743C64.3334 77.9364 58.299 79.8327 52.8567 79.8327V79.8327ZM10.2494 38.6211C9.41754 38.6211 8.628 38.9666 7.97944 39.6151C7.30973 40.2848 7.0771 40.9334 7.21809 41.7088C7.37318 42.5618 8.00059 43.577 8.98047 44.5639C8.98752 44.5709 9.2695 44.8459 9.75592 45.3111C26.2659 61.3347 36.234 70.8586 37.8271 72.1416L37.9117 72.2192C41.8031 76.1105 56.2617 83.0191 68.408 70.8727C79.5956 59.6851 75.387 46.6223 73.0536 41.5185L73.0043 41.4127C70.5793 36.182 65.0665 23.4928 66.0464 18.4313L66.2086 17.3738C67.2942 13.0595 67.3576 12.1572 65.5177 11.269C64.9749 11.1703 61.0835 10.6979 59.5961 16.2459C59.2225 18.0154 59.582 21.2511 59.8992 24.1061C60.0825 25.7205 60.2517 27.2502 60.294 28.5262C60.3645 30.5353 59.4128 31.3037 58.8347 31.5857C57.6575 32.1567 56.2546 31.6703 55.3805 30.9371L55.2888 30.8525C54.8588 30.3873 44.6299 20.3558 37.8624 13.7151L32.7726 8.71702C31.0384 6.97579 28.8038 6.68676 27.3022 8.18831C26.569 8.92146 26.2377 9.7815 26.3153 10.7332C26.3999 11.7272 26.9356 12.7635 27.8309 13.6587L44.8978 31.1627C45.7015 31.9805 45.7015 33.3199 44.8837 34.1376C44.1012 34.9201 42.7195 34.9342 41.9159 34.1588L18.448 11.2831C16.7138 9.54887 14.4721 9.25984 12.9776 10.7614C12.2444 11.4945 11.9131 12.3546 11.9906 13.3063C12.0823 14.3003 12.618 15.3436 13.5063 16.2248L36.5089 39.8125C37.3196 40.6302 37.3125 41.9697 36.4948 42.7874C35.7123 43.5699 34.3306 43.584 33.5269 42.8086L14.3734 24.1343C12.6392 22.3861 10.3974 22.1041 8.90293 23.6056C7.0771 25.4315 8.04994 27.6944 9.43164 29.0831L28.1622 48.427C28.9659 49.2448 28.9588 50.5771 28.1411 51.3878C27.3515 52.1774 25.9839 52.1844 25.1803 51.416L13.4569 40.1509C12.47 39.1569 11.335 38.6211 10.2494 38.6211V38.6211Z" fill="#EDA600"/>
<path d="M54.9505 30.0348C51.0803 37.9373 51.5808 48.998 57.3896 57.8734C58.0452 59.0718 59.1661 58.4867 58.5951 57.253C51.5808 42.2446 58.9335 31.4306 58.9335 31.4306L54.9505 30.0348Z" fill="#EDA600"/>
<path d="M39.7305 0.398576C41.8595 -0.158337 44.1294 -0.10899 46.3359 0.405626C48.5283 0.934341 50.7207 2.04817 52.3492 3.86695C53.9424 5.67162 54.9223 7.86403 55.2536 10.1622C55.5638 12.4392 55.2747 14.7867 54.1962 16.7323C54.0693 14.547 53.6886 12.5379 53.0471 10.6838C52.7158 9.76035 52.328 8.87916 51.8557 8.04732C51.3905 7.22252 50.8406 6.40478 50.2555 5.73507C49.0641 4.36041 47.4498 3.28888 45.638 2.45704C43.8193 1.597 41.8383 0.962539 39.7305 0.398576V0.398576Z" fill="#B0BEC5"/>
<path d="M40.3156 7.08153C41.4929 6.33428 42.9663 6.17919 44.355 6.42592C45.7579 6.67265 47.0973 7.37056 48.1547 8.33634C49.2051 9.31623 49.9524 10.5499 50.4176 11.8329C50.6432 12.4744 50.756 13.1512 50.8617 13.8068C50.897 14.4835 50.897 15.1603 50.7912 15.837C50.3048 15.3224 49.9242 14.8078 49.5646 14.3073C49.1487 13.835 48.8244 13.3345 48.4508 12.8762C47.7177 11.9669 47.0056 11.1421 46.2372 10.4089C45.4477 9.6969 44.6159 9.06949 43.6501 8.52668C42.6913 7.96977 41.6128 7.5045 40.3156 7.08153Z" fill="#90A4AE"/>
<path d="M0.0134738 51.7473C1.00746 53.693 2.04374 55.4977 3.24921 57.0909C4.44763 58.6841 5.82229 60.0376 7.42253 60.9188C8.19798 61.3488 9.12147 61.7224 10.0238 62.0044C10.9332 62.2934 11.8778 62.4908 12.8507 62.6248C14.7963 62.8645 16.8407 62.8222 19.0049 62.4908C17.3271 63.9501 15.0854 64.7255 12.8013 64.8947C10.4891 65.0498 8.14158 64.5493 6.04082 63.365C3.92596 62.1595 2.37507 60.242 1.40223 58.2047C0.429396 56.1533 -0.0922692 53.9468 0.0134738 51.7473V51.7473Z" fill="#B0BEC5"/>
<path d="M6.67529 50.9225C7.3591 52.1069 8.03585 53.0586 8.77605 53.8904C9.5092 54.7222 10.2987 55.4061 11.1588 56.0264C12.0329 56.6256 12.9917 57.1543 14.035 57.683C14.5567 57.9509 15.1136 58.1624 15.6634 58.4726C16.2345 58.7193 16.8125 58.9802 17.4188 59.3538C16.7773 59.5935 16.1217 59.7345 15.452 59.8402C14.7893 59.8684 14.1055 59.9036 13.4287 59.812C12.0752 59.6287 10.7217 59.1564 9.5374 58.3316C8.37423 57.4927 7.40844 56.3295 6.87973 55.0113C6.34396 53.7001 6.18887 52.2338 6.67529 50.9225V50.9225Z" fill="#90A4AE"/>
<defs>
<radialGradient id="paint0_radial_1_19" cx="0" cy="0" r="1" gradientUnits="userSpaceOnUse" gradientTransform="translate(26.2491 24.0144) rotate(-45) scale(64.156)">
<stop offset="0.3533" stop-color="#FFCA28"/>
<stop offset="0.8723" stop-color="#FFB300"/>
</radialGradient>
</defs>
</svg>
