<svg width="79" height="58" viewBox="0 0 79 58" fill="none" xmlns="http://www.w3.org/2000/svg">
<path d="M71.0945 42.8177H7.78047L0.5 55.1685H78.44L71.0945 42.8177Z" fill="url(#paint0_linear_1_42)"/>
<path opacity="0.2" d="M10.3156 41.0626H68.5594L76.1649 53.8684H2.77515L10.3156 41.0626ZM9.53558 39.7625L0.5 55.1685H78.44L69.2744 39.7625H9.53558Z" fill="#424242"/>
<path d="M15.321 44.7028H11.1607L11.6807 43.5978H15.906L15.321 44.7028Z" fill="#F5F5F5"/>
<path d="M21.8864 44.7028H17.6611L18.1811 43.5978H22.4714L21.8864 44.7028Z" fill="#F5F5F5"/>
<path d="M28.1268 44.7028H23.9015L24.4865 43.5978H28.7118L28.1268 44.7028Z" fill="#F5F5F5"/>
<path d="M34.3022 44.7028H30.1419L30.7919 43.5978H34.6922L34.3022 44.7028Z" fill="#F5F5F5"/>
<path d="M40.4126 44.7028H36.2523L36.5773 43.5978H40.0875L40.4126 44.7028Z" fill="#F5F5F5"/>
<path d="M46.653 44.7028H42.4927L41.9727 43.5978H45.9379L46.653 44.7028Z" fill="#F5F5F5"/>
<path d="M53.0234 44.7028H48.8631L48.083 43.5978H52.2433L53.0234 44.7028Z" fill="#F5F5F5"/>
<path d="M59.1988 44.7028H55.0385L54.2584 43.5978H58.4837L59.1988 44.7028Z" fill="#F5F5F5"/>
<path d="M67.5843 44.7028H61.3439L60.4989 43.5978H66.9993L67.5843 44.7028Z" fill="#F5F5F5"/>
<path d="M64.3991 46.3279H68.5594L67.8443 45.2879H63.619L64.3991 46.3279Z" fill="#F5F5F5"/>
<path d="M57.5737 46.3279H61.7339L60.9539 45.2879H56.7286L57.5737 46.3279Z" fill="#F5F5F5"/>
<path d="M51.3333 46.3279H55.4935L54.7785 45.2879H50.6182L51.3333 46.3279Z" fill="#F5F5F5"/>
<path d="M44.5728 46.3279H48.7981L48.018 45.2879H44.1178L44.5728 46.3279Z" fill="#F5F5F5"/>
<path d="M38.5924 46.3279H42.8177L42.2977 45.2879H38.7875L38.5924 46.3279Z" fill="#F5F5F5"/>
<path d="M32.6121 46.3279H36.7723L37.0323 45.2879H33.0021L32.6121 46.3279Z" fill="#F5F5F5"/>
<path d="M26.0466 46.3279H30.2069L30.7269 45.2879H26.6967L26.0466 46.3279Z" fill="#F5F5F5"/>
<path d="M18.7662 46.3279H22.9264L23.5765 45.2879H19.4162L18.7662 46.3279Z" fill="#F5F5F5"/>
<path d="M10.1856 46.3279H16.491L17.1411 45.2879H10.8357L10.1856 46.3279Z" fill="#F5F5F5"/>
<path d="M49.8382 48.018H54.0634L53.3484 46.913H49.1231L49.8382 48.018Z" fill="#F5F5F5"/>
<path d="M43.2077 48.018H47.368L46.783 46.913H42.8827L43.2077 48.018Z" fill="#F5F5F5"/>
<path d="M35.3422 48.018H39.5025L39.3725 46.913H35.6673L35.3422 48.018Z" fill="#F5F5F5"/>
<path d="M27.8668 48.018H32.027L32.417 46.913H28.3868L27.8668 48.018Z" fill="#F5F5F5"/>
<path d="M19.9362 48.018H24.1615L24.8116 46.913H20.6513L19.9362 48.018Z" fill="#F5F5F5"/>
<path d="M9.40557 48.018H17.7261L18.4412 46.913H9.99061L9.40557 48.018Z" fill="#F5F5F5"/>
<path d="M56.9236 48.018H69.4694L68.7544 46.848H56.2086L56.9236 48.018Z" fill="#F5F5F5"/>
<path d="M66.4792 49.6432H70.6395L69.7944 48.5381H65.6342L66.4792 49.6432Z" fill="#F5F5F5"/>
<path d="M58.6787 49.6432H62.839L62.0589 48.5381H57.8337L58.6787 49.6432Z" fill="#F5F5F5"/>
<path d="M25.2666 49.6432H53.7384L53.0884 48.5381H25.9166L25.2666 49.6432Z" fill="#F5F5F5"/>
<path d="M16.361 49.6432H20.5213L21.0413 48.5381H16.9461L16.361 49.6432Z" fill="#F5F5F5"/>
<path d="M8.3655 49.6432H12.5258L13.0458 48.5381H8.95054L8.3655 49.6432Z" fill="#F5F5F5"/>
<path d="M24.8116 52.5033H53.9334L52.6984 50.2282H26.0466L24.8116 52.5033Z" fill="#F5F5F5"/>
<path d="M77.0099 57.7687H1.86509C1.08504 57.7687 0.5 57.1186 0.5 56.4036V55.2335H78.44V56.4036C78.44 57.1186 77.79 57.7687 77.0099 57.7687V57.7687Z" fill="#9E9E9E"/>
<path opacity="0.2" d="M77.79 55.8185V56.3386C77.79 56.7286 77.4649 57.0536 77.0749 57.0536H1.86509C1.47506 57.0536 1.15004 56.7286 1.15004 56.3386V55.8185H77.79ZM78.44 55.1685H0.5V56.3386C0.5 57.1186 1.15004 57.7037 1.86509 57.7037H77.0099C77.79 57.7037 78.375 57.0536 78.375 56.3386V55.1685H78.44Z" fill="#424242"/>
<path d="M71.0945 42.8177H7.78047V2.32012C7.78047 1.28005 8.62552 0.5 9.60058 0.5H69.2094C70.2495 0.5 71.0295 1.34505 71.0295 2.32012L71.0945 42.8177Z" fill="url(#paint1_linear_1_42)"/>
<path opacity="0.2" d="M69.2094 1.80008C69.5344 1.80008 69.7294 2.0601 69.7294 2.32012V41.5176H9.08055V2.32012C9.08055 1.9951 9.34057 1.80008 9.60058 1.80008H69.2094ZM69.2094 0.5H9.60058C8.56052 0.5 7.78047 1.34505 7.78047 2.32012V42.8177H71.0945V2.32012C71.0945 1.28005 70.2495 0.5 69.2094 0.5V0.5Z" fill="#424242"/>
<path d="M13.5008 5.1803H65.3092V37.6174H13.5008V5.1803Z" fill="#616161"/>
<defs>
<linearGradient id="paint0_linear_1_42" x1="39.47" y1="55.1523" x2="39.47" y2="42.8855" gradientUnits="userSpaceOnUse">
<stop stop-color="#E0E0E0"/>
<stop offset="1" stop-color="#9E9E9E"/>
</linearGradient>
<linearGradient id="paint1_linear_1_42" x1="39.4375" y1="0.57339" x2="39.4375" y2="42.5388" gradientUnits="userSpaceOnUse">
<stop offset="0.0056401" stop-color="#E0E0E0"/>
<stop offset="0.9988" stop-color="#9E9E9E"/>
</linearGradient>
</defs>
</svg>
