<svg width="20" height="20" viewBox="0 0 20 20" fill="none" xmlns="http://www.w3.org/2000/svg">
<path d="M7.74368 3.6H12.2449C12.3824 3.6 12.4949 3.72 12.4949 3.86667V5.2H7.49362V3.86667C7.49362 3.72 7.60615 3.6 7.74368 3.6ZM5.99323 3.86667V5.2H3.99271C2.8893 5.2 1.99219 6.15667 1.99219 7.33333V10.5333H7.99375H11.9948H17.9964V7.33333C17.9964 6.15667 17.0992 5.2 15.9958 5.2H13.9953V3.86667C13.9953 2.83667 13.2107 2 12.2449 2H7.74368C6.77781 2 5.99323 2.83667 5.99323 3.86667ZM17.9964 11.6H11.9948V12.6667C11.9948 13.2567 11.5478 13.7333 10.9945 13.7333H8.99401C8.44074 13.7333 7.99375 13.2567 7.99375 12.6667V11.6H1.99219V15.8667C1.99219 17.0433 2.8893 18 3.99271 18H15.9958C17.0992 18 17.9964 17.0433 17.9964 15.8667V11.6Z" fill="#13111A"/>
</svg>
