<svg width="820" height="600" viewBox="0 0 820 600" fill="none" xmlns="http://www.w3.org/2000/svg">
<rect width="820" height="600" fill="url(#paint0_radial_405_496)"/>
<g filter="url(#filter0_b_405_496)">
<path d="M63 285C63 228.995 63 200.992 73.8993 179.601C83.4867 160.785 98.7847 145.487 117.601 135.899C138.992 125 166.995 125 223 125H598C654.005 125 682.008 125 703.399 135.899C722.215 145.487 737.513 160.785 747.101 179.601C758 200.992 758 228.995 758 285V315C758 371.005 758 399.008 747.101 420.399C737.513 439.215 722.215 454.513 703.399 464.101C682.008 475 654.005 475 598 475H223C166.995 475 138.992 475 117.601 464.101C98.7847 454.513 83.4867 439.215 73.8993 420.399C63 399.008 63 371.005 63 315V285Z" fill="url(#paint1_linear_405_496)" fill-opacity="0.45"/>
<path d="M223 127.5H598C626.044 127.5 646.926 127.502 663.476 128.854C679.997 130.204 691.98 132.887 702.264 138.127C720.61 147.475 735.526 162.39 744.873 180.736C750.113 191.02 752.796 203.003 754.146 219.524C755.498 236.074 755.5 256.956 755.5 285V315C755.5 343.044 755.498 363.926 754.146 380.476C752.796 396.997 750.113 408.98 744.873 419.264C735.526 437.61 720.61 452.525 702.264 461.873C691.98 467.113 679.997 469.796 663.476 471.146C646.926 472.498 626.044 472.5 598 472.5H223C194.956 472.5 174.074 472.498 157.524 471.146C141.003 469.796 129.02 467.113 118.736 461.873C100.39 452.525 85.4745 437.61 76.1269 419.264C70.8867 408.98 68.2039 396.997 66.8541 380.476C65.5019 363.926 65.5 343.044 65.5 315V285C65.5 256.956 65.5019 236.074 66.8541 219.524C68.2039 203.003 70.8867 191.02 76.1269 180.736C85.4745 162.39 100.39 147.475 118.736 138.127C129.02 132.887 141.003 130.204 157.524 128.854C174.074 127.502 194.956 127.5 223 127.5Z" stroke="url(#paint2_linear_405_496)" stroke-width="5"/>
</g>
<g filter="url(#filter1_d_405_496)">
<path d="M183.394 207.182V277H166.519V207.182H183.394Z" fill="white"/>
<path d="M253.408 207.182V277H239.09L211.305 236.704H210.862V277H193.987V207.182H208.51L235.987 247.409H236.567V207.182H253.408Z" fill="white"/>
<path d="M289.825 277H264.019V207.182H289.791C296.905 207.182 303.03 208.579 308.166 211.375C313.325 214.148 317.303 218.148 320.098 223.375C322.894 228.579 324.291 234.807 324.291 242.057C324.291 249.329 322.894 255.579 320.098 260.807C317.325 266.034 313.359 270.045 308.2 272.841C303.041 275.613 296.916 277 289.825 277ZM280.894 262.613H289.178C293.087 262.613 296.394 261.954 299.098 260.636C301.825 259.295 303.882 257.125 305.269 254.125C306.678 251.102 307.382 247.079 307.382 242.057C307.382 237.034 306.678 233.034 305.269 230.057C303.859 227.057 301.78 224.898 299.03 223.579C296.303 222.238 292.939 221.568 288.939 221.568H280.894V262.613Z" fill="white"/>
<path d="M376.382 207.182H393.223V252.216C393.223 257.42 391.984 261.954 389.507 265.818C387.03 269.659 383.575 272.636 379.144 274.75C374.712 276.841 369.564 277.886 363.7 277.886C357.769 277.886 352.587 276.841 348.155 274.75C343.723 272.636 340.28 269.659 337.825 265.818C335.371 261.954 334.144 257.42 334.144 252.216V207.182H351.019V250.75C351.019 253.159 351.541 255.307 352.587 257.193C353.655 259.079 355.144 260.557 357.053 261.625C358.962 262.693 361.178 263.227 363.7 263.227C366.223 263.227 368.428 262.693 370.314 261.625C372.223 260.557 373.712 259.079 374.78 257.193C375.848 255.307 376.382 253.159 376.382 250.75V207.182Z" fill="white"/>
<path d="M441.538 228.113C441.311 225.613 440.3 223.67 438.504 222.284C436.732 220.875 434.198 220.17 430.902 220.17C428.72 220.17 426.902 220.454 425.448 221.023C423.993 221.591 422.902 222.375 422.175 223.375C421.448 224.352 421.073 225.477 421.05 226.75C421.004 227.795 421.209 228.716 421.663 229.511C422.141 230.307 422.823 231.011 423.709 231.625C424.618 232.216 425.709 232.738 426.982 233.193C428.254 233.648 429.686 234.045 431.277 234.386L437.277 235.75C440.732 236.5 443.777 237.5 446.413 238.75C449.073 240 451.3 241.488 453.095 243.216C454.913 244.943 456.288 246.932 457.22 249.182C458.152 251.432 458.629 253.954 458.652 256.75C458.629 261.159 457.516 264.943 455.311 268.102C453.107 271.261 449.936 273.682 445.8 275.363C441.686 277.045 436.72 277.886 430.902 277.886C425.061 277.886 419.97 277.011 415.629 275.261C411.288 273.511 407.913 270.852 405.504 267.284C403.095 263.716 401.857 259.204 401.788 253.75H417.948C418.084 256 418.686 257.875 419.754 259.375C420.823 260.875 422.288 262.011 424.152 262.784C426.038 263.557 428.22 263.943 430.698 263.943C432.97 263.943 434.902 263.636 436.493 263.023C438.107 262.409 439.345 261.557 440.209 260.466C441.073 259.375 441.516 258.125 441.538 256.716C441.516 255.398 441.107 254.273 440.311 253.341C439.516 252.386 438.288 251.568 436.629 250.886C434.993 250.182 432.902 249.534 430.357 248.943L423.061 247.238C417.016 245.852 412.254 243.613 408.777 240.523C405.3 237.409 403.573 233.204 403.595 227.909C403.573 223.591 404.732 219.807 407.073 216.557C409.413 213.307 412.652 210.773 416.788 208.954C420.925 207.136 425.641 206.227 430.936 206.227C436.345 206.227 441.038 207.148 445.016 208.988C449.016 210.807 452.118 213.363 454.323 216.659C456.527 219.954 457.652 223.773 457.698 228.113H441.538Z" fill="white"/>
<path d="M464.891 220.886V207.182H523.902V220.886H502.732V277H486.095V220.886H464.891Z" fill="white"/>
<path d="M532.144 277V207.182H560.984C566.212 207.182 570.723 208.125 574.519 210.011C578.337 211.875 581.28 214.557 583.348 218.057C585.416 221.534 586.45 225.659 586.45 230.432C586.45 235.273 585.394 239.386 583.28 242.773C581.166 246.136 578.166 248.704 574.28 250.477C570.394 252.227 565.791 253.102 560.473 253.102H542.234V239.807H557.337C559.882 239.807 562.007 239.477 563.712 238.818C565.439 238.136 566.746 237.113 567.632 235.75C568.519 234.363 568.962 232.591 568.962 230.432C568.962 228.273 568.519 226.488 567.632 225.079C566.746 223.648 565.439 222.579 563.712 221.875C561.984 221.148 559.859 220.784 557.337 220.784H549.019V277H532.144ZM571.45 245.091L588.837 277H570.428L553.382 245.091H571.45Z" fill="white"/>
<path d="M589.135 207.182H607.987L622.749 236.398H623.362L638.124 207.182H656.976L631.442 253.682V277H614.669V253.682L589.135 207.182Z" fill="white"/>
<path d="M193.331 393V323.182H242.013V336.886H210.206V351.204H239.524V364.943H210.206V379.295H242.013V393H193.331Z" fill="white"/>
<path d="M269.661 323.182L282.411 345.238H282.956L295.842 323.182H314.729L293.661 358.091L315.411 393H296.047L282.956 370.704H282.411L269.32 393H250.092L271.74 358.091L250.638 323.182H269.661Z" fill="white"/>
<path d="M323.456 393V323.182H352.297C357.524 323.182 362.036 324.204 365.831 326.25C369.649 328.273 372.592 331.102 374.661 334.738C376.729 338.352 377.763 342.557 377.763 347.352C377.763 352.17 376.706 356.386 374.592 360C372.502 363.591 369.513 366.375 365.627 368.352C361.74 370.329 357.127 371.318 351.786 371.318H333.99V358.023H348.649C351.195 358.023 353.32 357.579 355.024 356.693C356.752 355.807 358.058 354.568 358.945 352.977C359.831 351.363 360.274 349.488 360.274 347.352C360.274 345.193 359.831 343.329 358.945 341.761C358.058 340.17 356.752 338.943 355.024 338.079C353.297 337.216 351.172 336.784 348.649 336.784H340.331V393H323.456Z" fill="white"/>
<path d="M386.081 393V323.182H434.763V336.886H402.956V351.204H432.274V364.943H402.956V379.295H434.763V393H386.081Z" fill="white"/>
<path d="M445.331 393V323.182H474.172C479.399 323.182 483.911 324.125 487.706 326.011C491.524 327.875 494.467 330.557 496.536 334.057C498.604 337.534 499.638 341.659 499.638 346.432C499.638 351.273 498.581 355.386 496.467 358.773C494.354 362.136 491.354 364.704 487.467 366.477C483.581 368.227 478.979 369.102 473.661 369.102H455.422V355.807H470.524C473.07 355.807 475.195 355.477 476.899 354.818C478.627 354.136 479.933 353.113 480.82 351.75C481.706 350.363 482.149 348.591 482.149 346.432C482.149 344.273 481.706 342.488 480.82 341.079C479.933 339.648 478.627 338.579 476.899 337.875C475.172 337.148 473.047 336.784 470.524 336.784H462.206V393H445.331ZM484.638 361.091L502.024 393H483.615L466.57 361.091H484.638Z" fill="white"/>
<path d="M506.609 336.886V323.182H565.621V336.886H544.45V393H527.814V336.886H506.609Z" fill="white"/>
<path d="M611.601 344.113C611.374 341.613 610.362 339.67 608.567 338.284C606.794 336.875 604.26 336.17 600.965 336.17C598.783 336.17 596.965 336.454 595.51 337.023C594.055 337.591 592.965 338.375 592.237 339.375C591.51 340.352 591.135 341.477 591.112 342.75C591.067 343.795 591.271 344.716 591.726 345.511C592.203 346.307 592.885 347.011 593.771 347.625C594.68 348.216 595.771 348.738 597.044 349.193C598.317 349.648 599.749 350.045 601.34 350.386L607.34 351.75C610.794 352.5 613.84 353.5 616.476 354.75C619.135 356 621.362 357.488 623.158 359.216C624.976 360.943 626.351 362.932 627.283 365.182C628.215 367.432 628.692 369.954 628.715 372.75C628.692 377.159 627.578 380.943 625.374 384.102C623.169 387.261 619.999 389.682 615.862 391.363C611.749 393.045 606.783 393.886 600.965 393.886C595.124 393.886 590.033 393.011 585.692 391.261C581.351 389.511 577.976 386.852 575.567 383.284C573.158 379.716 571.919 375.204 571.851 369.75H588.01C588.146 372 588.749 373.875 589.817 375.375C590.885 376.875 592.351 378.011 594.215 378.784C596.101 379.557 598.283 379.943 600.76 379.943C603.033 379.943 604.965 379.636 606.555 379.023C608.169 378.409 609.408 377.557 610.271 376.466C611.135 375.375 611.578 374.125 611.601 372.716C611.578 371.398 611.169 370.273 610.374 369.341C609.578 368.386 608.351 367.568 606.692 366.886C605.056 366.182 602.965 365.534 600.419 364.943L593.124 363.238C587.078 361.852 582.317 359.613 578.84 356.523C575.362 353.409 573.635 349.204 573.658 343.909C573.635 339.591 574.794 335.807 577.135 332.557C579.476 329.307 582.715 326.773 586.851 324.954C590.987 323.136 595.703 322.227 600.999 322.227C606.408 322.227 611.101 323.148 615.078 324.988C619.078 326.807 622.18 329.363 624.385 332.659C626.59 335.954 627.715 339.773 627.76 344.113H611.601Z" fill="white"/>
</g>
<defs>
<filter id="filter0_b_405_496" x="-125.047" y="-63.0467" width="1071.09" height="726.093" filterUnits="userSpaceOnUse" color-interpolation-filters="sRGB">
<feFlood flood-opacity="0" result="BackgroundImageFix"/>
<feGaussianBlur in="BackgroundImageFix" stdDeviation="94.0234"/>
<feComposite in2="SourceAlpha" operator="in" result="effect1_backgroundBlur_405_496"/>
<feBlend mode="normal" in="SourceGraphic" in2="effect1_backgroundBlur_405_496" result="shape"/>
</filter>
<filter id="filter1_d_405_496" x="151.519" y="195.227" width="520.458" height="217.659" filterUnits="userSpaceOnUse" color-interpolation-filters="sRGB">
<feFlood flood-opacity="0" result="BackgroundImageFix"/>
<feColorMatrix in="SourceAlpha" type="matrix" values="0 0 0 0 0 0 0 0 0 0 0 0 0 0 0 0 0 0 127 0" result="hardAlpha"/>
<feOffset dy="4"/>
<feGaussianBlur stdDeviation="7.5"/>
<feComposite in2="hardAlpha" operator="out"/>
<feColorMatrix type="matrix" values="0 0 0 0 0 0 0 0 0 0 0 0 0 0 0 0 0 0 0.25 0"/>
<feBlend mode="normal" in2="BackgroundImageFix" result="effect1_dropShadow_405_496"/>
<feBlend mode="normal" in="SourceGraphic" in2="effect1_dropShadow_405_496" result="shape"/>
</filter>
<radialGradient id="paint0_radial_405_496" cx="0" cy="0" r="1" gradientUnits="userSpaceOnUse" gradientTransform="translate(237.402 278.053) rotate(29.7204) scale(777.423 1459.93)">
<stop stop-color="#3A3A3C"/>
<stop offset="1" stop-color="#131314"/>
</radialGradient>
<linearGradient id="paint1_linear_405_496" x1="427.302" y1="288.103" x2="446.957" y2="417.972" gradientUnits="userSpaceOnUse">
<stop stop-color="#2F2F2F" stop-opacity="0.79"/>
<stop offset="1" stop-color="#212121"/>
</linearGradient>
<linearGradient id="paint2_linear_405_496" x1="677.884" y1="124.794" x2="301.326" y2="391.904" gradientUnits="userSpaceOnUse">
<stop stop-color="white" stop-opacity="0.53"/>
<stop offset="1" stop-color="white" stop-opacity="0"/>
</linearGradient>
</defs>
</svg>
