<svg width="820" height="600" viewBox="0 0 820 600" fill="none" xmlns="http://www.w3.org/2000/svg">
<rect width="820" height="600" fill="url(#paint0_radial_405_492)"/>
<g filter="url(#filter0_b_405_492)">
<path d="M63 285C63 228.995 63 200.992 73.8993 179.601C83.4867 160.785 98.7847 145.487 117.601 135.899C138.992 125 166.995 125 223 125H598C654.005 125 682.008 125 703.399 135.899C722.215 145.487 737.513 160.785 747.101 179.601C758 200.992 758 228.995 758 285V315C758 371.005 758 399.008 747.101 420.399C737.513 439.215 722.215 454.513 703.399 464.101C682.008 475 654.005 475 598 475H223C166.995 475 138.992 475 117.601 464.101C98.7847 454.513 83.4867 439.215 73.8993 420.399C63 399.008 63 371.005 63 315V285Z" fill="url(#paint1_linear_405_492)" fill-opacity="0.25"/>
<path d="M223 127.5H598C626.044 127.5 646.926 127.502 663.476 128.854C679.997 130.204 691.98 132.887 702.264 138.127C720.61 147.475 735.526 162.39 744.873 180.736C750.113 191.02 752.796 203.003 754.146 219.524C755.498 236.074 755.5 256.956 755.5 285V315C755.5 343.044 755.498 363.926 754.146 380.476C752.796 396.997 750.113 408.98 744.873 419.264C735.526 437.61 720.61 452.525 702.264 461.873C691.98 467.113 679.997 469.796 663.476 471.146C646.926 472.498 626.044 472.5 598 472.5H223C194.956 472.5 174.074 472.498 157.524 471.146C141.003 469.796 129.02 467.113 118.736 461.873C100.39 452.525 85.4745 437.61 76.1269 419.264C70.8867 408.98 68.2039 396.997 66.8541 380.476C65.5019 363.926 65.5 343.044 65.5 315V285C65.5 256.956 65.5019 236.074 66.8541 219.524C68.2039 203.003 70.8867 191.02 76.1269 180.736C85.4745 162.39 100.39 147.475 118.736 138.127C129.02 132.887 141.003 130.204 157.524 128.854C174.074 127.502 194.956 127.5 223 127.5Z" stroke="url(#paint2_linear_405_492)" stroke-width="5"/>
</g>
<g filter="url(#filter1_d_405_492)">
<path d="M283.728 245.909V355H263.806L216.345 286.339H215.546V355H192.481V245.909H212.723L259.811 314.517H260.77V245.909H283.728Z" fill="white"/>
<path d="M302.784 355V245.909H376.293V264.925H325.849V290.92H372.511V309.936H325.849V335.984H376.506V355H302.784Z" fill="white"/>
<path d="M419.186 355L387.971 245.909H413.167L431.224 321.708H432.13L452.052 245.909H473.625L493.494 321.868H494.452L512.51 245.909H537.705L506.491 355H484.012L463.238 283.675H462.386L441.665 355H419.186Z" fill="white"/>
<path d="M608.204 277.283C607.778 272.986 605.949 269.648 602.718 267.269C599.486 264.89 595.1 263.7 589.561 263.7C585.796 263.7 582.618 264.233 580.026 265.298C577.434 266.328 575.445 267.766 574.06 269.613C572.711 271.459 572.036 273.555 572.036 275.898C571.965 277.851 572.373 279.556 573.261 281.012C574.184 282.468 575.445 283.729 577.043 284.794C578.641 285.824 580.487 286.729 582.583 287.511C584.678 288.256 586.915 288.895 589.294 289.428L599.095 291.772C603.854 292.837 608.222 294.258 612.199 296.033C616.176 297.809 619.621 299.993 622.533 302.585C625.445 305.177 627.7 308.231 629.298 311.747C630.931 315.263 631.766 319.293 631.801 323.839C631.766 330.515 630.061 336.303 626.688 341.204C623.35 346.069 618.52 349.851 612.199 352.55C605.914 355.213 598.332 356.545 589.454 356.545C580.647 356.545 572.977 355.195 566.443 352.496C559.944 349.797 554.866 345.802 551.208 340.511C547.586 335.185 545.686 328.597 545.509 320.749H567.828C568.076 324.407 569.124 327.461 570.97 329.911C572.853 332.326 575.356 334.155 578.481 335.398C581.642 336.605 585.211 337.209 589.188 337.209C593.094 337.209 596.485 336.64 599.362 335.504C602.274 334.368 604.529 332.788 606.127 330.763C607.725 328.739 608.524 326.413 608.524 323.785C608.524 321.335 607.796 319.275 606.34 317.606C604.919 315.937 602.824 314.517 600.054 313.345C597.32 312.173 593.964 311.108 589.987 310.149L578.108 307.166C568.911 304.929 561.649 301.431 556.322 296.672C550.995 291.914 548.35 285.504 548.385 277.443C548.35 270.838 550.108 265.067 553.659 260.131C557.245 255.195 562.164 251.342 568.414 248.572C574.664 245.802 581.766 244.417 589.72 244.417C597.817 244.417 604.884 245.802 610.921 248.572C616.993 251.342 621.716 255.195 625.09 260.131C628.463 265.067 630.203 270.785 630.31 277.283H608.204Z" fill="white"/>
</g>
<defs>
<filter id="filter0_b_405_492" x="-125.047" y="-63.0467" width="1071.09" height="726.093" filterUnits="userSpaceOnUse" color-interpolation-filters="sRGB">
<feFlood flood-opacity="0" result="BackgroundImageFix"/>
<feGaussianBlur in="BackgroundImageFix" stdDeviation="94.0234"/>
<feComposite in2="SourceAlpha" operator="in" result="effect1_backgroundBlur_405_492"/>
<feBlend mode="normal" in="SourceGraphic" in2="effect1_backgroundBlur_405_492" result="shape"/>
</filter>
<filter id="filter1_d_405_492" x="177.481" y="233.417" width="469.32" height="142.127" filterUnits="userSpaceOnUse" color-interpolation-filters="sRGB">
<feFlood flood-opacity="0" result="BackgroundImageFix"/>
<feColorMatrix in="SourceAlpha" type="matrix" values="0 0 0 0 0 0 0 0 0 0 0 0 0 0 0 0 0 0 127 0" result="hardAlpha"/>
<feOffset dy="4"/>
<feGaussianBlur stdDeviation="7.5"/>
<feComposite in2="hardAlpha" operator="out"/>
<feColorMatrix type="matrix" values="0 0 0 0 0 0 0 0 0 0 0 0 0 0 0 0 0 0 0.25 0"/>
<feBlend mode="normal" in2="BackgroundImageFix" result="effect1_dropShadow_405_492"/>
<feBlend mode="normal" in="SourceGraphic" in2="effect1_dropShadow_405_492" result="shape"/>
</filter>
<radialGradient id="paint0_radial_405_492" cx="0" cy="0" r="1" gradientUnits="userSpaceOnUse" gradientTransform="translate(237.402 278.053) rotate(29.7204) scale(777.423 1459.93)">
<stop stop-color="#2E1D7D"/>
<stop offset="1" stop-color="#050939"/>
</radialGradient>
<linearGradient id="paint1_linear_405_492" x1="427.302" y1="288.103" x2="446.957" y2="417.972" gradientUnits="userSpaceOnUse">
<stop stop-color="#2F2F2F" stop-opacity="0.79"/>
<stop offset="1" stop-color="#212121"/>
</linearGradient>
<linearGradient id="paint2_linear_405_492" x1="677.884" y1="124.794" x2="301.326" y2="391.904" gradientUnits="userSpaceOnUse">
<stop stop-color="white" stop-opacity="0.53"/>
<stop offset="1" stop-color="white" stop-opacity="0"/>
</linearGradient>
</defs>
</svg>
