<svg width="820" height="600" viewBox="0 0 820 600" fill="none" xmlns="http://www.w3.org/2000/svg">
<rect width="820" height="600" fill="url(#paint0_radial_405_500)"/>
<g filter="url(#filter0_b_405_500)">
<path d="M63 285C63 228.995 63 200.992 73.8993 179.601C83.4867 160.785 98.7847 145.487 117.601 135.899C138.992 125 166.995 125 223 125H598C654.005 125 682.008 125 703.399 135.899C722.215 145.487 737.513 160.785 747.101 179.601C758 200.992 758 228.995 758 285V315C758 371.005 758 399.008 747.101 420.399C737.513 439.215 722.215 454.513 703.399 464.101C682.008 475 654.005 475 598 475H223C166.995 475 138.992 475 117.601 464.101C98.7847 454.513 83.4867 439.215 73.8993 420.399C63 399.008 63 371.005 63 315V285Z" fill="url(#paint1_linear_405_500)" fill-opacity="0.1"/>
<path d="M223 127.5H598C626.044 127.5 646.926 127.502 663.476 128.854C679.997 130.204 691.98 132.887 702.264 138.127C720.61 147.475 735.526 162.39 744.873 180.736C750.113 191.02 752.796 203.003 754.146 219.524C755.498 236.074 755.5 256.956 755.5 285V315C755.5 343.044 755.498 363.926 754.146 380.476C752.796 396.997 750.113 408.98 744.873 419.264C735.526 437.61 720.61 452.525 702.264 461.873C691.98 467.113 679.997 469.796 663.476 471.146C646.926 472.498 626.044 472.5 598 472.5H223C194.956 472.5 174.074 472.498 157.524 471.146C141.003 469.796 129.02 467.113 118.736 461.873C100.39 452.525 85.4745 437.61 76.1269 419.264C70.8867 408.98 68.2039 396.997 66.8541 380.476C65.5019 363.926 65.5 343.044 65.5 315V285C65.5 256.956 65.5019 236.074 66.8541 219.524C68.2039 203.003 70.8867 191.02 76.1269 180.736C85.4745 162.39 100.39 147.475 118.736 138.127C129.02 132.887 141.003 130.204 157.524 128.854C174.074 127.502 194.956 127.5 223 127.5Z" stroke="url(#paint2_linear_405_500)" stroke-width="5"/>
</g>
<g filter="url(#filter1_d_405_500)">
<path d="M324.926 277.283C324.5 272.986 322.671 269.648 319.439 267.269C316.208 264.89 311.822 263.7 306.282 263.7C302.518 263.7 299.34 264.233 296.748 265.298C294.155 266.328 292.167 267.766 290.782 269.613C289.432 271.459 288.758 273.555 288.758 275.898C288.687 277.851 289.095 279.556 289.983 281.012C290.906 282.468 292.167 283.729 293.765 284.794C295.363 285.824 297.209 286.729 299.304 287.511C301.4 288.256 303.637 288.895 306.016 289.428L315.817 291.772C320.576 292.837 324.944 294.258 328.921 296.033C332.898 297.809 336.343 299.993 339.255 302.585C342.167 305.177 344.422 308.231 346.02 311.747C347.653 315.263 348.488 319.293 348.523 323.839C348.488 330.515 346.783 336.303 343.41 341.204C340.072 346.069 335.242 349.851 328.921 352.55C322.635 355.213 315.054 356.545 306.176 356.545C297.369 356.545 289.699 355.195 283.165 352.496C276.666 349.797 271.588 345.802 267.93 340.511C264.308 335.185 262.408 328.597 262.231 320.749H284.549C284.798 324.407 285.846 327.461 287.692 329.911C289.574 332.326 292.078 334.155 295.203 335.398C298.363 336.605 301.932 337.209 305.91 337.209C309.816 337.209 313.207 336.64 316.084 335.504C318.996 334.368 321.25 332.788 322.848 330.763C324.447 328.739 325.246 326.413 325.246 323.785C325.246 321.335 324.518 319.275 323.062 317.606C321.641 315.937 319.546 314.517 316.776 313.345C314.042 312.173 310.686 311.108 306.709 310.149L294.83 307.166C285.633 304.929 278.371 301.431 273.044 296.672C267.717 291.914 265.072 285.504 265.107 277.443C265.072 270.838 266.829 265.067 270.38 260.131C273.967 255.195 278.885 251.342 285.135 248.572C291.385 245.802 298.488 244.417 306.442 244.417C314.539 244.417 321.606 245.802 327.643 248.572C333.715 251.342 338.438 255.195 341.812 260.131C345.185 265.067 346.925 270.785 347.032 277.283H324.926Z" fill="white"/>
<path d="M364.037 355V245.909H437.546V264.925H387.102V290.92H433.764V309.936H387.102V335.984H437.759V355H364.037Z" fill="white"/>
<path d="M556.132 300.454C556.132 312.351 553.877 322.471 549.367 330.817C544.892 339.162 538.784 345.536 531.043 349.939C523.337 354.307 514.672 356.491 505.048 356.491C495.354 356.491 486.654 354.29 478.948 349.886C471.242 345.483 465.151 339.109 460.677 330.763C456.203 322.418 453.965 312.315 453.965 300.454C453.965 288.558 456.203 278.437 460.677 270.092C465.151 261.747 471.242 255.39 478.948 251.023C486.654 246.619 495.354 244.417 505.048 244.417C514.672 244.417 523.337 246.619 531.043 251.023C538.784 255.39 544.892 261.747 549.367 270.092C553.877 278.437 556.132 288.558 556.132 300.454ZM532.747 300.454C532.747 292.748 531.593 286.25 529.285 280.959C527.012 275.667 523.798 271.655 519.644 268.92C515.489 266.186 510.624 264.819 505.048 264.819C499.473 264.819 494.608 266.186 490.453 268.92C486.298 271.655 483.067 275.667 480.759 280.959C478.486 286.25 477.35 292.748 477.35 300.454C477.35 308.16 478.486 314.659 480.759 319.95C483.067 325.241 486.298 329.254 490.453 331.989C494.608 334.723 499.473 336.09 505.048 336.09C510.624 336.09 515.489 334.723 519.644 331.989C523.798 329.254 527.012 325.241 529.285 319.95C531.593 314.659 532.747 308.16 532.747 300.454Z" fill="white"/>
</g>
<defs>
<filter id="filter0_b_405_500" x="-125.047" y="-63.0467" width="1071.09" height="726.093" filterUnits="userSpaceOnUse" color-interpolation-filters="sRGB">
<feFlood flood-opacity="0" result="BackgroundImageFix"/>
<feGaussianBlur in="BackgroundImageFix" stdDeviation="94.0234"/>
<feComposite in2="SourceAlpha" operator="in" result="effect1_backgroundBlur_405_500"/>
<feBlend mode="normal" in="SourceGraphic" in2="effect1_backgroundBlur_405_500" result="shape"/>
</filter>
<filter id="filter1_d_405_500" x="247.231" y="233.417" width="323.901" height="142.127" filterUnits="userSpaceOnUse" color-interpolation-filters="sRGB">
<feFlood flood-opacity="0" result="BackgroundImageFix"/>
<feColorMatrix in="SourceAlpha" type="matrix" values="0 0 0 0 0 0 0 0 0 0 0 0 0 0 0 0 0 0 127 0" result="hardAlpha"/>
<feOffset dy="4"/>
<feGaussianBlur stdDeviation="7.5"/>
<feComposite in2="hardAlpha" operator="out"/>
<feColorMatrix type="matrix" values="0 0 0 0 0 0 0 0 0 0 0 0 0 0 0 0 0 0 0.25 0"/>
<feBlend mode="normal" in2="BackgroundImageFix" result="effect1_dropShadow_405_500"/>
<feBlend mode="normal" in="SourceGraphic" in2="effect1_dropShadow_405_500" result="shape"/>
</filter>
<radialGradient id="paint0_radial_405_500" cx="0" cy="0" r="1" gradientUnits="userSpaceOnUse" gradientTransform="translate(237.402 278.053) rotate(29.7204) scale(777.423 1459.93)">
<stop stop-color="#FF453A"/>
<stop offset="1" stop-color="#CA0317"/>
</radialGradient>
<linearGradient id="paint1_linear_405_500" x1="427.302" y1="288.103" x2="446.957" y2="417.972" gradientUnits="userSpaceOnUse">
<stop stop-color="#2F2F2F" stop-opacity="0.79"/>
<stop offset="1" stop-color="#212121"/>
</linearGradient>
<linearGradient id="paint2_linear_405_500" x1="677.884" y1="124.794" x2="301.326" y2="391.904" gradientUnits="userSpaceOnUse">
<stop stop-color="white" stop-opacity="0.53"/>
<stop offset="1" stop-color="white" stop-opacity="0"/>
</linearGradient>
</defs>
</svg>
