<svg width="820" height="600" viewBox="0 0 820 600" fill="none" xmlns="http://www.w3.org/2000/svg">
<rect width="820" height="600" fill="url(#paint0_radial_405_504)"/>
<g filter="url(#filter0_b_405_504)">
<path d="M63 285C63 228.995 63 200.992 73.8993 179.601C83.4867 160.785 98.7847 145.487 117.601 135.899C138.992 125 166.995 125 223 125H598C654.005 125 682.008 125 703.399 135.899C722.215 145.487 737.513 160.785 747.101 179.601C758 200.992 758 228.995 758 285V315C758 371.005 758 399.008 747.101 420.399C737.513 439.215 722.215 454.513 703.399 464.101C682.008 475 654.005 475 598 475H223C166.995 475 138.992 475 117.601 464.101C98.7847 454.513 83.4867 439.215 73.8993 420.399C63 399.008 63 371.005 63 315V285Z" fill="url(#paint1_linear_405_504)" fill-opacity="0.15"/>
<path d="M223 127.5H598C626.044 127.5 646.926 127.502 663.476 128.854C679.997 130.204 691.98 132.887 702.264 138.127C720.61 147.475 735.526 162.39 744.873 180.736C750.113 191.02 752.796 203.003 754.146 219.524C755.498 236.074 755.5 256.956 755.5 285V315C755.5 343.044 755.498 363.926 754.146 380.476C752.796 396.997 750.113 408.98 744.873 419.264C735.526 437.61 720.61 452.525 702.264 461.873C691.98 467.113 679.997 469.796 663.476 471.146C646.926 472.498 626.044 472.5 598 472.5H223C194.956 472.5 174.074 472.498 157.524 471.146C141.003 469.796 129.02 467.113 118.736 461.873C100.39 452.525 85.4745 437.61 76.1269 419.264C70.8867 408.98 68.2039 396.997 66.8541 380.476C65.5019 363.926 65.5 343.044 65.5 315V285C65.5 256.956 65.5019 236.074 66.8541 219.524C68.2039 203.003 70.8867 191.02 76.1269 180.736C85.4745 162.39 100.39 147.475 118.736 138.127C129.02 132.887 141.003 130.204 157.524 128.854C174.074 127.502 194.956 127.5 223 127.5Z" stroke="url(#paint2_linear_405_504)" stroke-width="5"/>
</g>
<g filter="url(#filter1_d_405_504)">
<path d="M281.266 227.562V215H335.359V227.562H315.953V279H300.703V227.562H281.266Z" fill="white"/>
<path d="M342.914 279V215H387.539V227.562H358.383V240.688H385.258V253.281H358.383V266.438H387.539V279H342.914Z" fill="white"/>
<path d="M411.07 279H394.445L416.039 215H436.633L458.227 279H441.602L426.57 231.125H426.07L411.07 279ZM408.852 253.812H443.602V265.562H408.852V253.812Z" fill="white"/>
<path d="M465.117 215H484.273L500.523 254.625H501.273L517.523 215H536.68V279H521.617V239.688H521.086L505.711 278.594H496.086L480.711 239.469H480.18V279H465.117V215Z" fill="white"/>
<path d="M151.316 322V386H135.848V322H151.316Z" fill="white"/>
<path d="M215.496 322V386H202.371L176.902 349.062H176.496V386H161.027V322H174.34L199.527 358.875H200.059V322H215.496Z" fill="white"/>
<path d="M223.129 334.562V322H277.223V334.562H257.816V386H242.566V334.562H223.129Z" fill="white"/>
<path d="M284.777 386V322H329.402V334.562H300.246V347.688H327.121V360.281H300.246V373.438H329.402V386H284.777Z" fill="white"/>
<path d="M339.09 386V322H365.527C370.319 322 374.454 322.865 377.934 324.594C381.434 326.302 384.132 328.76 386.027 331.969C387.923 335.156 388.871 338.937 388.871 343.312C388.871 347.75 387.902 351.521 385.965 354.625C384.027 357.708 381.277 360.062 377.715 361.688C374.152 363.292 369.934 364.094 365.059 364.094H348.34V351.906H362.184C364.517 351.906 366.465 351.604 368.027 351C369.611 350.375 370.809 349.437 371.621 348.188C372.434 346.917 372.84 345.292 372.84 343.312C372.84 341.333 372.434 339.698 371.621 338.406C370.809 337.094 369.611 336.115 368.027 335.469C366.444 334.802 364.496 334.469 362.184 334.469H354.559V386H339.09ZM375.121 356.75L391.059 386H374.184L358.559 356.75H375.121Z" fill="white"/>
<path d="M409.996 322L424.309 368.875H424.84L439.152 322H456.465L434.871 386H414.277L392.684 322H409.996Z" fill="white"/>
<path d="M478.824 322V386H463.355V322H478.824Z" fill="white"/>
<path d="M488.535 386V322H533.16V334.562H504.004V347.688H530.879V360.281H504.004V373.438H533.16V386H488.535Z" fill="white"/>
<path d="M558.191 386L539.566 322H556.66L566.316 363.938H566.848L577.879 322H591.816L602.848 364.031H603.379L613.066 322H630.129L611.535 386H596.629L585.098 347.188H584.598L573.066 386H558.191Z" fill="white"/>
<path d="M670.34 341.188C670.132 338.896 669.204 337.115 667.559 335.844C665.934 334.552 663.611 333.906 660.59 333.906C658.59 333.906 656.923 334.167 655.59 334.688C654.257 335.208 653.257 335.927 652.59 336.844C651.923 337.74 651.579 338.771 651.559 339.938C651.517 340.896 651.704 341.74 652.121 342.469C652.559 343.198 653.184 343.844 653.996 344.406C654.829 344.948 655.829 345.427 656.996 345.844C658.163 346.26 659.475 346.625 660.934 346.938L666.434 348.188C669.6 348.875 672.392 349.792 674.809 350.938C677.246 352.083 679.288 353.448 680.934 355.031C682.6 356.615 683.861 358.438 684.715 360.5C685.569 362.562 686.007 364.875 686.027 367.438C686.007 371.479 684.986 374.948 682.965 377.844C680.944 380.74 678.038 382.958 674.246 384.5C670.475 386.042 665.923 386.812 660.59 386.812C655.236 386.812 650.569 386.01 646.59 384.406C642.611 382.802 639.517 380.365 637.309 377.094C635.1 373.823 633.965 369.687 633.902 364.688H648.715C648.84 366.75 649.392 368.469 650.371 369.844C651.35 371.219 652.694 372.26 654.402 372.969C656.132 373.677 658.132 374.031 660.402 374.031C662.486 374.031 664.257 373.75 665.715 373.188C667.194 372.625 668.329 371.844 669.121 370.844C669.913 369.844 670.319 368.698 670.34 367.406C670.319 366.198 669.944 365.167 669.215 364.312C668.486 363.437 667.361 362.687 665.84 362.062C664.34 361.417 662.423 360.823 660.09 360.281L653.402 358.719C647.861 357.448 643.496 355.396 640.309 352.562C637.121 349.708 635.538 345.854 635.559 341C635.538 337.042 636.6 333.573 638.746 330.594C640.892 327.615 643.861 325.292 647.652 323.625C651.444 321.958 655.767 321.125 660.621 321.125C665.579 321.125 669.882 321.969 673.527 323.656C677.194 325.323 680.038 327.667 682.059 330.688C684.079 333.708 685.111 337.208 685.152 341.188H670.34Z" fill="white"/>
</g>
<defs>
<filter id="filter0_b_405_504" x="-125.047" y="-63.0467" width="1071.09" height="726.093" filterUnits="userSpaceOnUse" color-interpolation-filters="sRGB">
<feFlood flood-opacity="0" result="BackgroundImageFix"/>
<feGaussianBlur in="BackgroundImageFix" stdDeviation="94.0234"/>
<feComposite in2="SourceAlpha" operator="in" result="effect1_backgroundBlur_405_504"/>
<feBlend mode="normal" in="SourceGraphic" in2="effect1_backgroundBlur_405_504" result="shape"/>
</filter>
<filter id="filter1_d_405_504" x="120.848" y="204" width="580.18" height="201.812" filterUnits="userSpaceOnUse" color-interpolation-filters="sRGB">
<feFlood flood-opacity="0" result="BackgroundImageFix"/>
<feColorMatrix in="SourceAlpha" type="matrix" values="0 0 0 0 0 0 0 0 0 0 0 0 0 0 0 0 0 0 127 0" result="hardAlpha"/>
<feOffset dy="4"/>
<feGaussianBlur stdDeviation="7.5"/>
<feComposite in2="hardAlpha" operator="out"/>
<feColorMatrix type="matrix" values="0 0 0 0 0 0 0 0 0 0 0 0 0 0 0 0 0 0 0.25 0"/>
<feBlend mode="normal" in2="BackgroundImageFix" result="effect1_dropShadow_405_504"/>
<feBlend mode="normal" in="SourceGraphic" in2="effect1_dropShadow_405_504" result="shape"/>
</filter>
<radialGradient id="paint0_radial_405_504" cx="0" cy="0" r="1" gradientUnits="userSpaceOnUse" gradientTransform="translate(237.402 278.053) rotate(29.7204) scale(777.423 1459.93)">
<stop stop-color="#007AFF"/>
<stop offset="1" stop-color="#0040DD"/>
</radialGradient>
<linearGradient id="paint1_linear_405_504" x1="427.302" y1="288.103" x2="446.957" y2="417.972" gradientUnits="userSpaceOnUse">
<stop stop-color="#2F2F2F" stop-opacity="0.79"/>
<stop offset="1" stop-color="#212121"/>
</linearGradient>
<linearGradient id="paint2_linear_405_504" x1="677.884" y1="124.794" x2="301.326" y2="391.904" gradientUnits="userSpaceOnUse">
<stop stop-color="white" stop-opacity="0.53"/>
<stop offset="1" stop-color="white" stop-opacity="0"/>
</linearGradient>
</defs>
</svg>
