<svg width="41" height="51" viewBox="0 0 41 51" fill="none" xmlns="http://www.w3.org/2000/svg">
<path d="M40.3984 20.29C40.3984 32.856 26.7915 45.8114 22.0244 49.9642C21.5707 50.3598 20.9908 50.5806 20.3889 50.5869C19.787 50.5931 19.2026 50.3844 18.7408 49.9983C13.9452 45.988 0.398438 33.4901 0.398438 20.29C0.398438 9.24466 9.35312 0.289978 20.3984 0.289978C31.4438 0.289978 40.3984 9.24466 40.3984 20.29Z" fill="url(#paint0_linear_745_2747)"/>
<path d="M39.2184 19.8791C39.2184 32.0652 26.6666 44.624 22.0634 48.8204C21.6044 49.239 21.0072 49.4739 20.3859 49.4804C19.7647 49.4868 19.1628 49.2642 18.6951 48.8552C14.0634 44.7998 1.57422 32.6763 1.57422 19.8823C1.57422 9.06021 10.1758 0.289978 20.3963 0.289978C30.6168 0.289978 39.2184 9.06021 39.2184 19.8791Z" fill="url(#paint1_linear_745_2747)"/>
<path d="M20.3968 35.8103C29.2281 35.8103 36.3873 28.6334 36.3873 19.7802C36.3873 10.927 29.2281 3.75012 20.3968 3.75012C11.5654 3.75012 4.40625 10.927 4.40625 19.7802C4.40625 28.6334 11.5654 35.8103 20.3968 35.8103Z" fill="url(#paint2_linear_745_2747)"/>
<path d="M20.3524 33.2771C27.8065 33.2771 33.8493 27.2343 33.8493 19.7802C33.8493 12.326 27.8065 6.28326 20.3524 6.28326C12.8983 6.28326 6.85547 12.326 6.85547 19.7802C6.85547 27.2343 12.8983 33.2771 20.3524 33.2771Z" fill="white"/>
<path d="M18.1555 14.9622C16.6061 16.994 15.6434 19.8225 15.5543 20.0889L12.4766 19.0098L15.5814 15.3901C15.9418 14.97 16.4906 14.7545 17.0429 14.8239L18.1555 14.9622ZM20.4128 23.7326C20.4128 23.7326 23.4081 22.2176 25.0565 20.2961C29.1964 15.4699 28.2068 12.0015 27.9119 11.2259C27.1104 11.0317 23.5759 10.5389 19.436 15.3651C17.7879 17.2867 16.7276 20.4995 16.7276 20.4995L20.4128 23.7326ZM25.6318 21.5213C23.8614 23.3594 21.2284 24.7225 20.9802 24.8494L22.4711 27.7786L25.5762 24.1589C25.9365 23.7389 26.0699 23.159 25.9241 22.6159L25.6318 21.5213ZM18.6805 24.6957C18.7292 25.3884 18.4924 26.0343 18.0784 26.517C17.1738 27.5716 13.1384 28.4482 13.1384 28.4482C13.1384 28.4482 13.4269 24.2842 14.3317 23.2296C14.6525 22.8535 15.0766 22.5823 15.5504 22.4505C16.024 22.3187 16.5258 22.3322 16.9917 22.4893C17.4576 22.6464 17.8671 22.94 18.1677 23.3328C18.4686 23.7257 18.647 24.2 18.6805 24.6957ZM21.4547 16.948C21.3901 16.0301 22.0802 15.2257 22.9878 15.1606C23.8956 15.0954 24.6909 15.7932 24.7552 16.7112C24.8197 17.6292 24.1296 18.4335 23.222 18.4986C22.3142 18.5638 21.519 17.866 21.4547 16.948Z" fill="url(#paint3_linear_745_2747)"/>
<defs>
<linearGradient id="paint0_linear_745_2747" x1="20.457" y1="12.3264" x2="20.1673" y2="51.7422" gradientUnits="userSpaceOnUse">
<stop stop-color="#007AFF"/>
<stop offset="0.32" stop-color="#409CFF"/>
<stop offset="1" stop-color="#5AC8FA"/>
</linearGradient>
<linearGradient id="paint1_linear_745_2747" x1="20.4533" y1="12.0612" x2="20.1707" y2="50.611" gradientUnits="userSpaceOnUse">
<stop stop-color="#007AFF"/>
<stop offset="0.53" stop-color="#409CFF"/>
<stop offset="1" stop-color="#5AC8FA"/>
</linearGradient>
<linearGradient id="paint2_linear_745_2747" x1="14.8612" y1="5.31121" x2="26.3654" y2="35.2341" gradientUnits="userSpaceOnUse">
<stop offset="0.22" stop-color="#007AFF"/>
<stop offset="0.66" stop-color="#409CFF"/>
<stop offset="1" stop-color="#5AC8FA"/>
</linearGradient>
<linearGradient id="paint3_linear_745_2747" x1="20.3531" y1="11.112" x2="20.3531" y2="28.4482" gradientUnits="userSpaceOnUse">
<stop stop-color="#007AFF"/>
<stop offset="1" stop-color="#56C1FA"/>
</linearGradient>
</defs>
</svg>
