<svg width="1440" height="1024" viewBox="0 0 1440 1024" fill="none" xmlns="http://www.w3.org/2000/svg">
<path d="M58.6978 2.5H61.1978H1396.27C1401.69 2.5 1407.06 3.53616 1412.06 5.54761C1417.06 7.55901 1421.6 10.5053 1425.42 14.2147C1429.24 17.924 1432.27 22.3235 1434.34 27.1601C1436.4 31.9964 1437.46 37.1773 1437.46 42.4075V985.327C1437.46 994.896 1433.55 1004.09 1426.55 1010.88C1419.55 1017.67 1410.05 1021.5 1400.12 1021.5H56.6991C49.5714 1021.5 42.5152 1020.14 35.9339 1017.49C29.3527 1014.84 23.3777 1010.97 18.3481 1006.09C13.3186 1001.2 9.33308 995.412 6.61536 989.043C3.89772 982.674 2.5 975.851 2.5 968.962V56.9779C2.5 42.5539 8.40219 28.705 18.9335 18.4823C29.4673 8.25714 43.7696 2.5 58.6978 2.5Z" fill="white" stroke="#DEDEDF" stroke-width="5"/>
<path d="M1394.2 0H58.1211C42.7064 0 27.9231 5.94404 17.0233 16.5245C6.12346 27.1049 0 41.4551 0 56.4181L0 185.727C0 182.544 1.3026 179.491 3.62123 177.24C5.93987 174.99 9.08462 173.725 12.3637 173.725H1439.96V44.4167C1439.96 38.5838 1438.78 32.8081 1436.48 27.4192C1434.18 22.0303 1430.81 17.1338 1426.56 13.0094C1422.31 8.88488 1417.27 5.61317 1411.71 3.38102C1406.16 1.14887 1400.21 0 1394.2 0V0Z" fill="#ECECEC"/>
<path d="M6.27269 971.47V63.8719C6.27269 49.9401 11.9741 36.5788 22.1228 26.7275C32.2715 16.8762 46.036 11.3418 60.3884 11.3418H54.1157C39.7634 11.3418 25.9988 16.8762 15.8501 26.7275C5.70146 36.5788 0 49.9401 0 63.8719L0 971.47C0 985.402 5.70146 998.763 15.8501 1008.61C25.9988 1018.47 39.7634 1024 54.1157 1024H60.3884C46.036 1024 32.2715 1018.47 22.1228 1008.61C11.9741 998.763 6.27269 985.402 6.27269 971.47V971.47Z" fill="#DEDEDF"/>
<path d="M1399.59 1.87613e-05H55.4721C47.5276 -0.00402769 39.6754 1.65356 32.4502 4.85996C25.2249 8.06635 18.7961 12.7463 13.6016 18.5811C23.6759 10.0693 36.5861 5.38886 49.9421 5.4064H1394.07C1404.77 5.4064 1415.04 9.53418 1422.61 16.8817C1430.18 24.2292 1434.43 34.1945 1434.43 44.5854V990.22C1434.44 999.294 1431.2 1008.09 1425.26 1015.1C1429.87 1011.42 1433.58 1006.8 1436.13 1001.57C1438.68 996.332 1440 990.612 1440 984.821V39.1791C1440 34.0304 1438.95 28.9324 1436.92 24.1764C1434.89 19.4205 1431.91 15.0998 1428.16 11.4613C1424.4 7.82275 1419.95 4.93777 1415.05 2.97118C1410.15 1.0046 1404.89 -0.00501916 1399.59 1.87613e-05V1.87613e-05Z" fill="#DEDEDF"/>
<path d="M1399.59 0H55.4746C40.7618 0 26.6516 5.67337 16.2481 15.772C5.84462 25.8707 0 39.5675 0 53.8491L0 94.5466H1439.96V39.179C1439.96 28.7874 1435.7 18.8221 1428.13 11.4748C1420.56 4.12753 1410.3 -1.98981e-07 1399.59 0V0Z" fill="#1C1C1E"/>
<path style="mix-blend-mode:multiply" d="M77.5938 71.0893C87.9082 71.0893 96.2697 62.9728 96.2697 52.9607C96.2697 42.9485 87.9082 34.832 77.5938 34.832C67.2794 34.832 58.918 42.9485 58.918 52.9607C58.918 62.9728 67.2794 71.0893 77.5938 71.0893Z" fill="url(#paint0_radial_739_3718)" fill-opacity="0.5"/>
<path d="M89.0819 52.8678C91.1464 45.4817 86.6516 37.8695 79.0426 35.8655C71.4336 33.8615 63.5916 38.2246 61.5271 45.6107C59.4627 52.9968 63.9574 60.6089 71.5665 62.6129C79.1755 64.6169 87.0174 60.2538 89.0819 52.8678Z" fill="#FF453A"/>
<path opacity="0.1" d="M87.8101 42.5684C89.3223 45.8273 89.4788 49.5275 88.2468 52.8958C87.0148 56.2642 84.4896 59.0401 81.1988 60.6438C77.908 62.2474 74.1061 62.5547 70.5874 61.5014C67.0686 60.4481 64.1053 58.1157 62.3164 54.9915C63.1071 56.6954 64.2446 58.2265 65.6606 59.4926C67.0767 60.7587 68.7419 61.7337 70.5561 62.359C72.3703 62.9842 74.2961 63.2468 76.2176 63.1309C78.1391 63.0151 80.0166 62.5231 81.7371 61.6847C83.4577 60.8462 84.9858 59.6787 86.2294 58.2521C87.4731 56.8256 88.4067 55.1697 88.974 53.3839C89.5413 51.5981 89.7306 49.7193 89.5306 47.8607C89.3306 46.002 88.7453 44.2018 87.8101 42.5684Z" fill="#1C1C1E"/>
<path style="mix-blend-mode:multiply" d="M142.668 71.0893C152.982 71.0893 161.344 62.9728 161.344 52.9607C161.344 42.9485 152.982 34.832 142.668 34.832C132.354 34.832 123.992 42.9485 123.992 52.9607C123.992 62.9728 132.354 71.0893 142.668 71.0893Z" fill="url(#paint1_radial_739_3718)" fill-opacity="0.5"/>
<path d="M154.16 52.8717C156.225 45.4856 151.73 37.8734 144.121 35.8694C136.512 33.8654 128.67 38.2285 126.605 45.6146C124.541 53.0007 129.036 60.6128 136.645 62.6168C144.254 64.6208 152.096 60.2577 154.16 52.8717Z" fill="#FDBE43"/>
<path opacity="0.1" d="M152.892 42.5684C154.404 45.8273 154.561 49.5275 153.329 52.8958C152.097 56.2642 149.572 59.0401 146.281 60.6438C142.99 62.2474 139.188 62.5547 135.669 61.5014C132.151 60.4481 129.187 58.1157 127.398 54.9915C128.189 56.6954 129.327 58.2265 130.743 59.4926C132.159 60.7587 133.824 61.7337 135.638 62.359C137.452 62.9842 139.378 63.2468 141.3 63.1309C143.221 63.0151 145.099 62.5231 146.819 61.6847C148.54 60.8462 150.068 59.6787 151.311 58.2521C152.555 56.8256 153.489 55.1697 154.056 53.3839C154.623 51.5981 154.813 49.7193 154.613 47.8607C154.413 46.002 153.827 44.2018 152.892 42.5684V42.5684Z" fill="#1C1C1E"/>
<path style="mix-blend-mode:multiply" d="M207.746 71.0893C218.061 71.0893 226.422 62.9728 226.422 52.9607C226.422 42.9485 218.061 34.832 207.746 34.832C197.432 34.832 189.07 42.9485 189.07 52.9607C189.07 62.9728 197.432 71.0893 207.746 71.0893Z" fill="url(#paint2_radial_739_3718)" fill-opacity="0.5"/>
<path d="M219.246 52.8736C221.31 45.4875 216.816 37.8753 209.207 35.8713C201.598 33.8674 193.756 38.2304 191.691 45.6165C189.627 53.0026 194.121 60.6148 201.731 62.6188C209.34 64.6228 217.182 60.2597 219.246 52.8736Z" fill="#32D74B"/>
<path opacity="0.1" d="M217.97 42.5684C219.51 45.832 219.685 49.5483 218.458 52.9346C217.232 56.321 214.699 59.1132 211.394 60.7233C208.089 62.3334 204.269 62.6357 200.739 61.5666C197.209 60.4975 194.244 58.1403 192.469 54.9915C193.267 56.6839 194.409 58.2027 195.825 59.4574C197.241 60.7121 198.904 61.677 200.713 62.2944C202.522 62.9118 204.44 63.1691 206.354 63.0509C208.268 62.9328 210.137 62.4416 211.851 61.6067C213.565 60.7718 215.088 59.6103 216.329 58.1915C217.57 56.7727 218.504 55.1258 219.075 53.3489C219.647 51.572 219.843 49.7016 219.653 47.8494C219.463 45.9972 218.891 44.2011 217.97 42.5684V42.5684Z" fill="#1C1C1E"/>
<path d="M96.2706 125.805H58.1289V130.782H96.2706V125.805Z" fill="#878C97"/>
<path d="M96.2706 138.719H58.1289V143.696H96.2706V138.719Z" fill="#878C97"/>
<path d="M96.2706 151.633H58.1289V156.61H96.2706V151.633Z" fill="#878C97"/>
<path d="M141.429 261.698H149.769V248.909H156.779C165.852 248.909 171.128 243.499 171.128 235.621C171.128 227.78 165.949 222.253 156.99 222.253H141.429V261.698V261.698ZM149.769 242.227V229.073H155.393C160.207 229.073 162.537 231.691 162.537 235.621C162.537 239.528 160.207 242.227 155.43 242.227H149.769V242.227ZM189.282 262.277C198.258 262.277 203.842 256.13 203.842 247.021C203.842 237.854 198.258 231.727 189.282 231.727C180.307 231.727 174.723 237.854 174.723 247.021C174.723 256.13 180.307 262.277 189.282 262.277ZM189.319 255.919C185.178 255.919 183.062 252.126 183.062 246.964C183.062 241.801 185.178 237.988 189.319 237.988C193.383 237.988 195.503 241.801 195.503 246.964C195.503 252.126 193.383 255.919 189.319 255.919ZM233.793 240.549C233.059 235.099 228.671 231.727 221.194 231.727C213.624 231.727 208.636 235.237 208.656 240.934C208.636 245.367 211.432 248.236 217.211 249.391L222.333 250.412C224.914 250.931 226.089 251.875 226.126 253.358C226.089 255.113 224.181 256.365 221.312 256.365C218.382 256.365 216.437 255.113 215.938 252.702L207.866 253.127C208.636 258.788 213.454 262.277 221.291 262.277C228.958 262.277 234.445 258.367 234.465 252.532C234.445 248.257 231.653 245.691 225.915 244.516L220.562 243.438C217.806 242.843 216.785 241.898 216.806 240.472C216.785 238.701 218.787 237.546 221.332 237.546C224.181 237.546 225.875 239.106 226.28 241.011L233.793 240.549V240.549ZM239.632 261.698H247.838V232.116H239.632V261.698ZM243.753 228.299C246.201 228.299 248.203 226.431 248.203 224.141C248.203 221.868 246.201 220 243.753 220C241.326 220 239.324 221.868 239.324 224.141C239.324 226.431 241.326 228.299 243.753 228.299ZM270.146 232.116H264.578V225.025H256.376V232.116H252.332V238.276H256.376V253.687C256.335 259.481 260.286 262.354 266.235 262.103C267.747 262.058 269.245 261.798 270.685 261.333L269.396 255.226C268.991 255.303 268.124 255.498 267.354 255.498C265.716 255.498 264.578 254.882 264.578 252.609V238.276H270.146V232.116ZM275.491 261.698H283.696V232.116H275.491V261.698ZM279.612 228.299C282.059 228.299 284.061 226.431 284.061 224.141C284.061 221.868 282.059 220 279.612 220C277.184 220 275.183 221.868 275.183 224.141C275.183 226.431 277.184 228.299 279.612 228.299ZM303.634 262.277C312.609 262.277 318.193 256.13 318.193 247.021C318.193 237.854 312.609 231.727 303.634 231.727C294.658 231.727 289.074 237.854 289.074 247.021C289.074 256.13 294.658 262.277 303.634 262.277ZM303.674 255.919C299.533 255.919 297.413 252.126 297.413 246.964C297.413 241.801 299.533 237.988 303.674 237.988C307.739 237.988 309.854 241.801 309.854 246.964C309.854 252.126 307.739 255.919 303.674 255.919ZM331.736 244.593C331.756 240.78 334.026 238.547 337.34 238.547C340.635 238.547 342.616 240.703 342.596 244.326V261.698H350.802V242.863C350.802 235.966 346.758 231.727 340.594 231.727C336.202 231.727 333.025 233.887 331.696 237.336H331.351V232.116H323.53V261.698H331.736V244.593ZM368.474 229.13H380.55V261.698H388.792V229.13H400.872V222.253H368.474V229.13V229.13ZM402.979 261.698H411.185V244.962C411.185 241.319 413.843 238.819 417.462 238.819C418.601 238.819 420.161 239.009 420.931 239.26V231.978C420.083 231.792 419.218 231.695 418.349 231.691C415.035 231.691 412.32 233.616 411.242 237.275H410.934V232.116H402.979V261.698V261.698ZM432.759 262.257C437.132 262.257 439.964 260.348 441.407 257.597H441.638V261.698H449.422V241.744C449.422 234.694 443.449 231.727 436.864 231.727C429.777 231.727 425.113 235.119 423.978 240.513L431.568 241.129C432.123 239.163 433.878 237.721 436.824 237.721C439.616 237.721 441.216 239.127 441.216 241.55V241.668C441.216 243.576 439.194 243.823 434.052 244.326C428.196 244.865 422.937 246.83 422.937 253.435C422.937 259.291 427.119 262.257 432.759 262.257V262.257ZM435.11 256.596C432.585 256.596 430.778 255.421 430.778 253.168C430.778 250.854 432.682 249.719 435.572 249.314C437.363 249.063 440.292 248.641 441.273 247.985V251.126C441.273 254.226 438.712 256.596 435.11 256.596V256.596ZM469.153 262.277C477.03 262.277 481.978 257.654 482.363 250.854H474.623C474.141 254.015 472.062 255.786 469.25 255.786C465.417 255.786 462.933 252.568 462.933 246.907C462.933 241.319 465.437 238.122 469.25 238.122C472.253 238.122 474.178 240.107 474.623 243.053H482.363C482.019 236.217 476.836 231.727 469.112 231.727C460.14 231.727 454.593 237.952 454.593 247.021C454.593 256.017 460.043 262.277 469.153 262.277V262.277ZM487.619 261.698H495.825V252.301L498.037 249.776L506.109 261.698H515.717L504.181 244.921L515.162 232.116H505.741L496.267 243.345H495.825V222.253H487.619V261.698V261.698ZM519.186 261.698H527.392V232.116H519.186V261.698ZM523.307 228.299C525.755 228.299 527.757 226.431 527.757 224.141C527.757 221.868 525.755 220 523.307 220C520.88 220 518.878 221.868 518.878 224.141C518.878 226.431 520.88 228.299 523.307 228.299ZM542.167 244.593C542.187 240.78 544.46 238.547 547.771 238.547C551.065 238.547 553.051 240.703 553.031 244.326V261.698H561.237V242.863C561.237 235.966 557.192 231.727 551.029 231.727C546.636 231.727 543.459 233.887 542.13 237.336H541.782V232.116H533.965V261.698H542.167V244.593V244.593ZM581.032 273.409C589.485 273.409 595.495 269.555 595.495 261.986V232.116H587.349V237.084H587.042C585.943 234.677 583.536 231.727 578.584 231.727C572.093 231.727 566.606 236.776 566.606 246.85C566.606 256.689 571.939 261.276 578.605 261.276C583.322 261.276 585.96 258.906 587.042 256.458H587.386V261.872C587.386 265.937 584.784 267.513 581.222 267.513C577.604 267.513 575.772 265.937 575.099 264.145L567.51 265.167C568.49 269.827 573.057 273.409 581.032 273.409V273.409ZM581.202 255.113C577.178 255.113 574.982 251.916 574.982 246.81C574.982 241.785 577.142 238.26 581.202 238.26C585.19 238.26 587.427 241.631 587.427 246.81C587.427 252.029 585.153 255.113 581.202 255.113ZM144.116 311.525H139.059L150.215 342.521H155.616L166.768 311.525H161.715L153.088 336.77H152.739L144.116 311.525V311.525ZM170.881 342.521H175.407V319.277H170.881V342.521ZM173.167 315.686C174.727 315.686 176.027 314.479 176.027 312.996C176.027 311.513 174.727 310.285 173.167 310.285C171.594 310.285 170.306 311.513 170.306 312.996C170.306 314.479 171.594 315.686 173.167 315.686ZM198.911 324.95C197.975 321.331 195.142 318.973 190.117 318.973C184.87 318.973 181.146 321.74 181.146 325.858C181.146 329.156 183.143 331.352 187.499 332.321L191.434 333.184C193.675 333.683 194.721 334.679 194.721 336.134C194.721 337.933 192.796 339.339 189.834 339.339C187.123 339.339 185.384 338.176 184.837 335.891L180.465 336.556C181.223 340.673 184.643 342.987 189.862 342.987C195.474 342.987 199.365 340.008 199.365 335.802C199.365 332.515 197.278 330.489 193.011 329.505L189.319 328.658C186.758 328.054 185.656 327.191 185.672 325.614C185.656 323.831 187.593 322.559 190.166 322.559C192.978 322.559 194.279 324.119 194.81 325.675L198.911 324.95ZM204.341 342.521H208.867V319.277H204.341V342.521ZM206.626 315.686C208.186 315.686 209.487 314.479 209.487 312.996C209.487 311.513 208.186 310.285 206.626 310.285C205.05 310.285 203.765 311.513 203.765 312.996C203.765 314.479 205.05 315.686 206.626 315.686ZM215.314 342.521H219.735V338.902H220.112C220.931 340.385 222.596 342.974 226.831 342.974C232.464 342.974 236.548 338.464 236.548 330.943C236.548 323.406 232.403 318.973 226.786 318.973C222.475 318.973 220.915 321.607 220.112 323.041H219.841V311.525H215.314V342.521V342.521ZM219.751 330.899C219.751 326.04 221.867 322.814 225.818 322.814C229.919 322.814 231.977 326.283 231.977 330.899C231.977 335.559 229.858 339.113 225.818 339.113C221.928 339.113 219.751 335.786 219.751 330.899ZM241.63 342.521H246.152V319.277H241.63V342.521ZM243.915 315.686C245.471 315.686 246.772 314.479 246.772 312.996C246.772 311.513 245.471 310.285 243.915 310.285C242.339 310.285 241.054 311.513 241.054 312.996C241.054 314.479 242.339 315.686 243.915 315.686ZM256.765 311.525H252.239V342.521H256.765V311.525ZM262.851 342.521H267.378V319.277H262.851V342.521ZM265.137 315.686C266.697 315.686 267.998 314.479 267.998 312.996C267.998 311.513 266.697 310.285 265.137 310.285C263.565 310.285 262.276 311.513 262.276 312.996C262.276 314.479 263.565 315.686 265.137 315.686ZM284.316 319.277H279.547V313.705H275.025V319.277H271.617V322.908H275.025V336.633C275.008 340.855 278.23 342.897 281.804 342.82C283.243 342.808 284.211 342.533 284.738 342.338L283.923 338.598C283.619 338.659 283.06 338.796 282.331 338.796C280.864 338.796 279.547 338.31 279.547 335.692V322.908H284.316V319.277V319.277ZM292.182 351.237C295.918 351.237 298.281 349.284 299.626 345.621L309.234 319.321L304.347 319.277L298.459 337.313H298.22L292.332 319.277H287.489L295.995 342.82L295.436 344.364C294.285 347.452 292.664 347.711 290.184 347.031L289.094 350.734C289.637 350.978 290.82 351.237 292.182 351.237V351.237ZM980.226 342.521H984.902V332.88L988.565 328.674L998.582 342.521H1004.21L991.669 325.481L1004.17 311.525H998.278L985.283 326.328H984.902V311.525H980.226V342.521ZM1016.47 342.987C1021.54 342.987 1025.13 340.49 1026.16 336.71L1021.87 335.936C1021.06 338.132 1019.09 339.25 1016.52 339.25C1012.64 339.25 1010.04 336.738 1009.92 332.26H1026.45V330.655C1026.45 322.255 1021.42 318.973 1016.16 318.973C1009.68 318.973 1005.41 323.904 1005.41 331.048C1005.41 338.266 1009.62 342.987 1016.47 342.987ZM1009.94 328.868C1010.12 325.57 1012.51 322.709 1016.19 322.709C1019.7 322.709 1022 325.315 1022.01 328.868H1009.94V328.868ZM1033.62 351.237C1037.36 351.237 1039.72 349.284 1041.07 345.621L1050.67 319.321L1045.79 319.277L1039.9 337.313H1039.66L1033.77 319.277H1028.93L1037.43 342.82L1036.87 344.364C1035.72 347.452 1034.1 347.711 1031.62 347.031L1030.53 350.734C1031.08 350.978 1032.26 351.237 1033.62 351.237V351.237ZM1059.98 342.521H1064.58L1069.3 325.736H1069.65L1074.37 342.521H1078.98L1085.81 319.277H1081.14L1076.61 336.268H1076.38L1071.84 319.277H1067.17L1062.6 336.345H1062.37L1057.81 319.277H1053.14L1059.98 342.521V342.521ZM1099.19 342.987C1105.74 342.987 1110.02 338.193 1110.02 331.004C1110.02 323.771 1105.74 318.973 1099.19 318.973C1092.64 318.973 1088.35 323.771 1088.35 331.004C1088.35 338.193 1092.64 342.987 1099.19 342.987ZM1099.2 339.19C1094.92 339.19 1092.92 335.453 1092.92 330.988C1092.92 326.538 1094.92 322.753 1099.2 322.753C1103.46 322.753 1105.45 326.538 1105.45 330.988C1105.45 335.453 1103.46 339.19 1099.2 339.19ZM1115.07 342.521H1119.6V328.325C1119.6 325.282 1121.95 323.09 1125.15 323.09C1126.09 323.09 1127.15 323.256 1127.51 323.361V319.034C1126.88 318.965 1126.23 318.93 1125.59 318.928C1122.87 318.928 1120.54 320.472 1119.69 322.968H1119.45V319.277H1115.07V342.521V342.521ZM1139.3 342.974C1143.54 342.974 1145.2 340.385 1146.02 338.902H1146.4V342.521H1150.81V311.525H1146.29V323.041H1146.02C1145.2 321.607 1143.66 318.973 1139.33 318.973C1133.71 318.973 1129.58 323.406 1129.58 330.943C1129.58 338.464 1133.65 342.974 1139.3 342.974V342.974ZM1140.3 339.113C1136.25 339.113 1134.15 335.559 1134.15 330.899C1134.15 326.283 1136.21 322.814 1140.3 322.814C1144.25 322.814 1146.36 326.04 1146.36 330.899C1146.36 335.786 1144.2 339.113 1140.3 339.113ZM1174.69 324.95C1173.75 321.331 1170.92 318.973 1165.9 318.973C1160.64 318.973 1156.92 321.74 1156.92 325.858C1156.92 329.156 1158.92 331.352 1163.28 332.321L1167.21 333.184C1169.45 333.683 1170.5 334.679 1170.5 336.134C1170.5 337.933 1168.58 339.339 1165.61 339.339C1162.9 339.339 1161.16 338.176 1160.62 335.891L1156.24 336.556C1157 340.673 1160.42 342.987 1165.64 342.987C1171.25 342.987 1175.14 340.008 1175.14 335.802C1175.14 332.515 1173.06 330.489 1168.79 329.505L1165.09 328.658C1162.54 328.054 1161.44 327.191 1161.45 325.614C1161.44 323.831 1163.37 322.559 1165.95 322.559C1168.76 322.559 1170.06 324.119 1170.59 325.675L1174.69 324.95V324.95Z" fill="#1C1C1E"/>
<path d="M163.533 468.611C176.164 468.59 185.233 461.823 185.245 452.746C185.209 445.748 179.815 440.042 173.085 438.928V438.547C178.936 437.335 183.11 432.27 183.13 426.119C183.09 417.451 174.766 411.064 163.448 411.085C152.102 411.101 143.799 417.512 143.839 426.175C143.819 432.302 147.956 437.38 153.917 438.575L153.921 438.956C147.085 440.091 141.764 445.813 141.801 452.811C141.785 461.888 150.902 468.627 163.533 468.611V468.611ZM163.521 459.915C157.888 459.923 154.112 456.592 154.104 451.863C154.096 447.024 158.055 443.519 163.497 443.511C168.911 443.503 172.906 446.996 172.914 451.834C172.922 456.592 169.125 459.906 163.521 459.915ZM163.485 434.896C158.752 434.904 155.384 431.82 155.38 427.391C155.372 423.015 158.675 420.004 163.46 419.996C168.218 419.988 171.557 423.019 171.565 427.367C171.573 431.796 168.185 434.892 163.485 434.896V434.896ZM198.885 468.501C200.619 468.476 202.274 467.775 203.498 466.547C204.722 465.319 205.418 463.662 205.438 461.929C205.405 458.346 202.366 455.429 198.865 455.433C195.259 455.437 192.28 458.367 192.313 461.949C192.312 462.811 192.482 463.665 192.812 464.462C193.143 465.258 193.627 465.982 194.238 466.591C194.848 467.199 195.573 467.682 196.371 468.009C197.169 468.337 198.023 468.505 198.885 468.501V468.501ZM234.023 410.979C221.501 410.943 213.064 419.157 213.133 430.422C213.178 440.865 220.435 448.426 230.359 448.414C236.511 448.406 241.977 445.416 244.457 440.492H244.838C244.826 451.591 240.984 458.35 233.682 458.363C229.391 458.367 226.299 456.02 225.387 451.948L213.713 451.964C214.823 461.398 222.49 468.522 233.698 468.505C247.561 468.485 256.484 457.26 256.428 438.259C256.371 417.969 245.531 411.016 234.023 410.979ZM234.12 420.275C239.558 420.267 243.586 424.688 243.647 430.021C243.683 435.378 239.453 439.815 234.039 439.823C228.568 439.831 224.654 435.573 224.617 430.078C224.557 424.607 228.621 420.283 234.12 420.275ZM286.167 468.424C298.632 468.461 307.126 460.275 307.081 448.872C307.093 438.373 299.755 430.811 289.827 430.827C283.675 430.835 278.241 433.798 275.733 438.75H275.348C275.388 427.841 279.205 421.053 286.504 421.041C290.799 421.037 293.891 423.383 294.799 427.294L306.473 427.274C305.339 418.063 297.672 410.882 286.491 410.898C272.657 410.918 263.787 422.143 263.758 440.954C263.762 461.459 274.655 468.388 286.167 468.424V468.424ZM286.098 459.128C280.628 459.137 276.576 454.744 276.567 449.273C276.588 443.835 280.709 439.398 286.151 439.39C291.618 439.382 295.617 443.669 295.597 449.217C295.633 454.825 291.565 459.12 286.098 459.128ZM346.137 457.074C346.173 463.797 350.473 469.506 358.484 469.494C366.414 469.482 370.835 463.76 370.799 457.033L370.795 454.083C370.811 447.3 366.483 441.647 358.444 441.659C350.542 441.671 346.149 447.393 346.133 454.12L346.137 457.074V457.074ZM317.354 425.069C317.39 431.796 321.69 437.449 329.677 437.437C337.631 437.424 342.052 431.816 342.016 425.033L342.012 422.083C342.028 415.299 337.7 409.646 329.632 409.658C321.815 409.67 317.366 415.336 317.35 422.119L317.354 425.069V425.069ZM320.097 467.61L327.233 467.598L365.645 411.547L358.509 411.559L320.097 467.61ZM354.087 454.108C354.112 451.429 355.173 448.665 358.456 448.661C361.9 448.653 362.804 451.417 362.784 454.095L362.788 457.046C362.82 459.728 361.811 462.435 358.476 462.439C355.141 462.443 354.124 459.659 354.091 457.062L354.087 454.108V454.108ZM325.361 422.107C325.381 419.509 326.39 416.665 329.644 416.661C333.089 416.653 334.021 419.412 334 422.095L334.004 425.045C334.033 427.727 332.999 430.434 329.664 430.438C326.439 430.442 325.393 427.74 325.365 425.061L325.361 422.107V422.107Z" fill="#0A84FF"/>
<path d="M161.698 636.885L138 667.277V973.224H887.671V614.597L868.285 604.467L840.279 551.787L812.274 685.512L784.269 604.467L756.263 636.885L732.566 685.512L706.716 614.597L683.019 675.381L655.013 657.146L631.32 740.218L603.315 705.774L577.461 760.479L553.767 685.512L525.762 657.146L502.064 667.277L474.059 604.467L448.21 657.146L396.507 614.597L370.657 699.695L344.804 596.362L321.11 626.754H288.797L241.402 604.467L215.552 713.878L187.547 685.512L161.698 636.885V636.885Z" fill="#84BFFF"/>
<path d="M138 667.277L161.698 636.885L187.547 685.512L215.552 713.878L241.402 604.467L288.797 626.754H321.11L344.804 596.362L370.657 699.695L396.507 614.597L448.21 657.146L474.059 604.467L502.064 667.277L525.762 657.146L553.767 685.512L577.461 760.479L603.315 705.774L631.32 740.218L655.013 657.146L683.019 675.381L706.716 614.597L732.566 685.512L756.263 636.885L784.269 604.467L812.274 685.512L840.279 551.787L868.285 604.467L887.671 614.597" stroke="#0A84FF"/>
<path d="M978.07 428.48H984.497V446.431H987.601V428.48H994.036V425.801H978.07V428.48V428.48ZM1001.6 446.743C1005.96 446.743 1008.81 443.55 1008.81 438.765C1008.81 433.95 1005.96 430.757 1001.6 430.757C997.234 430.757 994.385 433.95 994.385 438.765C994.385 443.55 997.234 446.743 1001.6 446.743ZM1001.61 444.215C998.757 444.215 997.428 441.727 997.428 438.756C997.428 435.794 998.757 433.278 1001.61 433.278C1004.44 433.278 1005.77 435.794 1005.77 438.756C1005.77 441.727 1004.44 444.215 1001.61 444.215ZM1012.17 452.234H1015.19V444.024H1015.36C1015.91 445.013 1017.02 446.735 1019.84 446.735C1023.59 446.735 1026.3 443.733 1026.3 438.724C1026.3 433.707 1023.54 430.757 1019.81 430.757C1016.94 430.757 1015.9 432.512 1015.36 433.468H1015.11V430.96H1012.17V452.234V452.234ZM1015.12 438.696C1015.12 435.462 1016.53 433.314 1019.16 433.314C1021.89 433.314 1023.26 435.624 1023.26 438.696C1023.26 441.8 1021.85 444.166 1019.16 444.166C1016.57 444.166 1015.12 441.95 1015.12 438.696ZM1044.33 446.715C1048.54 446.715 1051.63 444.195 1051.62 440.77C1051.63 438.161 1050.05 436.289 1047.31 435.863V435.705C1049.46 435.15 1050.87 433.456 1050.85 431.142C1050.87 428.107 1048.38 425.518 1044.41 425.518C1040.62 425.518 1037.58 427.807 1037.48 431.162H1040.49C1040.56 429.266 1042.34 428.119 1044.37 428.119C1046.47 428.119 1047.85 429.4 1047.84 431.3C1047.85 433.298 1046.25 434.607 1043.96 434.607H1042.22V437.144H1043.96C1046.83 437.144 1048.48 438.594 1048.48 440.669C1048.48 442.675 1046.74 444.032 1044.31 444.032C1042.07 444.032 1040.33 442.886 1040.21 441.054H1037.04C1037.18 444.417 1040.16 446.715 1044.33 446.715Z" fill="#1C1C1E"/>
<path d="M986.886 462.637L976.82 472.767V529.499H1301V501.133H1288.92L1268.79 486.95L1258.72 521.395L1244.62 482.898L1224.49 509.238L1214.42 501.133L1198.31 513.29H1180.19L1172.14 517.342L1149.99 486.95H1137.91L1127.84 497.081H1115.76L1105.69 480.872L1095.62 493.029L1085.55 480.872L1075.49 501.133L1051.32 462.637L1035.21 480.872L1021.12 472.767L1009.04 462.637L998.97 472.767L986.886 462.637V462.637Z" fill="#FF6961"/>
<path d="M976.82 472.767L986.886 462.637L998.97 472.767L1009.04 462.637L1021.12 472.767L1035.21 480.872L1051.32 462.637L1075.49 501.133L1085.55 480.872L1095.62 493.029L1105.69 480.872L1115.76 497.081H1127.84L1137.91 486.95H1149.99L1172.14 517.342L1180.19 513.29H1198.31L1214.42 501.133L1224.49 509.238L1244.62 482.898L1258.72 521.395L1268.79 486.95L1288.92 501.133H1301" stroke="#FF453A"/>
<path d="M978.07 578.415H984.497V596.367H987.601V578.415H994.036V575.737H978.07V578.415V578.415ZM1001.6 596.679C1005.96 596.679 1008.81 593.486 1008.81 588.7C1008.81 583.886 1005.96 580.693 1001.6 580.693C997.234 580.693 994.385 583.886 994.385 588.7C994.385 593.486 997.234 596.679 1001.6 596.679ZM1001.61 594.15C998.757 594.15 997.428 591.662 997.428 588.692C997.428 585.73 998.757 583.213 1001.61 583.213C1004.44 583.213 1005.77 585.73 1005.77 588.692C1005.77 591.662 1004.44 594.15 1001.61 594.15ZM1012.17 602.17H1015.19V593.96H1015.36C1015.91 594.949 1017.02 596.671 1019.84 596.671C1023.59 596.671 1026.3 593.668 1026.3 588.659C1026.3 583.643 1023.54 580.693 1019.81 580.693C1016.94 580.693 1015.9 582.447 1015.36 583.404H1015.11V580.895H1012.17V602.17V602.17ZM1015.12 588.631C1015.12 585.397 1016.53 583.25 1019.16 583.25C1021.89 583.25 1023.26 585.56 1023.26 588.631C1023.26 591.735 1021.85 594.102 1019.16 594.102C1016.57 594.102 1015.12 591.885 1015.12 588.631ZM1044.97 575.737H1041.94L1036.79 579.1V582.083L1041.73 578.861H1041.85V596.367H1044.97V575.737V575.737ZM1057.73 596.711C1062.5 596.711 1065.29 592.821 1065.29 586.062C1065.29 579.351 1062.46 575.453 1057.73 575.453C1053 575.453 1050.18 579.343 1050.17 586.062C1050.17 592.813 1052.96 596.699 1057.73 596.711ZM1057.73 594.021C1054.95 594.021 1053.26 591.221 1053.26 586.062C1053.27 580.924 1054.95 578.095 1057.73 578.095C1060.51 578.095 1062.2 580.924 1062.2 586.062C1062.2 591.221 1060.51 594.021 1057.73 594.021Z" fill="#1C1C1E"/>
<path d="M986.031 642.044L976.82 659.724V677.409H1301V612.572L1277.06 622.395L1269.69 616.503L1254.95 636.148L1245.75 630.256L1236.53 636.148L1223.64 622.395L1214.43 630.256L1201.54 616.503L1192.33 622.395L1179.43 661.69L1170.22 653.833H1153.65L1140.75 642.044L1126.02 649.902L1116.81 638.114L1107.6 653.833L1094.71 642.044L1063.39 649.902L1050.5 661.69L1041.29 659.724L1028.39 665.621L1008.13 661.69L1000.77 642.044H986.031V642.044Z" fill="#30DB5B"/>
<path d="M976.82 659.724L986.031 642.044H1000.77L1008.13 661.69L1028.39 665.621L1041.29 659.724L1050.5 661.69L1063.39 649.902L1094.71 642.044L1107.6 653.833L1116.81 638.114L1126.02 649.902L1140.75 642.044L1153.65 653.833H1170.22L1179.43 661.69L1192.33 622.395L1201.54 616.503L1214.43 630.256L1223.64 622.395L1236.53 636.148L1245.75 630.256L1254.95 636.148L1269.69 616.503L1277.06 622.395L1301 612.572" stroke="#32D74B"/>
<path d="M978.07 724.296H984.497V742.248H987.601V724.296H994.036V721.618H978.07V724.296V724.296ZM1001.6 742.56C1005.96 742.56 1008.81 739.367 1008.81 734.581C1008.81 729.767 1005.96 726.574 1001.6 726.574C997.234 726.574 994.385 729.767 994.385 734.581C994.385 739.367 997.234 742.56 1001.6 742.56ZM1001.61 740.031C998.757 740.031 997.428 737.543 997.428 734.573C997.428 731.611 998.757 729.094 1001.61 729.094C1004.44 729.094 1005.77 731.611 1005.77 734.573C1005.77 737.543 1004.44 740.031 1001.61 740.031ZM1012.17 748.051H1015.19V739.841H1015.36C1015.91 740.83 1017.02 742.552 1019.84 742.552C1023.59 742.552 1026.3 739.549 1026.3 734.54C1026.3 729.524 1023.54 726.574 1019.81 726.574C1016.94 726.574 1015.9 728.328 1015.36 729.285H1015.11V726.776H1012.17V748.051V748.051ZM1015.12 734.512C1015.12 731.278 1016.53 729.131 1019.16 729.131C1021.89 729.131 1023.26 731.44 1023.26 734.512C1023.26 737.616 1021.85 739.983 1019.16 739.983C1016.57 739.983 1015.12 737.766 1015.12 734.512ZM1037.14 742.248H1050.72V739.577H1041.44V739.427L1045.54 735.136C1049.31 731.319 1050.39 729.495 1050.39 727.19C1050.39 723.875 1047.69 721.334 1043.8 721.334C1039.94 721.334 1037.12 723.834 1037.12 727.603H1040.1C1040.09 725.386 1041.52 723.936 1043.74 723.936C1045.84 723.936 1047.43 725.224 1047.43 727.279C1047.43 729.102 1046.34 730.411 1044.13 732.757L1037.14 739.991V742.248V742.248ZM1061.73 742.592C1066.49 742.592 1069.28 738.702 1069.28 731.943C1069.28 725.232 1066.45 721.334 1061.73 721.334C1056.99 721.334 1054.17 725.224 1054.16 731.943C1054.16 738.694 1056.95 742.58 1061.73 742.592ZM1061.73 739.902C1058.93 739.902 1057.25 737.101 1057.25 731.943C1057.26 726.805 1058.94 723.976 1061.73 723.976C1064.49 723.976 1066.19 726.805 1066.19 731.943C1066.19 737.101 1064.51 739.902 1061.73 739.902Z" fill="#1C1C1E"/>
<path d="M988.9 786.821L976.82 790.873V823.291H1301V762.507L1288.92 754.402L1280.87 762.507H1266.77L1246.64 782.768L1224.49 776.69L1208.38 782.768H1190.26L1182.2 796.951L1160.05 794.925L1149.99 796.951L1137.91 786.821L1127.84 801.003L1117.77 796.951L1103.67 794.925L1091.59 803.03L1083.54 801.003L1073.47 809.108L1063.4 801.003L1053.34 807.082L1041.26 803.03L1029.17 813.16L1019.11 807.082L1009.04 809.108L998.97 794.925L988.9 786.821V786.821Z" fill="#30DB5B"/>
<path d="M976.82 790.873L988.9 786.821L998.97 794.925L1009.04 809.108L1019.11 807.082L1029.17 813.16L1041.26 803.03L1053.34 807.082L1063.4 801.003L1073.47 809.108L1083.54 801.003L1091.59 803.03L1103.67 794.925L1117.77 796.951L1127.84 801.003L1137.91 786.821L1149.99 796.951L1160.05 794.925L1182.2 796.951L1190.26 782.768H1208.38L1224.49 776.69L1246.64 782.768L1266.77 762.507H1280.87L1288.92 754.402L1301 762.507" stroke="#32D74B"/>
<path d="M978.07 870.177H984.497V888.129H987.601V870.177H994.036V867.499H978.07V870.177V870.177ZM1001.6 888.441C1005.96 888.441 1008.81 885.248 1008.81 880.462C1008.81 875.648 1005.96 872.454 1001.6 872.454C997.234 872.454 994.385 875.648 994.385 880.462C994.385 885.248 997.234 888.441 1001.6 888.441ZM1001.61 885.912C998.757 885.912 997.428 883.424 997.428 880.454C997.428 877.491 998.757 874.975 1001.61 874.975C1004.44 874.975 1005.77 877.491 1005.77 880.454C1005.77 883.424 1004.44 885.912 1001.61 885.912ZM1012.17 893.932H1015.19V885.722H1015.36C1015.91 886.71 1017.02 888.433 1019.84 888.433C1023.59 888.433 1026.3 885.43 1026.3 880.421C1026.3 875.404 1023.54 872.454 1019.81 872.454C1016.94 872.454 1015.9 874.209 1015.36 875.165H1015.11V872.657H1012.17V893.932V893.932ZM1015.12 880.393C1015.12 877.159 1016.53 875.011 1019.16 875.011C1021.89 875.011 1023.26 877.321 1023.26 880.393C1023.26 883.497 1021.85 885.863 1019.16 885.863C1016.57 885.863 1015.12 883.647 1015.12 880.393ZM1044.97 867.499H1041.94L1036.79 870.862V873.844L1041.73 870.623H1041.85V888.129H1044.97V867.499V867.499ZM1057.73 888.473C1062.5 888.473 1065.29 884.583 1065.29 877.824C1065.29 871.113 1062.46 867.215 1057.73 867.215C1053 867.215 1050.18 871.105 1050.17 877.824C1050.17 884.575 1052.96 888.461 1057.73 888.473ZM1057.73 885.782C1054.95 885.782 1053.26 882.982 1053.26 877.824C1053.27 872.685 1054.95 869.857 1057.73 869.857C1060.51 869.857 1062.2 872.685 1062.2 877.824C1062.2 882.982 1060.51 885.782 1057.73 885.782ZM1076.05 888.473C1080.81 888.473 1083.6 884.583 1083.6 877.824C1083.6 871.113 1080.77 867.215 1076.05 867.215C1071.31 867.215 1068.49 871.105 1068.48 877.824C1068.48 884.575 1071.27 888.461 1076.05 888.473ZM1076.05 885.782C1073.25 885.782 1071.57 882.982 1071.57 877.824C1071.58 872.685 1073.27 869.857 1076.05 869.857C1078.81 869.857 1080.51 872.685 1080.51 877.824C1080.51 882.982 1078.83 885.782 1076.05 885.782Z" fill="#1C1C1E"/>
<path d="M986.084 955.417L976.82 951.486V969.17H1301V904.334L1278.77 933.806L1267.66 912.191H1256.54L1236.17 937.733H1223.2L1191.71 910.23L1167.63 949.525L1147.25 941.664L1125.02 949.525L1104.64 933.806L1095.38 937.733L1084.26 920.053L1071.3 959.348L1062.04 949.525L1036.1 959.348L1017.57 949.525L1006.46 955.417L997.199 941.664L986.084 955.417V955.417Z" fill="#30DB5B"/>
<path d="M976.82 951.486L986.084 955.417L997.199 941.664L1006.46 955.417L1017.57 949.525L1036.1 959.348L1062.04 949.525L1071.3 959.348L1084.26 920.053L1095.38 937.733L1104.64 933.806L1125.02 949.525L1147.25 941.664L1167.63 949.525L1191.71 910.23L1223.2 937.733H1236.17L1256.54 912.191H1267.66L1278.77 933.806L1301 904.334" stroke="#32D74B"/>
<rect opacity="0.05" x="104" y="184" width="1250" height="806" fill="white"/>
<defs>
<radialGradient id="paint0_radial_739_3718" cx="0" cy="0" r="1" gradientUnits="userSpaceOnUse" gradientTransform="translate(77.5938 52.9607) scale(18.6759 18.1286)">
<stop offset="0.51"/>
<stop offset="0.52" stop-color="#0A0A0A"/>
<stop offset="0.58" stop-color="#4A4A4A"/>
<stop offset="0.65" stop-color="#818181"/>
<stop offset="0.71" stop-color="#AEAEAE"/>
<stop offset="0.77" stop-color="#D1D1D1"/>
<stop offset="0.82" stop-color="#EAEAEA"/>
<stop offset="0.87" stop-color="#FAFAFA"/>
<stop offset="0.91" stop-color="white"/>
</radialGradient>
<radialGradient id="paint1_radial_739_3718" cx="0" cy="0" r="1" gradientUnits="userSpaceOnUse" gradientTransform="translate(142.668 52.9607) scale(18.6759 18.1286)">
<stop offset="0.51"/>
<stop offset="0.52" stop-color="#0A0A0A"/>
<stop offset="0.58" stop-color="#4A4A4A"/>
<stop offset="0.65" stop-color="#818181"/>
<stop offset="0.71" stop-color="#AEAEAE"/>
<stop offset="0.77" stop-color="#D1D1D1"/>
<stop offset="0.82" stop-color="#EAEAEA"/>
<stop offset="0.87" stop-color="#FAFAFA"/>
<stop offset="0.91" stop-color="white"/>
</radialGradient>
<radialGradient id="paint2_radial_739_3718" cx="0" cy="0" r="1" gradientUnits="userSpaceOnUse" gradientTransform="translate(207.746 52.9607) scale(18.6758 18.1286)">
<stop offset="0.51"/>
<stop offset="0.52" stop-color="#0A0A0A"/>
<stop offset="0.58" stop-color="#4A4A4A"/>
<stop offset="0.65" stop-color="#818181"/>
<stop offset="0.71" stop-color="#AEAEAE"/>
<stop offset="0.77" stop-color="#D1D1D1"/>
<stop offset="0.82" stop-color="#EAEAEA"/>
<stop offset="0.87" stop-color="#FAFAFA"/>
<stop offset="0.91" stop-color="white"/>
</radialGradient>
</defs>
</svg>
