<svg width="1440" height="1024" viewBox="0 0 1440 1024" fill="none" xmlns="http://www.w3.org/2000/svg">
<path d="M58.6978 2.5H61.1978H1396.27C1401.69 2.5 1407.06 3.53616 1412.06 5.54761C1417.06 7.55901 1421.6 10.5053 1425.42 14.2147C1429.24 17.924 1432.27 22.3235 1434.34 27.1601C1436.4 31.9964 1437.46 37.1773 1437.46 42.4075V985.327C1437.46 994.896 1433.55 1004.09 1426.55 1010.88C1419.55 1017.67 1410.05 1021.5 1400.12 1021.5H56.6991C49.5714 1021.5 42.5152 1020.14 35.9339 1017.49C29.3527 1014.84 23.3777 1010.97 18.3481 1006.09C13.3186 1001.2 9.33308 995.412 6.61536 989.043C3.89772 982.674 2.5 975.851 2.5 968.962V56.9779C2.5 42.5539 8.40219 28.705 18.9335 18.4823C29.4673 8.25714 43.7696 2.5 58.6978 2.5Z" fill="white" stroke="#DEDEDF" stroke-width="5"/>
<path d="M1394.2 0H58.1211C42.7064 0 27.9231 5.94404 17.0233 16.5245C6.12346 27.1049 0 41.4551 0 56.4181L0 185.727C0 182.544 1.3026 179.491 3.62123 177.24C5.93987 174.99 9.08462 173.725 12.3637 173.725H1439.96V44.4167C1439.96 38.5838 1438.78 32.8081 1436.48 27.4192C1434.18 22.0303 1430.81 17.1338 1426.56 13.0094C1422.31 8.88488 1417.27 5.61317 1411.71 3.38102C1406.16 1.14887 1400.21 0 1394.2 0V0Z" fill="#ECECEC"/>
<path d="M6.27269 971.47V63.8719C6.27269 49.9401 11.9741 36.5788 22.1228 26.7275C32.2715 16.8762 46.036 11.3418 60.3884 11.3418H54.1157C39.7634 11.3418 25.9988 16.8762 15.8501 26.7275C5.70146 36.5788 0 49.9401 0 63.8719L0 971.47C0 985.402 5.70146 998.763 15.8501 1008.61C25.9988 1018.47 39.7634 1024 54.1157 1024H60.3884C46.036 1024 32.2715 1018.47 22.1228 1008.61C11.9741 998.763 6.27269 985.402 6.27269 971.47V971.47Z" fill="#DEDEDF"/>
<path d="M1399.59 1.87613e-05H55.4721C47.5276 -0.00402769 39.6754 1.65356 32.4502 4.85996C25.2249 8.06635 18.7961 12.7463 13.6016 18.5811C23.6759 10.0693 36.5861 5.38886 49.9421 5.4064H1394.07C1404.77 5.4064 1415.04 9.53418 1422.61 16.8817C1430.18 24.2292 1434.43 34.1945 1434.43 44.5854V990.22C1434.44 999.294 1431.2 1008.09 1425.26 1015.1C1429.87 1011.42 1433.58 1006.8 1436.13 1001.57C1438.68 996.332 1440 990.612 1440 984.821V39.1791C1440 34.0304 1438.95 28.9324 1436.92 24.1764C1434.89 19.4205 1431.91 15.0998 1428.16 11.4613C1424.4 7.82275 1419.95 4.93777 1415.05 2.97118C1410.15 1.0046 1404.89 -0.00501916 1399.59 1.87613e-05V1.87613e-05Z" fill="#DEDEDF"/>
<path d="M1399.59 0H55.4746C40.7618 0 26.6516 5.67337 16.2481 15.772C5.84462 25.8707 0 39.5675 0 53.8491L0 94.5466H1439.96V39.179C1439.96 28.7874 1435.7 18.8221 1428.13 11.4748C1420.56 4.12753 1410.3 -1.98981e-07 1399.59 0V0Z" fill="#1C1C1E"/>
<path style="mix-blend-mode:multiply" d="M77.5938 71.0893C87.9082 71.0893 96.2697 62.9728 96.2697 52.9607C96.2697 42.9485 87.9082 34.832 77.5938 34.832C67.2794 34.832 58.918 42.9485 58.918 52.9607C58.918 62.9728 67.2794 71.0893 77.5938 71.0893Z" fill="url(#paint0_radial_739_3422)" fill-opacity="0.5"/>
<path d="M89.0819 52.8678C91.1464 45.4817 86.6516 37.8695 79.0426 35.8655C71.4336 33.8615 63.5916 38.2246 61.5271 45.6107C59.4627 52.9968 63.9574 60.6089 71.5665 62.6129C79.1755 64.6169 87.0174 60.2538 89.0819 52.8678Z" fill="#FF453A"/>
<path opacity="0.1" d="M87.8101 42.5684C89.3223 45.8273 89.4788 49.5275 88.2468 52.8958C87.0148 56.2642 84.4896 59.0401 81.1988 60.6438C77.908 62.2474 74.1061 62.5547 70.5874 61.5014C67.0686 60.4481 64.1053 58.1157 62.3164 54.9915C63.1071 56.6954 64.2446 58.2265 65.6606 59.4926C67.0767 60.7587 68.7419 61.7337 70.5561 62.359C72.3703 62.9842 74.2961 63.2468 76.2176 63.1309C78.1391 63.0151 80.0166 62.5231 81.7371 61.6847C83.4577 60.8462 84.9858 59.6787 86.2294 58.2521C87.4731 56.8256 88.4067 55.1697 88.974 53.3839C89.5413 51.5981 89.7306 49.7193 89.5306 47.8607C89.3306 46.002 88.7453 44.2018 87.8101 42.5684Z" fill="#1C1C1E"/>
<path style="mix-blend-mode:multiply" d="M142.668 71.0893C152.982 71.0893 161.344 62.9728 161.344 52.9607C161.344 42.9485 152.982 34.832 142.668 34.832C132.354 34.832 123.992 42.9485 123.992 52.9607C123.992 62.9728 132.354 71.0893 142.668 71.0893Z" fill="url(#paint1_radial_739_3422)" fill-opacity="0.5"/>
<path d="M154.16 52.8717C156.225 45.4856 151.73 37.8734 144.121 35.8694C136.512 33.8654 128.67 38.2285 126.605 45.6146C124.541 53.0007 129.036 60.6128 136.645 62.6168C144.254 64.6208 152.096 60.2577 154.16 52.8717Z" fill="#FDBE43"/>
<path opacity="0.1" d="M152.892 42.5684C154.404 45.8273 154.561 49.5275 153.329 52.8958C152.097 56.2642 149.572 59.0401 146.281 60.6438C142.99 62.2474 139.188 62.5547 135.669 61.5014C132.151 60.4481 129.187 58.1157 127.398 54.9915C128.189 56.6954 129.327 58.2265 130.743 59.4926C132.159 60.7587 133.824 61.7337 135.638 62.359C137.452 62.9842 139.378 63.2468 141.3 63.1309C143.221 63.0151 145.099 62.5231 146.819 61.6847C148.54 60.8462 150.068 59.6787 151.311 58.2521C152.555 56.8256 153.489 55.1697 154.056 53.3839C154.623 51.5981 154.813 49.7193 154.613 47.8607C154.413 46.002 153.827 44.2018 152.892 42.5684V42.5684Z" fill="#1C1C1E"/>
<path style="mix-blend-mode:multiply" d="M207.746 71.0893C218.061 71.0893 226.422 62.9728 226.422 52.9607C226.422 42.9485 218.061 34.832 207.746 34.832C197.432 34.832 189.07 42.9485 189.07 52.9607C189.07 62.9728 197.432 71.0893 207.746 71.0893Z" fill="url(#paint2_radial_739_3422)" fill-opacity="0.5"/>
<path d="M219.246 52.8736C221.31 45.4875 216.816 37.8753 209.207 35.8713C201.598 33.8674 193.756 38.2304 191.691 45.6165C189.627 53.0026 194.121 60.6148 201.731 62.6188C209.34 64.6228 217.182 60.2597 219.246 52.8736Z" fill="#32D74B"/>
<path opacity="0.1" d="M217.97 42.5684C219.51 45.832 219.685 49.5483 218.458 52.9346C217.232 56.321 214.699 59.1132 211.394 60.7233C208.089 62.3334 204.269 62.6357 200.739 61.5666C197.209 60.4975 194.244 58.1403 192.469 54.9915C193.267 56.6839 194.409 58.2027 195.825 59.4574C197.241 60.7121 198.904 61.677 200.713 62.2944C202.522 62.9118 204.44 63.1691 206.354 63.0509C208.268 62.9328 210.137 62.4416 211.851 61.6067C213.565 60.7718 215.088 59.6103 216.329 58.1915C217.57 56.7727 218.504 55.1258 219.075 53.3489C219.647 51.572 219.843 49.7016 219.653 47.8494C219.463 45.9972 218.891 44.2011 217.97 42.5684V42.5684Z" fill="#1C1C1E"/>
<path d="M96.2706 125.805H58.1289V130.782H96.2706V125.805Z" fill="#878C97"/>
<path d="M96.2706 138.719H58.1289V143.696H96.2706V138.719Z" fill="#878C97"/>
<path d="M96.2706 151.633H58.1289V156.61H96.2706V151.633Z" fill="#878C97"/>
<path d="M236.449 232.977C236.449 222.799 230.131 217 221.883 217C213.592 217 207.32 222.802 207.32 232.977C207.32 243.107 213.592 248.954 221.883 248.954C230.131 248.954 236.449 243.152 236.449 232.977ZM229.78 232.977C229.78 239.569 226.652 243.135 221.883 243.135C217.099 243.135 213.985 239.569 213.985 232.977C213.985 226.385 217.102 222.816 221.883 222.816C226.652 222.816 229.78 226.385 229.78 232.977ZM247.667 235.041C247.682 232.036 249.475 230.274 252.086 230.274C254.681 230.274 256.249 231.973 256.232 234.83V248.527H262.704V233.673C262.704 228.239 259.511 224.897 254.652 224.897C251.191 224.897 248.685 226.599 247.639 229.316H247.362V225.2H241.198V248.527H247.667V235.041ZM277.82 248.527H284.394V238.445H289.925C297.076 238.445 301.238 234.18 301.238 227.968C301.238 221.787 297.153 217.428 290.091 217.428H277.82V248.532V248.527ZM284.394 233.174V222.802H288.83C292.628 222.802 294.464 224.866 294.464 227.965C294.464 231.047 292.628 233.174 288.859 233.174H284.394ZM311.414 248.969C314.86 248.969 317.093 247.466 318.23 245.291H318.413V248.527H324.548V232.795C324.548 227.235 319.841 224.897 314.647 224.897C309.058 224.897 305.381 227.572 304.488 231.822L310.47 232.307C310.912 230.759 312.295 229.622 314.618 229.622C316.819 229.622 318.079 230.728 318.079 232.643V232.735C318.079 234.237 316.483 234.434 312.431 234.83C307.813 235.255 303.667 236.803 303.667 242.015C303.667 246.631 306.963 248.969 311.414 248.969ZM313.267 244.504C311.277 244.504 309.848 243.577 309.848 241.801C309.848 239.977 311.351 239.081 313.629 238.762C315.043 238.565 317.349 238.232 318.125 237.716V240.19C318.125 242.637 316.106 244.504 313.264 244.504H313.267ZM340.078 257.761C346.743 257.761 351.482 254.725 351.482 248.755V225.2H345.061V229.12H344.819C343.952 227.221 342.054 224.897 338.15 224.897C333.033 224.897 328.705 228.877 328.705 236.818C328.705 244.578 332.913 248.193 338.167 248.193C341.888 248.193 343.967 246.326 344.819 244.398H345.093V248.663C345.093 251.868 343.04 253.114 340.232 253.114C337.378 253.114 335.935 251.868 335.402 250.457L329.418 251.261C330.193 254.939 333.791 257.761 340.081 257.761H340.078ZM340.214 243.335C337.039 243.335 335.311 240.812 335.311 236.789C335.311 232.826 337.01 230.046 340.214 230.046C343.356 230.046 345.118 232.703 345.118 236.789C345.118 240.903 343.328 243.335 340.214 243.335ZM367.262 248.983C373.033 248.983 376.919 246.174 377.831 241.847L371.847 241.45C371.194 243.226 369.523 244.153 367.368 244.153C364.132 244.153 362.082 242.015 362.082 238.537V238.519H377.968V236.743C377.968 228.817 373.17 224.897 367.003 224.897C360.138 224.897 355.69 229.772 355.69 236.971C355.69 244.367 360.078 248.983 367.262 248.983ZM362.082 234.511C362.219 231.854 364.24 229.727 367.108 229.727C369.919 229.727 371.864 231.731 371.878 234.511H362.082ZM409.081 226.371H415.386C415.295 220.826 410.738 217 403.813 217C396.993 217 391.995 220.766 392.026 226.417C392.012 231.001 395.245 233.63 400.499 234.89L403.886 235.74C407.274 236.561 409.158 237.533 409.172 239.628C409.158 241.906 406.999 243.455 403.658 243.455C400.245 243.455 397.782 241.875 397.569 238.762H391.205C391.374 245.49 396.189 248.969 403.736 248.969C411.328 248.969 415.791 245.339 415.808 239.646C415.791 234.465 411.888 231.717 406.485 230.5L403.689 229.833C400.986 229.211 398.722 228.207 398.769 225.975C398.769 223.971 400.546 222.497 403.766 222.497C406.908 222.497 408.84 223.925 409.081 226.371ZM420.231 248.527H441.248V243.107H426.808V235.68H440.111V230.257H426.808V222.844H441.191V217.428H420.231V248.527ZM475.001 232.977C475.001 222.799 468.683 217 460.433 217C452.143 217 445.872 222.802 445.872 232.977C445.872 243.107 452.143 248.954 460.433 248.954C468.683 248.954 475.001 243.152 475.001 232.977ZM468.331 232.977C468.331 239.569 465.205 243.135 460.433 243.135C455.651 243.135 452.536 239.569 452.536 232.977C452.536 226.385 455.651 222.816 460.433 222.816C465.205 222.816 468.331 226.385 468.331 232.977ZM517.208 228.316C516.346 221.131 510.907 217 503.71 217C495.494 217 489.22 222.802 489.22 232.977C489.22 243.121 495.387 248.954 503.71 248.954C511.682 248.954 516.497 243.651 517.208 237.927L510.558 237.898C509.938 241.222 507.322 243.135 503.814 243.135C499.093 243.135 495.887 239.628 495.887 232.977C495.887 226.505 499.046 222.816 503.861 222.816C507.46 222.816 510.055 224.897 510.558 228.313H517.208V228.316ZM528.275 235.044C528.288 232.036 530.126 230.274 532.768 230.274C535.398 230.274 536.944 231.956 536.93 234.83V248.527H543.399V233.673C543.413 228.207 540.193 224.897 535.337 224.897C531.796 224.897 529.425 226.568 528.365 229.316H528.09V217.428H521.803V248.527H528.275V235.041V235.044ZM559.12 248.986C564.892 248.986 568.778 246.174 569.691 241.847L563.708 241.45C563.054 243.226 561.384 244.153 559.228 244.153C555.992 244.153 553.943 242.015 553.943 238.537V238.519H569.828V236.743C569.828 228.817 565.029 224.897 558.862 224.897C551.997 224.897 547.551 229.772 547.551 236.971C547.551 244.367 551.937 248.983 559.12 248.983V248.986ZM553.943 234.511C554.08 231.854 556.099 229.727 558.969 229.727C561.78 229.727 563.721 231.731 563.738 234.511H553.943ZM584.587 248.983C590.801 248.983 594.704 245.339 595.01 239.977H588.903C588.524 242.468 586.884 243.865 584.664 243.865C581.642 243.865 579.684 241.328 579.684 236.863C579.684 232.461 581.656 229.938 584.664 229.938C587.035 229.938 588.554 231.506 588.903 233.827H595.01C594.735 228.438 590.65 224.897 584.56 224.897C577.481 224.897 573.108 229.801 573.108 236.957C573.108 244.048 577.407 248.983 584.587 248.983ZM599.148 248.527H605.62V241.114L607.364 239.127L613.729 248.527H621.308L612.21 235.298L620.868 225.202H613.44L605.969 234.055H605.62V217.425H599.148V248.529V248.527ZM633.712 248.983C639.48 248.983 643.367 246.174 644.279 241.847L638.297 241.45C637.643 243.226 635.973 244.153 633.816 244.153C630.58 244.153 628.531 242.015 628.531 238.537V238.519H644.417V236.743C644.417 228.817 639.618 224.897 633.451 224.897C626.586 224.897 622.139 229.772 622.139 236.971C622.139 244.367 626.526 248.983 633.712 248.983ZM628.531 234.511C628.669 231.854 630.688 229.727 633.558 229.727C636.368 229.727 638.313 231.731 638.327 234.511H628.531ZM648.639 248.527H655.108V235.329C655.108 232.461 657.204 230.485 660.058 230.485C660.956 230.485 662.184 230.636 662.791 230.836V225.094C662.123 224.946 661.439 224.87 660.755 224.866C658.146 224.866 656.003 226.385 655.155 229.271H654.91V225.2H648.639V248.527ZM224.739 703.242H231.04C230.949 697.702 226.393 693.876 219.468 693.876C212.651 693.876 207.653 697.642 207.685 703.289C207.67 707.877 210.906 710.506 216.158 711.763L219.545 712.615C222.932 713.437 224.814 714.406 224.831 716.502C224.814 718.782 222.658 720.328 219.317 720.328C215.901 720.328 213.441 718.749 213.227 715.637H206.863C207.032 722.364 211.844 725.841 219.394 725.841C226.986 725.841 231.454 722.209 231.468 716.519C231.451 711.337 227.548 708.587 222.142 707.373L219.348 706.706C216.645 706.082 214.382 705.083 214.427 702.85C214.427 700.844 216.203 699.372 219.422 699.372C222.567 699.372 224.497 700.801 224.739 703.242ZM235.767 725.402H242.239V702.075H235.767V725.402ZM239.017 699.067C240.947 699.067 242.524 697.595 242.524 695.787C242.524 693.993 240.947 692.524 239.017 692.524C237.107 692.524 235.525 693.993 235.525 695.787C235.525 697.595 237.104 699.067 239.017 699.067ZM259.83 702.075H255.439V696.485H248.967V702.075H245.78V706.934H248.967V719.084C248.939 723.655 252.052 725.918 256.745 725.721C257.937 725.684 259.117 725.479 260.252 725.114L259.234 720.298C258.917 720.362 258.233 720.513 257.626 720.513C256.335 720.513 255.439 720.023 255.439 718.232V706.934H259.83V702.075ZM274.421 725.858C280.192 725.858 284.081 723.048 284.99 718.718L279.009 718.326C278.353 720.1 276.685 721.029 274.527 721.029C271.294 721.029 269.244 718.886 269.244 715.409V715.395H285.127V713.614C285.127 705.69 280.329 701.773 274.162 701.773C267.3 701.773 262.849 706.646 262.849 713.842C262.849 721.24 267.239 725.858 274.424 725.858H274.421ZM269.244 711.384C269.381 708.725 271.399 706.602 274.27 706.602C277.079 706.602 279.023 708.604 279.037 711.384H269.244ZM304.731 725.402L307.04 718.309H318.262L320.571 725.402H327.616L316.896 694.298H308.42L297.683 725.402H304.731ZM308.708 713.175L312.537 701.408H312.779L316.605 713.175H308.711H308.708ZM346.199 715.469C346.213 718.598 344.072 720.238 341.748 720.238C339.302 720.238 337.723 718.521 337.708 715.774V702.075H331.234V716.928C331.251 722.38 334.441 725.707 339.131 725.707C342.641 725.707 345.161 723.9 346.21 721.163H346.453V725.402H352.665V702.075H346.193V715.469H346.199ZM366.438 725.781C370.205 725.781 372.163 723.608 373.058 721.666H373.332V725.402H379.71V694.298H373.255V705.992H373.058C372.192 704.097 370.324 701.773 366.421 701.773C361.304 701.773 356.976 705.75 356.976 713.769C356.976 721.576 361.121 725.781 366.438 725.781ZM368.488 720.63C365.312 720.63 363.584 717.81 363.584 713.738C363.584 709.698 365.284 706.917 368.488 706.917C371.63 706.917 373.392 709.577 373.392 713.738C373.392 717.9 371.602 720.63 368.488 720.63ZM385.03 725.402H391.499V702.075H385.03V725.402ZM388.28 699.067C390.208 699.067 391.787 697.595 391.787 695.787C391.787 693.993 390.208 692.524 388.28 692.524C386.367 692.524 384.788 693.993 384.788 695.787C384.788 697.595 386.367 699.067 388.28 699.067ZM409.091 702.075H404.698V696.485H398.23V702.075H395.04V706.934H398.23V719.084C398.199 723.655 401.311 725.918 406.006 725.721C407.196 725.684 408.38 725.479 409.514 725.114L408.498 720.298C408.179 720.362 407.495 720.513 406.885 720.513C405.597 720.513 404.698 720.023 404.698 718.232V706.934H409.091V702.075Z" fill="#1C1C1E"/>
<path d="M1218.8 537.639C1221.28 537.639 1223.01 536.191 1223.03 534.168C1223.01 532.596 1221.96 531.261 1220.62 531.013V530.939C1221.79 530.634 1222.55 529.494 1222.56 528.169C1222.55 526.278 1220.96 524.869 1218.8 524.869C1216.62 524.869 1215.02 526.278 1215.04 528.169C1215.02 529.494 1215.79 530.634 1216.98 530.939V531.013C1215.61 531.261 1214.56 532.596 1214.57 534.168C1214.56 536.191 1216.29 537.639 1218.8 537.639ZM1218.8 536.305C1217.09 536.305 1216.05 535.429 1216.06 534.095C1216.05 532.69 1217.2 531.69 1218.8 531.69C1220.37 531.69 1221.53 532.69 1221.54 534.095C1221.53 535.429 1220.48 536.305 1218.8 536.305ZM1218.8 530.406C1217.44 530.406 1216.48 529.554 1216.49 528.266C1216.48 527.002 1217.4 526.18 1218.8 526.18C1220.17 526.18 1221.09 527.002 1221.11 528.266C1221.09 529.554 1220.14 530.406 1218.8 530.406ZM1231.88 525.04H1230.38V537.468H1231.88V525.04ZM1238.23 537.663C1240.02 537.663 1240.63 536.546 1240.95 536.04H1241.12V537.468H1242.5V525.04H1241.07V529.624H1240.95C1240.63 529.142 1240.07 528.025 1238.25 528.025C1235.9 528.025 1234.27 529.893 1234.27 532.83C1234.27 535.792 1235.9 537.663 1238.23 537.663ZM1238.42 536.378C1236.62 536.378 1235.7 534.799 1235.7 532.807C1235.7 530.842 1236.6 529.313 1238.42 529.313C1240.17 529.313 1241.09 530.718 1241.09 532.807C1241.09 534.92 1240.14 536.378 1238.42 536.378ZM1249.23 537.663C1251.13 537.663 1252.51 536.717 1252.95 535.309L1251.56 534.92C1251.2 535.889 1250.35 536.378 1249.23 536.378C1247.55 536.378 1246.39 535.292 1246.33 533.293H1253.09V532.686C1253.09 529.212 1251.03 528.025 1249.09 528.025C1246.56 528.025 1244.89 530.013 1244.89 532.881C1244.89 535.745 1246.54 537.663 1249.23 537.663ZM1246.33 532.056C1246.42 530.604 1247.45 529.313 1249.09 529.313C1250.64 529.313 1251.64 530.476 1251.64 532.056H1246.33ZM1258.02 537.69C1259.64 537.69 1260.49 536.814 1260.78 536.207H1260.86V537.468H1262.29V531.325C1262.29 528.364 1260.03 528.025 1258.84 528.025C1257.43 528.025 1255.83 528.508 1255.1 530.211L1256.46 530.694C1256.78 530.013 1257.53 529.286 1258.89 529.286C1260.21 529.286 1260.86 529.987 1260.86 531.18V531.227C1260.86 531.922 1260.15 531.861 1258.45 532.079C1256.72 532.304 1254.84 532.686 1254.84 534.822C1254.84 536.643 1256.25 537.69 1258.02 537.69ZM1258.23 536.399C1257.09 536.399 1256.27 535.889 1256.27 534.896C1256.27 533.803 1257.26 533.464 1258.38 533.317C1258.99 533.243 1260.61 533.075 1260.86 532.783V534.095C1260.86 535.258 1259.93 536.399 1258.23 536.399ZM1271.51 530.235C1271.06 528.91 1270.05 528.025 1268.21 528.025C1266.24 528.025 1264.78 529.142 1264.78 530.718C1264.78 532.005 1265.55 532.867 1267.26 533.27L1268.81 533.632C1269.75 533.85 1270.2 534.303 1270.2 534.943C1270.2 535.745 1269.35 536.399 1268.01 536.399C1266.84 536.399 1266.11 535.899 1265.85 534.896L1264.49 535.238C1264.83 536.818 1266.13 537.663 1268.04 537.663C1270.2 537.663 1271.68 536.479 1271.68 534.873C1271.68 533.571 1270.86 532.753 1269.2 532.347L1267.82 532.005C1266.71 531.734 1266.22 531.362 1266.22 530.647C1266.22 529.846 1267.06 529.262 1268.21 529.262C1269.46 529.262 1269.97 529.953 1270.22 530.597L1271.51 530.235Z" fill="#3E424B"/>
<path d="M597.648 557.395H1273.61V558.756H597.648V557.395Z" fill="#E9EBEF"/>
<path d="M1118.25 526.512H600.375C598.869 526.512 597.648 527.732 597.648 529.238V534.688C597.648 536.193 598.869 537.414 600.375 537.414H1118.25C1119.75 537.414 1120.97 536.193 1120.97 534.688V529.238C1120.97 527.732 1119.75 526.512 1118.25 526.512Z" fill="#64D2FF"/>
<path d="M1218.83 594.871C1221.2 594.871 1222.93 593.123 1222.93 590.742C1222.93 588.335 1221.26 586.571 1218.98 586.571C1218.14 586.571 1217.33 586.866 1216.82 587.275H1216.75L1217.18 583.606H1222.38V582.271H1215.92L1215.17 588.388L1216.58 588.559C1217.09 588.19 1217.97 587.922 1218.74 587.926C1220.32 587.942 1221.48 589.143 1221.48 590.769C1221.48 592.366 1220.37 593.539 1218.83 593.539C1217.56 593.539 1216.54 592.718 1216.43 591.594H1214.97C1215.06 593.489 1216.7 594.871 1218.83 594.871ZM1231.88 582.271H1230.37V594.703H1231.88V582.271ZM1238.22 594.897C1240.02 594.897 1240.63 593.781 1240.94 593.271H1241.11V594.703H1242.49V582.271H1241.07V586.859H1240.94C1240.63 586.373 1240.07 585.259 1238.25 585.259C1235.89 585.259 1234.27 587.127 1234.27 590.065C1234.27 593.026 1235.89 594.897 1238.22 594.897ZM1238.42 593.61C1236.62 593.61 1235.7 592.034 1235.7 590.038C1235.7 588.076 1236.6 586.544 1238.42 586.544C1240.17 586.544 1241.09 587.952 1241.09 590.038C1241.09 592.151 1240.14 593.61 1238.42 593.61ZM1249.23 594.897C1251.12 594.897 1252.51 593.952 1252.94 592.543L1251.56 592.151C1251.19 593.123 1250.35 593.61 1249.23 593.61C1247.55 593.61 1246.39 592.523 1246.32 590.528H1253.09V589.921C1253.09 586.447 1251.03 585.259 1249.08 585.259C1246.56 585.259 1244.88 587.248 1244.88 590.115C1244.88 592.979 1246.53 594.897 1249.23 594.897ZM1246.32 589.287C1246.42 587.838 1247.44 586.544 1249.08 586.544C1250.64 586.544 1251.63 587.711 1251.63 589.287H1246.32ZM1258.01 594.921C1259.64 594.921 1260.49 594.049 1260.78 593.442H1260.86V594.703H1262.28V588.559C1262.28 585.598 1260.03 585.259 1258.84 585.259C1257.43 585.259 1255.83 585.742 1255.1 587.443L1256.46 587.926C1256.77 587.248 1257.52 586.52 1258.89 586.52C1260.2 586.52 1260.86 587.218 1260.86 588.415V588.462C1260.86 589.156 1260.15 589.093 1258.45 589.314C1256.72 589.539 1254.83 589.921 1254.83 592.054C1254.83 593.878 1256.24 594.921 1258.01 594.921ZM1258.23 593.633C1257.09 593.633 1256.26 593.123 1256.26 592.131C1256.26 591.038 1257.26 590.696 1258.38 590.551C1258.98 590.478 1260.61 590.307 1260.86 590.018V591.329C1260.86 592.493 1259.93 593.633 1258.23 593.633ZM1271.51 587.469C1271.05 586.145 1270.05 585.259 1268.2 585.259C1266.24 585.259 1264.78 586.373 1264.78 587.952C1264.78 589.24 1265.54 590.102 1267.25 590.501L1268.81 590.867C1269.75 591.085 1270.19 591.534 1270.19 592.178C1270.19 592.979 1269.34 593.633 1268.01 593.633C1266.84 593.633 1266.1 593.13 1265.85 592.131L1264.49 592.469C1264.82 594.052 1266.13 594.897 1268.03 594.897C1270.2 594.897 1271.67 593.714 1271.67 592.104C1271.67 590.806 1270.86 589.985 1269.2 589.582L1267.81 589.24C1266.71 588.968 1266.21 588.596 1266.21 587.879C1266.21 587.077 1267.06 586.497 1268.2 586.497C1269.45 586.497 1269.97 587.188 1270.22 587.832L1271.51 587.469Z" fill="#3E424B"/>
<path d="M597.648 614.633H1273.61V615.998H597.648V614.633Z" fill="#E9EBEF"/>
<path d="M1118.25 583.754H600.375C598.869 583.754 597.648 584.975 597.648 586.48V591.93C597.648 593.435 598.869 594.656 600.375 594.656H1118.25C1119.75 594.656 1120.97 593.435 1120.97 591.93V586.48C1120.97 584.975 1119.75 583.754 1118.25 583.754Z" fill="#64D2FF"/>
<path d="M326.269 421.126C317.459 421.102 311.523 426.884 311.575 434.808C311.603 442.155 316.709 447.474 323.691 447.467C328.019 447.457 331.865 445.358 333.61 441.894L333.878 441.89C333.872 449.701 331.167 454.456 326.029 454.463C323.01 454.469 320.835 452.82 320.196 449.952L311.982 449.966C312.761 456.602 318.155 461.612 326.041 461.602C335.791 461.586 342.072 453.691 342.035 440.321C341.992 426.048 334.366 421.156 326.269 421.126ZM326.337 427.668C330.166 427.662 332.997 430.774 333.043 434.526C333.065 438.295 330.089 441.418 326.28 441.424C322.431 441.428 319.677 438.433 319.651 434.563C319.609 430.717 322.471 427.672 326.337 427.668ZM362.956 461.545C371.728 461.572 377.701 455.811 377.67 447.789C377.679 440.401 372.515 435.083 365.533 435.093C361.205 435.1 357.379 437.182 355.614 440.666H355.346C355.375 432.994 358.058 428.218 363.195 428.208C366.215 428.205 368.39 429.855 369.028 432.605L377.242 432.595C376.444 426.112 371.053 421.062 363.184 421.072C353.45 421.085 347.21 428.983 347.189 442.219C347.192 456.646 354.859 461.519 362.956 461.545ZM362.907 455.006C359.059 455.009 356.207 451.917 356.202 448.071C356.216 444.241 359.116 441.122 362.944 441.119C366.793 441.112 369.604 444.127 369.59 448.031C369.616 451.974 366.756 454.999 362.907 455.006ZM397.79 421.022C388.98 420.995 383.044 426.773 383.095 434.701C383.124 442.051 388.23 447.37 395.212 447.36C399.539 447.353 403.385 445.251 405.133 441.786H405.398C405.394 449.593 402.688 454.349 397.55 454.359C394.531 454.362 392.355 452.709 391.717 449.845L383.503 449.858C384.282 456.495 389.676 461.505 397.561 461.495C407.316 461.478 413.594 453.581 413.553 440.214C413.513 425.941 405.891 421.045 397.79 421.022ZM397.858 427.561C401.685 427.554 404.519 430.67 404.559 434.419C404.586 438.188 401.611 441.31 397.801 441.314C393.955 441.32 391.198 438.322 391.172 434.459C391.13 430.613 393.992 427.568 397.858 427.561Z" fill="#1C1C1E"/>
<path d="M324.193 495.227L326.312 495.224L326.297 484.335L324.176 484.342L324.193 495.227ZM325.245 482.662C325.976 482.658 326.586 482.092 326.583 481.398C326.583 480.7 325.97 480.13 325.243 480.13C324.504 480.13 323.903 480.703 323.903 481.401C323.903 482.095 324.507 482.662 325.243 482.662H325.245ZM333.24 495.429C335.224 495.425 336 494.211 336.382 493.514H336.561V495.207L338.631 495.204L338.611 480.69L336.49 480.693L336.499 486.086H336.37C335.988 485.415 335.264 484.184 333.234 484.184C330.608 484.188 328.675 486.27 328.681 489.798C328.687 493.319 330.594 495.429 333.24 495.429ZM333.705 493.618C331.812 493.621 330.825 491.958 330.822 489.775C330.817 487.612 331.78 485.988 333.693 485.985C335.541 485.982 336.536 487.491 336.541 489.765C336.541 492.055 335.532 493.618 333.705 493.618ZM346.349 495.412C348.721 495.408 350.4 494.238 350.882 492.464L348.872 492.109C348.493 493.135 347.572 493.661 346.366 493.661C344.553 493.665 343.333 492.491 343.273 490.392L351.01 490.382V489.63C351.005 485.697 348.65 484.164 346.183 484.164C343.15 484.171 341.155 486.485 341.16 489.832C341.166 493.209 343.139 495.419 346.349 495.412ZM343.276 488.805C343.361 487.263 344.476 485.918 346.198 485.915C347.843 485.915 348.924 487.132 348.935 488.799L343.276 488.805ZM356.538 495.419C358.338 495.415 359.35 494.5 359.752 493.685H359.837V495.174L361.91 495.17L361.898 487.944C361.893 484.775 359.398 484.144 357.671 484.147C355.697 484.151 353.884 484.949 353.18 486.934L355.173 487.384C355.484 486.612 356.276 485.868 357.699 485.864C359.067 485.861 359.771 486.579 359.771 487.809V487.86C359.771 488.634 358.979 488.618 357.023 488.849C354.962 489.094 352.852 489.634 352.855 492.109C352.858 494.248 354.469 495.422 356.538 495.419ZM356.995 493.718C355.797 493.718 354.933 493.182 354.93 492.135C354.93 490.999 355.934 490.596 357.16 490.429C357.847 490.335 359.478 490.15 359.783 489.845V491.247C359.786 492.538 358.759 493.715 356.995 493.718ZM372.878 486.924C372.436 485.231 371.107 484.127 368.755 484.134C366.295 484.137 364.553 485.439 364.558 487.363C364.558 488.909 365.497 489.936 367.538 490.385L369.382 490.787C370.432 491.019 370.919 491.488 370.922 492.166C370.922 493.011 370.024 493.671 368.635 493.671C367.367 493.675 366.551 493.128 366.292 492.062L364.245 492.374C364.604 494.302 366.206 495.385 368.653 495.382C371.281 495.375 373.1 493.98 373.097 492.005C373.094 490.469 372.116 489.52 370.115 489.064L368.387 488.671C367.19 488.39 366.671 487.984 366.677 487.246C366.668 486.411 367.575 485.814 368.778 485.814C370.098 485.811 370.708 486.542 370.956 487.27L372.878 486.924ZM385.879 484.248L383.532 484.255L383.529 483.272C383.529 482.31 383.925 481.787 384.96 481.787C385.399 481.783 385.71 481.88 385.91 481.944L386.403 480.231C385.834 480.029 385.233 479.932 384.63 479.942C382.908 479.942 381.4 480.952 381.402 482.994L381.405 484.258H379.726L379.729 485.958L381.408 485.955L381.422 495.144L383.549 495.14L383.535 485.952H385.881L385.879 484.248ZM392.236 495.345C395.307 495.341 397.308 493.091 397.303 489.724C397.297 486.337 395.29 484.094 392.219 484.097C389.152 484.104 387.15 486.354 387.153 489.738C387.159 493.108 389.169 495.351 392.236 495.345ZM392.242 493.564C390.235 493.567 389.297 491.82 389.294 489.731C389.291 487.645 390.223 485.874 392.23 485.871C394.221 485.868 395.159 487.638 395.161 489.721C395.167 491.814 394.232 493.564 392.242 493.564ZM399.676 495.113L401.796 495.11L401.786 488.463C401.786 487.038 402.879 486.009 404.381 486.009C404.824 486.009 405.32 486.086 405.488 486.133L405.484 484.107C405.186 484.074 404.884 484.057 404.582 484.057C403.308 484.06 402.222 484.785 401.826 485.955H401.712L401.708 484.225L399.659 484.228L399.676 495.113ZM322.269 503.524L320.136 503.527L316.516 505.898L316.521 507.998L319.988 505.724H320.074L320.094 518.041L322.289 518.038L322.269 503.524ZM331.121 518.222C334.141 518.219 336.27 516.499 336.282 514.148C336.265 512.32 334.979 510.784 333.357 510.496V510.409C334.765 510.067 335.723 508.742 335.732 507.173C335.714 504.956 333.756 503.306 331.099 503.313C328.413 503.316 326.46 504.969 326.477 507.186C326.466 508.749 327.424 510.08 328.864 510.419V510.499C327.21 510.794 325.933 512.334 325.95 514.165C325.938 516.515 328.074 518.226 331.121 518.222ZM331.119 516.432C329.306 516.435 328.154 515.469 328.168 514.017C328.151 512.508 329.394 511.432 331.11 511.428C332.798 511.425 334.047 512.498 334.064 514.01C334.049 515.462 332.912 516.428 331.119 516.432ZM331.107 509.678C329.642 509.681 328.598 508.752 328.61 507.37C328.593 506.009 329.599 505.107 331.102 505.107C332.576 505.103 333.582 506.002 333.599 507.36C333.588 508.745 332.553 509.674 331.107 509.678ZM338.825 518.014L348.379 517.998V516.12L341.841 516.13V516.026L344.721 513.001C347.375 510.311 348.134 509.027 348.131 507.404C348.125 505.073 346.223 503.289 343.489 503.293C340.775 503.299 338.794 505.057 338.797 507.709L340.886 507.706C340.878 506.146 341.884 505.124 343.449 505.124C344.924 505.12 346.044 506.026 346.044 507.471C346.047 508.752 345.283 509.678 343.726 511.331L338.822 516.425L338.825 518.014ZM356.382 522.069H358.5L358.491 516.291H358.62C359.002 516.985 359.786 518.196 361.77 518.192C364.404 518.186 366.315 516.073 366.312 512.552C366.306 509.02 364.362 506.948 361.73 506.951C359.712 506.955 358.982 508.189 358.609 508.863H358.431L358.429 507.099L356.359 507.102L356.382 522.069ZM358.443 512.542C358.443 510.268 359.429 508.755 361.28 508.752C363.201 508.749 364.168 510.372 364.171 512.535C364.174 514.715 363.184 516.381 361.291 516.385C359.469 516.388 358.446 514.832 358.443 512.542ZM371.86 518.206C373.662 518.202 374.674 517.287 375.076 516.472H375.161L375.164 517.957H377.234L377.223 510.727C377.217 507.558 374.722 506.931 372.992 506.934C371.022 506.938 369.209 507.736 368.504 509.718L370.494 510.171C370.805 509.396 371.598 508.652 373.023 508.652C374.392 508.648 375.093 509.362 375.096 510.593V510.647C375.096 511.418 374.303 511.405 372.348 511.636C370.286 511.878 368.174 512.421 368.176 514.892C368.182 517.035 369.793 518.206 371.86 518.206ZM372.319 516.505C371.121 516.505 370.255 515.969 370.255 514.919C370.252 513.786 371.258 513.38 372.484 513.216C373.171 513.122 374.802 512.934 375.104 512.629L375.107 514.034C375.11 515.322 374.084 516.502 372.319 516.505ZM384.627 522.257C387.398 522.25 389.536 520.979 389.531 518.179L389.513 507.052L387.438 507.055L387.441 508.819L387.284 508.823C386.908 508.148 386.155 506.914 384.128 506.921C381.499 506.921 379.566 509 379.572 512.468C379.578 515.942 381.556 517.786 384.131 517.783C386.129 517.78 386.899 516.653 387.281 515.959H387.415L387.418 518.095C387.421 519.802 386.252 520.546 384.644 520.546C382.879 520.546 382.192 519.664 381.816 519.041L379.994 519.795C380.57 521.127 382.024 522.257 384.627 522.257ZM384.596 516.026C382.702 516.029 381.716 514.574 381.713 512.438C381.71 510.345 382.671 508.722 384.584 508.719C386.435 508.715 387.43 510.224 387.432 512.428C387.435 514.674 386.423 516.022 384.596 516.026ZM397.066 518.149C399.438 518.142 401.118 516.968 401.598 515.198L399.589 514.839C399.21 515.868 398.289 516.395 397.083 516.398C395.27 516.398 394.049 515.224 393.99 513.125L401.729 513.115V512.364C401.722 508.43 399.364 506.898 396.898 506.901C393.867 506.901 391.871 509.218 391.874 512.562C391.88 515.942 393.853 518.149 397.066 518.149ZM393.992 511.539C394.075 509.993 395.193 508.652 396.915 508.652C398.56 508.648 399.636 509.865 399.649 511.529L393.992 511.539ZM412.232 509.678C411.789 507.984 410.464 506.881 408.107 506.884C405.649 506.884 403.908 508.185 403.912 510.114C403.915 511.66 404.851 512.686 406.893 513.135L408.734 513.538C409.784 513.769 410.273 514.235 410.273 514.916C410.277 515.761 409.378 516.418 407.99 516.422C406.719 516.425 405.904 515.882 405.649 514.809L403.6 515.124C403.955 517.052 405.558 518.132 408.006 518.128C410.635 518.128 412.453 516.727 412.45 514.758C412.446 513.219 411.471 512.27 409.472 511.811L407.741 511.418C406.544 511.136 406.024 510.734 406.031 509.996C406.021 509.161 406.927 508.564 408.134 508.561C409.452 508.558 410.062 509.289 410.31 510.02L412.232 509.678Z" fill="black" fill-opacity="0.75"/>
<path d="M524.834 465.567C524.834 553.842 453.273 625.402 364.998 625.402C276.721 625.402 205.16 553.842 205.16 465.567C205.16 377.292 276.721 305.729 364.998 305.729C453.273 305.729 524.834 377.29 524.834 465.567ZM253.112 465.567C253.112 527.359 303.204 577.45 364.998 577.45C426.791 577.45 476.882 527.359 476.882 465.567C476.882 403.773 426.791 353.68 364.998 353.68C303.204 353.68 253.112 403.773 253.112 465.567Z" fill="#E9EBEF"/>
<path d="M354.112 306.104C338.4 307.178 322.932 310.569 308.211 316.166L325.254 360.984C335.558 357.066 346.385 354.694 357.383 353.942L354.112 306.102V306.104Z" fill="#FF453A"/>
<path d="M420.606 315.708C399.281 307.798 376.514 304.529 353.824 306.12L357.18 353.955C373.063 352.84 389 355.127 403.929 360.664L420.606 315.708Z" fill="#0A84FF"/>
<path d="M504.816 388.109C494.645 369.748 480.956 353.57 464.534 340.499C448.108 327.428 429.271 317.72 409.097 311.93L395.867 358.019C409.989 362.073 423.175 368.869 434.671 378.018C446.166 387.168 455.751 398.492 462.87 411.346L504.816 388.109Z" fill="#34C759"/>
<path d="M511.494 529.515C521.411 506.792 525.908 482.073 524.627 457.311C523.346 432.552 516.323 408.427 504.113 386.848L462.379 410.465C470.927 425.57 475.843 442.455 476.739 459.789C477.637 477.12 474.488 494.424 467.547 510.333L511.494 529.515Z" fill="#FF9F0A"/>
<path d="M407.755 619.583C430.971 613.141 452.43 601.531 470.529 585.626C488.625 569.723 502.894 549.931 512.263 527.734L468.091 509.082C461.532 524.622 451.545 538.475 438.875 549.609C426.209 560.743 411.185 568.868 394.934 573.379L407.755 619.583Z" fill="#FF642D"/>
<path d="M308.818 315.928C269.131 330.828 236.989 360.883 219.462 399.482C201.935 438.081 200.459 482.062 215.358 521.748C230.258 561.433 260.313 593.576 298.912 611.105C337.51 628.631 381.49 630.106 421.177 615.206L404.322 570.316C376.598 580.498 345.974 579.3 319.128 566.993C292.282 554.682 271.391 532.261 261.01 504.611C250.63 476.962 251.601 446.331 263.714 419.395C275.827 392.459 298.098 371.406 325.67 360.824L308.821 315.926L308.818 315.928Z" fill="#32D74B"/>
<path d="M661.675 324.58H663.784C663.724 322.253 661.668 320.565 658.72 320.565C655.806 320.565 653.573 322.233 653.573 324.734C653.573 326.755 655.021 327.938 657.349 328.568L659.066 329.036C660.618 329.446 661.816 329.957 661.816 331.248C661.816 332.665 660.464 333.6 658.6 333.6C656.913 333.6 655.508 332.848 655.38 331.268H653.184C653.324 333.897 655.36 335.522 658.613 335.522C662.02 335.522 663.985 333.726 663.985 331.268C663.985 328.654 661.651 327.639 659.81 327.185L658.395 326.818C657.258 326.527 655.752 325.997 655.756 324.605C655.756 323.374 656.883 322.459 658.67 322.459C660.337 322.459 661.517 323.24 661.675 324.577V324.58ZM671.514 324.394H669.28V321.786H667.161V324.394H665.568V326.093H667.161V332.522C667.154 334.501 668.663 335.459 670.337 335.422C671.011 335.414 671.464 335.288 671.712 335.194L671.329 333.443C671.185 333.472 670.924 333.535 670.585 333.535C669.898 333.535 669.28 333.31 669.28 332.081V326.093H671.514V324.394ZM673.858 335.279H675.977V328.631C675.977 327.206 677.074 326.179 678.576 326.179C679.016 326.179 679.512 326.259 679.683 326.307V324.283C679.385 324.25 679.083 324.233 678.781 324.232C677.507 324.232 676.417 324.953 676.018 326.122H675.904V324.394H673.858V335.279ZM684.586 335.522C686.387 335.522 687.399 334.607 687.805 333.791H687.889V335.279H689.958V328.049C689.958 324.885 687.463 324.252 685.736 324.252C683.764 324.252 681.953 325.047 681.242 327.031L683.231 327.485C683.546 326.712 684.338 325.968 685.763 325.968C687.131 325.968 687.832 326.681 687.832 327.915V327.967C687.832 328.736 687.037 328.725 685.082 328.95C683.02 329.192 680.907 329.731 680.907 332.203C680.907 334.341 682.517 335.522 684.586 335.522ZM685.049 333.82C683.851 333.82 682.983 333.281 682.983 332.232C682.983 331.097 683.989 330.692 685.216 330.533C685.907 330.439 687.534 330.256 687.839 329.951V331.354C687.839 332.642 686.813 333.82 685.049 333.82ZM697.862 324.394H695.632V321.786H693.513V324.394H691.917V326.093H693.513V332.522C693.503 334.501 695.012 335.459 696.685 335.422C697.359 335.414 697.812 335.288 698.06 335.194L697.678 333.443C697.537 333.472 697.272 333.535 696.933 333.535C696.246 333.535 695.632 333.31 695.632 332.081V326.093H697.862V324.394ZM704.784 335.499C707.155 335.499 708.835 334.33 709.315 332.557L707.313 332.198C706.93 333.224 706.008 333.749 704.804 333.749C702.99 333.749 701.769 332.574 701.712 330.476H709.452V329.723C709.452 325.788 707.098 324.252 704.633 324.252C701.598 324.252 699.599 326.561 699.599 329.908C699.599 333.287 701.571 335.499 704.784 335.499ZM701.722 328.885C701.806 327.342 702.923 326.005 704.647 326.005C706.29 326.005 707.37 327.223 707.373 328.885H701.722ZM716.367 339.587C719.137 339.587 721.28 338.319 721.28 335.522V324.394H719.204V326.159H719.046C718.671 325.486 717.92 324.252 715.894 324.252C713.262 324.252 711.33 326.327 711.33 329.794C711.33 333.267 713.305 335.117 715.877 335.117C717.876 335.117 718.651 333.991 719.033 333.295H719.167V335.433C719.167 337.144 717.997 337.88 716.391 337.88C714.623 337.88 713.939 336.996 713.56 336.369L711.739 337.121C712.313 338.456 713.768 339.587 716.367 339.587ZM716.347 333.358C714.452 333.358 713.47 331.904 713.47 329.766C713.47 327.676 714.432 326.054 716.347 326.054C718.198 326.054 719.191 327.562 719.191 329.766C719.191 332.012 718.175 333.358 716.347 333.358ZM725.458 339.362C727.209 339.362 728.316 338.45 728.946 336.734L733.446 324.417L731.159 324.394L728.399 332.842H728.285L725.529 324.394H723.262L727.246 335.422L726.984 336.143C726.444 337.589 725.686 337.711 724.523 337.392L724.013 339.129C724.271 339.243 724.821 339.362 725.458 339.362ZM743.088 320.765H740.898V335.279H743.088V320.768V320.765ZM750.18 335.493C752.166 335.493 752.944 334.282 753.326 333.583H753.504V335.279H755.573V320.768H753.453V326.156H753.326C752.944 325.486 752.223 324.252 750.194 324.252C747.565 324.252 745.63 326.327 745.63 329.857C745.63 333.381 747.538 335.493 750.18 335.493ZM750.647 333.686C748.755 333.686 747.769 332.021 747.769 329.837C747.769 327.676 748.735 326.051 750.647 326.051C752.498 326.051 753.49 327.562 753.49 329.837C753.49 332.126 752.474 333.686 750.647 333.686ZM763.289 335.499C765.664 335.499 767.344 334.33 767.823 332.557L765.818 332.198C765.436 333.224 764.513 333.749 763.309 333.749C761.495 333.749 760.278 332.574 760.221 330.476H767.957V329.723C767.957 325.788 765.607 324.252 763.142 324.252C760.107 324.252 758.108 326.561 758.108 329.908C758.108 333.287 760.08 335.499 763.289 335.499ZM760.228 328.885C760.311 327.342 761.431 326.005 763.155 326.005C764.798 326.005 765.875 327.223 765.885 328.885H760.228ZM773.477 335.522C775.278 335.522 776.291 334.607 776.697 333.791H776.78V335.279H778.85V328.049C778.85 324.885 776.355 324.252 774.627 324.252C772.656 324.252 770.841 325.047 770.134 327.031L772.126 327.485C772.438 326.712 773.229 325.968 774.654 325.968C776.023 325.968 776.723 326.681 776.723 327.915V327.967C776.723 328.736 775.929 328.725 773.974 328.95C771.915 329.192 769.802 329.731 769.802 332.203C769.802 334.341 771.408 335.522 773.477 335.522ZM773.94 333.82C772.739 333.82 771.878 333.281 771.878 332.232C771.878 331.097 772.884 330.692 774.108 330.533C774.795 330.439 776.425 330.256 776.73 329.951V331.354C776.73 332.642 775.704 333.82 773.94 333.82ZM789.829 327.052C789.39 325.358 788.065 324.252 785.711 324.252C783.256 324.252 781.509 325.549 781.509 327.476C781.509 329.021 782.445 330.051 784.487 330.504L786.328 330.906C787.378 331.14 787.867 331.607 787.867 332.289C787.867 333.133 786.965 333.791 785.577 333.791C784.309 333.791 783.494 333.247 783.239 332.175L781.19 332.488C781.542 334.416 783.145 335.499 785.593 335.499C788.223 335.499 790.044 334.102 790.044 332.135C790.044 330.595 789.064 329.646 787.066 329.184L785.335 328.788C784.138 328.503 783.622 328.101 783.628 327.362C783.622 326.527 784.53 325.931 785.734 325.931C787.052 325.931 787.663 326.661 787.911 327.391L789.829 327.052ZM851.426 335.485C854.79 335.502 857.084 333.295 857.08 330.219C857.084 327.385 855.108 325.341 852.429 325.341C850.769 325.341 849.3 326.139 848.623 327.473H848.519C848.535 324.528 849.568 322.698 851.537 322.698C852.694 322.698 853.529 323.334 853.774 324.389H856.923C856.621 321.903 854.555 319.961 851.537 319.961C847.801 319.961 845.403 322.986 845.39 328.064C845.383 333.595 848.321 335.471 851.426 335.485ZM851.413 332.976C849.934 332.976 848.844 331.79 848.844 330.313C848.851 328.845 849.967 327.65 851.433 327.65C852.908 327.65 853.985 328.808 853.982 330.308C853.985 331.818 852.888 332.976 851.413 332.976ZM859.116 332.622H866.369V335.279H869.424V332.622H871.296V330.062H869.424V320.169H865.424L859.116 330.108V332.622ZM866.426 330.062H862.332V329.945L866.309 323.65H866.426V330.065V330.062Z" fill="#1C1C1E"/>
<path d="M630.355 308.459H603.098C600.09 308.459 597.648 310.9 597.648 313.91V341.166C597.648 344.177 600.09 346.617 603.098 346.617H630.355C633.367 346.617 635.805 344.177 635.805 341.166V313.91C635.805 310.9 633.367 308.459 630.355 308.459Z" fill="#0A84FF"/>
<path d="M614.92 324.514H617.982C617.938 321.82 615.725 319.961 612.361 319.961C609.048 319.961 606.617 321.791 606.633 324.537C606.627 326.764 608.196 328.044 610.752 328.654L612.398 329.067C614.041 329.466 614.957 329.937 614.967 330.954C614.957 332.064 613.911 332.816 612.287 332.816C610.627 332.816 609.434 332.047 609.326 330.536H606.234C606.315 333.803 608.656 335.496 612.324 335.496C616.013 335.496 618.183 333.729 618.19 330.963C618.183 328.446 616.285 327.111 613.659 326.521L612.301 326.196C610.99 325.894 609.89 325.406 609.91 324.323C609.91 323.348 610.775 322.632 612.338 322.632C613.867 322.632 614.803 323.325 614.92 324.514ZM626.308 323.944H624.176V321.23H621.033V323.947H619.481V326.307H621.033V332.209C621.02 334.433 622.529 335.531 624.809 335.433C625.39 335.417 625.963 335.318 626.516 335.14L626.02 332.802C625.866 332.83 625.534 332.905 625.239 332.905C624.612 332.905 624.176 332.668 624.176 331.795V326.307H626.308V323.947V323.944Z" fill="white"/>
<path d="M1024.13 385.317H1026.24C1026.18 382.993 1024.12 381.305 1021.18 381.305C1018.26 381.305 1016.03 382.973 1016.03 385.473C1016.03 387.495 1017.47 388.678 1019.81 389.308L1021.52 389.776C1023.07 390.186 1024.27 390.696 1024.27 391.988C1024.27 393.405 1022.92 394.34 1021.05 394.34C1019.37 394.34 1017.96 393.588 1017.84 392.008H1015.64C1015.78 394.637 1017.81 396.262 1021.07 396.262C1024.48 396.262 1026.44 394.469 1026.44 392.008C1026.44 389.394 1024.11 388.379 1022.26 387.925L1020.85 387.558C1019.71 387.267 1018.21 386.736 1018.21 385.345C1018.21 384.114 1019.34 383.198 1021.12 383.198C1022.79 383.198 1023.97 383.979 1024.13 385.317ZM1029.05 396.02H1038.24V394.135H1031.24V389.69H1037.68V387.811H1031.24V383.39H1038.16V381.505H1029.05V396.02ZM1041.08 396.02H1043.27V390.528H1046.39L1049.34 396.02H1051.83L1048.62 390.143C1050.39 389.485 1051.28 388.005 1051.28 386.055C1051.28 383.384 1049.62 381.505 1046.25 381.505H1041.08V396.02ZM1043.27 388.641V383.384H1046.02C1048.18 383.384 1049.07 384.41 1049.07 386.055C1049.07 387.691 1048.18 388.641 1046.05 388.641H1043.27ZM1053.94 396.02H1056.13V390.916H1059.11C1062.48 390.916 1064.14 388.883 1064.14 386.203C1064.14 383.532 1062.49 381.505 1059.12 381.505H1053.94V396.02ZM1056.13 389.06V383.384H1058.88C1061.05 383.384 1061.94 384.558 1061.94 386.203C1061.94 387.848 1061.05 389.06 1058.91 389.06H1056.13ZM1071.99 396.02H1074.18V389.69H1080.35V387.811H1074.18V383.39H1080.99V381.505H1071.99V396.02ZM1087.41 396.239C1089.78 396.239 1091.46 395.07 1091.94 393.297L1089.94 392.938C1089.55 393.964 1088.63 394.488 1087.43 394.488C1085.61 394.488 1084.4 393.311 1084.34 391.215H1092.08V390.463C1092.08 386.531 1089.73 384.991 1087.26 384.991C1084.23 384.991 1082.23 387.301 1082.23 390.648C1082.23 394.027 1084.2 396.239 1087.41 396.239ZM1084.35 389.627C1084.43 388.082 1085.55 386.742 1087.27 386.742C1088.92 386.742 1089.99 387.962 1090 389.627H1084.35ZM1097.6 396.262C1099.4 396.262 1100.41 395.346 1100.82 394.531H1100.9V396.02H1102.97V388.789C1102.97 385.622 1100.47 384.991 1098.75 384.991C1096.77 384.991 1094.96 385.787 1094.25 387.772L1096.24 388.225C1096.56 387.452 1097.35 386.708 1098.77 386.708C1100.14 386.708 1100.84 387.423 1100.84 388.655V388.707C1100.84 389.479 1100.05 389.465 1098.09 389.69C1096.03 389.933 1093.92 390.471 1093.92 392.943C1093.92 395.084 1095.53 396.262 1097.6 396.262ZM1098.06 394.56C1096.86 394.56 1095.99 394.021 1095.99 392.972C1095.99 391.837 1097 391.435 1098.23 391.273C1098.91 391.178 1100.54 390.996 1100.85 390.691V392.094C1100.85 393.382 1099.82 394.56 1098.06 394.56ZM1110.87 385.134H1108.64V382.526H1106.52V385.134H1104.93V386.834H1106.52V393.263C1106.51 395.241 1108.02 396.196 1109.7 396.162C1110.17 396.165 1110.63 396.088 1111.07 395.934L1110.69 394.183C1110.55 394.212 1110.28 394.275 1109.94 394.275C1109.26 394.275 1108.64 394.049 1108.64 392.823V386.834H1110.87V385.134ZM1120.11 391.506C1120.12 393.354 1118.75 394.235 1117.55 394.235C1116.24 394.235 1115.34 393.282 1115.34 391.803V385.134H1113.22V392.057C1113.22 394.759 1114.7 396.162 1116.79 396.162C1118.43 396.162 1119.54 395.295 1120.04 394.135H1120.16V396.02H1122.24V385.134H1120.11V391.506ZM1125.09 396.02H1127.2V389.371C1127.2 387.948 1128.3 386.919 1129.8 386.919C1130.25 386.919 1130.74 386.999 1130.91 387.047V385.02C1130.61 384.988 1130.31 384.972 1130.01 384.972C1128.74 384.972 1127.64 385.693 1127.25 386.862H1127.13V385.134H1125.09V396.02ZM1137.05 396.239C1139.42 396.239 1141.1 395.07 1141.58 393.297L1139.58 392.938C1139.2 393.964 1138.27 394.488 1137.07 394.488C1135.25 394.488 1134.04 393.311 1133.98 391.215H1141.72V390.463C1141.72 386.531 1139.36 384.991 1136.9 384.991C1133.86 384.991 1131.87 387.301 1131.87 390.648C1131.87 394.027 1133.84 396.239 1137.05 396.239ZM1133.99 389.627C1134.07 388.082 1135.19 386.742 1136.91 386.742C1138.56 386.742 1139.64 387.962 1139.64 389.627H1133.99ZM1152.22 387.791C1151.79 386.098 1150.46 384.991 1148.11 384.991C1145.65 384.991 1143.9 386.289 1143.9 388.216C1143.9 389.762 1144.84 390.788 1146.88 391.244L1148.72 391.646C1149.77 391.88 1150.26 392.347 1150.26 393.029C1150.26 393.873 1149.36 394.531 1147.98 394.531C1146.71 394.531 1145.89 393.987 1145.64 392.914L1143.59 393.228C1143.94 395.156 1145.54 396.239 1147.99 396.239C1150.62 396.239 1152.44 394.842 1152.44 392.872C1152.44 391.335 1151.46 390.386 1149.46 389.924L1147.73 389.528C1146.53 389.245 1146.02 388.841 1146.02 388.102C1146.02 387.267 1146.93 386.671 1148.13 386.671C1149.45 386.671 1150.06 387.401 1150.31 388.131L1152.22 387.791ZM1162.41 381.505H1160.22V396.02H1162.41V381.505ZM1169.51 396.233C1171.49 396.233 1172.27 395.019 1172.65 394.326H1172.83V396.02H1174.9V381.505H1172.78V386.899H1172.65C1172.27 386.226 1171.55 384.991 1169.52 384.991C1166.89 384.991 1164.95 387.067 1164.95 390.597C1164.95 394.121 1166.86 396.233 1169.51 396.233ZM1169.97 394.426C1168.08 394.426 1167.09 392.761 1167.09 390.577C1167.09 388.416 1168.06 386.791 1169.97 386.791C1171.82 386.791 1172.81 388.302 1172.81 390.577C1172.81 392.866 1171.8 394.426 1169.97 394.426ZM1182.61 396.239C1184.99 396.239 1186.67 395.07 1187.15 393.297L1185.14 392.938C1184.76 393.964 1183.84 394.488 1182.63 394.488C1180.82 394.488 1179.6 393.311 1179.54 391.215H1187.29V390.463C1187.29 386.531 1184.93 384.991 1182.47 384.991C1179.43 384.991 1177.43 387.301 1177.43 390.648C1177.43 394.027 1179.41 396.239 1182.61 396.239ZM1179.55 389.627C1179.64 388.082 1180.76 386.742 1182.48 386.742C1184.12 386.742 1185.2 387.962 1185.21 389.627H1179.55ZM1192.81 396.262C1194.6 396.262 1195.62 395.346 1196.02 394.531H1196.11V396.02H1198.17V388.789C1198.17 385.622 1195.68 384.991 1193.95 384.991C1191.98 384.991 1190.17 385.787 1189.46 387.772L1191.45 388.225C1191.76 387.452 1192.56 386.708 1193.98 386.708C1195.35 386.708 1196.05 387.423 1196.05 388.655V388.707C1196.05 389.479 1195.26 389.465 1193.3 389.69C1191.24 389.933 1189.13 390.471 1189.13 392.943C1189.13 395.084 1190.73 396.262 1192.81 396.262ZM1193.26 394.56C1192.06 394.56 1191.2 394.021 1191.2 392.972C1191.2 391.837 1192.21 391.435 1193.43 391.273C1194.12 391.178 1195.75 390.996 1196.06 390.691V392.094C1196.06 393.382 1195.03 394.56 1193.26 394.56ZM1209.15 387.791C1208.71 386.098 1207.39 384.991 1205.04 384.991C1202.58 384.991 1200.83 386.289 1200.83 388.216C1200.83 389.762 1201.77 390.788 1203.81 391.244L1205.65 391.646C1206.7 391.88 1207.19 392.347 1207.19 393.029C1207.19 393.873 1206.29 394.531 1204.91 394.531C1203.63 394.531 1202.82 393.987 1202.56 392.914L1200.52 393.228C1200.87 395.156 1202.47 396.239 1204.92 396.239C1207.55 396.239 1209.37 394.842 1209.37 392.872C1209.37 391.335 1208.39 390.386 1206.39 389.924L1204.66 389.528C1203.46 389.245 1202.95 388.841 1202.95 388.102C1202.95 387.267 1203.86 386.671 1205.06 386.671C1206.38 386.671 1206.98 387.401 1207.23 388.131L1209.15 387.791ZM1245.64 393.362H1252.9V396.02H1255.96V393.362H1257.83V390.802H1255.96V380.906H1251.95L1245.64 390.848V393.362ZM1252.96 390.802H1248.86V390.685L1252.84 384.39H1252.96V390.802ZM1259.73 393.362H1266.98V396.02H1270.04V393.362H1271.91V390.802H1270.04V380.906H1266.04L1259.73 390.848V393.362ZM1267.04 390.802H1262.94V390.685L1266.92 384.39H1267.04V390.802Z" fill="#1C1C1E"/>
<path d="M992.886 369.193H965.629C962.617 369.193 960.176 371.634 960.176 374.644V401.9C960.176 404.911 962.617 407.352 965.629 407.352H992.886C995.894 407.352 998.335 404.911 998.335 401.9V374.644C998.335 371.634 995.894 369.193 992.886 369.193Z" fill="#FF453A"/>
<path d="M977.385 385.254H980.447C980.403 382.56 978.19 380.701 974.826 380.701C971.513 380.701 969.085 382.532 969.098 385.277C969.092 387.503 970.661 388.781 973.216 389.394L974.863 389.807C976.506 390.206 977.422 390.677 977.432 391.695C977.422 392.804 976.375 393.556 974.749 393.556C973.092 393.556 971.895 392.787 971.791 391.276H968.699C968.78 394.543 971.12 396.233 974.786 396.233C978.478 396.233 980.648 394.469 980.654 391.703C980.648 389.186 978.75 387.852 976.124 387.261L974.766 386.936C973.454 386.634 972.351 386.147 972.375 385.063C972.375 384.088 973.24 383.373 974.803 383.373C976.328 383.373 977.267 384.065 977.385 385.254ZM988.84 384.687H986.587V383.926C986.587 383.159 986.899 382.708 987.821 382.708C988.196 382.708 988.582 382.788 988.83 382.871L989.384 380.51C988.663 380.306 987.915 380.201 987.164 380.199C985.031 380.199 983.445 381.402 983.445 383.866V384.687H981.845V387.047H983.445V396.02H986.587V387.047H988.84V384.687Z" fill="white"/>
<path d="M653.766 393.756H659.329C662.706 393.756 664.229 392.077 664.229 389.853C664.229 387.606 662.652 386.338 661.217 386.258V386.118C662.548 385.776 663.659 384.869 663.659 383.056C663.659 380.906 662.173 379.241 659.081 379.241H653.766V393.756ZM655.955 391.877V387.23H659.195C660.956 387.23 662.052 388.365 662.052 389.744C662.052 390.965 661.224 391.877 659.118 391.877H655.955ZM655.955 385.522V381.106H658.947C660.684 381.106 661.512 382.021 661.512 383.224C661.512 384.63 660.365 385.522 658.89 385.522H655.955ZM669.822 393.998C671.623 393.998 672.636 393.083 673.038 392.268H673.125V393.756H675.195V386.529C675.195 383.361 672.7 382.728 670.969 382.728C669.001 382.728 667.186 383.524 666.475 385.508L668.471 385.961C668.779 385.189 669.577 384.444 670.999 384.444C672.368 384.444 673.068 385.16 673.068 386.392V386.443C673.068 387.216 672.277 387.201 670.319 387.427C668.256 387.669 666.143 388.208 666.143 390.68C666.143 392.821 667.753 393.998 669.822 393.998ZM670.282 392.296C669.084 392.296 668.223 391.757 668.223 390.708C668.223 389.576 669.229 389.172 670.453 389.009C671.14 388.915 672.773 388.732 673.075 388.427V389.83C673.075 391.122 672.049 392.296 670.282 392.296ZM682.602 393.975C685.175 393.975 686.841 392.43 687.076 390.312H685.01C684.742 391.489 683.827 392.182 682.616 392.182C680.822 392.182 679.668 390.688 679.668 388.313C679.668 385.981 680.845 384.516 682.616 384.516C683.961 384.516 684.786 385.365 685.01 386.386H687.076C686.848 384.188 685.054 382.728 682.582 382.728C679.511 382.728 677.529 385.04 677.529 388.365C677.529 391.643 679.44 393.975 682.602 393.975ZM689.343 393.756H691.459V389.893L692.515 388.838L696.214 393.756H698.817L694.108 387.541L698.518 382.871H695.983L691.644 387.478H691.459V379.241H689.343V393.756ZM702.569 379.244H700.45V393.756H702.569V379.244ZM705.42 393.756H707.536V382.871H705.42V393.756ZM706.489 381.192C707.221 381.192 707.828 380.624 707.828 379.928C707.828 379.235 707.221 378.66 706.489 378.66C706.144 378.652 705.812 378.781 705.561 379.019C705.309 379.256 705.162 379.583 705.151 379.928C705.151 380.624 705.752 381.192 706.489 381.192ZM712.509 387.293C712.509 385.556 713.569 384.564 715.044 384.564C716.483 384.564 717.355 385.508 717.355 387.087V393.756H719.474V386.834C719.474 384.139 717.995 382.728 715.769 382.728C714.132 382.728 713.059 383.486 712.559 384.641H712.425V382.871H710.39V393.756H712.509V387.293ZM722.318 393.756H724.434V389.893L725.494 388.838L729.189 393.756H731.792L727.087 387.541L731.493 382.871H728.958L724.622 387.478H724.434V379.241H722.318V393.756ZM741.584 385.528C741.141 383.834 739.82 382.728 737.466 382.728C735.008 382.728 733.261 384.025 733.261 385.953C733.261 387.498 734.196 388.527 736.238 388.98L738.083 389.383C739.129 389.619 739.619 390.087 739.619 390.765C739.619 391.609 738.72 392.268 737.332 392.268C736.061 392.268 735.246 391.723 734.994 390.651L732.942 390.965C733.301 392.892 734.897 393.975 737.345 393.975C739.974 393.975 741.795 392.581 741.795 390.611C741.795 389.072 740.816 388.122 738.817 387.66L737.09 387.264C735.89 386.982 735.373 386.577 735.38 385.842C735.373 385.003 736.282 384.407 737.486 384.407C738.804 384.407 739.414 385.137 739.662 385.87L741.584 385.528ZM751.769 379.241H749.579V393.756H751.769V379.244V379.241ZM758.861 393.97C760.846 393.97 761.624 392.758 762.01 392.062H762.185V393.756H764.257V379.244H762.134V384.635H762.01C761.624 383.963 760.903 382.728 758.875 382.728C756.245 382.728 754.311 384.807 754.311 388.336C754.311 391.857 756.219 393.97 758.861 393.97ZM759.331 392.162C757.436 392.162 756.453 390.497 756.453 388.313C756.453 386.152 757.416 384.53 759.331 384.53C761.178 384.53 762.171 386.038 762.171 388.313C762.171 390.603 761.155 392.162 759.331 392.162ZM771.97 393.975C774.344 393.975 776.024 392.806 776.507 391.036L774.499 390.674C774.116 391.7 773.197 392.225 771.99 392.225C770.176 392.225 768.959 391.05 768.902 388.952H776.641V388.199C776.641 384.268 774.287 382.728 771.823 382.728C768.788 382.728 766.789 385.04 766.789 388.385C766.789 391.766 768.761 393.975 771.97 393.975ZM768.908 387.364C768.996 385.819 770.116 384.479 771.836 384.479C773.479 384.479 774.556 385.699 774.566 387.364H768.908ZM782.161 393.998C783.959 393.998 784.975 393.083 785.377 392.268H785.461V393.756H787.53V386.529C787.53 383.361 785.035 382.728 783.308 382.728C781.34 382.728 779.522 383.524 778.815 385.508L780.807 385.961C781.118 385.189 781.913 384.444 783.338 384.444C784.703 384.444 785.404 385.16 785.404 386.392V386.443C785.404 387.216 784.613 387.201 782.658 387.427C780.595 387.669 778.483 388.208 778.483 390.68C778.483 392.821 780.089 393.998 782.161 393.998ZM782.621 392.296C781.42 392.296 780.558 391.757 780.558 390.708C780.558 389.576 781.564 389.172 782.792 389.009C783.476 388.915 785.109 388.732 785.414 388.427V389.83C785.414 391.122 784.388 392.296 782.621 392.296ZM798.51 385.528C798.07 383.834 796.746 382.728 794.395 382.728C791.937 382.728 790.193 384.025 790.193 385.953C790.193 387.498 791.125 388.527 793.168 388.98L795.009 389.383C796.058 389.619 796.548 390.087 796.548 390.765C796.548 391.609 795.649 392.268 794.261 392.268C792.99 392.268 792.175 391.723 791.923 390.651L789.871 390.965C790.227 392.892 791.83 393.975 794.274 393.975C796.903 393.975 798.724 392.581 798.724 390.611C798.724 389.072 797.745 388.122 795.75 387.66L794.016 387.264C792.819 386.982 792.302 386.577 792.309 385.842C792.302 385.003 793.211 384.407 794.415 384.407C795.733 384.407 796.343 385.137 796.592 385.87L798.51 385.528ZM842.84 378.646H839.835L836.092 381.015V383.846L839.553 381.676H839.644V393.756H842.84V378.646ZM847.028 393.756H850.325L856.599 381.294V378.643H845.995V381.257H853.293V381.36L847.028 393.756ZM859.792 393.756H863.088L869.363 381.294V378.643H858.759V381.257H866.056V381.36L859.792 393.756Z" fill="#1C1C1E"/>
<path d="M630.355 366.943H603.098C600.09 366.943 597.648 369.384 597.648 372.394V399.65C597.648 402.661 600.09 405.102 603.098 405.102H630.355C633.367 405.102 635.805 402.661 635.805 399.65V372.394C635.805 369.384 633.367 366.943 630.355 366.943Z" fill="#34C759"/>
<path d="M605.488 393.761H611.944C615.338 393.761 617.145 391.99 617.145 389.584C617.145 387.349 615.542 386 613.825 385.918V385.769C615.398 385.416 616.555 384.301 616.555 382.522C616.555 380.258 614.875 378.65 611.538 378.65H605.488V393.761ZM608.681 391.149V387.135H611.36C612.896 387.135 613.849 388.022 613.849 389.268C613.849 390.405 613.071 391.149 611.287 391.149H608.681ZM608.681 384.974V381.233H611.109C612.527 381.233 613.332 381.963 613.332 383.055C613.332 384.25 612.356 384.974 611.052 384.974H608.681ZM622.397 393.975C624.073 393.975 625.157 393.245 625.71 392.19H625.797V393.761H628.782V386.117C628.782 383.417 626.495 382.28 623.969 382.28C621.253 382.28 619.469 383.58 619.033 385.644L621.941 385.881C622.155 385.128 622.826 384.575 623.953 384.575C625.022 384.575 625.636 385.114 625.636 386.043V386.089C625.636 386.819 624.865 386.913 622.89 387.107C620.649 387.312 618.634 388.064 618.634 390.596C618.634 392.84 620.237 393.975 622.397 393.975ZM623.299 391.805C622.333 391.805 621.639 391.354 621.639 390.494C621.639 389.607 622.37 389.171 623.476 389.017C624.161 388.92 625.284 388.757 625.66 388.506V389.71C625.66 390.898 624.677 391.805 623.299 391.805Z" fill="white"/>
<path d="M1015.5 441.87H1020.02V454.502H1022.21V441.87H1026.73V439.988H1015.5V441.87ZM1032.16 454.72C1034.54 454.72 1036.22 453.553 1036.7 451.783L1034.69 451.421C1034.31 452.447 1033.39 452.97 1032.18 452.97C1030.37 452.97 1029.15 451.796 1029.09 449.697H1036.83V448.946C1036.83 445.012 1034.48 443.473 1032.01 443.473C1028.98 443.473 1026.98 445.787 1026.98 449.13C1026.98 452.51 1028.95 454.72 1032.16 454.72ZM1029.1 448.111C1029.18 446.565 1030.31 445.223 1032.03 445.223C1033.67 445.223 1034.75 446.444 1034.76 448.111H1029.1ZM1043.77 454.72C1046.34 454.72 1048.01 453.174 1048.24 451.058H1046.18C1045.91 452.235 1044.99 452.926 1043.78 452.926C1041.99 452.926 1040.83 451.434 1040.83 449.06C1040.83 446.726 1042.01 445.26 1043.78 445.26C1045.13 445.26 1045.95 446.112 1046.18 447.131H1048.24C1048.01 444.935 1046.22 443.473 1043.75 443.473C1040.68 443.473 1038.7 445.787 1038.7 449.107C1038.7 452.39 1040.61 454.72 1043.77 454.72ZM1052.63 448.037C1052.63 446.303 1053.72 445.31 1055.23 445.31C1056.7 445.31 1057.57 446.239 1057.57 447.832V454.502H1059.69V447.577C1059.69 444.861 1058.2 443.473 1055.96 443.473C1054.26 443.473 1053.24 444.21 1052.73 445.388H1052.6V439.988H1050.51V454.502H1052.63V448.037ZM1064.63 448.037C1064.63 446.303 1065.7 445.31 1067.17 445.31C1068.61 445.31 1069.48 446.253 1069.48 447.832V454.502H1071.6V447.577C1071.6 444.885 1070.12 443.473 1067.89 443.473C1066.25 443.473 1065.19 444.231 1064.68 445.388H1064.55V443.617H1062.51V454.502H1064.63V448.037ZM1074.44 454.502H1076.56V443.617H1074.44V454.502ZM1075.51 441.937C1076.24 441.937 1076.85 441.37 1076.85 440.673C1076.85 439.982 1076.24 439.405 1075.51 439.405C1075.17 439.398 1074.83 439.526 1074.58 439.764C1074.33 440.002 1074.18 440.327 1074.17 440.673C1074.17 441.37 1074.77 441.937 1075.51 441.937ZM1084 454.72C1086.57 454.72 1088.23 453.174 1088.47 451.058H1086.4C1086.14 452.235 1085.22 452.926 1084.01 452.926C1082.22 452.926 1081.06 451.434 1081.06 449.06C1081.06 446.726 1082.24 445.26 1084.01 445.26C1085.35 445.26 1086.18 446.112 1086.4 447.131H1088.47C1088.24 444.935 1086.45 443.473 1083.97 443.473C1080.9 443.473 1078.92 445.787 1078.92 449.107C1078.92 452.39 1080.83 454.72 1084 454.72ZM1093.9 454.744C1095.7 454.744 1096.71 453.828 1097.12 453.013H1097.21V454.502H1099.27V447.276C1099.27 444.107 1096.78 443.473 1095.05 443.473C1093.08 443.473 1091.27 444.267 1090.56 446.253L1092.55 446.705C1092.86 445.934 1093.65 445.19 1095.08 445.19C1096.45 445.19 1097.15 445.904 1097.15 447.138V447.188C1097.15 447.96 1096.35 447.946 1094.4 448.171C1092.34 448.416 1090.22 448.952 1090.22 451.424C1090.22 453.567 1091.83 454.744 1093.9 454.744ZM1094.36 453.04C1093.16 453.04 1092.3 452.504 1092.3 451.454C1092.3 450.321 1093.31 449.918 1094.53 449.754C1095.22 449.66 1096.85 449.479 1097.15 449.174V450.575C1097.15 451.863 1096.13 453.04 1094.36 453.04ZM1104.21 439.988H1102.1V454.502H1104.21V439.988ZM1120.43 443.801H1122.54C1122.48 441.474 1120.43 439.791 1117.48 439.791C1114.56 439.791 1112.33 441.454 1112.33 443.956C1112.33 445.978 1113.78 447.162 1116.11 447.789L1117.83 448.258C1119.38 448.667 1120.57 449.177 1120.57 450.471C1120.57 451.887 1119.22 452.822 1117.36 452.822C1115.67 452.822 1114.27 452.071 1114.14 450.492H1111.94C1112.08 453.117 1114.12 454.744 1117.37 454.744C1120.78 454.744 1122.74 452.95 1122.74 450.492C1122.74 447.876 1120.41 446.86 1118.57 446.407L1117.15 446.038C1116.02 445.75 1114.51 445.22 1114.52 443.832C1114.52 442.594 1115.64 441.682 1117.43 441.682C1119.09 441.682 1120.28 442.46 1120.43 443.801ZM1125.36 454.502H1134.54V452.618H1127.55V448.171H1133.99V446.296H1127.55V441.87H1134.46V439.988H1125.36V454.502ZM1149.99 447.245C1149.99 442.604 1147.21 439.791 1143.46 439.791C1139.69 439.791 1136.92 442.604 1136.92 447.245C1136.92 451.88 1139.69 454.7 1143.46 454.7C1147.21 454.7 1149.99 451.887 1149.99 447.245ZM1147.82 447.245C1147.82 450.78 1145.96 452.702 1143.46 452.702C1140.96 452.702 1139.09 450.78 1139.09 447.245C1139.09 443.707 1140.96 441.789 1143.46 441.789C1145.96 441.789 1147.82 443.707 1147.82 447.245ZM1160.19 439.988H1158V454.502H1160.19V439.988ZM1167.29 454.714C1169.27 454.714 1170.05 453.503 1170.44 452.809H1170.61V454.502H1172.68V439.988H1170.56V445.381H1170.44C1170.05 444.707 1169.33 443.473 1167.3 443.473C1164.67 443.473 1162.74 445.552 1162.74 449.083C1162.74 452.601 1164.64 454.714 1167.29 454.714ZM1167.76 452.906C1165.87 452.906 1164.88 451.243 1164.88 449.06C1164.88 446.897 1165.84 445.277 1167.76 445.277C1169.61 445.277 1170.6 446.783 1170.6 449.06C1170.6 451.347 1169.59 452.906 1167.76 452.906ZM1180.4 454.72C1182.77 454.72 1184.45 453.553 1184.93 451.783L1182.93 451.421C1182.55 452.447 1181.62 452.97 1180.42 452.97C1178.61 452.97 1177.39 451.796 1177.33 449.697H1185.07V448.946C1185.07 445.012 1182.72 443.473 1180.25 443.473C1177.22 443.473 1175.22 445.787 1175.22 449.13C1175.22 452.51 1177.19 454.72 1180.4 454.72ZM1177.34 448.111C1177.42 446.565 1178.54 445.223 1180.27 445.223C1181.91 445.223 1182.98 446.444 1182.99 448.111H1177.34ZM1190.59 454.744C1192.39 454.744 1193.4 453.828 1193.81 453.013H1193.89V454.502H1195.96V447.276C1195.96 444.107 1193.47 443.473 1191.74 443.473C1189.77 443.473 1187.95 444.267 1187.24 446.253L1189.24 446.705C1189.55 445.934 1190.34 445.19 1191.76 445.19C1193.13 445.19 1193.83 445.904 1193.83 447.138V447.188C1193.83 447.96 1193.04 447.946 1191.08 448.171C1189.02 448.416 1186.91 448.952 1186.91 451.424C1186.91 453.567 1188.52 454.744 1190.59 454.744ZM1191.05 453.04C1189.85 453.04 1188.99 452.504 1188.99 451.454C1188.99 450.321 1189.99 449.918 1191.22 449.754C1191.91 449.66 1193.53 449.479 1193.84 449.174V450.575C1193.84 451.863 1192.81 453.04 1191.05 453.04ZM1206.94 446.273C1206.5 444.579 1205.17 443.473 1202.82 443.473C1200.36 443.473 1198.62 444.771 1198.62 446.699C1198.62 448.245 1199.56 449.271 1201.59 449.727L1203.44 450.129C1204.49 450.361 1204.98 450.834 1204.98 451.511C1204.98 452.356 1204.07 453.013 1202.69 453.013C1201.42 453.013 1200.6 452.47 1200.35 451.397L1198.3 451.709C1198.66 453.637 1200.26 454.72 1202.7 454.72C1205.33 454.72 1207.15 453.325 1207.15 451.353C1207.15 449.818 1206.17 448.869 1204.18 448.406L1202.45 448.01C1201.25 447.728 1200.73 447.323 1200.74 446.588C1200.73 445.75 1201.64 445.153 1202.84 445.153C1204.16 445.153 1204.77 445.884 1205.02 446.612L1206.94 446.273ZM1250.45 454.71C1253.86 454.71 1256.31 452.886 1256.32 450.435C1256.31 448.55 1254.85 447.007 1253.04 446.702V446.598C1254.62 446.273 1255.75 444.911 1255.76 443.248C1255.75 440.911 1253.51 439.184 1250.45 439.184C1247.39 439.184 1245.15 440.911 1245.15 443.248C1245.15 444.901 1246.26 446.273 1247.87 446.598V446.702C1246.02 447.007 1244.59 448.55 1244.59 450.435C1244.59 452.886 1247.04 454.71 1250.45 454.71ZM1250.45 452.363C1248.93 452.363 1247.91 451.461 1247.91 450.186C1247.91 448.879 1248.98 447.936 1250.45 447.936C1251.91 447.936 1252.99 448.879 1252.99 450.186C1252.99 451.467 1251.96 452.363 1250.45 452.363ZM1250.45 445.609C1249.18 445.609 1248.27 444.777 1248.27 443.583C1248.27 442.403 1249.16 441.588 1250.45 441.588C1251.73 441.588 1252.63 442.406 1252.63 443.583C1252.63 444.777 1251.72 445.609 1250.45 445.609ZM1258.32 451.843H1265.57V454.502H1268.63V451.843H1270.5V449.284H1268.63V439.391H1264.63L1258.32 449.328V451.843ZM1265.64 449.284H1261.54V449.167L1265.52 442.872H1265.64V449.284Z" fill="#1C1C1E"/>
<path d="M992.886 427.678H965.629C962.617 427.678 960.176 430.119 960.176 433.131V460.384C960.176 463.396 962.617 465.837 965.629 465.837H992.886C995.894 465.837 998.335 463.396 998.335 460.384V433.131C998.335 430.119 995.894 427.678 992.886 427.678Z" fill="#FF9F0A"/>
<path d="M967.895 442.025H972.519V454.5H975.678V442.025H980.306V439.389H967.895V442.025ZM985.812 454.721C988.616 454.721 990.504 453.356 990.95 451.253L988.039 451.062C987.724 451.924 986.912 452.377 985.863 452.377C984.29 452.377 983.297 451.334 983.297 449.644V449.64H991.014V448.775C991.014 444.922 988.683 443.021 985.685 443.021C982.348 443.021 980.188 445.388 980.188 448.886C980.188 452.477 982.321 454.721 985.812 454.721ZM983.297 447.689C983.314 447.058 983.582 446.461 984.038 446.025C984.494 445.589 985.105 445.351 985.735 445.365C987.103 445.365 988.046 446.34 988.056 447.689H983.297Z" fill="white"/>
<path d="M661.675 441.548H663.784C663.724 439.224 661.668 437.534 658.72 437.534C655.806 437.534 653.573 439.201 653.573 441.702C653.573 443.721 655.021 444.905 657.349 445.535L659.066 446.001C660.618 446.417 661.816 446.927 661.816 448.215C661.816 449.633 660.464 450.569 658.6 450.569C656.913 450.569 655.508 449.818 655.38 448.235H653.184C653.324 450.867 655.36 452.49 658.613 452.49C662.02 452.49 663.985 450.696 663.985 448.235C663.985 445.622 661.651 444.61 659.81 444.157L658.395 443.785C657.258 443.493 655.752 442.963 655.756 441.575C655.756 440.341 656.883 439.429 658.67 439.429C660.337 439.429 661.517 440.207 661.675 441.548ZM671.125 452.467C673.499 452.467 675.179 451.297 675.659 449.526L673.653 449.164C673.271 450.193 672.349 450.716 671.145 450.716C669.331 450.716 668.11 449.539 668.056 447.443H675.793V446.692C675.793 442.759 673.442 441.223 670.974 441.223C667.942 441.223 665.944 443.53 665.944 446.877C665.944 450.257 667.912 452.467 671.125 452.467ZM668.063 445.854C668.147 444.308 669.267 442.973 670.991 442.973C672.631 442.973 673.71 444.191 673.717 445.854H668.063ZM678.147 452.246H680.263V445.535C680.263 444.07 681.289 443.05 682.497 443.05C683.674 443.05 684.485 443.828 684.485 445.012V452.246H686.598V445.311C686.598 443.999 687.399 443.05 688.784 443.05C689.905 443.05 690.823 443.674 690.823 445.146V452.246H692.943V444.948C692.943 442.463 691.554 441.223 689.583 441.223C688.016 441.223 686.843 441.971 686.316 443.134H686.202C685.726 441.944 684.73 441.223 683.275 441.223C681.839 441.223 680.766 441.937 680.314 443.134H680.179V441.36H678.147V452.246ZM698.949 452.49C700.753 452.49 701.763 451.575 702.168 450.76H702.255V452.246H704.325V445.019C704.325 441.853 701.83 441.223 700.099 441.223C698.127 441.223 696.316 442.014 695.605 443.999L697.597 444.452C697.909 443.681 698.701 442.936 700.126 442.936C701.494 442.936 702.198 443.651 702.198 444.885V444.935C702.198 445.706 701.4 445.693 699.445 445.921C697.383 446.159 695.273 446.699 695.273 449.174C695.273 451.31 696.88 452.49 698.949 452.49ZM699.412 450.787C698.214 450.787 697.349 450.247 697.349 449.201C697.349 448.067 698.355 447.661 699.583 447.5C700.27 447.41 701.897 447.222 702.202 446.917V448.322C702.202 449.613 701.176 450.787 699.412 450.787ZM709.264 445.783C709.264 444.046 710.327 443.054 711.803 443.054C713.238 443.054 714.11 443.999 714.11 445.579V452.246H716.23V445.324C716.23 442.631 714.751 441.223 712.524 441.223C710.887 441.223 709.818 441.977 709.315 443.134H709.18V441.36H707.145V452.246H709.264V445.783ZM724.154 441.36H721.92V438.751H719.801V441.36H718.208V443.064H719.801V449.489C719.798 451.468 721.303 452.427 722.977 452.39C723.651 452.383 724.104 452.256 724.352 452.165L723.969 450.415C723.829 450.441 723.567 450.505 723.225 450.505C722.537 450.505 721.92 450.277 721.92 449.05V443.064H724.154V441.36ZM726.498 452.246H728.617V441.36H726.498V452.246ZM727.568 439.683C728.299 439.683 728.909 439.113 728.909 438.422C728.909 437.725 728.299 437.155 727.568 437.155C727.222 437.145 726.887 437.276 726.639 437.514C726.387 437.748 726.24 438.077 726.23 438.422C726.23 439.113 726.83 439.683 727.568 439.683ZM736.052 452.467C738.624 452.467 740.291 450.924 740.526 448.802H738.463C738.195 449.979 737.28 450.676 736.066 450.676C734.275 450.676 733.118 449.181 733.118 446.803C733.118 444.472 734.298 443.007 736.066 443.007C737.414 443.007 738.235 443.855 738.463 444.878H740.526C740.298 442.681 738.504 441.223 736.032 441.223C732.964 441.223 730.978 443.53 730.978 446.857C730.978 450.136 732.89 452.467 736.052 452.467ZM750.432 437.732H748.245V452.246H750.432V437.732ZM757.528 452.46C759.51 452.46 760.291 451.25 760.674 450.552H760.851V452.246H762.92V437.732H760.804V443.127H760.674C760.291 442.453 759.567 441.223 757.541 441.223C754.912 441.223 752.977 443.299 752.977 446.826C752.977 450.348 754.885 452.46 757.528 452.46ZM757.994 450.653C756.103 450.653 755.117 448.989 755.117 446.803C755.117 444.643 756.083 443.02 757.994 443.02C759.845 443.02 760.838 444.529 760.838 446.803C760.838 449.093 759.822 450.653 757.994 450.653ZM770.637 452.467C773.011 452.467 774.691 451.297 775.171 449.526L773.169 449.164C772.783 450.193 771.861 450.716 770.66 450.716C768.843 450.716 767.625 449.539 767.568 447.443H775.305V446.692C775.305 442.759 772.954 441.223 770.489 441.223C767.454 441.223 765.456 443.53 765.456 446.877C765.456 450.257 767.424 452.467 770.637 452.467ZM767.575 445.854C767.659 444.308 768.779 442.973 770.503 442.973C772.146 442.973 773.222 444.191 773.229 445.854H767.575ZM780.825 452.49C782.629 452.49 783.638 451.575 784.044 450.76H784.131V452.246H786.197V445.019C786.197 441.853 783.702 441.223 781.975 441.223C780.003 441.223 778.189 442.014 777.481 443.999L779.47 444.452C779.785 443.681 780.577 442.936 782.002 442.936C783.37 442.936 784.074 443.651 784.074 444.885V444.935C784.074 445.706 783.276 445.693 781.321 445.921C779.259 446.159 777.149 446.699 777.149 449.174C777.149 451.31 778.756 452.49 780.825 452.49ZM781.288 450.787C780.09 450.787 779.222 450.247 779.222 449.201C779.222 448.067 780.231 447.661 781.455 447.5C782.143 447.41 783.773 447.222 784.078 446.917V448.322C784.078 449.613 783.052 450.787 781.288 450.787ZM797.176 444.019C796.737 442.326 795.416 441.223 793.058 441.223C790.6 441.223 788.856 442.517 788.856 444.445C788.856 445.988 789.792 447.018 791.834 447.47L793.675 447.876C794.725 448.111 795.215 448.577 795.215 449.254C795.215 450.099 794.313 450.76 792.924 450.76C791.657 450.76 790.842 450.213 790.587 449.144L788.538 449.456C788.893 451.384 790.493 452.467 792.941 452.467C795.567 452.467 797.391 451.072 797.391 449.103C797.391 447.561 796.412 446.612 794.413 446.156L792.683 445.753C791.486 445.472 790.969 445.069 790.976 444.331C790.969 443.493 791.875 442.899 793.082 442.899C794.4 442.899 795.01 443.631 795.258 444.362L797.176 444.019ZM844.085 437.135H841.081L837.338 439.506V442.339L840.799 440.17H840.889V452.246H844.085V437.135ZM853.197 452.454C856.56 452.454 858.847 450.264 858.841 447.209C858.847 444.315 856.825 442.235 854.102 442.235C852.774 442.235 851.631 442.785 851.101 443.533H851.014L851.403 439.747H858.006V437.135H848.767L848.053 445.106L850.893 445.616C851.356 444.989 852.258 444.596 853.15 444.596C854.669 444.603 855.762 445.703 855.762 447.289C855.762 448.859 854.692 449.945 853.197 449.945C851.926 449.945 850.9 449.147 850.826 447.977H847.727C847.788 450.589 850.065 452.454 853.197 452.454ZM861.668 452.246H864.964L871.239 439.784V437.135H860.632V439.747H867.929V439.851L861.668 452.246Z" fill="#1C1C1E"/>
<path d="M630.355 425.42H603.098C600.09 425.42 597.648 427.861 597.648 430.873V458.127C597.648 461.138 600.09 463.579 603.098 463.579H630.355C633.367 463.579 635.805 461.138 635.805 458.127V430.873C635.805 427.861 633.367 425.42 630.355 425.42Z" fill="#FF642D"/>
<path d="M613.6 441.484H616.661C616.618 438.791 614.401 436.93 611.038 436.93C607.724 436.93 605.3 438.761 605.313 441.504C605.303 443.734 606.876 445.008 609.431 445.622L611.074 446.034C612.721 446.434 613.637 446.906 613.643 447.926C613.637 449.032 612.59 449.784 610.964 449.784C609.304 449.784 608.11 449.019 608.006 447.503H604.914C604.995 450.773 607.335 452.463 611.001 452.463C614.69 452.463 616.859 450.699 616.869 447.933C616.859 445.417 614.965 444.079 612.339 443.489L610.977 443.164C609.666 442.862 608.566 442.376 608.59 441.293C608.59 440.317 609.451 439.602 611.014 439.602C612.543 439.602 613.482 440.297 613.6 441.484ZM624.123 452.47C626.926 452.47 628.818 451.105 629.257 449.002L626.35 448.811C626.034 449.673 625.223 450.122 624.177 450.122C622.6 450.122 621.608 449.083 621.608 447.393V447.386H629.324V446.524C629.324 442.671 626.994 440.766 623.999 440.766C620.662 440.766 618.499 443.137 618.499 446.635C618.499 450.226 620.632 452.47 624.123 452.47ZM621.608 445.441C621.625 444.807 621.893 444.21 622.349 443.774C622.808 443.338 623.419 443.1 624.049 443.114C625.414 443.114 626.36 444.089 626.366 445.441H621.608Z" fill="white"/>
<path d="M1028.27 325.486C1027.77 322.378 1025.34 320.565 1022.27 320.565C1018.51 320.565 1015.74 323.379 1015.74 328.024C1015.74 332.665 1018.5 335.479 1022.27 335.479C1025.46 335.479 1027.79 333.481 1028.27 330.61L1026.05 330.601C1025.68 332.46 1024.12 333.481 1022.28 333.481C1019.8 333.481 1017.92 331.573 1017.92 328.024C1017.92 324.5 1019.79 322.564 1022.29 322.564C1024.14 322.564 1025.69 323.608 1026.05 325.486H1028.27ZM1035.3 335.499C1038.37 335.499 1040.37 333.253 1040.37 329.885C1040.37 326.498 1038.37 324.252 1035.3 324.252C1032.23 324.252 1030.23 326.498 1030.23 329.885C1030.23 333.253 1032.23 335.502 1035.3 335.502V335.499ZM1035.31 333.72C1033.3 333.72 1032.37 331.97 1032.37 329.88C1032.37 327.796 1033.3 326.025 1035.31 326.025C1037.3 326.025 1038.24 327.796 1038.24 329.88C1038.24 331.97 1037.3 333.72 1035.31 333.72ZM1044.86 328.816C1044.86 327.08 1045.92 326.088 1047.4 326.088C1048.83 326.088 1049.71 327.029 1049.71 328.611V335.279H1051.83V328.354C1051.83 325.663 1050.34 324.252 1048.12 324.252C1046.48 324.252 1045.41 325.01 1044.91 326.165H1044.77V324.394H1042.74V335.279H1044.86V328.816ZM1059.75 324.394H1057.52V321.786H1055.4V324.394H1053.8V326.093H1055.4V332.522C1055.39 334.501 1056.9 335.459 1058.57 335.422C1059.04 335.426 1059.51 335.348 1059.95 335.194L1059.57 333.443C1059.42 333.472 1059.16 333.535 1058.82 333.535C1058.13 333.535 1057.52 333.31 1057.52 332.081V326.093H1059.75V324.394ZM1066.67 335.499C1069.04 335.499 1070.72 334.33 1071.21 332.557L1069.2 332.198C1068.81 333.224 1067.9 333.749 1066.69 333.749C1064.87 333.749 1063.66 332.574 1063.6 330.476H1071.34V329.723C1071.34 325.788 1068.99 324.252 1066.52 324.252C1063.49 324.252 1061.49 326.561 1061.49 329.908C1061.49 333.287 1063.46 335.499 1066.67 335.499ZM1063.61 328.885C1063.69 327.342 1064.81 326.005 1066.53 326.005C1068.18 326.005 1069.25 327.223 1069.26 328.885H1063.61ZM1075.81 328.816C1075.81 327.08 1076.87 326.088 1078.35 326.088C1079.78 326.088 1080.66 327.029 1080.66 328.611V335.279H1082.78V328.354C1082.78 325.663 1081.3 324.252 1079.07 324.252C1077.43 324.252 1076.36 325.01 1075.86 326.165H1075.72V324.394H1073.69V335.279H1075.81V328.816ZM1090.7 324.394H1088.47V321.786H1086.35V324.394H1084.75V326.093H1086.35V332.522C1086.34 334.501 1087.85 335.459 1089.52 335.422C1090.2 335.414 1090.65 335.288 1090.9 335.194L1090.52 333.443C1090.37 333.472 1090.11 333.535 1089.77 333.535C1089.08 333.535 1088.47 333.31 1088.47 332.081V326.093H1090.7V324.394ZM1100.69 320.765H1098.5V335.279H1100.69V320.768V320.765ZM1107.78 335.493C1109.76 335.493 1110.54 334.282 1110.92 333.583H1111.1V335.279H1113.17V320.768H1111.06V326.156H1110.92C1110.54 325.486 1109.82 324.252 1107.79 324.252C1105.16 324.252 1103.23 326.327 1103.23 329.857C1103.23 333.381 1105.14 335.493 1107.78 335.493ZM1108.25 333.686C1106.36 333.686 1105.37 332.021 1105.37 329.837C1105.37 327.676 1106.33 326.051 1108.25 326.051C1110.1 326.051 1111.09 327.562 1111.09 329.837C1111.09 332.126 1110.08 333.686 1108.25 333.686ZM1120.89 335.499C1123.26 335.499 1124.94 334.33 1125.42 332.557L1123.42 332.198C1123.04 333.224 1122.11 333.749 1120.91 333.749C1119.09 333.749 1117.88 332.574 1117.82 330.476H1125.56V329.723C1125.56 325.788 1123.21 324.252 1120.74 324.252C1117.71 324.252 1115.71 326.561 1115.71 329.908C1115.71 333.287 1117.68 335.499 1120.89 335.499ZM1117.83 328.885C1117.91 327.342 1119.03 326.005 1120.75 326.005C1122.4 326.005 1123.48 327.223 1123.48 328.885H1117.83ZM1131.08 335.522C1132.88 335.522 1133.89 334.607 1134.3 333.791H1134.38V335.279H1136.45V328.049C1136.45 324.885 1133.96 324.252 1132.23 324.252C1130.25 324.252 1128.44 325.047 1127.73 327.031L1129.72 327.485C1130.04 326.712 1130.83 325.968 1132.25 325.968C1133.62 325.968 1134.33 326.681 1134.33 327.915V327.967C1134.33 328.736 1133.53 328.725 1131.57 328.95C1129.51 329.192 1127.4 329.731 1127.4 332.203C1127.4 334.341 1129.01 335.522 1131.08 335.522ZM1131.54 333.82C1130.34 333.82 1129.47 333.281 1129.47 332.232C1129.47 331.097 1130.48 330.692 1131.71 330.533C1132.4 330.439 1134.02 330.256 1134.33 329.951V331.354C1134.33 332.642 1133.3 333.82 1131.54 333.82ZM1147.43 327.052C1146.99 325.358 1145.67 324.252 1143.31 324.252C1140.85 324.252 1139.11 325.549 1139.11 327.476C1139.11 329.021 1140.04 330.051 1142.09 330.504L1143.93 330.906C1144.98 331.14 1145.47 331.607 1145.47 332.289C1145.47 333.133 1144.56 333.791 1143.18 333.791C1141.91 333.791 1141.09 333.247 1140.84 332.175L1138.79 332.488C1139.14 334.416 1140.75 335.499 1143.19 335.499C1145.82 335.499 1147.64 334.102 1147.64 332.135C1147.64 330.595 1146.66 329.646 1144.66 329.184L1142.94 328.788C1141.74 328.503 1141.22 328.101 1141.23 327.362C1141.22 326.527 1142.13 325.931 1143.33 325.931C1144.65 325.931 1145.26 326.661 1145.51 327.391L1147.43 327.052ZM1233.11 332.622H1240.36V335.279H1243.42V332.622H1245.29V330.062H1243.42V320.169H1239.42L1233.11 330.108V332.622ZM1240.42 330.062H1236.33V329.945L1240.3 323.65H1240.42V330.065V330.062ZM1247.19 332.622H1254.44V335.279H1257.5V332.622H1259.37V330.062H1257.5V320.169H1253.5L1247.19 330.108V332.622ZM1254.51 330.062H1250.41V329.945L1254.39 323.65H1254.51V330.065V330.062ZM1261.5 335.279H1272.28V332.668H1265.93V332.565L1268.14 330.401C1271.24 327.567 1272.08 326.154 1272.08 324.434C1272.08 321.811 1269.94 319.961 1266.7 319.961C1263.52 319.961 1261.35 321.857 1261.36 324.825H1264.39C1264.38 323.376 1265.29 322.493 1266.68 322.493C1268 322.493 1268.99 323.319 1268.99 324.645C1268.99 325.848 1268.25 326.675 1266.88 327.995L1261.5 332.979V335.279Z" fill="#1C1C1E"/>
<path d="M992.886 308.459H965.629C962.617 308.459 960.176 310.9 960.176 313.91V341.166C960.176 344.177 962.617 346.617 965.629 346.617H992.886C995.894 346.617 998.335 344.177 998.335 341.166V313.91C998.335 310.9 995.894 308.459 992.886 308.459Z" fill="#32D74B"/>
<path d="M979.161 325.458C978.738 321.968 976.099 319.961 972.602 319.961C968.611 319.961 965.562 322.781 965.562 327.724C965.562 332.654 968.557 335.485 972.602 335.485C976.475 335.485 978.812 332.911 979.161 330.13L975.928 330.113C975.626 331.73 974.359 332.659 972.652 332.659C970.358 332.659 968.802 330.954 968.802 327.724C968.802 324.58 970.335 322.786 972.675 322.786C974.422 322.786 975.687 323.798 975.928 325.458H979.161ZM986.515 335.502C989.953 335.502 992.092 333.147 992.092 329.657C992.092 326.145 989.953 323.798 986.515 323.798C983.075 323.798 980.935 326.145 980.935 329.657C980.935 333.147 983.075 335.502 986.515 335.502ZM986.529 333.067C984.942 333.067 984.131 331.613 984.131 329.634C984.131 327.656 984.942 326.196 986.529 326.196C988.085 326.196 988.896 327.659 988.896 329.634C988.896 331.613 988.085 333.067 986.529 333.067Z" fill="white"/>
<path d="M596.672 792.859H1272.37V855.58H596.672V792.859Z" fill="#E9EBEF"/>
<path d="M596.672 792.859H1235.3V855.58H596.672V792.859Z" fill="#0A84FF"/>
<path d="M596.672 792.859H801.947V855.58H596.672V792.859Z" fill="#FF9500"/>
<path d="M596.672 792.859H622.33V855.58H596.672V792.859Z" fill="#FF453A"/>
<path d="M596.672 792.859H610.928V855.58H596.672V792.859Z" fill="#34C759"/>
<mask id="mask0_739_3422" style="mask-type:alpha" maskUnits="userSpaceOnUse" x="156" y="755" width="404" height="216">
<path d="M559.362 970.268H156.941V755.643H559.362V970.268Z" fill="white"/>
</mask>
<g mask="url(#mask0_739_3422)">
<path d="M523.963 931.371C523.963 1019.27 452.707 1090.51 364.817 1090.51C276.922 1090.51 205.672 1019.27 205.672 931.371C205.672 843.482 276.922 772.227 364.817 772.227C452.707 772.227 523.963 843.482 523.963 931.371ZM264.554 931.371C264.554 986.744 309.444 1031.63 364.817 1031.63C420.188 1031.63 465.075 986.744 465.075 931.371C465.075 875.997 420.188 831.111 364.817 831.111C309.444 831.111 264.554 875.997 264.554 931.371Z" fill="#E9EBEF"/>
<path d="M438.394 790.252C418.766 780.017 397.218 773.991 375.127 772.556C353.037 771.12 330.89 774.309 310.102 781.922C289.314 789.531 270.343 801.396 254.401 816.755C238.459 832.114 225.896 850.632 217.517 871.122C209.137 891.608 205.123 913.621 205.732 935.751C206.342 957.877 211.561 979.635 221.056 999.631C230.551 1019.63 244.114 1037.43 260.877 1051.88C277.64 1066.34 297.235 1077.14 318.409 1083.6L335.581 1027.27C315.481 1021.14 297.815 1008.85 285.077 992.14C272.34 975.426 265.174 955.134 264.593 934.127C264.013 913.121 270.049 892.464 281.848 875.072C293.647 857.684 310.612 844.441 330.346 837.218C343.442 832.422 357.395 830.41 371.312 831.316C385.229 832.218 398.803 836.017 411.171 842.466L438.394 790.252Z" fill="#0A84FF"/>
<path d="M331.391 919.86C340.164 919.901 346.145 914.146 346.125 906.124C346.145 898.74 340.991 893.411 334.008 893.411C329.681 893.411 325.852 895.487 324.081 898.971H323.813C323.85 891.295 326.544 886.527 331.682 886.527C334.701 886.527 336.874 888.18 337.509 890.93H345.72C344.934 884.447 339.548 879.387 331.679 879.387C321.946 879.387 315.694 887.274 315.656 900.511C315.637 914.934 323.294 919.824 331.394 919.86H331.391ZM331.354 913.318C327.505 913.318 324.66 910.222 324.66 906.376C324.677 902.546 327.582 899.431 331.411 899.431C335.26 899.431 338.065 902.452 338.048 906.356C338.065 910.3 335.2 913.318 331.354 913.318ZM369.173 879.923H361.341L351.591 886.101V893.488L360.611 887.831H360.842V919.32H369.173V879.923ZM400.097 911.936C400.117 916.668 403.139 920.689 408.773 920.689C414.353 920.689 417.468 916.668 417.448 911.936V909.857C417.468 905.088 414.43 901.104 408.773 901.104C403.216 901.104 400.117 905.125 400.097 909.857V911.936ZM379.882 889.39C379.901 894.122 382.921 898.103 388.537 898.103C394.137 898.103 397.253 894.159 397.233 889.39V887.311C397.253 882.543 394.214 878.559 388.537 878.559C383.038 878.559 379.901 882.543 379.882 887.311V889.39ZM381.766 919.32H386.787L413.87 879.923H408.85L381.766 919.32ZM405.698 909.857C405.714 907.972 406.469 906.031 408.773 906.031C411.197 906.031 411.835 907.972 411.814 909.857V911.936C411.835 913.821 411.12 915.726 408.773 915.726C406.429 915.726 405.714 913.764 405.698 911.936V909.857ZM385.518 887.311C385.538 885.484 386.248 883.485 388.537 883.485C390.961 883.485 391.617 885.427 391.596 887.311V889.39C391.617 891.275 390.884 893.18 388.537 893.18C386.268 893.18 385.538 891.275 385.518 889.39V887.311Z" fill="#3E424B"/>
<path d="M312.585 947.229C312.585 945.492 313.646 944.496 315.12 944.493C316.557 944.489 317.429 945.435 317.435 947.015L317.443 953.682L319.562 953.678L319.553 946.753C319.547 944.064 318.065 942.655 315.841 942.658C314.202 942.662 313.132 943.42 312.631 944.577H312.497V942.803L310.461 942.809L310.475 953.695L312.596 953.692L312.585 947.229ZM326.991 953.889C330.059 953.886 332.061 951.636 332.055 948.269C332.052 944.882 330.042 942.638 326.974 942.642C323.904 942.645 321.902 944.895 321.908 948.282C321.911 951.649 323.921 953.893 326.988 953.889H326.991ZM326.994 952.109C324.99 952.112 324.052 950.365 324.046 948.272C324.046 946.19 324.979 944.416 326.983 944.412C328.976 944.412 329.914 946.183 329.917 948.262C329.917 950.355 328.987 952.105 326.994 952.109ZM344.297 953.863C346.869 953.859 348.534 952.31 348.765 950.194L346.701 950.197C346.433 951.371 345.52 952.068 344.306 952.068C342.515 952.072 341.358 950.579 341.355 948.205C341.352 945.874 342.524 944.406 344.297 944.402C345.643 944.399 346.467 945.251 346.695 946.27L348.756 946.264C348.528 944.07 346.732 942.612 344.257 942.615C341.189 942.622 339.211 944.932 339.214 948.256C339.219 951.539 341.135 953.869 344.297 953.863ZM353.144 947.166C353.144 945.428 354.239 944.436 355.747 944.432C357.206 944.432 358.082 945.358 358.085 946.954L358.093 953.621H360.212L360.203 946.696C360.197 943.98 358.706 942.595 356.468 942.598C354.775 942.601 353.754 943.339 353.246 944.516H353.113L353.104 939.117L351.014 939.121L351.034 953.635L353.152 953.628L353.144 947.166ZM366.207 953.849C368.009 953.849 369.021 952.934 369.423 952.119H369.509L369.512 953.604H371.579L371.57 946.374C371.565 943.205 369.07 942.578 367.339 942.581C365.372 942.585 363.556 943.38 362.852 945.365L364.842 945.818C365.155 945.043 365.945 944.298 367.371 944.298C368.739 944.295 369.44 945.009 369.443 946.24V946.294C369.443 947.065 368.651 947.052 366.695 947.283C364.633 947.524 362.521 948.068 362.526 950.539C362.526 952.679 364.14 953.853 366.207 953.849ZM366.666 952.149C365.469 952.152 364.602 951.612 364.602 950.566C364.602 949.433 365.606 949.027 366.832 948.862C367.519 948.769 369.15 948.581 369.452 948.276L369.454 949.681C369.457 950.968 368.431 952.146 366.666 952.149ZM376.511 947.132C376.508 945.395 377.571 944.402 379.046 944.399C380.482 944.396 381.358 945.338 381.358 946.921L381.369 953.588L383.487 953.584L383.479 946.659C383.473 943.966 381.991 942.558 379.764 942.565C378.127 942.565 377.058 943.326 376.557 944.479L376.422 944.483L376.42 942.709L374.387 942.712L374.401 953.598L376.522 953.594L376.511 947.132ZM390.9 957.883C393.671 957.88 395.809 956.609 395.807 953.809L395.79 942.682H393.711L393.714 944.449H393.56C393.184 943.775 392.428 942.545 390.404 942.548C387.772 942.548 385.842 944.63 385.848 948.095C385.851 951.569 387.832 953.413 390.404 953.413C392.403 953.41 393.175 952.28 393.554 951.586H393.691L393.694 953.725C393.697 955.432 392.528 956.173 390.92 956.173C389.155 956.176 388.465 955.295 388.089 954.671L386.27 955.422C386.846 956.753 388.3 957.883 390.9 957.883ZM390.869 951.653C388.979 951.656 387.989 950.204 387.986 948.064C387.983 945.972 388.944 944.349 390.86 944.345C392.708 944.342 393.703 945.851 393.705 948.054C393.708 950.301 392.699 951.649 390.869 951.653ZM403.339 953.775C405.713 953.772 407.39 952.598 407.869 950.824L405.864 950.469C405.482 951.495 404.563 952.025 403.359 952.025C401.545 952.025 400.324 950.851 400.263 948.752L408.003 948.742L408 947.991C407.993 944.057 405.639 942.524 403.174 942.528C400.139 942.531 398.144 944.845 398.15 948.192C398.156 951.569 400.129 953.779 403.339 953.775ZM400.27 947.169C400.351 945.623 401.467 944.278 403.191 944.278C404.834 944.278 405.914 945.496 405.921 947.159L400.27 947.169ZM418.507 945.304C418.064 943.611 416.736 942.508 414.385 942.511C411.924 942.514 410.183 943.815 410.183 945.744C410.187 947.286 411.125 948.313 413.168 948.765L415.012 949.164C416.062 949.399 416.548 949.865 416.551 950.543C416.551 951.388 415.653 952.048 414.264 952.048C412.997 952.052 412.178 951.508 411.92 950.439L409.875 950.75C410.233 952.679 411.836 953.762 414.278 953.759C416.91 953.755 418.728 952.357 418.725 950.385C418.725 948.846 417.742 947.897 415.743 947.441L414.013 947.048C412.816 946.767 412.299 946.361 412.306 945.626C412.296 944.791 413.205 944.191 414.405 944.191C415.727 944.188 416.337 944.919 416.585 945.65L418.507 945.304Z" fill="black" fill-opacity="0.75"/>
</g>
<path d="M597.137 910.084H606.009V908.525H598.893V903.592H605.442V902.032H598.893V897.13H605.895V895.57H597.137V910.084ZM608.837 910.084H610.508V903.196C610.508 901.724 611.671 900.644 613.259 900.644C613.704 900.644 614.166 900.731 614.28 900.758V899.058C613.987 899.038 613.693 899.031 613.399 899.028C612.096 899.028 610.961 899.765 610.565 900.845H610.451V899.199H608.837V910.084ZM616.261 910.084H617.935V903.196C617.935 901.724 619.095 900.644 620.683 900.644C621.131 900.644 621.59 900.731 621.704 900.758V899.058C621.412 899.038 621.119 899.031 620.826 899.028C619.52 899.028 618.388 899.765 617.992 900.845H617.878V899.199H616.261V910.084ZM627.779 910.312C630.725 910.312 632.712 908.072 632.712 904.698C632.712 901.298 630.725 899.058 627.779 899.058C624.829 899.058 622.847 901.298 622.847 904.698C622.847 908.072 624.829 910.312 627.779 910.312ZM627.779 908.81C625.539 908.81 624.518 906.882 624.518 904.698C624.518 902.515 625.539 900.56 627.777 900.56C630.018 900.56 631.038 902.515 631.038 904.698C631.038 906.882 630.018 908.81 627.777 908.81H627.779ZM635.263 910.084H636.937V903.196C636.937 901.724 638.097 900.644 639.685 900.644C640.133 900.644 640.592 900.731 640.706 900.758V899.058C640.414 899.038 640.121 899.031 639.828 899.028C638.522 899.028 637.391 899.765 636.994 900.845H636.88V899.199H635.263V910.084ZM650.402 901.637C649.875 900.091 648.7 899.058 646.545 899.058C644.247 899.058 642.548 900.359 642.548 902.203C642.548 903.706 643.44 904.712 645.439 905.181L647.252 905.607C648.352 905.859 648.869 906.385 648.869 907.136C648.869 908.072 647.877 908.837 646.317 908.837C644.948 908.837 644.093 908.25 643.794 907.079L642.209 907.475C642.596 909.326 644.119 910.312 646.345 910.312C648.877 910.312 650.599 908.931 650.599 907.053C650.599 905.533 649.65 904.578 647.708 904.101L646.092 903.706C644.8 903.387 644.221 902.955 644.221 902.12C644.221 901.184 645.214 900.503 646.545 900.503C648.005 900.503 648.606 901.311 648.897 902.063L650.399 901.637H650.402ZM770.833 910.084H772.649L775.851 898.518H775.965L779.166 910.084H780.982L784.951 895.57H783.163L780.133 907.391H779.99L776.9 895.57H774.916L771.825 907.391H771.682L768.652 895.57H766.864L770.833 910.084ZM789.106 910.339C791.004 910.339 791.997 909.32 792.335 908.612H792.423V910.084H794.096V902.911C794.096 899.454 791.457 899.058 790.068 899.058C788.425 899.058 786.554 899.625 785.701 901.61L787.289 902.177C787.657 901.382 788.529 900.53 790.125 900.53C791.661 900.53 792.423 901.345 792.423 902.743V902.8C792.423 903.608 791.601 903.535 789.616 903.793C787.594 904.055 785.39 904.501 785.39 906.996C785.39 909.122 787.035 910.339 789.106 910.339ZM789.357 908.837C788.026 908.837 787.064 908.243 787.064 907.079C787.064 905.805 788.224 905.406 789.528 905.238C790.236 905.151 792.134 904.953 792.423 904.615V906.144C792.423 907.505 791.343 908.837 789.357 908.837ZM797.144 910.084H798.818V903.196C798.818 901.724 799.981 900.644 801.568 900.644C802.014 900.644 802.476 900.731 802.587 900.758V899.058C802.295 899.038 802.003 899.031 801.708 899.028C800.407 899.028 799.27 899.765 798.875 900.845H798.761V899.199H797.144V910.084ZM806.242 903.535C806.242 901.637 807.419 900.56 809.022 900.56C810.575 900.56 811.517 901.573 811.517 903.283V910.084H813.191V903.169C813.191 900.389 811.709 899.058 809.505 899.058C807.859 899.058 806.839 899.796 806.33 900.899H806.189V899.199H804.572V910.084H806.242V903.535ZM816.246 910.084H817.919V899.199H816.246V910.084ZM817.098 897.384C817.403 897.388 817.701 897.274 817.923 897.062C818.147 896.851 818.278 896.56 818.285 896.251C818.278 895.942 818.147 895.651 817.923 895.439C817.701 895.228 817.403 895.111 817.098 895.117C816.789 895.111 816.491 895.225 816.266 895.439C816.045 895.651 815.914 895.942 815.904 896.251C815.914 896.56 816.045 896.851 816.269 897.062C816.491 897.274 816.789 897.388 817.098 897.384ZM822.654 903.535C822.654 901.637 823.831 900.56 825.434 900.56C826.984 900.56 827.926 901.573 827.926 903.283V910.084H829.6V903.169C829.6 900.389 828.117 899.058 825.914 899.058C824.271 899.058 823.248 899.796 822.738 900.899H822.597V899.199H820.981V910.084H822.654V903.535ZM837.051 914.393C839.657 914.393 841.756 913.203 841.756 910.396V899.199H840.14V900.926H839.972C839.6 900.359 838.922 899.058 836.793 899.058C834.046 899.058 832.145 901.241 832.145 904.584C832.145 907.985 834.13 909.913 836.766 909.913C838.892 909.913 839.573 908.669 839.942 908.072H840.086V910.285C840.086 912.096 838.808 912.918 837.051 912.918C835.072 912.918 834.378 911.878 833.932 911.275L832.601 912.21C833.278 913.35 834.62 914.393 837.051 914.393ZM836.994 908.411C834.895 908.411 833.818 906.825 833.818 904.558C833.818 902.348 834.868 900.56 836.994 900.56C839.036 900.56 840.109 902.203 840.109 904.558C840.109 906.965 839.006 908.411 836.994 908.411ZM852.531 901.637C852.004 900.091 850.827 899.058 848.671 899.058C846.377 899.058 844.674 900.359 844.674 902.203C844.674 903.706 845.569 904.712 847.568 905.181L849.382 905.607C850.478 905.859 850.998 906.385 850.998 907.136C850.998 908.072 850.006 908.837 848.446 908.837C847.078 908.837 846.219 908.25 845.924 907.079L844.335 907.475C844.727 909.326 846.25 910.312 848.476 910.312C851.005 910.312 852.725 908.931 852.725 907.053C852.725 905.533 851.776 904.578 849.835 904.101L848.218 903.706C846.93 903.387 846.347 902.955 846.347 902.12C846.347 901.184 847.34 900.503 848.671 900.503C850.133 900.503 850.737 901.311 851.025 902.063L852.531 901.637Z" fill="#1C1C1E"/>
<path d="M615.719 930.559H607.89L598.137 936.733V944.121L607.157 938.464H607.388V969.953H615.719V930.559ZM625.082 969.953H653.164V963.145H636.623V962.874L642.376 957.237C650.473 949.852 652.648 946.16 652.648 941.676C652.648 934.845 647.069 930.02 638.621 930.02C630.353 930.02 624.68 934.963 624.697 942.696H632.603C632.583 938.926 634.969 936.616 638.567 936.616C642.028 936.616 644.606 938.772 644.606 942.233C644.606 945.369 642.684 947.525 639.103 950.969L625.082 963.954V969.953ZM673.763 970.493C682.613 970.493 688.942 965.627 688.922 958.89C688.942 953.987 685.826 950.486 680.035 949.755V949.45C684.44 948.658 687.479 945.543 687.459 941.12C687.479 934.906 682.037 930.02 673.88 930.02C665.8 930.02 659.722 934.751 659.605 941.559H667.588C667.685 938.561 670.436 936.616 673.84 936.616C677.207 936.616 679.457 938.655 679.439 941.616C679.459 944.715 676.822 946.811 673.033 946.811H669.358V952.931H673.033C677.495 952.931 680.286 955.161 680.266 958.337C680.286 961.472 677.592 963.625 673.783 963.625C670.108 963.625 667.357 961.7 667.203 958.816H658.821C658.955 965.704 665.11 970.493 673.766 970.493H673.763ZM696.469 969.953H705.067L721.418 937.464V930.559H693.774V937.367H712.799V937.639L696.469 969.953Z" fill="#FF453A"/>
<path d="M786.781 930.559H778.953L769.199 936.733V944.121L778.22 938.464H778.451V969.953H786.781V930.559ZM813.283 930.559H805.456L795.704 936.733V944.121L804.722 938.464H804.953V969.953H813.283V930.559ZM837.207 970.493C846.057 970.493 852.385 965.627 852.368 958.89C852.385 953.987 849.27 950.486 843.481 949.755V949.45C847.885 948.658 850.923 945.543 850.903 941.12C850.923 934.906 845.48 930.02 837.324 930.02C829.246 930.02 823.166 934.751 823.052 941.559H831.037C831.13 938.561 833.88 936.616 837.284 936.616C840.651 936.616 842.905 938.655 842.884 941.616C842.905 944.715 840.265 946.811 836.479 946.811H832.804V952.931H836.479C840.939 952.931 843.73 955.161 843.709 958.337C843.73 961.472 841.037 963.625 837.227 963.625C833.552 963.625 830.805 961.7 830.651 958.816H822.264C822.398 965.704 828.552 970.493 837.207 970.493ZM872.915 970.493C881.765 970.493 888.093 965.627 888.076 958.89C888.093 953.987 884.978 950.486 879.186 949.755V949.45C883.593 948.658 886.634 945.543 886.614 941.12C886.634 934.906 881.188 930.02 873.029 930.02C864.954 930.02 858.874 934.751 858.76 941.559H866.741C866.839 938.561 869.588 936.616 872.992 936.616C876.359 936.616 878.609 938.655 878.589 941.616C878.609 944.715 875.977 946.811 872.184 946.811H868.512V952.931H872.184C876.648 952.931 879.438 955.161 879.418 958.337C879.438 961.472 876.745 963.625 872.935 963.625C869.263 963.625 866.51 961.7 866.356 958.816H857.969C858.106 965.704 864.26 970.493 872.915 970.493ZM908.452 970.493C917.222 970.493 923.188 964.779 923.167 956.817C923.188 949.275 917.916 943.849 910.817 943.849C907.356 943.849 904.371 945.291 902.986 947.236H902.755L903.777 937.367H920.994V930.559H896.909L895.045 951.334L902.446 952.659C903.66 951.026 906.008 950.006 908.335 950.006C912.299 950.023 915.146 952.89 915.146 957.025C915.146 961.123 912.356 963.954 908.452 963.954C905.142 963.954 902.466 961.875 902.275 958.816H894.196C894.351 965.627 900.297 970.493 908.452 970.493Z" fill="#FF9500"/>
<rect opacity="0.05" x="94" y="184" width="1250" height="806" fill="white"/>
<defs>
<radialGradient id="paint0_radial_739_3422" cx="0" cy="0" r="1" gradientUnits="userSpaceOnUse" gradientTransform="translate(77.5938 52.9607) scale(18.6759 18.1286)">
<stop offset="0.51"/>
<stop offset="0.52" stop-color="#0A0A0A"/>
<stop offset="0.58" stop-color="#4A4A4A"/>
<stop offset="0.65" stop-color="#818181"/>
<stop offset="0.71" stop-color="#AEAEAE"/>
<stop offset="0.77" stop-color="#D1D1D1"/>
<stop offset="0.82" stop-color="#EAEAEA"/>
<stop offset="0.87" stop-color="#FAFAFA"/>
<stop offset="0.91" stop-color="white"/>
</radialGradient>
<radialGradient id="paint1_radial_739_3422" cx="0" cy="0" r="1" gradientUnits="userSpaceOnUse" gradientTransform="translate(142.668 52.9607) scale(18.6759 18.1286)">
<stop offset="0.51"/>
<stop offset="0.52" stop-color="#0A0A0A"/>
<stop offset="0.58" stop-color="#4A4A4A"/>
<stop offset="0.65" stop-color="#818181"/>
<stop offset="0.71" stop-color="#AEAEAE"/>
<stop offset="0.77" stop-color="#D1D1D1"/>
<stop offset="0.82" stop-color="#EAEAEA"/>
<stop offset="0.87" stop-color="#FAFAFA"/>
<stop offset="0.91" stop-color="white"/>
</radialGradient>
<radialGradient id="paint2_radial_739_3422" cx="0" cy="0" r="1" gradientUnits="userSpaceOnUse" gradientTransform="translate(207.746 52.9607) scale(18.6758 18.1286)">
<stop offset="0.51"/>
<stop offset="0.52" stop-color="#0A0A0A"/>
<stop offset="0.58" stop-color="#4A4A4A"/>
<stop offset="0.65" stop-color="#818181"/>
<stop offset="0.71" stop-color="#AEAEAE"/>
<stop offset="0.77" stop-color="#D1D1D1"/>
<stop offset="0.82" stop-color="#EAEAEA"/>
<stop offset="0.87" stop-color="#FAFAFA"/>
<stop offset="0.91" stop-color="white"/>
</radialGradient>
</defs>
</svg>
